<?xml version="1.0" encoding="UTF-8" standalone="no"?>
<svg
   xmlns:dc="http://purl.org/dc/elements/1.1/"
   xmlns:cc="http://creativecommons.org/ns#"
   xmlns:rdf="http://www.w3.org/1999/02/22-rdf-syntax-ns#"
   xmlns:svg="http://www.w3.org/2000/svg"
   xmlns="http://www.w3.org/2000/svg"
   xmlns:sodipodi="http://sodipodi.sourceforge.net/DTD/sodipodi-0.dtd"
   xmlns:inkscape="http://www.inkscape.org/namespaces/inkscape"
   viewBox="0 0 239.33332 129.7812"
   height="129.7812"
   width="239.33333"
   xml:space="preserve"
   id="svg2"
   version="1.1"
   sodipodi:docname="compp.svg"
   inkscape:version="0.92.2 (5c3e80d, 2017-08-06)"><sodipodi:namedview
     pagecolor="#ffffff"
     bordercolor="#666666"
     borderopacity="1"
     objecttolerance="10"
     gridtolerance="10"
     guidetolerance="10"
     inkscape:pageopacity="0"
     inkscape:pageshadow="2"
     inkscape:window-width="640"
     inkscape:window-height="480"
     id="namedview897"
     showgrid="false"
     fit-margin-top="0"
     fit-margin-left="0"
     fit-margin-right="0"
     fit-margin-bottom="0"
     inkscape:zoom="0.297479"
     inkscape:cx="-166.05687"
     inkscape:cy="84.293582"
     inkscape:window-x="0"
     inkscape:window-y="0"
     inkscape:window-maximized="0"
     inkscape:current-layer="g14" /><metadata
     id="metadata8"><rdf:RDF><cc:Work
         rdf:about=""><dc:format>image/svg+xml</dc:format><dc:type
           rdf:resource="http://purl.org/dc/dcmitype/StillImage" /></cc:Work></rdf:RDF></metadata><defs
     id="defs6"><clipPath
       id="clipPath18"
       clipPathUnits="userSpaceOnUse"><path
         style="clip-rule:evenodd"
         id="path16"
         d="M 0,-0.2 H 793.6 V 595 H 0 Z"
         inkscape:connector-curvature="0" /></clipPath></defs><g
     transform="matrix(1.3333333,0,0,-1.3333333,-360.39999,493.37499)"
     id="g10"><g
       id="g12"><g
         clip-path="url(#clipPath18)"
         id="g14"><g
           id="g22" /><g
           id="g24" /><path
           id="path26"
           style="fill:#525e66;fill-opacity:1;fill-rule:evenodd;stroke:none"
           d="m 317.3,341.8 v 0 0.4 0.4 0.4 l 0.1,0.4 0.1,0.4 0.1,0.3 0.2,0.4 0.1,0.4 0.2,0.3 0.2,0.4 0.2,0.3 0.2,0.3 0.2,0.3 0.3,0.4 0.3,0.2 0.2,0.3 0.4,0.3 0.3,0.2 0.3,0.2 0.3,0.2 0.4,0.2 0.3,0.2 0.4,0.1 0.4,0.2 0.3,0.1 0.4,0.1 0.4,0.1 h 0.4 0.4 0.4 69.9 v 0 h 0.4 0.4 0.4 l 0.4,-0.1 0.4,-0.1 0.3,-0.1 0.4,-0.2 0.4,-0.1 0.4,-0.2 0.3,-0.2 0.3,-0.2 0.3,-0.2 0.4,-0.2 0.3,-0.3 0.3,-0.3 0.2,-0.2 0.3,-0.4 0.2,-0.3 0.2,-0.3 0.2,-0.3 0.2,-0.4 0.2,-0.3 0.2,-0.4 0.1,-0.4 0.1,-0.3 0.1,-0.4 0.1,-0.4 v -0.4 l 0.1,-0.4 v -0.4 -60.5 0 -0.4 l -0.1,-0.4 v -0.4 l -0.1,-0.4 -0.1,-0.4 -0.1,-0.4 -0.1,-0.3 -0.2,-0.4 -0.2,-0.3 -0.1,-0.4 -0.3,-0.3 -0.2,-0.4 -0.2,-0.3 -0.3,-0.3 -0.2,-0.3 -0.3,-0.2 -0.3,-0.3 -0.3,-0.2 -0.4,-0.3 -0.3,-0.2 -0.3,-0.2 -0.4,-0.1 -0.4,-0.2 -0.3,-0.1 -0.4,-0.1 -0.4,-0.1 -0.4,-0.1 h -0.4 l -0.4,-0.1 h -0.3 -70 v 0 h -0.4 -0.4 l -0.4,0.1 -0.4,0.1 -0.4,0.1 -0.3,0.1 -0.4,0.1 -0.4,0.2 -0.3,0.1 -0.4,0.2 -0.3,0.2 -0.3,0.3 -0.3,0.2 -0.4,0.2 -0.2,0.3 -0.3,0.3 -0.2,0.3 -0.3,0.3 -0.2,0.4 -0.2,0.3 -0.2,0.3 -0.2,0.4 -0.1,0.3 -0.2,0.4 -0.1,0.4 -0.1,0.4 -0.1,0.3 v 0.4 0.4 0.4 z m 0,7.5 z m 85,-75.6 z"
           inkscape:connector-curvature="0" /><g
           id="g28"><path
             id="path30"
             style="fill:none;stroke:#ffffff;stroke-width:2.00929999;stroke-linecap:butt;stroke-linejoin:round;stroke-miterlimit:10;stroke-dasharray:none;stroke-opacity:1"
             d="m 317.3,341.8 v 0 0.4 0.4 0.4 l 0.1,0.4 0.1,0.4 0.1,0.3 0.2,0.4 0.1,0.4 0.2,0.3 0.2,0.4 0.2,0.3 0.2,0.3 0.2,0.3 0.3,0.4 0.3,0.2 0.2,0.3 0.4,0.3 0.3,0.2 0.3,0.2 0.3,0.2 0.4,0.2 0.3,0.2 0.4,0.1 0.4,0.2 0.3,0.1 0.4,0.1 0.4,0.1 h 0.4 0.4 0.4 69.9 v 0 h 0.4 0.4 0.4 l 0.4,-0.1 0.4,-0.1 0.3,-0.1 0.4,-0.2 0.4,-0.1 0.4,-0.2 0.3,-0.2 0.3,-0.2 0.3,-0.2 0.4,-0.2 0.3,-0.3 0.3,-0.3 0.2,-0.2 0.3,-0.4 0.2,-0.3 0.2,-0.3 0.2,-0.3 0.2,-0.4 0.2,-0.3 0.2,-0.4 0.1,-0.4 0.1,-0.3 0.1,-0.4 0.1,-0.4 v -0.4 l 0.1,-0.4 v -0.4 -60.5 0 -0.4 l -0.1,-0.4 v -0.4 l -0.1,-0.4 -0.1,-0.4 -0.1,-0.4 -0.1,-0.3 -0.2,-0.4 -0.2,-0.3 -0.1,-0.4 -0.3,-0.3 -0.2,-0.4 -0.2,-0.3 -0.3,-0.3 -0.2,-0.3 -0.3,-0.2 -0.3,-0.3 -0.3,-0.2 -0.4,-0.3 -0.3,-0.2 -0.3,-0.2 -0.4,-0.1 -0.4,-0.2 -0.3,-0.1 -0.4,-0.1 -0.4,-0.1 -0.4,-0.1 h -0.4 l -0.4,-0.1 h -0.3 -70 v 0 h -0.4 -0.4 l -0.4,0.1 -0.4,0.1 -0.4,0.1 -0.3,0.1 -0.4,0.1 -0.4,0.2 -0.3,0.1 -0.4,0.2 -0.3,0.2 -0.3,0.3 -0.3,0.2 -0.4,0.2 -0.2,0.3 -0.3,0.3 -0.2,0.3 -0.3,0.3 -0.2,0.4 -0.2,0.3 -0.2,0.3 -0.2,0.4 -0.1,0.3 -0.2,0.4 -0.1,0.4 -0.1,0.4 -0.1,0.3 v 0.4 0.4 0.4 z"
             inkscape:connector-curvature="0" /></g><g
           id="g32"><path
             id="path34"
             style="fill:none;stroke:#ffffff;stroke-width:2.00929999;stroke-linecap:butt;stroke-linejoin:round;stroke-miterlimit:10;stroke-dasharray:none;stroke-opacity:1"
             d="M 317.3,349.3 Z"
             inkscape:connector-curvature="0" /></g><g
           id="g36"><path
             id="path38"
             style="fill:none;stroke:#ffffff;stroke-width:2.00929999;stroke-linecap:butt;stroke-linejoin:round;stroke-miterlimit:10;stroke-dasharray:none;stroke-opacity:1"
             d="M 402.3,273.7 Z"
             inkscape:connector-curvature="0" /></g><g
           id="g40"><text
             id="text44"
             style="font-variant:normal;font-weight:normal;font-size:18px;font-family:Carlito;-inkscape-font-specification:Carlito;writing-mode:lr-tb;fill:#ffffff;fill-opacity:1;fill-rule:nonzero;stroke:none"
             transform="matrix(1,0,0,-1,332.1,323.7)"><tspan
               id="tspan42"
               y="0"
               x="0 9.198 15.192 24.677999 32.273998 41.256001 48.257999 55.332001">Process </tspan></text>
</g><g
           id="g46"><text
             id="text50"
             style="font-variant:normal;font-weight:normal;font-size:18px;font-family:Carlito;-inkscape-font-specification:Carlito;writing-mode:lr-tb;fill:#ffffff;fill-opacity:1;fill-rule:nonzero;stroke:none"
             transform="matrix(1,0,0,-1,332,304.3)"><tspan
               id="tspan48"
               y="0"
               x="0 7.0739999 16.559999 25.865999 31.662001 40.265999 47.34 55.529999">subtask </tspan></text>
</g><g
           id="g52"><text
             id="text56"
             style="font-variant:normal;font-weight:normal;font-size:18px;font-family:Carlito;-inkscape-font-specification:Carlito;writing-mode:lr-tb;fill:#ffffff;fill-opacity:1;fill-rule:nonzero;stroke:none"
             transform="matrix(1,0,0,-1,349.5,284.9)"><tspan
               id="tspan54"
               y="0"
               x="0 8.9820004">#N</tspan></text>
</g><g
           id="g58"><text
             id="text62"
             style="font-variant:normal;font-weight:bold;font-size:18px;font-family:Carlito;-inkscape-font-specification:Carlito-Bold;writing-mode:lr-tb;fill:#000000;fill-opacity:1;fill-rule:nonzero;stroke:none"
             transform="matrix(1,0,0,-1,347.1,367.5)"><tspan
               id="tspan60"
               y="0"
               x="0 4.8060002 9.6120005">...</tspan></text>
</g><path
           id="path64"
           style="fill:#b3b6b8;fill-opacity:1;fill-rule:evenodd;stroke:none"
           d="m 281.8,339.4 10.9,-8.5 3.9,4.9 1.2,-20.8 -20.5,-3.8 3.8,4.9 -10.8,8.6 z m 3.9,4.9 z m 2.4,-41.7 z"
           inkscape:connector-curvature="0" /><path
           id="path66"
           style="fill:#b3b6b8;fill-opacity:1;fill-rule:evenodd;stroke:none"
           d="m 411.9,328.1 11.9,8.1 -3.5,5.1 20.7,-4.8 -3.1,-21 -3.5,5.1 -11.9,-8.1 z m -3.5,5.1 z m 41.4,-9.6 z"
           inkscape:connector-curvature="0" /></g></g></g></svg>