<?xml version="1.0" encoding="UTF-8" standalone="no"?>
<svg
   viewBox="0 0 556.75718 486.79999"
   height="486.79999"
   width="556.7572"
   xml:space="preserve"
   id="svg2"
   version="1.1"
   sodipodi:docname="sci.svg"
   inkscape:version="1.2 (dc2aeda, 2022-05-15)"
   xmlns:inkscape="http://www.inkscape.org/namespaces/inkscape"
   xmlns:sodipodi="http://sodipodi.sourceforge.net/DTD/sodipodi-0.dtd"
   xmlns="http://www.w3.org/2000/svg"
   xmlns:svg="http://www.w3.org/2000/svg"
   xmlns:rdf="http://www.w3.org/1999/02/22-rdf-syntax-ns#"
   xmlns:cc="http://creativecommons.org/ns#"
   xmlns:dc="http://purl.org/dc/elements/1.1/"><sodipodi:namedview
     pagecolor="#ffffff"
     bordercolor="#666666"
     borderopacity="1"
     objecttolerance="10"
     gridtolerance="10"
     guidetolerance="10"
     inkscape:pageopacity="0"
     inkscape:pageshadow="2"
     inkscape:window-width="1920"
     inkscape:window-height="1043"
     id="namedview2461"
     showgrid="false"
     fit-margin-top="0"
     fit-margin-left="0"
     fit-margin-right="0"
     fit-margin-bottom="0"
     inkscape:zoom="1.6827953"
     inkscape:cx="368.73172"
     inkscape:cy="270.38345"
     inkscape:window-x="1920"
     inkscape:window-y="0"
     inkscape:window-maximized="1"
     inkscape:current-layer="g14"
     inkscape:showpageshadow="2"
     inkscape:pagecheckerboard="0"
     inkscape:deskcolor="#d1d1d1" /><metadata
     id="metadata8"><rdf:RDF><cc:Work
         rdf:about=""><dc:format>image/svg+xml</dc:format><dc:type
           rdf:resource="http://purl.org/dc/dcmitype/StillImage" /></cc:Work></rdf:RDF></metadata><defs
     id="defs6"><rect
       x="316.99371"
       y="273.22477"
       width="255.14011"
       height="101.90566"
       id="rect1700" /><clipPath
       id="clipPath18"
       clipPathUnits="userSpaceOnUse"><path
         style="clip-rule:evenodd"
         id="path16"
         d="M 0,-0.2 H 793.6 V 595 H 0 Z"
         inkscape:connector-curvature="0" /></clipPath><clipPath
       id="clipPath32"
       clipPathUnits="userSpaceOnUse"><path
         id="path30"
         d="M 175.9,248.4 H 419.7 V 357.2 H 175.9 Z"
         inkscape:connector-curvature="0" /></clipPath><clipPath
       id="clipPath36"
       clipPathUnits="userSpaceOnUse"><path
         id="path34"
         d="M 176.3,248.8 H 419.4 V 356.9 H 176.3 Z"
         inkscape:connector-curvature="0" /></clipPath><clipPath
       id="clipPath70"
       clipPathUnits="userSpaceOnUse"><path
         id="path68"
         d="M 176.3,250.6 H 419.4 V 358.7 H 176.3 Z"
         inkscape:connector-curvature="0" /></clipPath><clipPath
       id="clipPath230"
       clipPathUnits="userSpaceOnUse"><path
         id="path228"
         d="M 234.7,250.3 H 418.2 V 492.9 H 234.7 Z"
         inkscape:connector-curvature="0" /></clipPath><clipPath
       id="clipPath234"
       clipPathUnits="userSpaceOnUse"><path
         id="path232"
         d="M 235,250.7 H 417.7 V 492.5 H 235 Z"
         inkscape:connector-curvature="0" /></clipPath><clipPath
       id="clipPath268"
       clipPathUnits="userSpaceOnUse"><path
         id="path266"
         d="M 235,252.5 H 417.7 V 494.3 H 235 Z"
         inkscape:connector-curvature="0" /></clipPath><clipPath
       id="clipPath398"
       clipPathUnits="userSpaceOnUse"><path
         id="path396"
         d="M 349.1,270.4 H 593.9 V 448.7 H 349.1 Z"
         inkscape:connector-curvature="0" /></clipPath><clipPath
       id="clipPath402"
       clipPathUnits="userSpaceOnUse"><path
         id="path400"
         d="m 349.5,270.8 h 244 v 177.6 h -244 z"
         inkscape:connector-curvature="0" /></clipPath><clipPath
       id="clipPath436"
       clipPathUnits="userSpaceOnUse"><path
         id="path434"
         d="m 349.5,272.6 h 244 v 177.6 h -244 z"
         inkscape:connector-curvature="0" /></clipPath><clipPath
       id="clipPath582"
       clipPathUnits="userSpaceOnUse"><path
         id="path580"
         d="M 372.6,128.7 H 576.3 V 351 H 372.6 Z"
         inkscape:connector-curvature="0" /></clipPath><clipPath
       id="clipPath586"
       clipPathUnits="userSpaceOnUse"><path
         id="path584"
         d="M 373,129 H 576 V 350.6 H 373 Z"
         inkscape:connector-curvature="0" /></clipPath><clipPath
       id="clipPath620"
       clipPathUnits="userSpaceOnUse"><path
         id="path618"
         d="M 373,130.9 H 576 V 352.5 H 373 Z"
         inkscape:connector-curvature="0" /></clipPath><clipPath
       id="clipPath756"
       clipPathUnits="userSpaceOnUse"><path
         id="path754"
         d="M 235.7,146 H 447.2 V 321.5 H 235.7 Z"
         inkscape:connector-curvature="0" /></clipPath><clipPath
       id="clipPath760"
       clipPathUnits="userSpaceOnUse"><path
         id="path758"
         d="M 236.1,146.4 H 446.9 V 321.1 H 236.1 Z"
         inkscape:connector-curvature="0" /></clipPath><clipPath
       id="clipPath794"
       clipPathUnits="userSpaceOnUse"><path
         id="path792"
         d="M 236.1,148.2 H 446.9 V 322.9 H 236.1 Z"
         inkscape:connector-curvature="0" /></clipPath><rect
       x="316.99371"
       y="273.22476"
       width="236.91793"
       height="105.77085"
       id="rect1700-8" /><rect
       x="316.99371"
       y="273.22476"
       width="236.91792"
       height="105.77085"
       id="rect1700-8-0" /><rect
       x="316.99371"
       y="273.22476"
       width="255.14011"
       height="101.90566"
       id="rect1700-88" /><rect
       x="316.99371"
       y="273.22476"
       width="255.14011"
       height="101.90566"
       id="rect1700-88-7" /><rect
       x="316.99371"
       y="273.22476"
       width="255.14011"
       height="101.90566"
       id="rect1700-88-7-4" /></defs><g
     transform="matrix(1.3333333,0,0,-1.3333333,-234.57613,658.93332)"
     id="g10"><g
       id="g12"><g
         clip-path="url(#clipPath18)"
         id="g14"><g
           id="g22" /><g
           id="g24" /><g
           id="g26"><g
             id="g28" /><g
             id="g62"><g
               style="opacity:0.35"
               id="g60"
               clip-path="url(#clipPath32)"><g
                 id="g46"><g
                   id="g38" /><g
                   id="g44"><g
                     style="opacity:0.5"
                     id="g42"
                     clip-path="url(#clipPath36)"><path
                       id="path40"
                       style="fill:#000000;fill-opacity:1;fill-rule:evenodd;stroke:none"
                       d="m 176.3,312.3 v 0 l 0.3,2.3 0.7,2.2 0.9,2.2 1.3,2.1 1.5,2.1 1.9,2 2.1,2 2.5,1.9 2.7,1.8 3,1.8 3.3,1.7 3.5,1.6 3.8,1.5 4,1.4 4.3,1.4 4.5,1.3 4.6,1.1 4.9,1 5.1,1 5.3,0.8 5.3,0.8 5.6,0.5 5.7,0.6 5.7,0.3 5.9,0.3 6,0.2 h 6 l 6.1,-0.1 6.2,-0.2 6.1,-0.3 6.2,-0.4 v 0 l 6.3,-0.6 6.3,-0.7 6.3,-0.8 6.3,-0.9 6.1,-1 6,-1.2 6,-1.2 5.8,-1.4 5.6,-1.4 5.5,-1.5 5.4,-1.7 5.1,-1.7 4.9,-1.8 4.8,-1.9 4.5,-2 4.2,-2 4,-2.1 3.7,-2.2 3.5,-2.1 3.1,-2.3 2.9,-2.3 2.6,-2.3 2.3,-2.3 1.9,-2.4 1.6,-2.4 1.4,-2.3 0.9,-2.4 0.7,-2.4 0.3,-2.3 v -2.3 0 l -0.4,-2.4 -0.7,-2.2 -1,-2.3 -1.3,-2.2 -1.7,-2.1 -2,-2.1 -2.3,-2 -2.6,-2 -2.9,-1.9 -3.2,-1.8 -3.4,-1.7 -3.8,-1.6 -4,-1.6 -4.3,-1.4 -4.5,-1.3 -4.7,-1.3 -5,-1.1 -5.1,-1 -5.4,-0.9 -5.5,-0.8 -5.7,-0.7 -5.8,-0.5 -5.9,-0.5 -6.1,-0.3 -6.1,-0.1 -6.3,-0.1 -6.3,0.1 -6.3,0.2 -6.4,0.3 -6.3,0.4 v 0 l -6.4,0.6 -6.3,0.7 -6.3,0.8 -6.2,0.9 -6.1,1 -6.1,1.1 -5.9,1.3 -5.8,1.4 -5.7,1.4 -5.5,1.5 -5.3,1.7 -5.2,1.7 -4.9,1.8 -4.7,1.9 -4.5,2 -4.3,2 -3.9,2.1 -3.8,2.1 -3.4,2.2 -3.2,2.3 -2.8,2.3 -2.6,2.3 -2.3,2.3 -1.9,2.4 -1.7,2.3 -1.3,2.4 -1,2.4 -0.6,2.4 -0.3,2.3 z m 3.5,44.4 z m 236,-107.9 z"
                       inkscape:connector-curvature="0" /></g></g></g><g
                 id="g50"><path
                   id="path48"
                   style="fill:none;stroke:#000000;stroke-width:0.73580003;stroke-linecap:butt;stroke-linejoin:round;stroke-miterlimit:10;stroke-dasharray:none;stroke-opacity:1"
                   d="m 176.3,312.3 v 0 l 0.3,2.3 0.7,2.2 0.9,2.2 1.3,2.1 1.5,2.1 1.9,2 2.1,2 2.5,1.9 2.7,1.8 3,1.8 3.3,1.7 3.5,1.6 3.8,1.5 4,1.4 4.3,1.4 4.5,1.3 4.6,1.1 4.9,1 5.1,1 5.3,0.8 5.3,0.8 5.6,0.5 5.7,0.6 5.7,0.3 5.9,0.3 6,0.2 h 6 l 6.1,-0.1 6.2,-0.2 6.1,-0.3 6.2,-0.4 v 0 l 6.3,-0.6 6.3,-0.7 6.3,-0.8 6.3,-0.9 6.1,-1 6,-1.2 6,-1.2 5.8,-1.4 5.6,-1.4 5.5,-1.5 5.4,-1.7 5.1,-1.7 4.9,-1.8 4.8,-1.9 4.5,-2 4.2,-2 4,-2.1 3.7,-2.2 3.5,-2.1 3.1,-2.3 2.9,-2.3 2.6,-2.3 2.3,-2.3 1.9,-2.4 1.6,-2.4 1.4,-2.3 0.9,-2.4 0.7,-2.4 0.3,-2.3 v -2.3 0 l -0.4,-2.4 -0.7,-2.2 -1,-2.3 -1.3,-2.2 -1.7,-2.1 -2,-2.1 -2.3,-2 -2.6,-2 -2.9,-1.9 -3.2,-1.8 -3.4,-1.7 -3.8,-1.6 -4,-1.6 -4.3,-1.4 -4.5,-1.3 -4.7,-1.3 -5,-1.1 -5.1,-1 -5.4,-0.9 -5.5,-0.8 -5.7,-0.7 -5.8,-0.5 -5.9,-0.5 -6.1,-0.3 -6.1,-0.1 -6.3,-0.1 -6.3,0.1 -6.3,0.2 -6.4,0.3 -6.3,0.4 v 0 l -6.4,0.6 -6.3,0.7 -6.3,0.8 -6.2,0.9 -6.1,1 -6.1,1.1 -5.9,1.3 -5.8,1.4 -5.7,1.4 -5.5,1.5 -5.3,1.7 -5.2,1.7 -4.9,1.8 -4.7,1.9 -4.5,2 -4.3,2 -3.9,2.1 -3.8,2.1 -3.4,2.2 -3.2,2.3 -2.8,2.3 -2.6,2.3 -2.3,2.3 -1.9,2.4 -1.7,2.3 -1.3,2.4 -1,2.4 -0.6,2.4 -0.3,2.3 z"
                   inkscape:connector-curvature="0" /></g><g
                 id="g54"><path
                   id="path52"
                   style="fill:none;stroke:#000000;stroke-width:0.73580003;stroke-linecap:butt;stroke-linejoin:round;stroke-miterlimit:10;stroke-dasharray:none;stroke-opacity:1"
                   d="M 179.8,356.7 Z"
                   inkscape:connector-curvature="0" /></g><g
                 id="g58"><path
                   id="path56"
                   style="fill:none;stroke:#000000;stroke-width:0.73580003;stroke-linecap:butt;stroke-linejoin:round;stroke-miterlimit:10;stroke-dasharray:none;stroke-opacity:1"
                   d="M 415.8,248.8 Z"
                   inkscape:connector-curvature="0" /></g></g></g></g><g
           id="g64"
           transform="translate(-1.1227047,-1.8705308)"><g
             id="g66" /><g
             id="g76"><g
               style="opacity:0.5"
               id="g74"
               clip-path="url(#clipPath70)"><path
                 id="path72"
                 style="fill:#f2f2f2;fill-opacity:1;fill-rule:evenodd;stroke:none"
                 d="m 176.3,314.1 v 0 l 0.3,2.3 0.7,2.2 0.9,2.2 1.3,2.1 1.5,2.1 1.9,2 2.1,2 2.5,1.9 2.7,1.8 3,1.8 3.3,1.7 3.5,1.6 3.8,1.5 4,1.5 4.3,1.3 4.5,1.3 4.6,1.1 4.9,1.1 5.1,0.9 5.3,0.8 5.3,0.8 5.6,0.5 5.7,0.6 5.7,0.3 5.9,0.3 6,0.2 h 6 l 6.1,-0.1 6.2,-0.2 6.1,-0.3 6.2,-0.4 v 0 l 6.3,-0.6 6.3,-0.7 6.3,-0.8 6.3,-0.9 6.1,-1 6,-1.1 6,-1.3 5.8,-1.4 5.6,-1.4 5.5,-1.5 5.4,-1.7 5.1,-1.7 4.9,-1.8 4.8,-1.9 4.5,-2 4.2,-2 4,-2.1 3.7,-2.1 3.5,-2.2 3.1,-2.3 2.9,-2.3 2.6,-2.3 2.3,-2.3 1.9,-2.4 1.6,-2.3 1.4,-2.4 0.9,-2.4 0.7,-2.4 0.3,-2.3 v -2.3 0 l -0.4,-2.4 -0.7,-2.2 -1,-2.3 -1.3,-2.2 -1.7,-2.1 -2,-2.1 -2.3,-2 -2.6,-2 -2.9,-1.8 -3.2,-1.9 -3.4,-1.7 -3.8,-1.6 -4,-1.6 -4.3,-1.4 -4.5,-1.3 -4.7,-1.3 -5,-1.1 -5.1,-1 -5.4,-0.9 -5.5,-0.8 -5.7,-0.7 -5.8,-0.5 -5.9,-0.5 -6.1,-0.3 -6.1,-0.1 -6.3,-0.1 -6.3,0.1 -6.3,0.2 -6.4,0.3 -6.3,0.4 v 0 l -6.4,0.6 -6.3,0.7 -6.3,0.8 -6.2,0.9 -6.1,1 -6.1,1.2 -5.9,1.2 -5.8,1.4 -5.7,1.4 -5.5,1.5 -5.3,1.7 -5.2,1.7 -4.9,1.8 -4.7,1.9 -4.5,2 -4.3,2 -3.9,2.1 -3.8,2.2 -3.4,2.1 -3.2,2.3 -2.8,2.3 -2.6,2.3 -2.3,2.3 -1.9,2.4 -1.7,2.4 -1.3,2.3 -1,2.4 -0.6,2.4 -0.3,2.3 z m 3.5,44.5 z m 236,-108 z"
                 inkscape:connector-curvature="0" /></g></g></g><text
           xml:space="preserve"
           transform="matrix(0.73397738,-0.06900583,-0.07176568,-0.73314161,-7.0337929,560.03282)"
           id="text1698-9-6"
           style="font-style:normal;font-variant:normal;font-weight:bold;font-stretch:normal;font-size:18.9978px;font-family:'Noto Sans';-inkscape-font-specification:'Noto Sans, Bold';font-variant-ligatures:normal;font-variant-caps:normal;font-variant-numeric:normal;font-variant-east-asian:normal;text-align:center;white-space:pre;shape-inside:url(#rect1700-88-7);display:inline;fill:#000000"
           x="220.81793"
           y="0"><tspan
             x="368.81083"
             y="290.51024"
             id="tspan752">Domain-specific </tspan><tspan
             x="380.3995"
             y="314.25749"
             id="tspan754">knowledge &amp; 
</tspan><tspan
             x="401.57251"
             y="338.00474"
             id="tspan756">practices
</tspan></text><g
           id="g78"><path
             id="path80"
             style="fill:none;stroke:#505c64;stroke-width:0.73580003;stroke-linecap:butt;stroke-linejoin:round;stroke-miterlimit:10;stroke-dasharray:none;stroke-opacity:1"
             d="m 176.3,314.1 v 0 l 0.3,2.3 0.7,2.2 0.9,2.2 1.3,2.1 1.5,2.1 1.9,2 2.1,2 2.5,1.9 2.7,1.8 3,1.8 3.3,1.7 3.5,1.6 3.8,1.5 4,1.5 4.3,1.3 4.5,1.3 4.6,1.1 4.9,1.1 5.1,0.9 5.3,0.8 5.3,0.8 5.6,0.5 5.7,0.6 5.7,0.3 5.9,0.3 6,0.2 h 6 l 6.1,-0.1 6.2,-0.2 6.1,-0.3 6.2,-0.4 v 0 l 6.3,-0.6 6.3,-0.7 6.3,-0.8 6.3,-0.9 6.1,-1 6,-1.1 6,-1.3 5.8,-1.4 5.6,-1.4 5.5,-1.5 5.4,-1.7 5.1,-1.7 4.9,-1.8 4.8,-1.9 4.5,-2 4.2,-2 4,-2.1 3.7,-2.1 3.5,-2.2 3.1,-2.3 2.9,-2.3 2.6,-2.3 2.3,-2.3 1.9,-2.4 1.6,-2.3 1.4,-2.4 0.9,-2.4 0.7,-2.4 0.3,-2.3 v -2.3 0 l -0.4,-2.4 -0.7,-2.2 -1,-2.3 -1.3,-2.2 -1.7,-2.1 -2,-2.1 -2.3,-2 -2.6,-2 -2.9,-1.8 -3.2,-1.9 -3.4,-1.7 -3.8,-1.6 -4,-1.6 -4.3,-1.4 -4.5,-1.3 -4.7,-1.3 -5,-1.1 -5.1,-1 -5.4,-0.9 -5.5,-0.8 -5.7,-0.7 -5.8,-0.5 -5.9,-0.5 -6.1,-0.3 -6.1,-0.1 -6.3,-0.1 -6.3,0.1 -6.3,0.2 -6.4,0.3 -6.3,0.4 v 0 l -6.4,0.6 -6.3,0.7 -6.3,0.8 -6.2,0.9 -6.1,1 -6.1,1.2 -5.9,1.2 -5.8,1.4 -5.7,1.4 -5.5,1.5 -5.3,1.7 -5.2,1.7 -4.9,1.8 -4.7,1.9 -4.5,2 -4.3,2 -3.9,2.1 -3.8,2.2 -3.4,2.1 -3.2,2.3 -2.8,2.3 -2.6,2.3 -2.3,2.3 -1.9,2.4 -1.7,2.4 -1.3,2.3 -1,2.4 -0.6,2.4 -0.3,2.3 z"
             inkscape:connector-curvature="0" /></g><g
           id="g82"><path
             id="path84"
             style="fill:none;stroke:#505c64;stroke-width:0.73580003;stroke-linecap:butt;stroke-linejoin:round;stroke-miterlimit:10;stroke-dasharray:none;stroke-opacity:1"
             d="M 179.8,358.6 Z"
             inkscape:connector-curvature="0" /></g><g
           id="g224"><g
             id="g226" /><g
             id="g260"><g
               style="opacity:0.35"
               id="g258"
               clip-path="url(#clipPath230)"><g
                 id="g244"><g
                   id="g236" /><g
                   id="g242"><g
                     style="opacity:0.47999998"
                     id="g240"
                     clip-path="url(#clipPath234)"><path
                       id="path238"
                       style="fill:#000000;fill-opacity:1;fill-rule:evenodd;stroke:none"
                       d="m 241.8,458.9 v 0 l 1.8,1.6 2.1,1.4 2.3,1.1 2.5,0.9 2.6,0.6 2.9,0.4 3,0.2 h 3.3 l 3.4,-0.3 3.5,-0.6 3.6,-0.8 3.9,-1 3.9,-1.3 4.1,-1.4 4.2,-1.7 4.2,-1.9 4.4,-2.2 4.4,-2.4 4.5,-2.5 4.6,-2.8 4.6,-2.9 4.5,-3.2 4.7,-3.3 4.6,-3.5 4.6,-3.6 4.6,-3.8 4.6,-3.9 4.5,-4.1 4.5,-4.2 4.4,-4.3 4.4,-4.3 v 0 l 4.3,-4.6 4.3,-4.7 4.1,-4.8 4.1,-4.8 3.9,-4.9 3.7,-4.9 3.6,-4.9 3.3,-4.9 3.3,-4.8 3,-4.9 2.8,-4.8 2.7,-4.8 2.4,-4.7 2.2,-4.6 2,-4.5 1.7,-4.4 1.5,-4.3 1.3,-4.2 1,-4 0.7,-3.9 0.6,-3.7 0.2,-3.6 V 302 l -0.2,-3.1 -0.5,-3 -0.7,-2.8 -0.9,-2.5 -1.3,-2.4 -1.4,-2.1 -1.7,-1.9 v 0.1 l -2,-1.7 -2.1,-1.4 -2.4,-1.1 -2.6,-0.9 -2.8,-0.6 -3,-0.4 -3.1,-0.1 -3.4,0.1 -3.5,0.4 -3.7,0.6 -3.9,0.9 -4,1.2 -4.1,1.4 -4.3,1.6 -4.3,1.8 -4.5,2.2 -4.5,2.3 -4.7,2.6 -4.6,2.7 -4.7,3 -4.8,3.2 -4.8,3.4 -4.8,3.5 -4.8,3.8 -4.7,3.8 -4.7,4.1 -4.7,4.2 -4.7,4.3 -4.5,4.4 -4.5,4.5 v 0 l -4.3,4.6 -4.3,4.7 -4.2,4.8 -4,4.8 -3.9,4.9 -3.7,4.8 -3.6,4.9 -3.4,4.9 -3.2,4.9 -3,4.9 -2.9,4.8 -2.6,4.7 -2.4,4.7 -2.2,4.6 -2,4.6 -1.7,4.4 -1.5,4.3 -1.3,4.1 -1,4.1 -0.8,3.8 -0.5,3.8 -0.2,3.6 -0.1,3.3 0.3,3.2 0.5,3 0.6,2.8 1,2.5 1.2,2.3 1.5,2.2 z m 34.5,33.5 z M 376.4,250.7 Z"
                       inkscape:connector-curvature="0" /></g></g></g><g
                 id="g248"><path
                   id="path246"
                   style="fill:none;stroke:#000000;stroke-width:0.73580003;stroke-linecap:butt;stroke-linejoin:round;stroke-miterlimit:10;stroke-dasharray:none;stroke-opacity:1"
                   d="m 241.8,458.9 v 0 l 1.8,1.6 2.1,1.4 2.3,1.1 2.5,0.9 2.6,0.6 2.9,0.4 3,0.2 h 3.3 l 3.4,-0.3 3.5,-0.6 3.6,-0.8 3.9,-1 3.9,-1.3 4.1,-1.4 4.2,-1.7 4.2,-1.9 4.4,-2.2 4.4,-2.4 4.5,-2.5 4.6,-2.8 4.6,-2.9 4.5,-3.2 4.7,-3.3 4.6,-3.5 4.6,-3.6 4.6,-3.8 4.6,-3.9 4.5,-4.1 4.5,-4.2 4.4,-4.3 4.4,-4.3 v 0 l 4.3,-4.6 4.3,-4.7 4.1,-4.8 4.1,-4.8 3.9,-4.9 3.7,-4.9 3.6,-4.9 3.3,-4.9 3.3,-4.8 3,-4.9 2.8,-4.8 2.7,-4.8 2.4,-4.7 2.2,-4.6 2,-4.5 1.7,-4.4 1.5,-4.3 1.3,-4.2 1,-4 0.7,-3.9 0.6,-3.7 0.2,-3.6 V 302 l -0.2,-3.1 -0.5,-3 -0.7,-2.8 -0.9,-2.5 -1.3,-2.4 -1.4,-2.1 -1.7,-1.9 v 0.1 l -2,-1.7 -2.1,-1.4 -2.4,-1.1 -2.6,-0.9 -2.8,-0.6 -3,-0.4 -3.1,-0.1 -3.4,0.1 -3.5,0.4 -3.7,0.6 -3.9,0.9 -4,1.2 -4.1,1.4 -4.3,1.6 -4.3,1.8 -4.5,2.2 -4.5,2.3 -4.7,2.6 -4.6,2.7 -4.7,3 -4.8,3.2 -4.8,3.4 -4.8,3.5 -4.8,3.8 -4.7,3.8 -4.7,4.1 -4.7,4.2 -4.7,4.3 -4.5,4.4 -4.5,4.5 v 0 l -4.3,4.6 -4.3,4.7 -4.2,4.8 -4,4.8 -3.9,4.9 -3.7,4.8 -3.6,4.9 -3.4,4.9 -3.2,4.9 -3,4.9 -2.9,4.8 -2.6,4.7 -2.4,4.7 -2.2,4.6 -2,4.6 -1.7,4.4 -1.5,4.3 -1.3,4.1 -1,4.1 -0.8,3.8 -0.5,3.8 -0.2,3.6 -0.1,3.3 0.3,3.2 0.5,3 0.6,2.8 1,2.5 1.2,2.3 1.5,2.2 z"
                   inkscape:connector-curvature="0" /></g><g
                 id="g252"><path
                   id="path250"
                   style="fill:none;stroke:#000000;stroke-width:0.73580003;stroke-linecap:butt;stroke-linejoin:round;stroke-miterlimit:10;stroke-dasharray:none;stroke-opacity:1"
                   d="M 276.3,492.4 Z"
                   inkscape:connector-curvature="0" /></g><g
                 id="g256"><path
                   id="path254"
                   style="fill:none;stroke:#000000;stroke-width:0.73580003;stroke-linecap:butt;stroke-linejoin:round;stroke-miterlimit:10;stroke-dasharray:none;stroke-opacity:1"
                   d="M 376.4,250.7 Z"
                   inkscape:connector-curvature="0" /></g></g></g></g><g
           id="g262"><g
             id="g264" /><g
             id="g274"><g
               style="opacity:0.47999998"
               id="g272"
               clip-path="url(#clipPath268)"><path
                 id="path270"
                 style="fill:#ff0000;fill-opacity:1;fill-rule:evenodd;stroke:none"
                 d="m 241.8,460.8 v 0 l 1.8,1.5 2.1,1.4 2.3,1.1 2.5,0.9 2.6,0.7 2.9,0.4 3,0.2 3.3,-0.1 3.4,-0.3 3.5,-0.5 3.6,-0.8 3.9,-1.1 3.9,-1.2 4.1,-1.5 4.2,-1.7 4.2,-1.9 4.4,-2.2 4.4,-2.3 4.5,-2.6 4.6,-2.8 4.6,-2.9 4.5,-3.2 4.7,-3.3 4.6,-3.5 4.6,-3.6 4.6,-3.8 4.6,-3.9 4.5,-4.1 4.5,-4.2 4.4,-4.2 4.4,-4.4 v 0 l 4.3,-4.6 4.3,-4.7 4.1,-4.8 4.1,-4.8 3.9,-4.9 3.7,-4.8 3.6,-5 3.3,-4.8 3.3,-4.9 3,-4.9 2.8,-4.8 2.7,-4.7 2.4,-4.8 2.2,-4.6 2,-4.5 1.7,-4.4 1.5,-4.3 1.3,-4.2 1,-4 0.7,-3.9 0.6,-3.7 0.2,-3.6 v -3.3 l -0.2,-3.2 -0.5,-3 -0.7,-2.8 -0.9,-2.5 -1.3,-2.4 -1.4,-2.1 -1.7,-1.8 v 0 l -2,-1.7 -2.1,-1.4 -2.4,-1.1 -2.6,-0.9 -2.8,-0.6 -3,-0.4 -3.1,-0.1 -3.4,0.1 -3.5,0.4 -3.7,0.6 -3.9,0.9 -4,1.2 -4.1,1.4 -4.3,1.6 -4.3,1.9 -4.5,2.1 -4.5,2.3 -4.7,2.6 -4.6,2.8 -4.7,2.9 -4.8,3.2 -4.8,3.4 -4.8,3.6 -4.8,3.7 -4.7,3.9 -4.7,4 -4.7,4.2 -4.7,4.3 -4.5,4.4 -4.5,4.5 v 0 l -4.3,4.6 -4.3,4.7 -4.2,4.8 -4,4.8 -3.9,4.9 -3.7,4.8 -3.6,4.9 -3.4,4.9 -3.2,4.9 -3,4.9 -2.9,4.8 -2.6,4.8 -2.4,4.6 -2.2,4.6 -2,4.6 -1.7,4.4 -1.5,4.3 -1.3,4.2 -1,4 -0.8,3.9 -0.5,3.7 -0.2,3.6 -0.1,3.3 0.3,3.2 0.5,3 0.6,2.8 1,2.5 1.2,2.4 1.5,2.1 z m 34.5,33.4 z M 376.4,252.5 Z"
                 inkscape:connector-curvature="0" /></g></g></g><g
           id="g276"><path
             id="path278"
             style="fill:none;stroke:#505c64;stroke-width:0.73580003;stroke-linecap:butt;stroke-linejoin:round;stroke-miterlimit:10;stroke-dasharray:none;stroke-opacity:1"
             d="m 241.8,460.8 v 0 l 1.8,1.5 2.1,1.4 2.3,1.1 2.5,0.9 2.6,0.7 2.9,0.4 3,0.2 3.3,-0.1 3.4,-0.3 3.5,-0.5 3.6,-0.8 3.9,-1.1 3.9,-1.2 4.1,-1.5 4.2,-1.7 4.2,-1.9 4.4,-2.2 4.4,-2.3 4.5,-2.6 4.6,-2.8 4.6,-2.9 4.5,-3.2 4.7,-3.3 4.6,-3.5 4.6,-3.6 4.6,-3.8 4.6,-3.9 4.5,-4.1 4.5,-4.2 4.4,-4.2 4.4,-4.4 v 0 l 4.3,-4.6 4.3,-4.7 4.1,-4.8 4.1,-4.8 3.9,-4.9 3.7,-4.8 3.6,-5 3.3,-4.8 3.3,-4.9 3,-4.9 2.8,-4.8 2.7,-4.7 2.4,-4.8 2.2,-4.6 2,-4.5 1.7,-4.4 1.5,-4.3 1.3,-4.2 1,-4 0.7,-3.9 0.6,-3.7 0.2,-3.6 v -3.3 l -0.2,-3.2 -0.5,-3 -0.7,-2.8 -0.9,-2.5 -1.3,-2.4 -1.4,-2.1 -1.7,-1.8 v 0 l -2,-1.7 -2.1,-1.4 -2.4,-1.1 -2.6,-0.9 -2.8,-0.6 -3,-0.4 -3.1,-0.1 -3.4,0.1 -3.5,0.4 -3.7,0.6 -3.9,0.9 -4,1.2 -4.1,1.4 -4.3,1.6 -4.3,1.9 -4.5,2.1 -4.5,2.3 -4.7,2.6 -4.6,2.8 -4.7,2.9 -4.8,3.2 -4.8,3.4 -4.8,3.6 -4.8,3.7 -4.7,3.9 -4.7,4 -4.7,4.2 -4.7,4.3 -4.5,4.4 -4.5,4.5 v 0 l -4.3,4.6 -4.3,4.7 -4.2,4.8 -4,4.8 -3.9,4.9 -3.7,4.8 -3.6,4.9 -3.4,4.9 -3.2,4.9 -3,4.9 -2.9,4.8 -2.6,4.8 -2.4,4.6 -2.2,4.6 -2,4.6 -1.7,4.4 -1.5,4.3 -1.3,4.2 -1,4 -0.8,3.9 -0.5,3.7 -0.2,3.6 -0.1,3.3 0.3,3.2 0.5,3 0.6,2.8 1,2.5 1.2,2.4 1.5,2.1 z"
             inkscape:connector-curvature="0" /></g><g
           id="g280"><path
             id="path282"
             style="fill:none;stroke:#505c64;stroke-width:0.73580003;stroke-linecap:butt;stroke-linejoin:round;stroke-miterlimit:10;stroke-dasharray:none;stroke-opacity:1"
             d="M 276.3,494.2 Z"
             inkscape:connector-curvature="0" /></g><g
           id="g392"><g
             id="g394" /><g
             id="g428"><g
               style="opacity:0.35"
               id="g426"
               clip-path="url(#clipPath398)"><g
                 id="g412"><g
                   id="g404" /><g
                   id="g410"><g
                     style="opacity:0.5"
                     id="g408"
                     clip-path="url(#clipPath402)"><path
                       id="path406"
                       style="fill:#000000;fill-opacity:1;fill-rule:evenodd;stroke:none"
                       d="m 380.9,277.9 v 0 l -1.5,2 -1.3,2.1 -1,2.4 -0.7,2.6 -0.5,2.8 -0.3,2.9 0.1,3.2 0.3,3.3 0.5,3.5 0.8,3.6 1.1,3.8 1.3,3.9 1.6,4.1 1.8,4.1 2.1,4.3 2.3,4.4 2.5,4.4 2.8,4.5 3,4.6 3.1,4.6 3.4,4.6 3.6,4.6 3.8,4.7 3.9,4.6 4,4.6 4.3,4.6 4.3,4.5 4.5,4.5 4.6,4.4 4.7,4.3 v 0 l 4.8,4.3 4.8,4.1 5,4 4.9,3.9 5,3.7 5,3.5 5,3.5 5,3.2 5,3.1 5,2.9 4.9,2.7 4.8,2.4 4.8,2.3 4.6,2.1 4.6,1.9 4.5,1.6 4.3,1.4 4.2,1.1 4,0.9 3.9,0.7 3.7,0.4 3.6,0.2 h 3.3 l 3.2,-0.3 2.8,-0.6 2.8,-0.7 2.5,-1.1 2.2,-1.2 2,-1.5 1.8,-1.7 v 0 l 1.5,-2 1.2,-2.1 1.1,-2.4 0.7,-2.6 0.5,-2.8 0.3,-2.9 -0.1,-3.2 -0.3,-3.3 -0.5,-3.5 -0.9,-3.6 -1,-3.8 -1.3,-3.9 -1.6,-4.1 -1.8,-4.1 -2.1,-4.3 -2.3,-4.4 -2.5,-4.4 -2.8,-4.5 -3,-4.6 -3.1,-4.5 -3.4,-4.7 -3.6,-4.6 -3.7,-4.7 -4,-4.6 -4,-4.6 -4.3,-4.6 -4.3,-4.5 -4.5,-4.5 -4.6,-4.4 -4.7,-4.3 v 0 l -4.8,-4.2 -4.8,-4.1 -4.9,-4 -5,-3.9 -5,-3.8 -5,-3.5 -5,-3.4 -5,-3.3 -5,-3.1 -5,-2.8 -4.8,-2.7 -4.9,-2.5 -4.8,-2.3 -4.6,-2 -4.6,-1.9 -4.5,-1.6 -4.3,-1.4 -4.2,-1.2 -4,-0.9 -3.9,-0.6 -3.7,-0.5 -3.5,-0.2 -3.4,0.1 -3.1,0.3 -2.9,0.5 -2.7,0.8 -2.5,1 -2.3,1.2 -2,1.5 z m -31.4,34.9 z m 244,93.5 z"
                       inkscape:connector-curvature="0" /></g></g></g><g
                 id="g416"><path
                   id="path414"
                   style="fill:none;stroke:#000000;stroke-width:0.73580003;stroke-linecap:butt;stroke-linejoin:round;stroke-miterlimit:10;stroke-dasharray:none;stroke-opacity:1"
                   d="m 380.9,277.9 v 0 l -1.5,2 -1.3,2.1 -1,2.4 -0.7,2.6 -0.5,2.8 -0.3,2.9 0.1,3.2 0.3,3.3 0.5,3.5 0.8,3.6 1.1,3.8 1.3,3.9 1.6,4.1 1.8,4.1 2.1,4.3 2.3,4.4 2.5,4.4 2.8,4.5 3,4.6 3.1,4.6 3.4,4.6 3.6,4.6 3.8,4.7 3.9,4.6 4,4.6 4.3,4.6 4.3,4.5 4.5,4.5 4.6,4.4 4.7,4.3 v 0 l 4.8,4.3 4.8,4.1 5,4 4.9,3.9 5,3.7 5,3.5 5,3.5 5,3.2 5,3.1 5,2.9 4.9,2.7 4.8,2.4 4.8,2.3 4.6,2.1 4.6,1.9 4.5,1.6 4.3,1.4 4.2,1.1 4,0.9 3.9,0.7 3.7,0.4 3.6,0.2 h 3.3 l 3.2,-0.3 2.8,-0.6 2.8,-0.7 2.5,-1.1 2.2,-1.2 2,-1.5 1.8,-1.7 v 0 l 1.5,-2 1.2,-2.1 1.1,-2.4 0.7,-2.6 0.5,-2.8 0.3,-2.9 -0.1,-3.2 -0.3,-3.3 -0.5,-3.5 -0.9,-3.6 -1,-3.8 -1.3,-3.9 -1.6,-4.1 -1.8,-4.1 -2.1,-4.3 -2.3,-4.4 -2.5,-4.4 -2.8,-4.5 -3,-4.6 -3.1,-4.5 -3.4,-4.7 -3.6,-4.6 -3.7,-4.7 -4,-4.6 -4,-4.6 -4.3,-4.6 -4.3,-4.5 -4.5,-4.5 -4.6,-4.4 -4.7,-4.3 v 0 l -4.8,-4.2 -4.8,-4.1 -4.9,-4 -5,-3.9 -5,-3.8 -5,-3.5 -5,-3.4 -5,-3.3 -5,-3.1 -5,-2.8 -4.8,-2.7 -4.9,-2.5 -4.8,-2.3 -4.6,-2 -4.6,-1.9 -4.5,-1.6 -4.3,-1.4 -4.2,-1.2 -4,-0.9 -3.9,-0.6 -3.7,-0.5 -3.5,-0.2 -3.4,0.1 -3.1,0.3 -2.9,0.5 -2.7,0.8 -2.5,1 -2.3,1.2 -2,1.5 z"
                   inkscape:connector-curvature="0" /></g><g
                 id="g420"><path
                   id="path418"
                   style="fill:none;stroke:#000000;stroke-width:0.73580003;stroke-linecap:butt;stroke-linejoin:round;stroke-miterlimit:10;stroke-dasharray:none;stroke-opacity:1"
                   d="M 349.5,312.8 Z"
                   inkscape:connector-curvature="0" /></g><g
                 id="g424"><path
                   id="path422"
                   style="fill:none;stroke:#000000;stroke-width:0.73580003;stroke-linecap:butt;stroke-linejoin:round;stroke-miterlimit:10;stroke-dasharray:none;stroke-opacity:1"
                   d="M 593.5,406.3 Z"
                   inkscape:connector-curvature="0" /></g></g></g></g><g
           id="g430"><g
             id="g432" /><g
             id="g442"><g
               style="opacity:0.5"
               id="g440"
               clip-path="url(#clipPath436)"><path
                 id="path438"
                 style="fill:#f2f2f2;fill-opacity:1;fill-rule:evenodd;stroke:none"
                 d="m 380.9,279.8 v 0 l -1.5,1.9 -1.3,2.1 -1,2.4 -0.7,2.6 -0.5,2.8 -0.3,2.9 0.1,3.2 0.3,3.3 0.5,3.5 0.8,3.6 1.1,3.8 1.3,3.9 1.6,4.1 1.8,4.1 2.1,4.3 2.3,4.4 2.5,4.4 2.8,4.5 3,4.6 3.1,4.6 3.4,4.6 3.6,4.6 3.8,4.7 3.9,4.6 4,4.7 4.3,4.5 4.3,4.6 4.5,4.4 4.6,4.4 4.7,4.4 v 0 l 4.8,4.2 4.8,4.1 5,4 4.9,3.9 5,3.7 5,3.6 5,3.4 5,3.3 5,3 5,2.9 4.9,2.7 4.8,2.5 4.8,2.3 4.6,2 4.6,1.9 4.5,1.6 4.3,1.4 4.2,1.1 4,0.9 3.9,0.7 3.7,0.4 3.6,0.2 h 3.3 l 3.2,-0.3 2.8,-0.6 2.8,-0.7 2.5,-1.1 2.2,-1.2 2,-1.5 1.8,-1.7 v 0 l 1.5,-2 1.2,-2.1 1.1,-2.4 0.7,-2.6 0.5,-2.7 0.3,-3 -0.1,-3.2 -0.3,-3.3 -0.5,-3.5 -0.9,-3.6 -1,-3.8 -1.3,-3.9 -1.6,-4.1 -1.8,-4.1 -2.1,-4.3 -2.3,-4.3 -2.5,-4.5 -2.8,-4.5 -3,-4.6 -3.1,-4.5 -3.4,-4.7 -3.6,-4.6 -3.7,-4.6 -4,-4.7 -4,-4.6 -4.3,-4.6 -4.3,-4.5 -4.5,-4.5 -4.6,-4.4 -4.7,-4.3 v 0 l -4.8,-4.2 -4.8,-4.1 -4.9,-4 -5,-3.9 -5,-3.8 -5,-3.5 -5,-3.4 -5,-3.3 -5,-3 -5,-2.9 -4.8,-2.7 -4.9,-2.5 -4.8,-2.3 -4.6,-2 -4.6,-1.9 -4.5,-1.6 -4.3,-1.4 -4.2,-1.1 -4,-1 -3.9,-0.6 -3.7,-0.5 -3.5,-0.2 -3.4,0.1 -3.1,0.3 -2.9,0.5 -2.7,0.8 -2.5,1 -2.3,1.3 -2,1.4 z m -31.4,34.8 z m 244,93.5 z"
                 inkscape:connector-curvature="0" /></g></g></g><g
           id="g444"><path
             id="path446"
             style="fill:none;stroke:#505c64;stroke-width:0.73580003;stroke-linecap:butt;stroke-linejoin:round;stroke-miterlimit:10;stroke-dasharray:none;stroke-opacity:1"
             d="m 380.9,279.8 v 0 l -1.5,1.9 -1.3,2.1 -1,2.4 -0.7,2.6 -0.5,2.8 -0.3,2.9 0.1,3.2 0.3,3.3 0.5,3.5 0.8,3.6 1.1,3.8 1.3,3.9 1.6,4.1 1.8,4.1 2.1,4.3 2.3,4.4 2.5,4.4 2.8,4.5 3,4.6 3.1,4.6 3.4,4.6 3.6,4.6 3.8,4.7 3.9,4.6 4,4.7 4.3,4.5 4.3,4.6 4.5,4.4 4.6,4.4 4.7,4.4 v 0 l 4.8,4.2 4.8,4.1 5,4 4.9,3.9 5,3.7 5,3.6 5,3.4 5,3.3 5,3 5,2.9 4.9,2.7 4.8,2.5 4.8,2.3 4.6,2 4.6,1.9 4.5,1.6 4.3,1.4 4.2,1.1 4,0.9 3.9,0.7 3.7,0.4 3.6,0.2 h 3.3 l 3.2,-0.3 2.8,-0.6 2.8,-0.7 2.5,-1.1 2.2,-1.2 2,-1.5 1.8,-1.7 v 0 l 1.5,-2 1.2,-2.1 1.1,-2.4 0.7,-2.6 0.5,-2.7 0.3,-3 -0.1,-3.2 -0.3,-3.3 -0.5,-3.5 -0.9,-3.6 -1,-3.8 -1.3,-3.9 -1.6,-4.1 -1.8,-4.1 -2.1,-4.3 -2.3,-4.3 -2.5,-4.5 -2.8,-4.5 -3,-4.6 -3.1,-4.5 -3.4,-4.7 -3.6,-4.6 -3.7,-4.6 -4,-4.7 -4,-4.6 -4.3,-4.6 -4.3,-4.5 -4.5,-4.5 -4.6,-4.4 -4.7,-4.3 v 0 l -4.8,-4.2 -4.8,-4.1 -4.9,-4 -5,-3.9 -5,-3.8 -5,-3.5 -5,-3.4 -5,-3.3 -5,-3 -5,-2.9 -4.8,-2.7 -4.9,-2.5 -4.8,-2.3 -4.6,-2 -4.6,-1.9 -4.5,-1.6 -4.3,-1.4 -4.2,-1.1 -4,-1 -3.9,-0.6 -3.7,-0.5 -3.5,-0.2 -3.4,0.1 -3.1,0.3 -2.9,0.5 -2.7,0.8 -2.5,1 -2.3,1.3 -2,1.4 z"
             inkscape:connector-curvature="0" /></g><g
           id="g452"><path
             id="path454"
             style="fill:none;stroke:#505c64;stroke-width:0.73580003;stroke-linecap:butt;stroke-linejoin:round;stroke-miterlimit:10;stroke-dasharray:none;stroke-opacity:1"
             d="M 593.5,408.1 Z"
             inkscape:connector-curvature="0" /></g><g
           id="g576"><g
             id="g578" /><g
             id="g612"><g
               style="opacity:0.35"
               id="g610"
               clip-path="url(#clipPath582)"><g
                 id="g596"><g
                   id="g588" /><g
                   id="g594"><g
                     style="opacity:0.5"
                     id="g592"
                     clip-path="url(#clipPath586)"><path
                       id="path590"
                       style="fill:#000000;fill-opacity:1;fill-rule:evenodd;stroke:none"
                       d="m 376.9,313 v 0 l 1.6,1.8 1.9,1.7 2.1,1.4 2.4,1.3 2.7,1 2.8,0.8 3.1,0.6 3.3,0.3 3.5,0.1 h 3.8 l 3.9,-0.4 4.1,-0.5 4.3,-0.8 4.4,-1 4.6,-1.2 4.7,-1.4 4.9,-1.6 4.9,-1.9 5.1,-2 5.1,-2.3 5.2,-2.4 5.2,-2.6 5.3,-2.8 5.3,-2.9 5.3,-3.1 5.3,-3.3 5.3,-3.4 5.3,-3.6 5.2,-3.6 5.1,-3.8 v 0 l 5.1,-3.9 4.9,-3.9 4.9,-4.1 4.8,-4.1 4.6,-4.2 4.5,-4.3 4.3,-4.2 4.2,-4.3 3.9,-4.3 3.8,-4.3 3.6,-4.3 3.3,-4.2 3.2,-4.3 2.9,-4.2 2.7,-4.1 2.5,-4.1 2.1,-4 2,-3.9 1.6,-3.8 1.5,-3.6 1.1,-3.6 0.9,-3.4 0.6,-3.3 0.3,-3.1 v -3 l -0.2,-2.8 -0.6,-2.6 -0.7,-2.5 -1.1,-2.2 -1.4,-2.1 v 0 l -1.6,-1.9 -1.9,-1.6 -2.1,-1.5 -2.3,-1.2 -2.7,-1 -2.8,-0.8 -3.2,-0.6 -3.3,-0.3 -3.5,-0.2 -3.7,0.1 -3.9,0.3 -4.2,0.6 -4.2,0.7 -4.5,1 -4.6,1.2 -4.7,1.5 -4.8,1.6 -4.9,1.9 -5.1,2 -5.1,2.2 -5.2,2.4 -5.2,2.6 -5.3,2.8 -5.3,3 -5.3,3.1 -5.4,3.3 -5.3,3.4 -5.2,3.5 -5.2,3.7 -5.1,3.7 v 0.1 l -5.1,3.8 -4.9,4 -4.9,4 -4.8,4.2 -4.6,4.2 -4.5,4.2 -4.3,4.2 -4.1,4.3 -4,4.3 -3.8,4.3 -3.6,4.3 -3.4,4.3 -3.1,4.2 -2.9,4.2 -2.7,4.2 -2.5,4 -2.2,4 -1.9,3.9 -1.7,3.8 -1.4,3.7 -1.1,3.5 -0.9,3.4 -0.6,3.3 -0.3,3.2 v 2.9 l 0.2,2.8 0.5,2.7 0.8,2.4 1.1,2.3 z m 28.2,37.5 z M 543.8,129.1 Z"
                       inkscape:connector-curvature="0" /></g></g></g><g
                 id="g600"><path
                   id="path598"
                   style="fill:none;stroke:#000000;stroke-width:0.73580003;stroke-linecap:butt;stroke-linejoin:round;stroke-miterlimit:10;stroke-dasharray:none;stroke-opacity:1"
                   d="m 376.9,313 v 0 l 1.6,1.8 1.9,1.7 2.1,1.4 2.4,1.3 2.7,1 2.8,0.8 3.1,0.6 3.3,0.3 3.5,0.1 h 3.8 l 3.9,-0.4 4.1,-0.5 4.3,-0.8 4.4,-1 4.6,-1.2 4.7,-1.4 4.9,-1.6 4.9,-1.9 5.1,-2 5.1,-2.3 5.2,-2.4 5.2,-2.6 5.3,-2.8 5.3,-2.9 5.3,-3.1 5.3,-3.3 5.3,-3.4 5.3,-3.6 5.2,-3.6 5.1,-3.8 v 0 l 5.1,-3.9 4.9,-3.9 4.9,-4.1 4.8,-4.1 4.6,-4.2 4.5,-4.3 4.3,-4.2 4.2,-4.3 3.9,-4.3 3.8,-4.3 3.6,-4.3 3.3,-4.2 3.2,-4.3 2.9,-4.2 2.7,-4.1 2.5,-4.1 2.1,-4 2,-3.9 1.6,-3.8 1.5,-3.6 1.1,-3.6 0.9,-3.4 0.6,-3.3 0.3,-3.1 v -3 l -0.2,-2.8 -0.6,-2.6 -0.7,-2.5 -1.1,-2.2 -1.4,-2.1 v 0 l -1.6,-1.9 -1.9,-1.6 -2.1,-1.5 -2.3,-1.2 -2.7,-1 -2.8,-0.8 -3.2,-0.6 -3.3,-0.3 -3.5,-0.2 -3.7,0.1 -3.9,0.3 -4.2,0.6 -4.2,0.7 -4.5,1 -4.6,1.2 -4.7,1.5 -4.8,1.6 -4.9,1.9 -5.1,2 -5.1,2.2 -5.2,2.4 -5.2,2.6 -5.3,2.8 -5.3,3 -5.3,3.1 -5.4,3.3 -5.3,3.4 -5.2,3.5 -5.2,3.7 -5.1,3.7 v 0.1 l -5.1,3.8 -4.9,4 -4.9,4 -4.8,4.2 -4.6,4.2 -4.5,4.2 -4.3,4.2 -4.1,4.3 -4,4.3 -3.8,4.3 -3.6,4.3 -3.4,4.3 -3.1,4.2 -2.9,4.2 -2.7,4.2 -2.5,4 -2.2,4 -1.9,3.9 -1.7,3.8 -1.4,3.7 -1.1,3.5 -0.9,3.4 -0.6,3.3 -0.3,3.2 v 2.9 l 0.2,2.8 0.5,2.7 0.8,2.4 1.1,2.3 z"
                   inkscape:connector-curvature="0" /></g><g
                 id="g604"><path
                   id="path602"
                   style="fill:none;stroke:#000000;stroke-width:0.73580003;stroke-linecap:butt;stroke-linejoin:round;stroke-miterlimit:10;stroke-dasharray:none;stroke-opacity:1"
                   d="M 405.1,350.5 Z"
                   inkscape:connector-curvature="0" /></g><g
                 id="g608"><path
                   id="path606"
                   style="fill:none;stroke:#000000;stroke-width:0.73580003;stroke-linecap:butt;stroke-linejoin:round;stroke-miterlimit:10;stroke-dasharray:none;stroke-opacity:1"
                   d="M 543.8,129.1 Z"
                   inkscape:connector-curvature="0" /></g></g></g></g><text
           xml:space="preserve"
           transform="matrix(0.54574178,0.49563142,0.49315368,-0.54721692,82.891001,312.26101)"
           id="text1698-6"
           style="font-style:normal;font-variant:normal;font-weight:bold;font-stretch:normal;font-size:18.9978px;font-family:'Noto Sans';-inkscape-font-specification:'Noto Sans, Bold';font-variant-ligatures:normal;font-variant-caps:normal;font-variant-numeric:normal;font-variant-east-asian:normal;text-align:center;white-space:pre;shape-inside:url(#rect1700-8);shape-padding:0.0964205;display:inline;fill:#000000"
           x="201.7784"
           y="0"><tspan
             x="381.95449"
             y="290.60594"
             id="tspan758">Data pre- &amp; </tspan><tspan
             x="361.14236"
             y="314.35319"
             id="tspan760">postprocessing 
</tspan><tspan
             x="411.42949"
             y="338.10045"
             id="tspan762">skills</tspan></text><g
           id="g614"><g
             id="g616" /><g
             id="g626"><g
               style="opacity:0.5"
               id="g624"
               clip-path="url(#clipPath620)"><path
                 id="path622"
                 style="fill:#ff0000;fill-opacity:1;fill-rule:evenodd;stroke:none"
                 d="m 376.9,314.8 v 0 l 1.6,1.8 1.9,1.7 2.1,1.4 2.4,1.3 2.7,1 2.8,0.8 3.1,0.6 3.3,0.3 3.5,0.1 h 3.8 l 3.9,-0.4 4.1,-0.5 4.3,-0.8 4.4,-1 4.6,-1.2 4.7,-1.4 4.9,-1.6 4.9,-1.9 5.1,-2 5.1,-2.3 5.2,-2.4 5.2,-2.6 5.3,-2.8 5.3,-2.9 5.3,-3.1 5.3,-3.3 5.3,-3.4 5.3,-3.6 5.2,-3.6 5.1,-3.8 v 0 l 5.1,-3.9 4.9,-3.9 4.9,-4.1 4.8,-4.1 4.6,-4.2 4.5,-4.2 4.3,-4.3 4.2,-4.3 3.9,-4.3 3.8,-4.3 3.6,-4.3 3.3,-4.2 3.2,-4.3 2.9,-4.2 2.7,-4.1 2.5,-4.1 2.1,-4 2,-3.8 1.6,-3.8 1.5,-3.7 1.1,-3.6 0.9,-3.4 0.6,-3.3 0.3,-3.1 v -3 l -0.2,-2.8 -0.6,-2.6 -0.7,-2.5 -1.1,-2.2 -1.4,-2.1 v 0 l -1.6,-1.8 -1.9,-1.7 -2.1,-1.5 -2.3,-1.2 -2.7,-1 -2.8,-0.8 -3.2,-0.6 -3.3,-0.3 -3.5,-0.2 -3.7,0.1 -3.9,0.4 -4.2,0.5 -4.2,0.8 -4.5,0.9 -4.6,1.2 -4.7,1.5 -4.8,1.6 -4.9,1.9 -5.1,2 -5.1,2.2 -5.2,2.5 -5.2,2.5 -5.3,2.8 -5.3,3 -5.3,3.1 -5.4,3.3 -5.3,3.4 -5.2,3.5 -5.2,3.7 -5.1,3.7 v 0.1 l -5.1,3.9 -4.9,3.9 -4.9,4.1 -4.8,4.1 -4.6,4.2 -4.5,4.2 -4.3,4.3 -4.1,4.2 -4,4.3 -3.8,4.4 -3.6,4.2 -3.4,4.3 -3.1,4.2 -2.9,4.2 -2.7,4.2 -2.5,4.1 -2.2,3.9 -1.9,3.9 -1.7,3.8 -1.4,3.7 -1.1,3.5 -0.9,3.4 -0.6,3.3 -0.3,3.2 v 2.9 l 0.2,2.9 0.5,2.6 0.8,2.4 1.1,2.3 z m 28.2,37.6 z M 543.8,130.9 Z"
                 inkscape:connector-curvature="0" /></g></g></g><g
           id="g628"><path
             id="path630"
             style="fill:none;stroke:#505c64;stroke-width:0.73580003;stroke-linecap:butt;stroke-linejoin:round;stroke-miterlimit:10;stroke-dasharray:none;stroke-opacity:1"
             d="m 376.9,314.8 v 0 l 1.6,1.8 1.9,1.7 2.1,1.4 2.4,1.3 2.7,1 2.8,0.8 3.1,0.6 3.3,0.3 3.5,0.1 h 3.8 l 3.9,-0.4 4.1,-0.5 4.3,-0.8 4.4,-1 4.6,-1.2 4.7,-1.4 4.9,-1.6 4.9,-1.9 5.1,-2 5.1,-2.3 5.2,-2.4 5.2,-2.6 5.3,-2.8 5.3,-2.9 5.3,-3.1 5.3,-3.3 5.3,-3.4 5.3,-3.6 5.2,-3.6 5.1,-3.8 v 0 l 5.1,-3.9 4.9,-3.9 4.9,-4.1 4.8,-4.1 4.6,-4.2 4.5,-4.2 4.3,-4.3 4.2,-4.3 3.9,-4.3 3.8,-4.3 3.6,-4.3 3.3,-4.2 3.2,-4.3 2.9,-4.2 2.7,-4.1 2.5,-4.1 2.1,-4 2,-3.8 1.6,-3.8 1.5,-3.7 1.1,-3.6 0.9,-3.4 0.6,-3.3 0.3,-3.1 v -3 l -0.2,-2.8 -0.6,-2.6 -0.7,-2.5 -1.1,-2.2 -1.4,-2.1 v 0 l -1.6,-1.8 -1.9,-1.7 -2.1,-1.5 -2.3,-1.2 -2.7,-1 -2.8,-0.8 -3.2,-0.6 -3.3,-0.3 -3.5,-0.2 -3.7,0.1 -3.9,0.4 -4.2,0.5 -4.2,0.8 -4.5,0.9 -4.6,1.2 -4.7,1.5 -4.8,1.6 -4.9,1.9 -5.1,2 -5.1,2.2 -5.2,2.5 -5.2,2.5 -5.3,2.8 -5.3,3 -5.3,3.1 -5.4,3.3 -5.3,3.4 -5.2,3.5 -5.2,3.7 -5.1,3.7 v 0.1 l -5.1,3.9 -4.9,3.9 -4.9,4.1 -4.8,4.1 -4.6,4.2 -4.5,4.2 -4.3,4.3 -4.1,4.2 -4,4.3 -3.8,4.4 -3.6,4.2 -3.4,4.3 -3.1,4.2 -2.9,4.2 -2.7,4.2 -2.5,4.1 -2.2,3.9 -1.9,3.9 -1.7,3.8 -1.4,3.7 -1.1,3.5 -0.9,3.4 -0.6,3.3 -0.3,3.2 v 2.9 l 0.2,2.9 0.5,2.6 0.8,2.4 1.1,2.3 z"
             inkscape:connector-curvature="0" /></g><text
           xml:space="preserve"
           transform="matrix(0.57810943,-0.45746485,-0.45932486,-0.57590588,352.95069,604.52111)"
           id="text1698"
           style="font-style:normal;font-variant:normal;font-weight:bold;font-stretch:normal;font-size:18.9978px;font-family:'Noto Sans';-inkscape-font-specification:'Noto Sans, Bold';font-variant-ligatures:normal;font-variant-caps:normal;font-variant-numeric:normal;font-variant-east-asian:normal;white-space:pre;shape-inside:url(#rect1700);fill:#000000"
           x="105.064"
           y="0"><tspan
             x="337.02761"
             y="290.51024"
             id="tspan766"><tspan
               style="text-align:center;text-anchor:middle"
               id="tspan764">Software development </tspan></tspan><tspan
             x="401.57251"
             y="314.25749"
             id="tspan770"><tspan
               style="text-align:center;text-anchor:middle"
               id="tspan768">practices</tspan></tspan></text><g
           id="g636"><path
             id="path638"
             style="fill:none;stroke:#505c64;stroke-width:0.73580003;stroke-linecap:butt;stroke-linejoin:round;stroke-miterlimit:10;stroke-dasharray:none;stroke-opacity:1"
             d="M 543.8,130.9 Z"
             inkscape:connector-curvature="0" /></g><g
           id="g716">







</g><g
           id="g750"><g
             id="g752" /><g
             id="g786"><g
               style="opacity:0.35"
               id="g784"
               clip-path="url(#clipPath756)"><g
                 id="g770"><g
                   id="g762" /><g
                   id="g768"><g
                     style="opacity:0.5"
                     id="g766"
                     clip-path="url(#clipPath760)"><path
                       id="path764"
                       style="fill:#000000;fill-opacity:1;fill-rule:evenodd;stroke:none"
                       d="m 270.7,151.7 v 0 l -1.7,1.6 -1.5,1.9 -1.3,2.2 -1.1,2.3 -0.9,2.5 -0.7,2.7 -0.5,2.9 -0.3,3.1 v 3.3 l 0.2,3.4 0.4,3.6 0.6,3.7 0.8,3.8 1,4 1.2,4.1 1.5,4.2 1.6,4.3 1.8,4.4 2,4.4 2.2,4.5 2.4,4.5 2.6,4.5 2.7,4.6 2.9,4.6 3,4.5 3.2,4.6 3.3,4.5 3.4,4.5 3.6,4.4 3.6,4.3 v 0 l 3.8,4.3 3.8,4.1 3.9,4.1 4,3.9 4,3.8 4,3.7 4.1,3.5 4.2,3.4 4.1,3.2 4.1,3 4.1,2.9 4,2.6 4.1,2.5 4,2.2 3.9,2.1 3.9,1.8 3.8,1.6 3.7,1.4 3.6,1.1 3.5,0.9 3.3,0.7 3.2,0.4 3.1,0.2 h 3 l 2.8,-0.3 2.6,-0.5 2.5,-0.8 2.2,-0.9 2.1,-1.3 2,-1.4 H 412 l 1.8,-1.7 1.5,-1.9 1.3,-2.1 1.1,-2.3 0.9,-2.6 0.7,-2.7 0.5,-2.9 0.2,-3.1 0.1,-3.2 -0.2,-3.5 -0.4,-3.5 -0.6,-3.8 -0.8,-3.8 -1,-4 -1.2,-4.1 -1.5,-4.2 -1.6,-4.3 -1.8,-4.3 -2,-4.4 -2.2,-4.5 -2.4,-4.5 -2.6,-4.6 -2.7,-4.6 -2.9,-4.5 -3,-4.6 -3.2,-4.5 -3.3,-4.5 -3.4,-4.5 -3.5,-4.4 -3.7,-4.4 v 0.1 l -3.8,-4.3 -3.8,-4.1 -3.9,-4.1 -4,-3.9 -4,-3.8 -4.1,-3.7 -4,-3.5 -4.1,-3.4 -4.2,-3.2 -4.1,-3 -4.1,-2.9 -4.1,-2.6 -4,-2.5 -4,-2.2 -3.9,-2.1 -3.9,-1.8 -3.8,-1.6 -3.7,-1.4 -3.6,-1.1 -3.4,-1 -3.4,-0.6 -3.2,-0.5 -3.1,-0.2 -3,0.1 -2.7,0.3 -2.7,0.5 -2.4,0.7 -2.3,1 -2.2,1.2 z m -34.6,29.8 z m 210.7,104.4 z"
                       inkscape:connector-curvature="0" /></g></g></g><g
                 id="g774"><path
                   id="path772"
                   style="fill:none;stroke:#000000;stroke-width:0.73580003;stroke-linecap:butt;stroke-linejoin:round;stroke-miterlimit:10;stroke-dasharray:none;stroke-opacity:1"
                   d="m 270.7,151.7 v 0 l -1.7,1.6 -1.5,1.9 -1.3,2.2 -1.1,2.3 -0.9,2.5 -0.7,2.7 -0.5,2.9 -0.3,3.1 v 3.3 l 0.2,3.4 0.4,3.6 0.6,3.7 0.8,3.8 1,4 1.2,4.1 1.5,4.2 1.6,4.3 1.8,4.4 2,4.4 2.2,4.5 2.4,4.5 2.6,4.5 2.7,4.6 2.9,4.6 3,4.5 3.2,4.6 3.3,4.5 3.4,4.5 3.6,4.4 3.6,4.3 v 0 l 3.8,4.3 3.8,4.1 3.9,4.1 4,3.9 4,3.8 4,3.7 4.1,3.5 4.2,3.4 4.1,3.2 4.1,3 4.1,2.9 4,2.6 4.1,2.5 4,2.2 3.9,2.1 3.9,1.8 3.8,1.6 3.7,1.4 3.6,1.1 3.5,0.9 3.3,0.7 3.2,0.4 3.1,0.2 h 3 l 2.8,-0.3 2.6,-0.5 2.5,-0.8 2.2,-0.9 2.1,-1.3 2,-1.4 H 412 l 1.8,-1.7 1.5,-1.9 1.3,-2.1 1.1,-2.3 0.9,-2.6 0.7,-2.7 0.5,-2.9 0.2,-3.1 0.1,-3.2 -0.2,-3.5 -0.4,-3.5 -0.6,-3.8 -0.8,-3.8 -1,-4 -1.2,-4.1 -1.5,-4.2 -1.6,-4.3 -1.8,-4.3 -2,-4.4 -2.2,-4.5 -2.4,-4.5 -2.6,-4.6 -2.7,-4.6 -2.9,-4.5 -3,-4.6 -3.2,-4.5 -3.3,-4.5 -3.4,-4.5 -3.5,-4.4 -3.7,-4.4 v 0.1 l -3.8,-4.3 -3.8,-4.1 -3.9,-4.1 -4,-3.9 -4,-3.8 -4.1,-3.7 -4,-3.5 -4.1,-3.4 -4.2,-3.2 -4.1,-3 -4.1,-2.9 -4.1,-2.6 -4,-2.5 -4,-2.2 -3.9,-2.1 -3.9,-1.8 -3.8,-1.6 -3.7,-1.4 -3.6,-1.1 -3.4,-1 -3.4,-0.6 -3.2,-0.5 -3.1,-0.2 -3,0.1 -2.7,0.3 -2.7,0.5 -2.4,0.7 -2.3,1 -2.2,1.2 z"
                   inkscape:connector-curvature="0" /></g><g
                 id="g778"><path
                   id="path776"
                   style="fill:none;stroke:#000000;stroke-width:0.73580003;stroke-linecap:butt;stroke-linejoin:round;stroke-miterlimit:10;stroke-dasharray:none;stroke-opacity:1"
                   d="M 236.1,181.5 Z"
                   inkscape:connector-curvature="0" /></g><g
                 id="g782"><path
                   id="path780"
                   style="fill:none;stroke:#000000;stroke-width:0.73580003;stroke-linecap:butt;stroke-linejoin:round;stroke-miterlimit:10;stroke-dasharray:none;stroke-opacity:1"
                   d="M 446.8,285.9 Z"
                   inkscape:connector-curvature="0" /></g></g></g></g><text
           xml:space="preserve"
           transform="matrix(0.52302127,-0.5195511,-0.52115162,-0.52062261,242.12239,755.38039)"
           id="text1698-9"
           style="font-style:normal;font-variant:normal;font-weight:bold;font-stretch:normal;font-size:18.9978px;font-family:'Noto Sans';-inkscape-font-specification:'Noto Sans, Bold';font-variant-ligatures:normal;font-variant-caps:normal;font-variant-numeric:normal;font-variant-east-asian:normal;text-align:center;white-space:pre;shape-inside:url(#rect1700-88);display:inline;fill:#000000"
           x="220.81793"
           y="0"><tspan
             x="340.53275"
             y="290.51024"
             id="tspan772">Parallel programming </tspan><tspan
             x="420.54179"
             y="314.25749"
             id="tspan774">skills</tspan></text><g
           id="g788"
           transform="translate(-0.44568701,-2.674122)"><g
             id="g790" /><g
             id="g800"><g
               style="opacity:0.5"
               id="g798"
               clip-path="url(#clipPath794)"><path
                 id="path796"
                 style="fill:#ffffcc;fill-opacity:1;fill-rule:evenodd;stroke:none"
                 d="m 270.7,153.5 v 0 l -1.7,1.6 -1.5,1.9 -1.3,2.2 -1.1,2.3 -0.9,2.5 -0.7,2.7 -0.5,3 -0.3,3 v 3.3 l 0.2,3.4 0.4,3.6 0.6,3.7 0.8,3.9 1,3.9 1.2,4.1 1.5,4.2 1.6,4.3 1.8,4.4 2,4.4 2.2,4.5 2.4,4.5 2.6,4.5 2.7,4.6 2.9,4.6 3,4.5 3.2,4.6 3.3,4.5 3.4,4.5 3.6,4.4 3.6,4.3 v 0 l 3.8,4.3 3.8,4.1 3.9,4.1 4,3.9 4,3.8 4,3.7 4.1,3.5 4.2,3.4 4.1,3.2 4.1,3 4.1,2.9 4,2.6 4.1,2.5 4,2.2 3.9,2.1 3.9,1.8 3.8,1.6 3.7,1.4 3.6,1.1 3.5,0.9 3.3,0.7 3.2,0.4 3.1,0.2 h 3 l 2.8,-0.3 2.6,-0.5 2.5,-0.7 2.2,-1 2.1,-1.3 2,-1.4 H 412 l 1.8,-1.7 1.5,-1.9 1.3,-2.1 1.1,-2.3 0.9,-2.5 0.7,-2.8 0.5,-2.9 0.2,-3.1 0.1,-3.2 -0.2,-3.5 -0.4,-3.5 -0.6,-3.7 -0.8,-3.9 -1,-4 -1.2,-4.1 -1.5,-4.2 -1.6,-4.3 -1.8,-4.3 -2,-4.4 -2.2,-4.5 -2.4,-4.5 -2.6,-4.6 -2.7,-4.6 -2.9,-4.5 -3,-4.6 -3.2,-4.5 -3.3,-4.5 -3.4,-4.5 -3.5,-4.4 -3.7,-4.3 v 0 l -3.8,-4.3 -3.8,-4.1 -3.9,-4.1 -4,-3.9 -4,-3.8 -4.1,-3.7 -4,-3.5 -4.1,-3.4 -4.2,-3.2 -4.1,-3 -4.1,-2.9 -4.1,-2.6 -4,-2.5 -4,-2.2 -3.9,-2.1 -3.9,-1.8 -3.8,-1.6 -3.7,-1.4 -3.6,-1.1 -3.4,-0.9 -3.4,-0.7 -3.2,-0.5 -3.1,-0.1 h -3 l -2.7,0.3 -2.7,0.5 -2.4,0.7 -2.3,1 -2.2,1.2 z m -34.6,29.9 z m 210.7,104.3 z"
                 inkscape:connector-curvature="0" /></g></g></g><g
           id="g802"><path
             id="path804"
             style="fill:none;stroke:#505c64;stroke-width:0.73580003;stroke-linecap:butt;stroke-linejoin:round;stroke-miterlimit:10;stroke-dasharray:none;stroke-opacity:1"
             d="m 270.7,153.5 v 0 l -1.7,1.6 -1.5,1.9 -1.3,2.2 -1.1,2.3 -0.9,2.5 -0.7,2.7 -0.5,3 -0.3,3 v 3.3 l 0.2,3.4 0.4,3.6 0.6,3.7 0.8,3.9 1,3.9 1.2,4.1 1.5,4.2 1.6,4.3 1.8,4.4 2,4.4 2.2,4.5 2.4,4.5 2.6,4.5 2.7,4.6 2.9,4.6 3,4.5 3.2,4.6 3.3,4.5 3.4,4.5 3.6,4.4 3.6,4.3 v 0 l 3.8,4.3 3.8,4.1 3.9,4.1 4,3.9 4,3.8 4,3.7 4.1,3.5 4.2,3.4 4.1,3.2 4.1,3 4.1,2.9 4,2.6 4.1,2.5 4,2.2 3.9,2.1 3.9,1.8 3.8,1.6 3.7,1.4 3.6,1.1 3.5,0.9 3.3,0.7 3.2,0.4 3.1,0.2 h 3 l 2.8,-0.3 2.6,-0.5 2.5,-0.7 2.2,-1 2.1,-1.3 2,-1.4 H 412 l 1.8,-1.7 1.5,-1.9 1.3,-2.1 1.1,-2.3 0.9,-2.5 0.7,-2.8 0.5,-2.9 0.2,-3.1 0.1,-3.2 -0.2,-3.5 -0.4,-3.5 -0.6,-3.7 -0.8,-3.9 -1,-4 -1.2,-4.1 -1.5,-4.2 -1.6,-4.3 -1.8,-4.3 -2,-4.4 -2.2,-4.5 -2.4,-4.5 -2.6,-4.6 -2.7,-4.6 -2.9,-4.5 -3,-4.6 -3.2,-4.5 -3.3,-4.5 -3.4,-4.5 -3.5,-4.4 -3.7,-4.3 v 0 l -3.8,-4.3 -3.8,-4.1 -3.9,-4.1 -4,-3.9 -4,-3.8 -4.1,-3.7 -4,-3.5 -4.1,-3.4 -4.2,-3.2 -4.1,-3 -4.1,-2.9 -4.1,-2.6 -4,-2.5 -4,-2.2 -3.9,-2.1 -3.9,-1.8 -3.8,-1.6 -3.7,-1.4 -3.6,-1.1 -3.4,-0.9 -3.4,-0.7 -3.2,-0.5 -3.1,-0.1 h -3 l -2.7,0.3 -2.7,0.5 -2.4,0.7 -2.3,1 -2.2,1.2 z"
             inkscape:connector-curvature="0" /></g><text
           xml:space="preserve"
           transform="matrix(0.48365006,0.55638766,0.55410065,-0.48540642,-33.926127,124.46595)"
           id="text1698-9-6-3"
           style="font-style:normal;font-variant:normal;font-weight:bold;font-stretch:normal;font-size:18.9978px;font-family:'Noto Sans';-inkscape-font-specification:'Noto Sans, Bold';font-variant-ligatures:normal;font-variant-caps:normal;font-variant-numeric:normal;font-variant-east-asian:normal;text-align:center;white-space:pre;shape-inside:url(#rect1700-88-7-4);display:inline;fill:#000000"
           x="220.81793"
           y="0"><tspan
             x="323.60568"
             y="290.51024"
             id="tspan776">Infrastructure awareness
</tspan></text></g></g></g></svg>
