<?xml version="1.0" encoding="UTF-8" standalone="no"?>
<!-- Created with Inkscape (http://www.inkscape.org/) -->

<svg
   xmlns:dc="http://purl.org/dc/elements/1.1/"
   xmlns:cc="http://creativecommons.org/ns#"
   xmlns:rdf="http://www.w3.org/1999/02/22-rdf-syntax-ns#"
   xmlns:svg="http://www.w3.org/2000/svg"
   xmlns="http://www.w3.org/2000/svg"
   xmlns:sodipodi="http://sodipodi.sourceforge.net/DTD/sodipodi-0.dtd"
   xmlns:inkscape="http://www.inkscape.org/namespaces/inkscape"
   version="1.1"
   id="svg966"
   xml:space="preserve"
   width="186.64999"
   height="439.38281"
   viewBox="0 0 186.64998 439.38281"
   sodipodi:docname="obf.svg"
   inkscape:version="0.92.2 (5c3e80d, 2017-08-06)"><metadata
     id="metadata972"><rdf:RDF><cc:Work
         rdf:about=""><dc:format>image/svg+xml</dc:format><dc:type
           rdf:resource="http://purl.org/dc/dcmitype/StillImage" /><dc:title></dc:title></cc:Work></rdf:RDF></metadata><defs
     id="defs970"><clipPath
       clipPathUnits="userSpaceOnUse"
       id="clipPath982"><path
         d="M 0,-0.2 H 793.6 V 595 H 0 Z"
         id="path980"
         inkscape:connector-curvature="0"
         style="clip-rule:evenodd" /></clipPath><clipPath
       clipPathUnits="userSpaceOnUse"
       id="clipPath1887"><rect
         style="opacity:1;fill:none;stroke:#000000;stroke-width:3.82500005;stroke-miterlimit:4;stroke-dasharray:none;stroke-opacity:1"
         id="rect1889"
         width="205.4767"
         height="361.79025"
         x="301.2818"
         y="-499.19495"
         transform="scale(1,-1)" /></clipPath></defs><sodipodi:namedview
     pagecolor="#ffffff"
     bordercolor="#666666"
     borderopacity="1"
     objecttolerance="10"
     gridtolerance="10"
     guidetolerance="10"
     inkscape:pageopacity="0"
     inkscape:pageshadow="2"
     inkscape:window-width="1920"
     inkscape:window-height="981"
     id="namedview968"
     showgrid="false"
     fit-margin-top="0"
     fit-margin-left="0"
     fit-margin-right="0"
     fit-margin-bottom="0"
     inkscape:zoom="1.189916"
     inkscape:cx="-217.83578"
     inkscape:cy="209.33736"
     inkscape:window-x="1920"
     inkscape:window-y="28"
     inkscape:window-maximized="1"
     inkscape:current-layer="g978" /><g
     id="g974"
     inkscape:groupmode="layer"
     inkscape:label="obf"
     transform="matrix(1.3333333,0,0,-1.3333333,-443.01869,669.5041)"><g
       id="g976"
       transform="translate(-6.3029661,20.169492)"
       clip-path="url(#clipPath1887)"><g
         id="g978"
         clip-path="url(#clipPath982)"><g
           id="g986" /><g
           id="g988" /><g
           id="g990" /><g
           id="g992"><text
             transform="matrix(1,0,0,-1,352.8,477.4)"
             style="font-variant:normal;font-weight:normal;font-size:6px;font-family:'DejaVu Sans Mono';-inkscape-font-specification:DejaVuSansMono;writing-mode:lr-tb;fill:#000000;fill-opacity:1;fill-rule:nonzero;stroke:none"
             id="text996"><tspan
               x="0 3.5999999 7.1999998 10.8 14.4 18 21.6 25.200001 28.799999 32.400002 36 39.599998 43.200001 46.799999 50.400002 54 57.599998 61.200001 64.800003 68.400002 72 75.599998 79.199997 82.800003 86.400002 90 93.599998 97.199997 100.8 104.4 108"
               y="0"
               sodipodi:role="line"
               id="tspan994">static signed char a[] = {0x69,</tspan></text>
</g><g
           id="g998" /><g
           id="g1000"><text
             transform="matrix(1,0,0,-1,345.6,470.2)"
             style="font-variant:normal;font-weight:normal;font-size:6px;font-family:'DejaVu Sans Mono';-inkscape-font-specification:DejaVuSansMono;writing-mode:lr-tb;fill:#000000;fill-opacity:1;fill-rule:nonzero;stroke:none"
             id="text1004"><tspan
               x="0 3.5999999 7.1999998 10.8 14.4 18 21.6 25.200001 28.799999 32.400002 36 39.599998 43.200001 46.799999 50.400002 54 57.599998 61.200001 64.800003 68.400002 72 75.599998 79.199997 82.800003 90 93.599998 97.199997 100.8 104.4 108 111.6 115.2 118.8 122.4"
               y="0"
               sodipodi:role="line"
               id="tspan1002">110, 118, 97, 108, 105, 0x64, 1-1,</tspan></text>
</g><g
           id="g1006" /><g
           id="g1008"><text
             transform="matrix(1,0,0,-1,338.4,463)"
             style="font-variant:normal;font-weight:normal;font-size:6px;font-family:'DejaVu Sans Mono';-inkscape-font-specification:DejaVuSansMono;writing-mode:lr-tb;fill:#000000;fill-opacity:1;fill-rule:nonzero;stroke:none"
             id="text1012"><tspan
               x="0 3.5999999 7.1999998 10.8 14.4 18 21.6 25.200001 28.799999 32.400002 36 39.599998 43.200001 46.799999 50.400002 54 61.200001 64.800003 68.400002 72 75.599998 79.199997 82.800003 86.400002 90 93.599998 97.199997 100.8 104.4 108 111.6 115.2 118.8 122.4 126 129.60001 133.2 136.8"
               y="0"
               sodipodi:role="line"
               id="tspan1010">0x6d, 111, 118, 101, 1&lt;&lt;1&lt;&lt;1&lt;&lt;1&lt;&lt;1&lt;&lt;1,</tspan></text>
</g><g
           id="g1014" /><g
           id="g1016"><text
             transform="matrix(1,0,0,-1,338.4,455.8)"
             style="font-variant:normal;font-weight:normal;font-size:6px;font-family:'DejaVu Sans Mono';-inkscape-font-specification:DejaVuSansMono;writing-mode:lr-tb;fill:#000000;fill-opacity:1;fill-rule:nonzero;stroke:none"
             id="text1020"><tspan
               x="0 3.5999999 7.1999998 10.8 14.4 21.6 25.200001 28.799999 32.400002 36 39.599998 43.200001 46.799999 50.400002 54 57.599998 64.800003 68.400002 72 75.599998 79.199997 86.400002 90 93.599998 97.199997 100.8 104.4 108 111.6 115.2 118.8 122.4 126 129.60001 133.2 136.8"
               y="0"
               sodipodi:role="line"
               id="tspan1018">114, 105, 0x6e, 103, 32, 'o'/3, 100,</tspan></text>
</g><g
           id="g1022" /><g
           id="g1024"><text
             transform="matrix(1,0,0,-1,338.4,448.6)"
             style="font-variant:normal;font-weight:normal;font-size:6px;font-family:'DejaVu Sans Mono';-inkscape-font-specification:DejaVuSansMono;writing-mode:lr-tb;fill:#000000;fill-opacity:1;fill-rule:nonzero;stroke:none"
             id="text1028"><tspan
               x="0 3.5999999 7.1999998 10.8 14.4 18 21.6 25.200001 28.799999 32.400002 36 39.599998 43.200001 46.799999 50.400002 54 57.599998 61.200001 64.800003 72 75.599998 79.199997 82.800003 86.400002 90 93.599998 97.199997 100.8 104.4 108 111.6 115.2 118.8 122.4 126 129.60001 133.2 136.8"
               y="0"
               sodipodi:role="line"
               id="tspan1026">32, 102, 114, 111, 0x6d, 32, 115, 116,</tspan></text>
</g><g
           id="g1030" /><g
           id="g1032"><text
             transform="matrix(1,0,0,-1,338.4,441.4)"
             style="font-variant:normal;font-weight:normal;font-size:6px;font-family:'DejaVu Sans Mono';-inkscape-font-specification:DejaVuSansMono;writing-mode:lr-tb;fill:#000000;fill-opacity:1;fill-rule:nonzero;stroke:none"
             id="text1036"><tspan
               x="0 3.5999999 7.1999998 10.8 14.4 18 21.6 25.200001 28.799999 32.400002 36 39.599998 43.200001 46.799999 50.400002 54 57.599998 61.200001 64.800003 68.400002 72 75.599998 79.199997 82.800003 86.400002 90 93.599998 97.199997 100.8 104.4 108 111.6 115.2 118.8 122.4 126 129.60001 133.2 136.8"
               y="0"
               sodipodi:role="line"
               id="tspan1034">97, 100-001, 107, 32,37, 2*'2', '@'&gt;&gt;1,</tspan></text>
</g><g
           id="g1038" /><g
           id="g1040"><text
             transform="matrix(1,0,0,-1,338.4,434.2)"
             style="font-variant:normal;font-weight:normal;font-size:6px;font-family:'DejaVu Sans Mono';-inkscape-font-specification:DejaVuSansMono;writing-mode:lr-tb;fill:#000000;fill-opacity:1;fill-rule:nonzero;stroke:none"
             id="text1044"><tspan
               x="0 3.5999999 7.1999998 10.8 14.4 18 21.6 25.200001 28.799999 32.400002 36 39.599998 43.200001 46.799999 50.400002 54 57.599998 61.200001 64.800003 68.400002 72 75.599998 79.199997 82.800003 86.400002 90 93.599998 97.199997 100.8 104.4 108 111.6 115.2 118.8 122.4 126 129.60001 133.2 136.8"
               y="0"
               sodipodi:role="line"
               id="tspan1042">116, '%' + '%' + '%','w'-'W',115, 0x74,</tspan></text>
</g><g
           id="g1046" /><g
           id="g1048"><text
             transform="matrix(1,0,0,-1,338.4,427)"
             style="font-variant:normal;font-weight:normal;font-size:6px;font-family:'DejaVu Sans Mono';-inkscape-font-specification:DejaVuSansMono;writing-mode:lr-tb;fill:#000000;fill-opacity:1;fill-rule:nonzero;stroke:none"
             id="text1052"><tspan
               x="0 3.5999999 7.1999998 10.8 14.4 18 21.6 25.200001 28.799999 32.400002 36 39.599998 43.200001 46.799999 50.400002 54 57.599998 61.200001 64.800003 68.400002 72 75.599998 79.199997 82.800003 86.400002 90 93.599998 97.199997 100.8 104.4 108 111.6 115.2 118.8 122.4 126 129.60001 133.2 136.8"
               y="0"
               sodipodi:role="line"
               id="tspan1050">97, 3*'!', 107, 'q' - 'Q', 37, 10*'\n',</tspan></text>
</g><g
           id="g1054" /><g
           id="g1056"><text
             transform="matrix(1,0,0,-1,338.4,419.8)"
             style="font-variant:normal;font-weight:normal;font-size:6px;font-family:'DejaVu Sans Mono';-inkscape-font-specification:DejaVuSansMono;writing-mode:lr-tb;fill:#000000;fill-opacity:1;fill-rule:nonzero;stroke:none"
             id="text1060"><tspan
               x="0 3.5999999 7.1999998 10.8 14.4 18 21.6 25.200001 28.799999 32.400002 36 39.599998 43.200001 46.799999 50.400002 54 57.599998 61.200001 64.800003 68.400002 72 75.599998 79.199997 82.800003 86.400002 90 93.599998 97.199997 100.8 104.4 108 111.6 115.2 118.8 122.4 126 129.60001 133.2 136.8"
               y="0"
               sodipodi:role="line"
               id="tspan1058">10, 0}, * b = a + (1&lt;&lt;1&lt;&lt;1&lt;&lt;1), * w, x,</tspan></text>
</g><g
           id="g1062" /><g
           id="g1064"><text
             transform="matrix(1,0,0,-1,338.4,412.6)"
             style="font-variant:normal;font-weight:normal;font-size:6px;font-family:'DejaVu Sans Mono';-inkscape-font-specification:DejaVuSansMono;writing-mode:lr-tb;fill:#000000;fill-opacity:1;fill-rule:nonzero;stroke:none"
             id="text1068"><tspan
               x="0 3.5999999 7.1999998 10.8 14.4 18 21.6 25.200001 28.799999 32.400002 36 39.599998 43.200001 46.799999 50.400002 54 57.599998 61.200001 64.800003 68.400002 72 75.599998 79.199997 82.800003 86.400002 90 93.599998 97.199997 100.8 104.4 108 111.6 115.2 118.8 122.4 126 129.60001 133.2 136.8"
               y="0"
               sodipodi:role="line"
               id="tspan1066">*q, c, r; int main(int d, char *e []) {</tspan></text>
</g><g
           id="g1070" /><g
           id="g1072"><text
             transform="matrix(1,0,0,-1,338.4,405.4)"
             style="font-variant:normal;font-weight:normal;font-size:6px;font-family:'DejaVu Sans Mono';-inkscape-font-specification:DejaVuSansMono;writing-mode:lr-tb;fill:#000000;fill-opacity:1;fill-rule:nonzero;stroke:none"
             id="text1076"><tspan
               x="0 3.5999999 7.1999998 10.8 14.4 18 21.6 25.200001 28.799999 32.400002 36 39.599998 43.200001 46.799999 50.400002 54 57.599998 61.200001 64.800003 68.400002 72 75.599998 79.199997 82.800003 86.400002 90 93.599998 97.199997 100.8 104.4 108 111.6 115.2 118.8 122.4 126 129.60001 133.2 136.8"
               y="0"
               sodipodi:role="line"
               id="tspan1074">return q = (signed char *)(e+1+1), (r =</tspan></text>
</g><g
           id="g1078" /><g
           id="g1080"><text
             transform="matrix(1,0,0,-1,338.4,398.2)"
             style="font-variant:normal;font-weight:normal;font-size:6px;font-family:'DejaVu Sans Mono';-inkscape-font-specification:DejaVuSansMono;writing-mode:lr-tb;fill:#000000;fill-opacity:1;fill-rule:nonzero;stroke:none"
             id="text1084"><tspan
               x="0 3.5999999 7.1999998 10.8 14.4 18 21.6 25.200001 28.799999 32.400002 36 39.599998 43.200001 46.799999 50.400002 54 57.599998 61.200001 64.800003 68.400002 72 75.599998 79.199997 82.800003 86.400002 90 93.599998 97.199997 100.8 104.4 108 111.6 115.2 118.8 122.4 126 129.60001 133.2 136.8"
               y="0"
               sodipodi:role="line"
               id="tspan1082">e[0] &amp;&amp; e[1] ? 0 : 0 * puts (a) + 1) ||</tspan></text>
</g><g
           id="g1086" /><g
           id="g1088"><text
             transform="matrix(1,0,0,-1,338.4,391)"
             style="font-variant:normal;font-weight:normal;font-size:6px;font-family:'DejaVu Sans Mono';-inkscape-font-specification:DejaVuSansMono;writing-mode:lr-tb;fill:#000000;fill-opacity:1;fill-rule:nonzero;stroke:none"
             id="text1092"><tspan
               x="0 3.5999999 7.1999998 10.8 14.4 18 21.6 25.200001 28.799999 32.400002 36 39.599998 43.200001 46.799999 50.400002 54 57.599998 61.200001 64.800003 68.400002 72 75.599998 79.199997 82.800003 86.400002 90 93.599998 97.199997 100.8 104.4 108 111.6 115.2 118.8 122.4 126 129.60001 133.2 136.8"
               y="0"
               sodipodi:role="line"
               id="tspan1090">(r = e[1&lt;&lt;1] &amp;&amp; d != 1 &lt;&lt;1 &amp;&amp; 0 * puts(</tspan></text>
</g><g
           id="g1094" /><g
           id="g1096"><text
             transform="matrix(1,0,0,-1,338.4,383.8)"
             style="font-variant:normal;font-weight:normal;font-size:6px;font-family:'DejaVu Sans Mono';-inkscape-font-specification:DejaVuSansMono;writing-mode:lr-tb;fill:#000000;fill-opacity:1;fill-rule:nonzero;stroke:none"
             id="text1100"><tspan
               x="0 3.5999999 7.1999998 10.8 14.4 18 21.6 25.200001 28.799999 32.400002 36 39.599998 43.200001 46.799999 50.400002 54 57.599998 61.200001 64.800003 68.400002 72 75.599998 79.199997 86.400002 90 93.599998 97.199997 100.8 104.4 108 111.6 115.2 118.8 122.4 126 129.60001 133.2 136.8"
               y="0"
               sodipodi:role="line"
               id="tspan1098">a) + 1) || e[1- -1] || (r = atoi(e[1])</tspan></text>
</g><g
           id="g1102" /><g
           id="g1104"><text
             transform="matrix(1,0,0,-1,338.4,376.6)"
             style="font-variant:normal;font-weight:normal;font-size:6px;font-family:'DejaVu Sans Mono';-inkscape-font-specification:DejaVuSansMono;writing-mode:lr-tb;fill:#000000;fill-opacity:1;fill-rule:nonzero;stroke:none"
             id="text1108"><tspan
               x="0 3.5999999 7.1999998 10.8 14.4 18 21.6 25.200001 28.799999 32.400002 36 39.599998 43.200001 46.799999 50.400002 54 57.599998 61.200001 64.800003 68.400002 72 75.599998 79.199997 82.800003 86.400002 90 93.599998 97.199997 100.8 104.4 108 111.6 115.2 118.8 122.4 126 129.60001 133.2 136.8"
               y="0"
               sodipodi:role="line"
               id="tspan1106">&lt; -0200 || atoi (e [1]) &gt; 0x7f || ( x =</tspan></text>
</g><g
           id="g1110" /><g
           id="g1112"><text
             transform="matrix(1,0,0,-1,338.4,369.4)"
             style="font-variant:normal;font-weight:normal;font-size:6px;font-family:'DejaVu Sans Mono';-inkscape-font-specification:DejaVuSansMono;writing-mode:lr-tb;fill:#000000;fill-opacity:1;fill-rule:nonzero;stroke:none"
             id="text1116"><tspan
               x="0 3.5999999 7.1999998 10.8 14.4 18 21.6 25.200001 28.799999 32.400002 36 39.599998 43.200001 46.799999 50.400002 54 57.599998 61.200001 64.800003 68.400002 72 75.599998 79.199997 82.800003 86.400002 90 93.599998 97.199997 100.8 104.4 108 111.6 115.2 118.8 122.4 126 129.60001 133.2 136.8"
               y="0"
               sodipodi:role="line"
               id="tspan1114">atoi( e[1] ) ) == 0 ? 0 * puts(a) + 1 :</tspan></text>
</g><g
           id="g1118" /><g
           id="g1120"><text
             transform="matrix(1,0,0,-1,338.4,362.2)"
             style="font-variant:normal;font-weight:normal;font-size:6px;font-family:'DejaVu Sans Mono';-inkscape-font-specification:DejaVuSansMono;writing-mode:lr-tb;fill:#000000;fill-opacity:1;fill-rule:nonzero;stroke:none"
             id="text1124"><tspan
               x="0 3.5999999 7.1999998 10.8 14.4 18 21.6 25.200001 28.799999 32.400002 36 39.599998 43.200001 46.799999 50.400002 54 57.599998 61.200001 64.800003 68.400002 72 75.599998 79.199997 82.800003 86.400002 90 93.599998 97.199997 100.8 104.4 108 111.6 115.2 118.8 122.4 126 129.60001 133.2 136.8"
               y="0"
               sodipodi:role="line"
               id="tspan1122">0) || e [1- -1] || (x- -x &gt; 1-1 ? (q[0]</tspan></text>
</g><g
           id="g1126" /><g
           id="g1128"><text
             transform="matrix(1,0,0,-1,345.6,355)"
             style="font-variant:normal;font-weight:normal;font-size:6px;font-family:'DejaVu Sans Mono';-inkscape-font-specification:DejaVuSansMono;writing-mode:lr-tb;fill:#000000;fill-opacity:1;fill-rule:nonzero;stroke:none"
             id="text1132"><tspan
               x="0 3.5999999 7.1999998 10.8 14.4 18 21.6 25.200001 28.799999 32.400002 36 39.599998 43.200001 46.799999 50.400002 54 57.599998 61.200001 64.800003 68.400002 72 75.599998 79.199997 82.800003 86.400002 90 93.599998 97.199997 100.8 104.4 108 111.6 115.2 118.8 122.4"
               y="0"
               sodipodi:role="line"
               id="tspan1130">= x, q[1] = q[3] = 1, q[2] = 2) : (</tspan></text>
</g><g
           id="g1134" /><g
           id="g1136"><text
             transform="matrix(1,0,0,-1,352.8,347.8)"
             style="font-variant:normal;font-weight:normal;font-size:6px;font-family:'DejaVu Sans Mono';-inkscape-font-specification:DejaVuSansMono;writing-mode:lr-tb;fill:#000000;fill-opacity:1;fill-rule:nonzero;stroke:none"
             id="text1140"><tspan
               x="0 3.5999999 7.1999998 10.8 14.4 18 21.6 25.200001 28.799999 32.400002 36 39.599998 43.200001 46.799999 50.400002 54 57.599998 61.200001 64.800003 68.400002 72 75.599998 82.800003 86.400002 90 93.599998 97.199997 100.8 104.4 108"
               y="0"
               sodipodi:role="line"
               id="tspan1138">memset ( w = ( signed char * )</tspan></text>
</g><g
           id="g1142" /><g
           id="g1144"><text
             transform="matrix(1,0,0,-1,352.8,326.2)"
             style="font-variant:normal;font-weight:normal;font-size:6px;font-family:'DejaVu Sans Mono';-inkscape-font-specification:DejaVuSansMono;writing-mode:lr-tb;fill:#000000;fill-opacity:1;fill-rule:nonzero;stroke:none"
             id="text1148"><tspan
               x="0 3.5999999 7.1999998 10.8 14.4 18 21.6 25.200001 28.799999 32.400002 36 39.599998 43.200001 46.799999 50.400002 54 57.599998 61.200001 64.800003 68.400002 72 75.599998 79.199997 82.800003 86.400002 90 93.599998 97.199997 100.8 104.4 108"
               y="0"
               sodipodi:role="line"
               id="tspan1146">malloc(-x), '1', -x), puts (w),</tspan></text>
</g><g
           id="g1150" /><g
           id="g1152"><text
             transform="matrix(1,0,0,-1,345.6,319)"
             style="font-variant:normal;font-weight:normal;font-size:6px;font-family:'DejaVu Sans Mono';-inkscape-font-specification:DejaVuSansMono;writing-mode:lr-tb;fill:#000000;fill-opacity:1;fill-rule:nonzero;stroke:none"
             id="text1156"><tspan
               x="0 3.5999999 7.1999998 10.8 14.4 18 21.6 25.200001 28.799999 32.400002 36 39.599998 43.200001 46.799999 50.400002 54 57.599998 61.200001 64.800003 68.400002 72 75.599998 79.199997 82.800003 86.400002 90 93.599998 97.199997 100.8 104.4 108 111.6 115.2 118.8 122.4"
               y="0"
               sodipodi:role="line"
               id="tspan1154">q[0] = x, q[1] = '0', q[2] = q[3] =</tspan></text>
</g><g
           id="g1158" /><g
           id="g1160"><text
             transform="matrix(1,0,0,-1,338.4,311.8)"
             style="font-variant:normal;font-weight:normal;font-size:6px;font-family:'DejaVu Sans Mono';-inkscape-font-specification:DejaVuSansMono;writing-mode:lr-tb;fill:#000000;fill-opacity:1;fill-rule:nonzero;stroke:none"
             id="text1164"><tspan
               x="0 3.5999999 7.1999998 10.8 14.4 18 21.6 25.200001 28.799999 32.400002 36 39.599998 43.200001 46.799999 50.400002 54 57.599998 61.200001 64.800003 68.400002 72 75.599998 79.199997 82.800003 86.400002 90 93.599998 97.199997 100.8 104.4 108 111.6 115.2 118.8 122.4 126 129.60001 133.2 136.8"
               y="0"
               sodipodi:role="line"
               id="tspan1162">0)), r || (q[3] ? (c = 6 - q[1] - q[2],</tspan></text>
</g><g
           id="g1166" /><g
           id="g1168"><text
             transform="matrix(1,0,0,-1,338.4,304.6)"
             style="font-variant:normal;font-weight:normal;font-size:6px;font-family:'DejaVu Sans Mono';-inkscape-font-specification:DejaVuSansMono;writing-mode:lr-tb;fill:#000000;fill-opacity:1;fill-rule:nonzero;stroke:none"
             id="text1172"><tspan
               x="0 3.5999999 7.1999998 10.8 14.4 18 21.6 25.200001 28.799999 32.400002 36 39.599998 43.200001 46.799999 50.400002 54 57.599998 61.200001 64.800003 68.400002 72 75.599998 79.199997 82.800003 86.400002 90 93.599998 97.199997 100.8 104.4 108 111.6 115.2 118.8 122.4 126 129.60001 133.2 136.8"
               y="0"
               sodipodi:role="line"
               id="tspan1170">(q[0] != 1) ? q[0]-- , d = q[2], q[2] =</tspan></text>
</g><g
           id="g1174" /><g
           id="g1176"><text
             transform="matrix(1,0,0,-1,338.4,297.4)"
             style="font-variant:normal;font-weight:normal;font-size:6px;font-family:'DejaVu Sans Mono';-inkscape-font-specification:DejaVuSansMono;writing-mode:lr-tb;fill:#000000;fill-opacity:1;fill-rule:nonzero;stroke:none"
             id="text1180"><tspan
               x="0 3.5999999 7.1999998 10.8 14.4 18 21.6 25.200001 28.799999 32.400002 36 39.599998 43.200001 46.799999 50.400002 54 57.599998 61.200001 64.800003 68.400002 72 75.599998 79.199997 82.800003 86.400002 90 93.599998 97.199997 100.8 104.4 108 111.6 115.2 118.8 122.4 126 129.60001 133.2 136.8"
               y="0"
               sodipodi:role="line"
               id="tspan1178">c, main(2, e), c = q[2], q[2] = d, q[0]</tspan></text>
</g><g
           id="g1182" /><g
           id="g1184"><text
             transform="matrix(1,0,0,-1,338.4,290.2)"
             style="font-variant:normal;font-weight:normal;font-size:6px;font-family:'DejaVu Sans Mono';-inkscape-font-specification:DejaVuSansMono;writing-mode:lr-tb;fill:#000000;fill-opacity:1;fill-rule:nonzero;stroke:none"
             id="text1188"><tspan
               x="0 3.5999999 7.1999998 10.8 14.4 18 21.6 25.200001 28.799999 32.400002 36 39.599998 43.200001 46.799999 50.400002 54 57.599998 61.200001 64.800003 68.400002 72 75.599998 79.199997 82.800003 86.400002 90 93.599998 97.199997 100.8 104.4 108 111.6 115.2 118.8 122.4 126 129.60001 133.2 136.8"
               y="0"
               sodipodi:role="line"
               id="tspan1186">++ : 0, printf(b, q[0], q[1], q[2]), (q</tspan></text>
</g><g
           id="g1190" /><g
           id="g1192"><text
             transform="matrix(1,0,0,-1,338.4,283)"
             style="font-variant:normal;font-weight:normal;font-size:6px;font-family:'DejaVu Sans Mono';-inkscape-font-specification:DejaVuSansMono;writing-mode:lr-tb;fill:#000000;fill-opacity:1;fill-rule:nonzero;stroke:none"
             id="text1196"><tspan
               x="0 3.5999999 7.1999998 10.8 14.4 18 21.6 25.200001 28.799999 32.400002 36 39.599998 43.200001 46.799999 50.400002 54 57.599998 61.200001 64.800003 68.400002 72 75.599998 79.199997 82.800003 86.400002 90 93.599998 97.199997 100.8 104.4 108 111.6 115.2 118.8 122.4 126 129.60001 133.2 136.8"
               y="0"
               sodipodi:role="line"
               id="tspan1194">[0] != 1) ? q[0]--, d = q[1],q[1] = c ,</tspan></text>
</g><g
           id="g1198" /><g
           id="g1200"><text
             transform="matrix(1,0,0,-1,338.4,275.8)"
             style="font-variant:normal;font-weight:normal;font-size:6px;font-family:'DejaVu Sans Mono';-inkscape-font-specification:DejaVuSansMono;writing-mode:lr-tb;fill:#000000;fill-opacity:1;fill-rule:nonzero;stroke:none"
             id="text1204"><tspan
               x="0 3.5999999 7.1999998 10.8 14.4 18 21.6 25.200001 28.799999 32.400002 36 39.599998 43.200001 46.799999 50.400002 54 57.599998 61.200001 64.800003 68.400002 72 75.599998 79.199997 82.800003 86.400002 90 93.599998 97.199997 100.8 104.4 108 111.6 115.2 118.8 122.4 126 129.60001 133.2 136.8"
               y="0"
               sodipodi:role="line"
               id="tspan1202">main(2, e), c = q[1], q[1] = d, q[0] ++</tspan></text>
</g><g
           id="g1206" /><g
           id="g1208"><text
             transform="matrix(1,0,0,-1,338.4,268.6)"
             style="font-variant:normal;font-weight:normal;font-size:6px;font-family:'DejaVu Sans Mono';-inkscape-font-specification:DejaVuSansMono;writing-mode:lr-tb;fill:#000000;fill-opacity:1;fill-rule:nonzero;stroke:none"
             id="text1212"><tspan
               x="0 3.5999999 7.1999998 10.8 14.4 18 21.6 25.200001 28.799999 32.400002 36 39.599998 43.200001 46.799999 50.400002 54 57.599998 61.200001 64.800003 68.400002 72 75.599998 79.199997 82.800003 86.400002 90 93.599998 97.199997 100.8 104.4 108 111.6 115.2 118.8 122.4 126 129.60001 133.2 136.8"
               y="0"
               sodipodi:role="line"
               id="tspan1210">: 0) : - 1 - q[0] - 1 == 0 ? (w[- x – 1</tspan></text>
</g><g
           id="g1214" /><g
           id="g1216"><text
             transform="matrix(1,0,0,-1,338.4,261.4)"
             style="font-variant:normal;font-weight:normal;font-size:6px;font-family:'DejaVu Sans Mono';-inkscape-font-specification:DejaVuSansMono;writing-mode:lr-tb;fill:#000000;fill-opacity:1;fill-rule:nonzero;stroke:none"
             id="text1220"><tspan
               x="0 3.5999999 7.1999998 10.8 14.4 18 21.6 25.200001 28.799999 32.400002 36 39.599998 43.200001 46.799999 50.400002 54 57.599998 61.200001 64.800003 68.400002 72 75.599998 79.199997 82.800003 86.400002 90 93.599998 97.199997 100.8 104.4 108 111.6 115.2 118.8 122.4 126 129.60001 133.2 136.8"
               y="0"
               sodipodi:role="line"
               id="tspan1218">- (q[1] &amp; 1 ^ 1)] = q[1], puts (w), w [</tspan></text>
</g><g
           id="g1222" /><g
           id="g1224"><text
             transform="matrix(1,0,0,-1,338.4,254.2)"
             style="font-variant:normal;font-weight:normal;font-size:6px;font-family:'DejaVu Sans Mono';-inkscape-font-specification:DejaVuSansMono;writing-mode:lr-tb;fill:#000000;fill-opacity:1;fill-rule:nonzero;stroke:none"
             id="text1228"><tspan
               x="0 3.5999999 7.1999998 10.8 14.4 18 21.6 25.200001 28.799999 32.400002 36 39.599998 43.200001 46.799999 50.400002 54 57.599998 61.200001 64.800003 68.400002 72 75.599998 79.199997 82.800003 86.400002 90 93.599998 97.199997 100.8 104.4 108 111.6 115.2 118.8 122.4 126 129.60001 133.2 136.8"
               y="0"
               sodipodi:role="line"
               id="tspan1226">- x - 1 - (q[1] &amp; 1)] = q[1], puts(w) )</tspan></text>
</g><g
           id="g1230" /><g
           id="g1232"><text
             transform="matrix(1,0,0,-1,338.4,247)"
             style="font-variant:normal;font-weight:normal;font-size:6px;font-family:'DejaVu Sans Mono';-inkscape-font-specification:DejaVuSansMono;writing-mode:lr-tb;fill:#000000;fill-opacity:1;fill-rule:nonzero;stroke:none"
             id="text1236"><tspan
               x="0 3.5999999 7.1999998 10.8 14.4 18 21.6 25.200001 28.799999 32.400002 36 39.599998 43.200001 46.799999 50.400002 54 57.599998 61.200001 64.800003 68.400002 75.599998 79.199997 82.800003 86.400002 90 93.599998 97.199997 100.8 104.4 108 111.6 115.2 118.8 122.4 126 129.60001 133.2 136.8"
               y="0"
               sodipodi:role="line"
               id="tspan1234">: - 1 - q[0] == 0 ? (w[- x - 1] = q[ 1</tspan></text>
</g><g
           id="g1238" /><g
           id="g1240"><text
             transform="matrix(1,0,0,-1,345.6,239.8)"
             style="font-variant:normal;font-weight:normal;font-size:6px;font-family:'DejaVu Sans Mono';-inkscape-font-specification:DejaVuSansMono;writing-mode:lr-tb;fill:#000000;fill-opacity:1;fill-rule:nonzero;stroke:none"
             id="text1244"><tspan
               x="0 3.5999999 7.1999998 10.8 14.4 18 21.6 25.200001 28.799999 32.400002 36 39.599998 43.200001 46.799999 50.400002 54 57.599998 61.200001 64.800003 68.400002 72 75.599998 79.199997 82.800003 86.400002 90 93.599998 97.199997 100.8 104.4 108 111.6 115.2 118.8 122.4 126 129.60001"
               y="0"
               sodipodi:role="line"
               id="tspan1242">], puts(w)) : (q[0] += 1 + ( q[1] &amp; 1</tspan></text>
</g><g
           id="g1246" /><g
           id="g1248"><text
             transform="matrix(1,0,0,-1,360,232.6)"
             style="font-variant:normal;font-weight:normal;font-size:6px;font-family:'DejaVu Sans Mono';-inkscape-font-specification:DejaVuSansMono;writing-mode:lr-tb;fill:#000000;fill-opacity:1;fill-rule:nonzero;stroke:none"
             id="text1252"><tspan
               x="0 3.5999999 7.1999998 10.8 14.4 18 21.6 25.200001 28.799999 32.400002 36 39.599998 43.200001 46.799999 50.400002 54 57.599998 61.200001 64.800003 68.400002 72 75.599998 79.199997 82.800003 86.400002 90 93.599998 97.199997 100.8 104.4 108 111.6 115.2"
               y="0"
               sodipodi:role="line"
               id="tspan1250">^ 1), main(2, e), q[0] -= 1 + ( q</tspan></text>
</g><g
           id="g1254" /><g
           id="g1256"><text
             transform="matrix(1,0,0,-1,381.6,225.4)"
             style="font-variant:normal;font-weight:normal;font-size:6px;font-family:'DejaVu Sans Mono';-inkscape-font-specification:DejaVuSansMono;writing-mode:lr-tb;fill:#000000;fill-opacity:1;fill-rule:nonzero;stroke:none"
             id="text1260"><tspan
               x="0 3.5999999 7.1999998 10.8 14.4 18 21.6 25.200001 28.799999 32.400002 36 39.599998 43.200001 46.799999 50.400002 54 57.599998 61.200001 64.800003 68.400002 72 75.599998 79.199997 82.800003 86.400002 90 93.599998"
               y="0"
               sodipodi:role="line"
               id="tspan1258">[1] &amp; 1 ^ 1), q[1] &amp; 1 ? (q</tspan></text>
</g><g
           id="g1262" /><g
           id="g1264"><text
             transform="matrix(1,0,0,-1,392.4,218.2)"
             style="font-variant:normal;font-weight:normal;font-size:6px;font-family:'DejaVu Sans Mono';-inkscape-font-specification:DejaVuSansMono;writing-mode:lr-tb;fill:#000000;fill-opacity:1;fill-rule:nonzero;stroke:none"
             id="text1268"><tspan
               x="0 3.5999999 7.1999998 10.8 14.4 18 21.6 25.200001 28.799999 32.400002 39.599998 43.200001 46.799999 50.400002 54 57.599998 61.200001 64.800003 68.400002 72 75.599998 79.199997 82.800003"
               y="0"
               sodipodi:role="line"
               id="tspan1266">[0]+=1+1, q[1]^=1, main</tspan></text>
</g><g
           id="g1270" /><g
           id="g1272"><text
             transform="matrix(1,0,0,-1,392.4,211)"
             style="font-variant:normal;font-weight:normal;font-size:6px;font-family:'DejaVu Sans Mono';-inkscape-font-specification:DejaVuSansMono;writing-mode:lr-tb;fill:#000000;fill-opacity:1;fill-rule:nonzero;stroke:none"
             id="text1276"><tspan
               x="0 3.5999999 7.1999998 10.8 14.4 18 21.6 25.200001 28.799999 32.400002 36 39.599998 43.200001 46.799999 50.400002 54 57.599998 61.200001 64.800003 68.400002 72 75.599998 79.199997 82.800003"
               y="0"
               sodipodi:role="line"
               id="tspan1274">(2, e), q[1]^=1, q[0]-=1</tspan></text>
</g><g
           id="g1278" /><g
           id="g1280"><text
             transform="matrix(1,0,0,-1,392.4,203.8)"
             style="font-variant:normal;font-weight:normal;font-size:6px;font-family:'DejaVu Sans Mono';-inkscape-font-specification:DejaVuSansMono;writing-mode:lr-tb;fill:#000000;fill-opacity:1;fill-rule:nonzero;stroke:none"
             id="text1284"><tspan
               x="0 3.5999999 7.1999998 10.8 14.4 18 21.6 25.200001 28.799999 32.400002 36 39.599998 43.200001 46.799999 50.400002 54 57.599998 61.200001 64.800003 68.400002 72 75.599998 79.199997 82.800003"
               y="0"
               sodipodi:role="line"
               id="tspan1282">+1) : 0, w[q[0] - x] = q</tspan></text>
</g><g
           id="g1286" /><g
           id="g1288"><text
             transform="matrix(1,0,0,-1,388.8,196.6)"
             style="font-variant:normal;font-weight:normal;font-size:6px;font-family:'DejaVu Sans Mono';-inkscape-font-specification:DejaVuSansMono;writing-mode:lr-tb;fill:#000000;fill-opacity:1;fill-rule:nonzero;stroke:none"
             id="text1292"><tspan
               x="0 3.5999999 7.1999998 10.8 14.4 18 21.6 25.200001 28.799999 32.400002 36 39.599998 43.200001 46.799999 50.400002 54 57.599998 61.200001 64.800003 68.400002 72 75.599998 79.199997 82.800003"
               y="0"
               sodipodi:role="line"
               id="tspan1290">[1], puts(w), q[1] &amp; 1 ?</tspan></text>
</g><g
           id="g1294" /><g
           id="g1296"><text
             transform="matrix(1,0,0,-1,381.6,189.4)"
             style="font-variant:normal;font-weight:normal;font-size:6px;font-family:'DejaVu Sans Mono';-inkscape-font-specification:DejaVuSansMono;writing-mode:lr-tb;fill:#000000;fill-opacity:1;fill-rule:nonzero;stroke:none"
             id="text1300"><tspan
               x="0 3.5999999 7.1999998 10.8 14.4 18 21.6 25.200001 28.799999 32.400002 36 39.599998 43.200001 46.799999 50.400002 54 57.599998 61.200001 64.800003 68.400002 72 75.599998 79.199997 82.800003"
               y="0"
               sodipodi:role="line"
               id="tspan1298">0 : (q[0]+=1+1, q[1]^=1,</tspan></text>
</g><g
           id="g1302" /><g
           id="g1304"><text
             transform="matrix(1,0,0,-1,374.4,182.2)"
             style="font-variant:normal;font-weight:normal;font-size:6px;font-family:'DejaVu Sans Mono';-inkscape-font-specification:DejaVuSansMono;writing-mode:lr-tb;fill:#000000;fill-opacity:1;fill-rule:nonzero;stroke:none"
             id="text1308"><tspan
               x="0 3.5999999 7.1999998 10.8 14.4 18 21.6 25.200001 28.799999 32.400002 36 39.599998 43.200001 46.799999 50.400002 54 57.599998 61.200001 64.800003 68.400002 72 75.599998 79.199997"
               y="0"
               sodipodi:role="line"
               id="tspan1306">main (2, e), q[1]^=1, q</tspan></text>
</g><g
           id="g1310" /><g
           id="g1312"><text
             transform="matrix(1,0,0,-1,367.2,175)"
             style="font-variant:normal;font-weight:normal;font-size:6px;font-family:'DejaVu Sans Mono';-inkscape-font-specification:DejaVuSansMono;writing-mode:lr-tb;fill:#000000;fill-opacity:1;fill-rule:nonzero;stroke:none"
             id="text1316"><tspan
               x="0 3.5999999 7.1999998 10.8 14.4 18 21.6 25.200001 28.799999 32.400002 36 39.599998 43.200001 46.799999 50.400002 54 57.599998 61.200001 64.800003 68.400002 72 75.599998"
               y="0"
               sodipodi:role="line"
               id="tspan1314">[0]-=1+1), q[0] += 1 +</tspan></text>
</g><g
           id="g1318" /><g
           id="g1320"><text
             transform="matrix(1,0,0,-1,356.4,167.8)"
             style="font-variant:normal;font-weight:normal;font-size:6px;font-family:'DejaVu Sans Mono';-inkscape-font-specification:DejaVuSansMono;writing-mode:lr-tb;fill:#000000;fill-opacity:1;fill-rule:nonzero;stroke:none"
             id="text1324"><tspan
               x="0 3.5999999 7.1999998 10.8 14.4 18 21.6 25.200001 28.799999 32.400002 36 39.599998 43.200001 46.799999 50.400002 54 57.599998 61.200001 64.800003 68.400002"
               y="0"
               sodipodi:role="line"
               id="tspan1322">(q[1] &amp; 1),main(2,e)</tspan></text>
</g><g
           id="g1326" /><g
           id="g1328"><text
             transform="matrix(1,0,0,-1,342,160.6)"
             style="font-variant:normal;font-weight:normal;font-size:6px;font-family:'DejaVu Sans Mono';-inkscape-font-specification:DejaVuSansMono;writing-mode:lr-tb;fill:#000000;fill-opacity:1;fill-rule:nonzero;stroke:none"
             id="text1332"><tspan
               x="0 3.5999999 7.1999998 10.8 14.4 18 21.6 25.200001 28.799999 32.400002 36 39.599998 43.200001 46.799999 50.400002 54 57.599998 61.200001 64.800003"
               y="0"
               sodipodi:role="line"
               id="tspan1330">, q[0] -= 1 + (q[1]</tspan></text>
</g><g
           id="g1334" /><g
           id="g1336"><text
             transform="matrix(1,0,0,-1,338.4,153.4)"
             style="font-variant:normal;font-weight:normal;font-size:6px;font-family:'DejaVu Sans Mono';-inkscape-font-specification:DejaVuSansMono;writing-mode:lr-tb;fill:#000000;fill-opacity:1;fill-rule:nonzero;stroke:none"
             id="text1340"><tspan
               x="0 3.5999999 7.1999998 10.8 14.4 18 21.6 25.200001 28.799999 32.400002 36 39.599998 43.200001 46.799999"
               y="0"
               sodipodi:role="line"
               id="tspan1338">&amp; 1) ) ), r; }</tspan></text>
</g></g></g></g></svg>