<?xml version="1.0" encoding="UTF-8" standalone="no"?>
<svg
   xmlns:dc="http://purl.org/dc/elements/1.1/"
   xmlns:cc="http://creativecommons.org/ns#"
   xmlns:rdf="http://www.w3.org/1999/02/22-rdf-syntax-ns#"
   xmlns:svg="http://www.w3.org/2000/svg"
   xmlns="http://www.w3.org/2000/svg"
   xmlns:sodipodi="http://sodipodi.sourceforge.net/DTD/sodipodi-0.dtd"
   xmlns:inkscape="http://www.inkscape.org/namespaces/inkscape"
   viewBox="0 0 15.070814 50.429268"
   height="50.429268"
   width="15.070815"
   xml:space="preserve"
   id="svg2"
   version="1.1"
   sodipodi:docname="blue_arrow.svg"
   inkscape:version="0.92.2 (5c3e80d, 2017-08-06)"><sodipodi:namedview
     pagecolor="#ffffff"
     bordercolor="#666666"
     borderopacity="1"
     objecttolerance="10"
     gridtolerance="10"
     guidetolerance="10"
     inkscape:pageopacity="0"
     inkscape:pageshadow="2"
     inkscape:window-width="1920"
     inkscape:window-height="981"
     id="namedview1517"
     showgrid="false"
     fit-margin-top="0"
     fit-margin-left="0"
     fit-margin-right="0"
     fit-margin-bottom="0"
     inkscape:zoom="0.84139767"
     inkscape:cx="262.25903"
     inkscape:cy="67.196448"
     inkscape:window-x="0"
     inkscape:window-y="28"
     inkscape:window-maximized="1"
     inkscape:current-layer="g14" /><metadata
     id="metadata8"><rdf:RDF><cc:Work
         rdf:about=""><dc:format>image/svg+xml</dc:format><dc:type
           rdf:resource="http://purl.org/dc/dcmitype/StillImage" /><dc:title></dc:title></cc:Work></rdf:RDF></metadata><defs
     id="defs6"><clipPath
       id="clipPath18"
       clipPathUnits="userSpaceOnUse"><path
         style="clip-rule:evenodd"
         id="path16"
         d="M 0,-0.2 H 793.6 V 595 H 0 Z"
         inkscape:connector-curvature="0" /></clipPath></defs><g
     transform="matrix(1.3333333,0,0,-1.3333333,-273.79751,379.89949)"
     id="g10"><g
       id="g12"><g
         clip-path="url(#clipPath18)"
         id="g14"><g
           id="g22" /><g
           id="g24" /><g
           id="g26"><path
             id="path28"
             style="fill:none;stroke:#0070c0;stroke-width:1.49989998;stroke-linecap:butt;stroke-linejoin:round;stroke-miterlimit:10;stroke-dasharray:none;stroke-opacity:1"
             d="m 206.5,284.2 c 4.5,-1.2 9.1,-2.4 9,-3.6 -0.1,-1.2 -9.1,-2.5 -9.4,-3.6 -0.2,-1.1 7.6,-1.9 7.8,-3.1 0.1,-1.1 -7.2,-2.3 -7,-3.6 0.2,-1.2 8.3,-2.7 8.2,-3.9 -0.1,-1.2 -8.7,-2.1 -8.6,-3.3 0.1,-1.3 9.4,-2.8 9.4,-4.3 0.1,-1.4 -8.6,-3.1 -9,-4.5 -0.4,-1.4 5.9,-1.9 6.6,-3.9 0.7,-2 0.1,-2 -0.2,-3.1"
             inkscape:connector-curvature="0" /></g><path
           id="path30"
           style="fill:#0070c0;fill-opacity:1;fill-rule:evenodd;stroke:none"
           d="m 211,242.2 -0.3,6.6 5.4,-2.3 z"
           inkscape:connector-curvature="0" /></g></g></g></svg>