<?xml version="1.0" encoding="UTF-8" standalone="no"?>
<svg
   xmlns:dc="http://purl.org/dc/elements/1.1/"
   xmlns:cc="http://creativecommons.org/ns#"
   xmlns:rdf="http://www.w3.org/1999/02/22-rdf-syntax-ns#"
   xmlns:svg="http://www.w3.org/2000/svg"
   xmlns="http://www.w3.org/2000/svg"
   xmlns:sodipodi="http://sodipodi.sourceforge.net/DTD/sodipodi-0.dtd"
   xmlns:inkscape="http://www.inkscape.org/namespaces/inkscape"
   viewBox="0 0 985.80441 175.84571"
   height="175.8457"
   width="985.8045"
   xml:space="preserve"
   id="svg2"
   version="1.1"
   sodipodi:docname="comm_patt1.svg"
   inkscape:version="0.92.2 (5c3e80d, 2017-08-06)"><sodipodi:namedview
     pagecolor="#ffffff"
     bordercolor="#666666"
     borderopacity="1"
     objecttolerance="10"
     gridtolerance="10"
     guidetolerance="10"
     inkscape:pageopacity="0"
     inkscape:pageshadow="2"
     inkscape:window-width="1920"
     inkscape:window-height="1055"
     id="namedview217"
     showgrid="false"
     fit-margin-top="0"
     fit-margin-left="0"
     fit-margin-right="0"
     fit-margin-bottom="0"
     inkscape:zoom="0.58942061"
     inkscape:cx="783.97568"
     inkscape:cy="61.771498"
     inkscape:window-x="3840"
     inkscape:window-y="0"
     inkscape:window-maximized="1"
     inkscape:current-layer="g14" /><metadata
     id="metadata8"><rdf:RDF><cc:Work
         rdf:about=""><dc:format>image/svg+xml</dc:format><dc:type
           rdf:resource="http://purl.org/dc/dcmitype/StillImage" /><dc:title /></cc:Work></rdf:RDF></metadata><defs
     id="defs6"><clipPath
       id="clipPath18"
       clipPathUnits="userSpaceOnUse"><path
         style="clip-rule:evenodd"
         id="path16"
         d="M 0,-0.4 H 793.6 V 446 H 0 Z"
         inkscape:connector-curvature="0" /></clipPath><clipPath
       id="clipPath80"
       clipPathUnits="userSpaceOnUse"><path
         id="path78"
         d="m 126.4,301.7 h 91.7 v 6.2 h -91.7 z"
         inkscape:connector-curvature="0" /></clipPath><clipPath
       id="clipPath104"
       clipPathUnits="userSpaceOnUse"><path
         id="path102"
         d="m 127.4,284.7 h 86.1 v 6.2 h -86.1 z"
         inkscape:connector-curvature="0" /></clipPath><clipPath
       id="clipPath148"
       clipPathUnits="userSpaceOnUse"><path
         id="path146"
         d="M 320.3,302.5 H 412 v 6.2 h -91.7 z"
         inkscape:connector-curvature="0" /></clipPath><clipPath
       id="clipPath172"
       clipPathUnits="userSpaceOnUse"><path
         id="path170"
         d="m 321.3,285.5 h 86.1 v 6.2 h -86.1 z"
         inkscape:connector-curvature="0" /></clipPath><clipPath
       id="clipPath216"
       clipPathUnits="userSpaceOnUse"><path
         id="path214"
         d="m 507.4,302.5 h 91.8 v 6.2 h -91.8 z"
         inkscape:connector-curvature="0" /></clipPath><clipPath
       id="clipPath240"
       clipPathUnits="userSpaceOnUse"><path
         id="path238"
         d="m 508.4,285.5 h 86.1 v 6.2 h -86.1 z"
         inkscape:connector-curvature="0" /></clipPath><clipPath
       id="clipPath344"
       clipPathUnits="userSpaceOnUse"><path
         id="path342"
         d="M 91.5,141.6 H 650.7 V 165 H 91.5 Z"
         inkscape:connector-curvature="0" /></clipPath><clipPath
       id="clipPath368"
       clipPathUnits="userSpaceOnUse"><path
         id="path366"
         d="M 143.4,180.3 H 221 v 6.2 h -77.6 z"
         inkscape:connector-curvature="0" /></clipPath><clipPath
       id="clipPath392"
       clipPathUnits="userSpaceOnUse"><path
         id="path390"
         d="m 316.7,180.3 h 95.1 v 6.2 h -95.1 z"
         inkscape:connector-curvature="0" /></clipPath><clipPath
       id="clipPath416"
       clipPathUnits="userSpaceOnUse"><path
         id="path414"
         d="M 509.6,180.2 H 601 v 6.2 h -91.4 z"
         inkscape:connector-curvature="0" /></clipPath></defs><g
     transform="matrix(1.3333333,0,0,-1.3333333,-58.228745,529.89599)"
     id="g10"><g
       id="g12"><g
         clip-path="url(#clipPath18)"
         id="g14"><g
           id="g1081"
           transform="translate(-172.73319,15.587341)"><path
             inkscape:connector-curvature="0"
             d="m 216.9,310.4 v 0 0.3 0.4 l 0.1,0.3 v 0.3 l 0.1,0.4 0.1,0.3 0.1,0.3 0.1,0.3 0.2,0.3 0.2,0.3 0.1,0.3 0.2,0.3 0.2,0.2 0.3,0.3 0.2,0.3 0.2,0.2 0.3,0.2 0.2,0.2 0.3,0.2 0.3,0.2 0.3,0.1 0.3,0.2 0.3,0.1 0.4,0.1 0.3,0.1 0.3,0.1 0.3,0.1 h 0.4 l 0.3,0.1 h 0.3 86.8 v 0 h 0.3 l 0.3,-0.1 h 0.4 l 0.3,-0.1 0.3,-0.1 0.3,-0.1 0.4,-0.1 0.3,-0.1 0.3,-0.2 0.3,-0.1 0.3,-0.2 0.3,-0.2 0.2,-0.2 0.3,-0.2 0.2,-0.2 0.2,-0.3 0.3,-0.3 0.2,-0.2 0.2,-0.3 0.1,-0.3 0.2,-0.3 0.1,-0.3 0.2,-0.3 0.1,-0.3 0.1,-0.3 0.1,-0.4 v -0.3 l 0.1,-0.3 v -0.4 -0.3 -25.9 0 -0.4 -0.3 l -0.1,-0.3 v -0.4 l -0.1,-0.3 -0.1,-0.3 -0.1,-0.3 -0.2,-0.3 -0.1,-0.3 -0.1,-0.3 -0.2,-0.3 -0.2,-0.3 -0.2,-0.3 -0.2,-0.2 -0.3,-0.3 -0.2,-0.2 -0.3,-0.2 -0.2,-0.2 -0.3,-0.2 -0.3,-0.2 -0.3,-0.2 -0.3,-0.1 -0.3,-0.2 -0.3,-0.1 -0.3,-0.1 h -0.4 l -0.3,-0.1 -0.3,-0.1 h -0.4 -0.3 -86.8 v 0 h -0.3 -0.3 l -0.4,0.1 -0.3,0.1 h -0.3 l -0.3,0.1 -0.4,0.1 -0.3,0.2 -0.3,0.1 -0.3,0.2 -0.3,0.2 -0.3,0.1 -0.2,0.3 -0.3,0.2 -0.2,0.2 -0.2,0.2 -0.3,0.3 -0.2,0.3 -0.2,0.2 -0.1,0.3 -0.2,0.3 -0.2,0.3 -0.1,0.4 -0.1,0.3 -0.1,0.3 -0.1,0.3 v 0.3 l -0.1,0.4 v 0.3 0.4 z m 0,6.5 z M 316.5,278 Z"
             style="fill:#f2f2f2;fill-opacity:1;fill-rule:evenodd;stroke:none"
             id="path42" /><g
             id="g44"><path
               inkscape:connector-curvature="0"
               d="m 216.9,310.4 v 0 0.3 0.4 l 0.1,0.3 v 0.3 l 0.1,0.4 0.1,0.3 0.1,0.3 0.1,0.3 0.2,0.3 0.2,0.3 0.1,0.3 0.2,0.3 0.2,0.2 0.3,0.3 0.2,0.3 0.2,0.2 0.3,0.2 0.2,0.2 0.3,0.2 0.3,0.2 0.3,0.1 0.3,0.2 0.3,0.1 0.4,0.1 0.3,0.1 0.3,0.1 0.3,0.1 h 0.4 l 0.3,0.1 h 0.3 86.8 v 0 h 0.3 l 0.3,-0.1 h 0.4 l 0.3,-0.1 0.3,-0.1 0.3,-0.1 0.4,-0.1 0.3,-0.1 0.3,-0.2 0.3,-0.1 0.3,-0.2 0.3,-0.2 0.2,-0.2 0.3,-0.2 0.2,-0.2 0.2,-0.3 0.3,-0.3 0.2,-0.2 0.2,-0.3 0.1,-0.3 0.2,-0.3 0.1,-0.3 0.2,-0.3 0.1,-0.3 0.1,-0.3 0.1,-0.4 v -0.3 l 0.1,-0.3 v -0.4 -0.3 -25.9 0 -0.4 -0.3 l -0.1,-0.3 v -0.4 l -0.1,-0.3 -0.1,-0.3 -0.1,-0.3 -0.2,-0.3 -0.1,-0.3 -0.1,-0.3 -0.2,-0.3 -0.2,-0.3 -0.2,-0.3 -0.2,-0.2 -0.3,-0.3 -0.2,-0.2 -0.3,-0.2 -0.2,-0.2 -0.3,-0.2 -0.3,-0.2 -0.3,-0.2 -0.3,-0.1 -0.3,-0.2 -0.3,-0.1 -0.3,-0.1 h -0.4 l -0.3,-0.1 -0.3,-0.1 h -0.4 -0.3 -86.8 v 0 h -0.3 -0.3 l -0.4,0.1 -0.3,0.1 h -0.3 l -0.3,0.1 -0.4,0.1 -0.3,0.2 -0.3,0.1 -0.3,0.2 -0.3,0.2 -0.3,0.1 -0.2,0.3 -0.3,0.2 -0.2,0.2 -0.2,0.2 -0.3,0.3 -0.2,0.3 -0.2,0.2 -0.1,0.3 -0.2,0.3 -0.2,0.3 -0.1,0.4 -0.1,0.3 -0.1,0.3 -0.1,0.3 v 0.3 l -0.1,0.4 v 0.3 0.4 z"
               style="fill:none;stroke:#000000;stroke-width:0.99049997;stroke-linecap:butt;stroke-linejoin:round;stroke-miterlimit:10;stroke-dasharray:none;stroke-opacity:1"
               id="path46" /></g><g
             id="g52"><path
               inkscape:connector-curvature="0"
               d="M 316.5,278 Z"
               style="fill:none;stroke:#000000;stroke-width:0.99049997;stroke-linecap:butt;stroke-linejoin:round;stroke-miterlimit:10;stroke-dasharray:none;stroke-opacity:1"
               id="path54" /></g><g
             id="g56"><text
               transform="matrix(1,0,0,-1,232.4,290.2)"
               style="font-variant:normal;font-weight:normal;font-size:18px;font-family:Carlito;-inkscape-font-specification:Carlito;writing-mode:lr-tb;fill:#000000;fill-opacity:1;fill-rule:nonzero;stroke:none"
               id="text60"><tspan
                 x="0 9.2880001 15.282 24.768 32.273998 41.256001 48.330002 55.403999 59.490002"
                 y="0"
                 id="tspan58">Process 1</tspan></text>
</g></g><text
           transform="scale(1,-1)"
           style="font-style:normal;font-variant:normal;font-weight:normal;font-stretch:normal;font-size:18px;font-family:Carlito;-inkscape-font-specification:'Carlito, Normal';font-variant-ligatures:normal;font-variant-caps:normal;font-variant-numeric:normal;font-feature-settings:normal;text-align:start;writing-mode:lr-tb;text-anchor:start;fill:#000000;fill-opacity:1;fill-rule:nonzero;stroke:none"
           id="text66"
           x="381.78693"
           y="-345.01764"><tspan
             sodipodi:role="line"
             id="tspan1199"
             x="381.78693"
             y="-345.01764">Compute</tspan></text>
<text
           transform="scale(1,-1)"
           style="font-style:normal;font-variant:normal;font-weight:normal;font-stretch:normal;font-size:18px;font-family:Carlito;-inkscape-font-specification:'Carlito, Normal';font-variant-ligatures:normal;font-variant-caps:normal;font-variant-numeric:normal;font-feature-settings:normal;text-align:start;writing-mode:lr-tb;text-anchor:start;fill:#000000;fill-opacity:1;fill-rule:nonzero;stroke:none"
           id="text72"
           x="110.71235"
           y="-381.46121"><tspan
             sodipodi:role="line"
             id="tspan986"
             x="110.71235"
             y="-381.46121">Main</tspan></text>
<g
           id="g1071"
           transform="translate(137.92206,80.154106)"><path
             inkscape:connector-curvature="0"
             d="m 25.5,310.4 v 0 0.3 0.4 l 0.1,0.3 0.1,0.3 v 0.4 l 0.1,0.3 0.1,0.3 0.2,0.3 0.1,0.3 0.2,0.3 0.2,0.3 0.2,0.3 0.2,0.2 0.2,0.3 0.2,0.3 0.2,0.2 0.3,0.2 0.3,0.2 0.3,0.2 0.2,0.2 0.3,0.1 0.3,0.2 0.4,0.1 0.3,0.1 0.3,0.1 0.3,0.1 0.4,0.1 h 0.3 l 0.3,0.1 h 0.4 86.7 v 0 h 0.3 l 0.4,-0.1 h 0.3 l 0.3,-0.1 0.4,-0.1 0.3,-0.1 0.3,-0.1 0.3,-0.1 0.3,-0.2 0.3,-0.1 0.3,-0.2 0.3,-0.2 0.2,-0.2 0.3,-0.2 0.3,-0.2 0.2,-0.3 0.2,-0.3 0.2,-0.2 0.2,-0.3 0.2,-0.3 0.1,-0.3 0.2,-0.3 0.1,-0.3 0.1,-0.3 0.1,-0.3 0.1,-0.4 0.1,-0.3 v -0.3 -0.4 -0.3 l 0.1,-25.9 h -0.1 v -0.4 -0.3 -0.3 l -0.1,-0.4 -0.1,-0.3 -0.1,-0.3 -0.1,-0.3 -0.1,-0.3 -0.2,-0.3 -0.1,-0.3 -0.2,-0.3 -0.2,-0.3 -0.2,-0.3 -0.2,-0.2 -0.2,-0.3 -0.3,-0.2 -0.2,-0.2 -0.3,-0.2 -0.3,-0.2 -0.3,-0.2 -0.3,-0.2 -0.3,-0.1 -0.3,-0.2 -0.3,-0.1 -0.3,-0.1 H 120 l -0.3,-0.1 -0.3,-0.1 H 119.1 118.7 32 v 0 h -0.4 -0.3 l -0.3,0.1 -0.4,0.1 h -0.3 l -0.3,0.1 -0.3,0.1 -0.3,0.2 -0.3,0.1 -0.4,0.2 -0.2,0.2 -0.3,0.1 -0.3,0.3 -0.2,0.2 -0.3,0.2 -0.2,0.2 -0.2,0.3 -0.2,0.3 -0.2,0.2 -0.2,0.3 -0.2,0.3 -0.1,0.3 -0.2,0.4 -0.1,0.3 -0.1,0.3 v 0.3 l -0.1,0.3 -0.1,0.4 v 0.3 0.4 z m 0,6.5 z M 125.2,278 Z"
             style="fill:#f2f2f2;fill-opacity:1;fill-rule:evenodd;stroke:none"
             id="path22" /><g
             id="g24"><path
               inkscape:connector-curvature="0"
               d="m 25.5,310.4 v 0 0.3 0.4 l 0.1,0.3 0.1,0.3 v 0.4 l 0.1,0.3 0.1,0.3 0.2,0.3 0.1,0.3 0.2,0.3 0.2,0.3 0.2,0.3 0.2,0.2 0.2,0.3 0.2,0.3 0.2,0.2 0.3,0.2 0.3,0.2 0.3,0.2 0.2,0.2 0.3,0.1 0.3,0.2 0.4,0.1 0.3,0.1 0.3,0.1 0.3,0.1 0.4,0.1 h 0.3 l 0.3,0.1 h 0.4 86.7 v 0 h 0.3 l 0.4,-0.1 h 0.3 l 0.3,-0.1 0.4,-0.1 0.3,-0.1 0.3,-0.1 0.3,-0.1 0.3,-0.2 0.3,-0.1 0.3,-0.2 0.3,-0.2 0.2,-0.2 0.3,-0.2 0.3,-0.2 0.2,-0.3 0.2,-0.3 0.2,-0.2 0.2,-0.3 0.2,-0.3 0.1,-0.3 0.2,-0.3 0.1,-0.3 0.1,-0.3 0.1,-0.3 0.1,-0.4 0.1,-0.3 v -0.3 -0.4 -0.3 l 0.1,-25.9 h -0.1 v -0.4 -0.3 -0.3 l -0.1,-0.4 -0.1,-0.3 -0.1,-0.3 -0.1,-0.3 -0.1,-0.3 -0.2,-0.3 -0.1,-0.3 -0.2,-0.3 -0.2,-0.3 -0.2,-0.3 -0.2,-0.2 -0.2,-0.3 -0.3,-0.2 -0.2,-0.2 -0.3,-0.2 -0.3,-0.2 -0.3,-0.2 -0.3,-0.2 -0.3,-0.1 -0.3,-0.2 -0.3,-0.1 -0.3,-0.1 H 120 l -0.3,-0.1 -0.3,-0.1 H 119.1 118.7 32 v 0 h -0.4 -0.3 l -0.3,0.1 -0.4,0.1 h -0.3 l -0.3,0.1 -0.3,0.1 -0.3,0.2 -0.3,0.1 -0.4,0.2 -0.2,0.2 -0.3,0.1 -0.3,0.3 -0.2,0.2 -0.3,0.2 -0.2,0.2 -0.2,0.3 -0.2,0.3 -0.2,0.2 -0.2,0.3 -0.2,0.3 -0.1,0.3 -0.2,0.4 -0.1,0.3 -0.1,0.3 v 0.3 l -0.1,0.3 -0.1,0.4 v 0.3 0.4 z"
               style="fill:none;stroke:#000000;stroke-width:0.73580003;stroke-linecap:butt;stroke-linejoin:round;stroke-miterlimit:10;stroke-dasharray:none;stroke-opacity:1"
               id="path26" /></g><g
             id="g28"><path
               inkscape:connector-curvature="0"
               d="M 25.5,316.9 Z"
               style="fill:none;stroke:#000000;stroke-width:0.73580003;stroke-linecap:butt;stroke-linejoin:round;stroke-miterlimit:10;stroke-dasharray:none;stroke-opacity:1"
               id="path30" /></g><g
             id="g32"><path
               inkscape:connector-curvature="0"
               d="M 125.2,278 Z"
               style="fill:none;stroke:#000000;stroke-width:0.73580003;stroke-linecap:butt;stroke-linejoin:round;stroke-miterlimit:10;stroke-dasharray:none;stroke-opacity:1"
               id="path34" /></g><g
             id="g36"><text
               transform="matrix(1,0,0,-1,41.1,290.2)"
               style="font-variant:normal;font-weight:normal;font-size:18px;font-family:Carlito;-inkscape-font-specification:Carlito;writing-mode:lr-tb;fill:#000000;fill-opacity:1;fill-rule:nonzero;stroke:none"
               id="text40"><tspan
                 x="0 9.198 15.192 24.677999 32.273998 41.166 48.240002 55.313999 59.400002"
                 y="0"
                 id="tspan38">Process 0</tspan></text>
</g></g><g
           id="g1129"
           transform="matrix(0.63600977,0.26469705,-0.23121165,0.72812037,17.889914,96.620313)"><g
             transform="translate(-92.88783,-42.944716)"
             id="g166"><g
               id="g168" /><g
               id="g182"><g
                 clip-path="url(#clipPath172)"
                 id="g180"
                 style="opacity:0.38999999"><g
                   id="g176"><path
                     inkscape:connector-curvature="0"
                     d="M 406.3,288.6 H 326.9"
                     style="fill:none;stroke:#000000;stroke-width:2.00929999;stroke-linecap:butt;stroke-linejoin:round;stroke-miterlimit:10;stroke-dasharray:none;stroke-opacity:1"
                     id="path174" /></g><path
                   inkscape:connector-curvature="0"
                   d="m 321.3,288.6 6,3 v -6.1 z"
                   style="fill:#000000;fill-opacity:1;fill-rule:evenodd;stroke:none"
                   id="path178" /></g></g></g><g
             transform="translate(-92.88783,-42.944716)"
             id="g184"><path
               inkscape:connector-curvature="0"
               d="M 406.3,290.2 H 326.9"
               style="fill:none;stroke:#525e66;stroke-width:2.00929999;stroke-linecap:butt;stroke-linejoin:round;stroke-miterlimit:10;stroke-dasharray:none;stroke-opacity:1"
               id="path186" /></g><path
             inkscape:connector-curvature="0"
             d="m 228.41217,247.25528 6,3 v -6.1 z"
             style="fill:#525e66;fill-opacity:1;fill-rule:evenodd;stroke:none"
             id="path188" /></g><g
           transform="translate(-54.714744,15.587341)"
           id="g1099"><path
             id="path1083"
             style="fill:#f2f2f2;fill-opacity:1;fill-rule:evenodd;stroke:none"
             d="m 216.9,310.4 v 0 0.3 0.4 l 0.1,0.3 v 0.3 l 0.1,0.4 0.1,0.3 0.1,0.3 0.1,0.3 0.2,0.3 0.2,0.3 0.1,0.3 0.2,0.3 0.2,0.2 0.3,0.3 0.2,0.3 0.2,0.2 0.3,0.2 0.2,0.2 0.3,0.2 0.3,0.2 0.3,0.1 0.3,0.2 0.3,0.1 0.4,0.1 0.3,0.1 0.3,0.1 0.3,0.1 h 0.4 l 0.3,0.1 h 0.3 86.8 v 0 h 0.3 l 0.3,-0.1 h 0.4 l 0.3,-0.1 0.3,-0.1 0.3,-0.1 0.4,-0.1 0.3,-0.1 0.3,-0.2 0.3,-0.1 0.3,-0.2 0.3,-0.2 0.2,-0.2 0.3,-0.2 0.2,-0.2 0.2,-0.3 0.3,-0.3 0.2,-0.2 0.2,-0.3 0.1,-0.3 0.2,-0.3 0.1,-0.3 0.2,-0.3 0.1,-0.3 0.1,-0.3 0.1,-0.4 v -0.3 l 0.1,-0.3 v -0.4 -0.3 -25.9 0 -0.4 -0.3 l -0.1,-0.3 v -0.4 l -0.1,-0.3 -0.1,-0.3 -0.1,-0.3 -0.2,-0.3 -0.1,-0.3 -0.1,-0.3 -0.2,-0.3 -0.2,-0.3 -0.2,-0.3 -0.2,-0.2 -0.3,-0.3 -0.2,-0.2 -0.3,-0.2 -0.2,-0.2 -0.3,-0.2 -0.3,-0.2 -0.3,-0.2 -0.3,-0.1 -0.3,-0.2 -0.3,-0.1 -0.3,-0.1 h -0.4 l -0.3,-0.1 -0.3,-0.1 h -0.4 -0.3 -86.8 v 0 h -0.3 -0.3 l -0.4,0.1 -0.3,0.1 h -0.3 l -0.3,0.1 -0.4,0.1 -0.3,0.2 -0.3,0.1 -0.3,0.2 -0.3,0.2 -0.3,0.1 -0.2,0.3 -0.3,0.2 -0.2,0.2 -0.2,0.2 -0.3,0.3 -0.2,0.3 -0.2,0.2 -0.1,0.3 -0.2,0.3 -0.2,0.3 -0.1,0.4 -0.1,0.3 -0.1,0.3 -0.1,0.3 v 0.3 l -0.1,0.4 v 0.3 0.4 z m 0,6.5 z M 316.5,278 Z"
             inkscape:connector-curvature="0" /><g
             id="g1087"><path
               id="path1085"
               style="fill:none;stroke:#000000;stroke-width:0.99049997;stroke-linecap:butt;stroke-linejoin:round;stroke-miterlimit:10;stroke-dasharray:none;stroke-opacity:1"
               d="m 216.9,310.4 v 0 0.3 0.4 l 0.1,0.3 v 0.3 l 0.1,0.4 0.1,0.3 0.1,0.3 0.1,0.3 0.2,0.3 0.2,0.3 0.1,0.3 0.2,0.3 0.2,0.2 0.3,0.3 0.2,0.3 0.2,0.2 0.3,0.2 0.2,0.2 0.3,0.2 0.3,0.2 0.3,0.1 0.3,0.2 0.3,0.1 0.4,0.1 0.3,0.1 0.3,0.1 0.3,0.1 h 0.4 l 0.3,0.1 h 0.3 86.8 v 0 h 0.3 l 0.3,-0.1 h 0.4 l 0.3,-0.1 0.3,-0.1 0.3,-0.1 0.4,-0.1 0.3,-0.1 0.3,-0.2 0.3,-0.1 0.3,-0.2 0.3,-0.2 0.2,-0.2 0.3,-0.2 0.2,-0.2 0.2,-0.3 0.3,-0.3 0.2,-0.2 0.2,-0.3 0.1,-0.3 0.2,-0.3 0.1,-0.3 0.2,-0.3 0.1,-0.3 0.1,-0.3 0.1,-0.4 v -0.3 l 0.1,-0.3 v -0.4 -0.3 -25.9 0 -0.4 -0.3 l -0.1,-0.3 v -0.4 l -0.1,-0.3 -0.1,-0.3 -0.1,-0.3 -0.2,-0.3 -0.1,-0.3 -0.1,-0.3 -0.2,-0.3 -0.2,-0.3 -0.2,-0.3 -0.2,-0.2 -0.3,-0.3 -0.2,-0.2 -0.3,-0.2 -0.2,-0.2 -0.3,-0.2 -0.3,-0.2 -0.3,-0.2 -0.3,-0.1 -0.3,-0.2 -0.3,-0.1 -0.3,-0.1 h -0.4 l -0.3,-0.1 -0.3,-0.1 h -0.4 -0.3 -86.8 v 0 h -0.3 -0.3 l -0.4,0.1 -0.3,0.1 h -0.3 l -0.3,0.1 -0.4,0.1 -0.3,0.2 -0.3,0.1 -0.3,0.2 -0.3,0.2 -0.3,0.1 -0.2,0.3 -0.3,0.2 -0.2,0.2 -0.2,0.2 -0.3,0.3 -0.2,0.3 -0.2,0.2 -0.1,0.3 -0.2,0.3 -0.2,0.3 -0.1,0.4 -0.1,0.3 -0.1,0.3 -0.1,0.3 v 0.3 l -0.1,0.4 v 0.3 0.4 z"
               inkscape:connector-curvature="0" /></g><g
             id="g1091"><path
               id="path1089"
               style="fill:none;stroke:#000000;stroke-width:0.99049997;stroke-linecap:butt;stroke-linejoin:round;stroke-miterlimit:10;stroke-dasharray:none;stroke-opacity:1"
               d="M 316.5,278 Z"
               inkscape:connector-curvature="0" /></g><g
             id="g1097"><text
               id="text1095"
               style="font-variant:normal;font-weight:normal;font-size:18px;font-family:Carlito;-inkscape-font-specification:Carlito;writing-mode:lr-tb;fill:#000000;fill-opacity:1;fill-rule:nonzero;stroke:none"
               transform="matrix(1,0,0,-1,232.4,290.2)"><tspan
                 id="tspan1093"
                 y="0"
                 x="0 9.2880001 15.282 24.768 32.273998 41.256001 48.330002 55.403999 59.490002">Process 1</tspan></text>
</g></g><g
           id="g1117"
           transform="translate(63.303694,15.587341)"><path
             inkscape:connector-curvature="0"
             d="m 216.9,310.4 v 0 0.3 0.4 l 0.1,0.3 v 0.3 l 0.1,0.4 0.1,0.3 0.1,0.3 0.1,0.3 0.2,0.3 0.2,0.3 0.1,0.3 0.2,0.3 0.2,0.2 0.3,0.3 0.2,0.3 0.2,0.2 0.3,0.2 0.2,0.2 0.3,0.2 0.3,0.2 0.3,0.1 0.3,0.2 0.3,0.1 0.4,0.1 0.3,0.1 0.3,0.1 0.3,0.1 h 0.4 l 0.3,0.1 h 0.3 86.8 v 0 h 0.3 l 0.3,-0.1 h 0.4 l 0.3,-0.1 0.3,-0.1 0.3,-0.1 0.4,-0.1 0.3,-0.1 0.3,-0.2 0.3,-0.1 0.3,-0.2 0.3,-0.2 0.2,-0.2 0.3,-0.2 0.2,-0.2 0.2,-0.3 0.3,-0.3 0.2,-0.2 0.2,-0.3 0.1,-0.3 0.2,-0.3 0.1,-0.3 0.2,-0.3 0.1,-0.3 0.1,-0.3 0.1,-0.4 v -0.3 l 0.1,-0.3 v -0.4 -0.3 -25.9 0 -0.4 -0.3 l -0.1,-0.3 v -0.4 l -0.1,-0.3 -0.1,-0.3 -0.1,-0.3 -0.2,-0.3 -0.1,-0.3 -0.1,-0.3 -0.2,-0.3 -0.2,-0.3 -0.2,-0.3 -0.2,-0.2 -0.3,-0.3 -0.2,-0.2 -0.3,-0.2 -0.2,-0.2 -0.3,-0.2 -0.3,-0.2 -0.3,-0.2 -0.3,-0.1 -0.3,-0.2 -0.3,-0.1 -0.3,-0.1 h -0.4 l -0.3,-0.1 -0.3,-0.1 h -0.4 -0.3 -86.8 v 0 h -0.3 -0.3 l -0.4,0.1 -0.3,0.1 h -0.3 l -0.3,0.1 -0.4,0.1 -0.3,0.2 -0.3,0.1 -0.3,0.2 -0.3,0.2 -0.3,0.1 -0.2,0.3 -0.3,0.2 -0.2,0.2 -0.2,0.2 -0.3,0.3 -0.2,0.3 -0.2,0.2 -0.1,0.3 -0.2,0.3 -0.2,0.3 -0.1,0.4 -0.1,0.3 -0.1,0.3 -0.1,0.3 v 0.3 l -0.1,0.4 v 0.3 0.4 z m 0,6.5 z M 316.5,278 Z"
             style="fill:#f2f2f2;fill-opacity:1;fill-rule:evenodd;stroke:none"
             id="path1101" /><g
             id="g1105"><path
               inkscape:connector-curvature="0"
               d="m 216.9,310.4 v 0 0.3 0.4 l 0.1,0.3 v 0.3 l 0.1,0.4 0.1,0.3 0.1,0.3 0.1,0.3 0.2,0.3 0.2,0.3 0.1,0.3 0.2,0.3 0.2,0.2 0.3,0.3 0.2,0.3 0.2,0.2 0.3,0.2 0.2,0.2 0.3,0.2 0.3,0.2 0.3,0.1 0.3,0.2 0.3,0.1 0.4,0.1 0.3,0.1 0.3,0.1 0.3,0.1 h 0.4 l 0.3,0.1 h 0.3 86.8 v 0 h 0.3 l 0.3,-0.1 h 0.4 l 0.3,-0.1 0.3,-0.1 0.3,-0.1 0.4,-0.1 0.3,-0.1 0.3,-0.2 0.3,-0.1 0.3,-0.2 0.3,-0.2 0.2,-0.2 0.3,-0.2 0.2,-0.2 0.2,-0.3 0.3,-0.3 0.2,-0.2 0.2,-0.3 0.1,-0.3 0.2,-0.3 0.1,-0.3 0.2,-0.3 0.1,-0.3 0.1,-0.3 0.1,-0.4 v -0.3 l 0.1,-0.3 v -0.4 -0.3 -25.9 0 -0.4 -0.3 l -0.1,-0.3 v -0.4 l -0.1,-0.3 -0.1,-0.3 -0.1,-0.3 -0.2,-0.3 -0.1,-0.3 -0.1,-0.3 -0.2,-0.3 -0.2,-0.3 -0.2,-0.3 -0.2,-0.2 -0.3,-0.3 -0.2,-0.2 -0.3,-0.2 -0.2,-0.2 -0.3,-0.2 -0.3,-0.2 -0.3,-0.2 -0.3,-0.1 -0.3,-0.2 -0.3,-0.1 -0.3,-0.1 h -0.4 l -0.3,-0.1 -0.3,-0.1 h -0.4 -0.3 -86.8 v 0 h -0.3 -0.3 l -0.4,0.1 -0.3,0.1 h -0.3 l -0.3,0.1 -0.4,0.1 -0.3,0.2 -0.3,0.1 -0.3,0.2 -0.3,0.2 -0.3,0.1 -0.2,0.3 -0.3,0.2 -0.2,0.2 -0.2,0.2 -0.3,0.3 -0.2,0.3 -0.2,0.2 -0.1,0.3 -0.2,0.3 -0.2,0.3 -0.1,0.4 -0.1,0.3 -0.1,0.3 -0.1,0.3 v 0.3 l -0.1,0.4 v 0.3 0.4 z"
               style="fill:none;stroke:#000000;stroke-width:0.99049997;stroke-linecap:butt;stroke-linejoin:round;stroke-miterlimit:10;stroke-dasharray:none;stroke-opacity:1"
               id="path1103" /></g><g
             id="g1109"><path
               inkscape:connector-curvature="0"
               d="M 316.5,278 Z"
               style="fill:none;stroke:#000000;stroke-width:0.99049997;stroke-linecap:butt;stroke-linejoin:round;stroke-miterlimit:10;stroke-dasharray:none;stroke-opacity:1"
               id="path1107" /></g><g
             id="g1115"><text
               transform="matrix(1,0,0,-1,232.4,290.2)"
               style="font-variant:normal;font-weight:normal;font-size:18px;font-family:Carlito;-inkscape-font-specification:Carlito;writing-mode:lr-tb;fill:#000000;fill-opacity:1;fill-rule:nonzero;stroke:none"
               id="text1113"><tspan
                 x="0 9.2880001 15.282 24.768 32.273998 41.256001 48.330002 55.403999 59.490002"
                 y="0"
                 id="tspan1111">Process 1</tspan></text>
</g></g><g
           transform="matrix(2.9945437e-4,0.54877284,-0.76103191,0.05909537,397.1353,194.72055)"
           id="g1151"><g
             id="g1143"
             transform="translate(-92.88783,-42.944716)"><g
               id="g1131" /><g
               id="g1141"><g
                 style="opacity:0.38999999"
                 id="g1139"
                 clip-path="url(#clipPath172)"><g
                   id="g1135"><path
                     id="path1133"
                     style="fill:none;stroke:#000000;stroke-width:2.00929999;stroke-linecap:butt;stroke-linejoin:round;stroke-miterlimit:10;stroke-dasharray:none;stroke-opacity:1"
                     d="M 359.57203,288.58162 326.9,288.6"
                     inkscape:connector-curvature="0"
                     sodipodi:nodetypes="cc" /></g><path
                   id="path1137"
                   style="fill:#000000;fill-opacity:1;fill-rule:evenodd;stroke:none"
                   d="m 321.3,288.6 6,3 v -6.1 z"
                   inkscape:connector-curvature="0" /></g></g></g><g
             id="g1147"
             transform="translate(-92.88783,-42.944716)"><path
               id="path1145"
               style="fill:none;stroke:#525e66;stroke-width:2.00929999;stroke-linecap:butt;stroke-linejoin:round;stroke-miterlimit:10;stroke-dasharray:none;stroke-opacity:1"
               d="M 359.27614,290.18149 326.9,290.2"
               inkscape:connector-curvature="0"
               sodipodi:nodetypes="cc" /></g><path
             id="path1149"
             style="fill:#525e66;fill-opacity:1;fill-rule:evenodd;stroke:none"
             d="m 228.41217,247.25528 6,3 v -6.1 z"
             inkscape:connector-curvature="0" /></g><g
           transform="matrix(-0.63600977,0.26469705,0.23121165,0.72812037,408.13373,96.620313)"
           id="g1195"><g
             id="g1187"
             transform="translate(-92.88783,-42.944716)"><g
               id="g1175" /><g
               id="g1185"><g
                 style="opacity:0.38999999"
                 id="g1183"
                 clip-path="url(#clipPath172)"><g
                   id="g1179"><path
                     id="path1177"
                     style="fill:none;stroke:#000000;stroke-width:2.00929999;stroke-linecap:butt;stroke-linejoin:round;stroke-miterlimit:10;stroke-dasharray:none;stroke-opacity:1"
                     d="M 406.3,288.6 H 326.9"
                     inkscape:connector-curvature="0" /></g><path
                   id="path1181"
                   style="fill:#000000;fill-opacity:1;fill-rule:evenodd;stroke:none"
                   d="m 321.3,288.6 6,3 v -6.1 z"
                   inkscape:connector-curvature="0" /></g></g></g><g
             id="g1191"
             transform="translate(-92.88783,-42.944716)"><path
               id="path1189"
               style="fill:none;stroke:#525e66;stroke-width:2.00929999;stroke-linecap:butt;stroke-linejoin:round;stroke-miterlimit:10;stroke-dasharray:none;stroke-opacity:1"
               d="M 406.3,290.2 H 326.9"
               inkscape:connector-curvature="0" /></g><path
             id="path1193"
             style="fill:#525e66;fill-opacity:1;fill-rule:evenodd;stroke:none"
             d="m 228.41217,247.25528 6,3 v -6.1 z"
             inkscape:connector-curvature="0" /></g><g
           transform="translate(229.99281,15.587341)"
           id="g1217"><path
             id="path1201"
             style="fill:#f2f2f2;fill-opacity:1;fill-rule:evenodd;stroke:none"
             d="m 216.9,310.4 v 0 0.3 0.4 l 0.1,0.3 v 0.3 l 0.1,0.4 0.1,0.3 0.1,0.3 0.1,0.3 0.2,0.3 0.2,0.3 0.1,0.3 0.2,0.3 0.2,0.2 0.3,0.3 0.2,0.3 0.2,0.2 0.3,0.2 0.2,0.2 0.3,0.2 0.3,0.2 0.3,0.1 0.3,0.2 0.3,0.1 0.4,0.1 0.3,0.1 0.3,0.1 0.3,0.1 h 0.4 l 0.3,0.1 h 0.3 86.8 v 0 h 0.3 l 0.3,-0.1 h 0.4 l 0.3,-0.1 0.3,-0.1 0.3,-0.1 0.4,-0.1 0.3,-0.1 0.3,-0.2 0.3,-0.1 0.3,-0.2 0.3,-0.2 0.2,-0.2 0.3,-0.2 0.2,-0.2 0.2,-0.3 0.3,-0.3 0.2,-0.2 0.2,-0.3 0.1,-0.3 0.2,-0.3 0.1,-0.3 0.2,-0.3 0.1,-0.3 0.1,-0.3 0.1,-0.4 v -0.3 l 0.1,-0.3 v -0.4 -0.3 -25.9 0 -0.4 -0.3 l -0.1,-0.3 v -0.4 l -0.1,-0.3 -0.1,-0.3 -0.1,-0.3 -0.2,-0.3 -0.1,-0.3 -0.1,-0.3 -0.2,-0.3 -0.2,-0.3 -0.2,-0.3 -0.2,-0.2 -0.3,-0.3 -0.2,-0.2 -0.3,-0.2 -0.2,-0.2 -0.3,-0.2 -0.3,-0.2 -0.3,-0.2 -0.3,-0.1 -0.3,-0.2 -0.3,-0.1 -0.3,-0.1 h -0.4 l -0.3,-0.1 -0.3,-0.1 h -0.4 -0.3 -86.8 v 0 h -0.3 -0.3 l -0.4,0.1 -0.3,0.1 h -0.3 l -0.3,0.1 -0.4,0.1 -0.3,0.2 -0.3,0.1 -0.3,0.2 -0.3,0.2 -0.3,0.1 -0.2,0.3 -0.3,0.2 -0.2,0.2 -0.2,0.2 -0.3,0.3 -0.2,0.3 -0.2,0.2 -0.1,0.3 -0.2,0.3 -0.2,0.3 -0.1,0.4 -0.1,0.3 -0.1,0.3 -0.1,0.3 v 0.3 l -0.1,0.4 v 0.3 0.4 z m 0,6.5 z M 316.5,278 Z"
             inkscape:connector-curvature="0" /><g
             id="g1205"><path
               id="path1203"
               style="fill:none;stroke:#000000;stroke-width:0.99049997;stroke-linecap:butt;stroke-linejoin:round;stroke-miterlimit:10;stroke-dasharray:none;stroke-opacity:1"
               d="m 216.9,310.4 v 0 0.3 0.4 l 0.1,0.3 v 0.3 l 0.1,0.4 0.1,0.3 0.1,0.3 0.1,0.3 0.2,0.3 0.2,0.3 0.1,0.3 0.2,0.3 0.2,0.2 0.3,0.3 0.2,0.3 0.2,0.2 0.3,0.2 0.2,0.2 0.3,0.2 0.3,0.2 0.3,0.1 0.3,0.2 0.3,0.1 0.4,0.1 0.3,0.1 0.3,0.1 0.3,0.1 h 0.4 l 0.3,0.1 h 0.3 86.8 v 0 h 0.3 l 0.3,-0.1 h 0.4 l 0.3,-0.1 0.3,-0.1 0.3,-0.1 0.4,-0.1 0.3,-0.1 0.3,-0.2 0.3,-0.1 0.3,-0.2 0.3,-0.2 0.2,-0.2 0.3,-0.2 0.2,-0.2 0.2,-0.3 0.3,-0.3 0.2,-0.2 0.2,-0.3 0.1,-0.3 0.2,-0.3 0.1,-0.3 0.2,-0.3 0.1,-0.3 0.1,-0.3 0.1,-0.4 v -0.3 l 0.1,-0.3 v -0.4 -0.3 -25.9 0 -0.4 -0.3 l -0.1,-0.3 v -0.4 l -0.1,-0.3 -0.1,-0.3 -0.1,-0.3 -0.2,-0.3 -0.1,-0.3 -0.1,-0.3 -0.2,-0.3 -0.2,-0.3 -0.2,-0.3 -0.2,-0.2 -0.3,-0.3 -0.2,-0.2 -0.3,-0.2 -0.2,-0.2 -0.3,-0.2 -0.3,-0.2 -0.3,-0.2 -0.3,-0.1 -0.3,-0.2 -0.3,-0.1 -0.3,-0.1 h -0.4 l -0.3,-0.1 -0.3,-0.1 h -0.4 -0.3 -86.8 v 0 h -0.3 -0.3 l -0.4,0.1 -0.3,0.1 h -0.3 l -0.3,0.1 -0.4,0.1 -0.3,0.2 -0.3,0.1 -0.3,0.2 -0.3,0.2 -0.3,0.1 -0.2,0.3 -0.3,0.2 -0.2,0.2 -0.2,0.2 -0.3,0.3 -0.2,0.3 -0.2,0.2 -0.1,0.3 -0.2,0.3 -0.2,0.3 -0.1,0.4 -0.1,0.3 -0.1,0.3 -0.1,0.3 v 0.3 l -0.1,0.4 v 0.3 0.4 z"
               inkscape:connector-curvature="0" /></g><g
             id="g1209"><path
               id="path1207"
               style="fill:none;stroke:#000000;stroke-width:0.99049997;stroke-linecap:butt;stroke-linejoin:round;stroke-miterlimit:10;stroke-dasharray:none;stroke-opacity:1"
               d="M 316.5,278 Z"
               inkscape:connector-curvature="0" /></g><g
             id="g1215"><text
               id="text1213"
               style="font-variant:normal;font-weight:normal;font-size:18px;font-family:Carlito;-inkscape-font-specification:Carlito;writing-mode:lr-tb;fill:#000000;fill-opacity:1;fill-rule:nonzero;stroke:none"
               transform="matrix(1,0,0,-1,232.4,290.2)"><tspan
                 id="tspan1211"
                 y="0"
                 x="0 9.2880001 15.282 24.768 32.273998 41.256001 48.330002 55.403999 59.490002">Process 1</tspan></text>
</g></g><g
           transform="translate(540.64806,80.154106)"
           id="g1239"><path
             id="path1219"
             style="fill:#f2f2f2;fill-opacity:1;fill-rule:evenodd;stroke:none"
             d="m 25.5,310.4 v 0 0.3 0.4 l 0.1,0.3 0.1,0.3 v 0.4 l 0.1,0.3 0.1,0.3 0.2,0.3 0.1,0.3 0.2,0.3 0.2,0.3 0.2,0.3 0.2,0.2 0.2,0.3 0.2,0.3 0.2,0.2 0.3,0.2 0.3,0.2 0.3,0.2 0.2,0.2 0.3,0.1 0.3,0.2 0.4,0.1 0.3,0.1 0.3,0.1 0.3,0.1 0.4,0.1 h 0.3 l 0.3,0.1 h 0.4 86.7 v 0 h 0.3 l 0.4,-0.1 h 0.3 l 0.3,-0.1 0.4,-0.1 0.3,-0.1 0.3,-0.1 0.3,-0.1 0.3,-0.2 0.3,-0.1 0.3,-0.2 0.3,-0.2 0.2,-0.2 0.3,-0.2 0.3,-0.2 0.2,-0.3 0.2,-0.3 0.2,-0.2 0.2,-0.3 0.2,-0.3 0.1,-0.3 0.2,-0.3 0.1,-0.3 0.1,-0.3 0.1,-0.3 0.1,-0.4 0.1,-0.3 v -0.3 -0.4 -0.3 l 0.1,-25.9 h -0.1 v -0.4 -0.3 -0.3 l -0.1,-0.4 -0.1,-0.3 -0.1,-0.3 -0.1,-0.3 -0.1,-0.3 -0.2,-0.3 -0.1,-0.3 -0.2,-0.3 -0.2,-0.3 -0.2,-0.3 -0.2,-0.2 -0.2,-0.3 -0.3,-0.2 -0.2,-0.2 -0.3,-0.2 -0.3,-0.2 -0.3,-0.2 -0.3,-0.2 -0.3,-0.1 -0.3,-0.2 -0.3,-0.1 -0.3,-0.1 H 120 l -0.3,-0.1 -0.3,-0.1 H 119.1 118.7 32 v 0 h -0.4 -0.3 l -0.3,0.1 -0.4,0.1 h -0.3 l -0.3,0.1 -0.3,0.1 -0.3,0.2 -0.3,0.1 -0.4,0.2 -0.2,0.2 -0.3,0.1 -0.3,0.3 -0.2,0.2 -0.3,0.2 -0.2,0.2 -0.2,0.3 -0.2,0.3 -0.2,0.2 -0.2,0.3 -0.2,0.3 -0.1,0.3 -0.2,0.4 -0.1,0.3 -0.1,0.3 v 0.3 l -0.1,0.3 -0.1,0.4 v 0.3 0.4 z m 0,6.5 z M 125.2,278 Z"
             inkscape:connector-curvature="0" /><g
             id="g1223"><path
               id="path1221"
               style="fill:none;stroke:#000000;stroke-width:0.73580003;stroke-linecap:butt;stroke-linejoin:round;stroke-miterlimit:10;stroke-dasharray:none;stroke-opacity:1"
               d="m 25.5,310.4 v 0 0.3 0.4 l 0.1,0.3 0.1,0.3 v 0.4 l 0.1,0.3 0.1,0.3 0.2,0.3 0.1,0.3 0.2,0.3 0.2,0.3 0.2,0.3 0.2,0.2 0.2,0.3 0.2,0.3 0.2,0.2 0.3,0.2 0.3,0.2 0.3,0.2 0.2,0.2 0.3,0.1 0.3,0.2 0.4,0.1 0.3,0.1 0.3,0.1 0.3,0.1 0.4,0.1 h 0.3 l 0.3,0.1 h 0.4 86.7 v 0 h 0.3 l 0.4,-0.1 h 0.3 l 0.3,-0.1 0.4,-0.1 0.3,-0.1 0.3,-0.1 0.3,-0.1 0.3,-0.2 0.3,-0.1 0.3,-0.2 0.3,-0.2 0.2,-0.2 0.3,-0.2 0.3,-0.2 0.2,-0.3 0.2,-0.3 0.2,-0.2 0.2,-0.3 0.2,-0.3 0.1,-0.3 0.2,-0.3 0.1,-0.3 0.1,-0.3 0.1,-0.3 0.1,-0.4 0.1,-0.3 v -0.3 -0.4 -0.3 l 0.1,-25.9 h -0.1 v -0.4 -0.3 -0.3 l -0.1,-0.4 -0.1,-0.3 -0.1,-0.3 -0.1,-0.3 -0.1,-0.3 -0.2,-0.3 -0.1,-0.3 -0.2,-0.3 -0.2,-0.3 -0.2,-0.3 -0.2,-0.2 -0.2,-0.3 -0.3,-0.2 -0.2,-0.2 -0.3,-0.2 -0.3,-0.2 -0.3,-0.2 -0.3,-0.2 -0.3,-0.1 -0.3,-0.2 -0.3,-0.1 -0.3,-0.1 H 120 l -0.3,-0.1 -0.3,-0.1 H 119.1 118.7 32 v 0 h -0.4 -0.3 l -0.3,0.1 -0.4,0.1 h -0.3 l -0.3,0.1 -0.3,0.1 -0.3,0.2 -0.3,0.1 -0.4,0.2 -0.2,0.2 -0.3,0.1 -0.3,0.3 -0.2,0.2 -0.3,0.2 -0.2,0.2 -0.2,0.3 -0.2,0.3 -0.2,0.2 -0.2,0.3 -0.2,0.3 -0.1,0.3 -0.2,0.4 -0.1,0.3 -0.1,0.3 v 0.3 l -0.1,0.3 -0.1,0.4 v 0.3 0.4 z"
               inkscape:connector-curvature="0" /></g><g
             id="g1227"><path
               id="path1225"
               style="fill:none;stroke:#000000;stroke-width:0.73580003;stroke-linecap:butt;stroke-linejoin:round;stroke-miterlimit:10;stroke-dasharray:none;stroke-opacity:1"
               d="M 25.5,316.9 Z"
               inkscape:connector-curvature="0" /></g><g
             id="g1231"><path
               id="path1229"
               style="fill:none;stroke:#000000;stroke-width:0.73580003;stroke-linecap:butt;stroke-linejoin:round;stroke-miterlimit:10;stroke-dasharray:none;stroke-opacity:1"
               d="M 125.2,278 Z"
               inkscape:connector-curvature="0" /></g><g
             id="g1237"><text
               id="text1235"
               style="font-variant:normal;font-weight:normal;font-size:18px;font-family:Carlito;-inkscape-font-specification:Carlito;writing-mode:lr-tb;fill:#000000;fill-opacity:1;fill-rule:nonzero;stroke:none"
               transform="matrix(1,0,0,-1,41.1,290.2)"><tspan
                 id="tspan1233"
                 y="0"
                 x="0 9.198 15.192 24.677999 32.273998 41.166 48.240002 55.313999 59.400002">Process 0</tspan></text>
</g></g><g
           transform="matrix(-0.62749143,-0.2843017,0.25369014,-0.72059657,643.63843,602.4608)"
           id="g1261"><g
             id="g1253"
             transform="translate(-92.88783,-42.944716)"><g
               id="g1241" /><g
               id="g1251"><g
                 style="opacity:0.38999999"
                 id="g1249"
                 clip-path="url(#clipPath172)"><g
                   id="g1245"><path
                     id="path1243"
                     style="fill:none;stroke:#000000;stroke-width:2.00929999;stroke-linecap:butt;stroke-linejoin:round;stroke-miterlimit:10;stroke-dasharray:none;stroke-opacity:1"
                     d="M 406.3,288.6 H 326.9"
                     inkscape:connector-curvature="0" /></g><path
                   id="path1247"
                   style="fill:#000000;fill-opacity:1;fill-rule:evenodd;stroke:none"
                   d="m 321.3,288.6 6,3 v -6.1 z"
                   inkscape:connector-curvature="0" /></g></g></g><g
             id="g1257"
             transform="translate(-92.88783,-42.944716)"><path
               id="path1255"
               style="fill:none;stroke:#525e66;stroke-width:2.00929999;stroke-linecap:butt;stroke-linejoin:round;stroke-miterlimit:10;stroke-dasharray:none;stroke-opacity:1"
               d="M 406.3,290.2 H 326.9"
               inkscape:connector-curvature="0" /></g><path
             id="path1259"
             style="fill:#525e66;fill-opacity:1;fill-rule:evenodd;stroke:none"
             d="m 228.41217,247.25528 6,3 v -6.1 z"
             inkscape:connector-curvature="0" /></g><g
           id="g1279"
           transform="translate(348.01126,15.587341)"><path
             inkscape:connector-curvature="0"
             d="m 216.9,310.4 v 0 0.3 0.4 l 0.1,0.3 v 0.3 l 0.1,0.4 0.1,0.3 0.1,0.3 0.1,0.3 0.2,0.3 0.2,0.3 0.1,0.3 0.2,0.3 0.2,0.2 0.3,0.3 0.2,0.3 0.2,0.2 0.3,0.2 0.2,0.2 0.3,0.2 0.3,0.2 0.3,0.1 0.3,0.2 0.3,0.1 0.4,0.1 0.3,0.1 0.3,0.1 0.3,0.1 h 0.4 l 0.3,0.1 h 0.3 86.8 v 0 h 0.3 l 0.3,-0.1 h 0.4 l 0.3,-0.1 0.3,-0.1 0.3,-0.1 0.4,-0.1 0.3,-0.1 0.3,-0.2 0.3,-0.1 0.3,-0.2 0.3,-0.2 0.2,-0.2 0.3,-0.2 0.2,-0.2 0.2,-0.3 0.3,-0.3 0.2,-0.2 0.2,-0.3 0.1,-0.3 0.2,-0.3 0.1,-0.3 0.2,-0.3 0.1,-0.3 0.1,-0.3 0.1,-0.4 v -0.3 l 0.1,-0.3 v -0.4 -0.3 -25.9 0 -0.4 -0.3 l -0.1,-0.3 v -0.4 l -0.1,-0.3 -0.1,-0.3 -0.1,-0.3 -0.2,-0.3 -0.1,-0.3 -0.1,-0.3 -0.2,-0.3 -0.2,-0.3 -0.2,-0.3 -0.2,-0.2 -0.3,-0.3 -0.2,-0.2 -0.3,-0.2 -0.2,-0.2 -0.3,-0.2 -0.3,-0.2 -0.3,-0.2 -0.3,-0.1 -0.3,-0.2 -0.3,-0.1 -0.3,-0.1 h -0.4 l -0.3,-0.1 -0.3,-0.1 h -0.4 -0.3 -86.8 v 0 h -0.3 -0.3 l -0.4,0.1 -0.3,0.1 h -0.3 l -0.3,0.1 -0.4,0.1 -0.3,0.2 -0.3,0.1 -0.3,0.2 -0.3,0.2 -0.3,0.1 -0.2,0.3 -0.3,0.2 -0.2,0.2 -0.2,0.2 -0.3,0.3 -0.2,0.3 -0.2,0.2 -0.1,0.3 -0.2,0.3 -0.2,0.3 -0.1,0.4 -0.1,0.3 -0.1,0.3 -0.1,0.3 v 0.3 l -0.1,0.4 v 0.3 0.4 z m 0,6.5 z M 316.5,278 Z"
             style="fill:#f2f2f2;fill-opacity:1;fill-rule:evenodd;stroke:none"
             id="path1263" /><g
             id="g1267"><path
               inkscape:connector-curvature="0"
               d="m 216.9,310.4 v 0 0.3 0.4 l 0.1,0.3 v 0.3 l 0.1,0.4 0.1,0.3 0.1,0.3 0.1,0.3 0.2,0.3 0.2,0.3 0.1,0.3 0.2,0.3 0.2,0.2 0.3,0.3 0.2,0.3 0.2,0.2 0.3,0.2 0.2,0.2 0.3,0.2 0.3,0.2 0.3,0.1 0.3,0.2 0.3,0.1 0.4,0.1 0.3,0.1 0.3,0.1 0.3,0.1 h 0.4 l 0.3,0.1 h 0.3 86.8 v 0 h 0.3 l 0.3,-0.1 h 0.4 l 0.3,-0.1 0.3,-0.1 0.3,-0.1 0.4,-0.1 0.3,-0.1 0.3,-0.2 0.3,-0.1 0.3,-0.2 0.3,-0.2 0.2,-0.2 0.3,-0.2 0.2,-0.2 0.2,-0.3 0.3,-0.3 0.2,-0.2 0.2,-0.3 0.1,-0.3 0.2,-0.3 0.1,-0.3 0.2,-0.3 0.1,-0.3 0.1,-0.3 0.1,-0.4 v -0.3 l 0.1,-0.3 v -0.4 -0.3 -25.9 0 -0.4 -0.3 l -0.1,-0.3 v -0.4 l -0.1,-0.3 -0.1,-0.3 -0.1,-0.3 -0.2,-0.3 -0.1,-0.3 -0.1,-0.3 -0.2,-0.3 -0.2,-0.3 -0.2,-0.3 -0.2,-0.2 -0.3,-0.3 -0.2,-0.2 -0.3,-0.2 -0.2,-0.2 -0.3,-0.2 -0.3,-0.2 -0.3,-0.2 -0.3,-0.1 -0.3,-0.2 -0.3,-0.1 -0.3,-0.1 h -0.4 l -0.3,-0.1 -0.3,-0.1 h -0.4 -0.3 -86.8 v 0 h -0.3 -0.3 l -0.4,0.1 -0.3,0.1 h -0.3 l -0.3,0.1 -0.4,0.1 -0.3,0.2 -0.3,0.1 -0.3,0.2 -0.3,0.2 -0.3,0.1 -0.2,0.3 -0.3,0.2 -0.2,0.2 -0.2,0.2 -0.3,0.3 -0.2,0.3 -0.2,0.2 -0.1,0.3 -0.2,0.3 -0.2,0.3 -0.1,0.4 -0.1,0.3 -0.1,0.3 -0.1,0.3 v 0.3 l -0.1,0.4 v 0.3 0.4 z"
               style="fill:none;stroke:#000000;stroke-width:0.99049997;stroke-linecap:butt;stroke-linejoin:round;stroke-miterlimit:10;stroke-dasharray:none;stroke-opacity:1"
               id="path1265" /></g><g
             id="g1271"><path
               inkscape:connector-curvature="0"
               d="M 316.5,278 Z"
               style="fill:none;stroke:#000000;stroke-width:0.99049997;stroke-linecap:butt;stroke-linejoin:round;stroke-miterlimit:10;stroke-dasharray:none;stroke-opacity:1"
               id="path1269" /></g><g
             id="g1277"><text
               transform="matrix(1,0,0,-1,232.4,290.2)"
               style="font-variant:normal;font-weight:normal;font-size:18px;font-family:Carlito;-inkscape-font-specification:Carlito;writing-mode:lr-tb;fill:#000000;fill-opacity:1;fill-rule:nonzero;stroke:none"
               id="text1275"><tspan
                 x="0 9.2880001 15.282 24.768 32.273998 41.256001 48.330002 55.403999 59.490002"
                 y="0"
                 id="tspan1273">Process 1</tspan></text>
</g></g><g
           transform="translate(466.0297,15.587341)"
           id="g1297"><path
             id="path1281"
             style="fill:#f2f2f2;fill-opacity:1;fill-rule:evenodd;stroke:none"
             d="m 216.9,310.4 v 0 0.3 0.4 l 0.1,0.3 v 0.3 l 0.1,0.4 0.1,0.3 0.1,0.3 0.1,0.3 0.2,0.3 0.2,0.3 0.1,0.3 0.2,0.3 0.2,0.2 0.3,0.3 0.2,0.3 0.2,0.2 0.3,0.2 0.2,0.2 0.3,0.2 0.3,0.2 0.3,0.1 0.3,0.2 0.3,0.1 0.4,0.1 0.3,0.1 0.3,0.1 0.3,0.1 h 0.4 l 0.3,0.1 h 0.3 86.8 v 0 h 0.3 l 0.3,-0.1 h 0.4 l 0.3,-0.1 0.3,-0.1 0.3,-0.1 0.4,-0.1 0.3,-0.1 0.3,-0.2 0.3,-0.1 0.3,-0.2 0.3,-0.2 0.2,-0.2 0.3,-0.2 0.2,-0.2 0.2,-0.3 0.3,-0.3 0.2,-0.2 0.2,-0.3 0.1,-0.3 0.2,-0.3 0.1,-0.3 0.2,-0.3 0.1,-0.3 0.1,-0.3 0.1,-0.4 v -0.3 l 0.1,-0.3 v -0.4 -0.3 -25.9 0 -0.4 -0.3 l -0.1,-0.3 v -0.4 l -0.1,-0.3 -0.1,-0.3 -0.1,-0.3 -0.2,-0.3 -0.1,-0.3 -0.1,-0.3 -0.2,-0.3 -0.2,-0.3 -0.2,-0.3 -0.2,-0.2 -0.3,-0.3 -0.2,-0.2 -0.3,-0.2 -0.2,-0.2 -0.3,-0.2 -0.3,-0.2 -0.3,-0.2 -0.3,-0.1 -0.3,-0.2 -0.3,-0.1 -0.3,-0.1 h -0.4 l -0.3,-0.1 -0.3,-0.1 h -0.4 -0.3 -86.8 v 0 h -0.3 -0.3 l -0.4,0.1 -0.3,0.1 h -0.3 l -0.3,0.1 -0.4,0.1 -0.3,0.2 -0.3,0.1 -0.3,0.2 -0.3,0.2 -0.3,0.1 -0.2,0.3 -0.3,0.2 -0.2,0.2 -0.2,0.2 -0.3,0.3 -0.2,0.3 -0.2,0.2 -0.1,0.3 -0.2,0.3 -0.2,0.3 -0.1,0.4 -0.1,0.3 -0.1,0.3 -0.1,0.3 v 0.3 l -0.1,0.4 v 0.3 0.4 z m 0,6.5 z M 316.5,278 Z"
             inkscape:connector-curvature="0" /><g
             id="g1285"><path
               id="path1283"
               style="fill:none;stroke:#000000;stroke-width:0.99049997;stroke-linecap:butt;stroke-linejoin:round;stroke-miterlimit:10;stroke-dasharray:none;stroke-opacity:1"
               d="m 216.9,310.4 v 0 0.3 0.4 l 0.1,0.3 v 0.3 l 0.1,0.4 0.1,0.3 0.1,0.3 0.1,0.3 0.2,0.3 0.2,0.3 0.1,0.3 0.2,0.3 0.2,0.2 0.3,0.3 0.2,0.3 0.2,0.2 0.3,0.2 0.2,0.2 0.3,0.2 0.3,0.2 0.3,0.1 0.3,0.2 0.3,0.1 0.4,0.1 0.3,0.1 0.3,0.1 0.3,0.1 h 0.4 l 0.3,0.1 h 0.3 86.8 v 0 h 0.3 l 0.3,-0.1 h 0.4 l 0.3,-0.1 0.3,-0.1 0.3,-0.1 0.4,-0.1 0.3,-0.1 0.3,-0.2 0.3,-0.1 0.3,-0.2 0.3,-0.2 0.2,-0.2 0.3,-0.2 0.2,-0.2 0.2,-0.3 0.3,-0.3 0.2,-0.2 0.2,-0.3 0.1,-0.3 0.2,-0.3 0.1,-0.3 0.2,-0.3 0.1,-0.3 0.1,-0.3 0.1,-0.4 v -0.3 l 0.1,-0.3 v -0.4 -0.3 -25.9 0 -0.4 -0.3 l -0.1,-0.3 v -0.4 l -0.1,-0.3 -0.1,-0.3 -0.1,-0.3 -0.2,-0.3 -0.1,-0.3 -0.1,-0.3 -0.2,-0.3 -0.2,-0.3 -0.2,-0.3 -0.2,-0.2 -0.3,-0.3 -0.2,-0.2 -0.3,-0.2 -0.2,-0.2 -0.3,-0.2 -0.3,-0.2 -0.3,-0.2 -0.3,-0.1 -0.3,-0.2 -0.3,-0.1 -0.3,-0.1 h -0.4 l -0.3,-0.1 -0.3,-0.1 h -0.4 -0.3 -86.8 v 0 h -0.3 -0.3 l -0.4,0.1 -0.3,0.1 h -0.3 l -0.3,0.1 -0.4,0.1 -0.3,0.2 -0.3,0.1 -0.3,0.2 -0.3,0.2 -0.3,0.1 -0.2,0.3 -0.3,0.2 -0.2,0.2 -0.2,0.2 -0.3,0.3 -0.2,0.3 -0.2,0.2 -0.1,0.3 -0.2,0.3 -0.2,0.3 -0.1,0.4 -0.1,0.3 -0.1,0.3 -0.1,0.3 v 0.3 l -0.1,0.4 v 0.3 0.4 z"
               inkscape:connector-curvature="0" /></g><g
             id="g1289"><path
               id="path1287"
               style="fill:none;stroke:#000000;stroke-width:0.99049997;stroke-linecap:butt;stroke-linejoin:round;stroke-miterlimit:10;stroke-dasharray:none;stroke-opacity:1"
               d="M 316.5,278 Z"
               inkscape:connector-curvature="0" /></g><g
             id="g1295"><text
               id="text1293"
               style="font-variant:normal;font-weight:normal;font-size:18px;font-family:Carlito;-inkscape-font-specification:Carlito;writing-mode:lr-tb;fill:#000000;fill-opacity:1;fill-rule:nonzero;stroke:none"
               transform="matrix(1,0,0,-1,232.4,290.2)"><tspan
                 id="tspan1291"
                 y="0"
                 x="0 9.2880001 15.282 24.768 32.273998 41.256001 48.330002 55.403999 59.490002">Process 1</tspan></text>
</g></g><g
           id="g1341"
           transform="matrix(0.62900493,-0.28093727,-0.24982754,-0.7219448,586.47506,601.881)"><g
             transform="translate(-92.88783,-42.944716)"
             id="g1333"><g
               id="g1321" /><g
               id="g1331"><g
                 clip-path="url(#clipPath172)"
                 id="g1329"
                 style="opacity:0.38999999"><g
                   id="g1325"><path
                     inkscape:connector-curvature="0"
                     d="M 406.3,288.6 H 326.9"
                     style="fill:none;stroke:#000000;stroke-width:2.00929999;stroke-linecap:butt;stroke-linejoin:round;stroke-miterlimit:10;stroke-dasharray:none;stroke-opacity:1"
                     id="path1323" /></g><path
                   inkscape:connector-curvature="0"
                   d="m 321.3,288.6 6,3 v -6.1 z"
                   style="fill:#000000;fill-opacity:1;fill-rule:evenodd;stroke:none"
                   id="path1327" /></g></g></g><g
             transform="translate(-92.88783,-42.944716)"
             id="g1337"><path
               inkscape:connector-curvature="0"
               d="M 406.3,290.2 H 326.9"
               style="fill:none;stroke:#525e66;stroke-width:2.00929999;stroke-linecap:butt;stroke-linejoin:round;stroke-miterlimit:10;stroke-dasharray:none;stroke-opacity:1"
               id="path1335" /></g><path
             inkscape:connector-curvature="0"
             d="m 228.41217,247.25528 6,3 v -6.1 z"
             style="fill:#525e66;fill-opacity:1;fill-rule:evenodd;stroke:none"
             id="path1339" /></g><g
           id="g1363"
           transform="matrix(-2.9945437e-4,-0.54877284,0.76103191,-0.05909537,425.59335,495.50876)"><g
             transform="translate(-92.88783,-42.944716)"
             id="g1355"><g
               id="g1343" /><g
               id="g1353"><g
                 clip-path="url(#clipPath172)"
                 id="g1351"
                 style="opacity:0.38999999"><g
                   id="g1347"><path
                     sodipodi:nodetypes="cc"
                     inkscape:connector-curvature="0"
                     d="M 359.57203,288.58162 326.9,288.6"
                     style="fill:none;stroke:#000000;stroke-width:2.00929999;stroke-linecap:butt;stroke-linejoin:round;stroke-miterlimit:10;stroke-dasharray:none;stroke-opacity:1"
                     id="path1345" /></g><path
                   inkscape:connector-curvature="0"
                   d="m 321.3,288.6 6,3 v -6.1 z"
                   style="fill:#000000;fill-opacity:1;fill-rule:evenodd;stroke:none"
                   id="path1349" /></g></g></g><g
             transform="translate(-92.88783,-42.944716)"
             id="g1359"><path
               sodipodi:nodetypes="cc"
               inkscape:connector-curvature="0"
               d="M 359.27614,290.18149 326.9,290.2"
               style="fill:none;stroke:#525e66;stroke-width:2.00929999;stroke-linecap:butt;stroke-linejoin:round;stroke-miterlimit:10;stroke-dasharray:none;stroke-opacity:1"
               id="path1357" /></g><path
             inkscape:connector-curvature="0"
             d="m 228.41217,247.25528 6,3 v -6.1 z"
             style="fill:#525e66;fill-opacity:1;fill-rule:evenodd;stroke:none"
             id="path1361" /></g><text
           y="-265.66956"
           x="175.60658"
           id="text984"
           style="font-style:normal;font-variant:normal;font-weight:normal;font-stretch:normal;font-size:18px;font-family:Carlito;-inkscape-font-specification:'Carlito, Normal';font-variant-ligatures:normal;font-variant-caps:normal;font-variant-numeric:normal;font-feature-settings:normal;text-align:start;writing-mode:lr-tb;text-anchor:start;fill:#000000;fill-opacity:1;fill-rule:nonzero;stroke:none"
           transform="scale(1,-1)"><tspan
             sodipodi:role="line"
             id="tspan988"
             x="175.60658"
             y="-265.66956">Workers</tspan></text>
</g></g></g></svg>