<?xml version="1.0" encoding="UTF-8" standalone="no"?>
<svg
   xmlns:dc="http://purl.org/dc/elements/1.1/"
   xmlns:cc="http://creativecommons.org/ns#"
   xmlns:rdf="http://www.w3.org/1999/02/22-rdf-syntax-ns#"
   xmlns:svg="http://www.w3.org/2000/svg"
   xmlns="http://www.w3.org/2000/svg"
   xmlns:sodipodi="http://sodipodi.sourceforge.net/DTD/sodipodi-0.dtd"
   xmlns:inkscape="http://www.inkscape.org/namespaces/inkscape"
   viewBox="0 0 873.29293 454.00806"
   height="454.00806"
   width="873.29297"
   xml:space="preserve"
   id="svg2"
   version="1.1"
   sodipodi:docname="send_slide.svg"
   inkscape:version="0.92.2 (5c3e80d, 2017-08-06)"><sodipodi:namedview
     pagecolor="#ffffff"
     bordercolor="#666666"
     borderopacity="1"
     objecttolerance="10"
     gridtolerance="10"
     guidetolerance="10"
     inkscape:pageopacity="0"
     inkscape:pageshadow="2"
     inkscape:window-width="1920"
     inkscape:window-height="981"
     id="namedview98"
     showgrid="false"
     fit-margin-top="0"
     fit-margin-left="0"
     fit-margin-right="0"
     fit-margin-bottom="0"
     inkscape:zoom="1.1788412"
     inkscape:cx="507.61253"
     inkscape:cy="245.32678"
     inkscape:window-x="1920"
     inkscape:window-y="28"
     inkscape:window-maximized="1"
     inkscape:current-layer="g14" /><metadata
     id="metadata8"><rdf:RDF><cc:Work
         rdf:about=""><dc:format>image/svg+xml</dc:format><dc:type
           rdf:resource="http://purl.org/dc/dcmitype/StillImage" /><dc:title /></cc:Work></rdf:RDF></metadata><defs
     id="defs6"><clipPath
       id="clipPath18"
       clipPathUnits="userSpaceOnUse"><path
         style="clip-rule:evenodd"
         id="path16"
         d="M 0,-0.4 H 793.6 V 446 H 0 Z"
         inkscape:connector-curvature="0" /></clipPath></defs><g
     transform="matrix(1.3333333,0,0,-1.3333333,-50.826171,544.71848)"
     id="g10"><g
       id="g12"><g
         clip-path="url(#clipPath18)"
         id="g14"><g
           id="g22"><text
             id="text26"
             style="font-variant:normal;font-weight:bold;font-size:21.89999962px;font-family:'DejaVu Sans Mono';-inkscape-font-specification:DejaVuSansMono-Bold;writing-mode:lr-tb;fill:#000000;fill-opacity:1;fill-rule:nonzero;stroke:none"
             transform="matrix(1,0,0,-1,37.2,391.9)"><tspan
               id="tspan24"
               y="0"
               x="0 13.1838 26.367599 39.551399 52.735199 65.918999 79.102798 92.286598 105.4704">MPI_Send(</tspan></text>
</g><g
           id="g28"><text
             id="text32"
             style="font-variant:normal;font-weight:bold;font-size:21.89999962px;font-family:'DejaVu Sans Mono';-inkscape-font-specification:DejaVuSansMono-Bold;writing-mode:lr-tb;fill:#ff0000;fill-opacity:1;fill-rule:nonzero;stroke:none"
             transform="matrix(1,0,0,-1,156,391.9)"><tspan
               id="tspan30"
               y="0"
               x="0 13.1838 26.367599 39.551399 52.735199 65.918999">buffer</tspan></text>
</g><g
           id="g34"><text
             id="text38"
             style="font-variant:normal;font-weight:bold;font-size:21.89999962px;font-family:'DejaVu Sans Mono';-inkscape-font-specification:DejaVuSansMono-Bold;writing-mode:lr-tb;fill:#000000;fill-opacity:1;fill-rule:nonzero;stroke:none"
             transform="matrix(1,0,0,-1,235.2,391.9)"><tspan
               id="tspan36"
               y="0"
               x="0 13.1838">, </tspan></text>
</g><g
           id="g40"><text
             id="text44"
             style="font-variant:normal;font-weight:bold;font-size:21.89999962px;font-family:'DejaVu Sans Mono';-inkscape-font-specification:DejaVuSansMono-Bold;writing-mode:lr-tb;fill:#ff0000;fill-opacity:1;fill-rule:nonzero;stroke:none"
             transform="matrix(1,0,0,-1,261.6,391.9)"><tspan
               id="tspan42"
               y="0"
               x="0 13.1838 26.367599 39.551399 52.735199">count</tspan></text>
</g><g
           id="g46"><text
             id="text50"
             style="font-variant:normal;font-weight:bold;font-size:21.89999962px;font-family:'DejaVu Sans Mono';-inkscape-font-specification:DejaVuSansMono-Bold;writing-mode:lr-tb;fill:#000000;fill-opacity:1;fill-rule:nonzero;stroke:none"
             transform="matrix(1,0,0,-1,327.6,391.9)"><tspan
               id="tspan48"
               y="0"
               x="0 13.1838">, </tspan></text>
</g><g
           id="g52"><text
             id="text56"
             style="font-variant:normal;font-weight:bold;font-size:21.89999962px;font-family:'DejaVu Sans Mono';-inkscape-font-specification:DejaVuSansMono-Bold;writing-mode:lr-tb;fill:#ff0000;fill-opacity:1;fill-rule:nonzero;stroke:none"
             transform="matrix(1,0,0,-1,354,391.9)"><tspan
               id="tspan54"
               y="0"
               x="0 13.1838 26.367599 39.551399 52.735199 65.918999 79.102798 92.286598">datatype</tspan></text>
</g><g
           id="g58"><text
             id="text62"
             style="font-variant:normal;font-weight:bold;font-size:21.89999962px;font-family:'DejaVu Sans Mono';-inkscape-font-specification:DejaVuSansMono-Bold;writing-mode:lr-tb;fill:#000000;fill-opacity:1;fill-rule:nonzero;stroke:none"
             transform="matrix(1,0,0,-1,459.6,391.9)"><tspan
               id="tspan60"
               y="0"
               x="0 13.1838">, </tspan></text>
</g><g
           id="g64"><text
             id="text68"
             style="font-variant:normal;font-weight:bold;font-size:21.89999962px;font-family:'DejaVu Sans Mono';-inkscape-font-specification:DejaVuSansMono-Bold;writing-mode:lr-tb;fill:#ff0000;fill-opacity:1;fill-rule:nonzero;stroke:none"
             transform="matrix(1,0,0,-1,486,391.9)"><tspan
               id="tspan66"
               y="0"
               x="0 13.1838 26.367599 39.551399">dest</tspan></text>
</g><g
           id="g70"><text
             id="text74"
             style="font-variant:normal;font-weight:bold;font-size:21.89999962px;font-family:'DejaVu Sans Mono';-inkscape-font-specification:DejaVuSansMono-Bold;writing-mode:lr-tb;fill:#000000;fill-opacity:1;fill-rule:nonzero;stroke:none"
             transform="matrix(1,0,0,-1,538.8,391.9)"><tspan
               id="tspan72"
               y="0"
               x="0 13.1838">, </tspan></text>
</g><g
           id="g76"><text
             id="text80"
             style="font-variant:normal;font-weight:bold;font-size:21.89999962px;font-family:'DejaVu Sans Mono';-inkscape-font-specification:DejaVuSansMono-Bold;writing-mode:lr-tb;fill:#ff0000;fill-opacity:1;fill-rule:nonzero;stroke:none"
             transform="matrix(1,0,0,-1,565.2,391.9)"><tspan
               id="tspan78"
               y="0"
               x="0 13.1838 26.367599">tag</tspan></text>
</g><g
           id="g82"><text
             id="text86"
             style="font-variant:normal;font-weight:bold;font-size:21.89999962px;font-family:'DejaVu Sans Mono';-inkscape-font-specification:DejaVuSansMono-Bold;writing-mode:lr-tb;fill:#000000;fill-opacity:1;fill-rule:nonzero;stroke:none"
             transform="matrix(1,0,0,-1,604.8,391.9)"><tspan
               id="tspan84"
               y="0"
               x="0 13.1838">, </tspan></text>
</g><g
           id="g88"><text
             id="text92"
             style="font-variant:normal;font-weight:bold;font-size:21.89999962px;font-family:'DejaVu Sans Mono';-inkscape-font-specification:DejaVuSansMono-Bold;writing-mode:lr-tb;fill:#ff0000;fill-opacity:1;fill-rule:nonzero;stroke:none"
             transform="matrix(1,0,0,-1,631.2,391.9)"><tspan
               id="tspan90"
               y="0"
               x="0 13.1838 26.367599 39.551399">comm</tspan></text>
</g><g
           id="g94"><text
             id="text98"
             style="font-variant:normal;font-weight:bold;font-size:21.89999962px;font-family:'DejaVu Sans Mono';-inkscape-font-specification:DejaVuSansMono-Bold;writing-mode:lr-tb;fill:#000000;fill-opacity:1;fill-rule:nonzero;stroke:none"
             transform="matrix(1,0,0,-1,684,391.9)"><tspan
               id="tspan96"
               y="0"
               x="0">)</tspan></text>
</g><g
           id="g100"><text
             id="text104"
             style="font-variant:normal;font-weight:bold;font-size:24px;font-family:Carlito;-inkscape-font-specification:Carlito-Bold;writing-mode:lr-tb;fill:#ff0000;fill-opacity:1;fill-rule:nonzero;stroke:none"
             transform="matrix(1,0,0,-1,77,328.1)"><tspan
               id="tspan102"
               y="0"
               x="0">buffer</tspan></text>
</g><g
           id="g106"><text
             id="text110"
             style="font-variant:normal;font-weight:normal;font-size:24px;font-family:Carlito;-inkscape-font-specification:Carlito;writing-mode:lr-tb;fill:#000000;fill-opacity:1;fill-rule:nonzero;stroke:none"
             transform="matrix(1,0,0,-1,196,328.1)"><tspan
               id="tspan108"
               y="0"
               x="0 11.688 24.288 36.192001 41.664001 54.167999 65.472 73.272003 84.839996 90.143997 98.040001 110.64 116.04 128.64 140.54401 146.01601 155.304 167.28 179.688">The data to be sent</tspan></text>
</g><g
           id="g112"><text
             id="text116"
             style="font-variant:normal;font-weight:bold;font-size:24px;font-family:Carlito;-inkscape-font-specification:Carlito-Bold;writing-mode:lr-tb;fill:#ff0000;fill-opacity:1;fill-rule:nonzero;stroke:none"
             transform="matrix(1,0,0,-1,77,294.5)"><tspan
               id="tspan114"
               y="0"
               x="0 9.9119997 22.896 35.688 48.287998">count</tspan></text>
</g><g
           id="g118"><text
             id="text122"
             style="font-variant:normal;font-weight:normal;font-size:24px;font-family:Carlito;-inkscape-font-specification:Carlito;writing-mode:lr-tb;fill:#000000;fill-opacity:1;fill-rule:nonzero;stroke:none"
             transform="matrix(1,0,0,-1,196,294.5)"><tspan
               id="tspan120"
               y="0"
               x="0 15.48 28.08 47.256001 59.855999 71.832001 80.208 85.608002 98.208 105.504 110.904 122.88 128.37601 140.35201 159.528 171.504 183.912 191.90401 201.28799 206.688 212.18401 224.784">Number of elements in buffer</tspan></text>
</g><g
           id="g124"><text
             id="text128"
             style="font-variant:normal;font-weight:bold;font-size:24px;font-family:Carlito;-inkscape-font-specification:Carlito-Bold;writing-mode:lr-tb;fill:#ff0000;fill-opacity:1;fill-rule:nonzero;stroke:none"
             transform="matrix(1,0,0,-1,77,261)"><tspan
               id="tspan126"
               y="0"
               x="0 12.792 24.504 32.495998 44.088001 52.391998 63.768002 76.559998">datatype</tspan></text>
</g><g
           id="g130"><text
             id="text134"
             style="font-variant:normal;font-weight:normal;font-size:24px;font-family:Carlito;-inkscape-font-specification:Carlito;writing-mode:lr-tb;fill:#000000;fill-opacity:1;fill-rule:nonzero;stroke:none"
             transform="matrix(1,0,0,-1,196,261)"><tspan
               id="tspan132">Type of elements in buffer (see later slides)</tspan></text>
</g><g
           id="g136"><text
             id="text140"
             style="font-variant:normal;font-weight:bold;font-size:24px;font-family:Carlito;-inkscape-font-specification:Carlito-Bold;writing-mode:lr-tb;fill:#ff0000;fill-opacity:1;fill-rule:nonzero;stroke:none"
             transform="matrix(1,0,0,-1,77,227.5)"><tspan
               id="tspan138"
               y="0"
               x="0 12.792 24.864 34.271999">dest</tspan></text>
</g><g
           id="g142"><text
             id="text146"
             style="font-variant:normal;font-weight:normal;font-size:24px;font-family:Carlito;-inkscape-font-specification:Carlito;writing-mode:lr-tb;fill:#000000;fill-opacity:1;fill-rule:nonzero;stroke:none"
             transform="matrix(1,0,0,-1,196,227.5)"><tspan
               id="tspan144"
               y="0"
               x="0 11.688 24.288 36.192001 41.664001 49.560001 61.056 73.655998 84.552002 89.952003 102.552 109.848 115.248 123.336 135.936 147.912 153.312 161.304 173.28 183.45599 195.43201 200.92799 211.536 223.51199">The rank of the receiver</tspan></text>
</g><g
           id="g148"><text
             id="text152"
             style="font-variant:normal;font-weight:bold;font-size:24px;font-family:Carlito;-inkscape-font-specification:Carlito-Bold;writing-mode:lr-tb;fill:#ff0000;fill-opacity:1;fill-rule:nonzero;stroke:none"
             transform="matrix(1,0,0,-1,77,193.9)"><tspan
               id="tspan150"
               y="0"
               x="0 7.9920001 19.872">tag</tspan></text>
</g><g
           id="g154"><text
             id="text158"
             style="font-variant:normal;font-weight:normal;font-size:24px;font-family:Carlito;-inkscape-font-specification:Carlito;writing-mode:lr-tb;fill:#000000;fill-opacity:1;fill-rule:nonzero;stroke:none"
             transform="matrix(1,0,0,-1,196,193.9)"><tspan
               id="tspan156">An integer identifying the message</tspan></text>
</g><g
           id="g160"><text
             id="text164"
             style="font-variant:normal;font-weight:bold;font-size:24px;font-family:Carlito;-inkscape-font-specification:Carlito-Bold;writing-mode:lr-tb;fill:#ff0000;fill-opacity:1;fill-rule:nonzero;stroke:none"
             transform="matrix(1,0,0,-1,77,160.4)"><tspan
               id="tspan162"
               y="0"
               x="0 9.9119997 22.896 42.48">comm</tspan></text>
</g><g
           id="g166"><text
             id="text170"
             style="font-variant:normal;font-weight:normal;font-size:24px;font-family:Carlito;-inkscape-font-specification:Carlito;writing-mode:lr-tb;fill:#000000;fill-opacity:1;fill-rule:nonzero;stroke:none"
             transform="matrix(1,0,0,-1,196,160.4)"><tspan
               id="tspan168"
               y="0"
               x="0 12.888 25.392 44.664001 63.84 76.440002 89.040001 94.536003 104.448 115.752 123.552 136.15199">Communicator</tspan></text>
</g><g
           id="g172"><text
             id="text176"
             style="font-variant:normal;font-weight:bold;font-size:24px;font-family:Carlito;-inkscape-font-specification:Carlito-Bold;writing-mode:lr-tb;fill:#0070c0;fill-opacity:1;fill-rule:nonzero;stroke:none"
             transform="matrix(1,0,0,-1,77,126.8)"><tspan
               id="tspan174"
               y="0"
               x="0 12.072 20.568001 28.872 41.759998">error</tspan></text>
</g><g
           id="g178"><text
             id="text182"
             style="font-variant:normal;font-weight:normal;font-size:24px;font-family:Carlito;-inkscape-font-specification:Carlito;writing-mode:lr-tb;fill:#000000;fill-opacity:1;fill-rule:nonzero;stroke:none"
             transform="matrix(1,0,0,-1,196,126.8)"><tspan
               id="tspan180"
               y="0"
               x="0 11.784 20.16 28.152 40.751999 49.127998 54.528 64.919998 76.487999 81.984001 94.584 106.56 113.04 118.44 123.936 136.536 141.936 154.728 164.01601 176.808 188.88 200.856 206.256 211.752 220.632 225.24001 234.62399 240.024 248.01601 260.616 272.59201 277.992 285.98401 297.79199 305.784 318.384 326.76001 339.35999 344.76001 355.272 366.76801 372.26401 384.86401 396.84 402.23999 414.84">Error value; in C/C++ it’s the return value of</tspan></text>
</g><g
           id="g184"><text
             id="text188"
             style="font-variant:normal;font-weight:normal;font-size:24px;font-family:Carlito;-inkscape-font-specification:Carlito;writing-mode:lr-tb;fill:#000000;fill-opacity:1;fill-rule:nonzero;stroke:none"
             transform="matrix(1,0,0,-1,196,99.4)"><tspan
               id="tspan186">the function, and in Fortran and additional</tspan></text>
</g><g
           id="g190"><text
             id="text194"
             style="font-variant:normal;font-weight:normal;font-size:24px;font-family:Carlito;-inkscape-font-specification:Carlito;writing-mode:lr-tb;fill:#000000;fill-opacity:1;fill-rule:nonzero;stroke:none"
             transform="matrix(1,0,0,-1,196,71.9)"><tspan
               id="tspan192"
               y="0"
               x="0 12.6 25.200001 33.287998 45.888 58.487999 66.480003 71.879997 84.480003 95.975998 103.872 115.368 134.64 146.35201 154.15199 166.12801">output parameter</tspan></text>
</g></g></g></g></svg>