<?xml version="1.0" encoding="UTF-8" standalone="no"?>
<svg
   xmlns:dc="http://purl.org/dc/elements/1.1/"
   xmlns:cc="http://creativecommons.org/ns#"
   xmlns:rdf="http://www.w3.org/1999/02/22-rdf-syntax-ns#"
   xmlns:svg="http://www.w3.org/2000/svg"
   xmlns="http://www.w3.org/2000/svg"
   xmlns:sodipodi="http://sodipodi.sourceforge.net/DTD/sodipodi-0.dtd"
   xmlns:inkscape="http://www.inkscape.org/namespaces/inkscape"
   viewBox="0 0 487 377.99332"
   height="377.99332"
   width="487"
   xml:space="preserve"
   id="svg2"
   version="1.1"
   sodipodi:docname="two-cartesian-grid.svg"
   inkscape:version="0.92.2 (5c3e80d, 2017-08-06)"><sodipodi:namedview
     pagecolor="#ffffff"
     bordercolor="#666666"
     borderopacity="1"
     objecttolerance="10"
     gridtolerance="10"
     guidetolerance="10"
     inkscape:pageopacity="0"
     inkscape:pageshadow="2"
     inkscape:window-width="1366"
     inkscape:window-height="690"
     id="namedview4704"
     showgrid="false"
     inkscape:zoom="0.79333333"
     inkscape:cx="241.99334"
     inkscape:cy="226"
     inkscape:window-x="0"
     inkscape:window-y="24"
     inkscape:window-maximized="1"
     inkscape:current-layer="svg2" /><metadata
     id="metadata8"><rdf:RDF><cc:Work
         rdf:about=""><dc:format>image/svg+xml</dc:format><dc:type
           rdf:resource="http://purl.org/dc/dcmitype/StillImage" /><dc:title></dc:title></cc:Work></rdf:RDF></metadata><defs
     id="defs6"><clipPath
       id="clipPath18"
       clipPathUnits="userSpaceOnUse"><path
         style="clip-rule:evenodd"
         id="path16"
         d="M 0,1.2207e-4 H 720 V 450.00012 H 0 Z"
         inkscape:connector-curvature="0" /></clipPath><clipPath
       id="clipPath30"
       clipPathUnits="userSpaceOnUse"><path
         style="clip-rule:evenodd"
         id="path28"
         d="M 1.0729e-5,0 H 720.00001 V 450 H 1.0729e-5 Z"
         inkscape:connector-curvature="0" /></clipPath><clipPath
       id="clipPath42"
       clipPathUnits="userSpaceOnUse"><path
         style="clip-rule:evenodd"
         id="path40"
         d="M 1.0729e-5,0 H 720.00001 V 450 H 1.0729e-5 Z"
         inkscape:connector-curvature="0" /></clipPath><clipPath
       id="clipPath56"
       clipPathUnits="userSpaceOnUse"><path
         style="clip-rule:evenodd"
         id="path54"
         d="M 1.0729e-5,0 H 720.00001 V 450 H 1.0729e-5 Z"
         inkscape:connector-curvature="0" /></clipPath><clipPath
       id="clipPath68"
       clipPathUnits="userSpaceOnUse"><path
         style="clip-rule:evenodd"
         id="path66"
         d="M 1.0729e-5,0 H 720.00001 V 450 H 1.0729e-5 Z"
         inkscape:connector-curvature="0" /></clipPath><clipPath
       id="clipPath82"
       clipPathUnits="userSpaceOnUse"><path
         style="clip-rule:evenodd"
         id="path80"
         d="M 1.0729e-5,0 H 720.00001 V 450 H 1.0729e-5 Z"
         inkscape:connector-curvature="0" /></clipPath><clipPath
       id="clipPath94"
       clipPathUnits="userSpaceOnUse"><path
         style="clip-rule:evenodd"
         id="path92"
         d="M 1.0729e-5,0 H 720.00001 V 450 H 1.0729e-5 Z"
         inkscape:connector-curvature="0" /></clipPath><clipPath
       id="clipPath108"
       clipPathUnits="userSpaceOnUse"><path
         style="clip-rule:evenodd"
         id="path106"
         d="M 1.0729e-5,0 H 720.00001 V 450 H 1.0729e-5 Z"
         inkscape:connector-curvature="0" /></clipPath><clipPath
       id="clipPath120"
       clipPathUnits="userSpaceOnUse"><path
         style="clip-rule:evenodd"
         id="path118"
         d="M 1.0729e-5,0 H 720.00001 V 450 H 1.0729e-5 Z"
         inkscape:connector-curvature="0" /></clipPath><clipPath
       id="clipPath134"
       clipPathUnits="userSpaceOnUse"><path
         style="clip-rule:evenodd"
         id="path132"
         d="M 1.0729e-5,0 H 720.00001 V 450 H 1.0729e-5 Z"
         inkscape:connector-curvature="0" /></clipPath><clipPath
       id="clipPath146"
       clipPathUnits="userSpaceOnUse"><path
         style="clip-rule:evenodd"
         id="path144"
         d="M 1.0729e-5,0 H 720.00001 V 450 H 1.0729e-5 Z"
         inkscape:connector-curvature="0" /></clipPath><clipPath
       id="clipPath160"
       clipPathUnits="userSpaceOnUse"><path
         style="clip-rule:evenodd"
         id="path158"
         d="M 1.0729e-5,0 H 720.00001 V 450 H 1.0729e-5 Z"
         inkscape:connector-curvature="0" /></clipPath><clipPath
       id="clipPath172"
       clipPathUnits="userSpaceOnUse"><path
         style="clip-rule:evenodd"
         id="path170"
         d="M 1.0729e-5,0 H 720.00001 V 450 H 1.0729e-5 Z"
         inkscape:connector-curvature="0" /></clipPath><clipPath
       id="clipPath186"
       clipPathUnits="userSpaceOnUse"><path
         style="clip-rule:evenodd"
         id="path184"
         d="M 1.0729e-5,0 H 720.00001 V 450 H 1.0729e-5 Z"
         inkscape:connector-curvature="0" /></clipPath><clipPath
       id="clipPath198"
       clipPathUnits="userSpaceOnUse"><path
         style="clip-rule:evenodd"
         id="path196"
         d="M 1.0729e-5,0 H 720.00001 V 450 H 1.0729e-5 Z"
         inkscape:connector-curvature="0" /></clipPath><clipPath
       id="clipPath212"
       clipPathUnits="userSpaceOnUse"><path
         style="clip-rule:evenodd"
         id="path210"
         d="M 1.0729e-5,0 H 720.00001 V 450 H 1.0729e-5 Z"
         inkscape:connector-curvature="0" /></clipPath><clipPath
       id="clipPath224"
       clipPathUnits="userSpaceOnUse"><path
         style="clip-rule:evenodd"
         id="path222"
         d="M 1.0729e-5,0 H 720.00001 V 450 H 1.0729e-5 Z"
         inkscape:connector-curvature="0" /></clipPath><clipPath
       id="clipPath238"
       clipPathUnits="userSpaceOnUse"><path
         style="clip-rule:evenodd"
         id="path236"
         d="M 1.0729e-5,0 H 720.00001 V 450 H 1.0729e-5 Z"
         inkscape:connector-curvature="0" /></clipPath><clipPath
       id="clipPath250"
       clipPathUnits="userSpaceOnUse"><path
         style="clip-rule:evenodd"
         id="path248"
         d="M 1.0729e-5,0 H 720.00001 V 450 H 1.0729e-5 Z"
         inkscape:connector-curvature="0" /></clipPath><clipPath
       id="clipPath264"
       clipPathUnits="userSpaceOnUse"><path
         style="clip-rule:evenodd"
         id="path262"
         d="M 1.0729e-5,0 H 720.00001 V 450 H 1.0729e-5 Z"
         inkscape:connector-curvature="0" /></clipPath><clipPath
       id="clipPath276"
       clipPathUnits="userSpaceOnUse"><path
         style="clip-rule:evenodd"
         id="path274"
         d="M 1.0729e-5,0 H 720.00001 V 450 H 1.0729e-5 Z"
         inkscape:connector-curvature="0" /></clipPath><clipPath
       id="clipPath290"
       clipPathUnits="userSpaceOnUse"><path
         style="clip-rule:evenodd"
         id="path288"
         d="M 1.0729e-5,0 H 720.00001 V 450 H 1.0729e-5 Z"
         inkscape:connector-curvature="0" /></clipPath><clipPath
       id="clipPath302"
       clipPathUnits="userSpaceOnUse"><path
         style="clip-rule:evenodd"
         id="path300"
         d="M 1.0729e-5,0 H 720.00001 V 450 H 1.0729e-5 Z"
         inkscape:connector-curvature="0" /></clipPath><clipPath
       id="clipPath316"
       clipPathUnits="userSpaceOnUse"><path
         style="clip-rule:evenodd"
         id="path314"
         d="M 1.0729e-5,0 H 720.00001 V 450 H 1.0729e-5 Z"
         inkscape:connector-curvature="0" /></clipPath><clipPath
       id="clipPath328"
       clipPathUnits="userSpaceOnUse"><path
         style="clip-rule:evenodd"
         id="path326"
         d="M 1.0729e-5,0 H 720.00001 V 450 H 1.0729e-5 Z"
         inkscape:connector-curvature="0" /></clipPath><clipPath
       id="clipPath342"
       clipPathUnits="userSpaceOnUse"><path
         style="clip-rule:evenodd"
         id="path340"
         d="M 1.0729e-5,0 H 720.00001 V 450 H 1.0729e-5 Z"
         inkscape:connector-curvature="0" /></clipPath><clipPath
       id="clipPath354"
       clipPathUnits="userSpaceOnUse"><path
         style="clip-rule:evenodd"
         id="path352"
         d="M 1.0729e-5,0 H 720.00001 V 450 H 1.0729e-5 Z"
         inkscape:connector-curvature="0" /></clipPath><clipPath
       id="clipPath368"
       clipPathUnits="userSpaceOnUse"><path
         style="clip-rule:evenodd"
         id="path366"
         d="M 1.0729e-5,0 H 720.00001 V 450 H 1.0729e-5 Z"
         inkscape:connector-curvature="0" /></clipPath><clipPath
       id="clipPath380"
       clipPathUnits="userSpaceOnUse"><path
         style="clip-rule:evenodd"
         id="path378"
         d="M 1.0729e-5,0 H 720.00001 V 450 H 1.0729e-5 Z"
         inkscape:connector-curvature="0" /></clipPath><clipPath
       id="clipPath394"
       clipPathUnits="userSpaceOnUse"><path
         style="clip-rule:evenodd"
         id="path392"
         d="M 1.0729e-5,0 H 720.00001 V 450 H 1.0729e-5 Z"
         inkscape:connector-curvature="0" /></clipPath><clipPath
       id="clipPath406"
       clipPathUnits="userSpaceOnUse"><path
         style="clip-rule:evenodd"
         id="path404"
         d="M 1.0729e-5,0 H 720.00001 V 450 H 1.0729e-5 Z"
         inkscape:connector-curvature="0" /></clipPath><clipPath
       id="clipPath420"
       clipPathUnits="userSpaceOnUse"><path
         style="clip-rule:evenodd"
         id="path418"
         d="M 1.0729e-5,0 H 720.00001 V 450 H 1.0729e-5 Z"
         inkscape:connector-curvature="0" /></clipPath><clipPath
       id="clipPath432"
       clipPathUnits="userSpaceOnUse"><path
         style="clip-rule:evenodd"
         id="path430"
         d="M 1.0729e-5,0 H 720.00001 V 450 H 1.0729e-5 Z"
         inkscape:connector-curvature="0" /></clipPath></defs><path
     inkscape:connector-curvature="0"
     d="M 122.5,95.5 H 243.49999 V 1.5 H 122.5 Z"
     style="fill:none;stroke:#000000;stroke-width:3;stroke-linecap:butt;stroke-linejoin:round;stroke-miterlimit:10;stroke-dasharray:none;stroke-opacity:1"
     id="path22" /><g
     id="g24"
     transform="matrix(1.3333333,0,0,-1.3333333,-238.00666,451.99332)"><g
       id="g26"
       clip-path="url(#clipPath30)"><text
         transform="matrix(1,0,0,-1,310.77,306.08)"
         style="font-variant:normal;font-weight:bold;font-size:18.04999924px;font-family:Arial;-inkscape-font-specification:Arial-BoldMT;writing-mode:lr-tb;fill:#0070c0;fill-opacity:1;fill-rule:nonzero;stroke:none"
         id="text34"><tspan
           x="0"
           y="0"
           id="tspan32">1</tspan></text>
</g></g><g
     id="g36"
     transform="matrix(1.3333333,0,0,-1.3333333,-238.00666,451.99332)"><g
       id="g38"
       clip-path="url(#clipPath42)"><text
         transform="matrix(1,0,0,-1,294.25,286.52)"
         style="font-variant:normal;font-weight:normal;font-size:15.77499962px;font-family:Consolas;-inkscape-font-specification:Consolas;writing-mode:lr-tb;fill:#000000;fill-opacity:1;fill-rule:nonzero;stroke:none"
         id="text46"><tspan
           x="0 8.9917498 17.9835 26.97525 35.225574"
           y="0"
           id="tspan44">(0,1)</tspan></text>
</g></g><path
     inkscape:connector-curvature="0"
     d="m 243.49999,95.5 h 121 v -94 h -121 z"
     style="fill:none;stroke:#000000;stroke-width:3;stroke-linecap:butt;stroke-linejoin:round;stroke-miterlimit:10;stroke-dasharray:none;stroke-opacity:1"
     id="path48" /><g
     id="g50"
     transform="matrix(1.3333333,0,0,-1.3333333,-238.00666,451.99332)"><g
       id="g52"
       clip-path="url(#clipPath56)"><text
         transform="matrix(1,0,0,-1,401.55,306.1)"
         style="font-variant:normal;font-weight:bold;font-size:18.02499962px;font-family:Arial;-inkscape-font-specification:Arial-BoldMT;writing-mode:lr-tb;fill:#0070c0;fill-opacity:1;fill-rule:nonzero;stroke:none"
         id="text60"><tspan
           x="0"
           y="0"
           id="tspan58">2</tspan></text>
</g></g><g
     id="g62"
     transform="matrix(1.3333333,0,0,-1.3333333,-238.00666,451.99332)"><g
       id="g64"
       clip-path="url(#clipPath68)"><text
         transform="matrix(1,0,0,-1,385.02,286.58)"
         style="font-variant:normal;font-weight:normal;font-size:15.77499962px;font-family:Consolas;-inkscape-font-specification:Consolas;writing-mode:lr-tb;fill:#000000;fill-opacity:1;fill-rule:nonzero;stroke:none"
         id="text72"><tspan
           x="0 8.9917498 17.9835 26.97525 35.225574"
           y="0"
           id="tspan70">(0,2)</tspan></text>
</g></g><path
     inkscape:connector-curvature="0"
     d="m 364.49999,95.5 h 121 v -94 h -121 z"
     style="fill:none;stroke:#000000;stroke-width:3;stroke-linecap:butt;stroke-linejoin:round;stroke-miterlimit:10;stroke-dasharray:none;stroke-opacity:1"
     id="path74" /><g
     id="g76"
     transform="matrix(1.3333333,0,0,-1.3333333,-238.00666,451.99332)"><g
       id="g78"
       clip-path="url(#clipPath82)"><text
         transform="matrix(1,0,0,-1,492.4,306.1)"
         style="font-variant:normal;font-weight:bold;font-size:18.02499962px;font-family:Arial;-inkscape-font-specification:Arial-BoldMT;writing-mode:lr-tb;fill:#0070c0;fill-opacity:1;fill-rule:nonzero;stroke:none"
         id="text86"><tspan
           x="0"
           y="0"
           id="tspan84">3</tspan></text>
</g></g><g
     id="g88"
     transform="matrix(1.3333333,0,0,-1.3333333,-238.00666,451.99332)"><g
       id="g90"
       clip-path="url(#clipPath94)"><text
         transform="matrix(1,0,0,-1,475.88,286.58)"
         style="font-variant:normal;font-weight:normal;font-size:15.77499962px;font-family:Consolas;-inkscape-font-specification:Consolas;writing-mode:lr-tb;fill:#000000;fill-opacity:1;fill-rule:nonzero;stroke:none"
         id="text98"><tspan
           x="0 9.0075254 18.015051 27.022575 35.304451"
           y="0"
           id="tspan96">(0,3)</tspan></text>
</g></g><path
     inkscape:connector-curvature="0"
     d="m 2.5,95.5 h 120 V 1.5 H 2.5 Z"
     style="fill:none;stroke:#000000;stroke-width:3;stroke-linecap:butt;stroke-linejoin:round;stroke-miterlimit:10;stroke-dasharray:none;stroke-opacity:1"
     id="path100" /><g
     id="g102"
     transform="matrix(1.3333333,0,0,-1.3333333,-238.00666,451.99332)"><g
       id="g104"
       clip-path="url(#clipPath108)"><text
         transform="matrix(1,0,0,-1,220.13,306.1)"
         style="font-variant:normal;font-weight:bold;font-size:18.02499962px;font-family:Arial;-inkscape-font-specification:Arial-BoldMT;writing-mode:lr-tb;fill:#0070c0;fill-opacity:1;fill-rule:nonzero;stroke:none"
         id="text112"><tspan
           x="0"
           y="0"
           id="tspan110">0</tspan></text>
</g></g><g
     id="g114"
     transform="matrix(1.3333333,0,0,-1.3333333,-238.00666,451.99332)"><g
       id="g116"
       clip-path="url(#clipPath120)"><text
         transform="matrix(1,0,0,-1,203.6,286.58)"
         style="font-variant:normal;font-weight:normal;font-size:15.77499962px;font-family:Consolas;-inkscape-font-specification:Consolas;writing-mode:lr-tb;fill:#000000;fill-opacity:1;fill-rule:nonzero;stroke:none"
         id="text124"><tspan
           x="0 8.9917498 17.9835 26.97525 35.225574"
           y="0"
           id="tspan122">(0,0)</tspan></text>
</g></g><path
     inkscape:connector-curvature="0"
     d="M 122.5,189.49999 H 243.49999 V 95.5 H 122.5 Z"
     style="fill:none;stroke:#000000;stroke-width:3;stroke-linecap:butt;stroke-linejoin:round;stroke-miterlimit:10;stroke-dasharray:none;stroke-opacity:1"
     id="path126" /><g
     id="g128"
     transform="matrix(1.3333333,0,0,-1.3333333,-238.00666,451.99332)"><g
       id="g130"
       clip-path="url(#clipPath134)"><text
         transform="matrix(1,0,0,-1,310.5,235.48)"
         style="font-variant:normal;font-weight:bold;font-size:18.02499962px;font-family:Arial;-inkscape-font-specification:Arial-BoldMT;writing-mode:lr-tb;fill:#0070c0;fill-opacity:1;fill-rule:nonzero;stroke:none"
         id="text138"><tspan
           x="0"
           y="0"
           id="tspan136">5</tspan></text>
</g></g><g
     id="g140"
     transform="matrix(1.3333333,0,0,-1.3333333,-238.00666,451.99332)"><g
       id="g142"
       clip-path="url(#clipPath146)"><text
         transform="matrix(1,0,0,-1,293.97,215.95)"
         style="font-variant:normal;font-weight:normal;font-size:15.77499962px;font-family:Consolas;-inkscape-font-specification:Consolas;writing-mode:lr-tb;fill:#000000;fill-opacity:1;fill-rule:nonzero;stroke:none"
         id="text150"><tspan
           x="0 9.0075254 18.015051 27.022575 35.304451"
           y="0"
           id="tspan148">(1,1)</tspan></text>
</g></g><path
     inkscape:connector-curvature="0"
     d="m 243.49999,189.49999 h 121 V 95.5 h -121 z"
     style="fill:none;stroke:#000000;stroke-width:3;stroke-linecap:butt;stroke-linejoin:round;stroke-miterlimit:10;stroke-dasharray:none;stroke-opacity:1"
     id="path152" /><g
     id="g154"
     transform="matrix(1.3333333,0,0,-1.3333333,-238.00666,451.99332)"><g
       id="g156"
       clip-path="url(#clipPath160)"><text
         transform="matrix(1,0,0,-1,401.55,235.48)"
         style="font-variant:normal;font-weight:bold;font-size:18.02499962px;font-family:Arial;-inkscape-font-specification:Arial-BoldMT;writing-mode:lr-tb;fill:#0070c0;fill-opacity:1;fill-rule:nonzero;stroke:none"
         id="text164"><tspan
           x="0"
           y="0"
           id="tspan162">6</tspan></text>
</g></g><g
     id="g166"
     transform="matrix(1.3333333,0,0,-1.3333333,-238.00666,451.99332)"><g
       id="g168"
       clip-path="url(#clipPath172)"><text
         transform="matrix(1,0,0,-1,385.02,215.95)"
         style="font-variant:normal;font-weight:normal;font-size:15.77499962px;font-family:Consolas;-inkscape-font-specification:Consolas;writing-mode:lr-tb;fill:#000000;fill-opacity:1;fill-rule:nonzero;stroke:none"
         id="text176"><tspan
           x="0 8.9917498 17.9835 26.97525 35.225574"
           y="0"
           id="tspan174">(1,2)</tspan></text>
</g></g><path
     inkscape:connector-curvature="0"
     d="m 364.49999,189.49999 h 121 V 95.5 h -121 z"
     style="fill:none;stroke:#000000;stroke-width:3;stroke-linecap:butt;stroke-linejoin:round;stroke-miterlimit:10;stroke-dasharray:none;stroke-opacity:1"
     id="path178" /><g
     id="g180"
     transform="matrix(1.3333333,0,0,-1.3333333,-238.00666,451.99332)"><g
       id="g182"
       clip-path="url(#clipPath186)"><text
         transform="matrix(1,0,0,-1,492.4,235.48)"
         style="font-variant:normal;font-weight:bold;font-size:18.02499962px;font-family:Arial;-inkscape-font-specification:Arial-BoldMT;writing-mode:lr-tb;fill:#0070c0;fill-opacity:1;fill-rule:nonzero;stroke:none"
         id="text190"><tspan
           x="0"
           y="0"
           id="tspan188">7</tspan></text>
</g></g><g
     id="g192"
     transform="matrix(1.3333333,0,0,-1.3333333,-238.00666,451.99332)"><g
       id="g194"
       clip-path="url(#clipPath198)"><text
         transform="matrix(1,0,0,-1,475.88,215.95)"
         style="font-variant:normal;font-weight:normal;font-size:15.77499962px;font-family:Consolas;-inkscape-font-specification:Consolas;writing-mode:lr-tb;fill:#000000;fill-opacity:1;fill-rule:nonzero;stroke:none"
         id="text202"><tspan
           x="0 9.0075254 18.015051 27.022575 35.304451"
           y="0"
           id="tspan200">(1,3)</tspan></text>
</g></g><path
     inkscape:connector-curvature="0"
     d="m 2.5,189.49999 h 120 V 95.5 H 2.5 Z"
     style="fill:none;stroke:#000000;stroke-width:3;stroke-linecap:butt;stroke-linejoin:round;stroke-miterlimit:10;stroke-dasharray:none;stroke-opacity:1"
     id="path204" /><g
     id="g206"
     transform="matrix(1.3333333,0,0,-1.3333333,-238.00666,451.99332)"><g
       id="g208"
       clip-path="url(#clipPath212)"><text
         transform="matrix(1,0,0,-1,220.13,235.48)"
         style="font-variant:normal;font-weight:bold;font-size:18.02499962px;font-family:Arial;-inkscape-font-specification:Arial-BoldMT;writing-mode:lr-tb;fill:#0070c0;fill-opacity:1;fill-rule:nonzero;stroke:none"
         id="text216"><tspan
           x="0"
           y="0"
           id="tspan214">4</tspan></text>
</g></g><g
     id="g218"
     transform="matrix(1.3333333,0,0,-1.3333333,-238.00666,451.99332)"><g
       id="g220"
       clip-path="url(#clipPath224)"><text
         transform="matrix(1,0,0,-1,203.6,215.95)"
         style="font-variant:normal;font-weight:normal;font-size:15.77499962px;font-family:Consolas;-inkscape-font-specification:Consolas;writing-mode:lr-tb;fill:#000000;fill-opacity:1;fill-rule:nonzero;stroke:none"
         id="text228"><tspan
           x="0 8.9917498 17.9835 26.97525 35.225574"
           y="0"
           id="tspan226">(1,0)</tspan></text>
</g></g><path
     inkscape:connector-curvature="0"
     d="m 122.5,283.49999 h 120.99999 v -94 H 122.5 Z"
     style="fill:none;stroke:#000000;stroke-width:3;stroke-linecap:butt;stroke-linejoin:round;stroke-miterlimit:10;stroke-dasharray:none;stroke-opacity:1"
     id="path230" /><g
     id="g232"
     transform="matrix(1.3333333,0,0,-1.3333333,-238.00666,451.99332)"><g
       id="g234"
       clip-path="url(#clipPath238)"><text
         transform="matrix(1,0,0,-1,310.5,164.98)"
         style="font-variant:normal;font-weight:bold;font-size:18.02499962px;font-family:Arial;-inkscape-font-specification:Arial-BoldMT;writing-mode:lr-tb;fill:#0070c0;fill-opacity:1;fill-rule:nonzero;stroke:none"
         id="text242"><tspan
           x="0"
           y="0"
           id="tspan240">9</tspan></text>
</g></g><g
     id="g244"
     transform="matrix(1.3333333,0,0,-1.3333333,-238.00666,451.99332)"><g
       id="g246"
       clip-path="url(#clipPath250)"><text
         transform="matrix(1,0,0,-1,293.97,145.45)"
         style="font-variant:normal;font-weight:normal;font-size:15.77499962px;font-family:Consolas;-inkscape-font-specification:Consolas;writing-mode:lr-tb;fill:#000000;fill-opacity:1;fill-rule:nonzero;stroke:none"
         id="text254"><tspan
           x="0 9.0075254 18.015051 27.022575 35.304451"
           y="0"
           id="tspan252">(2,1)</tspan></text>
</g></g><path
     inkscape:connector-curvature="0"
     d="m 243.49999,283.49999 h 121 v -94 h -121 z"
     style="fill:none;stroke:#000000;stroke-width:3;stroke-linecap:butt;stroke-linejoin:round;stroke-miterlimit:10;stroke-dasharray:none;stroke-opacity:1"
     id="path256" /><g
     id="g258"
     transform="matrix(1.3333333,0,0,-1.3333333,-238.00666,451.99332)"><g
       id="g260"
       clip-path="url(#clipPath264)"><text
         transform="matrix(1,0,0,-1,396.78,164.98)"
         style="font-variant:normal;font-weight:bold;font-size:18.02499962px;font-family:Arial;-inkscape-font-specification:Arial-BoldMT;writing-mode:lr-tb;fill:#0070c0;fill-opacity:1;fill-rule:nonzero;stroke:none"
         id="text268"><tspan
           x="0 9.7498999"
           y="0"
           id="tspan266">10</tspan></text>
</g></g><g
     id="g270"
     transform="matrix(1.3333333,0,0,-1.3333333,-238.00666,451.99332)"><g
       id="g272"
       clip-path="url(#clipPath276)"><text
         transform="matrix(1,0,0,-1,384.75,145.45)"
         style="font-variant:normal;font-weight:normal;font-size:15.77499962px;font-family:Consolas;-inkscape-font-specification:Consolas;writing-mode:lr-tb;fill:#000000;fill-opacity:1;fill-rule:nonzero;stroke:none"
         id="text280"><tspan
           x="0 9.0075254 18.015051 27.022575 35.304451"
           y="0"
           id="tspan278">(2,2)</tspan></text>
</g></g><path
     inkscape:connector-curvature="0"
     d="m 364.49999,283.49999 h 121 v -94 h -121 z"
     style="fill:none;stroke:#000000;stroke-width:3;stroke-linecap:butt;stroke-linejoin:round;stroke-miterlimit:10;stroke-dasharray:none;stroke-opacity:1"
     id="path282" /><g
     id="g284"
     transform="matrix(1.3333333,0,0,-1.3333333,-238.00666,451.99332)"><g
       id="g286"
       clip-path="url(#clipPath290)"><text
         transform="matrix(1,0,0,-1,487.63,164.98)"
         style="font-variant:normal;font-weight:bold;font-size:18.02499962px;font-family:Arial;-inkscape-font-specification:Arial-BoldMT;writing-mode:lr-tb;fill:#0070c0;fill-opacity:1;fill-rule:nonzero;stroke:none"
         id="text294"><tspan
           x="0 9.0018997"
           y="0"
           id="tspan292">11</tspan></text>
</g></g><g
     id="g296"
     transform="matrix(1.3333333,0,0,-1.3333333,-238.00666,451.99332)"><g
       id="g298"
       clip-path="url(#clipPath302)"><text
         transform="matrix(1,0,0,-1,475.6,145.45)"
         style="font-variant:normal;font-weight:normal;font-size:15.77499962px;font-family:Consolas;-inkscape-font-specification:Consolas;writing-mode:lr-tb;fill:#000000;fill-opacity:1;fill-rule:nonzero;stroke:none"
         id="text306"><tspan
           x="0 9.0075254 18.015051 27.022575 35.304451"
           y="0"
           id="tspan304">(2,3)</tspan></text>
</g></g><path
     inkscape:connector-curvature="0"
     d="m 1.5,283.49999 h 121 v -94 H 1.5 Z"
     style="fill:none;stroke:#000000;stroke-width:3;stroke-linecap:butt;stroke-linejoin:round;stroke-miterlimit:10;stroke-dasharray:none;stroke-opacity:1"
     id="path308" /><g
     id="g310"
     transform="matrix(1.3333333,0,0,-1.3333333,-238.00666,451.99332)"><g
       id="g312"
       clip-path="url(#clipPath316)"><text
         transform="matrix(1,0,0,-1,219.85,164.98)"
         style="font-variant:normal;font-weight:bold;font-size:18.02499962px;font-family:Arial;-inkscape-font-specification:Arial-BoldMT;writing-mode:lr-tb;fill:#0070c0;fill-opacity:1;fill-rule:nonzero;stroke:none"
         id="text320"><tspan
           x="0"
           y="0"
           id="tspan318">8</tspan></text>
</g></g><g
     id="g322"
     transform="matrix(1.3333333,0,0,-1.3333333,-238.00666,451.99332)"><g
       id="g324"
       clip-path="url(#clipPath328)"><text
         transform="matrix(1,0,0,-1,203.33,145.45)"
         style="font-variant:normal;font-weight:normal;font-size:15.77499962px;font-family:Consolas;-inkscape-font-specification:Consolas;writing-mode:lr-tb;fill:#000000;fill-opacity:1;fill-rule:nonzero;stroke:none"
         id="text332"><tspan
           x="0 8.9917498 17.9835 26.97525 35.225574"
           y="0"
           id="tspan330">(2,0)</tspan></text>
</g></g><path
     inkscape:connector-curvature="0"
     d="m 122.5,376.49332 h 120.99999 v -94 H 122.5 Z"
     style="fill:none;stroke:#000000;stroke-width:3;stroke-linecap:butt;stroke-linejoin:round;stroke-miterlimit:10;stroke-dasharray:none;stroke-opacity:1"
     id="path334" /><g
     id="g336"
     transform="matrix(1.3333333,0,0,-1.3333333,-238.00666,451.99332)"><g
       id="g338"
       clip-path="url(#clipPath342)"><text
         transform="matrix(1,0,0,-1,306,94.525)"
         style="font-variant:normal;font-weight:bold;font-size:18.04999924px;font-family:Arial;-inkscape-font-specification:Arial-BoldMT;writing-mode:lr-tb;fill:#0070c0;fill-opacity:1;fill-rule:nonzero;stroke:none"
         id="text346"><tspan
           x="0 9.7497997"
           y="0"
           id="tspan344">13</tspan></text>
</g></g><g
     id="g348"
     transform="matrix(1.3333333,0,0,-1.3333333,-238.00666,451.99332)"><g
       id="g350"
       clip-path="url(#clipPath354)"><text
         transform="matrix(1,0,0,-1,293.97,74.975)"
         style="font-variant:normal;font-weight:normal;font-size:15.77499962px;font-family:Consolas;-inkscape-font-specification:Consolas;writing-mode:lr-tb;fill:#000000;fill-opacity:1;fill-rule:nonzero;stroke:none"
         id="text358"><tspan
           x="0 9.0075254 18.015051 27.022575 35.304451"
           y="0"
           id="tspan356">(3,1)</tspan></text>
</g></g><path
     inkscape:connector-curvature="0"
     d="m 243.49999,376.49332 h 121 v -94 h -121 z"
     style="fill:none;stroke:#000000;stroke-width:3;stroke-linecap:butt;stroke-linejoin:round;stroke-miterlimit:10;stroke-dasharray:none;stroke-opacity:1"
     id="path360" /><g
     id="g362"
     transform="matrix(1.3333333,0,0,-1.3333333,-238.00666,451.99332)"><g
       id="g364"
       clip-path="url(#clipPath368)"><text
         transform="matrix(1,0,0,-1,396.78,94.525)"
         style="font-variant:normal;font-weight:bold;font-size:18.04999924px;font-family:Arial;-inkscape-font-specification:Arial-BoldMT;writing-mode:lr-tb;fill:#0070c0;fill-opacity:1;fill-rule:nonzero;stroke:none"
         id="text372"><tspan
           x="0 9.7497997"
           y="0"
           id="tspan370">14</tspan></text>
</g></g><g
     id="g374"
     transform="matrix(1.3333333,0,0,-1.3333333,-238.00666,451.99332)"><g
       id="g376"
       clip-path="url(#clipPath380)"><text
         transform="matrix(1,0,0,-1,384.75,74.975)"
         style="font-variant:normal;font-weight:normal;font-size:15.77499962px;font-family:Consolas;-inkscape-font-specification:Consolas;writing-mode:lr-tb;fill:#000000;fill-opacity:1;fill-rule:nonzero;stroke:none"
         id="text384"><tspan
           x="0 9.0075254 18.015051 27.022575 35.304451"
           y="0"
           id="tspan382">(3,2)</tspan></text>
</g></g><path
     inkscape:connector-curvature="0"
     d="m 364.49999,376.49332 h 121 v -94 h -121 z"
     style="fill:none;stroke:#000000;stroke-width:3;stroke-linecap:butt;stroke-linejoin:round;stroke-miterlimit:10;stroke-dasharray:none;stroke-opacity:1"
     id="path386" /><g
     id="g388"
     transform="matrix(1.3333333,0,0,-1.3333333,-238.00666,451.99332)"><g
       id="g390"
       clip-path="url(#clipPath394)"><text
         transform="matrix(1,0,0,-1,487.63,94.525)"
         style="font-variant:normal;font-weight:bold;font-size:18.04999924px;font-family:Arial;-inkscape-font-specification:Arial-BoldMT;writing-mode:lr-tb;fill:#0070c0;fill-opacity:1;fill-rule:nonzero;stroke:none"
         id="text398"><tspan
           x="0 9.7497997"
           y="0"
           id="tspan396">15</tspan></text>
</g></g><g
     id="g400"
     transform="matrix(1.3333333,0,0,-1.3333333,-238.00666,451.99332)"><g
       id="g402"
       clip-path="url(#clipPath406)"><text
         transform="matrix(1,0,0,-1,475.6,74.975)"
         style="font-variant:normal;font-weight:normal;font-size:15.77499962px;font-family:Consolas;-inkscape-font-specification:Consolas;writing-mode:lr-tb;fill:#000000;fill-opacity:1;fill-rule:nonzero;stroke:none"
         id="text410"><tspan
           x="0 9.0075254 18.015051 27.022575 35.304451"
           y="0"
           id="tspan408">(3,3)</tspan></text>
</g></g><path
     inkscape:connector-curvature="0"
     d="m 1.5,376.49332 h 121 v -94 H 1.5 Z"
     style="fill:none;stroke:#000000;stroke-width:3;stroke-linecap:butt;stroke-linejoin:round;stroke-miterlimit:10;stroke-dasharray:none;stroke-opacity:1"
     id="path412" /><g
     id="g414"
     transform="matrix(1.3333333,0,0,-1.3333333,-238.00666,451.99332)"><g
       id="g416"
       clip-path="url(#clipPath420)"><text
         transform="matrix(1,0,0,-1,215.33,94.525)"
         style="font-variant:normal;font-weight:bold;font-size:18.04999924px;font-family:Arial;-inkscape-font-specification:Arial-BoldMT;writing-mode:lr-tb;fill:#0070c0;fill-opacity:1;fill-rule:nonzero;stroke:none"
         id="text424"><tspan
           x="0 9.7748003"
           y="0"
           id="tspan422">12</tspan></text>
</g></g><g
     id="g426"
     transform="matrix(1.3333333,0,0,-1.3333333,-238.00666,451.99332)"><g
       id="g428"
       clip-path="url(#clipPath432)"><text
         transform="matrix(1,0,0,-1,203.33,74.975)"
         style="font-variant:normal;font-weight:normal;font-size:15.77499962px;font-family:Consolas;-inkscape-font-specification:Consolas;writing-mode:lr-tb;fill:#000000;fill-opacity:1;fill-rule:nonzero;stroke:none"
         id="text436"><tspan
           x="0 8.9917498 17.9835 26.97525 35.225574"
           y="0"
           id="tspan434">(3,0)</tspan></text>
</g></g></svg>