<?xml version="1.0" encoding="UTF-8" standalone="no"?>
<svg
   xmlns:dc="http://purl.org/dc/elements/1.1/"
   xmlns:cc="http://creativecommons.org/ns#"
   xmlns:rdf="http://www.w3.org/1999/02/22-rdf-syntax-ns#"
   xmlns:svg="http://www.w3.org/2000/svg"
   xmlns="http://www.w3.org/2000/svg"
   xmlns:sodipodi="http://sodipodi.sourceforge.net/DTD/sodipodi-0.dtd"
   xmlns:inkscape="http://www.inkscape.org/namespaces/inkscape"
   viewBox="0 0 960 600"
   height="600"
   width="960"
   xml:space="preserve"
   id="svg2"
   version="1.1"
   sodipodi:docname="pie_chart.svg"
   inkscape:version="0.92.2 (5c3e80d, 2017-08-06)"><sodipodi:namedview
     pagecolor="#ffffff"
     bordercolor="#666666"
     borderopacity="1"
     objecttolerance="10"
     gridtolerance="10"
     guidetolerance="10"
     inkscape:pageopacity="0"
     inkscape:pageshadow="2"
     inkscape:window-width="1920"
     inkscape:window-height="981"
     id="namedview42"
     showgrid="false"
     inkscape:zoom="0.91923881"
     inkscape:cx="486.15385"
     inkscape:cy="300"
     inkscape:window-x="0"
     inkscape:window-y="28"
     inkscape:window-maximized="1"
     inkscape:current-layer="svg2" /><metadata
     id="metadata8"><rdf:RDF><cc:Work
         rdf:about=""><dc:format>image/svg+xml</dc:format><dc:type
           rdf:resource="http://purl.org/dc/dcmitype/StillImage" /><dc:title></dc:title></cc:Work></rdf:RDF></metadata><defs
     id="defs6"><clipPath
       id="clipPath18"
       clipPathUnits="userSpaceOnUse"><path
         style="clip-rule:evenodd"
         id="path16"
         d="M 0,0 H 720 V 450 H 0 Z" /></clipPath><clipPath
       clipPathUnits="userSpaceOnUse"
       id="clipPath48"><rect
         id="rect50"
         width="320.76926"
         height="320.76926"
         x="195.57692"
         y="-362.88461"
         style="stroke-width:0.69966441"
         transform="scale(1,-1)" /></clipPath></defs><g
     transform="matrix(1.3333333,0,0,-1.3333333,-1.0878566,563.01288)"
     id="g10"
     clip-path="url(#clipPath48)"><g
       id="g12"><g
         clip-path="url(#clipPath18)"
         id="g14"><path
           id="path20"
           style="fill:#ffffff;fill-opacity:1;fill-rule:evenodd;stroke:none"
           d="M 0,450 H 720 V 0 H 0 Z"
           inkscape:connector-curvature="0" /><path
           id="path22"
           style="fill:#ffffff;fill-opacity:1;fill-rule:evenodd;stroke:none"
           d="M 0,450 H 720 V 0 H 0 Z"
           inkscape:connector-curvature="0" /><path
           id="path24"
           style="fill:#4b247b;fill-opacity:1;fill-rule:evenodd;stroke:none"
           d="m 237.3,156.3 c 4.2,-11.6 9.9,-22.5 17.2,-32.4 8,-11.1 17.7,-20.8 28.8,-28.9 11.1,-8 23.4,-14.3 36.4,-18.5 13,-4.2 26.6,-6.4 40.3,-6.4 13.6,0 27.2,2.2 40.3,6.4 13,4.2 25.2,10.5 36.3,18.5 11.1,8.1 20.8,17.8 28.8,28.9 8.1,11 14.3,23.3 18.6,36.3 4.2,13 6.4,26.6 6.4,40.3 0,13.7 -2.2,27.3 -6.4,40.3 -4.3,13 -10.5,25.3 -18.6,36.3 -8,11.1 -17.7,20.8 -28.8,28.9 -11.1,8.1 -23.3,14.3 -36.3,18.5 -13.1,4.3 -26.7,6.4 -40.3,6.4 v -130.4 0 0 0 0 0 0 0 0 0 0 0 0 0 0 z"
           inkscape:connector-curvature="0" /><g
           id="g26"><path
             id="path28"
             style="fill:none;stroke:#ffffff;stroke-width:1.49983001;stroke-linecap:butt;stroke-linejoin:round;stroke-miterlimit:10;stroke-dasharray:none;stroke-opacity:1"
             d="m 237.3,156.3 c 4.2,-11.6 9.9,-22.5 17.2,-32.4 8,-11.1 17.7,-20.8 28.8,-28.9 11.1,-8 23.4,-14.3 36.4,-18.5 13,-4.2 26.6,-6.4 40.3,-6.4 13.6,0 27.2,2.2 40.3,6.4 13,4.2 25.2,10.5 36.3,18.5 11.1,8.1 20.8,17.8 28.8,28.9 8.1,11 14.3,23.3 18.6,36.3 4.2,13 6.4,26.6 6.4,40.3 0,13.7 -2.2,27.3 -6.4,40.3 -4.3,13 -10.5,25.3 -18.6,36.3 -8,11.1 -17.7,20.8 -28.8,28.9 -11.1,8.1 -23.3,14.3 -36.3,18.5 -13.1,4.3 -26.7,6.4 -40.3,6.4 v -130.4 0 0 0 0 0 0 0 0 0 0 0 0 0 0 z"
             inkscape:connector-curvature="0" /></g><path
           id="path30"
           style="fill:#a4a7a6;fill-opacity:1;fill-rule:evenodd;stroke:none"
           d="m 332.4,328 c -4.3,-1 -8.5,-2.1 -12.7,-3.5 -13,-4.2 -25.3,-10.4 -36.4,-18.5 -11.1,-8.1 -20.8,-17.8 -28.8,-28.9 -8.1,-11 -14.3,-23.3 -18.5,-36.3 -4.3,-13 -6.4,-26.6 -6.4,-40.3 0,-13.7 2.1,-27.3 6.4,-40.3 0.4,-1.3 0.8,-2.6 1.3,-3.9 L 360,200.5 v 0 0 0 0 0 0 0 z"
           inkscape:connector-curvature="0" /><g
           id="g32"><path
             id="path34"
             style="fill:none;stroke:#ffffff;stroke-width:1.49983001;stroke-linecap:butt;stroke-linejoin:round;stroke-miterlimit:10;stroke-dasharray:none;stroke-opacity:1"
             d="m 332.4,328 c -4.3,-1 -8.5,-2.1 -12.7,-3.5 -13,-4.2 -25.3,-10.4 -36.4,-18.5 -11.1,-8.1 -20.8,-17.8 -28.8,-28.9 -8.1,-11 -14.3,-23.3 -18.5,-36.3 -4.3,-13 -6.4,-26.6 -6.4,-40.3 0,-13.7 2.1,-27.3 6.4,-40.3 0.4,-1.3 0.8,-2.6 1.3,-3.9 L 360,200.5 v 0 0 0 0 0 0 0 z"
             inkscape:connector-curvature="0" /></g><path
           id="path36"
           style="fill:#f2c8d6;fill-opacity:1;fill-rule:evenodd;stroke:none"
           d="m 360,330.9 c -9.3,0 -18.5,-1 -27.6,-2.9 L 360,200.5 v 0 z"
           inkscape:connector-curvature="0" /><g
           id="g38"><path
             id="path40"
             style="fill:none;stroke:#ffffff;stroke-width:1.49983001;stroke-linecap:butt;stroke-linejoin:round;stroke-miterlimit:10;stroke-dasharray:none;stroke-opacity:1"
             d="m 360,330.9 c -9.3,0 -18.5,-1 -27.6,-2.9 L 360,200.5 v 0 z"
             inkscape:connector-curvature="0" /></g><g
           id="g42"><text
             id="text46"
             style="font-variant:normal;font-weight:normal;font-size:18.60000038px;font-family:'Liberation Sans';-inkscape-font-specification:LiberationSans;writing-mode:lr-tb;fill:#595959;fill-opacity:1;fill-rule:nonzero;stroke:none"
             transform="matrix(1,0,0,-1,336.8,347)"><tspan
               id="tspan44"
               y="0"
               x="0 11.1972 21.687599 31.378201 36.660599">Facts</tspan></text>
</g><path
           id="path48"
           style="fill:#4b247b;fill-opacity:1;fill-rule:evenodd;stroke:none"
           d="m 227.7,50.5 h -3.6 v 7.2 h 7.2 v -7.2 z"
           inkscape:connector-curvature="0" /><g
           id="g50"><path
             id="path52"
             style="fill:none;stroke:#ffffff;stroke-width:0.75;stroke-linecap:butt;stroke-linejoin:round;stroke-miterlimit:10;stroke-dasharray:none;stroke-opacity:1"
             d="m 227.7,50.5 h -3.6 v 7.2 h 7.2 v -7.2 z"
             inkscape:connector-curvature="0" /></g><path
           id="path54"
           style="fill:#a4a7a6;fill-opacity:1;fill-rule:evenodd;stroke:none"
           d="m 265.2,50.5 h -3.6 v 7.2 h 7.2 v -7.2 z"
           inkscape:connector-curvature="0" /><g
           id="g56"><path
             id="path58"
             style="fill:none;stroke:#ffffff;stroke-width:0.75;stroke-linecap:butt;stroke-linejoin:round;stroke-miterlimit:10;stroke-dasharray:none;stroke-opacity:1"
             d="m 265.2,50.5 h -3.6 v 7.2 h 7.2 v -7.2 z"
             inkscape:connector-curvature="0" /></g><path
           id="path60"
           style="fill:#f2c8d6;fill-opacity:1;fill-rule:evenodd;stroke:none"
           d="m 433.8,50.5 h -3.6 v 7.2 h 7.2 v -7.2 z"
           inkscape:connector-curvature="0" /><g
           id="g62"><path
             id="path64"
             style="fill:none;stroke:#ffffff;stroke-width:0.75;stroke-linecap:butt;stroke-linejoin:round;stroke-miterlimit:10;stroke-dasharray:none;stroke-opacity:1"
             d="m 433.8,50.5 h -3.6 v 7.2 h 7.2 v -7.2 z"
             inkscape:connector-curvature="0" /></g><g
           id="g66"><text
             id="text70"
             style="font-variant:normal;font-weight:normal;font-size:12px;font-family:'Liberation Sans';-inkscape-font-specification:LiberationSans;writing-mode:lr-tb;fill:#595959;fill-opacity:1;fill-rule:nonzero;stroke:none"
             transform="matrix(1,0,0,-1,234.1,50)"><tspan
               id="tspan68"
               y="0"
               x="0 6.8039999 13.488">Yes</tspan></text>
</g><g
           id="g72"><text
             id="text76"
             style="font-variant:normal;font-weight:normal;font-size:12px;font-family:'Liberation Sans';-inkscape-font-specification:LiberationSans;writing-mode:lr-tb;fill:#595959;fill-opacity:1;fill-rule:nonzero;stroke:none"
             transform="matrix(1,0,0,-1,271.6,50)"><tspan
               id="tspan74"
               y="0"
               x="0 8.184 11.172 17.256001 23.940001 26.940001 32.939999 39.624001 45.624001 48.624001 55.416 62.099998 65.099998 68.099998 71.183998 77.867996 80.867996 87.552002 94.344002 101.028 104.028 110.82 117.504 121.308 124.308 130.308 136.992 139.98 146.772">Also yes but in another color</tspan></text>
</g><g
           id="g78"><text
             id="text82"
             style="font-variant:normal;font-weight:normal;font-size:12px;font-family:'Liberation Sans';-inkscape-font-specification:LiberationSans;writing-mode:lr-tb;fill:#595959;fill-opacity:1;fill-rule:nonzero;stroke:none"
             transform="matrix(1,0,0,-1,440.2,50)"><tspan
               id="tspan80"
               y="0"
               x="0 9.8039999 16.488001 22.572001 29.256001 35.939999 39.035999 45.720001 52.403999">Maybe not</tspan></text>
</g></g></g></g></svg>