<?xml version="1.0" encoding="UTF-8" standalone="no"?>
<svg
   xmlns:dc="http://purl.org/dc/elements/1.1/"
   xmlns:cc="http://creativecommons.org/ns#"
   xmlns:rdf="http://www.w3.org/1999/02/22-rdf-syntax-ns#"
   xmlns:svg="http://www.w3.org/2000/svg"
   xmlns="http://www.w3.org/2000/svg"
   xmlns:sodipodi="http://sodipodi.sourceforge.net/DTD/sodipodi-0.dtd"
   xmlns:inkscape="http://www.inkscape.org/namespaces/inkscape"
   viewBox="0 0 871.95416 465.35711"
   height="465.35712"
   width="871.95416"
   xml:space="preserve"
   id="svg2"
   version="1.1"
   sodipodi:docname="racecond.svg"
   inkscape:version="0.92.2 (5c3e80d, 2017-08-06)"><sodipodi:namedview
     pagecolor="#ffffff"
     bordercolor="#666666"
     borderopacity="1"
     objecttolerance="10"
     gridtolerance="10"
     guidetolerance="10"
     inkscape:pageopacity="0"
     inkscape:pageshadow="2"
     inkscape:window-width="1920"
     inkscape:window-height="1043"
     id="namedview477"
     showgrid="false"
     fit-margin-top="0"
     fit-margin-left="0"
     fit-margin-right="0"
     fit-margin-bottom="0"
     inkscape:zoom="0.83356662"
     inkscape:cx="544.7047"
     inkscape:cy="108.55447"
     inkscape:window-x="0"
     inkscape:window-y="0"
     inkscape:window-maximized="1"
     inkscape:current-layer="g14" /><metadata
     id="metadata8"><rdf:RDF><cc:Work
         rdf:about=""><dc:format>image/svg+xml</dc:format><dc:type
           rdf:resource="http://purl.org/dc/dcmitype/StillImage" /><dc:title></dc:title></cc:Work></rdf:RDF></metadata><defs
     id="defs6"><clipPath
       id="clipPath18"
       clipPathUnits="userSpaceOnUse"><path
         style="clip-rule:evenodd"
         id="path16"
         d="M 0,-0.2 H 793.6 V 595 H 0 Z"
         inkscape:connector-curvature="0" /></clipPath><clipPath
       id="clipPath32"
       clipPathUnits="userSpaceOnUse"><path
         id="path30"
         d="m 31.8,214.4 h 9 v 188.7 h -9 z"
         inkscape:connector-curvature="0" /></clipPath><clipPath
       id="clipPath56"
       clipPathUnits="userSpaceOnUse"><path
         id="path54"
         d="M 147.7,364.3 H 269 v 28.6 H 147.7 Z"
         inkscape:connector-curvature="0" /></clipPath><clipPath
       id="clipPath116"
       clipPathUnits="userSpaceOnUse"><path
         id="path114"
         d="M 147.7,331.4 H 320.1 V 360 H 147.7 Z"
         inkscape:connector-curvature="0" /></clipPath><clipPath
       id="clipPath176"
       clipPathUnits="userSpaceOnUse"><path
         id="path174"
         d="m 147.7,267.1 h 127 v 28.6 h -127 z"
         inkscape:connector-curvature="0" /></clipPath><clipPath
       id="clipPath260"
       clipPathUnits="userSpaceOnUse"><path
         id="path258"
         d="m 397.9,331.9 h 121.3 v 28.6 H 397.9 Z"
         inkscape:connector-curvature="0" /></clipPath><clipPath
       id="clipPath320"
       clipPathUnits="userSpaceOnUse"><path
         id="path318"
         d="m 397.9,299.5 h 172.4 v 28.6 H 397.9 Z"
         inkscape:connector-curvature="0" /></clipPath><clipPath
       id="clipPath380"
       clipPathUnits="userSpaceOnUse"><path
         id="path378"
         d="m 397.9,234.3 h 127 v 28.6 h -127 z"
         inkscape:connector-curvature="0" /></clipPath><clipPath
       id="clipPath464"
       clipPathUnits="userSpaceOnUse"><path
         id="path462"
         d="m 210.1,398.2 h 133.3 v 47.4 H 210.1 Z"
         inkscape:connector-curvature="0" /></clipPath><clipPath
       id="clipPath488"
       clipPathUnits="userSpaceOnUse"><path
         id="path486"
         d="m 341.4,365.2 h 118.2 v 80.4 H 341.4 Z"
         inkscape:connector-curvature="0" /></clipPath><clipPath
       id="clipPath512"
       clipPathUnits="userSpaceOnUse"><path
         id="path510"
         d="m 498.1,432.1 h 183.5 v 76.7 H 498.1 Z"
         inkscape:connector-curvature="0" /></clipPath><clipPath
       id="clipPath624"
       clipPathUnits="userSpaceOnUse"><path
         id="path622"
         d="m 207.3,196.4 h 141.8 v 70.2 H 207.3 Z"
         inkscape:connector-curvature="0" /></clipPath><clipPath
       id="clipPath648"
       clipPathUnits="userSpaceOnUse"><path
         id="path646"
         d="m 347.1,196.2 h 115.3 v 36.3 H 347.1 Z"
         inkscape:connector-curvature="0" /></clipPath><clipPath
       id="clipPath672"
       clipPathUnits="userSpaceOnUse"><path
         id="path670"
         d="m 339.4,443.4 h 6.1 v 33.8 h -6.1 z"
         inkscape:connector-curvature="0" /></clipPath><clipPath
       id="clipPath696"
       clipPathUnits="userSpaceOnUse"><path
         id="path694"
         d="m 345.1,164.7 h 6.1 v 33.8 h -6.1 z"
         inkscape:connector-curvature="0" /></clipPath><clipPath
       id="clipPath720"
       clipPathUnits="userSpaceOnUse"><path
         id="path718"
         d="m 26.4,411 h 39.4 v 14 H 26.4 Z"
         inkscape:connector-curvature="0" /></clipPath><clipPath
       id="clipPath744"
       clipPathUnits="userSpaceOnUse"><path
         id="path742"
         d="m 52.9,362.2 h 556.4 v 0.9 H 52.9 Z"
         inkscape:connector-curvature="0" /></clipPath><clipPath
       id="clipPath764"
       clipPathUnits="userSpaceOnUse"><path
         id="path762"
         d="m 52.9,330 h 556.4 v 0.9 H 52.9 Z"
         inkscape:connector-curvature="0" /></clipPath><clipPath
       id="clipPath784"
       clipPathUnits="userSpaceOnUse"><path
         id="path782"
         d="m 52.9,297.3 h 556.4 v 0.9 H 52.9 Z"
         inkscape:connector-curvature="0" /></clipPath><clipPath
       id="clipPath804"
       clipPathUnits="userSpaceOnUse"><path
         id="path802"
         d="m 52.9,232.7 h 556.4 v 0.9 H 52.9 Z"
         inkscape:connector-curvature="0" /></clipPath><clipPath
       id="clipPath824"
       clipPathUnits="userSpaceOnUse"><path
         id="path822"
         d="m 52.9,265 h 556.4 v 0.9 H 52.9 Z"
         inkscape:connector-curvature="0" /></clipPath><clipPath
       id="clipPath844"
       clipPathUnits="userSpaceOnUse"><path
         id="path842"
         d="m 52.9,394.6 h 556.4 v 0.9 H 52.9 Z"
         inkscape:connector-curvature="0" /></clipPath><clipPath
       id="clipPath864"
       clipPathUnits="userSpaceOnUse"><path
         id="path862"
         d="m 379.2,159.3 h 62.6 v 37 h -62.6 z"
         inkscape:connector-curvature="0" /></clipPath><clipPath
       id="clipPath912"
       clipPathUnits="userSpaceOnUse"><path
         id="path910"
         d="m 157.8,410.6 h 71 v 14.2 h -71 z"
         inkscape:connector-curvature="0" /></clipPath><clipPath
       id="clipPath936"
       clipPathUnits="userSpaceOnUse"><path
         id="path934"
         d="m 421.9,410.8 h 70.6 V 425 h -70.6 z"
         inkscape:connector-curvature="0" /></clipPath></defs><g
     transform="matrix(1.3333333,0,0,-1.3333333,-35.245832,681.62378)"
     id="g10"><g
       id="g12"><g
         clip-path="url(#clipPath18)"
         id="g14"><g
           id="g22" /><g
           id="g24" /><g
           id="g44"
           transform="translate(-0.31810867,0.31810904)"><path
             id="path46"
             style="fill:none;stroke:#525e66;stroke-width:2.99979997;stroke-linecap:butt;stroke-linejoin:round;stroke-miterlimit:10;stroke-dasharray:none;stroke-opacity:1"
             d="M 36.2,403.1 36.3,226"
             inkscape:connector-curvature="0" /></g><path
           id="path48"
           style="fill:#525e66;fill-opacity:1;fill-rule:evenodd;stroke:none"
           d="m 36.3,217.5 -4.5,9.1 h 9 z"
           inkscape:connector-curvature="0" /><g
           id="g86"><path
             id="path88"
             style="fill:none;stroke:#de5299;stroke-width:2.23569989;stroke-linecap:butt;stroke-linejoin:round;stroke-miterlimit:10;stroke-dasharray:none;stroke-opacity:1"
             d="m 148.8,389.1 v 0 0.3 0.2 0.2 0.3 l 0.1,0.2 0.1,0.2 v 0.2 l 0.1,0.2 0.1,0.2 0.2,0.2 0.1,0.2 0.1,0.2 0.1,0.2 0.2,0.2 0.1,0.1 0.2,0.2 0.2,0.1 0.1,0.2 0.2,0.1 0.2,0.1 0.2,0.1 0.2,0.1 0.3,0.1 0.2,0.1 0.2,0.1 h 0.2 l 0.2,0.1 h 0.3 0.2 0.2 110.3 v 0 h 0.3 0.2 0.2 l 0.2,-0.1 h 0.3 l 0.2,-0.1 0.2,-0.1 0.2,-0.1 0.2,-0.1 0.2,-0.1 0.2,-0.1 0.2,-0.1 0.2,-0.2 0.1,-0.1 0.2,-0.2 0.2,-0.1 0.1,-0.2 0.2,-0.2 0.1,-0.2 0.1,-0.2 0.1,-0.2 0.1,-0.2 0.1,-0.2 0.1,-0.2 v -0.2 l 0.1,-0.2 v -0.3 l 0.1,-0.2 v -0.2 -0.3 -17.4 0 -0.2 -0.2 -0.3 l -0.1,-0.2 v -0.2 l -0.1,-0.2 -0.1,-0.2 -0.1,-0.3 -0.1,-0.2 -0.1,-0.2 -0.1,-0.2 -0.1,-0.2 -0.1,-0.1 -0.2,-0.2 -0.2,-0.2 -0.1,-0.1 -0.2,-0.2 -0.2,-0.1 -0.2,-0.1 -0.2,-0.2 -0.2,-0.1 -0.2,-0.1 -0.2,-0.1 h -0.2 l -0.2,-0.1 -0.2,-0.1 h -0.3 -0.2 l -0.2,-0.1 h -0.2 -110.4 v 0 h -0.2 -0.2 l -0.3,0.1 h -0.2 l -0.2,0.1 h -0.2 l -0.2,0.1 -0.3,0.1 -0.2,0.1 -0.2,0.1 -0.2,0.1 -0.2,0.1 -0.1,0.2 -0.2,0.2 -0.2,0.1 -0.1,0.2 -0.2,0.1 -0.1,0.2 -0.1,0.2 -0.1,0.2 -0.2,0.2 -0.1,0.2 -0.1,0.2 v 0.2 l -0.1,0.3 -0.1,0.2 v 0.2 0.2 0.3 0.2 z"
             inkscape:connector-curvature="0" /></g><g
           id="g90"><path
             id="path92"
             style="fill:none;stroke:#de5299;stroke-width:2.23569989;stroke-linecap:butt;stroke-linejoin:round;stroke-miterlimit:10;stroke-dasharray:none;stroke-opacity:1"
             d="M 148.8,393.5 Z"
             inkscape:connector-curvature="0" /></g><g
           id="g94"><path
             id="path96"
             style="fill:none;stroke:#de5299;stroke-width:2.23569989;stroke-linecap:butt;stroke-linejoin:round;stroke-miterlimit:10;stroke-dasharray:none;stroke-opacity:1"
             d="M 267.8,367.3 Z"
             inkscape:connector-curvature="0" /></g><g
           id="g98"><text
             id="text102"
             style="font-variant:normal;font-weight:normal;font-size:20px;font-family:Carlito;-inkscape-font-specification:Carlito;writing-mode:lr-tb;fill:#000000;fill-opacity:1;fill-rule:nonzero;stroke:none"
             transform="matrix(1,0,0,-1,162,372.4)"><tspan
               id="tspan100"
               y="0"
               x="0 10.6 20.58 30.16 40.66">Read </tspan></text>
</g><g
           id="g104"><text
             id="text108"
             style="font-variant:normal;font-weight:bold;font-size:20px;font-family:Carlito;-inkscape-font-specification:Carlito-Bold;writing-mode:lr-tb;fill:#000000;fill-opacity:1;fill-rule:nonzero;stroke:none"
             transform="matrix(1,0,0,-1,207.3,372.4)"><tspan
               id="tspan106"
               y="0"
               x="0 9.8000002 14.38 32.48 36.98">a → 0</tspan></text>
</g><g
           id="g146"><path
             id="path148"
             style="fill:none;stroke:#de5299;stroke-width:2.23569989;stroke-linecap:butt;stroke-linejoin:round;stroke-miterlimit:10;stroke-dasharray:none;stroke-opacity:1"
             d="m 148.8,356.2 v 0 0.3 0.2 0.2 l 0.1,0.2 v 0.3 l 0.1,0.2 0.1,0.2 0.1,0.2 0.1,0.2 0.1,0.2 0.1,0.2 0.1,0.2 0.2,0.2 0.1,0.2 0.2,0.1 0.1,0.2 0.2,0.1 0.2,0.2 0.2,0.1 0.2,0.1 0.2,0.1 0.2,0.1 0.2,0.1 0.2,0.1 0.2,0.1 h 0.2 0.3 l 0.2,0.1 h 0.2 0.3 161.3 v 0 h 0.2 0.3 l 0.2,-0.1 h 0.2 0.2 l 0.3,-0.1 0.2,-0.1 0.2,-0.1 0.2,-0.1 0.2,-0.1 0.2,-0.1 0.2,-0.1 0.2,-0.2 0.1,-0.1 0.2,-0.2 0.1,-0.1 0.2,-0.2 0.1,-0.2 0.2,-0.2 0.1,-0.2 0.1,-0.2 0.1,-0.2 0.1,-0.2 v -0.2 l 0.1,-0.2 0.1,-0.3 v -0.2 -0.2 l 0.1,-0.2 v -0.3 -17.4 0 -0.2 -0.2 l -0.1,-0.3 v -0.2 -0.2 l -0.1,-0.3 -0.1,-0.2 -0.1,-0.2 -0.1,-0.2 -0.1,-0.2 -0.1,-0.2 -0.1,-0.2 -0.2,-0.1 -0.1,-0.2 -0.2,-0.2 -0.1,-0.1 -0.2,-0.2 -0.2,-0.1 -0.2,-0.2 -0.2,-0.1 -0.2,-0.1 -0.2,-0.1 -0.2,-0.1 h -0.2 l -0.2,-0.1 -0.3,-0.1 h -0.2 -0.2 l -0.2,-0.1 h -0.3 -161.3 v 0 h -0.3 -0.2 l -0.2,0.1 h -0.3 l -0.2,0.1 h -0.2 l -0.2,0.1 -0.2,0.1 -0.2,0.1 -0.2,0.1 -0.2,0.1 -0.2,0.1 -0.2,0.2 -0.2,0.1 -0.1,0.2 -0.2,0.2 -0.1,0.1 -0.2,0.2 -0.1,0.2 -0.1,0.2 -0.1,0.2 -0.1,0.2 -0.1,0.2 -0.1,0.2 -0.1,0.2 v 0.3 l -0.1,0.2 v 0.2 0.2 0.3 z"
             inkscape:connector-curvature="0" /></g><g
           id="g150"><path
             id="path152"
             style="fill:none;stroke:#de5299;stroke-width:2.23569989;stroke-linecap:butt;stroke-linejoin:round;stroke-miterlimit:10;stroke-dasharray:none;stroke-opacity:1"
             d="M 148.8,360.6 Z"
             inkscape:connector-curvature="0" /></g><g
           id="g154"><path
             id="path156"
             style="fill:none;stroke:#de5299;stroke-width:2.23569989;stroke-linecap:butt;stroke-linejoin:round;stroke-miterlimit:10;stroke-dasharray:none;stroke-opacity:1"
             d="M 318.9,334.4 Z"
             inkscape:connector-curvature="0" /></g><g
           id="g158"><text
             id="text162"
             style="font-variant:normal;font-weight:normal;font-size:20px;font-family:Carlito;-inkscape-font-specification:Carlito;writing-mode:lr-tb;fill:#000000;fill-opacity:1;fill-rule:nonzero;stroke:none"
             transform="matrix(1,0,0,-1,160.2,339.5)"><tspan
               id="tspan160"
               y="0"
               x="0 10.6 21.18 37.080002 47.66 58.240002 64.739998 74.639999">Compute </tspan></text>
</g><g
           id="g164"><text
             id="text168"
             style="font-variant:normal;font-weight:bold;font-size:20px;font-family:Carlito;-inkscape-font-specification:Carlito-Bold;writing-mode:lr-tb;fill:#000000;fill-opacity:1;fill-rule:nonzero;stroke:none"
             transform="matrix(1,0,0,-1,239.5,339.5)"><tspan
               id="tspan166"
               y="0"
               x="0 9.8000002 14.38 24.280001 28.860001 38.66 43.240002 53.220001 57.720001">a = a + 1</tspan></text>
</g><g
           id="g218"><path
             id="path220"
             style="fill:none;stroke:#de5299;stroke-width:2.23569989;stroke-linecap:butt;stroke-linejoin:round;stroke-miterlimit:10;stroke-dasharray:none;stroke-opacity:1"
             d="m 148.8,291.9 v 0 0.2 0.3 0.2 0.2 l 0.1,0.3 0.1,0.2 v 0.2 l 0.1,0.2 0.1,0.2 0.2,0.2 0.1,0.2 0.1,0.2 0.1,0.2 0.2,0.1 0.1,0.2 0.2,0.2 0.2,0.1 0.1,0.2 0.2,0.1 0.2,0.1 0.2,0.1 0.2,0.1 0.3,0.1 0.2,0.1 h 0.2 l 0.2,0.1 h 0.2 l 0.3,0.1 h 0.2 0.2 116 v 0 h 0.2 0.2 l 0.3,-0.1 h 0.2 l 0.2,-0.1 h 0.3 l 0.2,-0.1 0.2,-0.1 0.2,-0.1 0.2,-0.1 0.2,-0.1 0.2,-0.1 0.1,-0.2 0.2,-0.1 0.2,-0.2 0.1,-0.2 0.2,-0.1 0.1,-0.2 0.1,-0.2 0.2,-0.2 0.1,-0.2 0.1,-0.2 0.1,-0.2 v -0.2 l 0.1,-0.2 0.1,-0.3 v -0.2 -0.2 l 0.1,-0.3 v -0.2 -17.4 0 -0.2 -0.3 l -0.1,-0.2 v -0.2 l -0.1,-0.2 v -0.3 l -0.1,-0.2 -0.1,-0.2 -0.1,-0.2 -0.1,-0.2 -0.1,-0.2 -0.1,-0.2 -0.2,-0.2 -0.1,-0.1 -0.2,-0.2 -0.2,-0.1 -0.1,-0.2 -0.2,-0.2 -0.2,-0.1 -0.2,-0.1 -0.2,-0.1 -0.2,-0.1 -0.2,-0.1 -0.2,-0.1 h -0.2 l -0.3,-0.1 h -0.2 l -0.2,-0.1 h -0.3 -0.2 -116 v 0 h -0.2 -0.2 -0.3 l -0.2,0.1 H 152 l -0.2,0.1 -0.2,0.1 -0.3,0.1 -0.2,0.1 -0.2,0.1 -0.2,0.1 -0.2,0.1 -0.1,0.2 -0.2,0.1 -0.2,0.2 -0.1,0.1 -0.2,0.2 -0.1,0.2 -0.1,0.2 -0.1,0.2 -0.2,0.2 -0.1,0.2 -0.1,0.2 v 0.2 l -0.1,0.2 -0.1,0.3 v 0.2 0.2 0.2 0.3 z"
             inkscape:connector-curvature="0" /></g><g
           id="g222"><path
             id="path224"
             style="fill:none;stroke:#de5299;stroke-width:2.23569989;stroke-linecap:butt;stroke-linejoin:round;stroke-miterlimit:10;stroke-dasharray:none;stroke-opacity:1"
             d="M 148.8,296.3 Z"
             inkscape:connector-curvature="0" /></g><g
           id="g226"><path
             id="path228"
             style="fill:none;stroke:#de5299;stroke-width:2.23569989;stroke-linecap:butt;stroke-linejoin:round;stroke-miterlimit:10;stroke-dasharray:none;stroke-opacity:1"
             d="M 273.5,270.1 Z"
             inkscape:connector-curvature="0" /></g><g
           id="g230"><text
             id="text234"
             style="font-variant:normal;font-weight:normal;font-size:20px;font-family:Carlito;-inkscape-font-specification:Carlito;writing-mode:lr-tb;fill:#000000;fill-opacity:1;fill-rule:nonzero;stroke:none"
             transform="matrix(1,0,0,-1,157.1,275.2)"><tspan
               id="tspan232"
               y="0"
               x="0 17.299999 24.280001 28.780001 35.279999 45.259998">Write </tspan></text>
</g><g
           id="g236"><text
             id="text240"
             style="font-variant:normal;font-weight:bold;font-size:20px;font-family:'DejaVu Sans Mono';-inkscape-font-specification:DejaVuSansMono-Bold;writing-mode:lr-tb;fill:#000000;fill-opacity:1;fill-rule:nonzero;stroke:none"
             transform="matrix(1,0,0,-1,206.9,275.2)"><tspan
               id="tspan238"
               y="0"
               x="0">a</tspan></text>
</g><g
           id="g242"><text
             id="text246"
             style="font-variant:normal;font-weight:bold;font-size:20px;font-family:Carlito;-inkscape-font-specification:Carlito-Bold;writing-mode:lr-tb;fill:#000000;fill-opacity:1;fill-rule:nonzero;stroke:none"
             transform="matrix(1,0,0,-1,223.6,275.2)"><tspan
               id="tspan244"
               y="0"
               x="0 18.1">← </tspan></text>
</g><g
           id="g248"><text
             id="text252"
             style="font-variant:normal;font-weight:bold;font-size:20px;font-family:'DejaVu Sans Mono';-inkscape-font-specification:DejaVuSansMono-Bold;writing-mode:lr-tb;fill:#000000;fill-opacity:1;fill-rule:nonzero;stroke:none"
             transform="matrix(1,0,0,-1,246.3,275.2)"><tspan
               id="tspan250"
               y="0"
               x="0">1</tspan></text>
</g><g
           id="g290"><path
             id="path292"
             style="fill:none;stroke:#00b0f0;stroke-width:2.23569989;stroke-linecap:butt;stroke-linejoin:round;stroke-miterlimit:10;stroke-dasharray:none;stroke-opacity:1"
             d="m 399,356.7 v 0 0.2 0.3 0.2 l 0.1,0.2 v 0.3 l 0.1,0.2 0.1,0.2 v 0.2 l 0.2,0.2 0.1,0.2 0.1,0.2 0.1,0.2 0.1,0.2 0.2,0.1 0.2,0.2 0.1,0.2 0.2,0.1 0.2,0.2 0.2,0.1 0.2,0.1 0.2,0.1 0.2,0.1 0.2,0.1 0.2,0.1 h 0.2 l 0.2,0.1 h 0.3 l 0.2,0.1 h 0.2 0.2 110.3 v 0 h 0.3 0.2 l 0.2,-0.1 h 0.2 l 0.3,-0.1 h 0.2 l 0.2,-0.1 0.2,-0.1 0.2,-0.1 0.2,-0.1 0.2,-0.1 0.2,-0.1 0.2,-0.2 0.2,-0.1 0.1,-0.2 0.2,-0.2 0.1,-0.1 0.2,-0.2 0.1,-0.2 0.1,-0.2 0.1,-0.2 0.1,-0.2 0.1,-0.2 0.1,-0.2 0.1,-0.2 v -0.3 -0.2 l 0.1,-0.2 v -0.3 -0.2 -17.4 0 -0.2 -0.3 -0.2 l -0.1,-0.2 v -0.2 l -0.1,-0.3 -0.1,-0.2 v -0.2 l -0.2,-0.2 -0.1,-0.2 -0.1,-0.2 -0.1,-0.2 -0.1,-0.2 -0.2,-0.1 -0.1,-0.2 -0.2,-0.1 -0.2,-0.2 -0.2,-0.2 -0.2,-0.1 -0.2,-0.1 -0.1,-0.1 -0.2,-0.1 -0.3,-0.1 -0.2,-0.1 h -0.2 l -0.2,-0.1 h -0.3 l -0.2,-0.1 h -0.2 -0.2 -110.4 v 0 h -0.2 -0.2 -0.2 l -0.3,0.1 h -0.2 l -0.2,0.1 -0.2,0.1 -0.2,0.1 -0.2,0.1 -0.2,0.1 -0.2,0.1 -0.2,0.1 -0.2,0.2 -0.2,0.1 -0.1,0.2 -0.2,0.1 -0.2,0.2 -0.1,0.2 -0.1,0.2 -0.1,0.2 -0.1,0.2 -0.2,0.2 v 0.2 l -0.1,0.2 -0.1,0.2 v 0.3 l -0.1,0.2 v 0.2 0.2 0.3 z"
             inkscape:connector-curvature="0" /></g><g
           id="g294"><path
             id="path296"
             style="fill:none;stroke:#00b0f0;stroke-width:2.23569989;stroke-linecap:butt;stroke-linejoin:round;stroke-miterlimit:10;stroke-dasharray:none;stroke-opacity:1"
             d="M 399,361.1 Z"
             inkscape:connector-curvature="0" /></g><g
           id="g298"><path
             id="path300"
             style="fill:none;stroke:#00b0f0;stroke-width:2.23569989;stroke-linecap:butt;stroke-linejoin:round;stroke-miterlimit:10;stroke-dasharray:none;stroke-opacity:1"
             d="M 518,334.9 Z"
             inkscape:connector-curvature="0" /></g><g
           id="g302"><text
             id="text306"
             style="font-variant:normal;font-weight:normal;font-size:20px;font-family:Carlito;-inkscape-font-specification:Carlito;writing-mode:lr-tb;fill:#000000;fill-opacity:1;fill-rule:nonzero;stroke:none"
             transform="matrix(1,0,0,-1,412.2,340)"><tspan
               id="tspan304"
               y="0"
               x="0 10.6 20.58 30.16 40.66">Read </tspan></text>
</g><g
           id="g308"><text
             id="text312"
             style="font-variant:normal;font-weight:bold;font-size:20px;font-family:Carlito;-inkscape-font-specification:Carlito-Bold;writing-mode:lr-tb;fill:#000000;fill-opacity:1;fill-rule:nonzero;stroke:none"
             transform="matrix(1,0,0,-1,457.5,340)"><tspan
               id="tspan310"
               y="0"
               x="0 9.8000002 14.38 32.48 37.060001">a → 0</tspan></text>
</g><g
           id="g350"><path
             id="path352"
             style="fill:none;stroke:#00b0f0;stroke-width:2.23569989;stroke-linecap:butt;stroke-linejoin:round;stroke-miterlimit:10;stroke-dasharray:none;stroke-opacity:1"
             d="m 399,324.3 v 0 0.2 0.2 l 0.1,0.3 v 0.2 0.2 l 0.1,0.3 0.1,0.2 0.1,0.2 0.1,0.2 0.1,0.2 0.1,0.2 0.1,0.2 0.2,0.1 0.1,0.2 0.2,0.2 0.2,0.1 0.1,0.2 0.2,0.1 0.2,0.1 0.2,0.2 0.2,0.1 0.2,0.1 0.2,0.1 h 0.2 l 0.2,0.1 0.3,0.1 h 0.2 0.2 l 0.2,0.1 h 0.3 161.3 v 0 h 0.2 l 0.3,-0.1 h 0.2 0.2 l 0.3,-0.1 0.2,-0.1 h 0.2 l 0.2,-0.1 0.2,-0.1 0.2,-0.1 0.2,-0.2 0.2,-0.1 0.2,-0.1 0.1,-0.2 0.2,-0.1 0.1,-0.2 0.2,-0.2 0.2,-0.1 0.1,-0.2 0.1,-0.2 0.1,-0.2 0.1,-0.2 0.1,-0.2 0.1,-0.2 v -0.3 l 0.1,-0.2 V 325 l 0.1,-0.3 v -0.2 -0.2 -17.4 0 -0.3 -0.2 -0.2 L 569,306 v -0.3 l -0.1,-0.2 -0.1,-0.2 -0.1,-0.2 -0.1,-0.2 -0.1,-0.2 -0.1,-0.2 -0.1,-0.2 -0.2,-0.2 -0.1,-0.2 -0.2,-0.1 -0.1,-0.2 -0.2,-0.1 -0.2,-0.2 -0.2,-0.1 -0.2,-0.1 -0.2,-0.1 -0.2,-0.1 -0.2,-0.1 -0.2,-0.1 -0.2,-0.1 h -0.2 l -0.3,-0.1 h -0.2 -0.2 -0.3 -161.3 v 0 h -0.3 -0.2 -0.2 -0.2 l -0.3,0.1 -0.2,0.1 h -0.2 l -0.2,0.1 -0.2,0.1 -0.2,0.2 -0.2,0.1 -0.2,0.1 -0.2,0.1 -0.1,0.2 -0.2,0.1 -0.2,0.2 -0.1,0.2 -0.2,0.2 -0.1,0.1 -0.1,0.2 -0.1,0.2 -0.1,0.2 -0.1,0.3 -0.1,0.2 -0.1,0.2 v 0.2 0.2 l -0.1,0.3 v 0.2 0.2 z"
             inkscape:connector-curvature="0" /></g><g
           id="g354"><path
             id="path356"
             style="fill:none;stroke:#00b0f0;stroke-width:2.23569989;stroke-linecap:butt;stroke-linejoin:round;stroke-miterlimit:10;stroke-dasharray:none;stroke-opacity:1"
             d="M 399,328.7 Z"
             inkscape:connector-curvature="0" /></g><g
           id="g358"><path
             id="path360"
             style="fill:none;stroke:#00b0f0;stroke-width:2.23569989;stroke-linecap:butt;stroke-linejoin:round;stroke-miterlimit:10;stroke-dasharray:none;stroke-opacity:1"
             d="M 569.1,302.5 Z"
             inkscape:connector-curvature="0" /></g><g
           id="g362"><text
             id="text366"
             style="font-variant:normal;font-weight:normal;font-size:20px;font-family:Carlito;-inkscape-font-specification:Carlito;writing-mode:lr-tb;fill:#000000;fill-opacity:1;fill-rule:nonzero;stroke:none"
             transform="matrix(1,0,0,-1,410.4,307.6)"><tspan
               id="tspan364"
               y="0"
               x="0 10.68 21.18 37.16 47.66 58.240002 64.739998 74.639999">Compute </tspan></text>
</g><g
           id="g368"><text
             id="text372"
             style="font-variant:normal;font-weight:bold;font-size:20px;font-family:Carlito;-inkscape-font-specification:Carlito-Bold;writing-mode:lr-tb;fill:#000000;fill-opacity:1;fill-rule:nonzero;stroke:none"
             transform="matrix(1,0,0,-1,489.7,307.6)"><tspan
               id="tspan370"
               y="0"
               x="0 9.8000002 14.38 24.280001 28.860001 38.66 43.240002 53.220001 57.720001">a = a + 1</tspan></text>
</g><g
           id="g422"><path
             id="path424"
             style="fill:none;stroke:#00b0f0;stroke-width:2.23569989;stroke-linecap:butt;stroke-linejoin:round;stroke-miterlimit:10;stroke-dasharray:none;stroke-opacity:1"
             d="m 399,259.1 v 0 0.2 0.2 0.3 l 0.1,0.2 v 0.2 l 0.1,0.3 0.1,0.2 v 0.2 l 0.2,0.2 0.1,0.2 0.1,0.2 0.1,0.2 0.1,0.1 0.2,0.2 0.2,0.2 0.1,0.1 0.2,0.2 0.2,0.1 0.2,0.2 0.2,0.1 0.2,0.1 0.2,0.1 0.2,0.1 h 0.2 l 0.2,0.1 0.2,0.1 h 0.3 0.2 l 0.2,0.1 h 0.2 116 v 0 h 0.2 l 0.3,-0.1 h 0.2 0.2 l 0.2,-0.1 0.3,-0.1 h 0.2 l 0.2,-0.1 0.2,-0.1 0.2,-0.1 0.2,-0.1 0.2,-0.2 0.2,-0.1 0.1,-0.2 0.2,-0.1 0.1,-0.2 0.2,-0.2 0.2,-0.1 0.1,-0.2 0.1,-0.2 0.1,-0.2 0.1,-0.2 0.1,-0.2 v -0.2 l 0.1,-0.3 0.1,-0.2 v -0.2 -0.3 l 0.1,-0.2 v -0.2 -17.4 0 -0.3 -0.2 l -0.1,-0.2 v -0.2 -0.3 l -0.1,-0.2 -0.1,-0.2 -0.1,-0.2 -0.1,-0.2 -0.1,-0.2 -0.1,-0.2 -0.1,-0.2 -0.2,-0.2 -0.1,-0.2 -0.2,-0.1 -0.1,-0.2 -0.2,-0.1 -0.2,-0.2 -0.2,-0.1 -0.2,-0.1 -0.2,-0.1 -0.2,-0.1 -0.2,-0.1 -0.2,-0.1 -0.2,-0.1 h -0.3 -0.2 l -0.2,-0.1 h -0.2 -0.3 -116 v 0 h -0.2 -0.2 -0.2 l -0.3,0.1 h -0.2 l -0.2,0.1 -0.2,0.1 h -0.2 l -0.2,0.1 -0.2,0.2 -0.2,0.1 -0.2,0.1 -0.2,0.1 -0.2,0.2 -0.1,0.1 -0.2,0.2 -0.2,0.2 -0.1,0.2 -0.1,0.2 -0.1,0.2 -0.1,0.1 -0.2,0.2 v 0.3 l -0.1,0.2 -0.1,0.2 v 0.2 L 399,241 v 0.2 0.2 0.2 z"
             inkscape:connector-curvature="0" /></g><g
           id="g426"><path
             id="path428"
             style="fill:none;stroke:#00b0f0;stroke-width:2.23569989;stroke-linecap:butt;stroke-linejoin:round;stroke-miterlimit:10;stroke-dasharray:none;stroke-opacity:1"
             d="M 399,263.5 Z"
             inkscape:connector-curvature="0" /></g><g
           id="g430"><path
             id="path432"
             style="fill:none;stroke:#00b0f0;stroke-width:2.23569989;stroke-linecap:butt;stroke-linejoin:round;stroke-miterlimit:10;stroke-dasharray:none;stroke-opacity:1"
             d="M 523.7,237.3 Z"
             inkscape:connector-curvature="0" /></g><g
           id="g434"><text
             id="text438"
             style="font-variant:normal;font-weight:normal;font-size:20px;font-family:Carlito;-inkscape-font-specification:Carlito;writing-mode:lr-tb;fill:#000000;fill-opacity:1;fill-rule:nonzero;stroke:none"
             transform="matrix(1,0,0,-1,407.3,242.4)"><tspan
               id="tspan436"
               y="0"
               x="0 17.299999 24.280001 28.780001 35.279999 45.259998">Write </tspan></text>
</g><g
           id="g440"><text
             id="text444"
             style="font-variant:normal;font-weight:bold;font-size:20px;font-family:'DejaVu Sans Mono';-inkscape-font-specification:DejaVuSansMono-Bold;writing-mode:lr-tb;fill:#000000;fill-opacity:1;fill-rule:nonzero;stroke:none"
             transform="matrix(1,0,0,-1,457.1,242.4)"><tspan
               id="tspan442"
               y="0"
               x="0">a</tspan></text>
</g><g
           id="g446"><text
             id="text450"
             style="font-variant:normal;font-weight:bold;font-size:20px;font-family:Carlito;-inkscape-font-specification:Carlito-Bold;writing-mode:lr-tb;fill:#000000;fill-opacity:1;fill-rule:nonzero;stroke:none"
             transform="matrix(1,0,0,-1,473.8,242.4)"><tspan
               id="tspan448"
               y="0"
               x="0 18.18">← </tspan></text>
</g><g
           id="g452"><text
             id="text456"
             style="font-variant:normal;font-weight:bold;font-size:20px;font-family:'DejaVu Sans Mono';-inkscape-font-specification:DejaVuSansMono-Bold;writing-mode:lr-tb;fill:#000000;fill-opacity:1;fill-rule:nonzero;stroke:none"
             transform="matrix(1,0,0,-1,496.5,242.4)"><tspan
               id="tspan454"
               y="0"
               x="0">1</tspan></text>
</g><g
           id="g476"
           transform="translate(0.1)"><path
             id="path478"
             style="fill:none;stroke:#525e66;stroke-width:2.00929999;stroke-linecap:butt;stroke-linejoin:round;stroke-miterlimit:10;stroke-dasharray:none;stroke-opacity:1"
             d="M 342.4,446.1 216.5,402.7"
             inkscape:connector-curvature="0" /></g><path
           id="path480"
           style="fill:#525e66;fill-opacity:1;fill-rule:evenodd;stroke:none"
           d="m 211.1,400.8 4.8,4.8 1.9,-5.7 z"
           inkscape:connector-curvature="0" /><g
           id="g500"
           transform="translate(0.1)"><path
             id="path502"
             style="fill:none;stroke:#525e66;stroke-width:2.00929999;stroke-linecap:butt;stroke-linejoin:round;stroke-miterlimit:10;stroke-dasharray:none;stroke-opacity:1"
             d="M 342.4,446.1 453.9,371"
             inkscape:connector-curvature="0" /></g><path
           id="path504"
           style="fill:#525e66;fill-opacity:1;fill-rule:evenodd;stroke:none"
           d="m 458.6,367.8 -6.7,0.9 3.3,5 z"
           inkscape:connector-curvature="0" /><g
           id="g568"
           transform="translate(-8.6,0.6)"><path
             id="path570"
             style="fill:none;stroke:#ff0000;stroke-width:2.23569989;stroke-linecap:butt;stroke-linejoin:round;stroke-miterlimit:10;stroke-dasharray:none;stroke-opacity:1"
             d="m 499.2,497.1 v 0 0.6 l 0.1,0.7 0.1,0.6 0.1,0.6 0.1,0.7 0.2,0.6 0.2,0.6 0.3,0.6 0.3,0.6 0.3,0.6 0.3,0.5 0.4,0.5 0.4,0.6 0.4,0.4 0.4,0.5 0.5,0.5 0.5,0.4 0.5,0.4 0.6,0.3 0.5,0.4 0.6,0.3 0.6,0.3 0.5,0.2 0.7,0.3 0.6,0.1 0.6,0.2 0.7,0.1 0.6,0.1 h 0.6 l 0.7,0.1 H 668 v 0 l 0.7,-0.1 h 0.6 l 0.6,-0.1 0.7,-0.1 0.6,-0.2 0.6,-0.1 0.7,-0.3 0.6,-0.2 0.5,-0.3 0.6,-0.3 0.6,-0.4 0.5,-0.3 0.5,-0.4 0.5,-0.4 0.5,-0.5 0.4,-0.5 0.5,-0.4 0.3,-0.6 0.4,-0.5 0.3,-0.6 0.3,-0.5 0.3,-0.6 0.3,-0.6 0.2,-0.6 0.2,-0.6 0.1,-0.7 0.2,-0.6 v -0.6 l 0.1,-0.7 v -0.6 -49.6 0 -0.6 -0.7 l -0.1,-0.6 -0.2,-0.6 -0.1,-0.7 -0.2,-0.6 -0.2,-0.6 -0.2,-0.6 -0.3,-0.6 -0.3,-0.5 -0.4,-0.6 -0.3,-0.5 -0.4,-0.6 -0.4,-0.4 -0.5,-0.5 -0.5,-0.5 -0.5,-0.4 -0.5,-0.4 -0.5,-0.3 -0.6,-0.4 -0.5,-0.3 -0.6,-0.3 -0.6,-0.2 -0.6,-0.3 -0.7,-0.1 -0.6,-0.2 -0.6,-0.1 -0.7,-0.1 h -0.6 -0.7 l -156.4,-0.1 v 0 l -0.7,0.1 h -0.6 l -0.6,0.1 -0.7,0.1 -0.6,0.2 -0.6,0.1 -0.7,0.2 -0.5,0.3 -0.6,0.3 -0.6,0.3 -0.5,0.3 -0.6,0.4 -0.5,0.4 -0.5,0.4 -0.5,0.5 -0.4,0.4 -0.4,0.5 -0.4,0.5 -0.4,0.6 -0.3,0.5 -0.3,0.6 -0.3,0.6 -0.3,0.6 -0.2,0.6 -0.2,0.6 -0.1,0.6 -0.1,0.7 -0.1,0.6 -0.1,0.7 v 0.6 z"
             inkscape:connector-curvature="0" /></g><g
           id="g572"><path
             id="path574"
             style="fill:none;stroke:#ff0000;stroke-width:2.23569989;stroke-linecap:butt;stroke-linejoin:round;stroke-miterlimit:10;stroke-dasharray:none;stroke-opacity:1"
             d="M 499.2,509.5 Z"
             inkscape:connector-curvature="0" /></g><g
           id="g576"><path
             id="path578"
             style="fill:none;stroke:#ff0000;stroke-width:2.23569989;stroke-linecap:butt;stroke-linejoin:round;stroke-miterlimit:10;stroke-dasharray:none;stroke-opacity:1"
             d="M 680.4,435.1 Z"
             inkscape:connector-curvature="0" /></g><g
           id="g580"><text
             id="text584"
             style="font-variant:normal;font-weight:normal;font-size:20px;font-family:Carlito;-inkscape-font-specification:Carlito;writing-mode:lr-tb;fill:#000000;fill-opacity:1;fill-rule:nonzero;stroke:none"
             transform="matrix(1,0,0,-1,509.9,488.3)"><tspan
               id="tspan582"
               y="0"
               x="0 9.1800003 19.76 29.34 36.040001 46.02 56.52 61.099998 69.900002 79.480003 86.379997 90.959999 100.54 111.04 115.62 125.6">Shared variable </tspan></text>
</g><g
           id="g586"><text
             id="text590"
             style="font-variant:normal;font-weight:bold;font-size:20px;font-family:Carlito;-inkscape-font-specification:Carlito-Bold;writing-mode:lr-tb;fill:#000000;fill-opacity:1;fill-rule:nonzero;stroke:none"
             transform="matrix(1,0,0,-1,640.2,488.3)"><tspan
               id="tspan588"
               y="0"
               x="0">a</tspan></text>
</g><g
           id="g592" /><g
           id="g594"><text
             id="text598"
             style="font-variant:normal;font-weight:normal;font-size:20px;font-family:Carlito;-inkscape-font-specification:Carlito;writing-mode:lr-tb;fill:#000000;fill-opacity:1;fill-rule:nonzero;stroke:none"
             transform="matrix(1,0,0,-1,509.9,464.3)"><tspan
               id="tspan596"
               y="0"
               x="0 14.28 18.780001 25.559999 36.060001 40.639999 49.34 58.919998 63.5 74.080002 83.980003">with value </tspan></text>
</g><g
           id="g600"><text
             id="text604"
             style="font-variant:normal;font-weight:bold;font-size:20px;font-family:Carlito;-inkscape-font-specification:Carlito-Bold;writing-mode:lr-tb;fill:#000000;fill-opacity:1;fill-rule:nonzero;stroke:none"
             transform="matrix(1,0,0,-1,598.6,464.3)"><tspan
               id="tspan602"
               y="0"
               x="0">0</tspan></text>
</g><g
           id="g606"><text
             id="text610"
             style="font-variant:normal;font-weight:normal;font-size:20px;font-family:Carlito;-inkscape-font-specification:Carlito;writing-mode:lr-tb;fill:#000000;fill-opacity:1;fill-rule:nonzero;stroke:none"
             transform="matrix(1,0,0,-1,613.3,464.3)"><tspan
               id="tspan608"
               y="0"
               x="0 10.58 20.379999 26.08 36.580002 43.279999 53.259998">before </tspan></text>
</g><g
           id="g612"><text
             id="text616"
             style="font-variant:normal;font-weight:normal;font-size:20px;font-family:Carlito;-inkscape-font-specification:Carlito;writing-mode:lr-tb;fill:#000000;fill-opacity:1;fill-rule:nonzero;stroke:none"
             transform="matrix(1,0,0,-1,509.9,440.3)"><tspan
               id="tspan614"
               y="0"
               x="0 6.6799998 17.26 27.16 31.74 42.240002 51.919998 58.52 68.099998 72.599998 77.18 87.080002 91.660004 96.160004 102.96 112.86 122.34 126.92 137.42">the parallel region</tspan></text>
</g><g
           id="g636"><path
             id="path638"
             style="fill:none;stroke:#525e66;stroke-width:2.00929999;stroke-linecap:butt;stroke-linejoin:round;stroke-miterlimit:10;stroke-dasharray:none;stroke-opacity:1"
             d="M 208.3,267 343,201.5"
             inkscape:connector-curvature="0" /></g><path
           id="path640"
           style="fill:#525e66;fill-opacity:1;fill-rule:evenodd;stroke:none"
           d="m 348.1,199 -6.8,-0.1 2.7,5.5 z"
           inkscape:connector-curvature="0" /><g
           id="g660"><path
             id="path662"
             style="fill:none;stroke:#525e66;stroke-width:2.00929999;stroke-linecap:butt;stroke-linejoin:round;stroke-miterlimit:10;stroke-dasharray:none;stroke-opacity:1"
             d="M 461.4,233 353.5,200.6"
             inkscape:connector-curvature="0" /></g><path
           id="path664"
           style="fill:#525e66;fill-opacity:1;fill-rule:evenodd;stroke:none"
           d="m 348.1,199 4.9,4.6 1.7,-5.8 z"
           inkscape:connector-curvature="0" /><g
           id="g684"
           transform="translate(-3.1981071e-7,-1.590545)"><path
             id="path686"
             style="fill:none;stroke:#525e66;stroke-width:2.00929999;stroke-linecap:butt;stroke-linejoin:round;stroke-miterlimit:10;stroke-dasharray:none;stroke-opacity:1"
             d="m 342.4,477.8 0.1,-26.1"
             inkscape:connector-curvature="0" /></g><path
           id="path688"
           style="fill:#525e66;fill-opacity:1;fill-rule:evenodd;stroke:none"
           d="m 342.5,446.1 -3.1,6 h 6.1 z"
           inkscape:connector-curvature="0" /><g
           id="g708"><path
             id="path710"
             style="fill:none;stroke:#525e66;stroke-width:2.00929999;stroke-linecap:butt;stroke-linejoin:round;stroke-miterlimit:10;stroke-dasharray:none;stroke-opacity:1"
             d="M 348.1,199 V 172.9"
             inkscape:connector-curvature="0" /></g><path
           id="path712"
           style="fill:#525e66;fill-opacity:1;fill-rule:evenodd;stroke:none"
           d="m 348.1,167.3 -3,6 h 6 z"
           inkscape:connector-curvature="0" /><g
           id="g732"><text
             id="text736"
             style="font-variant:normal;font-weight:normal;font-size:20px;font-family:Carlito;-inkscape-font-specification:Carlito;writing-mode:lr-tb;fill:#000000;fill-opacity:1;fill-rule:nonzero;stroke:none"
             transform="matrix(1,0,0,-1,26.2,412.9)"><tspan
               id="tspan734"
               y="0"
               x="0 9.6999998 14.28 30.26">Time</tspan></text>
</g><g
           id="g754"><path
             id="path756"
             style="fill:none;stroke:#525e66;stroke-width:0.73580003;stroke-linecap:butt;stroke-linejoin:round;stroke-miterlimit:10;stroke-dasharray:none;stroke-opacity:1"
             d="m 53.2,364.3 555.7,-0.1"
             inkscape:connector-curvature="0" /></g><g
           id="g774"><path
             id="path776"
             style="fill:none;stroke:#525e66;stroke-width:0.73580003;stroke-linecap:butt;stroke-linejoin:round;stroke-miterlimit:10;stroke-dasharray:none;stroke-opacity:1"
             d="M 53.2,332.1 608.9,332"
             inkscape:connector-curvature="0" /></g><g
           id="g794"><path
             id="path796"
             style="fill:none;stroke:#525e66;stroke-width:0.73580003;stroke-linecap:butt;stroke-linejoin:round;stroke-miterlimit:10;stroke-dasharray:none;stroke-opacity:1"
             d="M 53.2,299.3 H 608.9"
             inkscape:connector-curvature="0" /></g><g
           id="g814"><path
             id="path816"
             style="fill:none;stroke:#525e66;stroke-width:0.73580003;stroke-linecap:butt;stroke-linejoin:round;stroke-miterlimit:10;stroke-dasharray:none;stroke-opacity:1"
             d="M 53.2,234.7 H 608.9"
             inkscape:connector-curvature="0" /></g><g
           id="g834"><path
             id="path836"
             style="fill:none;stroke:#525e66;stroke-width:0.73580003;stroke-linecap:butt;stroke-linejoin:round;stroke-miterlimit:10;stroke-dasharray:none;stroke-opacity:1"
             d="M 53.2,267 H 608.9"
             inkscape:connector-curvature="0" /></g><g
           id="g854"><path
             id="path856"
             style="fill:none;stroke:#525e66;stroke-width:0.73580003;stroke-linecap:butt;stroke-linejoin:round;stroke-miterlimit:10;stroke-dasharray:none;stroke-opacity:1"
             d="m 53.2,396.7 555.7,-0.1"
             inkscape:connector-curvature="0" /></g><g
           id="g888"
           transform="translate(-1.3,2.1)"><path
             id="path890"
             style="fill:none;stroke:#ff0000;stroke-width:2.23569989;stroke-linecap:butt;stroke-linejoin:round;stroke-miterlimit:10;stroke-dasharray:none;stroke-opacity:1"
             d="m 380.3,191.1 v 0 0.4 l 0.1,0.2 v 0.4 0.2 l 0.1,0.4 0.1,0.2 0.1,0.3 0.1,0.3 0.1,0.3 0.2,0.2 0.2,0.3 0.1,0.2 0.2,0.3 0.2,0.2 0.2,0.2 0.2,0.2 0.3,0.2 0.2,0.2 0.2,0.2 0.3,0.1 0.3,0.2 0.2,0.1 0.3,0.1 0.3,0.1 0.3,0.1 0.3,0.1 h 0.3 l 0.3,0.1 h 0.3 0.3 48.7 v 0 h 0.3 0.3 l 0.3,-0.1 h 0.3 l 0.3,-0.1 0.3,-0.1 0.3,-0.1 0.3,-0.1 0.2,-0.1 0.3,-0.2 0.3,-0.1 0.2,-0.2 0.3,-0.2 0.2,-0.2 0.2,-0.2 0.2,-0.2 0.2,-0.2 0.2,-0.3 0.2,-0.2 0.1,-0.3 0.2,-0.2 0.1,-0.3 0.1,-0.3 0.1,-0.3 0.1,-0.2 0.1,-0.4 v -0.2 l 0.1,-0.4 v -0.2 -0.4 -23.1 0 -0.3 -0.3 l -0.1,-0.3 v -0.3 l -0.1,-0.3 -0.1,-0.3 -0.1,-0.3 -0.1,-0.2 -0.1,-0.3 -0.2,-0.2 -0.1,-0.3 -0.2,-0.3 -0.2,-0.2 -0.2,-0.2 -0.2,-0.2 -0.2,-0.3 -0.2,-0.1 -0.3,-0.2 -0.2,-0.2 -0.3,-0.1 -0.2,-0.2 -0.3,-0.1 -0.3,-0.1 -0.3,-0.2 h -0.3 l -0.2,-0.1 -0.3,-0.1 h -0.3 -0.3 -0.3 l -48.8,-0.1 v 0.1 h -0.3 -0.3 -0.3 l -0.3,0.1 -0.3,0.1 h -0.3 l -0.3,0.1 -0.2,0.1 -0.3,0.2 -0.3,0.1 -0.2,0.2 -0.3,0.2 -0.2,0.1 -0.2,0.2 -0.3,0.2 -0.2,0.3 -0.2,0.2 -0.2,0.2 -0.1,0.3 -0.2,0.2 -0.2,0.3 -0.1,0.3 -0.1,0.2 -0.1,0.3 -0.1,0.3 v 0.3 l -0.1,0.3 v 0.3 l -0.1,0.3 v 0.3 z"
             inkscape:connector-curvature="0" /></g><g
           id="g892"><path
             id="path894"
             style="fill:none;stroke:#ff0000;stroke-width:2.23569989;stroke-linecap:butt;stroke-linejoin:round;stroke-miterlimit:10;stroke-dasharray:none;stroke-opacity:1"
             d="M 380.3,196.9 Z"
             inkscape:connector-curvature="0" /></g><g
           id="g896"><path
             id="path898"
             style="fill:none;stroke:#ff0000;stroke-width:2.23569989;stroke-linecap:butt;stroke-linejoin:round;stroke-miterlimit:10;stroke-dasharray:none;stroke-opacity:1"
             d="M 440.6,162.2 Z"
             inkscape:connector-curvature="0" /></g><g
           id="g900"><text
             id="text904"
             style="font-variant:normal;font-weight:bold;font-size:20px;font-family:Carlito;-inkscape-font-specification:Carlito-Bold;writing-mode:lr-tb;fill:#000000;fill-opacity:1;fill-rule:nonzero;stroke:none"
             transform="matrix(1,0,0,-1,389.1,171.6)"><tspan
               id="tspan902"
               y="0"
               x="0 9.8000002 14.38 24.280001 28.860001">a = 1</tspan></text>
</g><g
           id="g924"><text
             id="text928"
             style="font-variant:normal;font-weight:normal;font-size:20px;font-family:Carlito;-inkscape-font-specification:Carlito;writing-mode:lr-tb;fill:#000000;fill-opacity:1;fill-rule:nonzero;stroke:none"
             transform="matrix(1,0,0,-1,157.6,412.6)"><tspan
               id="tspan926"
               y="0"
               x="0 9.6999998 20.200001 27 36.900002 46.580002 57.080002 61.66">Thread 0</tspan></text>
</g><g
           id="g948"><text
             id="text952"
             style="font-variant:normal;font-weight:normal;font-size:20px;font-family:Carlito;-inkscape-font-specification:Carlito;writing-mode:lr-tb;fill:#000000;fill-opacity:1;fill-rule:nonzero;stroke:none"
             transform="matrix(1,0,0,-1,421.7,412.8)"><tspan
               id="tspan950"
               y="0"
               x="0 9.6999998 20.280001 26.98 36.959999 46.540001 57.040001 61.619999">Thread 1</tspan></text>
</g></g></g></g></svg>