<?xml version="1.0" encoding="UTF-8" standalone="no"?>
<svg
   xmlns:dc="http://purl.org/dc/elements/1.1/"
   xmlns:cc="http://creativecommons.org/ns#"
   xmlns:rdf="http://www.w3.org/1999/02/22-rdf-syntax-ns#"
   xmlns:svg="http://www.w3.org/2000/svg"
   xmlns="http://www.w3.org/2000/svg"
   xmlns:sodipodi="http://sodipodi.sourceforge.net/DTD/sodipodi-0.dtd"
   xmlns:inkscape="http://www.inkscape.org/namespaces/inkscape"
   viewBox="0 0 277.45171 433.57937"
   height="433.57938"
   width="277.45172"
   xml:space="preserve"
   id="svg2"
   version="1.1"
   sodipodi:docname="spmd.svg"
   inkscape:version="0.92.2 (5c3e80d, 2017-08-06)"><sodipodi:namedview
     pagecolor="#ffffff"
     bordercolor="#666666"
     borderopacity="1"
     objecttolerance="10"
     gridtolerance="10"
     guidetolerance="10"
     inkscape:pageopacity="0"
     inkscape:pageshadow="2"
     inkscape:window-width="1920"
     inkscape:window-height="1043"
     id="namedview67"
     showgrid="false"
     fit-margin-top="0"
     fit-margin-left="0"
     fit-margin-right="0"
     fit-margin-bottom="0"
     inkscape:zoom="0.83356662"
     inkscape:cx="11.450148"
     inkscape:cy="269.51445"
     inkscape:window-x="0"
     inkscape:window-y="0"
     inkscape:window-maximized="1"
     inkscape:current-layer="g128" /><metadata
     id="metadata8"><rdf:RDF><cc:Work
         rdf:about=""><dc:format>image/svg+xml</dc:format><dc:type
           rdf:resource="http://purl.org/dc/dcmitype/StillImage" /><dc:title></dc:title></cc:Work></rdf:RDF></metadata><defs
     id="defs6"><clipPath
       id="clipPath18"
       clipPathUnits="userSpaceOnUse"><path
         style="clip-rule:evenodd"
         id="path16"
         d="M 0,-0.2 H 793.6 V 595 H 0 Z"
         inkscape:connector-curvature="0" /></clipPath><clipPath
       id="clipPath96"
       clipPathUnits="userSpaceOnUse"><path
         id="path94"
         d="M 293.1,377.9 H 497.2 V 438 H 293.1 Z"
         inkscape:connector-curvature="0" /></clipPath></defs><g
     transform="matrix(1.3333333,0,0,-1.3333333,-376.82114,574.11272)"
     id="g10"><g
       id="g12"><g
         clip-path="url(#clipPath18)"
         id="g14"><g
           id="g22" /><g
           id="g24" /><g
           id="g26"><path
             id="path28"
             style="fill:none;stroke:#000000;stroke-width:3.99029994;stroke-linecap:butt;stroke-linejoin:miter;stroke-miterlimit:10;stroke-dasharray:none;stroke-opacity:1"
             d="m 349.5,350.3 0.9,-228.1"
             inkscape:connector-curvature="0" /></g><path
           id="path30"
           style="fill:#000000;fill-opacity:1;fill-rule:evenodd;stroke:none"
           d="m 350.5,105.4 -9.1,16.3 2.7,1.6 6.3,-11.4 6.3,11.5 2.7,-1.6 z"
           inkscape:connector-curvature="0" /><g
           id="g32"><path
             id="path34"
             style="fill:none;stroke:#000000;stroke-width:3.99029994;stroke-linecap:butt;stroke-linejoin:miter;stroke-miterlimit:10;stroke-dasharray:none;stroke-opacity:1"
             d="m 383.2,253.9 -0.4,-37.6"
             inkscape:connector-curvature="0" /></g><path
           id="path36"
           style="fill:#000000;fill-opacity:1;fill-rule:evenodd;stroke:none"
           d="m 382.6,199.5 -8.8,16.4 2.8,1.6 6.1,-11.6 6.4,11.5 2.7,-1.7 z"
           inkscape:connector-curvature="0" /><path
           id="path38"
           style="fill:#ffffff;fill-opacity:1;fill-rule:evenodd;stroke:none"
           d="m 297.2,284.5 v 0 h -0.3 -0.3 l -0.3,-0.1 h -0.2 l -0.3,-0.1 -0.3,-0.1 -0.3,-0.1 -0.3,-0.1 -0.3,-0.1 -0.2,-0.2 -0.3,-0.1 -0.2,-0.2 -0.3,-0.2 -0.2,-0.2 -0.2,-0.2 -0.2,-0.2 -0.2,-0.2 -0.2,-0.3 -0.1,-0.2 -0.2,-0.3 -0.2,-0.2 -0.1,-0.3 -0.1,-0.3 -0.1,-0.3 -0.1,-0.3 -0.1,-0.2 v -0.3 l -0.1,-0.3 v -0.3 -0.3 -19.4 0 -0.3 -0.3 l 0.1,-0.3 v -0.3 l 0.1,-0.3 0.1,-0.3 0.1,-0.2 0.1,-0.3 0.1,-0.3 0.2,-0.3 0.2,-0.2 0.1,-0.3 0.2,-0.2 0.2,-0.2 0.2,-0.2 0.2,-0.2 0.2,-0.2 0.3,-0.2 0.2,-0.2 0.3,-0.2 0.2,-0.1 0.3,-0.1 0.3,-0.2 h 0.3 l 0.3,-0.1 0.3,-0.1 0.2,-0.1 h 0.3 0.3 0.3 164.1 v 0 h 0.3 0.2 0.4 l 0.2,0.1 0.3,0.1 0.3,0.1 h 0.3 l 0.3,0.2 0.2,0.1 0.3,0.1 0.3,0.2 0.2,0.2 0.3,0.2 0.2,0.2 0.2,0.2 0.2,0.2 0.2,0.2 0.2,0.2 0.1,0.3 0.2,0.2 0.2,0.3 0.1,0.3 0.1,0.2 0.1,0.3 0.1,0.3 v 0.3 l 0.1,0.3 0.1,0.3 v 0.3 0.3 19.4 0 0.3 0.3 l -0.1,0.3 v 0.3 l -0.1,0.2 -0.1,0.3 -0.1,0.3 -0.1,0.3 -0.1,0.2 -0.2,0.3 -0.1,0.3 -0.2,0.2 -0.2,0.3 -0.2,0.2 -0.2,0.2 -0.2,0.2 -0.2,0.2 -0.3,0.2 -0.2,0.2 -0.3,0.1 -0.2,0.2 -0.3,0.1 -0.3,0.1 -0.3,0.1 -0.2,0.1 -0.3,0.1 h -0.3 l -0.3,0.1 h -0.3 -0.3 z m -5.7,0 z M 467,253.7 Z"
           inkscape:connector-curvature="0" /><g
           id="g40"><path
             id="path42"
             style="fill:none;stroke:#000000;stroke-width:2.00929999;stroke-linecap:butt;stroke-linejoin:round;stroke-miterlimit:10;stroke-dasharray:none;stroke-opacity:1"
             d="m 297.2,284.5 v 0 h -0.3 -0.3 l -0.3,-0.1 h -0.2 l -0.3,-0.1 -0.3,-0.1 -0.3,-0.1 -0.3,-0.1 -0.3,-0.1 -0.2,-0.2 -0.3,-0.1 -0.2,-0.2 -0.3,-0.2 -0.2,-0.2 -0.2,-0.2 -0.2,-0.2 -0.2,-0.2 -0.2,-0.3 -0.1,-0.2 -0.2,-0.3 -0.2,-0.2 -0.1,-0.3 -0.1,-0.3 -0.1,-0.3 -0.1,-0.3 -0.1,-0.2 v -0.3 l -0.1,-0.3 v -0.3 -0.3 -19.4 0 -0.3 -0.3 l 0.1,-0.3 v -0.3 l 0.1,-0.3 0.1,-0.3 0.1,-0.2 0.1,-0.3 0.1,-0.3 0.2,-0.3 0.2,-0.2 0.1,-0.3 0.2,-0.2 0.2,-0.2 0.2,-0.2 0.2,-0.2 0.2,-0.2 0.3,-0.2 0.2,-0.2 0.3,-0.2 0.2,-0.1 0.3,-0.1 0.3,-0.2 h 0.3 l 0.3,-0.1 0.3,-0.1 0.2,-0.1 h 0.3 0.3 0.3 164.1 v 0 h 0.3 0.2 0.4 l 0.2,0.1 0.3,0.1 0.3,0.1 h 0.3 l 0.3,0.2 0.2,0.1 0.3,0.1 0.3,0.2 0.2,0.2 0.3,0.2 0.2,0.2 0.2,0.2 0.2,0.2 0.2,0.2 0.2,0.2 0.1,0.3 0.2,0.2 0.2,0.3 0.1,0.3 0.1,0.2 0.1,0.3 0.1,0.3 v 0.3 l 0.1,0.3 0.1,0.3 v 0.3 0.3 19.4 0 0.3 0.3 l -0.1,0.3 v 0.3 l -0.1,0.2 -0.1,0.3 -0.1,0.3 -0.1,0.3 -0.1,0.2 -0.2,0.3 -0.1,0.3 -0.2,0.2 -0.2,0.3 -0.2,0.2 -0.2,0.2 -0.2,0.2 -0.2,0.2 -0.3,0.2 -0.2,0.2 -0.3,0.1 -0.2,0.2 -0.3,0.1 -0.3,0.1 -0.3,0.1 -0.2,0.1 -0.3,0.1 h -0.3 l -0.3,0.1 h -0.3 -0.3 z"
             inkscape:connector-curvature="0" /></g><g
           id="g44"><path
             id="path46"
             style="fill:none;stroke:#000000;stroke-width:2.00929999;stroke-linecap:butt;stroke-linejoin:round;stroke-miterlimit:10;stroke-dasharray:none;stroke-opacity:1"
             d="M 291.5,284.5 Z"
             inkscape:connector-curvature="0" /></g><g
           id="g48"><path
             id="path50"
             style="fill:none;stroke:#000000;stroke-width:2.00929999;stroke-linecap:butt;stroke-linejoin:round;stroke-miterlimit:10;stroke-dasharray:none;stroke-opacity:1"
             d="M 467,253.7 Z"
             inkscape:connector-curvature="0" /></g><g
           id="g52"><text
             id="text56"
             style="font-variant:normal;font-weight:bold;font-size:16px;font-family:'DejaVu Sans Mono';-inkscape-font-specification:DejaVuSansMono-Bold;writing-mode:lr-tb;fill:#b32a58;fill-opacity:1;fill-rule:nonzero;stroke:none"
             transform="matrix(1,0,0,-1,298.8,262.8)"><tspan
               id="tspan54"
               y="0"
               x="0 9.6000004 19.200001 28.799999 38.400002 48 57.599998 67.199997 76.800003 86.400002 96 105.6 115.2 124.8">!$omp parallel</tspan></text>
</g><g
           id="g58"><path
             id="path60"
             style="fill:none;stroke:#000000;stroke-width:3.99029994;stroke-linecap:butt;stroke-linejoin:miter;stroke-miterlimit:10;stroke-dasharray:none;stroke-opacity:1"
             d="M 422.3,253.9 422,216.3"
             inkscape:connector-curvature="0" /></g><path
           id="path62"
           style="fill:#000000;fill-opacity:1;fill-rule:evenodd;stroke:none"
           d="m 421.8,199.5 -8.8,16.4 2.7,1.6 6.2,-11.6 6.4,11.5 2.7,-1.7 z"
           inkscape:connector-curvature="0" /><g
           id="g64"><path
             id="path66"
             style="fill:none;stroke:#000000;stroke-width:3.99029994;stroke-linecap:butt;stroke-linejoin:miter;stroke-miterlimit:10;stroke-dasharray:none;stroke-opacity:1"
             d="m 462,253.9 -0.3,-37.6"
             inkscape:connector-curvature="0" /></g><path
           id="path68"
           style="fill:#000000;fill-opacity:1;fill-rule:evenodd;stroke:none"
           d="m 461.5,199.6 -8.8,16.4 2.7,1.6 6.2,-11.6 6.4,11.5 2.6,-1.7 z"
           inkscape:connector-curvature="0" /><path
           id="path70"
           style="fill:#ffffff;fill-opacity:1;fill-rule:evenodd;stroke:none"
           d="m 299.7,203.3 v 0 h -0.3 -0.3 -0.3 l -0.3,-0.1 -0.2,-0.1 H 298 l -0.3,-0.1 -0.3,-0.1 -0.2,-0.2 -0.3,-0.1 -0.2,-0.2 -0.3,-0.1 -0.2,-0.2 -0.2,-0.2 -0.2,-0.2 -0.2,-0.2 -0.2,-0.2 -0.2,-0.3 -0.1,-0.2 -0.2,-0.2 -0.2,-0.3 -0.1,-0.3 -0.1,-0.2 -0.1,-0.3 -0.1,-0.3 v -0.3 l -0.1,-0.2 v -0.4 -0.2 -0.3 -18.7 0 -0.3 -0.3 -0.3 l 0.1,-0.3 v -0.2 l 0.1,-0.3 0.1,-0.3 0.1,-0.3 0.1,-0.2 0.2,-0.3 0.2,-0.2 0.1,-0.3 0.2,-0.2 0.2,-0.2 0.2,-0.2 0.2,-0.2 0.2,-0.2 0.2,-0.2 0.3,-0.1 0.2,-0.2 0.3,-0.2 0.2,-0.1 0.3,-0.1 0.3,-0.1 0.3,-0.1 h 0.2 l 0.3,-0.1 h 0.3 l 0.3,-0.1 h 0.3 184.5 v 0 h 0.2 0.3 l 0.3,0.1 h 0.3 l 0.3,0.1 0.3,0.1 0.2,0.1 0.3,0.1 0.3,0.1 0.2,0.2 0.3,0.1 0.2,0.2 0.2,0.2 0.3,0.1 0.2,0.2 0.2,0.3 0.2,0.2 0.2,0.2 0.1,0.2 0.2,0.3 0.1,0.2 0.1,0.3 0.1,0.3 0.1,0.2 0.1,0.3 0.1,0.3 0.1,0.3 v 0.3 0.3 0.3 18.7 0 0.3 0.2 0.4 l -0.1,0.2 -0.1,0.3 -0.1,0.3 -0.1,0.3 -0.1,0.2 -0.1,0.3 -0.1,0.3 -0.2,0.2 -0.1,0.2 -0.2,0.3 -0.2,0.2 -0.2,0.2 -0.2,0.2 -0.3,0.2 -0.2,0.2 -0.2,0.1 -0.3,0.2 -0.2,0.1 -0.3,0.2 -0.3,0.1 -0.2,0.1 h -0.3 l -0.3,0.1 -0.3,0.1 h -0.3 -0.3 -0.2 z m -5.5,0 z m 195.5,-29.8 z"
           inkscape:connector-curvature="0" /><g
           id="g72"><path
             id="path74"
             style="fill:none;stroke:#000000;stroke-width:2.00929999;stroke-linecap:butt;stroke-linejoin:round;stroke-miterlimit:10;stroke-dasharray:none;stroke-opacity:1"
             d="m 299.7,203.3 v 0 h -0.3 -0.3 -0.3 l -0.3,-0.1 -0.2,-0.1 H 298 l -0.3,-0.1 -0.3,-0.1 -0.2,-0.2 -0.3,-0.1 -0.2,-0.2 -0.3,-0.1 -0.2,-0.2 -0.2,-0.2 -0.2,-0.2 -0.2,-0.2 -0.2,-0.2 -0.2,-0.3 -0.1,-0.2 -0.2,-0.2 -0.2,-0.3 -0.1,-0.3 -0.1,-0.2 -0.1,-0.3 -0.1,-0.3 v -0.3 l -0.1,-0.2 v -0.4 -0.2 -0.3 -18.7 0 -0.3 -0.3 -0.3 l 0.1,-0.3 v -0.2 l 0.1,-0.3 0.1,-0.3 0.1,-0.3 0.1,-0.2 0.2,-0.3 0.2,-0.2 0.1,-0.3 0.2,-0.2 0.2,-0.2 0.2,-0.2 0.2,-0.2 0.2,-0.2 0.2,-0.2 0.3,-0.1 0.2,-0.2 0.3,-0.2 0.2,-0.1 0.3,-0.1 0.3,-0.1 0.3,-0.1 h 0.2 l 0.3,-0.1 h 0.3 l 0.3,-0.1 h 0.3 184.5 v 0 h 0.2 0.3 l 0.3,0.1 h 0.3 l 0.3,0.1 0.3,0.1 0.2,0.1 0.3,0.1 0.3,0.1 0.2,0.2 0.3,0.1 0.2,0.2 0.2,0.2 0.3,0.1 0.2,0.2 0.2,0.3 0.2,0.2 0.2,0.2 0.1,0.2 0.2,0.3 0.1,0.2 0.1,0.3 0.1,0.3 0.1,0.2 0.1,0.3 0.1,0.3 0.1,0.3 v 0.3 0.3 0.3 18.7 0 0.3 0.2 0.4 l -0.1,0.2 -0.1,0.3 -0.1,0.3 -0.1,0.3 -0.1,0.2 -0.1,0.3 -0.1,0.3 -0.2,0.2 -0.1,0.2 -0.2,0.3 -0.2,0.2 -0.2,0.2 -0.2,0.2 -0.3,0.2 -0.2,0.2 -0.2,0.1 -0.3,0.2 -0.2,0.1 -0.3,0.2 -0.3,0.1 -0.2,0.1 h -0.3 l -0.3,0.1 -0.3,0.1 h -0.3 -0.3 -0.2 z"
             inkscape:connector-curvature="0" /></g><g
           id="g76"><path
             id="path78"
             style="fill:none;stroke:#000000;stroke-width:2.00929999;stroke-linecap:butt;stroke-linejoin:round;stroke-miterlimit:10;stroke-dasharray:none;stroke-opacity:1"
             d="M 294.2,203.3 Z"
             inkscape:connector-curvature="0" /></g><g
           id="g80"><path
             id="path82"
             style="fill:none;stroke:#000000;stroke-width:2.00929999;stroke-linecap:butt;stroke-linejoin:round;stroke-miterlimit:10;stroke-dasharray:none;stroke-opacity:1"
             d="M 489.7,173.5 Z"
             inkscape:connector-curvature="0" /></g><g
           id="g84"><text
             id="text88"
             style="font-variant:normal;font-weight:bold;font-size:16px;font-family:'DejaVu Sans Mono';-inkscape-font-specification:DejaVuSansMono-Bold;writing-mode:lr-tb;fill:#b32a58;fill-opacity:1;fill-rule:nonzero;stroke:none"
             transform="matrix(1,0,0,-1,301.8,182.2)"><tspan
               id="tspan86"
               y="0"
               x="0 9.6000004 19.200001 28.799999 38.400002 48 57.599998 67.199997 76.800003 86.400002 96 105.6 115.2 124.8 134.39999 144 153.60001 163.2">!$omp end parallel</tspan></text>
</g><g
           id="g122"><text
             id="text126"
             style="font-variant:normal;font-weight:bold;font-size:18px;font-family:Carlito;-inkscape-font-specification:Carlito-Bold;writing-mode:lr-tb;fill:#000000;fill-opacity:1;fill-rule:nonzero;stroke:none"
             transform="matrix(1,0,0,-1,300.5,413.3)"><tspan
               id="tspan124"
               y="0"
               x="0 8.5860004 18.09 33.875999 45.251999 50.147999 54.234001 62.73 67.122002 76.716003 85.302002 89.694 98.783997 102.87 112.446 118.548 128.23199 136.728 142.83 151.632 166.32001">SPMD: Single Program </tspan></text>
</g><g
           id="g128"><text
             id="text132"
             style="font-variant:normal;font-weight:bold;font-size:18px;font-family:Carlito;-inkscape-font-specification:Carlito-Bold;writing-mode:lr-tb;fill:#000000;fill-opacity:1;fill-rule:nonzero;stroke:none"
             transform="matrix(1,0,0,-1,300.5,391.7)"><tspan
               id="tspan130">Multiple Data</tspan></text>
<rect
             style="opacity:1;fill:none;stroke:#000000;stroke-width:2.27474999;stroke-miterlimit:4;stroke-dasharray:none;stroke-opacity:1"
             id="rect881"
             width="185.77565"
             height="43.262825"
             x="283.75323"
             y="-429.44717"
             transform="scale(1,-1)" /></g></g></g></g></svg>