<?xml version="1.0" encoding="UTF-8" standalone="no"?>
<svg
   xmlns:dc="http://purl.org/dc/elements/1.1/"
   xmlns:cc="http://creativecommons.org/ns#"
   xmlns:rdf="http://www.w3.org/1999/02/22-rdf-syntax-ns#"
   xmlns:svg="http://www.w3.org/2000/svg"
   xmlns="http://www.w3.org/2000/svg"
   xmlns:sodipodi="http://sodipodi.sourceforge.net/DTD/sodipodi-0.dtd"
   xmlns:inkscape="http://www.inkscape.org/namespaces/inkscape"
   viewBox="0 0 454.68382 429.23511"
   height="429.23511"
   width="454.68384"
   xml:space="preserve"
   id="svg2"
   version="1.1"
   sodipodi:docname="codeToP-01.svg"
   inkscape:version="0.92.2 (5c3e80d, 2017-08-06)"><sodipodi:namedview
     pagecolor="#ffffff"
     bordercolor="#666666"
     borderopacity="1"
     objecttolerance="10"
     gridtolerance="10"
     guidetolerance="10"
     inkscape:pageopacity="0"
     inkscape:pageshadow="2"
     inkscape:window-width="1920"
     inkscape:window-height="981"
     id="namedview90"
     showgrid="false"
     fit-margin-top="0"
     fit-margin-left="0"
     fit-margin-right="0"
     fit-margin-bottom="0"
     inkscape:zoom="0.58942061"
     inkscape:cx="257.88039"
     inkscape:cy="243.97434"
     inkscape:window-x="0"
     inkscape:window-y="28"
     inkscape:window-maximized="1"
     inkscape:current-layer="svg2" /><metadata
     id="metadata8"><rdf:RDF><cc:Work
         rdf:about=""><dc:format>image/svg+xml</dc:format><dc:type
           rdf:resource="http://purl.org/dc/dcmitype/StillImage" /><dc:title></dc:title></cc:Work></rdf:RDF></metadata><defs
     id="defs6"><clipPath
       id="clipPath18"
       clipPathUnits="userSpaceOnUse"><path
         style="clip-rule:evenodd"
         id="path16"
         d="M 0,-0.2 H 793.6 V 595 H 0 Z"
         inkscape:connector-curvature="0" /></clipPath><clipPath
       clipPathUnits="userSpaceOnUse"
       id="clipPath905"><rect
         style="opacity:1;fill:none;stroke:#000000;stroke-width:5.0999999;stroke-miterlimit:4;stroke-dasharray:none;stroke-opacity:1"
         id="rect907"
         width="454.68381"
         height="429.23508"
         x="278.23932"
         y="211.40591" /></clipPath><clipPath
       clipPathUnits="userSpaceOnUse"
       id="clipPath909"><rect
         style="opacity:1;fill:none;stroke:#000000;stroke-width:5.0999999;stroke-miterlimit:4;stroke-dasharray:none;stroke-opacity:1"
         id="rect911"
         width="454.68381"
         height="429.23508"
         x="278.23932"
         y="211.40591" /></clipPath><clipPath
       clipPathUnits="userSpaceOnUse"
       id="clipPath913"><rect
         style="opacity:1;fill:none;stroke:#000000;stroke-width:3.82500005;stroke-miterlimit:4;stroke-dasharray:none;stroke-opacity:1"
         id="rect915"
         width="341.01288"
         height="321.92633"
         x="208.67949"
         y="-436.44559"
         transform="scale(1,-1)" /></clipPath></defs><g
     transform="matrix(1.3333333,0,0,-1.3333333,-278.23931,581.92743)"
     id="g10"
     clip-path="url(#clipPath913)"><g
       id="g12"><g
         clip-path="url(#clipPath18)"
         id="g14"><path
           id="path20"
           style="fill:#ffffff;fill-opacity:1;fill-rule:evenodd;stroke:none"
           d="M 0,595 H 793.7 V -0.2 H 0 Z"
           inkscape:connector-curvature="0" /><g
           id="g22" /><g
           id="g24" /><path
           id="path26"
           style="fill:#d9d9d9;fill-opacity:1;fill-rule:evenodd;stroke:none"
           d="m 307.7,290.5 c 67.1,-17.7 67.1,17.6 134.2,17.6 v 91.6 H 307.7 Z m 11.1,109.2 v 11.9 H 452 v -92.2 c -5.1,0 -10.1,-0.6 -10.1,-0.6 v 80.9 z m 10.3,11.9 v 11.6 h 134.5 v -91.9 c -5.8,0 -11.6,-0.5 -11.6,-0.5 v 80.8 z m -21.4,11.6 z M 463.6,285.5 Z"
           inkscape:connector-curvature="0" /><g
           id="g28"><path
             id="path30"
             style="fill:none;stroke:#000000;stroke-width:0.73580003;stroke-linecap:butt;stroke-linejoin:round;stroke-miterlimit:10;stroke-dasharray:none;stroke-opacity:1"
             d="m 307.7,399.7 h 134.2 v -91.6 c -67.1,0 -67.1,-35.3 -134.2,-17.6 z"
             inkscape:connector-curvature="0" /></g><g
           id="g32"><path
             id="path34"
             style="fill:none;stroke:#000000;stroke-width:0.73580003;stroke-linecap:butt;stroke-linejoin:round;stroke-miterlimit:10;stroke-dasharray:none;stroke-opacity:1"
             d="m 318.8,399.7 v 11.9 H 452 v -92.2 c -5.1,0 -10.1,-0.6 -10.1,-0.6"
             inkscape:connector-curvature="0" /></g><g
           id="g36"><path
             id="path38"
             style="fill:none;stroke:#000000;stroke-width:0.73580003;stroke-linecap:butt;stroke-linejoin:round;stroke-miterlimit:10;stroke-dasharray:none;stroke-opacity:1"
             d="m 329.1,411.6 v 11.6 h 134.5 v -91.9 c -5.8,0 -11.6,-0.5 -11.6,-0.5"
             inkscape:connector-curvature="0" /></g><g
           id="g40"><path
             id="path42"
             style="fill:none;stroke:#000000;stroke-width:0.73580003;stroke-linecap:butt;stroke-linejoin:round;stroke-miterlimit:10;stroke-dasharray:none;stroke-opacity:1"
             d="M 307.7,423.2 Z"
             inkscape:connector-curvature="0" /></g><g
           id="g44"><path
             id="path46"
             style="fill:none;stroke:#000000;stroke-width:0.73580003;stroke-linecap:butt;stroke-linejoin:round;stroke-miterlimit:10;stroke-dasharray:none;stroke-opacity:1"
             d="M 463.6,285.5 Z"
             inkscape:connector-curvature="0" /></g><g
           id="g48"><text
             id="text52"
             style="font-variant:normal;font-weight:bold;font-size:10px;font-family:'DejaVu Sans Mono';-inkscape-font-specification:DejaVuSansMono-Bold;writing-mode:lr-tb;fill:#000000;fill-opacity:1;fill-rule:nonzero;stroke:none"
             transform="matrix(1,0,0,-1,298.3,383.7)"><tspan
               id="tspan50"
               y="0"
               x="0 6 12 18 24 30 36 42 48 54 60 66 72 78 84 90 96 102">#include &lt;stdio.h&gt;</tspan></text>
</g><g
           id="g54"><text
             id="text58"
             style="font-variant:normal;font-weight:bold;font-size:10px;font-family:'DejaVu Sans Mono';-inkscape-font-specification:DejaVuSansMono-Bold;writing-mode:lr-tb;fill:#000000;fill-opacity:1;fill-rule:nonzero;stroke:none"
             transform="matrix(1,0,0,-1,298.3,362.4)"><tspan
               id="tspan56"
               y="0"
               x="0 6 12 18 24 30 36 42 48 54 60 66 72">void main() {</tspan></text>
</g><g
           id="g60"><text
             id="text64"
             style="font-variant:normal;font-weight:bold;font-size:10px;font-family:'DejaVu Sans Mono';-inkscape-font-specification:DejaVuSansMono-Bold;writing-mode:lr-tb;fill:#000000;fill-opacity:1;fill-rule:nonzero;stroke:none"
             transform="matrix(1,0,0,-1,334.3,351.7)"><tspan
               id="tspan62"
               y="0"
               x="0 6 12 18 24 30 36 42 48 54">int i,j=0;</tspan></text>
</g><g
           id="g66"><text
             id="text70"
             style="font-variant:normal;font-weight:bold;font-size:10px;font-family:'DejaVu Sans Mono';-inkscape-font-specification:DejaVuSansMono-Bold;writing-mode:lr-tb;fill:#000000;fill-opacity:1;fill-rule:nonzero;stroke:none"
             transform="matrix(1,0,0,-1,334.3,341.1)"><tspan
               id="tspan68"
               y="0"
               x="0 6 12 18 24 30 36 42 48 54 60 66">float f=1.0;</tspan></text>
</g><g
           id="g72"><text
             id="text76"
             style="font-variant:normal;font-weight:bold;font-size:10px;font-family:'DejaVu Sans Mono';-inkscape-font-specification:DejaVuSansMono-Bold;writing-mode:lr-tb;fill:#000000;fill-opacity:1;fill-rule:nonzero;stroke:none"
             transform="matrix(1,0,0,-1,334.3,330.4)"><tspan
               id="tspan74"
               y="0"
               x="0 6 12 18 24 30 36 42 48 54 60 66 72 78 84 90 96 102 108 114 120">for (i=0; i&lt;8; i++) {</tspan></text>
</g><g
           id="g78"><text
             id="text82"
             style="font-variant:normal;font-weight:bold;font-size:10px;font-family:'DejaVu Sans Mono';-inkscape-font-specification:DejaVuSansMono-Bold;writing-mode:lr-tb;fill:#000000;fill-opacity:1;fill-rule:nonzero;stroke:none"
             transform="matrix(1,0,0,-1,370.3,319.8)"><tspan
               id="tspan80"
               y="0"
               x="0 6 12 18 24 30 36">j += i;</tspan></text>
</g><g
           id="g84"><text
             id="text88"
             style="font-variant:normal;font-weight:bold;font-size:10px;font-family:'DejaVu Sans Mono';-inkscape-font-specification:DejaVuSansMono-Bold;writing-mode:lr-tb;fill:#000000;fill-opacity:1;fill-rule:nonzero;stroke:none"
             transform="matrix(1,0,0,-1,370.3,309.1)"><tspan
               id="tspan86"
               y="0"
               x="0 6 12 18 24 30 36 42 48">f *= j+i;</tspan></text>
</g><g
           id="g90"><text
             id="text94"
             style="font-variant:normal;font-weight:bold;font-size:10px;font-family:'DejaVu Sans Mono';-inkscape-font-specification:DejaVuSansMono-Bold;writing-mode:lr-tb;fill:#000000;fill-opacity:1;fill-rule:nonzero;stroke:none"
             transform="matrix(1,0,0,-1,334.3,298.4)"><tspan
               id="tspan92"
               y="0"
               x="0">}</tspan></text>
</g><path
           id="path96"
           style="fill:#99ccff;fill-opacity:1;fill-rule:evenodd;stroke:none"
           d="m 336,232.1 19.8,17.7 h 59.5 l 19.9,-17.7 -19.9,-17.7 h -59.5 z m 0,17.7 z m 99.2,-35.4 z"
           inkscape:connector-curvature="0" /><g
           id="g98"><path
             id="path100"
             style="fill:none;stroke:#000000;stroke-width:0.73580003;stroke-linecap:butt;stroke-linejoin:round;stroke-miterlimit:10;stroke-dasharray:none;stroke-opacity:1"
             d="m 336,232.1 19.8,17.7 h 59.5 l 19.9,-17.7 -19.9,-17.7 h -59.5 z"
             inkscape:connector-curvature="0" /></g><g
           id="g102"><path
             id="path104"
             style="fill:none;stroke:#000000;stroke-width:0.73580003;stroke-linecap:butt;stroke-linejoin:round;stroke-miterlimit:10;stroke-dasharray:none;stroke-opacity:1"
             d="M 336,249.8 Z"
             inkscape:connector-curvature="0" /></g><g
           id="g106"><path
             id="path108"
             style="fill:none;stroke:#000000;stroke-width:0.73580003;stroke-linecap:butt;stroke-linejoin:round;stroke-miterlimit:10;stroke-dasharray:none;stroke-opacity:1"
             d="M 435.2,214.4 Z"
             inkscape:connector-curvature="0" /></g><g
           id="g110"><text
             id="text114"
             style="font-variant:normal;font-weight:normal;font-size:16px;font-family:Carlito;-inkscape-font-specification:Carlito;writing-mode:lr-tb;fill:#000000;fill-opacity:1;fill-rule:nonzero;stroke:none"
             transform="matrix(1,0,0,-1,357.1,225.6)"><tspan
               id="tspan112"
               y="0"
               x="0 6.592 14.992 27.695999 36.096001 39.776001 43.456001 51.439999">compiler</tspan></text>
</g><path
           id="path116"
           style="fill:#ffc000;fill-opacity:1;fill-rule:evenodd;stroke:none"
           d="m 350.2,149.3 v 0 1.5 l 0.1,1.5 0.3,1.5 0.3,1.5 0.4,1.4 0.5,1.5 0.5,1.4 0.7,1.4 0.8,1.3 0.8,1.4 0.9,1.3 1,1.2 1.1,1.2 1.1,1.2 1.2,1.1 1.3,1 1.3,1 1.4,1 1.4,0.9 1.5,0.8 1.6,0.8 1.6,0.6 1.6,0.7 1.7,0.5 1.7,0.5 1.7,0.4 1.7,0.4 1.8,0.2 1.8,0.2 1.8,0.1 1.8,0.1 v 0 l 1.8,-0.1 1.9,-0.1 1.8,-0.2 1.8,-0.3 1.8,-0.3 1.8,-0.5 1.7,-0.5 1.8,-0.6 1.6,-0.6 1.7,-0.8 1.5,-0.8 1.6,-0.9 1.4,-0.9 1.4,-1 1.4,-1.1 1.3,-1.1 1.2,-1.2 1.1,-1.2 1,-1.3 1,-1.3 0.9,-1.3 0.8,-1.4 0.7,-1.5 0.6,-1.4 0.6,-1.5 0.4,-1.5 0.3,-1.5 0.3,-1.5 0.1,-1.6 0.1,-1.5 v 0 l -0.1,-1.6 -0.1,-1.5 -0.3,-1.6 -0.3,-1.5 -0.4,-1.5 -0.6,-1.5 -0.6,-1.4 -0.7,-1.5 -0.8,-1.3 -0.9,-1.4 -0.9,-1.3 -1.1,-1.3 -1.1,-1.2 -1.2,-1.2 -1.3,-1.1 -1.3,-1.1 -1.5,-1 -1.4,-0.9 -1.6,-0.9 -1.5,-0.8 -1.7,-0.7 -1.6,-0.7 -1.7,-0.6 -1.8,-0.5 -1.8,-0.5 -1.8,-0.3 -1.8,-0.3 -1.8,-0.2 -1.9,-0.1 -1.8,-0.1 v 0 l -1.9,0.1 -1.8,0.1 -1.9,0.2 -1.8,0.3 -1.8,0.3 -1.8,0.5 -1.7,0.5 -1.7,0.6 -1.7,0.6 -1.6,0.8 -1.6,0.8 -1.5,0.9 -1.5,0.9 -1.4,1 -1.4,1.1 -1.3,1.1 -1.2,1.2 -1.1,1.2 -1,1.3 -1,1.3 -0.9,1.3 -0.8,1.4 -0.7,1.5 -0.6,1.4 -0.5,1.5 -0.5,1.5 -0.3,1.5 -0.3,1.5 -0.1,1.6 -0.1,1.5 z m 0,29.6 z M 421,119.8 Z"
           inkscape:connector-curvature="0" /><g
           id="g118"><path
             id="path120"
             style="fill:none;stroke:#000000;stroke-width:0.73580003;stroke-linecap:butt;stroke-linejoin:round;stroke-miterlimit:10;stroke-dasharray:none;stroke-opacity:1"
             d="m 350.2,149.3 v 0 1.5 l 0.1,1.5 0.3,1.5 0.3,1.5 0.4,1.4 0.5,1.5 0.5,1.4 0.7,1.4 0.8,1.3 0.8,1.4 0.9,1.3 1,1.2 1.1,1.2 1.1,1.2 1.2,1.1 1.3,1 1.3,1 1.4,1 1.4,0.9 1.5,0.8 1.6,0.8 1.6,0.6 1.6,0.7 1.7,0.5 1.7,0.5 1.7,0.4 1.7,0.4 1.8,0.2 1.8,0.2 1.8,0.1 1.8,0.1 v 0 l 1.8,-0.1 1.9,-0.1 1.8,-0.2 1.8,-0.3 1.8,-0.3 1.8,-0.5 1.7,-0.5 1.8,-0.6 1.6,-0.6 1.7,-0.8 1.5,-0.8 1.6,-0.9 1.4,-0.9 1.4,-1 1.4,-1.1 1.3,-1.1 1.2,-1.2 1.1,-1.2 1,-1.3 1,-1.3 0.9,-1.3 0.8,-1.4 0.7,-1.5 0.6,-1.4 0.6,-1.5 0.4,-1.5 0.3,-1.5 0.3,-1.5 0.1,-1.6 0.1,-1.5 v 0 l -0.1,-1.6 -0.1,-1.5 -0.3,-1.6 -0.3,-1.5 -0.4,-1.5 -0.6,-1.5 -0.6,-1.4 -0.7,-1.5 -0.8,-1.3 -0.9,-1.4 -0.9,-1.3 -1.1,-1.3 -1.1,-1.2 -1.2,-1.2 -1.3,-1.1 -1.3,-1.1 -1.5,-1 -1.4,-0.9 -1.6,-0.9 -1.5,-0.8 -1.7,-0.7 -1.6,-0.7 -1.7,-0.6 -1.8,-0.5 -1.8,-0.5 -1.8,-0.3 -1.8,-0.3 -1.8,-0.2 -1.9,-0.1 -1.8,-0.1 v 0 l -1.9,0.1 -1.8,0.1 -1.9,0.2 -1.8,0.3 -1.8,0.3 -1.8,0.5 -1.7,0.5 -1.7,0.6 -1.7,0.6 -1.6,0.8 -1.6,0.8 -1.5,0.9 -1.5,0.9 -1.4,1 -1.4,1.1 -1.3,1.1 -1.2,1.2 -1.1,1.2 -1,1.3 -1,1.3 -0.9,1.3 -0.8,1.4 -0.7,1.5 -0.6,1.4 -0.5,1.5 -0.5,1.5 -0.3,1.5 -0.3,1.5 -0.1,1.6 -0.1,1.5 z"
             inkscape:connector-curvature="0" /></g><g
           id="g122"><path
             id="path124"
             style="fill:none;stroke:#000000;stroke-width:0.73580003;stroke-linecap:butt;stroke-linejoin:round;stroke-miterlimit:10;stroke-dasharray:none;stroke-opacity:1"
             d="M 350.2,178.9 Z"
             inkscape:connector-curvature="0" /></g><g
           id="g126"><path
             id="path128"
             style="fill:none;stroke:#000000;stroke-width:0.73580003;stroke-linecap:butt;stroke-linejoin:round;stroke-miterlimit:10;stroke-dasharray:none;stroke-opacity:1"
             d="M 421,119.8 Z"
             inkscape:connector-curvature="0" /></g><g
           id="g130"><text
             id="text134"
             style="font-variant:normal;font-weight:normal;font-size:16px;font-family:Carlito;-inkscape-font-specification:Carlito;writing-mode:lr-tb;fill:#000000;fill-opacity:1;fill-rule:nonzero;stroke:none"
             transform="matrix(1,0,0,-1,357.9,142.9)"><tspan
               id="tspan132"
               y="0"
               x="0 8.3999996 13.696 22.096001 29.68 34.976002 42.576">program</tspan></text>
</g><path
           id="path136"
           style="fill:none;stroke:#000000;stroke-width:0.1;stroke-linecap:butt;stroke-linejoin:miter;stroke-miterlimit:10;stroke-dasharray:none;stroke-opacity:1"
           d="m 385.6,293 v -22.8 h -70.1 v -38.1 h 14.4"
           inkscape:connector-curvature="0" /><path
           id="path138"
           style="fill:#000000;fill-opacity:1;fill-rule:evenodd;stroke:none"
           d="m 335.5,232.1 -6,-2.9 v 5.9 z"
           inkscape:connector-curvature="0" /><path
           id="path140"
           style="fill:none;stroke:#000000;stroke-width:0.1;stroke-linecap:butt;stroke-linejoin:miter;stroke-miterlimit:10;stroke-dasharray:none;stroke-opacity:1"
           d="m 435.5,232.1 h 20 v -32.8 h -69.9 v -14.4"
           inkscape:connector-curvature="0" /><path
           id="path142"
           style="fill:#000000;fill-opacity:1;fill-rule:evenodd;stroke:none"
           d="m 385.6,179.3 -3,6 h 5.9 z"
           inkscape:connector-curvature="0" /><g
           id="g144"><text
             id="text148"
             style="font-variant:normal;font-weight:normal;font-size:18px;font-family:Carlito;-inkscape-font-specification:Carlito;writing-mode:lr-tb;fill:#008292;fill-opacity:1;fill-rule:nonzero;stroke:none"
             transform="matrix(1,0,0,-1,474.2,223.5)"><tspan
               id="tspan146"
               y="0"
               x="0 8.4060001 16.002001 23.507999 27.99 31.986 39.582001 47.178001 51.57 55.655998 60.155998 64.746002">gcc, cc, ...</tspan></text>
</g><g
           id="g150"><text
             id="text154"
             style="font-variant:normal;font-weight:normal;font-size:18px;font-family:Carlito;-inkscape-font-specification:Carlito;writing-mode:lr-tb;fill:#008292;fill-opacity:1;fill-rule:nonzero;stroke:none"
             transform="matrix(1,0,0,-1,474.1,140.8)"><tspan
               id="tspan152"
               y="0"
               x="0 4.5900002 11.484 16.686001 26.172001">./foo</tspan></text>
</g><g
           id="g156"><text
             id="text160"
             style="font-variant:normal;font-weight:normal;font-size:18px;font-family:Carlito;-inkscape-font-specification:Carlito;writing-mode:lr-tb;fill:#008292;fill-opacity:1;fill-rule:nonzero;stroke:none"
             transform="matrix(1,0,0,-1,473,336)"><tspan
               id="tspan158"
               y="0"
               x="0 5.0939999 14.58 24.066 28.656">foo.c</tspan></text>
</g><g
           id="g162"><text
             id="text166"
             style="font-variant:normal;font-weight:normal;font-size:18px;font-family:Carlito;-inkscape-font-specification:Carlito;writing-mode:lr-tb;fill:#008292;fill-opacity:1;fill-rule:nonzero;stroke:none"
             transform="matrix(1,0,0,-1,212.9,228.3)"><tspan
               id="tspan164"
               y="0"
               x="0 9.4860001 15.48 24.462 33.948002 39.942001 49.338001 56.933998 65.916 72.989998 80.064003 89.459999">preprocessor</tspan></text>
</g><g
           id="g168"><text
             id="text172"
             style="font-variant:normal;font-weight:normal;font-size:18px;font-family:Carlito;-inkscape-font-specification:Carlito;writing-mode:lr-tb;fill:#008292;fill-opacity:1;fill-rule:nonzero;stroke:none"
             transform="matrix(1,0,0,-1,244.6,206.7)"><tspan
               id="tspan170"
               y="0"
               x="0 7.3979998 16.884001 31.266001 40.751999 44.748001 48.852001 57.834">compiler</tspan></text>
</g><g
           id="g174"><text
             id="text178"
             style="font-variant:normal;font-weight:normal;font-size:18px;font-family:Carlito;-inkscape-font-specification:Carlito;writing-mode:lr-tb;fill:#008292;fill-opacity:1;fill-rule:nonzero;stroke:none"
             transform="matrix(1,0,0,-1,268.3,185.1)"><tspan
               id="tspan176"
               y="0"
               x="0 4.1040001 8.2080002 17.694 25.200001 34.181999">linker</tspan></text>
</g></g></g></g><path
     style="fill:none;stroke:#000000;stroke-width:1px;stroke-linecap:butt;stroke-linejoin:miter;stroke-opacity:1"
     d="m 514.13332,402.66667 v 30.4 h -93.46666 v 50.8 h 19.2"
     id="path897"
     inkscape:connector-curvature="0"
     clip-path="url(#clipPath909)"
     transform="translate(-278.23931,-211.4059)" /><path
     style="fill:none;stroke:#000000;stroke-width:1px;stroke-linecap:butt;stroke-linejoin:miter;stroke-opacity:1"
     d="m 580.66665,483.86667 h 26.66667 V 527.6 h -93.2 v 19.2"
     id="path899"
     inkscape:connector-curvature="0"
     clip-path="url(#clipPath905)"
     transform="translate(-278.23931,-211.4059)" /></svg>