<?xml version="1.0" encoding="UTF-8" standalone="no"?>
<svg
   xmlns:dc="http://purl.org/dc/elements/1.1/"
   xmlns:cc="http://creativecommons.org/ns#"
   xmlns:rdf="http://www.w3.org/1999/02/22-rdf-syntax-ns#"
   xmlns:svg="http://www.w3.org/2000/svg"
   xmlns="http://www.w3.org/2000/svg"
   xmlns:sodipodi="http://sodipodi.sourceforge.net/DTD/sodipodi-0.dtd"
   xmlns:inkscape="http://www.inkscape.org/namespaces/inkscape"
   viewBox="0 0 689.9382 243.46614"
   height="243.46614"
   width="689.93823"
   xml:space="preserve"
   id="svg2"
   version="1.1"
   sodipodi:docname="pointer1-01.svg"
   inkscape:version="0.92.2 (5c3e80d, 2017-08-06)"><sodipodi:namedview
     pagecolor="#ffffff"
     bordercolor="#666666"
     borderopacity="1"
     objecttolerance="10"
     gridtolerance="10"
     guidetolerance="10"
     inkscape:pageopacity="0"
     inkscape:pageshadow="2"
     inkscape:window-width="1920"
     inkscape:window-height="981"
     id="namedview260"
     showgrid="false"
     inkscape:measure-start="0,0"
     inkscape:measure-end="0,0"
     inkscape:zoom="0.49663867"
     inkscape:cx="-217.03761"
     inkscape:cy="1.3991216"
     inkscape:window-x="0"
     inkscape:window-y="28"
     inkscape:window-maximized="1"
     inkscape:current-layer="svg2"
     fit-margin-top="0"
     fit-margin-left="0"
     fit-margin-right="0"
     fit-margin-bottom="0" /><metadata
     id="metadata8"><rdf:RDF><cc:Work
         rdf:about=""><dc:format>image/svg+xml</dc:format><dc:type
           rdf:resource="http://purl.org/dc/dcmitype/StillImage" /><dc:title></dc:title></cc:Work></rdf:RDF></metadata><defs
     id="defs6"><clipPath
       id="clipPath18"
       clipPathUnits="userSpaceOnUse"><path
         style="clip-rule:evenodd"
         id="path16"
         d="M 0,-0.2 H 793.6 V 595 H 0 Z"
         inkscape:connector-curvature="0" /></clipPath><clipPath
       clipPathUnits="userSpaceOnUse"
       id="clipPath1077"><rect
         style="opacity:1;fill:none;stroke:#000000;stroke-width:6.08504391;stroke-miterlimit:4;stroke-dasharray:none;stroke-opacity:1"
         id="rect1079"
         width="517.45367"
         height="182.59961"
         x="121.83408"
         y="-402.39767"
         ry="0"
         rx="0"
         transform="scale(1,-1)" /></clipPath></defs><g
     transform="matrix(1.3333333,0,0,-1.3333333,-162.44544,536.53022)"
     id="g10"
     clip-path="url(#clipPath1077)"><g
       id="g12"><g
         clip-path="url(#clipPath18)"
         id="g14"><path
           id="path20"
           style="fill:#ffffff;fill-opacity:1;fill-rule:evenodd;stroke:none"
           d="M 0,595 H 793.7 V -0.2 H 0 Z"
           inkscape:connector-curvature="0" /><g
           id="g22" /><g
           id="g24" /><path
           id="path26"
           style="fill:#525e66;fill-opacity:1;fill-rule:evenodd;stroke:none"
           d="m 222,342.7 h -8.5 v 14.1 h 17 v -14.1 z"
           inkscape:connector-curvature="0" /><g
           id="g28"><path
             id="path30"
             style="fill:none;stroke:#3c454a;stroke-width:2.00929999;stroke-linecap:butt;stroke-linejoin:round;stroke-miterlimit:10;stroke-dasharray:none;stroke-opacity:1"
             d="m 222,342.7 h -8.5 v 14.1 h 17 v -14.1 z"
             inkscape:connector-curvature="0" /></g><path
           id="path32"
           style="fill:#525e66;fill-opacity:1;fill-rule:evenodd;stroke:none"
           d="m 239,342.7 h -8.5 v 14.1 h 17 v -14.1 z"
           inkscape:connector-curvature="0" /><g
           id="g34"><path
             id="path36"
             style="fill:none;stroke:#3c454a;stroke-width:2.00929999;stroke-linecap:butt;stroke-linejoin:round;stroke-miterlimit:10;stroke-dasharray:none;stroke-opacity:1"
             d="m 239,342.7 h -8.5 v 14.1 h 17 v -14.1 z"
             inkscape:connector-curvature="0" /></g><path
           id="path38"
           style="fill:#525e66;fill-opacity:1;fill-rule:evenodd;stroke:none"
           d="m 256,342.7 h -8.5 v 14.1 h 17 v -14.1 z"
           inkscape:connector-curvature="0" /><g
           id="g40"><path
             id="path42"
             style="fill:none;stroke:#3c454a;stroke-width:2.00929999;stroke-linecap:butt;stroke-linejoin:round;stroke-miterlimit:10;stroke-dasharray:none;stroke-opacity:1"
             d="m 256,342.7 h -8.5 v 14.1 h 17 v -14.1 z"
             inkscape:connector-curvature="0" /></g><path
           id="path44"
           style="fill:#525e66;fill-opacity:1;fill-rule:evenodd;stroke:none"
           d="m 273,342.7 h -8.5 v 14.1 h 17 v -14.1 z"
           inkscape:connector-curvature="0" /><g
           id="g46"><path
             id="path48"
             style="fill:none;stroke:#3c454a;stroke-width:2.00929999;stroke-linecap:butt;stroke-linejoin:round;stroke-miterlimit:10;stroke-dasharray:none;stroke-opacity:1"
             d="m 273,342.7 h -8.5 v 14.1 h 17 v -14.1 z"
             inkscape:connector-curvature="0" /></g><path
           id="path50"
           style="fill:#ffc000;fill-opacity:1;fill-rule:evenodd;stroke:none"
           d="m 290,342.7 h -8.5 v 14.1 h 17 v -14.1 z"
           inkscape:connector-curvature="0" /><g
           id="g52"><path
             id="path54"
             style="fill:none;stroke:#3c454a;stroke-width:2.00929999;stroke-linecap:butt;stroke-linejoin:round;stroke-miterlimit:10;stroke-dasharray:none;stroke-opacity:1"
             d="m 290,342.7 h -8.5 v 14.1 h 17 v -14.1 z"
             inkscape:connector-curvature="0" /></g><path
           id="path56"
           style="fill:#ffc000;fill-opacity:1;fill-rule:evenodd;stroke:none"
           d="m 307,342.7 h -8.5 v 14.1 h 17 v -14.1 z"
           inkscape:connector-curvature="0" /><g
           id="g58"><path
             id="path60"
             style="fill:none;stroke:#3c454a;stroke-width:2.00929999;stroke-linecap:butt;stroke-linejoin:round;stroke-miterlimit:10;stroke-dasharray:none;stroke-opacity:1"
             d="m 307,342.7 h -8.5 v 14.1 h 17 v -14.1 z"
             inkscape:connector-curvature="0" /></g><path
           id="path62"
           style="fill:#ffc000;fill-opacity:1;fill-rule:evenodd;stroke:none"
           d="m 324.1,342.7 h -8.5 v 14.1 h 16.9 v -14.1 z"
           inkscape:connector-curvature="0" /><g
           id="g64"><path
             id="path66"
             style="fill:none;stroke:#3c454a;stroke-width:2.00929999;stroke-linecap:butt;stroke-linejoin:round;stroke-miterlimit:10;stroke-dasharray:none;stroke-opacity:1"
             d="m 324.1,342.7 h -8.5 v 14.1 h 16.9 v -14.1 z"
             inkscape:connector-curvature="0" /></g><path
           id="path68"
           style="fill:#ffc000;fill-opacity:1;fill-rule:evenodd;stroke:none"
           d="m 341.1,342.7 h -8.5 v 14.1 h 16.9 v -14.1 z"
           inkscape:connector-curvature="0" /><g
           id="g70"><path
             id="path72"
             style="fill:none;stroke:#3c454a;stroke-width:2.00929999;stroke-linecap:butt;stroke-linejoin:round;stroke-miterlimit:10;stroke-dasharray:none;stroke-opacity:1"
             d="m 341.1,342.7 h -8.5 v 14.1 h 16.9 v -14.1 z"
             inkscape:connector-curvature="0" /></g><path
           id="path74"
           style="fill:#525e66;fill-opacity:1;fill-rule:evenodd;stroke:none"
           d="m 358.1,342.7 h -8.5 v 14.1 h 16.9 v -14.1 z"
           inkscape:connector-curvature="0" /><g
           id="g76"><path
             id="path78"
             style="fill:none;stroke:#3c454a;stroke-width:2.00929999;stroke-linecap:butt;stroke-linejoin:round;stroke-miterlimit:10;stroke-dasharray:none;stroke-opacity:1"
             d="m 358.1,342.7 h -8.5 v 14.1 h 16.9 v -14.1 z"
             inkscape:connector-curvature="0" /></g><path
           id="path80"
           style="fill:#525e66;fill-opacity:1;fill-rule:evenodd;stroke:none"
           d="m 375.1,342.7 h -8.5 v 14.1 h 17 v -14.1 z"
           inkscape:connector-curvature="0" /><g
           id="g82"><path
             id="path84"
             style="fill:none;stroke:#3c454a;stroke-width:2.00929999;stroke-linecap:butt;stroke-linejoin:round;stroke-miterlimit:10;stroke-dasharray:none;stroke-opacity:1"
             d="m 375.1,342.7 h -8.5 v 14.1 h 17 v -14.1 z"
             inkscape:connector-curvature="0" /></g><path
           id="path86"
           style="fill:#525e66;fill-opacity:1;fill-rule:evenodd;stroke:none"
           d="m 392.1,342.7 h -8.5 v 14.1 h 17 v -14.1 z"
           inkscape:connector-curvature="0" /><g
           id="g88"><path
             id="path90"
             style="fill:none;stroke:#3c454a;stroke-width:2.00929999;stroke-linecap:butt;stroke-linejoin:round;stroke-miterlimit:10;stroke-dasharray:none;stroke-opacity:1"
             d="m 392.1,342.7 h -8.5 v 14.1 h 17 v -14.1 z"
             inkscape:connector-curvature="0" /></g><path
           id="path92"
           style="fill:#525e66;fill-opacity:1;fill-rule:evenodd;stroke:none"
           d="m 409.1,342.7 h -8.5 v 14.1 h 17 v -14.1 z"
           inkscape:connector-curvature="0" /><g
           id="g94"><path
             id="path96"
             style="fill:none;stroke:#3c454a;stroke-width:2.00929999;stroke-linecap:butt;stroke-linejoin:round;stroke-miterlimit:10;stroke-dasharray:none;stroke-opacity:1"
             d="m 409.1,342.7 h -8.5 v 14.1 h 17 v -14.1 z"
             inkscape:connector-curvature="0" /></g><path
           id="path98"
           style="fill:#525e66;fill-opacity:1;fill-rule:evenodd;stroke:none"
           d="m 426.1,342.7 h -8.5 v 14.1 h 17 v -14.1 z"
           inkscape:connector-curvature="0" /><g
           id="g100"><path
             id="path102"
             style="fill:none;stroke:#3c454a;stroke-width:2.00929999;stroke-linecap:butt;stroke-linejoin:round;stroke-miterlimit:10;stroke-dasharray:none;stroke-opacity:1"
             d="m 426.1,342.7 h -8.5 v 14.1 h 17 v -14.1 z"
             inkscape:connector-curvature="0" /></g><path
           id="path104"
           style="fill:#525e66;fill-opacity:1;fill-rule:evenodd;stroke:none"
           d="m 443.1,342.7 h -8.5 v 14.1 h 17 v -14.1 z"
           inkscape:connector-curvature="0" /><g
           id="g106"><path
             id="path108"
             style="fill:none;stroke:#3c454a;stroke-width:2.00929999;stroke-linecap:butt;stroke-linejoin:round;stroke-miterlimit:10;stroke-dasharray:none;stroke-opacity:1"
             d="m 443.1,342.7 h -8.5 v 14.1 h 17 v -14.1 z"
             inkscape:connector-curvature="0" /></g><path
           id="path110"
           style="fill:#525e66;fill-opacity:1;fill-rule:evenodd;stroke:none"
           d="m 460.1,342.7 h -8.5 v 14.1 h 17 v -14.1 z"
           inkscape:connector-curvature="0" /><g
           id="g112"><path
             id="path114"
             style="fill:none;stroke:#3c454a;stroke-width:2.00929999;stroke-linecap:butt;stroke-linejoin:round;stroke-miterlimit:10;stroke-dasharray:none;stroke-opacity:1"
             d="m 460.1,342.7 h -8.5 v 14.1 h 17 v -14.1 z"
             inkscape:connector-curvature="0" /></g><path
           id="path116"
           style="fill:#525e66;fill-opacity:1;fill-rule:evenodd;stroke:none"
           d="m 477.2,342.7 h -8.5 v 14.1 h 16.9 v -14.1 z"
           inkscape:connector-curvature="0" /><g
           id="g118"><path
             id="path120"
             style="fill:none;stroke:#3c454a;stroke-width:2.00929999;stroke-linecap:butt;stroke-linejoin:round;stroke-miterlimit:10;stroke-dasharray:none;stroke-opacity:1"
             d="m 477.2,342.7 h -8.5 v 14.1 h 16.9 v -14.1 z"
             inkscape:connector-curvature="0" /></g><path
           id="path122"
           style="fill:#525e66;fill-opacity:1;fill-rule:evenodd;stroke:none"
           d="m 494.2,342.7 h -8.5 v 14.1 h 16.9 v -14.1 z"
           inkscape:connector-curvature="0" /><g
           id="g124"><path
             id="path126"
             style="fill:none;stroke:#3c454a;stroke-width:2.00929999;stroke-linecap:butt;stroke-linejoin:round;stroke-miterlimit:10;stroke-dasharray:none;stroke-opacity:1"
             d="m 494.2,342.7 h -8.5 v 14.1 h 16.9 v -14.1 z"
             inkscape:connector-curvature="0" /></g><path
           id="path128"
           style="fill:#525e66;fill-opacity:1;fill-rule:evenodd;stroke:none"
           d="m 511.2,342.7 h -8.5 v 14.1 h 16.9 v -14.1 z"
           inkscape:connector-curvature="0" /><g
           id="g130"><path
             id="path132"
             style="fill:none;stroke:#3c454a;stroke-width:2.00929999;stroke-linecap:butt;stroke-linejoin:round;stroke-miterlimit:10;stroke-dasharray:none;stroke-opacity:1"
             d="m 511.2,342.7 h -8.5 v 14.1 h 16.9 v -14.1 z"
             inkscape:connector-curvature="0" /></g><path
           id="path134"
           style="fill:#525e66;fill-opacity:1;fill-rule:evenodd;stroke:none"
           d="m 528.2,342.7 h -8.5 v 14.1 h 17 v -14.1 z"
           inkscape:connector-curvature="0" /><g
           id="g136"><path
             id="path138"
             style="fill:none;stroke:#3c454a;stroke-width:2.00929999;stroke-linecap:butt;stroke-linejoin:round;stroke-miterlimit:10;stroke-dasharray:none;stroke-opacity:1"
             d="m 528.2,342.7 h -8.5 v 14.1 h 17 v -14.1 z"
             inkscape:connector-curvature="0" /></g><path
           id="path140"
           style="fill:#525e66;fill-opacity:1;fill-rule:evenodd;stroke:none"
           d="m 545.2,342.7 h -8.5 v 14.1 h 17 v -14.1 z"
           inkscape:connector-curvature="0" /><g
           id="g142"><path
             id="path144"
             style="fill:none;stroke:#3c454a;stroke-width:2.00929999;stroke-linecap:butt;stroke-linejoin:round;stroke-miterlimit:10;stroke-dasharray:none;stroke-opacity:1"
             d="m 545.2,342.7 h -8.5 v 14.1 h 17 v -14.1 z"
             inkscape:connector-curvature="0" /></g><path
           id="path146"
           style="fill:#525e66;fill-opacity:1;fill-rule:evenodd;stroke:none"
           d="m 562.2,342.7 h -8.5 v 14.1 h 17 v -14.1 z"
           inkscape:connector-curvature="0" /><g
           id="g148"><path
             id="path150"
             style="fill:none;stroke:#3c454a;stroke-width:2.00929999;stroke-linecap:butt;stroke-linejoin:round;stroke-miterlimit:10;stroke-dasharray:none;stroke-opacity:1"
             d="m 562.2,342.7 h -8.5 v 14.1 h 17 v -14.1 z"
             inkscape:connector-curvature="0" /></g><path
           id="path152"
           style="fill:#525e66;fill-opacity:1;fill-rule:evenodd;stroke:none"
           d="m 579.2,342.7 h -8.5 v 14.1 h 17 v -14.1 z"
           inkscape:connector-curvature="0" /><g
           id="g154"><path
             id="path156"
             style="fill:none;stroke:#3c454a;stroke-width:2.00929999;stroke-linecap:butt;stroke-linejoin:round;stroke-miterlimit:10;stroke-dasharray:none;stroke-opacity:1"
             d="m 579.2,342.7 h -8.5 v 14.1 h 17 v -14.1 z"
             inkscape:connector-curvature="0" /></g><path
           id="path158"
           style="fill:#525e66;fill-opacity:1;fill-rule:evenodd;stroke:none"
           d="m 596.2,342.7 h -8.5 v 14.1 h 17 v -14.1 z"
           inkscape:connector-curvature="0" /><g
           id="g160"><path
             id="path162"
             style="fill:none;stroke:#3c454a;stroke-width:2.00929999;stroke-linecap:butt;stroke-linejoin:round;stroke-miterlimit:10;stroke-dasharray:none;stroke-opacity:1"
             d="m 596.2,342.7 h -8.5 v 14.1 h 17 v -14.1 z"
             inkscape:connector-curvature="0" /></g><path
           id="path164"
           style="fill:#525e66;fill-opacity:1;fill-rule:evenodd;stroke:none"
           d="m 613.2,342.7 h -8.5 v 14.1 h 17 v -14.1 z"
           inkscape:connector-curvature="0" /><g
           id="g166"><path
             id="path168"
             style="fill:none;stroke:#3c454a;stroke-width:2.00929999;stroke-linecap:butt;stroke-linejoin:round;stroke-miterlimit:10;stroke-dasharray:none;stroke-opacity:1"
             d="m 613.2,342.7 h -8.5 v 14.1 h 17 v -14.1 z"
             inkscape:connector-curvature="0" /></g><g
           id="g170"><text
             id="text174"
             style="font-variant:normal;font-weight:bold;font-size:20px;font-family:'DejaVu Sans Mono';-inkscape-font-specification:DejaVuSansMono-Bold;writing-mode:lr-tb;fill:#000000;fill-opacity:1;fill-rule:nonzero;stroke:none"
             transform="matrix(1,0,0,-1,281.6,369.8)"><tspan
               id="tspan172"
               y="0"
               x="0 12.08 24.16 36.240002 48.32">int a</tspan></text>
</g><g
           id="g176"><text
             id="text180"
             style="font-variant:normal;font-weight:normal;font-size:20px;font-family:Carlito;-inkscape-font-specification:Carlito;writing-mode:lr-tb;fill:#000000;fill-opacity:1;fill-rule:nonzero;stroke:none"
             transform="matrix(1,0,0,-1,133.2,343.8)"><tspan
               id="tspan178"
               y="0"
               x="0 15.98 25.879999 41.860001 52.360001 59.439999">memory</tspan></text>
</g><path
           id="path182"
           style="fill:#939fa8;fill-opacity:1;fill-rule:evenodd;stroke:none"
           d="m 179.5,261.5 v 0 0.3 0.3 0.3 l 0.1,0.3 0.1,0.2 v 0.3 l 0.2,0.3 0.1,0.3 0.1,0.2 0.1,0.3 0.2,0.2 0.1,0.3 0.2,0.2 0.2,0.2 0.2,0.2 0.2,0.2 0.2,0.2 0.3,0.2 0.2,0.2 0.2,0.1 0.3,0.1 0.2,0.1 0.3,0.2 0.3,0.1 h 0.3 l 0.3,0.1 0.2,0.1 h 0.3 0.3 0.3 74 v 0 h 0.3 0.3 0.3 l 0.2,-0.1 0.3,-0.1 h 0.3 l 0.3,-0.1 0.2,-0.2 0.3,-0.1 0.3,-0.1 0.2,-0.1 0.2,-0.2 0.3,-0.2 0.2,-0.2 0.2,-0.2 0.2,-0.2 0.2,-0.2 0.2,-0.2 0.1,-0.3 0.2,-0.2 0.1,-0.3 0.1,-0.2 0.1,-0.3 0.1,-0.3 0.1,-0.3 0.1,-0.2 v -0.3 l 0.1,-0.3 v -0.3 -0.3 -22 0 -0.3 -0.3 l -0.1,-0.3 v -0.3 l -0.1,-0.2 -0.1,-0.3 -0.1,-0.3 -0.1,-0.3 -0.1,-0.2 -0.1,-0.3 -0.2,-0.2 -0.1,-0.3 -0.2,-0.2 -0.2,-0.2 -0.2,-0.2 -0.2,-0.2 -0.2,-0.2 -0.2,-0.2 -0.3,-0.1 -0.2,-0.2 -0.3,-0.1 -0.2,-0.1 -0.3,-0.2 h -0.3 l -0.3,-0.1 -0.2,-0.1 h -0.3 l -0.3,-0.1 h -0.3 -0.3 -74 v 0 h -0.3 -0.3 -0.3 l -0.2,0.1 -0.3,0.1 h -0.3 l -0.3,0.1 -0.3,0.2 -0.2,0.1 -0.3,0.1 -0.2,0.2 -0.2,0.1 -0.3,0.2 -0.2,0.2 -0.2,0.2 -0.2,0.2 -0.2,0.2 -0.2,0.2 -0.1,0.3 -0.2,0.2 -0.1,0.3 -0.1,0.2 -0.1,0.3 -0.1,0.2 -0.1,0.3 -0.1,0.3 v 0.3 l -0.1,0.3 v 0.3 0.3 z m 0,5.5 z m 85,-33 z"
           inkscape:connector-curvature="0" /><g
           id="g184"><path
             id="path186"
             style="fill:none;stroke:#a4a7a6;stroke-width:2.00929999;stroke-linecap:butt;stroke-linejoin:round;stroke-miterlimit:10;stroke-dasharray:none;stroke-opacity:1"
             d="m 179.5,261.5 v 0 0.3 0.3 0.3 l 0.1,0.3 0.1,0.2 v 0.3 l 0.2,0.3 0.1,0.3 0.1,0.2 0.1,0.3 0.2,0.2 0.1,0.3 0.2,0.2 0.2,0.2 0.2,0.2 0.2,0.2 0.2,0.2 0.3,0.2 0.2,0.2 0.2,0.1 0.3,0.1 0.2,0.1 0.3,0.2 0.3,0.1 h 0.3 l 0.3,0.1 0.2,0.1 h 0.3 0.3 0.3 74 v 0 h 0.3 0.3 0.3 l 0.2,-0.1 0.3,-0.1 h 0.3 l 0.3,-0.1 0.2,-0.2 0.3,-0.1 0.3,-0.1 0.2,-0.1 0.2,-0.2 0.3,-0.2 0.2,-0.2 0.2,-0.2 0.2,-0.2 0.2,-0.2 0.2,-0.2 0.1,-0.3 0.2,-0.2 0.1,-0.3 0.1,-0.2 0.1,-0.3 0.1,-0.3 0.1,-0.3 0.1,-0.2 v -0.3 l 0.1,-0.3 v -0.3 -0.3 -22 0 -0.3 -0.3 l -0.1,-0.3 v -0.3 l -0.1,-0.2 -0.1,-0.3 -0.1,-0.3 -0.1,-0.3 -0.1,-0.2 -0.1,-0.3 -0.2,-0.2 -0.1,-0.3 -0.2,-0.2 -0.2,-0.2 -0.2,-0.2 -0.2,-0.2 -0.2,-0.2 -0.2,-0.2 -0.3,-0.1 -0.2,-0.2 -0.3,-0.1 -0.2,-0.1 -0.3,-0.2 h -0.3 l -0.3,-0.1 -0.2,-0.1 h -0.3 l -0.3,-0.1 h -0.3 -0.3 -74 v 0 h -0.3 -0.3 -0.3 l -0.2,0.1 -0.3,0.1 h -0.3 l -0.3,0.1 -0.3,0.2 -0.2,0.1 -0.3,0.1 -0.2,0.2 -0.2,0.1 -0.3,0.2 -0.2,0.2 -0.2,0.2 -0.2,0.2 -0.2,0.2 -0.2,0.2 -0.1,0.3 -0.2,0.2 -0.1,0.3 -0.1,0.2 -0.1,0.3 -0.1,0.2 -0.1,0.3 -0.1,0.3 v 0.3 l -0.1,0.3 v 0.3 0.3 z"
             inkscape:connector-curvature="0" /></g><g
           id="g188"><path
             id="path190"
             style="fill:none;stroke:#a4a7a6;stroke-width:2.00929999;stroke-linecap:butt;stroke-linejoin:round;stroke-miterlimit:10;stroke-dasharray:none;stroke-opacity:1"
             d="M 179.5,267 Z"
             inkscape:connector-curvature="0" /></g><g
           id="g192"><path
             id="path194"
             style="fill:none;stroke:#a4a7a6;stroke-width:2.00929999;stroke-linecap:butt;stroke-linejoin:round;stroke-miterlimit:10;stroke-dasharray:none;stroke-opacity:1"
             d="M 264.5,234 Z"
             inkscape:connector-curvature="0" /></g><g
           id="g196"><text
             id="text200"
             style="font-variant:normal;font-weight:normal;font-size:18px;font-family:'DejaVu Sans Mono';-inkscape-font-specification:DejaVuSansMono;writing-mode:lr-tb;fill:#ffffff;fill-opacity:1;fill-rule:nonzero;stroke:none"
             transform="matrix(1,0,0,-1,189.6,243.3)"><tspan
               id="tspan198"
               y="0"
               x="0 10.8 21.6 32.400002 43.200001 54">int *p</tspan></text>
</g><g
           id="g202"><path
             id="path204"
             style="fill:none;stroke:#939fa8;stroke-width:2.23569989;stroke-linecap:butt;stroke-linejoin:round;stroke-miterlimit:10;stroke-dasharray:none;stroke-opacity:1"
             d="M 265.5,250.5 H 290 v 84.9"
             inkscape:connector-curvature="0" /></g><path
           id="path206"
           style="fill:#939fa8;fill-opacity:1;fill-rule:evenodd;stroke:none"
           d="m 290,341.7 3.4,-6.7 h -6.7 z"
           inkscape:connector-curvature="0" /><g
           id="g208"><text
             id="text212"
             style="font-variant:normal;font-weight:normal;font-size:20px;font-family:Carlito;-inkscape-font-specification:Carlito;writing-mode:lr-tb;fill:#000000;fill-opacity:1;fill-rule:nonzero;stroke:none"
             transform="matrix(1,0,0,-1,291.2,311.8)"><tspan
               id="tspan210"
               y="0"
               x="0 9.5799999 20.16 30.66 37.360001 47.34 55.139999">address</tspan></text>
</g></g></g></g></svg>