<?xml version="1.0" encoding="UTF-8" standalone="no"?>
<svg
   xmlns:dc="http://purl.org/dc/elements/1.1/"
   xmlns:cc="http://creativecommons.org/ns#"
   xmlns:rdf="http://www.w3.org/1999/02/22-rdf-syntax-ns#"
   xmlns:svg="http://www.w3.org/2000/svg"
   xmlns="http://www.w3.org/2000/svg"
   id="svg516"
   version="1.1"
   viewBox="0 0 210 297"
   height="297mm"
   width="210mm">
  <defs
     id="defs510" />
  <metadata
     id="metadata513">
    <rdf:RDF>
      <cc:Work
         rdf:about="">
        <dc:format>image/svg+xml</dc:format>
        <dc:type
           rdf:resource="http://purl.org/dc/dcmitype/StillImage" />
        <dc:title></dc:title>
      </cc:Work>
    </rdf:RDF>
  </metadata>
  <g
     id="layer1">
    <g
       style="visibility:hidden"
       id="id32"
       transform="matrix(0.26458333,0,0,0.26458333,-4820.6138,-3245.4873)">
      <rect
         class="BoundingBox"
         x="16926"
         y="11373"
         width="836"
         height="836"
         id="rect709"
         style="fill:none;stroke:none" />
      <path
         d="m 17344,12190 h -400 v -799 h 799 v 799 z"
         id="path711"
         style="fill:#7030a0;stroke:none" />
      <path
         d="m 17344,12190 h -400 v -799 h 799 v 799 z"
         id="path713"
         style="fill:none;stroke:#000000;stroke-width:35;stroke-linejoin:round" />
    </g>
    <g
       style="visibility:hidden"
       id="id33"
       transform="matrix(0.26458333,0,0,0.26458333,-4820.6138,-3245.4873)">
      <rect
         class="BoundingBox"
         x="15337"
         y="11373"
         width="836"
         height="836"
         id="rect718"
         style="fill:none;stroke:none" />
      <path
         d="m 15755,12190 h -400 v -799 h 799 v 799 z"
         id="path720"
         style="fill:#ff0000;stroke:none" />
      <path
         d="m 15755,12190 h -400 v -799 h 799 v 799 z"
         id="path722"
         style="fill:none;stroke:#000000;stroke-width:35;stroke-linejoin:round" />
    </g>
    <g
       style="visibility:hidden"
       id="id34"
       transform="matrix(0.26458333,0,0,0.26458333,-4820.6138,-3245.4873)">
      <rect
         class="BoundingBox"
         x="13748"
         y="11373"
         width="836"
         height="836"
         id="rect727"
         style="fill:none;stroke:none" />
      <path
         d="m 14166,12190 h -400 v -799 h 799 v 799 z"
         id="path729"
         style="fill:#ff0000;stroke:none" />
      <path
         d="m 14166,12190 h -400 v -799 h 799 v 799 z"
         id="path731"
         style="fill:none;stroke:#000000;stroke-width:35;stroke-linejoin:round" />
    </g>
    <g
       style="visibility:hidden"
       id="id35"
       transform="matrix(0.26458333,0,0,0.26458333,-4820.6138,-3245.4873)">
      <rect
         class="BoundingBox"
         x="14537"
         y="11373"
         width="836"
         height="836"
         id="rect736"
         style="fill:none;stroke:none" />
      <path
         d="m 14955,12190 h -400 v -799 h 799 v 799 z"
         id="path738"
         style="fill:#ff0000;stroke:none" />
      <path
         d="m 14955,12190 h -400 v -799 h 799 v 799 z"
         id="path740"
         style="fill:none;stroke:#000000;stroke-width:35;stroke-linejoin:round" />
    </g>
    <g
       style="visibility:hidden"
       id="id36"
       transform="matrix(0.26458333,0,0,0.26458333,-4820.6138,-3245.4873)">
      <rect
         class="BoundingBox"
         x="17715"
         y="11373"
         width="836"
         height="836"
         id="rect745"
         style="fill:none;stroke:none" />
      <path
         d="m 18133,12190 h -400 v -799 h 799 v 799 z"
         id="path747"
         style="fill:#7030a0;stroke:none" />
      <path
         d="m 18133,12190 h -400 v -799 h 799 v 799 z"
         id="path749"
         style="fill:none;stroke:#000000;stroke-width:35;stroke-linejoin:round" />
    </g>
    <g
       style="visibility:hidden"
       id="id37"
       transform="matrix(0.26458333,0,0,0.26458333,-4820.6138,-3245.4873)">
      <rect
         class="BoundingBox"
         x="18515"
         y="11373"
         width="836"
         height="836"
         id="rect754"
         style="fill:none;stroke:none" />
      <path
         d="m 18933,12190 h -400 v -799 h 799 v 799 z"
         id="path756"
         style="fill:#7030a0;stroke:none" />
      <path
         d="m 18933,12190 h -400 v -799 h 799 v 799 z"
         id="path758"
         style="fill:none;stroke:#000000;stroke-width:35;stroke-linejoin:round" />
    </g>
    <g
       style="visibility:hidden"
       id="id38"
       transform="matrix(0.26458333,0,0,0.26458333,-4820.6138,-3245.4873)">
      <rect
         class="BoundingBox"
         x="19304"
         y="11373"
         width="836"
         height="836"
         id="rect763"
         style="fill:none;stroke:none" />
      <path
         d="m 19722,12190 h -400 v -799 h 799 v 799 z"
         id="path765"
         style="fill:#7030a0;stroke:none" />
      <path
         d="m 19722,12190 h -400 v -799 h 799 v 799 z"
         id="path767"
         style="fill:none;stroke:#000000;stroke-width:35;stroke-linejoin:round" />
    </g>
    <g
       style="visibility:hidden"
       id="id39"
       transform="matrix(0.26458333,0,0,0.26458333,-4820.6138,-3245.4873)">
      <rect
         class="BoundingBox"
         x="20102"
         y="11373"
         width="836"
         height="836"
         id="rect772"
         style="fill:none;stroke:none" />
      <path
         d="m 20520,12190 h -400 v -799 h 799 v 799 z"
         id="path774"
         style="fill:#0070c0;stroke:none" />
      <path
         d="m 20520,12190 h -400 v -799 h 799 v 799 z"
         id="path776"
         style="fill:none;stroke:#000000;stroke-width:35;stroke-linejoin:round" />
    </g>
    <g
       style="visibility:hidden"
       id="id40"
       transform="matrix(0.26458333,0,0,0.26458333,-4820.6138,-3245.4873)">
      <rect
         class="BoundingBox"
         x="20891"
         y="11373"
         width="836"
         height="836"
         id="rect781"
         style="fill:none;stroke:none" />
      <path
         d="m 21309,12190 h -400 v -799 h 799 v 799 z"
         id="path783"
         style="fill:#0070c0;stroke:none" />
      <path
         d="m 21309,12190 h -400 v -799 h 799 v 799 z"
         id="path785"
         style="fill:none;stroke:#000000;stroke-width:35;stroke-linejoin:round" />
    </g>
    <g
       style="visibility:hidden"
       id="id41"
       transform="matrix(0.26458333,0,0,0.26458333,-4820.6138,-3245.4873)">
      <rect
         class="BoundingBox"
         x="21687"
         y="11373"
         width="836"
         height="836"
         id="rect790"
         style="fill:none;stroke:none" />
      <path
         d="m 22105,12190 h -400 v -799 h 799 v 799 z"
         id="path792"
         style="fill:#0070c0;stroke:none" />
      <path
         d="m 22105,12190 h -400 v -799 h 799 v 799 z"
         id="path794"
         style="fill:none;stroke:#000000;stroke-width:35;stroke-linejoin:round" />
    </g>
    <g
       style="visibility:hidden"
       id="id42"
       transform="matrix(0.26458333,0,0,0.26458333,-4820.6138,-3245.4873)">
      <rect
         class="BoundingBox"
         x="22476"
         y="11373"
         width="836"
         height="836"
         id="rect799"
         style="fill:none;stroke:none" />
      <path
         d="m 22894,12190 h -400 v -799 h 799 v 799 z"
         id="path801"
         style="fill:#0070c0;stroke:none" />
      <path
         d="m 22894,12190 h -400 v -799 h 799 v 799 z"
         id="path803"
         style="fill:none;stroke:#000000;stroke-width:35;stroke-linejoin:round" />
    </g>
    <g
       style="visibility:hidden"
       id="id43"
       transform="matrix(0.26458333,0,0,0.26458333,-4820.6138,-3245.4873)">
      <rect
         class="BoundingBox"
         x="13827"
         y="11175"
         width="1607"
         height="855"
         id="rect808"
         style="fill:none;stroke:none" />
      <text
         class="TextShape"
         id="text816">
        <tspan
           class="TextParagraph"
           font-size="494px"
           font-weight="700"
           id="tspan814"
           style="font-weight:700;font-size:494px;font-family:Calibri, sans-serif">
          <tspan
             class="TextPosition"
             x="13827"
             y="11794"
             id="tspan812">
            <tspan
               id="tspan810"
               style="fill:#000000;stroke:none">0</tspan>
          </tspan>
        </tspan>
      </text>
    </g>
    <g
       style="visibility:hidden"
       id="id44"
       transform="matrix(0.26458333,0,0,0.26458333,-4820.6138,-3245.4873)">
      <rect
         class="BoundingBox"
         x="16137"
         y="11373"
         width="836"
         height="836"
         id="rect821"
         style="fill:none;stroke:none" />
      <path
         d="m 16555,12190 h -400 v -799 h 799 v 799 z"
         id="path823"
         style="fill:#ff0000;stroke:none" />
      <path
         d="m 16555,12190 h -400 v -799 h 799 v 799 z"
         id="path825"
         style="fill:none;stroke:#000000;stroke-width:35;stroke-linejoin:round" />
    </g>
    <g
       style="visibility:hidden"
       id="id45"
       transform="matrix(0.26458333,0,0,0.26458333,-4820.6138,-3245.4873)">
      <rect
         class="BoundingBox"
         x="13304"
         y="13938"
         width="3178"
         height="855"
         id="rect830"
         style="fill:none;stroke:none" />
      <text
         class="TextShape"
         id="text838">
        <tspan
           class="TextParagraph"
           font-size="459px"
           font-weight="700"
           id="tspan836"
           style="font-weight:700;font-size:459px;font-family:'Noto Mono', monospace">
          <tspan
             class="TextPosition"
             x="13304"
             y="14522"
             id="tspan834">
            <tspan
               id="tspan832"
               style="fill:#ff0000;stroke:none">points%x(:)</tspan>
          </tspan>
        </tspan>
      </text>
    </g>
    <g
       style="visibility:hidden"
       id="id46"
       transform="matrix(0.26458333,0,0,0.26458333,-4820.6138,-3245.4873)">
      <rect
         class="BoundingBox"
         x="16880"
         y="13938"
         width="3178"
         height="855"
         id="rect843"
         style="fill:none;stroke:none" />
      <text
         class="TextShape"
         id="text851">
        <tspan
           class="TextParagraph"
           font-size="459px"
           font-weight="700"
           id="tspan849"
           style="font-weight:700;font-size:459px;font-family:'Noto Mono', monospace">
          <tspan
             class="TextPosition"
             x="16880"
             y="14522"
             id="tspan847">
            <tspan
               id="tspan845"
               style="fill:#7030a0;stroke:none">points%y(:)</tspan>
          </tspan>
        </tspan>
      </text>
    </g>
    <g
       style="visibility:hidden"
       id="id47"
       transform="matrix(0.26458333,0,0,0.26458333,-4820.6138,-3245.4873)">
      <rect
         class="BoundingBox"
         x="20458"
         y="13938"
         width="3178"
         height="855"
         id="rect856"
         style="fill:none;stroke:none" />
      <text
         class="TextShape"
         id="text864">
        <tspan
           class="TextParagraph"
           font-size="459px"
           font-weight="700"
           id="tspan862"
           style="font-weight:700;font-size:459px;font-family:'Noto Mono', monospace">
          <tspan
             class="TextPosition"
             x="20458"
             y="14522"
             id="tspan860">
            <tspan
               id="tspan858"
               style="fill:#0070c0;stroke:none">points%z(:)</tspan>
          </tspan>
        </tspan>
      </text>
    </g>
    <g
       style="visibility:hidden"
       id="id48"
       transform="matrix(0.26458333,0,0,0.26458333,-4820.6138,-3245.4873)">
      <rect
         class="BoundingBox"
         x="14148"
         y="12191"
         width="780"
         height="1782"
         id="rect869"
         style="fill:none;stroke:none" />
      <path
         d="m 14891,13936 -650,-1561"
         id="path871"
         style="fill:none;stroke:#000000;stroke-width:71;stroke-linejoin:round" />
      <path
         d="m 14165,12191 180,156 -197,82 z"
         id="path873"
         style="fill:#000000;stroke:none" />
    </g>
    <g
       style="visibility:hidden"
       id="id49"
       transform="matrix(0.26458333,0,0,0.26458333,-4820.6138,-3245.4873)">
      <rect
         class="BoundingBox"
         x="14841"
         y="12191"
         width="214"
         height="1782"
         id="rect878"
         style="fill:none;stroke:none" />
      <path
         d="m 14893,13936 55,-1546"
         id="path880"
         style="fill:none;stroke:#000000;stroke-width:71;stroke-linejoin:round" />
      <path
         d="m 14955,12191 99,217 -213,-8 z"
         id="path882"
         style="fill:#000000;stroke:none" />
    </g>
    <g
       style="visibility:hidden"
       id="id50"
       transform="matrix(0.26458333,0,0,0.26458333,-4820.6138,-3245.4873)">
      <rect
         class="BoundingBox"
         x="14857"
         y="12191"
         width="901"
         height="1782"
         id="rect887"
         style="fill:none;stroke:none" />
      <path
         d="m 14893,13936 774,-1567"
         id="path889"
         style="fill:none;stroke:#000000;stroke-width:71;stroke-linejoin:round" />
      <path
         d="m 15755,12191 1,238 -191,-94 z"
         id="path891"
         style="fill:#000000;stroke:none" />
    </g>
    <g
       style="visibility:hidden"
       id="id51"
       transform="matrix(0.26458333,0,0,0.26458333,-4820.6138,-3245.4873)">
      <rect
         class="BoundingBox"
         x="14857"
         y="12191"
         width="1699"
         height="1782"
         id="rect896"
         style="fill:none;stroke:none" />
      <path
         d="m 14893,13936 1525,-1601"
         id="path898"
         style="fill:none;stroke:#000000;stroke-width:71;stroke-linejoin:round" />
      <path
         d="m 16555,12191 -70,228 -154,-147 z"
         id="path900"
         style="fill:#000000;stroke:none" />
    </g>
    <g
       style="visibility:hidden"
       id="id52"
       transform="matrix(0.26458333,0,0,0.26458333,-4820.6138,-3245.4873)">
      <rect
         class="BoundingBox"
         x="17344"
         y="12191"
         width="1162"
         height="1782"
         id="rect905"
         style="fill:none;stroke:none" />
      <path
         d="m 18469,13936 -38,-60"
         id="path907"
         style="fill:none;stroke:#000000;stroke-width:71;stroke-linejoin:round" />
      <path
         d="m 18392,13817 -38,-60"
         id="path909"
         style="fill:none;stroke:#000000;stroke-width:71;stroke-linejoin:round" />
      <path
         d="m 18315,13697 -38,-59"
         id="path911"
         style="fill:none;stroke:#000000;stroke-width:71;stroke-linejoin:round" />
      <path
         d="m 18238,13578 -38,-60"
         id="path913"
         style="fill:none;stroke:#000000;stroke-width:71;stroke-linejoin:round" />
      <path
         d="m 18161,13459 -38,-60"
         id="path915"
         style="fill:none;stroke:#000000;stroke-width:71;stroke-linejoin:round" />
      <path
         d="m 18084,13339 -38,-59"
         id="path917"
         style="fill:none;stroke:#000000;stroke-width:71;stroke-linejoin:round" />
      <path
         d="m 18007,13220 -38,-60"
         id="path919"
         style="fill:none;stroke:#000000;stroke-width:71;stroke-linejoin:round" />
      <path
         d="m 17930,13101 -38,-60"
         id="path921"
         style="fill:none;stroke:#000000;stroke-width:71;stroke-linejoin:round" />
      <path
         d="m 17853,12981 -38,-59"
         id="path923"
         style="fill:none;stroke:#000000;stroke-width:71;stroke-linejoin:round" />
      <path
         d="m 17777,12862 -39,-60"
         id="path925"
         style="fill:none;stroke:#000000;stroke-width:71;stroke-linejoin:round" />
      <path
         d="m 17700,12743 -39,-60"
         id="path927"
         style="fill:none;stroke:#000000;stroke-width:71;stroke-linejoin:round" />
      <path
         d="m 17623,12623 -39,-59"
         id="path929"
         style="fill:none;stroke:#000000;stroke-width:71;stroke-linejoin:round" />
      <path
         d="m 17546,12504 -39,-60"
         id="path931"
         style="fill:none;stroke:#000000;stroke-width:71;stroke-linejoin:round" />
      <path
         d="m 17469,12384 -17,-26"
         id="path933"
         style="fill:none;stroke:#000000;stroke-width:71;stroke-linejoin:round" />
      <path
         d="m 17344,12191 205,121 -179,116 z"
         id="path935"
         style="fill:#000000;stroke:none" />
    </g>
    <g
       style="visibility:hidden"
       id="id53"
       transform="matrix(0.26458333,0,0,0.26458333,-4820.6138,-3245.4873)">
      <rect
         class="BoundingBox"
         x="18067"
         y="12191"
         width="438"
         height="1782"
         id="rect940"
         style="fill:none;stroke:none" />
      <path
         d="m 18468,13936 -13,-70"
         id="path942"
         style="fill:none;stroke:#000000;stroke-width:71;stroke-linejoin:round" />
      <path
         d="m 18441,13797 -13,-70"
         id="path944"
         style="fill:none;stroke:#000000;stroke-width:71;stroke-linejoin:round" />
      <path
         d="m 18414,13657 -13,-70"
         id="path946"
         style="fill:none;stroke:#000000;stroke-width:71;stroke-linejoin:round" />
      <path
         d="m 18387,13518 -13,-70"
         id="path948"
         style="fill:none;stroke:#000000;stroke-width:71;stroke-linejoin:round" />
      <path
         d="m 18361,13378 -14,-69"
         id="path950"
         style="fill:none;stroke:#000000;stroke-width:71;stroke-linejoin:round" />
      <path
         d="m 18334,13239 -14,-70"
         id="path952"
         style="fill:none;stroke:#000000;stroke-width:71;stroke-linejoin:round" />
      <path
         d="m 18307,13099 -14,-69"
         id="path954"
         style="fill:none;stroke:#000000;stroke-width:71;stroke-linejoin:round" />
      <path
         d="m 18280,12960 -13,-70"
         id="path956"
         style="fill:none;stroke:#000000;stroke-width:71;stroke-linejoin:round" />
      <path
         d="m 18253,12820 -13,-69"
         id="path958"
         style="fill:none;stroke:#000000;stroke-width:71;stroke-linejoin:round" />
      <path
         d="m 18226,12681 -13,-70"
         id="path960"
         style="fill:none;stroke:#000000;stroke-width:71;stroke-linejoin:round" />
      <path
         d="m 18200,12542 -14,-70"
         id="path962"
         style="fill:none;stroke:#000000;stroke-width:71;stroke-linejoin:round" />
      <path
         d="m 18173,12402 -3,-16"
         id="path964"
         style="fill:none;stroke:#000000;stroke-width:71;stroke-linejoin:round" />
      <path
         d="m 18132,12191 145,189 -209,40 z"
         id="path966"
         style="fill:#000000;stroke:none" />
    </g>
    <g
       style="visibility:hidden"
       id="id54"
       transform="matrix(0.26458333,0,0,0.26458333,-4820.6138,-3245.4873)">
      <rect
         class="BoundingBox"
         x="18433"
         y="12191"
         width="549"
         height="1782"
         id="rect971"
         style="fill:none;stroke:none" />
      <path
         d="m 18469,13936 18,-69"
         id="path973"
         style="fill:none;stroke:#000000;stroke-width:71;stroke-linejoin:round" />
      <path
         d="m 18505,13799 19,-69"
         id="path975"
         style="fill:none;stroke:#000000;stroke-width:71;stroke-linejoin:round" />
      <path
         d="m 18542,13661 18,-68"
         id="path977"
         style="fill:none;stroke:#000000;stroke-width:71;stroke-linejoin:round" />
      <path
         d="m 18578,13524 18,-68"
         id="path979"
         style="fill:none;stroke:#000000;stroke-width:71;stroke-linejoin:round" />
      <path
         d="m 18615,13387 18,-69"
         id="path981"
         style="fill:none;stroke:#000000;stroke-width:71;stroke-linejoin:round" />
      <path
         d="m 18651,13250 18,-69"
         id="path983"
         style="fill:none;stroke:#000000;stroke-width:71;stroke-linejoin:round" />
      <path
         d="m 18688,13112 18,-68"
         id="path985"
         style="fill:none;stroke:#000000;stroke-width:71;stroke-linejoin:round" />
      <path
         d="m 18724,12975 18,-68"
         id="path987"
         style="fill:none;stroke:#000000;stroke-width:71;stroke-linejoin:round" />
      <path
         d="m 18760,12838 19,-69"
         id="path989"
         style="fill:none;stroke:#000000;stroke-width:71;stroke-linejoin:round" />
      <path
         d="m 18797,12701 18,-69"
         id="path991"
         style="fill:none;stroke:#000000;stroke-width:71;stroke-linejoin:round" />
      <path
         d="m 18833,12563 18,-68"
         id="path993"
         style="fill:none;stroke:#000000;stroke-width:71;stroke-linejoin:round" />
      <path
         d="m 18870,12426 11,-43"
         id="path995"
         style="fill:none;stroke:#000000;stroke-width:71;stroke-linejoin:round" />
      <path
         d="m 18932,12191 48,233 -206,-54 z"
         id="path997"
         style="fill:#000000;stroke:none" />
    </g>
    <g
       style="visibility:hidden"
       id="id55"
       transform="matrix(0.26458333,0,0,0.26458333,-4820.6138,-3245.4873)">
      <rect
         class="BoundingBox"
         x="18434"
         y="12191"
         width="1290"
         height="1782"
         id="rect1002"
         style="fill:none;stroke:none" />
      <path
         d="m 18470,13936 41,-58"
         id="path1004"
         style="fill:none;stroke:#000000;stroke-width:71;stroke-linejoin:round" />
      <path
         d="m 18553,13821 41,-58"
         id="path1006"
         style="fill:none;stroke:#000000;stroke-width:71;stroke-linejoin:round" />
      <path
         d="m 18636,13705 41,-57"
         id="path1008"
         style="fill:none;stroke:#000000;stroke-width:71;stroke-linejoin:round" />
      <path
         d="m 18718,13590 42,-58"
         id="path1010"
         style="fill:none;stroke:#000000;stroke-width:71;stroke-linejoin:round" />
      <path
         d="m 18801,13475 42,-58"
         id="path1012"
         style="fill:none;stroke:#000000;stroke-width:71;stroke-linejoin:round" />
      <path
         d="m 18884,13359 42,-57"
         id="path1014"
         style="fill:none;stroke:#000000;stroke-width:71;stroke-linejoin:round" />
      <path
         d="m 18967,13244 41,-58"
         id="path1016"
         style="fill:none;stroke:#000000;stroke-width:71;stroke-linejoin:round" />
      <path
         d="m 19050,13129 41,-58"
         id="path1018"
         style="fill:none;stroke:#000000;stroke-width:71;stroke-linejoin:round" />
      <path
         d="m 19133,13013 41,-57"
         id="path1020"
         style="fill:none;stroke:#000000;stroke-width:71;stroke-linejoin:round" />
      <path
         d="m 19215,12898 42,-58"
         id="path1022"
         style="fill:none;stroke:#000000;stroke-width:71;stroke-linejoin:round" />
      <path
         d="m 19298,12783 42,-58"
         id="path1024"
         style="fill:none;stroke:#000000;stroke-width:71;stroke-linejoin:round" />
      <path
         d="m 19381,12667 41,-57"
         id="path1026"
         style="fill:none;stroke:#000000;stroke-width:71;stroke-linejoin:round" />
      <path
         d="m 19464,12552 41,-58"
         id="path1028"
         style="fill:none;stroke:#000000;stroke-width:71;stroke-linejoin:round" />
      <path
         d="m 19547,12437 41,-58"
         id="path1030"
         style="fill:none;stroke:#000000;stroke-width:71;stroke-linejoin:round" />
      <path
         d="m 19723,12191 -38,235 -173,-124 z"
         id="path1032"
         style="fill:#000000;stroke:none" />
    </g>
    <g
       style="visibility:hidden"
       id="id56"
       transform="matrix(0.26458333,0,0,0.26458333,-4820.6138,-3245.4873)">
      <rect
         class="BoundingBox"
         x="20520"
         y="12191"
         width="1564"
         height="1782"
         id="rect1037"
         style="fill:none;stroke:none" />
      <path
         d="m 22047,13936 -187,-214"
         id="path1039"
         style="fill:none;stroke:#000000;stroke-width:71;stroke-linejoin:round" />
      <path
         d="m 21720,13562 -187,-214"
         id="path1041"
         style="fill:none;stroke:#000000;stroke-width:71;stroke-linejoin:round" />
      <path
         d="m 21392,13188 -187,-214"
         id="path1043"
         style="fill:none;stroke:#000000;stroke-width:71;stroke-linejoin:round" />
      <path
         d="m 21065,12814 -187,-214"
         id="path1045"
         style="fill:none;stroke:#000000;stroke-width:71;stroke-linejoin:round" />
      <path
         d="m 20738,12440 -87,-99"
         id="path1047"
         style="fill:none;stroke:#000000;stroke-width:71;stroke-linejoin:round" />
      <path
         d="m 20520,12191 220,90 -160,140 z"
         id="path1049"
         style="fill:#000000;stroke:none" />
    </g>
    <g
       style="visibility:hidden"
       id="id57"
       transform="matrix(0.26458333,0,0,0.26458333,-4820.6138,-3245.4873)">
      <rect
         class="BoundingBox"
         x="21292"
         y="12191"
         width="791"
         height="1782"
         id="rect1054"
         style="fill:none;stroke:none" />
      <path
         d="m 22046,13936 -111,-262"
         id="path1056"
         style="fill:none;stroke:#000000;stroke-width:71;stroke-linejoin:round" />
      <path
         d="m 21852,13478 -110,-261"
         id="path1058"
         style="fill:none;stroke:#000000;stroke-width:71;stroke-linejoin:round" />
      <path
         d="m 21659,13021 -111,-262"
         id="path1060"
         style="fill:none;stroke:#000000;stroke-width:71;stroke-linejoin:round" />
      <path
         d="m 21465,12563 -80,-189"
         id="path1062"
         style="fill:none;stroke:#000000;stroke-width:71;stroke-linejoin:round" />
      <path
         d="m 21308,12191 181,155 -196,83 z"
         id="path1064"
         style="fill:#000000;stroke:none" />
    </g>
    <g
       style="visibility:hidden"
       id="id58"
       transform="matrix(0.26458333,0,0,0.26458333,-4820.6138,-3245.4873)">
      <rect
         class="BoundingBox"
         x="21990"
         y="12191"
         width="215"
         height="1782"
         id="rect1069"
         style="fill:none;stroke:none" />
      <path
         d="m 22047,13936 9,-284"
         id="path1071"
         style="fill:none;stroke:#000000;stroke-width:71;stroke-linejoin:round" />
      <path
         d="m 22063,13439 9,-284"
         id="path1073"
         style="fill:none;stroke:#000000;stroke-width:71;stroke-linejoin:round" />
      <path
         d="m 22079,12943 10,-284"
         id="path1075"
         style="fill:none;stroke:#000000;stroke-width:71;stroke-linejoin:round" />
      <path
         d="m 22096,12446 2,-56"
         id="path1077"
         style="fill:none;stroke:#000000;stroke-width:71;stroke-linejoin:round" />
      <path
         d="m 22104,12191 99,216 -212,-7 z"
         id="path1079"
         style="fill:#000000;stroke:none" />
    </g>
    <g
       style="visibility:hidden"
       id="id59"
       transform="matrix(0.26458333,0,0,0.26458333,-4820.6138,-3245.4873)">
      <rect
         class="BoundingBox"
         x="22012"
         y="12191"
         width="887"
         height="1782"
         id="rect1084"
         style="fill:none;stroke:none" />
      <path
         d="m 22048,13936 124,-255"
         id="path1086"
         style="fill:none;stroke:#000000;stroke-width:71;stroke-linejoin:round" />
      <path
         d="m 22265,13489 124,-256"
         id="path1088"
         style="fill:none;stroke:#000000;stroke-width:71;stroke-linejoin:round" />
      <path
         d="m 22482,13042 124,-256"
         id="path1090"
         style="fill:none;stroke:#000000;stroke-width:71;stroke-linejoin:round" />
      <path
         d="m 22699,12595 109,-225"
         id="path1092"
         style="fill:none;stroke:#000000;stroke-width:71;stroke-linejoin:round" />
      <path
         d="m 22895,12191 3,238 -192,-93 z"
         id="path1094"
         style="fill:#000000;stroke:none" />
    </g>
    <g
       style="visibility:hidden"
       id="id60"
       transform="matrix(0.26458333,0,0,0.26458333,-4820.6138,-3245.4873)">
      <rect
         class="BoundingBox"
         x="18796"
         y="10322"
         width="4865"
         height="914"
         id="rect1099"
         style="fill:none;stroke:none" />
      <text
         class="TextShape"
         id="text1107">
        <tspan
           class="TextParagraph"
           font-size="635px"
           font-weight="400"
           id="tspan1105"
           style="font-weight:400;font-size:635px;font-family:'Noto Sans', sans-serif">
          <tspan
             class="TextPosition"
             x="18796"
             y="11082"
             id="tspan1103">
            <tspan
               id="tspan1101"
               style="fill:#000000;stroke:none">Memory layout</tspan>
          </tspan>
        </tspan>
      </text>
    </g>
  </g>
</svg>
