<?xml version="1.0" encoding="UTF-8"?>
<!DOCTYPE svg PUBLIC "-//W3C//DTD SVG 1.1//EN" "http://www.w3.org/Graphics/SVG/1.1/DTD/svg11.dtd">
<svg width="75mm" height="83mm" viewBox="0 0 7500 8300" version="1.1" xmlns="http://www.w3.org/2000/svg" xmlns:xlink="http://www.w3.org/1999/xlink" stroke-width="28.222" stroke-linejoin="round" xml:space="preserve">
 <path fill="rgb(255,255,255)" stroke="none" d="M 3735,8232 L -13,8232 -13,-13 7484,-13 7484,8232 3735,8232 Z"/>
 <path fill="none" stroke="rgb(179,179,179)" stroke-linejoin="round" d="M 514,6983 L 7331,6983"/>
 <path fill="none" stroke="rgb(179,179,179)" stroke-linejoin="round" d="M 514,6983 L 514,1906"/>
 <path fill="none" stroke="rgb(0,69,134)" stroke-width="80" stroke-linejoin="round" d="M 514,6856 L 542,6813 570,6771 598,6856 626,6856 654,6856 683,6813 711,6856 739,6856 767,6898 795,6856 823,6813 851,6898 879,6898 907,6856 935,6940 963,6856 992,6856 1020,6813 1048,6813 1076,6898 1104,6856 1133,6898 1161,6856 1189,6813 1217,6856 1245,6813 1274,6813 1302,6813 1330,6729 1358,6729 1386,6686 1414,6686 1443,6729 1471,6729 1499,6729 1527,6686 1555,6602 1584,6602 1612,6644 1640,6602 1668,6602 1696,6644 1724,6644 1753,6686 1781,6644 1809,6559 1837,6686 1865,6602 1894,6644 1922,6602 1950,6559 1978,6602 2006,6602 2035,6517 2063,6559 2091,6602 2119,6559 2147,6517 2175,6602 2204,6559 2232,6517 2260,6517 2288,6517 2316,6517 2345,6559 2373,6517 2401,6559 2429,6559 2457,6475 2486,6475 2513,6517 2541,6517 2569,6475 2597,6432 2625,6432 2654,6390 2682,6432 2710,6475 2738,6475 2766,6432 2795,6475 2823,6432 2851,6475 2879,6475 2907,6475 2935,6390 2964,6432 2992,6432 3020,6432 3048,6432 3076,6432 3105,6475 3133,6432 3161,6432 3189,6475 3217,6475 3246,6432 3274,6432 3302,6432 3330,6432 3358,6432 3386,6432 3415,6432 3443,6432 3471,6432 3499,6475 3527,6517 3556,6432 3584,6432 3612,6348 3640,6348 3668,6475 3697,6432 3725,6390 3753,6475 3781,6432 3809,6390 3837,6390 3866,6475 3894,6432 3922,6390 3950,6348 3978,6390 4007,6432 4035,6432 4063,6432 4091,6475 4119,6390 4147,6432 4175,6390 4203,6475 4231,6348 4259,6348 4287,6390 4316,6390 4344,6432 4372,6348 4400,6348 4428,6390 4457,6390 4485,6390 4513,6348 4541,6432 4569,6348 4597,6263 4626,6221 4654,6305 4682,6263 4710,6263 4738,6305 4767,6305 4795,6263 4823,6221 4851,6178 4879,6263 4908,6178 4936,6136 4964,6178 4992,6136 5020,6221 5048,6136 5077,6136 5105,6178 5133,6178 5161,6178 5189,6052 5218,6221 5246,6136 5274,6136 5302,6052 5330,6094 5358,6094 5387,6136 5415,6136 5443,6136 5471,6136 5499,6052 5528,6009 5556,6221 5584,6136 5612,6009 5640,6009 5669,6052 5697,6094 5725,6094 5753,5967 5781,6052 5809,5967 5837,6009 5865,6009 5893,6221 5921,6094 5949,6052 5978,6009 6006,6052 6034,5967 6062,6052 6090,5967 6119,6052 6147,6052 6175,6221 6203,6348 6231,6305 6259,6305 6288,6221 6316,6136 6344,6263 6372,6221 6400,6178 6429,6263 6457,6221 6485,6094 6513,6136 6541,6052 6569,6136 6598,5925 6626,5755 6654,5713 6682,5713 6710,5840 6739,5840 6767,5882 6795,5798 6823,5840 6851,5882 6880,5840 6908,5967 6936,5925 6964,5798 6992,5755 7020,5925 7049,5967 7077,5967 7105,5882 7133,5840 7161,5882 7190,5840 7218,5798 7246,5925 7274,5798 7302,5671 7331,5544"/>
 <path fill="none" stroke="rgb(255,66,14)" stroke-width="80" stroke-linejoin="round" d="M 514,5078 L 542,5078 570,4867 598,5036 626,5290 654,5374 683,5374 711,5121 739,5374 767,5417 795,5459 823,5755 851,5671 879,5374 907,5544 935,5713 963,5840 992,5755 1020,5925 1048,5840 1076,5882 1104,5882 1133,5798 1161,6178 1189,5967 1217,5967 1245,5967 1274,6136 1302,6136 1330,6136 1358,5967 1386,6178 1414,6178 1443,6263 1471,6178 1499,6263 1527,6221 1555,6178 1584,6221 1612,6263 1640,6348 1668,6305 1696,6305 1724,6305 1753,6348 1781,6432 1809,6390 1837,6475 1865,6432 1894,6432 1922,6475 1950,6432 1978,6517 2006,6517 2035,6559 2063,6517 2091,6517 2119,6559 2147,6644 2175,6559 2204,6559 2232,6602 2260,6559 2288,6602 2316,6644 2345,6559 2373,6602 2401,6686 2429,6644 2457,6644 2486,6644 2513,6686 2541,6729 2569,6686 2597,6686 2625,6686 2654,6729 2682,6729 2710,6729 2738,6729 2766,6729 2795,6771 2823,6771 2851,6771 2879,6771 2907,6729 2935,6771 2964,6771 2992,6771 3020,6771 3048,6771 3076,6771 3105,6771 3133,6813 3161,6813 3189,6771 3217,6813 3246,6771 3274,6771 3302,6813 3330,6813 3358,6771 3386,6813 3415,6813 3443,6813 3471,6813 3499,6813 3527,6813 3556,6813 3584,6813 3612,6813 3640,6771 3668,6856 3697,6813 3725,6813 3753,6856 3781,6856 3809,6813 3837,6813 3866,6856 3894,6856 3922,6813 3950,6856 3978,6856 4007,6813 4035,6856 4063,6856 4091,6856 4119,6856 4147,6856 4175,6856 4203,6856 4231,6856 4259,6856 4287,6856 4316,6856 4344,6856 4372,6856 4400,6856 4428,6856 4457,6856 4485,6856 4513,6856 4541,6856 4569,6856 4597,6856 4626,6856 4654,6856 4682,6856 4710,6856 4738,6856 4767,6898 4795,6856 4823,6856 4851,6856 4879,6856 4908,6856 4936,6856 4964,6856 4992,6856 5020,6856 5048,6856 5077,6856 5105,6856 5133,6856 5161,6856 5189,6856 5218,6898 5246,6856 5274,6856 5302,6856 5330,6856 5358,6856 5387,6856 5415,6856 5443,6898 5471,6856 5499,6856 5528,6856 5556,6940 5584,6856 5612,6856 5640,6898 5669,6898 5697,6898 5725,6940 5753,6898 5781,6940 5809,6940 5837,6898 5865,6940 5893,6983 5921,6983 5949,6940 5978,6940 6006,6940 6034,6940 6062,6983 6090,6940 6119,6983 6147,6983 6175,6983 6203,6983 6231,6983 6259,6983 6288,6983 6316,6983 6344,6983 6372,6983 6400,6983 6429,6983 6457,6983 6485,6983 6513,6940 6541,6983 6569,6983 6598,6940 6626,6940 6654,6940 6682,6940 6710,6940 6739,6983 6767,6983 6795,6983 6823,6940 6851,6983 6880,6983 6908,6983 6936,6983 6964,6940 6992,6983 7020,6983 7049,6983 7077,6983 7105,6940 7133,6983 7161,6983 7190,6983 7218,6983 7246,6983 7274,6940 7302,6940 7331,6983"/>
 <path fill="none" stroke="rgb(255,211,32)" stroke-width="80" stroke-linejoin="round" d="M 514,3514 L 542,2752 570,3090 598,2963 626,3387 654,3344 683,3133 711,3514 739,3429 767,3217 795,3683 823,3937 851,4106 879,4064 907,4317 935,3979 963,4444 992,3937 1020,4274 1048,4359 1076,4232 1104,4147 1133,4190 1161,4782 1189,4740 1217,4570 1245,4486 1274,4655 1302,4909 1330,4782 1358,4994 1386,4994 1414,4867 1443,4867 1471,4824 1499,5121 1527,5248 1555,5163 1584,4951 1612,5036 1640,5121 1668,5205 1696,5417 1724,5459 1753,5290 1781,5121 1809,5248 1837,5544 1865,5501 1894,5417 1922,5459 1950,5332 1978,5544 2006,5544 2035,5628 2063,5671 2091,5628 2119,5501 2147,5586 2175,5671 2204,5755 2232,5713 2260,5628 2288,5628 2316,5798 2345,5713 2373,5882 2401,5882 2429,5798 2457,5755 2486,5755 2513,5882 2541,5882 2569,5882 2597,5755 2625,5798 2654,5882 2682,5925 2710,6052 2738,6094 2766,6009 2795,5967 2823,5967 2851,6094 2879,6136 2907,6094 2935,6009 2964,6052 2992,6052 3020,6136 3048,6178 3076,6178 3105,6178 3133,6136 3161,6136 3189,6221 3217,6263 3246,6136 3274,6052 3302,6178 3330,6178 3358,6263 3386,6263 3415,6263 3443,6178 3471,6263 3499,6263 3527,6348 3556,6305 3584,6263 3612,6263 3640,6263 3668,6305 3697,6348 3725,6390 3753,6348 3781,6348 3809,6263 3837,6348 3866,6390 3894,6305 3922,6305 3950,6305 3978,6305 4007,6348 4035,6432 4063,6432 4091,6475 4119,6348 4147,6348 4175,6348 4203,6390 4231,6432 4259,6348 4287,6390 4316,6390 4344,6432 4372,6432 4400,6432 4428,6475 4457,6390 4485,6390 4513,6432 4541,6475 4569,6390 4597,6390 4626,6348 4654,6348 4682,6390 4710,6390 4738,6475 4767,6475 4795,6432 4823,6348 4851,6348 4879,6432 4908,6432 4936,6348 4964,6348 4992,6348 5020,6390 5048,6432 5077,6432 5105,6475 5133,6475 5161,6390 5189,6390 5218,6475 5246,6390 5274,6475 5302,6390 5330,6432 5358,6432 5387,6517 5415,6432 5443,6432 5471,6475 5499,6348 5528,6432 5556,6559 5584,6475 5612,6432 5640,6432 5669,6390 5697,6475 5725,6475 5753,6475 5781,6517 5809,6517 5837,6475 5865,6517 5893,6559 5921,6517 5949,6517 5978,6559 6006,6559 6034,6517 6062,6559 6090,6559 6119,6559 6147,6517 6175,6602 6203,6644 6231,6644 6259,6686 6288,6644 6316,6602 6344,6602 6372,6644 6400,6644 6429,6644 6457,6686 6485,6602 6513,6559 6541,6559 6569,6644 6598,6517 6626,6475 6654,6432 6682,6432 6710,6517 6739,6517 6767,6559 6795,6559 6823,6517 6851,6475 6880,6475 6908,6559 6936,6517 6964,6475 6992,6475 7020,6559 7049,6559 7077,6602 7105,6559 7133,6559 7161,6559 7190,6475 7218,6559 7246,6602 7274,6559 7302,6517 7331,6475"/>
 <text class="SVGTextShape"><tspan class="TextParagraph" font-family="Liberation Sans, sans-serif" font-size="459px" font-weight="400"><tspan class="TextPosition" x="4623" y="522"><tspan fill="rgb(0,0,0)" stroke="none" style="white-space: pre">Google trends</tspan></tspan></tspan></text>
 <path fill="none" stroke="rgb(0,69,134)" stroke-width="80" stroke-linejoin="round" d="M 1130,478 L 1930,478"/>
 <path fill="none" stroke="rgb(255,66,14)" stroke-width="80" stroke-linejoin="round" d="M 1130,942 L 1930,942"/>
 <path fill="none" stroke="rgb(255,211,32)" stroke-width="80" stroke-linejoin="round" d="M 1130,1406 L 1930,1406"/>
 <text class="SVGTextShape"><tspan class="TextParagraph" font-family="Liberation Sans, sans-serif" font-size="353px" font-weight="400"><tspan class="TextPosition" x="2030" y="598"><tspan fill="rgb(0,0,0)" stroke="none" style="white-space: pre">cmake</tspan></tspan></tspan></text>
 <text class="SVGTextShape"><tspan class="TextParagraph" font-family="Liberation Sans, sans-serif" font-size="353px" font-weight="400"><tspan class="TextPosition" x="2030" y="1062"><tspan fill="rgb(0,0,0)" stroke="none" style="white-space: pre">autotools+autoconf+automake</tspan></tspan></tspan></text>
 <text class="SVGTextShape"><tspan class="TextParagraph" font-family="Liberation Sans, sans-serif" font-size="353px" font-weight="400"><tspan class="TextPosition" x="2030" y="1526"><tspan fill="rgb(0,0,0)" stroke="none" style="white-space: pre">makefile</tspan></tspan></tspan></text>
 <text class="SVGTextShape"><tspan class="TextParagraph" font-family="Liberation Sans, sans-serif" font-size="318px" font-weight="400"><tspan class="TextPosition" x="2706" y="7535"><tspan fill="rgb(0,0,0)" stroke="none" style="white-space: pre">2004/1 to 2024/3</tspan></tspan></tspan></text>
</svg>