<?xml version="1.0" encoding="UTF-8" standalone="no"?>
<svg
   xmlns:dc="http://purl.org/dc/elements/1.1/"
   xmlns:cc="http://creativecommons.org/ns#"
   xmlns:rdf="http://www.w3.org/1999/02/22-rdf-syntax-ns#"
   xmlns:svg="http://www.w3.org/2000/svg"
   xmlns="http://www.w3.org/2000/svg"
   xmlns:sodipodi="http://sodipodi.sourceforge.net/DTD/sodipodi-0.dtd"
   xmlns:inkscape="http://www.inkscape.org/namespaces/inkscape"
   viewBox="0 0 357.74991 317.91135"
   height="317.91135"
   width="357.74991"
   xml:space="preserve"
   id="svg2"
   version="1.1"
   sodipodi:docname="parallel-region.svg"
   inkscape:version="0.92.2 (5c3e80d, 2017-08-06)"><sodipodi:namedview
     pagecolor="#ffffff"
     bordercolor="#666666"
     borderopacity="1"
     objecttolerance="10"
     gridtolerance="10"
     guidetolerance="10"
     inkscape:pageopacity="0"
     inkscape:pageshadow="2"
     inkscape:window-width="1349"
     inkscape:window-height="753"
     id="namedview119"
     showgrid="false"
     fit-margin-left="10"
     fit-margin-top="10"
     fit-margin-right="10"
     fit-margin-bottom="10"
     inkscape:zoom="1.7614974"
     inkscape:cx="279.88748"
     inkscape:cy="157.25257"
     inkscape:window-x="398"
     inkscape:window-y="71"
     inkscape:window-maximized="0"
     inkscape:current-layer="g3973"
     inkscape:snap-text-baseline="false"><inkscape:grid
       type="xygrid"
       id="grid3975"
       originx="10"
       originy="10.000007" /></sodipodi:namedview><metadata
     id="metadata8"><rdf:RDF><cc:Work
         rdf:about=""><dc:format>image/svg+xml</dc:format><dc:type
           rdf:resource="http://purl.org/dc/dcmitype/StillImage" /><dc:title></dc:title></cc:Work></rdf:RDF></metadata><defs
     id="defs6"><clipPath
       id="clipPath18"
       clipPathUnits="userSpaceOnUse"><path
         style="clip-rule:evenodd"
         id="path16"
         d="M 0,1.2207e-4 H 960 V 540.00012 H 0 Z"
         inkscape:connector-curvature="0" /></clipPath><clipPath
       id="clipPath32"
       clipPathUnits="userSpaceOnUse"><path
         style="clip-rule:evenodd"
         id="path30"
         d="M 1.4305e-5,0 H 960.00001 V 540 H 1.4305e-5 Z"
         inkscape:connector-curvature="0" /></clipPath><clipPath
       id="clipPath44"
       clipPathUnits="userSpaceOnUse"><path
         style="clip-rule:evenodd"
         id="path42"
         d="M 1.4305e-5,0 H 960.00001 V 540 H 1.4305e-5 Z"
         inkscape:connector-curvature="0" /></clipPath><clipPath
       id="clipPath56"
       clipPathUnits="userSpaceOnUse"><path
         style="clip-rule:evenodd"
         id="path54"
         d="M 1.4305e-5,0 H 960.00001 V 540 H 1.4305e-5 Z"
         inkscape:connector-curvature="0" /></clipPath><clipPath
       id="clipPath72"
       clipPathUnits="userSpaceOnUse"><path
         style="clip-rule:evenodd"
         id="path70"
         d="M 1.4305e-5,0 H 960.00001 V 540 H 1.4305e-5 Z"
         inkscape:connector-curvature="0" /></clipPath><clipPath
       id="clipPath84"
       clipPathUnits="userSpaceOnUse"><path
         style="clip-rule:evenodd"
         id="path82"
         d="M 1.4305e-5,0 H 960.00001 V 540 H 1.4305e-5 Z"
         inkscape:connector-curvature="0" /></clipPath><clipPath
       id="clipPath96"
       clipPathUnits="userSpaceOnUse"><path
         style="clip-rule:evenodd"
         id="path94"
         d="M 1.4305e-5,0 H 960.00001 V 540 H 1.4305e-5 Z"
         inkscape:connector-curvature="0" /></clipPath><clipPath
       id="clipPath108"
       clipPathUnits="userSpaceOnUse"><path
         style="clip-rule:evenodd"
         id="path106"
         d="M 1.4305e-5,0 H 960.00001 V 540 H 1.4305e-5 Z"
         inkscape:connector-curvature="0" /></clipPath><clipPath
       id="clipPath120"
       clipPathUnits="userSpaceOnUse"><path
         style="clip-rule:evenodd"
         id="path118"
         d="M 1.4305e-5,0 H 960.00001 V 540 H 1.4305e-5 Z"
         inkscape:connector-curvature="0" /></clipPath><clipPath
       id="clipPath132"
       clipPathUnits="userSpaceOnUse"><path
         style="clip-rule:evenodd"
         id="path130"
         d="M 1.4305e-5,0 H 960.00001 V 540 H 1.4305e-5 Z"
         inkscape:connector-curvature="0" /></clipPath><clipPath
       id="clipPath144"
       clipPathUnits="userSpaceOnUse"><path
         style="clip-rule:evenodd"
         id="path142"
         d="M 1.4305e-5,0 H 960.00001 V 540 H 1.4305e-5 Z"
         inkscape:connector-curvature="0" /></clipPath><clipPath
       id="clipPath156"
       clipPathUnits="userSpaceOnUse"><path
         style="clip-rule:evenodd"
         id="path154"
         d="M 1.4305e-5,0 H 960.00001 V 540 H 1.4305e-5 Z"
         inkscape:connector-curvature="0" /></clipPath><clipPath
       id="clipPath174"
       clipPathUnits="userSpaceOnUse"><path
         style="clip-rule:evenodd"
         id="path172"
         d="M 1.4305e-5,0 H 960.00001 V 540 H 1.4305e-5 Z"
         inkscape:connector-curvature="0" /></clipPath><clipPath
       id="clipPath186"
       clipPathUnits="userSpaceOnUse"><path
         style="clip-rule:evenodd"
         id="path184"
         d="M 1.4305e-5,0 H 960.00001 V 540 H 1.4305e-5 Z"
         inkscape:connector-curvature="0" /></clipPath><clipPath
       id="clipPath232"
       clipPathUnits="userSpaceOnUse"><path
         style="clip-rule:evenodd"
         id="path230"
         d="M 1.4305e-5,0 H 960.00001 V 540 H 1.4305e-5 Z"
         inkscape:connector-curvature="0" /></clipPath></defs><g
     id="g3973"
     transform="translate(-530.63999,-162.80872)"><path
       id="path22"
       style="fill:#00b0f0;fill-opacity:1;fill-rule:evenodd;stroke:none;stroke-width:1.33333325"
       d="m 709.35998,222.18674 c 0,-0.0533 0.0533,-0.10667 0.10667,-0.10667 h 23.62667 c 0.0533,0 0.10666,0.0533 0.10666,0.10667 v 23.78667 c 0,0.0533 -0.0533,0.10666 -0.10666,0.10666 h -23.62667 c -0.0533,0 -0.10667,-0.0533 -0.10667,-0.10666 z"
       inkscape:connector-curvature="0" /><path
       id="path24"
       style="fill:none;stroke:#000000;stroke-width:0.96000004;stroke-linecap:butt;stroke-linejoin:miter;stroke-miterlimit:10;stroke-dasharray:none;stroke-opacity:1"
       d="m 709.35998,222.18674 c 0,-0.0533 0.0533,-0.10667 0.10667,-0.10667 h 23.62667 c 0.0533,0 0.10666,0.0533 0.10666,0.10667 v 23.78667 c 0,0.0533 -0.0533,0.10666 -0.10666,0.10666 h -23.62667 c -0.0533,0 -0.10667,-0.0533 -0.10667,-0.10666 z"
       inkscape:connector-curvature="0" /><path
       id="path62"
       style="fill:#00b050;fill-opacity:1;fill-rule:evenodd;stroke:none;stroke-width:1.33333325"
       d="m 709.83998,282.98674 c 0,-0.0533 0.0533,-0.10667 0.10667,-0.10667 h 23.62667 c 0.0533,0 0.10666,0.0533 0.10666,0.10667 v 23.78666 c 0,0.0533 -0.0533,0.10667 -0.10666,0.10667 h -23.62667 c -0.0533,0 -0.10667,-0.0533 -0.10667,-0.10667 z"
       inkscape:connector-curvature="0" /><path
       id="path64"
       style="fill:none;stroke:#000000;stroke-width:0.96000004;stroke-linecap:butt;stroke-linejoin:miter;stroke-miterlimit:10;stroke-dasharray:none;stroke-opacity:1"
       d="m 709.83998,282.98674 c 0,-0.0533 0.0533,-0.10667 0.10667,-0.10667 h 23.62667 c 0.0533,0 0.10666,0.0533 0.10666,0.10667 v 23.78666 c 0,0.0533 -0.0533,0.10667 -0.10666,0.10667 h -23.62667 c -0.0533,0 -0.10667,-0.0533 -0.10667,-0.10667 z"
       inkscape:connector-curvature="0" /><path
       id="path162"
       style="fill:none;stroke:#000000;stroke-width:4.00713015;stroke-linecap:butt;stroke-linejoin:miter;stroke-miterlimit:10;stroke-dasharray:none;stroke-opacity:1"
       d="m 540.03125,219.88108 c 0,-0.0933 0.0727,-0.15995 0.17429,-0.15995 h 152.50203 c 0.10162,0 0.17429,0.0667 0.17429,0.15995 v 248.71798 c 0,0.0933 -0.0727,0.15995 -0.17429,0.15995 H 540.20554 c -0.10162,0 -0.17429,-0.0667 -0.17429,-0.15995 z"
       inkscape:connector-curvature="0" /><path
       id="path164"
       style="fill:#00b0f0;fill-opacity:1;fill-rule:evenodd;stroke:none;stroke-width:1.33333325"
       d="m 573.89656,277.22674 c 0,-0.0533 0.0533,-0.10667 0.10666,-0.10667 h 84.90667 c 0.0533,0 0.10666,0.0533 0.10666,0.10667 v 15.94666 c 0,0.0533 -0.0533,0.10667 -0.10666,0.10667 h -84.90667 c -0.0533,0 -0.10666,-0.0533 -0.10666,-0.10667 z"
       inkscape:connector-curvature="0" /><path
       id="path166"
       style="fill:none;stroke:#000000;stroke-width:1.27999997;stroke-linecap:butt;stroke-linejoin:miter;stroke-miterlimit:10;stroke-dasharray:none;stroke-opacity:1"
       d="m 573.89656,277.22674 c 0,-0.0533 0.0533,-0.10667 0.10666,-0.10667 h 84.90667 c 0.0533,0 0.10666,0.0533 0.10666,0.10667 v 15.94666 c 0,0.0533 -0.0533,0.10667 -0.10666,0.10667 h -84.90667 c -0.0533,0 -0.10666,-0.0533 -0.10666,-0.10667 z"
       inkscape:connector-curvature="0" /><path
       id="path192"
       style="fill:#00b050;fill-opacity:1;fill-rule:evenodd;stroke:none;stroke-width:1.33333325"
       d="m 573.89656,317.70674 c 0,-0.0533 0.0533,-0.10667 0.10666,-0.10667 h 84.90667 c 0.0533,0 0.10666,0.0533 0.10666,0.10667 v 15.94666 c 0,0.0533 -0.0533,0.10667 -0.10666,0.10667 h -84.90667 c -0.0533,0 -0.10666,-0.0533 -0.10666,-0.10667 z"
       inkscape:connector-curvature="0" /><path
       id="path194"
       style="fill:none;stroke:#000000;stroke-width:1.27999997;stroke-linecap:butt;stroke-linejoin:miter;stroke-miterlimit:10;stroke-dasharray:none;stroke-opacity:1"
       d="m 573.89656,317.70674 c 0,-0.0533 0.0533,-0.10667 0.10666,-0.10667 h 84.90667 c 0.0533,0 0.10666,0.0533 0.10666,0.10667 v 15.94666 c 0,0.0533 -0.0533,0.10667 -0.10666,0.10667 h -84.90667 c -0.0533,0 -0.10666,-0.0533 -0.10666,-0.10667 z"
       inkscape:connector-curvature="0" /><path
       id="path196"
       style="fill:#00b050;fill-opacity:1;fill-rule:evenodd;stroke:none;stroke-width:1.33333325"
       d="m 573.97656,339.94674 c 0,-0.0533 0.0533,-0.10667 0.10666,-0.10667 h 84.74667 c 0.0533,0 0.10666,0.0533 0.10666,0.10667 v 15.94666 c 0,0.0533 -0.0533,0.10667 -0.10666,0.10667 h -84.74667 c -0.0533,0 -0.10666,-0.0533 -0.10666,-0.10667 z"
       inkscape:connector-curvature="0" /><path
       id="path198"
       style="fill:none;stroke:#000000;stroke-width:1.27999997;stroke-linecap:butt;stroke-linejoin:miter;stroke-miterlimit:10;stroke-dasharray:none;stroke-opacity:1"
       d="m 573.97656,339.94674 c 0,-0.0533 0.0533,-0.10667 0.10666,-0.10667 h 84.74667 c 0.0533,0 0.10666,0.0533 0.10666,0.10667 v 15.94666 c 0,0.0533 -0.0533,0.10667 -0.10666,0.10667 h -84.74667 c -0.0533,0 -0.10666,-0.0533 -0.10666,-0.10667 z"
       inkscape:connector-curvature="0" /><path
       id="path200"
       style="fill:#00b0f0;fill-opacity:1;fill-rule:evenodd;stroke:none;stroke-width:1.33333325"
       d="m 573.89656,419.94673 c 0,-0.0533 0.0533,-0.10666 0.10666,-0.10666 h 84.90667 c 0.0533,0 0.10666,0.0533 0.10666,0.10666 v 15.94667 c 0,0.0533 -0.0533,0.10667 -0.10666,0.10667 h -84.90667 c -0.0533,0 -0.10666,-0.0533 -0.10666,-0.10667 z"
       inkscape:connector-curvature="0" /><path
       id="path202"
       style="fill:none;stroke:#000000;stroke-width:1.27999997;stroke-linecap:butt;stroke-linejoin:miter;stroke-miterlimit:10;stroke-dasharray:none;stroke-opacity:1"
       d="m 573.89656,419.94673 c 0,-0.0533 0.0533,-0.10666 0.10666,-0.10666 h 84.90667 c 0.0533,0 0.10666,0.0533 0.10666,0.10666 v 15.94667 c 0,0.0533 -0.0533,0.10667 -0.10666,0.10667 h -84.90667 c -0.0533,0 -0.10666,-0.0533 -0.10666,-0.10667 z"
       inkscape:connector-curvature="0" /><path
       id="path204"
       style="fill:#00b0f0;fill-opacity:1;fill-rule:evenodd;stroke:none;stroke-width:1.33333325"
       d="m 573.89656,441.54673 c 0,-0.0533 0.0533,-0.10666 0.10666,-0.10666 h 84.90667 c 0.0533,0 0.10666,0.0533 0.10666,0.10666 v 15.94667 c 0,0.0533 -0.0533,0.10667 -0.10666,0.10667 h -84.90667 c -0.0533,0 -0.10666,-0.0533 -0.10666,-0.10667 z"
       inkscape:connector-curvature="0" /><path
       id="path206"
       style="fill:none;stroke:#000000;stroke-width:1.27999997;stroke-linecap:butt;stroke-linejoin:miter;stroke-miterlimit:10;stroke-dasharray:none;stroke-opacity:1"
       d="m 573.89656,441.54673 c 0,-0.0533 0.0533,-0.10666 0.10666,-0.10666 h 84.90667 c 0.0533,0 0.10666,0.0533 0.10666,0.10666 v 15.94667 c 0,0.0533 -0.0533,0.10667 -0.10666,0.10667 h -84.90667 c -0.0533,0 -0.10666,-0.0533 -0.10666,-0.10667 z"
       inkscape:connector-curvature="0" /><path
       id="path208"
       style="fill:#00b0f0;fill-opacity:1;fill-rule:evenodd;stroke:none;stroke-width:1.33333325"
       d="m 573.89656,376.90674 c 0,-0.0533 0.0533,-0.10667 0.10666,-0.10667 h 84.90667 c 0.0533,0 0.10666,0.0533 0.10666,0.10667 v 16.09333 c 0,0.0667 -0.0533,0.12 -0.10666,0.12 h -84.90667 c -0.0533,0 -0.10666,-0.0533 -0.10666,-0.12 z"
       inkscape:connector-curvature="0" /><path
       id="path210"
       style="fill:none;stroke:#000000;stroke-width:1.27999997;stroke-linecap:butt;stroke-linejoin:miter;stroke-miterlimit:10;stroke-dasharray:none;stroke-opacity:1"
       d="m 573.89656,376.90674 c 0,-0.0533 0.0533,-0.10667 0.10666,-0.10667 h 84.90667 c 0.0533,0 0.10666,0.0533 0.10666,0.10667 v 16.09333 c 0,0.0667 -0.0533,0.12 -0.10666,0.12 h -84.90667 c -0.0533,0 -0.10666,-0.0533 -0.10666,-0.12 z"
       inkscape:connector-curvature="0" /><path
       id="path212"
       style="fill:#00b0f0;fill-opacity:1;fill-rule:evenodd;stroke:none;stroke-width:1.33333325"
       d="m 573.89656,398.50673 c 0,-0.0533 0.0533,-0.10666 0.10666,-0.10666 h 84.90667 c 0.0533,0 0.10666,0.0533 0.10666,0.10666 v 15.94667 c 0,0.0533 -0.0533,0.10667 -0.10666,0.10667 h -84.90667 c -0.0533,0 -0.10666,-0.0533 -0.10666,-0.10667 z"
       inkscape:connector-curvature="0" /><path
       id="path214"
       style="fill:none;stroke:#000000;stroke-width:1.27999997;stroke-linecap:butt;stroke-linejoin:miter;stroke-miterlimit:10;stroke-dasharray:none;stroke-opacity:1"
       d="m 573.89656,398.50673 c 0,-0.0533 0.0533,-0.10666 0.10666,-0.10666 h 84.90667 c 0.0533,0 0.10666,0.0533 0.10666,0.10666 v 15.94667 c 0,0.0533 -0.0533,0.10667 -0.10666,0.10667 h -84.90667 c -0.0533,0 -0.10666,-0.0533 -0.10666,-0.10667 z"
       inkscape:connector-curvature="0" /><path
       id="path216"
       style="fill:#00b0f0;fill-opacity:1;fill-rule:evenodd;stroke:none;stroke-width:1.33333325"
       d="m 573.89656,234.18674 c 0,-0.0533 0.0533,-0.10667 0.10666,-0.10667 h 84.90667 c 0.0533,0 0.10666,0.0533 0.10666,0.10667 v 15.94667 c 0,0.0533 -0.0533,0.10666 -0.10666,0.10666 h -84.90667 c -0.0533,0 -0.10666,-0.0533 -0.10666,-0.10666 z"
       inkscape:connector-curvature="0" /><path
       id="path218"
       style="fill:none;stroke:#000000;stroke-width:1.60000002;stroke-linecap:butt;stroke-linejoin:miter;stroke-miterlimit:10;stroke-dasharray:none;stroke-opacity:1"
       d="m 573.89656,234.18674 c 0,-0.0533 0.0533,-0.10667 0.10666,-0.10667 h 84.90667 c 0.0533,0 0.10666,0.0533 0.10666,0.10667 v 15.94667 c 0,0.0533 -0.0533,0.10666 -0.10666,0.10666 h -84.90667 c -0.0533,0 -0.10666,-0.0533 -0.10666,-0.10666 z"
       inkscape:connector-curvature="0" /><path
       id="path220"
       style="fill:#00b0f0;fill-opacity:1;fill-rule:evenodd;stroke:none;stroke-width:1.33333325"
       d="m 573.89656,255.78674 c 0,-0.0533 0.0533,-0.10667 0.10666,-0.10667 h 84.90667 c 0.0533,0 0.10666,0.0533 0.10666,0.10667 v 15.94666 c 0,0.0533 -0.0533,0.10667 -0.10666,0.10667 h -84.90667 c -0.0533,0 -0.10666,-0.0533 -0.10666,-0.10667 z"
       inkscape:connector-curvature="0" /><path
       id="path222"
       style="fill:none;stroke:#000000;stroke-width:1.27999997;stroke-linecap:butt;stroke-linejoin:miter;stroke-miterlimit:10;stroke-dasharray:none;stroke-opacity:1"
       d="m 573.89656,255.78674 c 0,-0.0533 0.0533,-0.10667 0.10666,-0.10667 h 84.90667 c 0.0533,0 0.10666,0.0533 0.10666,0.10667 v 15.94666 c 0,0.0533 -0.0533,0.10667 -0.10666,0.10667 h -84.90667 c -0.0533,0 -0.10666,-0.0533 -0.10666,-0.10667 z"
       inkscape:connector-curvature="0" /><path
       id="path224"
       style="fill:#ff0000;fill-opacity:1;fill-rule:nonzero;stroke:none;stroke-width:1.33333325"
       d="m 721.94665,388.58673 -51.17333,-46.53333 2.69333,-2.96 51.17333,46.53334 z m -52.38667,-42.23999 -4.84,-12.50667 12.92,3.64 z"
       inkscape:connector-curvature="0" /><text
       xml:space="preserve"
       style="font-style:normal;font-weight:normal;font-size:21.33333397px;line-height:1.25;font-family:sans-serif;letter-spacing:0px;word-spacing:0px;fill:#000000;fill-opacity:1;stroke:none"
       x="739.90228"
       y="291.10867"
       id="text135"><tspan
         sodipodi:role="line"
         x="739.90228"
         y="291.10867"
         style="font-style:normal;font-variant:normal;font-weight:normal;font-stretch:normal;font-size:16px;font-family:'Noto Sans';-inkscape-font-specification:'Noto Sans'"
         id="tspan149">Runs on the</tspan></text>
<text
       xml:space="preserve"
       style="font-style:normal;font-weight:normal;font-size:21.33333397px;line-height:1.25;font-family:sans-serif;letter-spacing:0px;word-spacing:0px;fill:#000000;fill-opacity:1;stroke:none"
       x="932.57074"
       y="322.33209"
       id="text153"><tspan
         sodipodi:role="line"
         id="tspan151"
         x="932.57074"
         y="341.20709" /></text>
<text
       xml:space="preserve"
       style="font-style:normal;font-weight:normal;font-size:21.33333397px;line-height:1.25;font-family:sans-serif;letter-spacing:0px;word-spacing:0px;fill:#000000;fill-opacity:1;stroke:none"
       x="740.51166"
       y="308.939"
       id="text135-8"><tspan
         sodipodi:role="line"
         x="740.51166"
         y="308.939"
         style="font-style:normal;font-variant:normal;font-weight:normal;font-stretch:normal;font-size:16px;font-family:'Noto Sans';-inkscape-font-specification:'Noto Sans'"
         id="tspan149-2">accelerator GPU(s)</tspan></text>
<text
       xml:space="preserve"
       style="font-style:normal;font-weight:normal;font-size:21.33333397px;line-height:1.25;font-family:sans-serif;letter-spacing:0px;word-spacing:0px;fill:#000000;fill-opacity:1;stroke:none"
       x="739.83594"
       y="231.58246"
       id="text135-85"><tspan
         sodipodi:role="line"
         x="739.83594"
         y="231.58246"
         style="font-style:normal;font-variant:normal;font-weight:normal;font-stretch:normal;font-size:16px;font-family:'Noto Sans';-inkscape-font-specification:'Noto Sans'"
         id="tspan149-0">Runs on the</tspan></text>
<text
       xml:space="preserve"
       style="font-style:normal;font-weight:normal;font-size:21.33333397px;line-height:1.25;font-family:sans-serif;letter-spacing:0px;word-spacing:0px;fill:#000000;fill-opacity:1;stroke:none"
       x="740.44531"
       y="249.41278"
       id="text135-8-6"><tspan
         sodipodi:role="line"
         x="740.44531"
         y="249.41278"
         style="font-style:normal;font-variant:normal;font-weight:normal;font-stretch:normal;font-size:16px;font-family:'Noto Sans';-inkscape-font-specification:'Noto Sans'"
         id="tspan149-2-6">CPU(s)</tspan></text>
<text
       xml:space="preserve"
       style="font-style:normal;font-weight:normal;font-size:21.33333397px;line-height:1.25;font-family:sans-serif;letter-spacing:0px;word-spacing:0px;fill:#000000;fill-opacity:1;stroke:none"
       x="569.98535"
       y="189.49057"
       id="text207"><tspan
         sodipodi:role="line"
         id="tspan205"
         x="569.98535"
         y="189.49057"
         style="font-style:normal;font-variant:normal;font-weight:normal;font-stretch:normal;font-size:18.66666603px;font-family:'Noto Sans';-inkscape-font-specification:'Noto Sans'">Application</tspan></text>
<text
       xml:space="preserve"
       style="font-style:normal;font-weight:normal;font-size:21.33333397px;line-height:1.25;font-family:sans-serif;letter-spacing:0px;word-spacing:0px;fill:#000000;fill-opacity:1;stroke:none"
       x="579.7243"
       y="207.12968"
       id="text207-5"><tspan
         sodipodi:role="line"
         id="tspan205-3"
         x="579.7243"
         y="207.12968"
         style="font-style:normal;font-variant:normal;font-weight:normal;font-stretch:normal;font-size:18.66666603px;font-family:'Noto Sans';-inkscape-font-specification:'Noto Sans'">program</tspan></text>
<text
       xml:space="preserve"
       style="font-style:normal;font-weight:normal;font-size:21.33333397px;line-height:1.25;font-family:sans-serif;letter-spacing:0px;word-spacing:0px;fill:#000000;fill-opacity:1;stroke:none"
       x="559.71039"
       y="309.27502"
       id="text229"><tspan
         sodipodi:role="line"
         id="tspan227"
         x="559.71039"
         y="309.27502"
         style="font-style:normal;font-variant:normal;font-weight:normal;font-stretch:normal;font-size:13.33333302px;font-family:Inconsolata;-inkscape-font-specification:Inconsolata">!$acc parallel</tspan></text>
<text
       xml:space="preserve"
       style="font-style:normal;font-weight:normal;font-size:21.33333397px;line-height:1.25;font-family:sans-serif;letter-spacing:0px;word-spacing:0px;fill:#000000;fill-opacity:1;stroke:none"
       x="543.72083"
       y="368.78287"
       id="text229-7"><tspan
         sodipodi:role="line"
         id="tspan227-0"
         x="543.72083"
         y="368.78287"
         style="font-style:normal;font-variant:normal;font-weight:normal;font-stretch:normal;font-size:13.33333302px;font-family:Inconsolata;-inkscape-font-specification:Inconsolata">!$acc end parallel</tspan></text>
<text
       xml:space="preserve"
       style="font-style:normal;font-variant:normal;font-weight:normal;font-stretch:normal;font-size:21.33333397px;line-height:1.25;font-family:'Noto Sans';-inkscape-font-specification:'Noto Sans, Normal';font-variant-ligatures:normal;font-variant-caps:normal;font-variant-numeric:normal;text-align:start;letter-spacing:0px;word-spacing:0px;writing-mode:lr-tb;text-anchor:start;fill:#000000;fill-opacity:1;stroke:none"
       x="729.30847"
       y="400.67456"
       id="text106"><tspan
         sodipodi:role="line"
         id="tspan104"
         x="729.30847"
         y="400.67456">parallel region</tspan></text>
</g></svg>