<?xml version="1.0" encoding="UTF-8" standalone="no"?>
<!-- Created with Inkscape (http://www.inkscape.org/) -->

<svg
   xmlns:dc="http://purl.org/dc/elements/1.1/"
   xmlns:cc="http://creativecommons.org/ns#"
   xmlns:rdf="http://www.w3.org/1999/02/22-rdf-syntax-ns#"
   xmlns:svg="http://www.w3.org/2000/svg"
   xmlns="http://www.w3.org/2000/svg"
   xmlns:sodipodi="http://sodipodi.sourceforge.net/DTD/sodipodi-0.dtd"
   xmlns:inkscape="http://www.inkscape.org/namespaces/inkscape"
   width="503.56998"
   height="251.76047"
   id="svg2"
   sodipodi:version="0.32"
   inkscape:version="0.92.2 (5c3e80d, 2017-08-06)"
   version="1.0"
   sodipodi:docname="gpaw-logo.svg"
   inkscape:output_extension="org.inkscape.output.svg.inkscape">
  <defs
     id="defs4">
    <inkscape:perspective
       sodipodi:type="inkscape:persp3d"
       inkscape:vp_x="0 : 526.18109 : 1"
       inkscape:vp_y="0 : 1000 : 0"
       inkscape:vp_z="744.09448 : 526.18109 : 1"
       inkscape:persp3d-origin="372.04724 : 350.78739 : 1"
       id="perspective10" />
    <inkscape:perspective
       id="perspective2446"
       inkscape:persp3d-origin="360 : 240 : 1"
       inkscape:vp_z="720 : 360 : 1"
       inkscape:vp_y="0 : 1000 : 0"
       inkscape:vp_x="0 : 360 : 1"
       sodipodi:type="inkscape:persp3d" />
  </defs>
  <sodipodi:namedview
     id="base"
     pagecolor="#ffffff"
     bordercolor="#666666"
     borderopacity="1.0"
     gridtolerance="10000"
     guidetolerance="10"
     objecttolerance="10"
     inkscape:pageopacity="0.0"
     inkscape:pageshadow="2"
     inkscape:zoom="1.4158906"
     inkscape:cx="251.78499"
     inkscape:cy="125.88023"
     inkscape:document-units="px"
     inkscape:current-layer="layer1"
     showgrid="false"
     inkscape:window-width="1280"
     inkscape:window-height="974"
     inkscape:window-x="0"
     inkscape:window-y="24"
     inkscape:window-maximized="0" />
  <metadata
     id="metadata7">
    <rdf:RDF>
      <cc:Work
         rdf:about="">
        <dc:format>image/svg+xml</dc:format>
        <dc:type
           rdf:resource="http://purl.org/dc/dcmitype/StillImage" />
        <dc:title></dc:title>
      </cc:Work>
    </rdf:RDF>
  </metadata>
  <g
     inkscape:label="Layer 1"
     inkscape:groupmode="layer"
     id="layer1"
     transform="translate(-98.83567,-335.17388)">
    <path
       style="font-style:normal;font-variant:normal;font-weight:normal;font-stretch:normal;letter-spacing:normal;word-spacing:normal;text-anchor:start;fill:#ffff00;fill-opacity:1;stroke:none;stroke-width:0;stroke-linecap:butt;stroke-linejoin:miter;stroke-miterlimit:10.43299960999999954;stroke-dasharray:none;stroke-dashoffset:0;stroke-opacity:1"
       d="M 182.42608,512.5233 C 162.38339,516.26838 142.3407,520.01347 122.29801,523.75854 C 130.78774,504.38739 139.27747,485.01623 147.7672,465.64507 C 131.45669,452.5674 115.14618,439.48973 98.83567,426.41205 C 118.03851,420.45865 137.24135,414.50524 156.44419,408.55183 C 149.99059,391.22972 143.53698,373.90761 137.08337,356.58549 C 155.09037,360.9978 173.09737,365.41013 191.10436,369.82245 C 196.03325,358.27293 200.96213,346.7234 205.89102,335.17388 C 218.9687,347.92012 232.04637,360.66634 245.12406,373.41257 C 258.20174,361.00642 271.27942,348.60026 284.3571,336.19411 C 296.25099,354.71293 308.1449,373.23175 320.03879,391.75057 C 337.70527,377.82057 355.37176,363.89055 373.03826,349.96054 C 386.12886,366.09887 399.21946,382.23719 412.31005,398.37551 C 420.97111,387.33395 429.63216,376.2924 438.29322,365.25084 C 448.13807,375.95233 457.98292,386.65383 467.82777,397.35532 C 481.08626,377.82488 494.34475,358.29444 507.60323,338.764 C 512.35992,357.60998 517.11661,376.45596 521.8733,395.30195 C 535.79471,386.64089 549.71611,377.97984 563.63752,369.31877 C 565.34648,386.81308 567.05544,404.30741 568.76442,421.80172 C 579.97816,419.09406 591.1919,416.38639 602.40564,413.67873 C 587.61469,431.68529 572.82375,449.69186 558.0328,467.69842 C 571.28267,475.67503 584.53254,483.65166 597.78241,491.62828 C 582.32423,496.21709 566.86604,500.80588 551.40786,505.39469 C 558.54506,523.22908 565.68226,541.06345 572.81946,558.89785 C 556.85331,552.44509 540.88717,545.99233 524.92102,539.53958 C 518.46827,554.15404 512.01553,568.76851 505.56279,583.38297 C 493.15234,570.30529 480.74188,557.22761 468.33144,544.14993 C 460.69489,558.4114 453.05834,572.67288 445.4218,586.93435 C 434.7117,567.57181 424.00162,548.20925 413.29153,528.8467 C 399.37443,548.03707 385.45732,567.22743 371.54022,586.4178 C 358.27744,567.57182 345.01465,548.72583 331.75187,529.87985 C 321.73482,541.93301 311.71778,553.98619 301.70073,566.03935 C 296.09171,550.58116 290.48269,535.12298 284.87367,519.6648 C 271.79168,541.41645 258.70969,563.1681 245.62771,584.91975 C 239.00707,568.09698 232.38645,551.2742 225.76583,534.45142 C 212.68814,541.9287 199.61045,549.40597 186.53277,556.88325 C 185.16387,542.0966 183.79498,527.30995 182.42608,512.5233 z"
       id="polygon2423" />
    <path
       style="font-style:normal;font-variant:normal;font-weight:normal;font-stretch:normal;letter-spacing:normal;word-spacing:normal;text-anchor:start;fill:#808040;fill-opacity:1;stroke:none;stroke-width:0;stroke-linecap:butt;stroke-linejoin:miter;stroke-miterlimit:10.43299960999999954;stroke-dasharray:none;stroke-dashoffset:0;stroke-opacity:1"
       d="M 328.56207,429.52435 C 328.63002,423.60649 323.78241,419.16736 318.88274,416.67834 C 308.70745,411.56322 297.16891,410.17623 285.95412,409.29624 C 281.28352,408.98062 276.60194,408.83718 271.92081,408.84885 C 268.13345,421.59804 269.40045,435.09637 269.44082,448.2087 C 269.89129,467.97846 269.59989,488.1801 263.46208,507.17685 C 271.70281,506.76922 279.57886,509.89574 287.8022,509.73034 C 291.80313,509.90607 289.78044,503.01106 291.00281,500.07404 C 291.74368,491.18451 291.55377,482.23709 292.39011,473.34673 C 293.31104,470.02606 291.66152,463.91448 294.42141,462.5165 C 306.06572,462.47351 317.81587,456.6355 323.69021,446.35899 C 326.70541,441.29326 328.52519,435.43979 328.56207,429.52435 z"
       id="path2425" />
    <path
       style="font-style:normal;font-variant:normal;font-weight:normal;font-stretch:normal;letter-spacing:normal;word-spacing:normal;text-anchor:start;fill:#808040;fill-opacity:1;stroke:none;stroke-width:0;stroke-linecap:butt;stroke-linejoin:miter;stroke-miterlimit:10.43299960999999954;stroke-dasharray:none;stroke-dashoffset:0;stroke-opacity:1"
       d="M 374.23926,429.26605 C 371.28397,427.9435 368.65643,425.6039 365.37315,425.20361 C 359.23166,425.74293 353.08919,426.454 346.91078,426.52107 C 343.93322,426.5908 340.95494,426.63883 337.97647,426.63159 C 331.04181,449.58467 326.15614,473.09362 320.91349,496.47422 C 319.86278,501.30854 318.82281,506.14522 317.80463,510.98651 C 331.68258,514.159 346.14436,512.99618 360.11124,510.98651 C 357.6963,499.59196 355.28136,488.19741 352.86642,476.80286 C 358.26021,477.43996 363.654,478.07707 369.04779,478.71417 C 373.16967,488.33152 377.14569,498.01713 381.35908,507.59166 C 384.69932,512.02713 391.04178,511.32142 395.93636,510.75108 C 400.2175,510.00967 404.62785,509.10288 408.39707,506.85399 C 408.73761,502.9271 406.14861,499.22252 404.8578,495.56262 C 395.52854,474.58063 384.23738,454.49975 375.53398,433.23813 C 375.04653,431.93381 374.57509,430.61896 374.23926,429.26605 z"
       id="path2427" />
    <path
       style="font-style:normal;font-variant:normal;font-weight:normal;font-stretch:normal;letter-spacing:normal;word-spacing:normal;text-anchor:start;fill:#808040;fill-opacity:1;stroke:none;stroke-width:0;stroke-linecap:butt;stroke-linejoin:miter;stroke-miterlimit:10.43299960999999954;stroke-dasharray:none;stroke-dashoffset:0;stroke-opacity:1"
       d="M 510.19894,497.81411 C 510.12763,473.87816 507.77719,449.72153 500.68632,426.77391 C 499.47667,422.99997 498.16567,419.24758 496.48418,415.65459 C 505.61875,415.65459 514.75332,415.65459 523.88791,415.65459 C 519.32491,443.04109 514.76193,470.42761 510.19894,497.81411 z"
       id="polygon2429" />
    <path
       style="font-style:normal;font-variant:normal;font-weight:normal;font-stretch:normal;letter-spacing:normal;word-spacing:normal;text-anchor:start;fill:#808040;fill-opacity:1;stroke:none;stroke-width:0;stroke-linecap:butt;stroke-linejoin:miter;stroke-miterlimit:10.43299960999999954;stroke-dasharray:none;stroke-dashoffset:0;stroke-opacity:1"
       d="M 507.24161,520.62042 C 503.30523,520.56655 499.17986,519.89736 495.88527,517.60657 C 494.3672,516.56777 493.08201,514.69451 493.65837,512.78901 C 494.42807,510.44074 496.80407,509.18252 498.95566,508.32524 C 503.11205,506.78345 507.69811,506.61777 512.03985,507.36416 C 514.73051,507.88187 517.47478,508.8258 519.50679,510.73051 C 520.74837,511.90469 521.42029,513.87583 520.50501,515.44459 C 519.27359,517.73183 516.73009,518.84801 514.37074,519.61394 C 512.06639,520.32353 509.64774,520.61251 507.24161,520.62042 z"
       id="path2431" />
    <path
       style="font-style:normal;font-variant:normal;font-weight:normal;font-stretch:normal;letter-spacing:normal;word-spacing:normal;text-anchor:start;fill:#808040;fill-opacity:1;stroke:none;stroke-width:0;stroke-linecap:butt;stroke-linejoin:miter;stroke-miterlimit:10.43299960999999954;stroke-dasharray:none;stroke-dashoffset:0;stroke-opacity:1"
       d="M 413.4465,503.92249 C 409.08274,490.54517 403.48443,477.62956 398.20728,464.60134 C 393.77135,453.81662 391.6321,442.2075 391.35454,430.57304 C 391.26235,428.16262 391.23145,425.7505 391.22131,423.33847 C 399.55025,419.94793 409.08126,420.87832 417.35946,423.95836 C 422.0688,436.67015 426.77815,449.38193 431.48749,462.09372 C 434.37148,451.90485 437.05882,441.57608 441.43135,431.90053 C 445.40018,432.23724 451.12741,430.79611 453.94345,433.00845 C 456.08344,443.44825 458.22344,453.88805 460.36343,464.32785 C 463.38534,449.04186 466.40724,433.75587 469.42914,418.46988 C 475.11875,416.73848 481.3741,418.26117 486.30786,421.36262 C 485.9945,453.53369 482.6212,485.55831 480.71606,517.65018 C 474.27874,517.99453 467.89793,516.93933 461.49987,516.44917 C 456.05873,507.45665 450.61759,498.46414 445.17645,489.47162 C 439.44259,495.26575 433.70872,501.05988 427.97485,506.854 C 423.13207,505.87683 418.28929,504.89966 413.4465,503.92249 z"
       id="path2433" />
    <path
       style="font-style:normal;font-variant:normal;font-weight:normal;font-stretch:normal;letter-spacing:normal;word-spacing:normal;text-anchor:start;fill:#808040;fill-opacity:1;stroke:none;stroke-width:0;stroke-linecap:butt;stroke-linejoin:miter;stroke-miterlimit:10.43299960999999954;stroke-dasharray:none;stroke-dashoffset:0;stroke-opacity:1"
       d="M 245.70518,437.97015 C 251.08851,436.46795 256.46471,434.94034 261.84781,433.43732 C 261.81392,423.28177 262.17278,412.33351 256.94501,403.2382 C 252.6225,396.10149 243.47762,395.68346 236.03784,395.44033 C 229.89768,395.57554 223.88399,393.90309 217.77043,394.02856 C 205.6936,395.17376 196.59034,404.70111 189.94407,414.06691 C 181.9525,425.97712 175.68368,439.59558 174.40851,454.02124 C 173.53254,462.92818 180.31661,469.85218 185.66893,476.08149 C 197.88714,488.95208 211.82779,500.47045 227.60906,508.70364 C 232.28375,510.73585 237.83099,513.81064 242.89024,511.45944 C 250.38408,504.67938 253.59187,494.58132 256.71284,485.26859 C 259.58626,475.54478 261.89756,465.58713 262.9225,455.49312 C 262.98359,450.00293 256.54576,448.63281 252.2037,448.99737 C 242.20098,449.52594 232.56156,452.71027 223.23465,456.16614 C 222.46411,462.09371 221.69357,468.02128 220.92303,473.94885 C 226.53047,476.96812 233.01393,479.90234 236.1791,485.72766 C 237.88703,491.86966 229.57218,491.11959 226.31363,488.66999 C 215.08262,482.55517 205.4363,473.28695 198.96509,462.25075 C 195.84381,457.66437 195.7509,451.58974 198.70242,446.89475 C 205.50537,435.49244 216.7386,427.68031 227.60616,420.47747 C 231.78126,417.34265 238.67995,418.56566 242.09773,422.39956 C 245.35491,426.81437 245.30656,432.7321 245.70518,437.97015 z"
       id="path2435" />
    <path
       style="font-style:normal;font-variant:normal;font-weight:normal;font-stretch:normal;letter-spacing:normal;word-spacing:normal;text-anchor:start;fill:#ffff00;fill-opacity:1;stroke:none;stroke-width:0;stroke-linecap:butt;stroke-linejoin:miter;stroke-miterlimit:10.43299960999999954;stroke-dasharray:none;stroke-dashoffset:0;stroke-opacity:1"
       d="M 292.51883,445.22787 C 297.33949,445.33701 302.40539,446.3046 307.02384,444.45745 C 309.31633,443.31275 310.45643,440.69751 310.39821,438.22281 C 310.53904,435.04256 310.60489,431.69565 309.35893,428.71028 C 308.45574,426.53473 306.19032,425.38897 303.93509,425.25776 C 300.8144,424.88857 297.64342,425.4816 294.54632,424.93076 C 292.5219,425.36347 293.84049,428.22114 293.29319,429.74995 C 293.03506,434.90926 292.77695,440.06857 292.51883,445.22787 z"
       id="path2437" />
    <path
       style="font-style:normal;font-variant:normal;font-weight:normal;font-stretch:normal;letter-spacing:normal;word-spacing:normal;text-anchor:start;fill:#ffff00;fill-opacity:1;stroke:none;stroke-width:0;stroke-linecap:butt;stroke-linejoin:miter;stroke-miterlimit:10.43299960999999954;stroke-dasharray:none;stroke-dashoffset:0;stroke-opacity:1"
       d="M 366.00006,464.10831 C 366.19054,458.35302 367.80856,452.64936 367.09023,446.87204 C 367.48125,444.7058 364.79653,445.02445 363.42857,444.652 C 359.93402,443.92483 356.43276,444.89972 352.95483,445.22614 C 351.88167,447.17224 352.22636,449.50987 351.63365,451.60403 C 351.12213,454.92887 350.62714,458.25631 350.08989,461.57714 C 355.39329,462.42078 360.69667,463.2646 366.00006,464.10831 z"
       id="path2439" />
  </g>
</svg>
