<svg width="80" height="89" viewBox="0 0 80 89" fill="none" xmlns="http://www.w3.org/2000/svg">
<path d="M9.44592 59.3329V26.9606L0 21.5684V64.7251L28.2991 80.8633L28.2797 70.0597L9.44592 59.3329Z" fill="#E20613"/>
<path d="M9.4458 26.9608L37.7061 10.7842V21.6069L28.2796 26.9608V48.6063L9.4458 59.3331V26.9608Z" fill="#B0C4CF"/>
<path d="M9.4458 59.3333L28.2796 48.6064L32.6348 51.1011V78.4074L28.2989 80.8637L28.2796 70.0601L9.4458 59.3333Z" fill="#D4E3EC"/>
<path d="M37.7061 21.6069L51.8169 29.6473L61.2821 24.2743L37.7061 10.7842V21.6069Z" fill="#8899A0"/>
<path d="M0 21.5688L9.44592 26.961L37.7063 10.7844L61.2824 24.2745L32.6349 40.5086L42.4292 45.8049L80 24.1977L37.7063 0L0 21.5688Z" fill="#D4E3EC"/>
<path d="M32.6348 40.5088L42.4291 45.805V89.0002L32.6348 83.5888V40.5088Z" fill="#E20613"/>
<path d="M42.4292 45.8044L80 24.1973V35.116L51.7977 51.2158V72.823L70.6895 62.0194V56.6272L56.5207 64.7251V53.8831L80 40.4314V67.4691L42.4292 88.9995V45.8044Z" fill="#8899A0"/>
<path d="M75.3933 37.7451L80.0001 40.4316L56.5208 53.8833V64.7253L51.7979 62.0388V51.216L75.3933 37.7451Z" fill="#495457"/>
<path d="M66.1409 59.2178L70.6897 62.0194L51.7979 72.823V62.0386L56.5208 64.7251L66.1409 59.2178Z" fill="#495457"/>
<path d="M37.7064 21.6074L28.2798 26.9612V48.6068L32.635 51.1014V40.5089L51.8172 29.6477L37.7064 21.6074Z" fill="#495457"/>
<path d="M66.1406 59.2185L70.6894 56.6279V62.0201L66.1406 59.2185Z" fill="#647277"/>
<path d="M28.2798 70.0606L32.635 67.4893V78.408L28.2798 80.8642V70.0606Z" fill="#495457"/>
<path d="M56.5208 53.8831L51.7979 51.2158V62.0386L56.5208 64.7251V53.8831Z" fill="#647277"/>
<path d="M32.6347 40.5094L48.1198 31.7783C46.0181 30.2349 43.5999 29.1684 41.0364 28.6542C38.4729 28.1399 35.8267 28.1906 33.2851 28.8025C30.7435 29.4144 28.3687 30.5727 26.3287 32.1953C24.2886 33.8179 22.6333 35.8653 21.4798 38.1924C20.3263 40.5195 19.7028 43.0695 19.6536 45.6619C19.6043 48.2543 20.1304 50.8258 21.1946 53.1943C22.2588 55.5629 23.8352 57.6706 25.8121 59.3682C27.789 61.0659 30.1181 62.3121 32.6347 63.0185V40.5094Z" fill="#7F0F00"/>
<path d="M32.6345 40.5094L46.8808 32.4307C45.1722 30.8617 43.1249 29.6998 40.895 29.0335C38.665 28.3672 36.3111 28.214 34.0124 28.5855C31.7137 28.9571 29.5308 29.8437 27.6299 31.1778C25.729 32.5119 24.1601 34.2583 23.0427 36.2842C21.9253 38.3101 21.2888 40.562 21.1817 42.8685C21.0746 45.175 21.4997 47.4753 22.4247 49.5943C23.3496 51.7134 24.75 53.5954 26.5192 55.097C28.2885 56.5985 30.38 57.6802 32.6345 58.2595V40.5094Z" fill="#AD0F0A"/>
<path d="M32.6346 40.509L47.1325 32.2959C45.7149 30.8606 43.9907 29.7587 42.0867 29.0714C40.1827 28.3841 38.1475 28.1289 36.1309 28.3246C34.1143 28.5203 32.1676 29.1619 30.4342 30.2021C28.7008 31.2424 27.2248 32.6548 26.1149 34.3354C25.005 36.016 24.2894 37.922 24.0209 39.9131C23.7523 41.9041 23.9377 43.9296 24.5632 45.8402C25.1888 47.7509 26.2387 49.4981 27.6355 50.9532C29.0324 52.4084 30.7406 53.5345 32.6346 54.2485V40.509Z" fill="#E20613"/>
</svg>
