<?xml version="1.0" encoding="UTF-8" standalone="no"?>
<svg
   xmlns:dc="http://purl.org/dc/elements/1.1/"
   xmlns:cc="http://creativecommons.org/ns#"
   xmlns:rdf="http://www.w3.org/1999/02/22-rdf-syntax-ns#"
   xmlns:svg="http://www.w3.org/2000/svg"
   xmlns="http://www.w3.org/2000/svg"
   xmlns:sodipodi="http://sodipodi.sourceforge.net/DTD/sodipodi-0.dtd"
   xmlns:inkscape="http://www.inkscape.org/namespaces/inkscape"
   viewBox="0 0 897.28413 54.253998"
   height="54.253998"
   width="897.28418"
   xml:space="preserve"
   id="svg2"
   version="1.1"
   sodipodi:docname="chain.svg"
   inkscape:version="0.92.2 (5c3e80d, 2017-08-06)"><sodipodi:namedview
     pagecolor="#ffffff"
     bordercolor="#666666"
     borderopacity="1"
     objecttolerance="10"
     gridtolerance="10"
     guidetolerance="10"
     inkscape:pageopacity="0"
     inkscape:pageshadow="2"
     inkscape:window-width="2048"
     inkscape:window-height="1005"
     id="namedview217"
     showgrid="false"
     fit-margin-top="0"
     fit-margin-left="0"
     fit-margin-right="0"
     fit-margin-bottom="0"
     inkscape:zoom="1.1788412"
     inkscape:cx="535.12233"
     inkscape:cy="40.66543"
     inkscape:window-x="0"
     inkscape:window-y="25"
     inkscape:window-maximized="1"
     inkscape:current-layer="g14" /><metadata
     id="metadata8"><rdf:RDF><cc:Work
         rdf:about=""><dc:format>image/svg+xml</dc:format><dc:type
           rdf:resource="http://purl.org/dc/dcmitype/StillImage" /><dc:title /></cc:Work></rdf:RDF></metadata><defs
     id="defs6"><marker
       inkscape:isstock="true"
       style="overflow:visible"
       id="marker1488"
       refX="0"
       refY="0"
       orient="auto"
       inkscape:stockid="Arrow1Mend"><path
         transform="matrix(-0.4,0,0,-0.4,-4,0)"
         style="fill:#000000;fill-opacity:1;fill-rule:evenodd;stroke:#000000;stroke-width:1.00000003pt;stroke-opacity:1"
         d="M 0,0 5,-5 -12.5,0 5,5 Z"
         id="path1486"
         inkscape:connector-curvature="0" /></marker><marker
       inkscape:isstock="true"
       style="overflow:visible"
       id="marker1454"
       refX="0"
       refY="0"
       orient="auto"
       inkscape:stockid="Arrow1Mend"><path
         transform="matrix(-0.4,0,0,-0.4,-4,0)"
         style="fill:#000000;fill-opacity:1;fill-rule:evenodd;stroke:#000000;stroke-width:1.00000003pt;stroke-opacity:1"
         d="M 0,0 5,-5 -12.5,0 5,5 Z"
         id="path1452"
         inkscape:connector-curvature="0" /></marker><marker
       inkscape:stockid="Arrow1Mend"
       orient="auto"
       refY="0"
       refX="0"
       id="Arrow1Mend"
       style="overflow:visible"
       inkscape:isstock="true"
       inkscape:collect="always"><path
         id="path1037"
         d="M 0,0 5,-5 -12.5,0 5,5 Z"
         style="fill:#000000;fill-opacity:1;fill-rule:evenodd;stroke:#000000;stroke-width:1.00000003pt;stroke-opacity:1"
         transform="matrix(-0.4,0,0,-0.4,-4,0)"
         inkscape:connector-curvature="0" /></marker><marker
       inkscape:isstock="true"
       style="overflow:visible"
       id="marker1364"
       refX="0"
       refY="0"
       orient="auto"
       inkscape:stockid="Arrow1Lend"><path
         transform="matrix(-0.8,0,0,-0.8,-10,0)"
         style="fill:#000000;fill-opacity:1;fill-rule:evenodd;stroke:#000000;stroke-width:1.00000003pt;stroke-opacity:1"
         d="M 0,0 5,-5 -12.5,0 5,5 Z"
         id="path1362"
         inkscape:connector-curvature="0" /></marker><marker
       inkscape:isstock="true"
       style="overflow:visible"
       id="marker1342"
       refX="0"
       refY="0"
       orient="auto"
       inkscape:stockid="Arrow1Lend"><path
         transform="matrix(-0.8,0,0,-0.8,-10,0)"
         style="fill:#000000;fill-opacity:1;fill-rule:evenodd;stroke:#000000;stroke-width:1.00000003pt;stroke-opacity:1"
         d="M 0,0 5,-5 -12.5,0 5,5 Z"
         id="path1340"
         inkscape:connector-curvature="0" /></marker><clipPath
       id="clipPath18"
       clipPathUnits="userSpaceOnUse"><path
         style="clip-rule:evenodd"
         id="path16"
         d="M 0,-0.4 H 793.6 V 446 H 0 Z"
         inkscape:connector-curvature="0" /></clipPath><clipPath
       id="clipPath80"
       clipPathUnits="userSpaceOnUse"><path
         id="path78"
         d="m 126.4,301.7 h 91.7 v 6.2 h -91.7 z"
         inkscape:connector-curvature="0" /></clipPath><clipPath
       id="clipPath104"
       clipPathUnits="userSpaceOnUse"><path
         id="path102"
         d="m 127.4,284.7 h 86.1 v 6.2 h -86.1 z"
         inkscape:connector-curvature="0" /></clipPath><clipPath
       id="clipPath148"
       clipPathUnits="userSpaceOnUse"><path
         id="path146"
         d="M 320.3,302.5 H 412 v 6.2 h -91.7 z"
         inkscape:connector-curvature="0" /></clipPath><clipPath
       id="clipPath172"
       clipPathUnits="userSpaceOnUse"><path
         id="path170"
         d="m 321.3,285.5 h 86.1 v 6.2 h -86.1 z"
         inkscape:connector-curvature="0" /></clipPath><clipPath
       id="clipPath216"
       clipPathUnits="userSpaceOnUse"><path
         id="path214"
         d="m 507.4,302.5 h 91.8 v 6.2 h -91.8 z"
         inkscape:connector-curvature="0" /></clipPath><clipPath
       id="clipPath240"
       clipPathUnits="userSpaceOnUse"><path
         id="path238"
         d="m 508.4,285.5 h 86.1 v 6.2 h -86.1 z"
         inkscape:connector-curvature="0" /></clipPath><clipPath
       id="clipPath344"
       clipPathUnits="userSpaceOnUse"><path
         id="path342"
         d="M 91.5,141.6 H 650.7 V 165 H 91.5 Z"
         inkscape:connector-curvature="0" /></clipPath><clipPath
       id="clipPath368"
       clipPathUnits="userSpaceOnUse"><path
         id="path366"
         d="M 143.4,180.3 H 221 v 6.2 h -77.6 z"
         inkscape:connector-curvature="0" /></clipPath><clipPath
       id="clipPath392"
       clipPathUnits="userSpaceOnUse"><path
         id="path390"
         d="m 316.7,180.3 h 95.1 v 6.2 h -95.1 z"
         inkscape:connector-curvature="0" /></clipPath><clipPath
       id="clipPath416"
       clipPathUnits="userSpaceOnUse"><path
         id="path414"
         d="M 509.6,180.2 H 601 v 6.2 h -91.4 z"
         inkscape:connector-curvature="0" /></clipPath></defs><g
     transform="matrix(1.3333333,0,0,-1.3333333,-33.509466,424.26032)"
     id="g10"><g
       id="g12"><g
         clip-path="url(#clipPath18)"
         id="g14"><path
           id="path22"
           style="fill:#f2f2f2;fill-opacity:1;fill-rule:evenodd;stroke:none"
           d="m 25.5,310.4 v 0 0.3 0.4 l 0.1,0.3 0.1,0.3 v 0.4 l 0.1,0.3 0.1,0.3 0.2,0.3 0.1,0.3 0.2,0.3 0.2,0.3 0.2,0.3 0.2,0.2 0.2,0.3 0.2,0.3 0.2,0.2 0.3,0.2 0.3,0.2 0.3,0.2 0.2,0.2 0.3,0.1 0.3,0.2 0.4,0.1 0.3,0.1 0.3,0.1 0.3,0.1 0.4,0.1 h 0.3 l 0.3,0.1 h 0.4 86.7 v 0 h 0.3 l 0.4,-0.1 h 0.3 l 0.3,-0.1 0.4,-0.1 0.3,-0.1 0.3,-0.1 0.3,-0.1 0.3,-0.2 0.3,-0.1 0.3,-0.2 0.3,-0.2 0.2,-0.2 0.3,-0.2 0.3,-0.2 0.2,-0.3 0.2,-0.3 0.2,-0.2 0.2,-0.3 0.2,-0.3 0.1,-0.3 0.2,-0.3 0.1,-0.3 0.1,-0.3 0.1,-0.3 0.1,-0.4 0.1,-0.3 v -0.3 -0.4 -0.3 l 0.1,-25.9 h -0.1 v -0.4 -0.3 -0.3 l -0.1,-0.4 -0.1,-0.3 -0.1,-0.3 -0.1,-0.3 -0.1,-0.3 -0.2,-0.3 -0.1,-0.3 -0.2,-0.3 -0.2,-0.3 -0.2,-0.3 -0.2,-0.2 -0.2,-0.3 -0.3,-0.2 -0.2,-0.2 -0.3,-0.2 -0.3,-0.2 -0.3,-0.2 -0.3,-0.2 -0.3,-0.1 -0.3,-0.2 -0.3,-0.1 -0.3,-0.1 H 120 l -0.3,-0.1 -0.3,-0.1 H 119.1 118.7 32 v 0 h -0.4 -0.3 l -0.3,0.1 -0.4,0.1 h -0.3 l -0.3,0.1 -0.3,0.1 -0.3,0.2 -0.3,0.1 -0.4,0.2 -0.2,0.2 -0.3,0.1 -0.3,0.3 -0.2,0.2 -0.3,0.2 -0.2,0.2 -0.2,0.3 -0.2,0.3 -0.2,0.2 -0.2,0.3 -0.2,0.3 -0.1,0.3 -0.2,0.4 -0.1,0.3 -0.1,0.3 v 0.3 l -0.1,0.3 -0.1,0.4 v 0.3 0.4 z m 0,6.5 z M 125.2,278 Z"
           inkscape:connector-curvature="0" /><g
           id="g24"><path
             id="path26"
             style="fill:none;stroke:#000000;stroke-width:0.73580003;stroke-linecap:butt;stroke-linejoin:round;stroke-miterlimit:10;stroke-dasharray:none;stroke-opacity:1"
             d="m 25.5,310.4 v 0 0.3 0.4 l 0.1,0.3 0.1,0.3 v 0.4 l 0.1,0.3 0.1,0.3 0.2,0.3 0.1,0.3 0.2,0.3 0.2,0.3 0.2,0.3 0.2,0.2 0.2,0.3 0.2,0.3 0.2,0.2 0.3,0.2 0.3,0.2 0.3,0.2 0.2,0.2 0.3,0.1 0.3,0.2 0.4,0.1 0.3,0.1 0.3,0.1 0.3,0.1 0.4,0.1 h 0.3 l 0.3,0.1 h 0.4 86.7 v 0 h 0.3 l 0.4,-0.1 h 0.3 l 0.3,-0.1 0.4,-0.1 0.3,-0.1 0.3,-0.1 0.3,-0.1 0.3,-0.2 0.3,-0.1 0.3,-0.2 0.3,-0.2 0.2,-0.2 0.3,-0.2 0.3,-0.2 0.2,-0.3 0.2,-0.3 0.2,-0.2 0.2,-0.3 0.2,-0.3 0.1,-0.3 0.2,-0.3 0.1,-0.3 0.1,-0.3 0.1,-0.3 0.1,-0.4 0.1,-0.3 v -0.3 -0.4 -0.3 l 0.1,-25.9 h -0.1 v -0.4 -0.3 -0.3 l -0.1,-0.4 -0.1,-0.3 -0.1,-0.3 -0.1,-0.3 -0.1,-0.3 -0.2,-0.3 -0.1,-0.3 -0.2,-0.3 -0.2,-0.3 -0.2,-0.3 -0.2,-0.2 -0.2,-0.3 -0.3,-0.2 -0.2,-0.2 -0.3,-0.2 -0.3,-0.2 -0.3,-0.2 -0.3,-0.2 -0.3,-0.1 -0.3,-0.2 -0.3,-0.1 -0.3,-0.1 H 120 l -0.3,-0.1 -0.3,-0.1 H 119.1 118.7 32 v 0 h -0.4 -0.3 l -0.3,0.1 -0.4,0.1 h -0.3 l -0.3,0.1 -0.3,0.1 -0.3,0.2 -0.3,0.1 -0.4,0.2 -0.2,0.2 -0.3,0.1 -0.3,0.3 -0.2,0.2 -0.3,0.2 -0.2,0.2 -0.2,0.3 -0.2,0.3 -0.2,0.2 -0.2,0.3 -0.2,0.3 -0.1,0.3 -0.2,0.4 -0.1,0.3 -0.1,0.3 v 0.3 l -0.1,0.3 -0.1,0.4 v 0.3 0.4 z"
             inkscape:connector-curvature="0" /></g><g
           id="g28"><path
             id="path30"
             style="fill:none;stroke:#000000;stroke-width:0.73580003;stroke-linecap:butt;stroke-linejoin:round;stroke-miterlimit:10;stroke-dasharray:none;stroke-opacity:1"
             d="M 25.5,316.9 Z"
             inkscape:connector-curvature="0" /></g><g
           id="g32"><path
             id="path34"
             style="fill:none;stroke:#000000;stroke-width:0.73580003;stroke-linecap:butt;stroke-linejoin:round;stroke-miterlimit:10;stroke-dasharray:none;stroke-opacity:1"
             d="M 125.2,278 Z"
             inkscape:connector-curvature="0" /></g><g
           id="g36"
           transform="translate(-0.42461021,1.4755859)"><text
             id="text40"
             style="font-variant:normal;font-weight:normal;font-size:18px;font-family:Carlito;-inkscape-font-specification:Carlito;writing-mode:lr-tb;fill:#000000;fill-opacity:1;fill-rule:nonzero;stroke:none"
             transform="matrix(1,0,0,-1,41.1,290.2)"><tspan
               id="tspan38"
               y="0"
               x="0 9.198 15.192 24.677999 32.273998 41.166 48.240002 55.313999 59.400002">Process 0</tspan></text>
</g><path
           id="path42"
           style="fill:#f2f2f2;fill-opacity:1;fill-rule:evenodd;stroke:none"
           d="m 216.9,310.4 v 0 0.3 0.4 l 0.1,0.3 v 0.3 l 0.1,0.4 0.1,0.3 0.1,0.3 0.1,0.3 0.2,0.3 0.2,0.3 0.1,0.3 0.2,0.3 0.2,0.2 0.3,0.3 0.2,0.3 0.2,0.2 0.3,0.2 0.2,0.2 0.3,0.2 0.3,0.2 0.3,0.1 0.3,0.2 0.3,0.1 0.4,0.1 0.3,0.1 0.3,0.1 0.3,0.1 h 0.4 l 0.3,0.1 h 0.3 86.8 v 0 h 0.3 l 0.3,-0.1 h 0.4 l 0.3,-0.1 0.3,-0.1 0.3,-0.1 0.4,-0.1 0.3,-0.1 0.3,-0.2 0.3,-0.1 0.3,-0.2 0.3,-0.2 0.2,-0.2 0.3,-0.2 0.2,-0.2 0.2,-0.3 0.3,-0.3 0.2,-0.2 0.2,-0.3 0.1,-0.3 0.2,-0.3 0.1,-0.3 0.2,-0.3 0.1,-0.3 0.1,-0.3 0.1,-0.4 v -0.3 l 0.1,-0.3 v -0.4 -0.3 -25.9 0 -0.4 -0.3 l -0.1,-0.3 v -0.4 l -0.1,-0.3 -0.1,-0.3 -0.1,-0.3 -0.2,-0.3 -0.1,-0.3 -0.1,-0.3 -0.2,-0.3 -0.2,-0.3 -0.2,-0.3 -0.2,-0.2 -0.3,-0.3 -0.2,-0.2 -0.3,-0.2 -0.2,-0.2 -0.3,-0.2 -0.3,-0.2 -0.3,-0.2 -0.3,-0.1 -0.3,-0.2 -0.3,-0.1 -0.3,-0.1 h -0.4 l -0.3,-0.1 -0.3,-0.1 h -0.4 -0.3 -86.8 v 0 h -0.3 -0.3 l -0.4,0.1 -0.3,0.1 h -0.3 l -0.3,0.1 -0.4,0.1 -0.3,0.2 -0.3,0.1 -0.3,0.2 -0.3,0.2 -0.3,0.1 -0.2,0.3 -0.3,0.2 -0.2,0.2 -0.2,0.2 -0.3,0.3 -0.2,0.3 -0.2,0.2 -0.1,0.3 -0.2,0.3 -0.2,0.3 -0.1,0.4 -0.1,0.3 -0.1,0.3 -0.1,0.3 v 0.3 l -0.1,0.4 v 0.3 0.4 z m 0,6.5 z M 316.5,278 Z"
           inkscape:connector-curvature="0" /><g
           id="g44"><path
             id="path46"
             style="fill:none;stroke:#000000;stroke-width:0.99049997;stroke-linecap:butt;stroke-linejoin:round;stroke-miterlimit:10;stroke-dasharray:none;stroke-opacity:1"
             d="m 216.9,310.4 v 0 0.3 0.4 l 0.1,0.3 v 0.3 l 0.1,0.4 0.1,0.3 0.1,0.3 0.1,0.3 0.2,0.3 0.2,0.3 0.1,0.3 0.2,0.3 0.2,0.2 0.3,0.3 0.2,0.3 0.2,0.2 0.3,0.2 0.2,0.2 0.3,0.2 0.3,0.2 0.3,0.1 0.3,0.2 0.3,0.1 0.4,0.1 0.3,0.1 0.3,0.1 0.3,0.1 h 0.4 l 0.3,0.1 h 0.3 86.8 v 0 h 0.3 l 0.3,-0.1 h 0.4 l 0.3,-0.1 0.3,-0.1 0.3,-0.1 0.4,-0.1 0.3,-0.1 0.3,-0.2 0.3,-0.1 0.3,-0.2 0.3,-0.2 0.2,-0.2 0.3,-0.2 0.2,-0.2 0.2,-0.3 0.3,-0.3 0.2,-0.2 0.2,-0.3 0.1,-0.3 0.2,-0.3 0.1,-0.3 0.2,-0.3 0.1,-0.3 0.1,-0.3 0.1,-0.4 v -0.3 l 0.1,-0.3 v -0.4 -0.3 -25.9 0 -0.4 -0.3 l -0.1,-0.3 v -0.4 l -0.1,-0.3 -0.1,-0.3 -0.1,-0.3 -0.2,-0.3 -0.1,-0.3 -0.1,-0.3 -0.2,-0.3 -0.2,-0.3 -0.2,-0.3 -0.2,-0.2 -0.3,-0.3 -0.2,-0.2 -0.3,-0.2 -0.2,-0.2 -0.3,-0.2 -0.3,-0.2 -0.3,-0.2 -0.3,-0.1 -0.3,-0.2 -0.3,-0.1 -0.3,-0.1 h -0.4 l -0.3,-0.1 -0.3,-0.1 h -0.4 -0.3 -86.8 v 0 h -0.3 -0.3 l -0.4,0.1 -0.3,0.1 h -0.3 l -0.3,0.1 -0.4,0.1 -0.3,0.2 -0.3,0.1 -0.3,0.2 -0.3,0.2 -0.3,0.1 -0.2,0.3 -0.3,0.2 -0.2,0.2 -0.2,0.2 -0.3,0.3 -0.2,0.3 -0.2,0.2 -0.1,0.3 -0.2,0.3 -0.2,0.3 -0.1,0.4 -0.1,0.3 -0.1,0.3 -0.1,0.3 v 0.3 l -0.1,0.4 v 0.3 0.4 z"
             inkscape:connector-curvature="0" /></g><g
           id="g56"
           transform="translate(-0.2482235,1.5239258)"><text
             id="text60"
             style="font-variant:normal;font-weight:normal;font-size:18px;font-family:Carlito;-inkscape-font-specification:Carlito;writing-mode:lr-tb;fill:#000000;fill-opacity:1;fill-rule:nonzero;stroke:none"
             transform="matrix(1,0,0,-1,232.4,290.2)"><tspan
               id="tspan58"
               y="0"
               x="0 9.2880001 15.282 24.768 32.273998 41.256001 48.330002 55.403999 59.490002">Process 1</tspan></text>
</g><path
           id="path122"
           style="fill:#f2f2f2;fill-opacity:1;fill-rule:evenodd;stroke:none"
           d="m 410.8,311.2 v 0 0.4 l 0.1,0.3 v 0.3 l 0.1,0.3 0.1,0.4 v 0.3 l 0.2,0.3 0.1,0.3 0.1,0.4 0.2,0.2 0.2,0.3 0.2,0.3 0.2,0.3 0.2,0.2 0.2,0.3 0.3,0.2 0.2,0.2 0.3,0.2 0.3,0.2 0.3,0.2 0.2,0.2 0.4,0.1 0.3,0.2 0.3,0.1 h 0.3 l 0.4,0.1 0.3,0.1 h 0.3 l 0.3,0.1 h 0.4 86.7 v 0 h 0.3 l 0.4,-0.1 h 0.3 l 0.3,-0.1 0.4,-0.1 h 0.3 l 0.3,-0.1 0.3,-0.2 0.3,-0.1 0.3,-0.2 0.3,-0.2 0.3,-0.2 0.3,-0.2 0.2,-0.2 0.3,-0.2 0.2,-0.3 0.2,-0.2 0.2,-0.3 0.2,-0.3 0.2,-0.3 0.2,-0.2 0.1,-0.4 0.1,-0.3 0.2,-0.3 v -0.3 l 0.1,-0.4 0.1,-0.3 v -0.3 l 0.1,-0.3 v -0.4 -25.9 0 -0.3 l -0.1,-0.4 v -0.3 l -0.1,-0.3 -0.1,-0.4 v -0.3 l -0.2,-0.3 -0.1,-0.3 -0.1,-0.3 -0.2,-0.3 -0.2,-0.3 -0.2,-0.3 -0.2,-0.2 -0.2,-0.3 -0.2,-0.3 -0.3,-0.2 -0.2,-0.2 -0.3,-0.2 -0.3,-0.2 -0.2,-0.2 -0.4,-0.2 -0.3,-0.1 -0.3,-0.1 -0.3,-0.1 -0.3,-0.1 -0.3,-0.1 -0.4,-0.1 h -0.3 l -0.3,-0.1 H 504 417.3 v 0 h -0.4 l -0.3,0.1 h -0.3 l -0.3,0.1 -0.4,0.1 -0.3,0.1 -0.3,0.1 -0.3,0.1 -0.3,0.1 -0.3,0.2 -0.3,0.2 -0.3,0.2 -0.3,0.2 -0.2,0.2 -0.3,0.2 -0.2,0.3 -0.2,0.2 -0.2,0.3 -0.2,0.3 -0.2,0.2 -0.2,0.4 -0.1,0.3 -0.1,0.3 -0.2,0.3 v 0.3 l -0.1,0.3 -0.1,0.4 v 0.3 l -0.1,0.3 v 0.4 z m 0,6.5 z m 99.7,-38.9 z"
           inkscape:connector-curvature="0" /><g
           id="g124"><path
             id="path126"
             style="fill:none;stroke:#000000;stroke-width:0.99049997;stroke-linecap:butt;stroke-linejoin:round;stroke-miterlimit:10;stroke-dasharray:none;stroke-opacity:1"
             d="m 410.8,311.2 v 0 0.4 l 0.1,0.3 v 0.3 l 0.1,0.3 0.1,0.4 v 0.3 l 0.2,0.3 0.1,0.3 0.1,0.4 0.2,0.2 0.2,0.3 0.2,0.3 0.2,0.3 0.2,0.2 0.2,0.3 0.3,0.2 0.2,0.2 0.3,0.2 0.3,0.2 0.3,0.2 0.2,0.2 0.4,0.1 0.3,0.2 0.3,0.1 h 0.3 l 0.4,0.1 0.3,0.1 h 0.3 l 0.3,0.1 h 0.4 86.7 v 0 h 0.3 l 0.4,-0.1 h 0.3 l 0.3,-0.1 0.4,-0.1 h 0.3 l 0.3,-0.1 0.3,-0.2 0.3,-0.1 0.3,-0.2 0.3,-0.2 0.3,-0.2 0.3,-0.2 0.2,-0.2 0.3,-0.2 0.2,-0.3 0.2,-0.2 0.2,-0.3 0.2,-0.3 0.2,-0.3 0.2,-0.2 0.1,-0.4 0.1,-0.3 0.2,-0.3 v -0.3 l 0.1,-0.4 0.1,-0.3 v -0.3 l 0.1,-0.3 v -0.4 -25.9 0 -0.3 l -0.1,-0.4 v -0.3 l -0.1,-0.3 -0.1,-0.4 v -0.3 l -0.2,-0.3 -0.1,-0.3 -0.1,-0.3 -0.2,-0.3 -0.2,-0.3 -0.2,-0.3 -0.2,-0.2 -0.2,-0.3 -0.2,-0.3 -0.3,-0.2 -0.2,-0.2 -0.3,-0.2 -0.3,-0.2 -0.2,-0.2 -0.4,-0.2 -0.3,-0.1 -0.3,-0.1 -0.3,-0.1 -0.3,-0.1 -0.3,-0.1 -0.4,-0.1 h -0.3 l -0.3,-0.1 H 504 417.3 v 0 h -0.4 l -0.3,0.1 h -0.3 l -0.3,0.1 -0.4,0.1 -0.3,0.1 -0.3,0.1 -0.3,0.1 -0.3,0.1 -0.3,0.2 -0.3,0.2 -0.3,0.2 -0.3,0.2 -0.2,0.2 -0.3,0.2 -0.2,0.3 -0.2,0.2 -0.2,0.3 -0.2,0.3 -0.2,0.2 -0.2,0.4 -0.1,0.3 -0.1,0.3 -0.2,0.3 v 0.3 l -0.1,0.3 -0.1,0.4 v 0.3 l -0.1,0.3 v 0.4 z"
             inkscape:connector-curvature="0" /></g><g
           id="g132"><path
             id="path134"
             style="fill:none;stroke:#000000;stroke-width:0.99049997;stroke-linecap:butt;stroke-linejoin:round;stroke-miterlimit:10;stroke-dasharray:none;stroke-opacity:1"
             d="M 510.5,278.8 Z"
             inkscape:connector-curvature="0" /></g><g
           id="g136"
           transform="translate(-0.28419495,1.4755859)"><text
             id="text140"
             style="font-variant:normal;font-weight:normal;font-size:18px;font-family:Carlito;-inkscape-font-specification:Carlito;writing-mode:lr-tb;fill:#000000;fill-opacity:1;fill-rule:nonzero;stroke:none"
             transform="matrix(1,0,0,-1,426.4,291)"><tspan
               id="tspan138"
               y="0"
               x="0 9.198 15.192 24.677999 32.273998 41.256001 48.257999 55.332001 59.417999">Process 2</tspan></text>
</g><path
           id="path190"
           style="fill:#f2f2f2;fill-opacity:1;fill-rule:evenodd;stroke:none"
           d="m 597.9,311.2 v 0 0.4 l 0.1,0.3 v 0.3 l 0.1,0.3 0.1,0.4 0.1,0.3 0.1,0.3 0.1,0.3 0.1,0.4 0.2,0.2 0.2,0.3 0.2,0.3 0.2,0.3 0.2,0.2 0.2,0.3 0.3,0.2 0.2,0.2 0.3,0.2 0.3,0.2 0.3,0.2 0.3,0.2 0.3,0.1 0.3,0.2 0.3,0.1 h 0.3 l 0.4,0.1 0.3,0.1 h 0.3 l 0.4,0.1 h 0.3 86.7 v 0 h 0.4 l 0.3,-0.1 h 0.3 l 0.3,-0.1 0.4,-0.1 h 0.3 l 0.3,-0.1 0.4,-0.2 0.3,-0.1 0.2,-0.2 0.3,-0.2 0.3,-0.2 0.3,-0.2 0.3,-0.2 0.2,-0.2 0.2,-0.3 0.2,-0.2 0.2,-0.3 0.2,-0.3 0.2,-0.3 0.2,-0.2 0.1,-0.4 0.2,-0.3 0.1,-0.3 0.1,-0.3 v -0.4 l 0.1,-0.3 v -0.3 l 0.1,-0.3 v -0.4 -25.9 0 -0.3 l -0.1,-0.4 v -0.3 l -0.1,-0.3 v -0.4 l -0.1,-0.3 -0.1,-0.3 -0.2,-0.3 -0.1,-0.3 -0.2,-0.3 -0.2,-0.3 -0.1,-0.3 -0.3,-0.2 -0.2,-0.3 -0.2,-0.3 -0.2,-0.2 -0.3,-0.2 -0.3,-0.2 -0.2,-0.2 -0.3,-0.2 -0.3,-0.2 -0.3,-0.1 -0.4,-0.1 -0.3,-0.1 -0.3,-0.1 -0.3,-0.1 -0.3,-0.1 h -0.4 l -0.3,-0.1 h -0.4 -86.7 v 0 h -0.3 l -0.4,0.1 h -0.3 l -0.3,0.1 -0.4,0.1 -0.3,0.1 -0.3,0.1 -0.3,0.1 -0.3,0.1 -0.3,0.2 -0.3,0.2 -0.3,0.2 -0.3,0.2 -0.2,0.2 -0.3,0.2 -0.2,0.3 -0.2,0.2 -0.2,0.3 -0.2,0.3 -0.2,0.2 -0.2,0.4 -0.1,0.3 -0.1,0.3 -0.1,0.3 -0.1,0.3 -0.1,0.3 -0.1,0.4 v 0.3 l -0.1,0.3 v 0.4 z m 0,6.5 z m 99.7,-38.9 z"
           inkscape:connector-curvature="0" /><g
           id="g192"><path
             id="path194"
             style="fill:none;stroke:#000000;stroke-width:0.99049997;stroke-linecap:butt;stroke-linejoin:round;stroke-miterlimit:10;stroke-dasharray:none;stroke-opacity:1"
             d="m 597.9,311.2 v 0 0.4 l 0.1,0.3 v 0.3 l 0.1,0.3 0.1,0.4 0.1,0.3 0.1,0.3 0.1,0.3 0.1,0.4 0.2,0.2 0.2,0.3 0.2,0.3 0.2,0.3 0.2,0.2 0.2,0.3 0.3,0.2 0.2,0.2 0.3,0.2 0.3,0.2 0.3,0.2 0.3,0.2 0.3,0.1 0.3,0.2 0.3,0.1 h 0.3 l 0.4,0.1 0.3,0.1 h 0.3 l 0.4,0.1 h 0.3 86.7 v 0 h 0.4 l 0.3,-0.1 h 0.3 l 0.3,-0.1 0.4,-0.1 h 0.3 l 0.3,-0.1 0.4,-0.2 0.3,-0.1 0.2,-0.2 0.3,-0.2 0.3,-0.2 0.3,-0.2 0.3,-0.2 0.2,-0.2 0.2,-0.3 0.2,-0.2 0.2,-0.3 0.2,-0.3 0.2,-0.3 0.2,-0.2 0.1,-0.4 0.2,-0.3 0.1,-0.3 0.1,-0.3 v -0.4 l 0.1,-0.3 v -0.3 l 0.1,-0.3 v -0.4 -25.9 0 -0.3 l -0.1,-0.4 v -0.3 l -0.1,-0.3 v -0.4 l -0.1,-0.3 -0.1,-0.3 -0.2,-0.3 -0.1,-0.3 -0.2,-0.3 -0.2,-0.3 -0.1,-0.3 -0.3,-0.2 -0.2,-0.3 -0.2,-0.3 -0.2,-0.2 -0.3,-0.2 -0.3,-0.2 -0.2,-0.2 -0.3,-0.2 -0.3,-0.2 -0.3,-0.1 -0.4,-0.1 -0.3,-0.1 -0.3,-0.1 -0.3,-0.1 -0.3,-0.1 h -0.4 l -0.3,-0.1 h -0.4 -86.7 v 0 h -0.3 l -0.4,0.1 h -0.3 l -0.3,0.1 -0.4,0.1 -0.3,0.1 -0.3,0.1 -0.3,0.1 -0.3,0.1 -0.3,0.2 -0.3,0.2 -0.3,0.2 -0.3,0.2 -0.2,0.2 -0.3,0.2 -0.2,0.3 -0.2,0.2 -0.2,0.3 -0.2,0.3 -0.2,0.2 -0.2,0.4 -0.1,0.3 -0.1,0.3 -0.1,0.3 -0.1,0.3 -0.1,0.3 -0.1,0.4 v 0.3 l -0.1,0.3 v 0.4 z"
             inkscape:connector-curvature="0" /></g><g
           id="g196"><path
             id="path198"
             style="fill:none;stroke:#000000;stroke-width:0.99049997;stroke-linecap:butt;stroke-linejoin:round;stroke-miterlimit:10;stroke-dasharray:none;stroke-opacity:1"
             d="M 597.9,317.7 Z"
             inkscape:connector-curvature="0" /></g><g
           id="g200"><path
             id="path202"
             style="fill:none;stroke:#000000;stroke-width:0.99049997;stroke-linecap:butt;stroke-linejoin:round;stroke-miterlimit:10;stroke-dasharray:none;stroke-opacity:1"
             d="M 697.6,278.8 Z"
             inkscape:connector-curvature="0" /></g><g
           id="g204"
           transform="translate(-0.33274651,1.4755859)"><text
             id="text208"
             style="font-variant:normal;font-weight:normal;font-size:18px;font-family:Carlito;-inkscape-font-specification:Carlito;writing-mode:lr-tb;fill:#000000;fill-opacity:1;fill-rule:nonzero;stroke:none"
             transform="matrix(1,0,0,-1,613.5,291)"><tspan
               id="tspan206"
               y="0"
               x="0 9.198 15.3 24.695999 32.292 41.273998 48.348 55.349998 59.436001">Process 3</tspan></text>
</g><path
           style="fill:none;fill-rule:evenodd;stroke:#000000;stroke-width:2;stroke-linecap:butt;stroke-linejoin:miter;stroke-miterlimit:4;stroke-dasharray:none;stroke-opacity:1;marker-end:url(#marker1454)"
           d="M 123.74589,296.8372 216.9,297.23652"
           id="path1022"
           inkscape:connector-type="polyline"
           inkscape:connector-curvature="0"
           inkscape:connection-end="#path42" /><path
           style="fill:none;fill-rule:evenodd;stroke:#000000;stroke-width:2;stroke-linecap:butt;stroke-linejoin:miter;stroke-miterlimit:4;stroke-dasharray:none;stroke-opacity:1;marker-end:url(#Arrow1Mend)"
           d="m 316.5,297.65541 94.3,0.38897"
           id="path1024"
           inkscape:connector-type="polyline"
           inkscape:connector-curvature="0"
           inkscape:connection-start="#path42"
           inkscape:connection-end="#path122" /><path
           style="fill:none;fill-rule:evenodd;stroke:#000000;stroke-width:2;stroke-linecap:butt;stroke-linejoin:miter;stroke-miterlimit:4;stroke-dasharray:none;stroke-opacity:1;marker-end:url(#marker1488)"
           d="m 510.5,298.25 h 87.4"
           id="path1026"
           inkscape:connector-type="polyline"
           inkscape:connector-curvature="0"
           inkscape:connection-start="#path122"
           inkscape:connection-end="#path190" /></g></g></g></svg>