<?xml version="1.0" encoding="UTF-8" standalone="no"?>
<svg
   xmlns:dc="http://purl.org/dc/elements/1.1/"
   xmlns:cc="http://creativecommons.org/ns#"
   xmlns:rdf="http://www.w3.org/1999/02/22-rdf-syntax-ns#"
   xmlns:svg="http://www.w3.org/2000/svg"
   xmlns="http://www.w3.org/2000/svg"
   xmlns:sodipodi="http://sodipodi.sourceforge.net/DTD/sodipodi-0.dtd"
   xmlns:inkscape="http://www.inkscape.org/namespaces/inkscape"
   viewBox="0 0 627.58731 155.98733"
   height="155.98734"
   width="627.58734"
   xml:space="preserve"
   id="svg2"
   version="1.1"
   sodipodi:docname="create_struct.svg"
   inkscape:version="0.92.2 (5c3e80d, 2017-08-06)"><sodipodi:namedview
     pagecolor="#ffffff"
     bordercolor="#666666"
     borderopacity="1"
     objecttolerance="10"
     gridtolerance="10"
     guidetolerance="10"
     inkscape:pageopacity="0"
     inkscape:pageshadow="2"
     inkscape:window-width="640"
     inkscape:window-height="480"
     id="namedview71"
     showgrid="false"
     inkscape:zoom="0.2947103"
     inkscape:cx="408.12703"
     inkscape:cy="178.66034"
     inkscape:window-x="0"
     inkscape:window-y="28"
     inkscape:window-maximized="0"
     inkscape:current-layer="g14" /><metadata
     id="metadata8"><rdf:RDF><cc:Work
         rdf:about=""><dc:format>image/svg+xml</dc:format><dc:type
           rdf:resource="http://purl.org/dc/dcmitype/StillImage" /></cc:Work></rdf:RDF></metadata><defs
     id="defs6"><clipPath
       id="clipPath18"
       clipPathUnits="userSpaceOnUse"><path
         style="clip-rule:evenodd"
         id="path16"
         d="M 0,-0.2 H 793.6 V 595 H 0 Z"
         inkscape:connector-curvature="0" /></clipPath></defs><g
     transform="matrix(1.3333333,0,0,-1.3333333,-121.20633,373.99366)"
     id="g10"><g
       id="g12"><g
         clip-path="url(#clipPath18)"
         id="g14"><g
           id="g22" /><g
           id="g24" /><path
           id="path26"
           style="fill:#ccff66;fill-opacity:1;fill-rule:evenodd;stroke:none"
           d="m 91.4,271.2 v 0 0.5 0.4 l 0.1,0.5 0.1,0.4 0.1,0.5 0.1,0.4 0.2,0.4 0.2,0.5 0.2,0.4 0.2,0.4 0.2,0.4 0.3,0.4 0.2,0.3 0.4,0.4 0.3,0.3 0.3,0.3 0.3,0.3 0.4,0.3 0.4,0.3 0.4,0.2 0.4,0.2 0.4,0.2 0.4,0.2 0.5,0.2 0.4,0.1 0.5,0.1 0.4,0.1 h 0.5 l 0.4,0.1 h 0.5 452.1 v 0 h 0.5 l 0.4,-0.1 h 0.5 l 0.4,-0.1 0.5,-0.1 0.5,-0.1 0.4,-0.2 0.4,-0.2 0.4,-0.2 0.4,-0.2 0.4,-0.2 0.4,-0.3 0.4,-0.3 0.3,-0.3 0.3,-0.3 0.4,-0.3 0.3,-0.4 0.2,-0.3 0.3,-0.4 0.2,-0.4 0.3,-0.4 0.2,-0.4 0.1,-0.5 0.2,-0.4 0.1,-0.4 0.1,-0.5 0.1,-0.4 0.1,-0.5 v -0.4 -0.5 -98.4 0 -0.5 -0.4 l -0.1,-0.5 -0.1,-0.4 -0.1,-0.5 -0.1,-0.4 -0.1,-0.5 -0.2,-0.4 -0.2,-0.4 -0.2,-0.4 -0.3,-0.4 -0.2,-0.4 -0.3,-0.3 -0.3,-0.4 -0.3,-0.3 -0.4,-0.3 -0.3,-0.4 -0.4,-0.2 -0.4,-0.3 -0.3,-0.2 -0.4,-0.2 -0.5,-0.2 -0.4,-0.2 -0.4,-0.2 -0.5,-0.1 -0.4,-0.1 -0.5,-0.1 -0.4,-0.1 h -0.5 -0.4 -452.2 v 0 h -0.5 -0.4 l -0.5,0.1 -0.4,0.1 -0.5,0.1 -0.4,0.1 -0.5,0.2 -0.4,0.1 -0.4,0.2 -0.4,0.3 -0.4,0.2 -0.4,0.2 -0.4,0.3 -0.3,0.3 -0.3,0.3 -0.3,0.4 -0.4,0.3 -0.2,0.4 -0.3,0.4 -0.2,0.4 -0.2,0.4 -0.2,0.4 -0.2,0.4 -0.2,0.4 -0.1,0.5 -0.1,0.4 -0.1,0.5 -0.1,0.4 v 0.5 0.5 z m 0,8.8 z M 561.1,164 Z"
           inkscape:connector-curvature="0" /><g
           id="g28"><path
             id="path30"
             style="fill:none;stroke:#000000;stroke-width:0.99049997;stroke-linecap:butt;stroke-linejoin:miter;stroke-miterlimit:7.66129017;stroke-dasharray:none;stroke-opacity:1"
             d="m 91.4,271.2 v 0 0.5 0.4 l 0.1,0.5 0.1,0.4 0.1,0.5 0.1,0.4 0.2,0.4 0.2,0.5 0.2,0.4 0.2,0.4 0.2,0.4 0.3,0.4 0.2,0.3 0.4,0.4 0.3,0.3 0.3,0.3 0.3,0.3 0.4,0.3 0.4,0.3 0.4,0.2 0.4,0.2 0.4,0.2 0.4,0.2 0.5,0.2 0.4,0.1 0.5,0.1 0.4,0.1 h 0.5 l 0.4,0.1 h 0.5 452.1 v 0 h 0.5 l 0.4,-0.1 h 0.5 l 0.4,-0.1 0.5,-0.1 0.5,-0.1 0.4,-0.2 0.4,-0.2 0.4,-0.2 0.4,-0.2 0.4,-0.2 0.4,-0.3 0.4,-0.3 0.3,-0.3 0.3,-0.3 0.4,-0.3 0.3,-0.4 0.2,-0.3 0.3,-0.4 0.2,-0.4 0.3,-0.4 0.2,-0.4 0.1,-0.5 0.2,-0.4 0.1,-0.4 0.1,-0.5 0.1,-0.4 0.1,-0.5 v -0.4 -0.5 -98.4 0 -0.5 -0.4 l -0.1,-0.5 -0.1,-0.4 -0.1,-0.5 -0.1,-0.4 -0.1,-0.5 -0.2,-0.4 -0.2,-0.4 -0.2,-0.4 -0.3,-0.4 -0.2,-0.4 -0.3,-0.3 -0.3,-0.4 -0.3,-0.3 -0.4,-0.3 -0.3,-0.4 -0.4,-0.2 -0.4,-0.3 -0.3,-0.2 -0.4,-0.2 -0.5,-0.2 -0.4,-0.2 -0.4,-0.2 -0.5,-0.1 -0.4,-0.1 -0.5,-0.1 -0.4,-0.1 h -0.5 -0.4 -452.2 v 0 h -0.5 -0.4 l -0.5,0.1 -0.4,0.1 -0.5,0.1 -0.4,0.1 -0.5,0.2 -0.4,0.1 -0.4,0.2 -0.4,0.3 -0.4,0.2 -0.4,0.2 -0.4,0.3 -0.3,0.3 -0.3,0.3 -0.3,0.4 -0.4,0.3 -0.2,0.4 -0.3,0.4 -0.2,0.4 -0.2,0.4 -0.2,0.4 -0.2,0.4 -0.2,0.4 -0.1,0.5 -0.1,0.4 -0.1,0.5 -0.1,0.4 v 0.5 0.5 z"
             inkscape:connector-curvature="0" /></g><g
           id="g32"><path
             id="path34"
             style="fill:none;stroke:#000000;stroke-width:0.99049997;stroke-linecap:butt;stroke-linejoin:miter;stroke-miterlimit:7.66129017;stroke-dasharray:none;stroke-opacity:1"
             d="M 91.4,280 Z"
             inkscape:connector-curvature="0" /></g><g
           id="g36"><path
             id="path38"
             style="fill:none;stroke:#000000;stroke-width:0.99049997;stroke-linecap:butt;stroke-linejoin:miter;stroke-miterlimit:7.66129017;stroke-dasharray:none;stroke-opacity:1"
             d="M 561.1,164 Z"
             inkscape:connector-curvature="0" /></g><g
           id="g40"><text
             id="text44"
             style="font-variant:normal;font-weight:bold;font-size:18px;font-family:Carlito;-inkscape-font-specification:Carlito-Bold;writing-mode:lr-tb;fill:#000000;fill-opacity:1;fill-rule:nonzero;stroke:none"
             transform="matrix(1,0,0,-1,129.5,248)"><tspan
               id="tspan42"
               y="0"
               x="0 7.3979998 17.082001 26.676001 36.18 42.462002 51.444 60.551998 65.232002 69.318001 78.912003 83.304001 92.987999 100.566 109.17 113.562 122.742 132.336 139.51801 148.5 154.09801 161.802 170.91 175.59 184.698 189.37801 198.48599 206.19 211.78799 216.468 220.554 230.14799 234.53999 241.722 251.31599 258.49799 267.48001 271.56601 277.254 284.85001 293.95801 298.638 307.746 312.42599 321.534 329.23801">count=3, blocklens=(/2,2,1/), disps= (/0,3,9/)</tspan></text>
</g><g
           id="g46"><text
             id="text50"
             style="font-variant:normal;font-weight:bold;font-size:18px;font-family:Carlito;-inkscape-font-specification:Carlito-Bold;writing-mode:lr-tb;fill:#000000;fill-opacity:1;fill-rule:nonzero;stroke:none"
             transform="matrix(1,0,0,-1,122.6,219.8)"><tspan
               id="tspan48"
               y="0"
               x="0 6.1919999 14.688 24.282 33.372002">types</tspan></text>
</g><g
           id="g52"><text
             id="text56"
             style="font-variant:normal;font-weight:bold;font-size:18px;font-family:Carlito;-inkscape-font-specification:Carlito-Bold;writing-mode:lr-tb;fill:#000000;fill-opacity:1;fill-rule:nonzero;stroke:none"
             transform="matrix(1,0,0,-1,110.9,179.4)"><tspan
               id="tspan54"
               y="0"
               x="0 9.5939999 18.594 32.076 38.268002 46.764 56.358002">newtype</tspan></text>
</g><path
           id="path58"
           style="fill:#408000;fill-opacity:1;fill-rule:evenodd;stroke:none"
           d="m 225.7,213.2 h -16.8 v 28.1 h 33.7 v -28.1 z"
           inkscape:connector-curvature="0" /><g
           id="g60"><path
             id="path62"
             style="fill:none;stroke:#000000;stroke-width:3.99029994;stroke-linecap:butt;stroke-linejoin:miter;stroke-miterlimit:7.66129017;stroke-dasharray:none;stroke-opacity:1"
             d="m 225.7,213.2 h -16.8 v 28.1 h 33.7 v -28.1 z"
             inkscape:connector-curvature="0" /></g><path
           id="path64"
           style="fill:#408000;fill-opacity:1;fill-rule:evenodd;stroke:none"
           d="m 225.7,172.8 h -16.8 v 28.1 h 33.7 v -28.1 z"
           inkscape:connector-curvature="0" /><g
           id="g66"><path
             id="path68"
             style="fill:none;stroke:#000000;stroke-width:3.99029994;stroke-linecap:butt;stroke-linejoin:miter;stroke-miterlimit:7.66129017;stroke-dasharray:none;stroke-opacity:1"
             d="m 225.7,172.8 h -16.8 v 28.1 h 33.7 v -28.1 z"
             inkscape:connector-curvature="0" /></g><path
           id="path70"
           style="fill:#408000;fill-opacity:1;fill-rule:evenodd;stroke:none"
           d="m 259.5,172.8 h -16.9 v 28.1 h 33.7 v -28.1 z"
           inkscape:connector-curvature="0" /><g
           id="g72"><path
             id="path74"
             style="fill:none;stroke:#000000;stroke-width:3.99029994;stroke-linecap:butt;stroke-linejoin:miter;stroke-miterlimit:7.66129017;stroke-dasharray:none;stroke-opacity:1"
             d="m 259.5,172.8 h -16.9 v 28.1 h 33.7 v -28.1 z"
             inkscape:connector-curvature="0" /></g><path
           id="path76"
           style="fill:#ffffff;fill-opacity:1;fill-rule:evenodd;stroke:none"
           d="M 291.8,172.8 H 275 v 28.1 h 33.7 v -28.1 z"
           inkscape:connector-curvature="0" /><g
           id="g78"><path
             id="path80"
             style="fill:none;stroke:#000000;stroke-width:3.99029994;stroke-linecap:butt;stroke-linejoin:miter;stroke-miterlimit:7.66129017;stroke-dasharray:none;stroke-opacity:1"
             d="M 291.8,172.8 H 275 v 28.1 h 33.7 v -28.1 z"
             inkscape:connector-curvature="0" /></g><path
           id="path82"
           style="fill:#ffff00;fill-opacity:1;fill-rule:evenodd;stroke:none"
           d="m 293.2,213.2 h -16.9 v 28.1 h 33.8 v -28.1 z"
           inkscape:connector-curvature="0" /><g
           id="g84"><path
             id="path86"
             style="fill:none;stroke:#000000;stroke-width:3.99029994;stroke-linecap:butt;stroke-linejoin:miter;stroke-miterlimit:7.66129017;stroke-dasharray:none;stroke-opacity:1"
             d="m 293.2,213.2 h -16.9 v 28.1 h 33.8 v -28.1 z"
             inkscape:connector-curvature="0" /></g><path
           id="path88"
           style="fill:#ffffff;fill-opacity:1;fill-rule:evenodd;stroke:none"
           d="m 460.6,172.8 h -16.9 v 28.1 h 33.8 v -28.1 z"
           inkscape:connector-curvature="0" /><g
           id="g90"><path
             id="path92"
             style="fill:none;stroke:#000000;stroke-width:3.99029994;stroke-linecap:butt;stroke-linejoin:miter;stroke-miterlimit:7.66129017;stroke-dasharray:none;stroke-opacity:1"
             d="m 460.6,172.8 h -16.9 v 28.1 h 33.8 v -28.1 z"
             inkscape:connector-curvature="0" /></g><path
           id="path94"
           style="fill:#ffffff;fill-opacity:1;fill-rule:evenodd;stroke:none"
           d="m 495,172.8 h -16.8 v 28.1 h 33.7 v -28.1 z"
           inkscape:connector-curvature="0" /><g
           id="g96"><path
             id="path98"
             style="fill:none;stroke:#000000;stroke-width:3.99029994;stroke-linecap:butt;stroke-linejoin:miter;stroke-miterlimit:7.66129017;stroke-dasharray:none;stroke-opacity:1"
             d="m 495,172.8 h -16.8 v 28.1 h 33.7 v -28.1 z"
             inkscape:connector-curvature="0" /></g><path
           id="path100"
           style="fill:#ffff00;fill-opacity:1;fill-rule:evenodd;stroke:none"
           d="m 327,213.2 h -16.9 v 28.1 h 33.7 v -28.1 z"
           inkscape:connector-curvature="0" /><g
           id="g102"><path
             id="path104"
             style="fill:none;stroke:#000000;stroke-width:3.99029994;stroke-linecap:butt;stroke-linejoin:miter;stroke-miterlimit:7.66129017;stroke-dasharray:none;stroke-opacity:1"
             d="m 327,213.2 h -16.9 v 28.1 h 33.7 v -28.1 z"
             inkscape:connector-curvature="0" /></g><path
           id="path106"
           style="fill:#ffff00;fill-opacity:1;fill-rule:evenodd;stroke:none"
           d="m 325.6,172.8 h -16.9 v 28.1 h 33.8 v -28.1 z"
           inkscape:connector-curvature="0" /><g
           id="g108"><path
             id="path110"
             style="fill:none;stroke:#000000;stroke-width:3.99029994;stroke-linecap:butt;stroke-linejoin:miter;stroke-miterlimit:7.66129017;stroke-dasharray:none;stroke-opacity:1"
             d="m 325.6,172.8 h -16.9 v 28.1 h 33.8 v -28.1 z"
             inkscape:connector-curvature="0" /></g><path
           id="path112"
           style="fill:#ffff00;fill-opacity:1;fill-rule:evenodd;stroke:none"
           d="m 359.3,172.8 h -16.8 v 28.1 h 33.7 v -28.1 z"
           inkscape:connector-curvature="0" /><g
           id="g114"><path
             id="path116"
             style="fill:none;stroke:#000000;stroke-width:3.99029994;stroke-linecap:butt;stroke-linejoin:miter;stroke-miterlimit:7.66129017;stroke-dasharray:none;stroke-opacity:1"
             d="m 359.3,172.8 h -16.8 v 28.1 h 33.7 v -28.1 z"
             inkscape:connector-curvature="0" /></g><path
           id="path118"
           style="fill:#ffff00;fill-opacity:1;fill-rule:evenodd;stroke:none"
           d="m 393.8,172.8 h -16.9 v 28.1 h 33.8 v -28.1 z"
           inkscape:connector-curvature="0" /><g
           id="g120"><path
             id="path122"
             style="fill:none;stroke:#000000;stroke-width:3.99029994;stroke-linecap:butt;stroke-linejoin:miter;stroke-miterlimit:7.66129017;stroke-dasharray:none;stroke-opacity:1"
             d="m 393.8,172.8 h -16.9 v 28.1 h 33.8 v -28.1 z"
             inkscape:connector-curvature="0" /></g><path
           id="path124"
           style="fill:#ffff00;fill-opacity:1;fill-rule:evenodd;stroke:none"
           d="m 427.5,172.8 h -16.8 v 28.1 h 33.7 v -28.1 z"
           inkscape:connector-curvature="0" /><g
           id="g126"><path
             id="path128"
             style="fill:none;stroke:#000000;stroke-width:3.99029994;stroke-linecap:butt;stroke-linejoin:miter;stroke-miterlimit:7.66129017;stroke-dasharray:none;stroke-opacity:1"
             d="m 427.5,172.8 h -16.8 v 28.1 h 33.7 v -28.1 z"
             inkscape:connector-curvature="0" /></g><path
           id="path130"
           style="fill:#ff0000;fill-opacity:1;fill-rule:evenodd;stroke:none"
           d="m 530.2,172.8 h -16.8 v 28.1 h 33.7 v -28.1 z"
           inkscape:connector-curvature="0" /><g
           id="g132"><path
             id="path134"
             style="fill:none;stroke:#000000;stroke-width:3.99029994;stroke-linecap:butt;stroke-linejoin:miter;stroke-miterlimit:7.66129017;stroke-dasharray:none;stroke-opacity:1"
             d="m 530.2,172.8 h -16.8 v 28.1 h 33.7 v -28.1 z"
             inkscape:connector-curvature="0" /></g><path
           id="path136"
           style="fill:#ff0000;fill-opacity:1;fill-rule:evenodd;stroke:none"
           d="m 393.2,213.2 h -16.9 v 28.1 H 410 v -28.1 z"
           inkscape:connector-curvature="0" /><g
           id="g138"><path
             id="path140"
             style="fill:none;stroke:#000000;stroke-width:3.99029994;stroke-linecap:butt;stroke-linejoin:miter;stroke-miterlimit:7.66129017;stroke-dasharray:none;stroke-opacity:1"
             d="m 393.2,213.2 h -16.9 v 28.1 H 410 v -28.1 z"
             inkscape:connector-curvature="0" /></g></g></g></g></svg>