<?xml version="1.0" encoding="UTF-8" standalone="no"?>
<svg
   xmlns:dc="http://purl.org/dc/elements/1.1/"
   xmlns:cc="http://creativecommons.org/ns#"
   xmlns:rdf="http://www.w3.org/1999/02/22-rdf-syntax-ns#"
   xmlns:svg="http://www.w3.org/2000/svg"
   xmlns="http://www.w3.org/2000/svg"
   xmlns:sodipodi="http://sodipodi.sourceforge.net/DTD/sodipodi-0.dtd"
   xmlns:inkscape="http://www.inkscape.org/namespaces/inkscape"
   viewBox="0 0 752.42483 247.02373"
   height="247.02373"
   width="752.42487"
   xml:space="preserve"
   id="svg2"
   version="1.1"
   sodipodi:docname="io_layers.svg"
   inkscape:version="0.92.2 (5c3e80d, 2017-08-06)"><sodipodi:namedview
     pagecolor="#ffffff"
     bordercolor="#666666"
     borderopacity="1"
     objecttolerance="10"
     gridtolerance="10"
     guidetolerance="10"
     inkscape:pageopacity="0"
     inkscape:pageshadow="2"
     inkscape:window-width="1920"
     inkscape:window-height="1043"
     id="namedview1302"
     showgrid="false"
     fit-margin-top="0"
     fit-margin-left="0"
     fit-margin-right="0"
     fit-margin-bottom="0"
     inkscape:zoom="0.84139767"
     inkscape:cx="374.53506"
     inkscape:cy="83.690154"
     inkscape:window-x="0"
     inkscape:window-y="0"
     inkscape:window-maximized="1"
     inkscape:current-layer="g14" /><metadata
     id="metadata8"><rdf:RDF><cc:Work
         rdf:about=""><dc:format>image/svg+xml</dc:format><dc:type
           rdf:resource="http://purl.org/dc/dcmitype/StillImage" /></cc:Work></rdf:RDF></metadata><defs
     id="defs6"><clipPath
       id="clipPath18"
       clipPathUnits="userSpaceOnUse"><path
         style="clip-rule:evenodd"
         id="path16"
         d="M 0,-0.2 H 793.6 V 595 H 0 Z"
         inkscape:connector-curvature="0" /></clipPath><clipPath
       id="clipPath104"
       clipPathUnits="userSpaceOnUse"><path
         id="path102"
         d="M 461.3,250.1 H 655.5 V 285 H 461.3 Z"
         inkscape:connector-curvature="0" /></clipPath><clipPath
       id="clipPath174"
       clipPathUnits="userSpaceOnUse"><path
         id="path172"
         d="m 385,357.9 h 264.8 v 34.9 H 385 Z"
         inkscape:connector-curvature="0" /></clipPath></defs><g
     transform="matrix(1.3333333,0,0,-1.3333333,-121.53229,580.53319)"
     id="g10"><g
       id="g12"><g
         clip-path="url(#clipPath18)"
         id="g14"><g
           id="g22" /><g
           id="g24" /><path
           id="path26"
           style="fill:#f2f2f2;fill-opacity:1;fill-rule:evenodd;stroke:none"
           d="M 396.9,285.5 H 325 v 63.2 h 143.7 v -63.2 z"
           inkscape:connector-curvature="0" /><g
           id="g28"><path
             id="path30"
             style="fill:none;stroke:#000000;stroke-width:2.99979997;stroke-linecap:butt;stroke-linejoin:miter;stroke-miterlimit:7.66129017;stroke-dasharray:none;stroke-opacity:1"
             d="M 396.9,285.5 H 325 v 63.2 h 143.7 v -63.2 z"
             inkscape:connector-curvature="0" /></g><g
           id="g32"><text
             id="text36"
             style="font-variant:normal;font-weight:normal;font-size:18px;font-family:Carlito;-inkscape-font-specification:Carlito;writing-mode:lr-tb;fill:#000000;fill-opacity:1;fill-rule:nonzero;stroke:none"
             transform="matrix(1,0,0,-1,366.3,309.9)"><tspan
               id="tspan34"
               y="0"
               x="0 15.39 24.587999 29.177999 33.174 37.764 44.748001">MPI I/O</tspan></text>
</g><path
           id="path38"
           style="fill:#f2f2f2;fill-opacity:1;fill-rule:evenodd;stroke:none"
           d="M 332.1,255.8 H 195.7 v 29.7 h 272.8 v -29.7 z"
           inkscape:connector-curvature="0" /><g
           id="g40"><path
             id="path42"
             style="fill:none;stroke:#000000;stroke-width:2.99979997;stroke-linecap:butt;stroke-linejoin:miter;stroke-miterlimit:7.66129017;stroke-dasharray:none;stroke-opacity:1"
             d="M 332.1,255.8 H 195.7 v 29.7 h 272.8 v -29.7 z"
             inkscape:connector-curvature="0" /></g><g
           id="g44"><text
             id="text48"
             style="font-variant:normal;font-weight:normal;font-size:18px;font-family:Carlito;-inkscape-font-specification:Carlito;writing-mode:lr-tb;fill:#000000;fill-opacity:1;fill-rule:nonzero;stroke:none"
             transform="matrix(1,0,0,-1,262.4,263.5)"><tspan
               id="tspan46">Parallel file system </tspan></text>
</g><path
           id="path50"
           style="fill:#f2f2f2;fill-opacity:1;fill-rule:evenodd;stroke:none"
           d="m 262,285.5 h -66.3 v 63.2 h 132.5 v -63.2 z"
           inkscape:connector-curvature="0" /><g
           id="g52"><path
             id="path54"
             style="fill:none;stroke:#000000;stroke-width:2.99979997;stroke-linecap:butt;stroke-linejoin:miter;stroke-miterlimit:7.66129017;stroke-dasharray:none;stroke-opacity:1"
             d="m 262,285.5 h -66.3 v 63.2 h 132.5 v -63.2 z"
             inkscape:connector-curvature="0" /></g><g
           id="g56"><text
             id="text60"
             style="font-variant:normal;font-weight:normal;font-size:18px;font-family:Carlito;-inkscape-font-specification:Carlito;writing-mode:lr-tb;fill:#000000;fill-opacity:1;fill-rule:nonzero;stroke:none"
             transform="matrix(1,0,0,-1,209.4,309.9)"><tspan
               id="tspan58"
               y="0"
               x="0 9.2880001 21.096001 29.375999 33.966 43.271999 47.358002 54.054001 62.153999 69.227997 76.625999 85.230003 89.334 93.438004">POSIX syscalls</tspan></text>
</g><path
           id="path62"
           style="fill:#f2f2f2;fill-opacity:1;fill-rule:evenodd;stroke:none"
           d="M 332.1,348.4 H 195.7 v 85.5 h 272.8 v -85.5 z"
           inkscape:connector-curvature="0" /><g
           id="g64"><path
             id="path66"
             style="fill:none;stroke:#000000;stroke-width:2.99979997;stroke-linecap:butt;stroke-linejoin:miter;stroke-miterlimit:7.66129017;stroke-dasharray:none;stroke-opacity:1"
             d="M 332.1,348.4 H 195.7 v 85.5 h 272.8 v -85.5 z"
             inkscape:connector-curvature="0" /></g><g
           id="g68"><text
             id="text72"
             style="font-variant:normal;font-weight:normal;font-size:18px;font-family:Carlito;-inkscape-font-specification:Carlito;writing-mode:lr-tb;fill:#000000;fill-opacity:1;fill-rule:nonzero;stroke:none"
             transform="matrix(1,0,0,-1,285.1,415.9)"><tspan
               id="tspan70"
               y="0"
               x="0 10.404 19.889999 29.375999 33.48 37.476002 44.981998 53.388 63.396 72.882004 82.367996">Applicatons</tspan></text>
</g><g
           id="g74"><text
             id="text78"
             style="font-variant:normal;font-weight:bold;font-size:18px;font-family:Carlito;-inkscape-font-specification:Carlito-Bold;writing-mode:lr-tb;fill:#000000;fill-opacity:1;fill-rule:nonzero;stroke:none"
             transform="matrix(1,0,0,-1,90.7,390.2)"><tspan
               id="tspan76"
               y="0"
               x="0 11.376 15.768 24.264 33.858002 39.438 43.830002 52.830002 61.236 70.325996">High-level</tspan></text>
</g><g
           id="g80"><text
             id="text84"
             style="font-variant:normal;font-weight:bold;font-size:18px;font-family:Carlito;-inkscape-font-specification:Carlito-Bold;writing-mode:lr-tb;fill:#000000;fill-opacity:1;fill-rule:nonzero;stroke:none"
             transform="matrix(1,0,0,-1,90.4,321.5)"><tspan
               id="tspan82"
               y="0"
               x="0 4.7880001 14.292 20.285999 29.375999 35.765999 50.363998 59.543999 69.047997 73.529999 82.223999 88.325996">Intermediate</tspan></text>
</g><g
           id="g86"><text
             id="text90"
             style="font-variant:normal;font-weight:bold;font-size:18px;font-family:Carlito;-inkscape-font-specification:Carlito-Bold;writing-mode:lr-tb;fill:#000000;fill-opacity:1;fill-rule:nonzero;stroke:none"
             transform="matrix(1,0,0,-1,90.4,299.9)"><tspan
               id="tspan88"
               y="0"
               x="0 4.4819999 13.482 21.888 30.978001">level</tspan></text>
</g><g
           id="g92"><text
             id="text96"
             style="font-variant:normal;font-weight:bold;font-size:18px;font-family:Carlito;-inkscape-font-specification:Carlito-Bold;writing-mode:lr-tb;fill:#000000;fill-opacity:1;fill-rule:nonzero;stroke:none"
             transform="matrix(1,0,0,-1,90.2,264.8)"><tspan
               id="tspan94"
               y="0"
               x="0 7.3080001 16.902 30.204 35.712002 40.104 49.104 57.509998 66.599998">Low-level</tspan></text>
</g><g
           id="g98"><g
             id="g100" /><g
             id="g128"><g
               style="opacity:0.35"
               id="g126"
               clip-path="url(#clipPath104)"><path
                 id="path106"
                 style="fill:#000000;fill-opacity:1;fill-rule:evenodd;stroke:none"
                 d="m 502,284.5 h 25.5 v 0 h 38.2 89.4 v -5.6 0 -8.6 -19.8 h -89.4 -38.2 v 0 H 502 v 19.8 l -40.4,-1 40.4,9.6 z m 0,0 z m 153.1,-34 z"
                 inkscape:connector-curvature="0" /><g
                 id="g110"><path
                   id="path108"
                   style="fill:none;stroke:#000000;stroke-width:0.73580003;stroke-linecap:butt;stroke-linejoin:round;stroke-miterlimit:10;stroke-dasharray:none;stroke-opacity:1"
                   d="m 502,284.5 h 25.5 v 0 h 38.2 89.4 v -5.6 0 -8.6 -19.8 h -89.4 -38.2 v 0 H 502 v 19.8 l -40.4,-1 40.4,9.6 z"
                   inkscape:connector-curvature="0" /></g><g
                 id="g114"><path
                   id="path112"
                   style="fill:none;stroke:#000000;stroke-width:0.73580003;stroke-linecap:butt;stroke-linejoin:round;stroke-miterlimit:10;stroke-dasharray:none;stroke-opacity:1"
                   d="M 502,284.5 Z"
                   inkscape:connector-curvature="0" /></g><g
                 id="g118"><path
                   id="path116"
                   style="fill:none;stroke:#000000;stroke-width:0.73580003;stroke-linecap:butt;stroke-linejoin:round;stroke-miterlimit:10;stroke-dasharray:none;stroke-opacity:1"
                   d="M 655.1,250.5 Z"
                   inkscape:connector-curvature="0" /></g><g
                 id="g124"><text
                   id="text122"
                   style="font-variant:normal;font-weight:normal;font-size:18px;font-family:Carlito;-inkscape-font-specification:Carlito;writing-mode:lr-tb;fill:#000000;fill-opacity:1;fill-rule:nonzero;stroke:none"
                   transform="matrix(1,0,0,-1,524.3,260.3)"><tspan
                     id="tspan120"
                     y="0"
                     x="0 7.506 16.992001 23.796 29.790001 35.891998 44.784 49.265999 53.352001 64.727997 73.926003 82.026001 90.234001 94.716003 99.216003 103.806">Lustre, GPFS,...</tspan></text>
</g></g></g></g><path
           id="path130"
           style="fill:#939fa8;fill-opacity:1;fill-rule:evenodd;stroke:none"
           d="m 502,286.3 h 25.5 v 0 h 38.2 89.4 v -5.6 0 -8.5 -19.9 h -89.4 -38.2 v 0 H 502 v 19.9 l -40.4,-1.1 40.4,9.6 z m 0,0 z m 153.1,-34 z"
           inkscape:connector-curvature="0" /><g
           id="g132"><path
             id="path134"
             style="fill:none;stroke:#505b63;stroke-width:0.73580003;stroke-linecap:butt;stroke-linejoin:round;stroke-miterlimit:10;stroke-dasharray:none;stroke-opacity:1"
             d="m 502,286.3 h 25.5 v 0 h 38.2 89.4 v -5.6 0 -8.5 -19.9 h -89.4 -38.2 v 0 H 502 v 19.9 l -40.4,-1.1 40.4,9.6 z"
             inkscape:connector-curvature="0" /></g><g
           id="g136"><path
             id="path138"
             style="fill:none;stroke:#505b63;stroke-width:0.73580003;stroke-linecap:butt;stroke-linejoin:round;stroke-miterlimit:10;stroke-dasharray:none;stroke-opacity:1"
             d="M 502,286.3 Z"
             inkscape:connector-curvature="0" /></g><g
           id="g140"><path
             id="path142"
             style="fill:none;stroke:#505b63;stroke-width:0.73580003;stroke-linecap:butt;stroke-linejoin:round;stroke-miterlimit:10;stroke-dasharray:none;stroke-opacity:1"
             d="M 655.1,252.3 Z"
             inkscape:connector-curvature="0" /></g><g
           id="g144"><text
             id="text148"
             style="font-variant:normal;font-weight:normal;font-size:18px;font-family:Carlito;-inkscape-font-specification:Carlito;writing-mode:lr-tb;fill:#000000;fill-opacity:1;fill-rule:nonzero;stroke:none"
             transform="matrix(1,0,0,-1,524.3,262.1)"><tspan
               id="tspan146"
               y="0"
               x="0 7.506 16.992001 23.796 29.790001 35.891998 44.784 49.265999 53.352001 64.727997 73.926003 82.026001 90.234001 94.716003 99.216003 103.806">Lustre, GPFS,...</tspan></text>
</g><path
           id="path150"
           style="fill:#f2f2f2;fill-opacity:1;fill-rule:evenodd;stroke:none"
           d="m 336.2,348.3 h -83.7 v 55.5 h 167.3 v -55.5 z"
           inkscape:connector-curvature="0" /><g
           id="g152"><path
             id="path154"
             style="fill:none;stroke:#000000;stroke-width:2.99979997;stroke-linecap:butt;stroke-linejoin:miter;stroke-miterlimit:7.66129017;stroke-dasharray:none;stroke-opacity:1"
             d="m 336.2,348.3 h -83.7 v 55.5 h 167.3 v -55.5 z"
             inkscape:connector-curvature="0" /></g><g
           id="g156"><text
             id="text160"
             style="font-variant:normal;font-weight:normal;font-size:18px;font-family:Carlito;-inkscape-font-specification:Carlito;writing-mode:lr-tb;fill:#000000;fill-opacity:1;fill-rule:nonzero;stroke:none"
             transform="matrix(1,0,0,-1,284.5,379.7)"><tspan
               id="tspan158"
               y="0"
               x="0 11.196 15.3 23.778 33.264 37.259998 41.363998 50.256001 58.158001 67.139999 71.244003 75.330002 79.830002 86.814003 98.711998">High level I/O </tspan></text>
</g><g
           id="g162"><text
             id="text166"
             style="font-variant:normal;font-weight:normal;font-size:18px;font-family:Carlito;-inkscape-font-specification:Carlito;writing-mode:lr-tb;fill:#000000;fill-opacity:1;fill-rule:nonzero;stroke:none"
             transform="matrix(1,0,0,-1,302.9,358.1)"><tspan
               id="tspan164"
               y="0"
               x="0 7.5780001 11.574 21.059999 26.964001 35.568001 41.759998 45.863998 54.846001">Libraries</tspan></text>
</g><g
           id="g168"><g
             id="g170" /><g
             id="g198"><g
               style="opacity:0.35"
               id="g196"
               clip-path="url(#clipPath174)"><path
                 id="path176"
                 style="fill:#000000;fill-opacity:1;fill-rule:evenodd;stroke:none"
                 d="m 496.3,392.3 h 25.5 v 0 h 38.3 89.3 v -19.9 0 -8.5 -5.6 h -89.3 -38.3 v 0 h -25.5 v 5.6 l -111,7.5 111,1 z m 0,0 z m 153.1,-34 z"
                 inkscape:connector-curvature="0" /><g
                 id="g180"><path
                   id="path178"
                   style="fill:none;stroke:#000000;stroke-width:0.73580003;stroke-linecap:butt;stroke-linejoin:round;stroke-miterlimit:10;stroke-dasharray:none;stroke-opacity:1"
                   d="m 496.3,392.3 h 25.5 v 0 h 38.3 89.3 v -19.9 0 -8.5 -5.6 h -89.3 -38.3 v 0 h -25.5 v 5.6 l -111,7.5 111,1 z"
                   inkscape:connector-curvature="0" /></g><g
                 id="g184"><path
                   id="path182"
                   style="fill:none;stroke:#000000;stroke-width:0.73580003;stroke-linecap:butt;stroke-linejoin:round;stroke-miterlimit:10;stroke-dasharray:none;stroke-opacity:1"
                   d="M 496.3,392.3 Z"
                   inkscape:connector-curvature="0" /></g><g
                 id="g188"><path
                   id="path186"
                   style="fill:none;stroke:#000000;stroke-width:0.73580003;stroke-linecap:butt;stroke-linejoin:round;stroke-miterlimit:10;stroke-dasharray:none;stroke-opacity:1"
                   d="M 649.4,358.3 Z"
                   inkscape:connector-curvature="0" /></g><g
                 id="g194"><text
                   id="text192"
                   style="font-variant:normal;font-weight:normal;font-size:18px;font-family:Carlito;-inkscape-font-specification:Carlito;writing-mode:lr-tb;fill:#000000;fill-opacity:1;fill-rule:nonzero;stroke:none"
                   transform="matrix(1,0,0,-1,512.9,368.1)"><tspan
                     id="tspan190"
                     y="0"
                     x="0 11.196 22.194 30.474001 39.582001 44.063999 48.060001 59.742001 68.543999 74.538002 84.132004 95.220001 101.718 106.11 110.7 115.2">HDF5, NetCDF,...</tspan></text>
</g></g></g></g><path
           id="path200"
           style="fill:#939fa8;fill-opacity:1;fill-rule:evenodd;stroke:none"
           d="m 496.3,394.1 h 25.5 v 0 h 38.3 89.3 v -19.9 0 -8.5 -5.6 h -89.3 -38.3 v 0 h -25.5 v 5.6 l -111,7.5 111,1 z m 0,0 z m 153.1,-34 z"
           inkscape:connector-curvature="0" /><g
           id="g202"><path
             id="path204"
             style="fill:none;stroke:#505b63;stroke-width:0.73580003;stroke-linecap:butt;stroke-linejoin:round;stroke-miterlimit:10;stroke-dasharray:none;stroke-opacity:1"
             d="m 496.3,394.1 h 25.5 v 0 h 38.3 89.3 v -19.9 0 -8.5 -5.6 h -89.3 -38.3 v 0 h -25.5 v 5.6 l -111,7.5 111,1 z"
             inkscape:connector-curvature="0" /></g><g
           id="g206"><path
             id="path208"
             style="fill:none;stroke:#505b63;stroke-width:0.73580003;stroke-linecap:butt;stroke-linejoin:round;stroke-miterlimit:10;stroke-dasharray:none;stroke-opacity:1"
             d="M 496.3,394.1 Z"
             inkscape:connector-curvature="0" /></g><g
           id="g210"><path
             id="path212"
             style="fill:none;stroke:#505b63;stroke-width:0.73580003;stroke-linecap:butt;stroke-linejoin:round;stroke-miterlimit:10;stroke-dasharray:none;stroke-opacity:1"
             d="M 649.4,360.1 Z"
             inkscape:connector-curvature="0" /></g><g
           id="g214"><text
             id="text218"
             style="font-variant:normal;font-weight:normal;font-size:18px;font-family:Carlito;-inkscape-font-specification:Carlito;writing-mode:lr-tb;fill:#000000;fill-opacity:1;fill-rule:nonzero;stroke:none"
             transform="matrix(1,0,0,-1,512.9,369.9)"><tspan
               id="tspan216"
               y="0"
               x="0 11.196 22.194 30.474001 39.582001 44.063999 48.060001 59.742001 68.543999 74.538002 84.132004 95.220001 101.718 106.11 110.7 115.2">HDF5, NetCDF,...</tspan></text>
</g></g></g></g></svg>