<?xml version="1.0" encoding="UTF-8" standalone="no"?>
<svg
   xmlns:dc="http://purl.org/dc/elements/1.1/"
   xmlns:cc="http://creativecommons.org/ns#"
   xmlns:rdf="http://www.w3.org/1999/02/22-rdf-syntax-ns#"
   xmlns:svg="http://www.w3.org/2000/svg"
   xmlns="http://www.w3.org/2000/svg"
   xmlns:sodipodi="http://sodipodi.sourceforge.net/DTD/sodipodi-0.dtd"
   xmlns:inkscape="http://www.inkscape.org/namespaces/inkscape"
   viewBox="0 0 908.04757 106.44759"
   height="106.44759"
   width="908.04761"
   xml:space="preserve"
   id="svg2"
   version="1.1"
   sodipodi:docname="type_indexed.svg"
   inkscape:version="0.92.2 (5c3e80d, 2017-08-06)"><sodipodi:namedview
     pagecolor="#ffffff"
     bordercolor="#666666"
     borderopacity="1"
     objecttolerance="10"
     gridtolerance="10"
     guidetolerance="10"
     inkscape:pageopacity="0"
     inkscape:pageshadow="2"
     inkscape:window-width="1920"
     inkscape:window-height="1043"
     id="namedview64"
     showgrid="false"
     fit-margin-top="0"
     fit-margin-left="0"
     fit-margin-right="0"
     fit-margin-bottom="0"
     inkscape:zoom="0.41678331"
     inkscape:cx="625.95121"
     inkscape:cy="-104.67131"
     inkscape:window-x="0"
     inkscape:window-y="0"
     inkscape:window-maximized="1"
     inkscape:current-layer="g14" /><metadata
     id="metadata8"><rdf:RDF><cc:Work
         rdf:about=""><dc:format>image/svg+xml</dc:format><dc:type
           rdf:resource="http://purl.org/dc/dcmitype/StillImage" /><dc:title></dc:title></cc:Work></rdf:RDF></metadata><defs
     id="defs6"><clipPath
       id="clipPath18"
       clipPathUnits="userSpaceOnUse"><path
         style="clip-rule:evenodd"
         id="path16"
         d="M 0,-0.2 H 793.6 V 595 H 0 Z"
         inkscape:connector-curvature="0" /></clipPath></defs><g
     transform="matrix(1.3333333,0,0,-1.3333333,-39.976199,336.15712)"
     id="g10"><g
       id="g12"><g
         clip-path="url(#clipPath18)"
         id="g14"><g
           id="g22" /><g
           id="g24" /><g
           id="g26"><path
             id="path28"
             style="fill:none;stroke:#939fa8;stroke-width:2.23569989;stroke-linecap:butt;stroke-linejoin:miter;stroke-miterlimit:7.66129017;stroke-dasharray:none;stroke-opacity:1"
             d="m 31.1,245.6 v 0 0.3 l 0.1,0.3 v 0.3 0.2 l 0.1,0.3 0.1,0.3 0.1,0.2 0.1,0.3 0.1,0.2 0.1,0.3 0.2,0.2 0.1,0.3 0.2,0.2 0.2,0.2 0.2,0.2 0.2,0.2 0.2,0.2 0.2,0.1 0.3,0.2 0.2,0.2 0.2,0.1 0.3,0.1 0.3,0.1 0.2,0.1 0.3,0.1 h 0.2 l 0.3,0.1 h 0.3 l 0.3,0.1 h 0.3 668 v 0 h 0.3 l 0.3,-0.1 h 0.2 l 0.3,-0.1 h 0.3 l 0.2,-0.1 0.3,-0.1 0.2,-0.1 0.3,-0.1 0.3,-0.1 0.2,-0.2 0.2,-0.2 0.2,-0.1 0.3,-0.2 0.2,-0.2 0.2,-0.2 0.1,-0.2 0.2,-0.2 0.2,-0.3 0.1,-0.2 0.2,-0.3 0.1,-0.2 0.1,-0.3 0.1,-0.2 0.1,-0.3 v -0.3 l 0.1,-0.2 v -0.3 -0.3 -0.3 l 0.1,-66.8 v 0 -0.3 l -0.1,-0.3 v -0.3 l -0.1,-0.2 v -0.3 l -0.1,-0.3 -0.1,-0.2 -0.1,-0.3 -0.1,-0.2 -0.2,-0.3 -0.1,-0.2 -0.2,-0.3 -0.1,-0.2 -0.2,-0.2 -0.2,-0.2 -0.2,-0.2 -0.2,-0.2 -0.2,-0.1 -0.3,-0.2 -0.2,-0.2 -0.3,-0.1 -0.2,-0.1 -0.3,-0.1 -0.2,-0.1 -0.3,-0.1 -0.3,-0.1 h -0.3 -0.2 l -0.3,-0.1 h -0.3 -668 v 0 h -0.3 -0.3 l -0.3,0.1 h -0.3 l -0.2,0.1 -0.3,0.1 h -0.2 l -0.3,0.2 -0.3,0.1 -0.2,0.1 -0.2,0.2 -0.3,0.1 -0.2,0.2 -0.2,0.2 -0.2,0.2 -0.2,0.2 -0.2,0.2 -0.2,0.2 -0.1,0.2 -0.2,0.3 -0.1,0.2 -0.1,0.3 -0.1,0.2 -0.1,0.3 -0.1,0.2 -0.1,0.3 v 0.3 0.3 l -0.1,0.2 v 0.3 z"
             inkscape:connector-curvature="0" /></g><g
           id="g30"><path
             id="path32"
             style="fill:none;stroke:#939fa8;stroke-width:2.23569989;stroke-linecap:butt;stroke-linejoin:miter;stroke-miterlimit:7.66129017;stroke-dasharray:none;stroke-opacity:1"
             d="M 31.1,251 Z"
             inkscape:connector-curvature="0" /></g><g
           id="g34"><path
             id="path36"
             style="fill:none;stroke:#939fa8;stroke-width:2.23569989;stroke-linecap:butt;stroke-linejoin:miter;stroke-miterlimit:7.66129017;stroke-dasharray:none;stroke-opacity:1"
             d="M 709.9,173.4 Z"
             inkscape:connector-curvature="0" /></g><g
           id="g38"><text
             id="text42"
             style="font-variant:normal;font-weight:normal;font-size:18px;font-family:Carlito;-inkscape-font-specification:Carlito;writing-mode:lr-tb;fill:#000000;fill-opacity:1;fill-rule:nonzero;stroke:none"
             transform="matrix(1,0,0,-1,53.8,223.5)"><tspan
               id="tspan40"
               y="0"
               x="0 7.506 16.992001 26.388 35.694 41.688 45.773998 54.666 58.751999">count = 3</tspan></text>
</g><g
           id="g44"><text
             id="text48"
             style="font-variant:normal;font-weight:normal;font-size:18px;font-family:Carlito;-inkscape-font-specification:Carlito;writing-mode:lr-tb;fill:#000000;fill-opacity:1;fill-rule:nonzero;stroke:none"
             transform="matrix(1,0,0,-1,53.8,199.2)"><tspan
               id="tspan46"
               y="0"
               x="0 9.4860001 13.59 23.076 30.582001 38.771999 42.875999 51.858002 61.254002 68.328003 72.414001 81.396004 85.482002 90.882004 97.776001 106.956 111.348 120.456 124.938 134.04601 140.94">blocklens = (/2,3,1/)</tspan></text>
</g><g
           id="g50"><text
             id="text54"
             style="font-variant:normal;font-weight:normal;font-size:18px;font-family:Carlito;-inkscape-font-specification:Carlito;writing-mode:lr-tb;fill:#000000;fill-opacity:1;fill-rule:nonzero;stroke:none"
             transform="matrix(1,0,0,-1,53.8,179.1)"><tspan
               id="tspan52"
               y="0"
               x="0 9.4860001 13.59 20.664 29.969999 37.043999 41.130001 50.112 54.198002 59.598 66.491997 75.599998 80.082001 89.190002 93.582001 102.762 109.656">disps = (/0,3,8/)</tspan></text>
</g><g
           id="g56"><text
             id="text60"
             style="font-variant:normal;font-weight:normal;font-size:18px;font-family:Carlito;-inkscape-font-specification:Carlito;writing-mode:lr-tb;fill:#000000;fill-opacity:1;fill-rule:nonzero;stroke:none"
             transform="matrix(1,0,0,-1,309.8,224.7)"><tspan
               id="tspan58"
               y="0"
               x="0 9.4860001 13.59 23.076 29.07 37.169998 46.655998">oldtype</tspan></text>
</g><g
           id="g62"><text
             id="text66"
             style="font-variant:normal;font-weight:normal;font-size:18px;font-family:Carlito;-inkscape-font-specification:Carlito;writing-mode:lr-tb;fill:#000000;fill-opacity:1;fill-rule:nonzero;stroke:none"
             transform="matrix(1,0,0,-1,309.2,186.8)"><tspan
               id="tspan64"
               y="0"
               x="0 9.4860001 18.378 31.266001 37.259998 45.450001 54.936001">newtype</tspan></text>
</g><path
           id="path68"
           style="fill:#408000;fill-opacity:1;fill-rule:evenodd;stroke:none"
           d="m 406.7,220.1 h -15.6 v 23.5 h 31.3 v -23.5 z"
           inkscape:connector-curvature="0" /><g
           id="g70"><path
             id="path72"
             style="fill:none;stroke:#000000;stroke-width:1.49989998;stroke-linecap:butt;stroke-linejoin:miter;stroke-miterlimit:7.66129017;stroke-dasharray:none;stroke-opacity:1"
             d="m 406.7,220.1 h -15.6 v 23.5 h 31.3 v -23.5 z"
             inkscape:connector-curvature="0" /></g><path
           id="path74"
           style="fill:#408000;fill-opacity:1;fill-rule:evenodd;stroke:none"
           d="m 405.3,182.1 h -15.6 v 23.5 H 421 v -23.5 z"
           inkscape:connector-curvature="0" /><g
           id="g76"><path
             id="path78"
             style="fill:none;stroke:#000000;stroke-width:1.49989998;stroke-linecap:butt;stroke-linejoin:miter;stroke-miterlimit:7.66129017;stroke-dasharray:none;stroke-opacity:1"
             d="m 405.3,182.1 h -15.6 v 23.5 H 421 v -23.5 z"
             inkscape:connector-curvature="0" /></g><path
           id="path80"
           style="fill:#408000;fill-opacity:1;fill-rule:evenodd;stroke:none"
           d="m 437.5,182.1 h -15.7 v 23.5 h 31.3 v -23.5 z"
           inkscape:connector-curvature="0" /><g
           id="g82"><path
             id="path84"
             style="fill:none;stroke:#000000;stroke-width:1.49989998;stroke-linecap:butt;stroke-linejoin:miter;stroke-miterlimit:7.66129017;stroke-dasharray:none;stroke-opacity:1"
             d="m 437.5,182.1 h -15.7 v 23.5 h 31.3 v -23.5 z"
             inkscape:connector-curvature="0" /></g><path
           id="path86"
           style="fill:#ffffff;fill-opacity:1;fill-rule:evenodd;stroke:none"
           d="m 469.6,182.1 h -15.7 v 23.5 h 31.4 v -23.5 z"
           inkscape:connector-curvature="0" /><g
           id="g88"><path
             id="path90"
             style="fill:none;stroke:#000000;stroke-width:1.49989998;stroke-linecap:butt;stroke-linejoin:miter;stroke-miterlimit:7.66129017;stroke-dasharray:none;stroke-opacity:1"
             d="m 469.6,182.1 h -15.7 v 23.5 h 31.4 v -23.5 z"
             inkscape:connector-curvature="0" /></g><path
           id="path92"
           style="fill:#408000;fill-opacity:1;fill-rule:evenodd;stroke:none"
           d="m 501.8,182.1 h -15.7 v 23.5 h 31.3 v -23.5 z"
           inkscape:connector-curvature="0" /><g
           id="g94"><path
             id="path96"
             style="fill:none;stroke:#000000;stroke-width:1.49989998;stroke-linecap:butt;stroke-linejoin:miter;stroke-miterlimit:7.66129017;stroke-dasharray:none;stroke-opacity:1"
             d="m 501.8,182.1 h -15.7 v 23.5 h 31.3 v -23.5 z"
             inkscape:connector-curvature="0" /></g><path
           id="path98"
           style="fill:#408000;fill-opacity:1;fill-rule:evenodd;stroke:none"
           d="m 533.9,182.1 h -15.6 v 23.5 h 31.3 v -23.5 z"
           inkscape:connector-curvature="0" /><g
           id="g100"><path
             id="path102"
             style="fill:none;stroke:#000000;stroke-width:1.49989998;stroke-linecap:butt;stroke-linejoin:miter;stroke-miterlimit:7.66129017;stroke-dasharray:none;stroke-opacity:1"
             d="m 533.9,182.1 h -15.6 v 23.5 h 31.3 v -23.5 z"
             inkscape:connector-curvature="0" /></g><path
           id="path104"
           style="fill:#408000;fill-opacity:1;fill-rule:evenodd;stroke:none"
           d="m 566.1,182.1 h -15.7 v 23.5 h 31.3 v -23.5 z"
           inkscape:connector-curvature="0" /><g
           id="g106"><path
             id="path108"
             style="fill:none;stroke:#000000;stroke-width:1.49989998;stroke-linecap:butt;stroke-linejoin:miter;stroke-miterlimit:7.66129017;stroke-dasharray:none;stroke-opacity:1"
             d="m 566.1,182.1 h -15.7 v 23.5 h 31.3 v -23.5 z"
             inkscape:connector-curvature="0" /></g><path
           id="path110"
           style="fill:#ffffff;fill-opacity:1;fill-rule:evenodd;stroke:none"
           d="m 598.2,182.1 h -15.7 v 23.5 h 31.4 v -23.5 z"
           inkscape:connector-curvature="0" /><g
           id="g112"><path
             id="path114"
             style="fill:none;stroke:#000000;stroke-width:1.49989998;stroke-linecap:butt;stroke-linejoin:miter;stroke-miterlimit:7.66129017;stroke-dasharray:none;stroke-opacity:1"
             d="m 598.2,182.1 h -15.7 v 23.5 h 31.4 v -23.5 z"
             inkscape:connector-curvature="0" /></g><path
           id="path116"
           style="fill:#ffffff;fill-opacity:1;fill-rule:evenodd;stroke:none"
           d="m 630.4,182.1 h -15.7 v 23.5 H 646 v -23.5 z"
           inkscape:connector-curvature="0" /><g
           id="g118"><path
             id="path120"
             style="fill:none;stroke:#000000;stroke-width:1.49989998;stroke-linecap:butt;stroke-linejoin:miter;stroke-miterlimit:7.66129017;stroke-dasharray:none;stroke-opacity:1"
             d="m 630.4,182.1 h -15.7 v 23.5 H 646 v -23.5 z"
             inkscape:connector-curvature="0" /></g><path
           id="path122"
           style="fill:#408000;fill-opacity:1;fill-rule:evenodd;stroke:none"
           d="m 662.5,182.1 h -15.7 v 23.5 h 31.4 v -23.5 z"
           inkscape:connector-curvature="0" /><g
           id="g124"><path
             id="path126"
             style="fill:none;stroke:#000000;stroke-width:1.49989998;stroke-linecap:butt;stroke-linejoin:miter;stroke-miterlimit:7.66129017;stroke-dasharray:none;stroke-opacity:1"
             d="m 662.5,182.1 h -15.7 v 23.5 h 31.4 v -23.5 z"
             inkscape:connector-curvature="0" /></g></g></g></g></svg>