<?xml version="1.0" encoding="UTF-8" standalone="no"?>
<svg
   xmlns:dc="http://purl.org/dc/elements/1.1/"
   xmlns:cc="http://creativecommons.org/ns#"
   xmlns:rdf="http://www.w3.org/1999/02/22-rdf-syntax-ns#"
   xmlns:svg="http://www.w3.org/2000/svg"
   xmlns="http://www.w3.org/2000/svg"
   xmlns:sodipodi="http://sodipodi.sourceforge.net/DTD/sodipodi-0.dtd"
   xmlns:inkscape="http://www.inkscape.org/namespaces/inkscape"
   viewBox="0 0 877.39211 427.33905"
   height="427.33905"
   width="877.39215"
   xml:space="preserve"
   id="svg2"
   version="1.1"
   sodipodi:docname="type_vector1.svg"
   inkscape:version="0.92.2 (5c3e80d, 2017-08-06)"><sodipodi:namedview
     pagecolor="#ffffff"
     bordercolor="#666666"
     borderopacity="1"
     objecttolerance="10"
     gridtolerance="10"
     guidetolerance="10"
     inkscape:pageopacity="0"
     inkscape:pageshadow="2"
     inkscape:window-width="640"
     inkscape:window-height="480"
     id="namedview10936"
     showgrid="false"
     inkscape:zoom="0.297479"
     inkscape:cx="466.45889"
     inkscape:cy="232.1758"
     inkscape:window-x="0"
     inkscape:window-y="28"
     inkscape:window-maximized="0"
     inkscape:current-layer="g14" /><metadata
     id="metadata8"><rdf:RDF><cc:Work
         rdf:about=""><dc:format>image/svg+xml</dc:format><dc:type
           rdf:resource="http://purl.org/dc/dcmitype/StillImage" /></cc:Work></rdf:RDF></metadata><defs
     id="defs6"><clipPath
       id="clipPath18"
       clipPathUnits="userSpaceOnUse"><path
         style="clip-rule:evenodd"
         id="path16"
         d="M 0,-0.2 H 793.6 V 595 H 0 Z"
         inkscape:connector-curvature="0" /></clipPath></defs><g
     transform="matrix(1.3333333,0,0,-1.3333333,-62.874478,591.82993)"
     id="g10"><g
       id="g12"><g
         clip-path="url(#clipPath18)"
         id="g14"><g
           id="g22" /><g
           id="g24" /><g
           id="g26"><text
             id="text30"
             style="font-variant:normal;font-weight:normal;font-size:18px;font-family:Carlito;-inkscape-font-specification:Carlito;writing-mode:lr-tb;fill:#000000;fill-opacity:1;fill-rule:nonzero;stroke:none"
             transform="matrix(1,0,0,-1,63.6,390)"><tspan
               id="tspan28"
               y="0"
               x="0 9.3959999 13.5 22.986 28.98 37.169998 46.655998">oldtype</tspan></text>
</g><g
           id="g32"><text
             id="text36"
             style="font-variant:normal;font-weight:normal;font-size:18px;font-family:Carlito;-inkscape-font-specification:Carlito;writing-mode:lr-tb;fill:#000000;fill-opacity:1;fill-rule:nonzero;stroke:none"
             transform="matrix(1,0,0,-1,59.4,346)"><tspan
               id="tspan34"
               y="0"
               x="0 9.4860001 18.378 31.356001 37.349998 45.450001 54.936001">newtype</tspan></text>
</g><g
           id="g38"><text
             id="text42"
             style="font-variant:normal;font-weight:normal;font-size:18px;font-family:'DejaVu Sans Mono';-inkscape-font-specification:DejaVuSansMono;writing-mode:lr-tb;fill:#000000;fill-opacity:1;fill-rule:nonzero;stroke:none"
             transform="matrix(1,0,0,-1,46.4,430.1)"><tspan
               id="tspan40"
               y="0"
               x="0 10.8 21.6 32.400002 43.200001 54 64.800003 75.599998 86.400002 97.199997 108 118.8 129.60001 140.39999 151.2 162 172.8 183.60001 194.39999 205.2 216 226.8 237.60001 248.39999 259.20001 270 280.79999 291.60001 302.39999 313.20001 324 334.79999 345.60001 356.39999 367.20001 378 388.79999 399.60001 410.39999 421.20001 432 442.79999 453.60001 464.39999 475.20001 486 496.79999 507.60001 518.40002 529.20001 540 550.79999 561.59998 572.40002 583.20001 594 604.79999 615.59998 626.40002 637.20001 648 658.79999">MPI_Type_vector(count = 3, blocklen = 2, stride = 3, oldtype, </tspan></text>
</g><g
           id="g44"><text
             id="text48"
             style="font-variant:normal;font-weight:normal;font-size:18px;font-family:'DejaVu Sans Mono';-inkscape-font-specification:DejaVuSansMono;writing-mode:lr-tb;fill:#000000;fill-opacity:1;fill-rule:nonzero;stroke:none"
             transform="matrix(1,0,0,-1,46.4,410)"><tspan
               id="tspan46"
               y="0"
               x="0 10.8 21.6 32.400002 43.200001 54 64.800003 75.599998">newtype)</tspan></text>
</g><g
           id="g50"><path
             id="path52"
             style="fill:none;stroke:#000000;stroke-width:2.00929999;stroke-linecap:butt;stroke-linejoin:miter;stroke-miterlimit:10;stroke-dasharray:none;stroke-opacity:1"
             d="M 146.9,329.7 414,330.2"
             inkscape:connector-curvature="0" /></g><path
           id="path54"
           style="fill:#000000;fill-opacity:1;fill-rule:evenodd;stroke:none"
           d="m 141.3,329.7 6,3 v -6 z"
           inkscape:connector-curvature="0" /><path
           id="path56"
           style="fill:#000000;fill-opacity:1;fill-rule:evenodd;stroke:none"
           d="m 419.7,330.2 -6.1,-3 v 6 z"
           inkscape:connector-curvature="0" /><g
           id="g58"><text
             id="text62"
             style="font-variant:normal;font-weight:normal;font-size:18px;font-family:Carlito;-inkscape-font-specification:Carlito;writing-mode:lr-tb;fill:#000000;fill-opacity:1;fill-rule:nonzero;stroke:none"
             transform="matrix(1,0,0,-1,268.6,311.3)"><tspan
               id="tspan60"
               y="0"
               x="0 8.6940002 16.488001 22.392 31.374001 40.571999">Extent</tspan></text>
</g><path
           id="path64"
           style="fill:#408000;fill-opacity:1;fill-rule:evenodd;stroke:none"
           d="m 162,387.4 h -16.8 v 25.2 h 33.7 v -25.2 z"
           inkscape:connector-curvature="0" /><g
           id="g66"><path
             id="path68"
             style="fill:none;stroke:#000000;stroke-width:2.23569989;stroke-linecap:butt;stroke-linejoin:round;stroke-miterlimit:10;stroke-dasharray:none;stroke-opacity:1"
             d="m 162,387.4 h -16.8 v 25.2 h 33.7 v -25.2 z"
             inkscape:connector-curvature="0" /></g><path
           id="path70"
           style="fill:#408000;fill-opacity:1;fill-rule:evenodd;stroke:none"
           d="M 161.9,341.3 H 145 v 25.3 h 33.7 v -25.3 z"
           inkscape:connector-curvature="0" /><g
           id="g72"><path
             id="path74"
             style="fill:none;stroke:#000000;stroke-width:2.23569989;stroke-linecap:butt;stroke-linejoin:round;stroke-miterlimit:10;stroke-dasharray:none;stroke-opacity:1"
             d="M 161.9,341.3 H 145 v 25.3 h 33.7 v -25.3 z"
             inkscape:connector-curvature="0" /></g><path
           id="path76"
           style="fill:#408000;fill-opacity:1;fill-rule:evenodd;stroke:none"
           d="m 196.4,341.3 h -16.9 v 25.3 h 33.7 v -25.3 z"
           inkscape:connector-curvature="0" /><g
           id="g78"><path
             id="path80"
             style="fill:none;stroke:#000000;stroke-width:2.23569989;stroke-linecap:butt;stroke-linejoin:round;stroke-miterlimit:10;stroke-dasharray:none;stroke-opacity:1"
             d="m 196.4,341.3 h -16.9 v 25.3 h 33.7 v -25.3 z"
             inkscape:connector-curvature="0" /></g><path
           id="path82"
           style="fill:#ffffff;fill-opacity:1;fill-rule:evenodd;stroke:none"
           d="M 230.9,341.3 H 214 v 25.3 h 33.7 v -25.3 z"
           inkscape:connector-curvature="0" /><g
           id="g84"><path
             id="path86"
             style="fill:none;stroke:#000000;stroke-width:2.23569989;stroke-linecap:butt;stroke-linejoin:round;stroke-miterlimit:10;stroke-dasharray:none;stroke-opacity:1"
             d="M 230.9,341.3 H 214 v 25.3 h 33.7 v -25.3 z"
             inkscape:connector-curvature="0" /></g><path
           id="path88"
           style="fill:#408000;fill-opacity:1;fill-rule:evenodd;stroke:none"
           d="m 265.3,340.8 h -16.8 v 25.3 h 33.7 v -25.3 z"
           inkscape:connector-curvature="0" /><g
           id="g90"><path
             id="path92"
             style="fill:none;stroke:#000000;stroke-width:2.23569989;stroke-linecap:butt;stroke-linejoin:round;stroke-miterlimit:10;stroke-dasharray:none;stroke-opacity:1"
             d="m 265.3,340.8 h -16.8 v 25.3 h 33.7 v -25.3 z"
             inkscape:connector-curvature="0" /></g><path
           id="path94"
           style="fill:#408000;fill-opacity:1;fill-rule:evenodd;stroke:none"
           d="M 299.8,340.8 H 283 v 25.3 h 33.7 v -25.3 z"
           inkscape:connector-curvature="0" /><g
           id="g96"><path
             id="path98"
             style="fill:none;stroke:#000000;stroke-width:2.23569989;stroke-linecap:butt;stroke-linejoin:round;stroke-miterlimit:10;stroke-dasharray:none;stroke-opacity:1"
             d="M 299.8,340.8 H 283 v 25.3 h 33.7 v -25.3 z"
             inkscape:connector-curvature="0" /></g><path
           id="path100"
           style="fill:#ffffff;fill-opacity:1;fill-rule:evenodd;stroke:none"
           d="m 334.3,340.8 h -16.8 v 25.3 h 33.7 v -25.3 z"
           inkscape:connector-curvature="0" /><g
           id="g102"><path
             id="path104"
             style="fill:none;stroke:#000000;stroke-width:2.23569989;stroke-linecap:butt;stroke-linejoin:round;stroke-miterlimit:10;stroke-dasharray:none;stroke-opacity:1"
             d="m 334.3,340.8 h -16.8 v 25.3 h 33.7 v -25.3 z"
             inkscape:connector-curvature="0" /></g><path
           id="path106"
           style="fill:#408000;fill-opacity:1;fill-rule:evenodd;stroke:none"
           d="m 368.3,340.8 h -16.9 v 25.3 h 33.7 v -25.3 z"
           inkscape:connector-curvature="0" /><g
           id="g108"><path
             id="path110"
             style="fill:none;stroke:#000000;stroke-width:2.23569989;stroke-linecap:butt;stroke-linejoin:round;stroke-miterlimit:10;stroke-dasharray:none;stroke-opacity:1"
             d="m 368.3,340.8 h -16.9 v 25.3 h 33.7 v -25.3 z"
             inkscape:connector-curvature="0" /></g><path
           id="path112"
           style="fill:#408000;fill-opacity:1;fill-rule:evenodd;stroke:none"
           d="m 402.8,340.8 h -16.9 v 25.3 h 33.7 v -25.3 z"
           inkscape:connector-curvature="0" /><g
           id="g114"><path
             id="path116"
             style="fill:none;stroke:#000000;stroke-width:2.23569989;stroke-linecap:butt;stroke-linejoin:round;stroke-miterlimit:10;stroke-dasharray:none;stroke-opacity:1"
             d="m 402.8,340.8 h -16.9 v 25.3 h 33.7 v -25.3 z"
             inkscape:connector-curvature="0" /></g><path
           id="path118"
           style="fill:#ffffff;fill-opacity:1;fill-rule:evenodd;stroke:none"
           d="m 437.3,340.8 h -16.9 v 25.3 h 33.7 v -25.3 z"
           inkscape:connector-curvature="0" /><g
           id="g120"><path
             id="path122"
             style="fill:none;stroke:#000000;stroke-width:2.23569989;stroke-linecap:butt;stroke-linejoin:round;stroke-miterlimit:10;stroke-dasharray:none;stroke-opacity:1"
             d="m 437.3,340.8 h -16.9 v 25.3 h 33.7 v -25.3 z"
             inkscape:connector-curvature="0" /></g><g
           id="g124"><text
             id="text128"
             style="font-variant:normal;font-weight:normal;font-size:18px;font-family:Carlito;-inkscape-font-specification:Carlito;writing-mode:lr-tb;fill:#000000;fill-opacity:1;fill-rule:nonzero;stroke:none"
             transform="matrix(1,0,0,-1,52.1,257.6)"><tspan
               id="tspan126"
               y="0"
               x="0 8.2799997 17.261999 26.747999 36.234001 40.23 49.716 58.122002 63.917999">Send data</tspan></text>
</g><g
           id="g130"><path
             id="path132"
             style="fill:none;stroke:#000000;stroke-width:2.00929999;stroke-linecap:butt;stroke-linejoin:miter;stroke-miterlimit:10;stroke-dasharray:none;stroke-opacity:1"
             d="M 146.9,241.3 H 414.8"
             inkscape:connector-curvature="0" /></g><path
           id="path134"
           style="fill:#000000;fill-opacity:1;fill-rule:evenodd;stroke:none"
           d="m 141.3,241.3 6,3 v -6 z"
           inkscape:connector-curvature="0" /><path
           id="path136"
           style="fill:#000000;fill-opacity:1;fill-rule:evenodd;stroke:none"
           d="m 420.4,241.3 -6,-3 v 6 z"
           inkscape:connector-curvature="0" /><path
           id="path138"
           style="fill:#408000;fill-opacity:1;fill-rule:evenodd;stroke:none"
           d="M 161.9,252.1 H 145 v 25.2 h 33.7 v -25.2 z"
           inkscape:connector-curvature="0" /><g
           id="g140"><path
             id="path142"
             style="fill:none;stroke:#000000;stroke-width:2.23569989;stroke-linecap:butt;stroke-linejoin:round;stroke-miterlimit:10;stroke-dasharray:none;stroke-opacity:1"
             d="M 161.9,252.1 H 145 v 25.2 h 33.7 v -25.2 z"
             inkscape:connector-curvature="0" /></g><path
           id="path144"
           style="fill:#408000;fill-opacity:1;fill-rule:evenodd;stroke:none"
           d="m 196.4,252.1 h -16.9 v 25.2 h 33.7 v -25.2 z"
           inkscape:connector-curvature="0" /><g
           id="g146"><path
             id="path148"
             style="fill:none;stroke:#000000;stroke-width:2.23569989;stroke-linecap:butt;stroke-linejoin:round;stroke-miterlimit:10;stroke-dasharray:none;stroke-opacity:1"
             d="m 196.4,252.1 h -16.9 v 25.2 h 33.7 v -25.2 z"
             inkscape:connector-curvature="0" /></g><path
           id="path150"
           style="fill:#ffffff;fill-opacity:1;fill-rule:evenodd;stroke:none"
           d="M 230.9,252.1 H 214 v 25.2 h 33.7 v -25.2 z"
           inkscape:connector-curvature="0" /><g
           id="g152"><path
             id="path154"
             style="fill:none;stroke:#000000;stroke-width:2.23569989;stroke-linecap:butt;stroke-linejoin:round;stroke-miterlimit:10;stroke-dasharray:none;stroke-opacity:1"
             d="M 230.9,252.1 H 214 v 25.2 h 33.7 v -25.2 z"
             inkscape:connector-curvature="0" /></g><path
           id="path156"
           style="fill:#408000;fill-opacity:1;fill-rule:evenodd;stroke:none"
           d="m 265.3,252.5 h -16.8 v 25.2 h 33.7 v -25.2 z"
           inkscape:connector-curvature="0" /><g
           id="g158"><path
             id="path160"
             style="fill:none;stroke:#000000;stroke-width:2.23569989;stroke-linecap:butt;stroke-linejoin:round;stroke-miterlimit:10;stroke-dasharray:none;stroke-opacity:1"
             d="m 265.3,252.5 h -16.8 v 25.2 h 33.7 v -25.2 z"
             inkscape:connector-curvature="0" /></g><path
           id="path162"
           style="fill:#408000;fill-opacity:1;fill-rule:evenodd;stroke:none"
           d="M 299.8,252.5 H 283 v 25.2 h 33.7 v -25.2 z"
           inkscape:connector-curvature="0" /><g
           id="g164"><path
             id="path166"
             style="fill:none;stroke:#000000;stroke-width:2.23569989;stroke-linecap:butt;stroke-linejoin:round;stroke-miterlimit:10;stroke-dasharray:none;stroke-opacity:1"
             d="M 299.8,252.5 H 283 v 25.2 h 33.7 v -25.2 z"
             inkscape:connector-curvature="0" /></g><path
           id="path168"
           style="fill:#ffffff;fill-opacity:1;fill-rule:evenodd;stroke:none"
           d="m 334.3,252.5 h -16.8 v 25.2 h 33.7 v -25.2 z"
           inkscape:connector-curvature="0" /><g
           id="g170"><path
             id="path172"
             style="fill:none;stroke:#000000;stroke-width:2.23569989;stroke-linecap:butt;stroke-linejoin:round;stroke-miterlimit:10;stroke-dasharray:none;stroke-opacity:1"
             d="m 334.3,252.5 h -16.8 v 25.2 h 33.7 v -25.2 z"
             inkscape:connector-curvature="0" /></g><path
           id="path174"
           style="fill:#408000;fill-opacity:1;fill-rule:evenodd;stroke:none"
           d="m 368.3,252.5 h -16.9 v 25.2 h 33.7 v -25.2 z"
           inkscape:connector-curvature="0" /><g
           id="g176"><path
             id="path178"
             style="fill:none;stroke:#000000;stroke-width:2.23569989;stroke-linecap:butt;stroke-linejoin:round;stroke-miterlimit:10;stroke-dasharray:none;stroke-opacity:1"
             d="m 368.3,252.5 h -16.9 v 25.2 h 33.7 v -25.2 z"
             inkscape:connector-curvature="0" /></g><path
           id="path180"
           style="fill:#408000;fill-opacity:1;fill-rule:evenodd;stroke:none"
           d="m 402.8,252.5 h -16.9 v 25.2 h 33.7 v -25.2 z"
           inkscape:connector-curvature="0" /><g
           id="g182"><path
             id="path184"
             style="fill:none;stroke:#000000;stroke-width:2.23569989;stroke-linecap:butt;stroke-linejoin:round;stroke-miterlimit:10;stroke-dasharray:none;stroke-opacity:1"
             d="m 402.8,252.5 h -16.9 v 25.2 h 33.7 v -25.2 z"
             inkscape:connector-curvature="0" /></g><g
           id="g186"><text
             id="text190"
             style="font-variant:normal;font-weight:normal;font-size:18px;font-family:'DejaVu Sans Mono';-inkscape-font-specification:DejaVuSansMono;writing-mode:lr-tb;fill:#000000;fill-opacity:1;fill-rule:nonzero;stroke:none"
             transform="matrix(1,0,0,-1,47.7,284.3)"><tspan
               id="tspan188"
               y="0"
               x="0 10.8 21.6 32.400002 43.200001 54 64.800003 75.599998 86.400002 97.199997 108 118.8 129.60001 140.39999 151.2 162 172.8">MPI_Send(buffer, </tspan></text>
</g><g
           id="g192"><text
             id="text196"
             style="font-variant:normal;font-weight:bold;font-size:18px;font-family:'DejaVu Sans Mono';-inkscape-font-specification:DejaVuSansMono-Bold;writing-mode:lr-tb;fill:#000000;fill-opacity:1;fill-rule:nonzero;stroke:none"
             transform="matrix(1,0,0,-1,231.3,284.3)"><tspan
               id="tspan194"
               y="0"
               x="0 10.8 21.6 32.400002 43.200001 54 64.800003 75.599998 86.400002">count = 1</tspan></text>
</g><g
           id="g198"><text
             id="text202"
             style="font-variant:normal;font-weight:normal;font-size:18px;font-family:'DejaVu Sans Mono';-inkscape-font-specification:DejaVuSansMono;writing-mode:lr-tb;fill:#000000;fill-opacity:1;fill-rule:nonzero;stroke:none"
             transform="matrix(1,0,0,-1,328.5,284.3)"><tspan
               id="tspan200"
               y="0"
               x="0 10.8 21.6 32.400002 43.200001 54 64.800003 75.599998 86.400002 97.199997 108 118.8 129.60001 140.39999 151.2 162 172.8 183.60001 194.39999 205.2 216 226.8 237.60001 248.39999 259.20001 270 280.79999">, newtype, dest, tag, comm)</tspan></text>
</g><g
           id="g204"><text
             id="text208"
             style="font-variant:normal;font-weight:normal;font-size:18px;font-family:Carlito;-inkscape-font-specification:Carlito;writing-mode:lr-tb;fill:#000000;fill-opacity:1;fill-rule:nonzero;stroke:none"
             transform="matrix(1,0,0,-1,52.1,161.2)"><tspan
               id="tspan206"
               y="0"
               x="0 8.2799997 17.261999 26.747999 36.234001 40.23 49.716 58.122002 63.917999">Send data</tspan></text>
</g><g
           id="g210"><path
             id="path212"
             style="fill:none;stroke:#000000;stroke-width:2.00929999;stroke-linecap:butt;stroke-linejoin:miter;stroke-miterlimit:10;stroke-dasharray:none;stroke-opacity:1"
             d="m 152.2,144.9 h 268"
             inkscape:connector-curvature="0" /></g><path
           id="path214"
           style="fill:#000000;fill-opacity:1;fill-rule:evenodd;stroke:none"
           d="m 146.6,144.9 6,3 v -6 z"
           inkscape:connector-curvature="0" /><path
           id="path216"
           style="fill:#000000;fill-opacity:1;fill-rule:evenodd;stroke:none"
           d="m 425.8,144.9 -6,-3 v 6 z"
           inkscape:connector-curvature="0" /><g
           id="g218"><text
             id="text222"
             style="font-variant:normal;font-weight:normal;font-size:18px;font-family:Carlito;-inkscape-font-specification:Carlito;writing-mode:lr-tb;fill:#000000;fill-opacity:1;fill-rule:nonzero;stroke:none"
             transform="matrix(1,0,0,-1,236.2,123.5)"><tspan
               id="tspan220"
               y="0"
               x="0 8.6940002 12.798 21.780001 36.161999 45.144001 54.450001 60.444 64.529999">Element 1</tspan></text>
</g><path
           id="path224"
           style="fill:#408000;fill-opacity:1;fill-rule:evenodd;stroke:none"
           d="m 167.3,156.5 h -16.9 v 25.3 h 33.7 v -25.3 z"
           inkscape:connector-curvature="0" /><g
           id="g226"><path
             id="path228"
             style="fill:none;stroke:#000000;stroke-width:2.23569989;stroke-linecap:butt;stroke-linejoin:round;stroke-miterlimit:10;stroke-dasharray:none;stroke-opacity:1"
             d="m 167.3,156.5 h -16.9 v 25.3 h 33.7 v -25.3 z"
             inkscape:connector-curvature="0" /></g><path
           id="path230"
           style="fill:#408000;fill-opacity:1;fill-rule:evenodd;stroke:none"
           d="m 201.8,156.5 h -16.9 v 25.3 h 33.7 v -25.3 z"
           inkscape:connector-curvature="0" /><g
           id="g232"><path
             id="path234"
             style="fill:none;stroke:#000000;stroke-width:2.23569989;stroke-linecap:butt;stroke-linejoin:round;stroke-miterlimit:10;stroke-dasharray:none;stroke-opacity:1"
             d="m 201.8,156.5 h -16.9 v 25.3 h 33.7 v -25.3 z"
             inkscape:connector-curvature="0" /></g><path
           id="path236"
           style="fill:#ffffff;fill-opacity:1;fill-rule:evenodd;stroke:none"
           d="m 236.3,156.5 h -16.9 v 25.3 h 33.7 v -25.3 z"
           inkscape:connector-curvature="0" /><g
           id="g238"><path
             id="path240"
             style="fill:none;stroke:#000000;stroke-width:2.23569989;stroke-linecap:butt;stroke-linejoin:round;stroke-miterlimit:10;stroke-dasharray:none;stroke-opacity:1"
             d="m 236.3,156.5 h -16.9 v 25.3 h 33.7 v -25.3 z"
             inkscape:connector-curvature="0" /></g><path
           id="path242"
           style="fill:#408000;fill-opacity:1;fill-rule:evenodd;stroke:none"
           d="m 270.7,156.1 h -16.9 v 25.2 h 33.7 v -25.2 z"
           inkscape:connector-curvature="0" /><g
           id="g244"><path
             id="path246"
             style="fill:none;stroke:#000000;stroke-width:2.23569989;stroke-linecap:butt;stroke-linejoin:round;stroke-miterlimit:10;stroke-dasharray:none;stroke-opacity:1"
             d="m 270.7,156.1 h -16.9 v 25.2 h 33.7 v -25.2 z"
             inkscape:connector-curvature="0" /></g><path
           id="path248"
           style="fill:#408000;fill-opacity:1;fill-rule:evenodd;stroke:none"
           d="m 305.2,156.1 h -16.9 v 25.2 H 322 v -25.2 z"
           inkscape:connector-curvature="0" /><g
           id="g250"><path
             id="path252"
             style="fill:none;stroke:#000000;stroke-width:2.23569989;stroke-linecap:butt;stroke-linejoin:round;stroke-miterlimit:10;stroke-dasharray:none;stroke-opacity:1"
             d="m 305.2,156.1 h -16.9 v 25.2 H 322 v -25.2 z"
             inkscape:connector-curvature="0" /></g><path
           id="path254"
           style="fill:#ffffff;fill-opacity:1;fill-rule:evenodd;stroke:none"
           d="m 339.7,156.1 h -16.9 v 25.2 h 33.7 v -25.2 z"
           inkscape:connector-curvature="0" /><g
           id="g256"><path
             id="path258"
             style="fill:none;stroke:#000000;stroke-width:2.23569989;stroke-linecap:butt;stroke-linejoin:round;stroke-miterlimit:10;stroke-dasharray:none;stroke-opacity:1"
             d="m 339.7,156.1 h -16.9 v 25.2 h 33.7 v -25.2 z"
             inkscape:connector-curvature="0" /></g><path
           id="path260"
           style="fill:#408000;fill-opacity:1;fill-rule:evenodd;stroke:none"
           d="m 373.7,156.1 h -16.9 v 25.2 h 33.7 v -25.2 z"
           inkscape:connector-curvature="0" /><g
           id="g262"><path
             id="path264"
             style="fill:none;stroke:#000000;stroke-width:2.23569989;stroke-linecap:butt;stroke-linejoin:round;stroke-miterlimit:10;stroke-dasharray:none;stroke-opacity:1"
             d="m 373.7,156.1 h -16.9 v 25.2 h 33.7 v -25.2 z"
             inkscape:connector-curvature="0" /></g><path
           id="path266"
           style="fill:#408000;fill-opacity:1;fill-rule:evenodd;stroke:none"
           d="m 408.2,156.1 h -16.9 v 25.2 H 425 v -25.2 z"
           inkscape:connector-curvature="0" /><g
           id="g268"><path
             id="path270"
             style="fill:none;stroke:#000000;stroke-width:2.23569989;stroke-linecap:butt;stroke-linejoin:round;stroke-miterlimit:10;stroke-dasharray:none;stroke-opacity:1"
             d="m 408.2,156.1 h -16.9 v 25.2 H 425 v -25.2 z"
             inkscape:connector-curvature="0" /></g><g
           id="g272"><text
             id="text276"
             style="font-variant:normal;font-weight:normal;font-size:18px;font-family:'DejaVu Sans Mono';-inkscape-font-specification:DejaVuSansMono;writing-mode:lr-tb;fill:#000000;fill-opacity:1;fill-rule:nonzero;stroke:none"
             transform="matrix(1,0,0,-1,47.7,188)"><tspan
               id="tspan274"
               y="0"
               x="0 10.8 21.6 32.400002 43.200001 54 64.800003 75.599998 86.400002 97.199997 108 118.8 129.60001 140.39999 151.2 162 172.8">MPI_Send(buffer, </tspan></text>
</g><g
           id="g278"><text
             id="text282"
             style="font-variant:normal;font-weight:bold;font-size:18px;font-family:'DejaVu Sans Mono';-inkscape-font-specification:DejaVuSansMono-Bold;writing-mode:lr-tb;fill:#000000;fill-opacity:1;fill-rule:nonzero;stroke:none"
             transform="matrix(1,0,0,-1,231.3,188)"><tspan
               id="tspan280"
               y="0"
               x="0 10.8 21.6 32.400002 43.200001 54 64.800003 75.599998 86.400002">count = 2</tspan></text>
</g><g
           id="g284"><text
             id="text288"
             style="font-variant:normal;font-weight:normal;font-size:18px;font-family:'DejaVu Sans Mono';-inkscape-font-specification:DejaVuSansMono;writing-mode:lr-tb;fill:#000000;fill-opacity:1;fill-rule:nonzero;stroke:none"
             transform="matrix(1,0,0,-1,328.5,188)"><tspan
               id="tspan286"
               y="0"
               x="0 10.8 21.6 32.400002 43.200001 54 64.800003 75.599998 86.400002 97.199997 108 118.8 129.60001 140.39999 151.2 162 172.8 183.60001 194.39999 205.2 216 226.8 237.60001 248.39999 259.20001 270 280.79999">, newtype, dest, tag, comm)</tspan></text>
</g><path
           id="path290"
           style="fill:#408000;fill-opacity:1;fill-rule:evenodd;stroke:none"
           d="M 442.1,155.8 H 425.2 V 181 h 33.7 v -25.2 z"
           inkscape:connector-curvature="0" /><g
           id="g292"><path
             id="path294"
             style="fill:none;stroke:#000000;stroke-width:2.23569989;stroke-linecap:butt;stroke-linejoin:round;stroke-miterlimit:10;stroke-dasharray:none;stroke-opacity:1"
             d="M 442.1,155.8 H 425.2 V 181 h 33.7 v -25.2 z"
             inkscape:connector-curvature="0" /></g><path
           id="path296"
           style="fill:#408000;fill-opacity:1;fill-rule:evenodd;stroke:none"
           d="M 476.6,155.8 H 459.7 V 181 h 33.7 v -25.2 z"
           inkscape:connector-curvature="0" /><g
           id="g298"><path
             id="path300"
             style="fill:none;stroke:#000000;stroke-width:2.23569989;stroke-linecap:butt;stroke-linejoin:round;stroke-miterlimit:10;stroke-dasharray:none;stroke-opacity:1"
             d="M 476.6,155.8 H 459.7 V 181 h 33.7 v -25.2 z"
             inkscape:connector-curvature="0" /></g><path
           id="path302"
           style="fill:#ffffff;fill-opacity:1;fill-rule:evenodd;stroke:none"
           d="M 511.1,155.8 H 494.2 V 181 h 33.7 v -25.2 z"
           inkscape:connector-curvature="0" /><g
           id="g304"><path
             id="path306"
             style="fill:none;stroke:#000000;stroke-width:2.23569989;stroke-linecap:butt;stroke-linejoin:round;stroke-miterlimit:10;stroke-dasharray:none;stroke-opacity:1"
             d="M 511.1,155.8 H 494.2 V 181 h 33.7 v -25.2 z"
             inkscape:connector-curvature="0" /></g><path
           id="path308"
           style="fill:#408000;fill-opacity:1;fill-rule:evenodd;stroke:none"
           d="m 545.5,156.1 h -16.8 v 25.2 h 33.7 v -25.2 z"
           inkscape:connector-curvature="0" /><g
           id="g310"><path
             id="path312"
             style="fill:none;stroke:#000000;stroke-width:2.23569989;stroke-linecap:butt;stroke-linejoin:round;stroke-miterlimit:10;stroke-dasharray:none;stroke-opacity:1"
             d="m 545.5,156.1 h -16.8 v 25.2 h 33.7 v -25.2 z"
             inkscape:connector-curvature="0" /></g><path
           id="path314"
           style="fill:#408000;fill-opacity:1;fill-rule:evenodd;stroke:none"
           d="m 580,156.1 h -16.8 v 25.2 h 33.7 v -25.2 z"
           inkscape:connector-curvature="0" /><g
           id="g316"><path
             id="path318"
             style="fill:none;stroke:#000000;stroke-width:2.23569989;stroke-linecap:butt;stroke-linejoin:round;stroke-miterlimit:10;stroke-dasharray:none;stroke-opacity:1"
             d="m 580,156.1 h -16.8 v 25.2 h 33.7 v -25.2 z"
             inkscape:connector-curvature="0" /></g><path
           id="path320"
           style="fill:#ffffff;fill-opacity:1;fill-rule:evenodd;stroke:none"
           d="m 614.5,156.1 h -16.8 v 25.2 h 33.7 v -25.2 z"
           inkscape:connector-curvature="0" /><g
           id="g322"><path
             id="path324"
             style="fill:none;stroke:#000000;stroke-width:2.23569989;stroke-linecap:butt;stroke-linejoin:round;stroke-miterlimit:10;stroke-dasharray:none;stroke-opacity:1"
             d="m 614.5,156.1 h -16.8 v 25.2 h 33.7 v -25.2 z"
             inkscape:connector-curvature="0" /></g><path
           id="path326"
           style="fill:#408000;fill-opacity:1;fill-rule:evenodd;stroke:none"
           d="m 648.5,156.1 h -16.9 v 25.2 h 33.7 v -25.2 z"
           inkscape:connector-curvature="0" /><g
           id="g328"><path
             id="path330"
             style="fill:none;stroke:#000000;stroke-width:2.23569989;stroke-linecap:butt;stroke-linejoin:round;stroke-miterlimit:10;stroke-dasharray:none;stroke-opacity:1"
             d="m 648.5,156.1 h -16.9 v 25.2 h 33.7 v -25.2 z"
             inkscape:connector-curvature="0" /></g><path
           id="path332"
           style="fill:#408000;fill-opacity:1;fill-rule:evenodd;stroke:none"
           d="m 683,156.1 h -16.9 v 25.2 h 33.7 v -25.2 z"
           inkscape:connector-curvature="0" /><g
           id="g334"><path
             id="path336"
             style="fill:none;stroke:#000000;stroke-width:2.23569989;stroke-linecap:butt;stroke-linejoin:round;stroke-miterlimit:10;stroke-dasharray:none;stroke-opacity:1"
             d="m 683,156.1 h -16.9 v 25.2 h 33.7 v -25.2 z"
             inkscape:connector-curvature="0" /></g><g
           id="g338"><path
             id="path340"
             style="fill:none;stroke:#000000;stroke-width:2.00929999;stroke-linecap:butt;stroke-linejoin:miter;stroke-miterlimit:10;stroke-dasharray:none;stroke-opacity:1"
             d="m 430.7,144.6 h 268"
             inkscape:connector-curvature="0" /></g><path
           id="path342"
           style="fill:#000000;fill-opacity:1;fill-rule:evenodd;stroke:none"
           d="m 425.1,144.6 6,3 v -6 z"
           inkscape:connector-curvature="0" /><path
           id="path344"
           style="fill:#000000;fill-opacity:1;fill-rule:evenodd;stroke:none"
           d="m 704.3,144.6 -6,-3 v 6 z"
           inkscape:connector-curvature="0" /><g
           id="g346"><text
             id="text350"
             style="font-variant:normal;font-weight:normal;font-size:18px;font-family:Carlito;-inkscape-font-specification:Carlito;writing-mode:lr-tb;fill:#000000;fill-opacity:1;fill-rule:nonzero;stroke:none"
             transform="matrix(1,0,0,-1,514.7,125.2)"><tspan
               id="tspan348"
               y="0"
               x="0 8.6940002 12.798 21.780001 36.161999 45.144001 54.450001 60.444 64.529999">Element 2</tspan></text>
</g><g
           id="g352"><path
             id="path354"
             style="fill:none;stroke:#000000;stroke-width:2.00929999;stroke-linecap:butt;stroke-linejoin:miter;stroke-miterlimit:10;stroke-dasharray:none;stroke-opacity:1"
             d="M 211,398.7 150.3,373.5"
             inkscape:connector-curvature="0" /></g><path
           id="path356"
           style="fill:#000000;fill-opacity:1;fill-rule:evenodd;stroke:none"
           d="m 145.1,371.3 4.5,5.1 2.3,-5.5 z"
           inkscape:connector-curvature="0" /><g
           id="g358"><text
             id="text362"
             style="font-variant:normal;font-weight:normal;font-size:18px;font-family:Carlito;-inkscape-font-specification:Carlito;writing-mode:lr-tb;fill:#000000;fill-opacity:1;fill-rule:nonzero;stroke:none"
             transform="matrix(1,0,0,-1,208.7,390.5)"><tspan
               id="tspan360"
               y="0"
               x="0 7.506 16.992001 29.700001 38.681999 44.964001 48.959999 58.445999 67.931999 77.417999">Lower bund</tspan></text>
</g><g
           id="g364"><text
             id="text368"
             style="font-variant:normal;font-weight:normal;font-size:18px;font-family:Carlito;-inkscape-font-specification:Carlito;writing-mode:lr-tb;fill:#000000;fill-opacity:1;fill-rule:nonzero;stroke:none"
             transform="matrix(1,0,0,-1,248.2,221.9)"><tspan
               id="tspan366"
               y="0"
               x="0 8.7840004 12.78 21.761999 36.144001 45.125999 54.431999 60.425999 64.512001">Element 1</tspan></text>
</g></g></g></g></svg>