<?xml version="1.0" encoding="UTF-8" standalone="no"?>
<svg
   xmlns:dc="http://purl.org/dc/elements/1.1/"
   xmlns:cc="http://creativecommons.org/ns#"
   xmlns:rdf="http://www.w3.org/1999/02/22-rdf-syntax-ns#"
   xmlns:svg="http://www.w3.org/2000/svg"
   xmlns="http://www.w3.org/2000/svg"
   xmlns:sodipodi="http://sodipodi.sourceforge.net/DTD/sodipodi-0.dtd"
   xmlns:inkscape="http://www.inkscape.org/namespaces/inkscape"
   viewBox="0 0 707.06637 177.86639"
   height="177.86639"
   width="707.06641"
   xml:space="preserve"
   id="svg2"
   version="1.1"
   sodipodi:docname="type_vector.svg"
   inkscape:version="0.92.2 (5c3e80d, 2017-08-06)"><sodipodi:namedview
     pagecolor="#ffffff"
     bordercolor="#666666"
     borderopacity="1"
     objecttolerance="10"
     gridtolerance="10"
     guidetolerance="10"
     inkscape:pageopacity="0"
     inkscape:pageshadow="2"
     inkscape:window-width="1920"
     inkscape:window-height="1043"
     id="namedview81"
     showgrid="false"
     fit-margin-top="0"
     fit-margin-left="0"
     fit-margin-right="0"
     fit-margin-bottom="0"
     inkscape:zoom="0.41678331"
     inkscape:cx="137.12781"
     inkscape:cy="-261.50737"
     inkscape:window-x="0"
     inkscape:window-y="0"
     inkscape:window-maximized="1"
     inkscape:current-layer="g14" /><metadata
     id="metadata8"><rdf:RDF><cc:Work
         rdf:about=""><dc:format>image/svg+xml</dc:format><dc:type
           rdf:resource="http://purl.org/dc/dcmitype/StillImage" /><dc:title></dc:title></cc:Work></rdf:RDF></metadata><defs
     id="defs6"><clipPath
       id="clipPath18"
       clipPathUnits="userSpaceOnUse"><path
         style="clip-rule:evenodd"
         id="path16"
         d="M 0,-0.2 H 793.6 V 595 H 0 Z"
         inkscape:connector-curvature="0" /></clipPath></defs><g
     transform="matrix(1.3333333,0,0,-1.3333333,-175.60013,404.53319)"
     id="g10"><g
       id="g12"><g
         clip-path="url(#clipPath18)"
         id="g14"><g
           id="g22" /><g
           id="g24" /><g
           id="g26"><path
             id="path28"
             style="fill:none;stroke:#939fa8;stroke-width:2.99979997;stroke-linecap:butt;stroke-linejoin:miter;stroke-miterlimit:7.66129017;stroke-dasharray:none;stroke-opacity:1"
             d="m 133.2,294.3 v 0 0.4 0.4 l 0.1,0.4 0.1,0.4 0.1,0.4 0.1,0.3 0.1,0.4 0.2,0.4 0.1,0.4 0.2,0.3 0.2,0.3 0.3,0.4 0.2,0.3 0.3,0.3 0.2,0.3 0.3,0.3 0.3,0.2 0.3,0.3 0.4,0.2 0.3,0.2 0.4,0.2 0.3,0.2 0.4,0.1 0.4,0.2 0.4,0.1 0.4,0.1 h 0.4 l 0.4,0.1 h 0.4 0.4 511.9 v 0 h 0.4 0.4 l 0.4,-0.1 h 0.4 l 0.4,-0.1 0.4,-0.1 0.4,-0.2 0.3,-0.1 0.4,-0.2 0.3,-0.2 0.4,-0.2 0.3,-0.2 0.3,-0.3 0.3,-0.2 0.3,-0.3 0.3,-0.3 0.3,-0.3 0.2,-0.3 0.2,-0.4 0.3,-0.3 0.2,-0.3 0.1,-0.4 0.2,-0.4 0.1,-0.4 0.1,-0.3 0.1,-0.4 0.1,-0.4 v -0.4 l 0.1,-0.4 v -0.4 -115.1 0 -0.4 l -0.1,-0.4 V 178 l -0.1,-0.4 -0.1,-0.4 -0.1,-0.4 -0.1,-0.4 -0.2,-0.3 -0.1,-0.4 -0.2,-0.3 -0.2,-0.4 -0.3,-0.3 -0.2,-0.3 -0.3,-0.3 -0.3,-0.3 -0.3,-0.3 -0.3,-0.2 -0.3,-0.3 -0.3,-0.2 -0.3,-0.2 -0.4,-0.2 -0.4,-0.2 -0.3,-0.2 -0.4,-0.1 -0.4,-0.1 -0.4,-0.1 -0.4,-0.1 h -0.4 l -0.4,-0.1 h -0.4 -511.9 v 0 h -0.4 l -0.4,0.1 h -0.4 l -0.4,0.1 -0.4,0.1 -0.4,0.1 -0.4,0.1 -0.4,0.2 -0.3,0.2 -0.4,0.2 -0.3,0.2 -0.3,0.2 -0.4,0.2 -0.2,0.3 -0.4,0.3 -0.2,0.3 -0.3,0.3 -0.2,0.3 -0.3,0.3 -0.2,0.3 -0.1,0.4 -0.2,0.4 -0.2,0.3 -0.1,0.4 -0.1,0.4 -0.1,0.4 -0.1,0.4 v 0.4 l -0.1,0.4 v 0.4 z"
             inkscape:connector-curvature="0" /></g><g
           id="g30"><path
             id="path32"
             style="fill:none;stroke:#939fa8;stroke-width:2.99979997;stroke-linecap:butt;stroke-linejoin:miter;stroke-miterlimit:7.66129017;stroke-dasharray:none;stroke-opacity:1"
             d="M 133.2,301.9 Z"
             inkscape:connector-curvature="0" /></g><g
           id="g34"><path
             id="path36"
             style="fill:none;stroke:#939fa8;stroke-width:2.99979997;stroke-linecap:butt;stroke-linejoin:miter;stroke-miterlimit:7.66129017;stroke-dasharray:none;stroke-opacity:1"
             d="M 660.5,171.5 Z"
             inkscape:connector-curvature="0" /></g><g
           id="g38"><text
             id="text42"
             style="font-variant:normal;font-weight:normal;font-size:17px;font-family:Carlito;-inkscape-font-specification:Carlito;writing-mode:lr-tb;fill:#000000;fill-opacity:1;fill-rule:nonzero;stroke:none"
             transform="matrix(1,0,0,-1,144.6,248.7)"><tspan
               id="tspan40"
               y="0"
               x="0 8.9759998 12.869 21.844999 27.625 35.308998 44.285">oldtype</tspan></text>
</g><g
           id="g44"><text
             id="text48"
             style="font-variant:normal;font-weight:normal;font-size:17px;font-family:Carlito;-inkscape-font-specification:Carlito;writing-mode:lr-tb;fill:#000000;fill-opacity:1;fill-rule:nonzero;stroke:none"
             transform="matrix(1,0,0,-1,144,212.1)"><tspan
               id="tspan46"
               y="0"
               x="0 8.9759998 17.374001 29.665001 35.342999 43.027 52.002998">newtype</tspan></text>
</g><g
           id="g50"><text
             id="text54"
             style="font-variant:normal;font-weight:normal;font-size:17px;font-family:Carlito;-inkscape-font-specification:Carlito;writing-mode:lr-tb;fill:#000000;fill-opacity:1;fill-rule:nonzero;stroke:none"
             transform="matrix(1,0,0,-1,207.9,279.3)"><tspan
               id="tspan52"
               y="0"
               x="0 14.501 23.290001 27.573999 36.056999 43.655998 51.34 60.248001 68.833 77.316002 84.813004 93.398003 100.589 106.097 115.073 121.057 126.242 134.84399 139.043 142.851 151.53799 155.737 159.545 168.147 172.431 176.239 185.215 189.108 198.186 203.864 211.548 220.524 229.007 233.20599 237.082 246.058 254.354 266.64499 272.323 280.00699 288.983 297.466">MPI_Type_vector(3, 2, 4, oldtype, newtype)</tspan></text>
</g><g
           id="g56"><path
             id="path58"
             style="fill:none;stroke:#000000;stroke-width:2.00929999;stroke-linecap:butt;stroke-linejoin:miter;stroke-miterlimit:10;stroke-dasharray:none;stroke-opacity:1"
             d="M 227.7,194.7 358,193.4"
             inkscape:connector-curvature="0" /></g><path
           id="path60"
           style="fill:#000000;fill-opacity:1;fill-rule:evenodd;stroke:none"
           d="m 222.1,194.8 6,2.9 v -6 z"
           inkscape:connector-curvature="0" /><path
           id="path62"
           style="fill:#000000;fill-opacity:1;fill-rule:evenodd;stroke:none"
           d="m 363.7,193.4 -6.1,-3 v 6 z"
           inkscape:connector-curvature="0" /><g
           id="g64"><text
             id="text68"
             style="font-variant:normal;font-weight:normal;font-size:17px;font-family:Carlito;-inkscape-font-specification:Carlito;writing-mode:lr-tb;fill:#000000;fill-opacity:1;fill-rule:nonzero;stroke:none"
             transform="matrix(1,0,0,-1,259.3,175.6)"><tspan
               id="tspan66"
               y="0"
               x="0 7.7010002 15.895 25.177 29.461 39.950001 48.144001 56.626999">STRIDE=4</tspan></text>
</g><g
           id="g70"><path
             id="path72"
             style="fill:none;stroke:#000000;stroke-width:2.00929999;stroke-linecap:butt;stroke-linejoin:miter;stroke-miterlimit:10;stroke-dasharray:none;stroke-opacity:1"
             d="m 369.3,243.5 h 57"
             inkscape:connector-curvature="0" /></g><path
           id="path74"
           style="fill:#000000;fill-opacity:1;fill-rule:evenodd;stroke:none"
           d="m 363.7,243.5 6,3 v -6 z"
           inkscape:connector-curvature="0" /><path
           id="path76"
           style="fill:#000000;fill-opacity:1;fill-rule:evenodd;stroke:none"
           d="m 431.9,243.5 -6,-3 v 6 z"
           inkscape:connector-curvature="0" /><g
           id="g78"><text
             id="text82"
             style="font-variant:normal;font-weight:normal;font-size:17px;font-family:Carlito;-inkscape-font-specification:Carlito;writing-mode:lr-tb;fill:#000000;fill-opacity:1;fill-rule:nonzero;stroke:none"
             transform="matrix(1,0,0,-1,350.8,251.2)"><tspan
               id="tspan80"
               y="0"
               x="0 9.1969995 15.997 27.285 36.362999 45.254002 52.445 60.741001 71.723 80.206001">BLOCKLEN=2</tspan></text>
</g><path
           id="path84"
           style="fill:#408000;fill-opacity:1;fill-rule:evenodd;stroke:none"
           d="M 242.8,242.8 H 226 V 268 h 33.7 v -25.2 z"
           inkscape:connector-curvature="0" /><g
           id="g86"><path
             id="path88"
             style="fill:none;stroke:#000000;stroke-width:2.23569989;stroke-linecap:butt;stroke-linejoin:round;stroke-miterlimit:10;stroke-dasharray:none;stroke-opacity:1"
             d="M 242.8,242.8 H 226 V 268 h 33.7 v -25.2 z"
             inkscape:connector-curvature="0" /></g><path
           id="path90"
           style="fill:#408000;fill-opacity:1;fill-rule:evenodd;stroke:none"
           d="m 242.7,206.5 h -16.9 v 25.3 h 33.7 v -25.3 z"
           inkscape:connector-curvature="0" /><g
           id="g92"><path
             id="path94"
             style="fill:none;stroke:#000000;stroke-width:2.23569989;stroke-linecap:butt;stroke-linejoin:round;stroke-miterlimit:10;stroke-dasharray:none;stroke-opacity:1"
             d="m 242.7,206.5 h -16.9 v 25.3 h 33.7 v -25.3 z"
             inkscape:connector-curvature="0" /></g><path
           id="path96"
           style="fill:#408000;fill-opacity:1;fill-rule:evenodd;stroke:none"
           d="m 277.2,206.5 h -16.9 v 25.3 H 294 v -25.3 z"
           inkscape:connector-curvature="0" /><g
           id="g98"><path
             id="path100"
             style="fill:none;stroke:#000000;stroke-width:2.23569989;stroke-linecap:butt;stroke-linejoin:round;stroke-miterlimit:10;stroke-dasharray:none;stroke-opacity:1"
             d="m 277.2,206.5 h -16.9 v 25.3 H 294 v -25.3 z"
             inkscape:connector-curvature="0" /></g><path
           id="path102"
           style="fill:#ffffff;fill-opacity:1;fill-rule:evenodd;stroke:none"
           d="m 311.7,206.5 h -16.9 v 25.3 h 33.7 v -25.3 z"
           inkscape:connector-curvature="0" /><g
           id="g104"><path
             id="path106"
             style="fill:none;stroke:#000000;stroke-width:2.23569989;stroke-linecap:butt;stroke-linejoin:round;stroke-miterlimit:10;stroke-dasharray:none;stroke-opacity:1"
             d="m 311.7,206.5 h -16.9 v 25.3 h 33.7 v -25.3 z"
             inkscape:connector-curvature="0" /></g><path
           id="path108"
           style="fill:#ffffff;fill-opacity:1;fill-rule:evenodd;stroke:none"
           d="m 346.2,206.5 h -16.9 v 25.3 H 363 v -25.3 z"
           inkscape:connector-curvature="0" /><g
           id="g110"><path
             id="path112"
             style="fill:none;stroke:#000000;stroke-width:2.23569989;stroke-linecap:butt;stroke-linejoin:round;stroke-miterlimit:10;stroke-dasharray:none;stroke-opacity:1"
             d="m 346.2,206.5 h -16.9 v 25.3 H 363 v -25.3 z"
             inkscape:connector-curvature="0" /></g><path
           id="path114"
           style="fill:#408000;fill-opacity:1;fill-rule:evenodd;stroke:none"
           d="m 380.5,206.5 h -16.8 v 25.3 h 33.7 v -25.3 z"
           inkscape:connector-curvature="0" /><g
           id="g116"><path
             id="path118"
             style="fill:none;stroke:#000000;stroke-width:2.23569989;stroke-linecap:butt;stroke-linejoin:round;stroke-miterlimit:10;stroke-dasharray:none;stroke-opacity:1"
             d="m 380.5,206.5 h -16.8 v 25.3 h 33.7 v -25.3 z"
             inkscape:connector-curvature="0" /></g><path
           id="path120"
           style="fill:#408000;fill-opacity:1;fill-rule:evenodd;stroke:none"
           d="m 415,206.5 h -16.8 v 25.3 h 33.7 v -25.3 z"
           inkscape:connector-curvature="0" /><g
           id="g122"><path
             id="path124"
             style="fill:none;stroke:#000000;stroke-width:2.23569989;stroke-linecap:butt;stroke-linejoin:round;stroke-miterlimit:10;stroke-dasharray:none;stroke-opacity:1"
             d="m 415,206.5 h -16.8 v 25.3 h 33.7 v -25.3 z"
             inkscape:connector-curvature="0" /></g><path
           id="path126"
           style="fill:#ffffff;fill-opacity:1;fill-rule:evenodd;stroke:none"
           d="m 449.5,206.5 h -16.8 v 25.3 h 33.7 v -25.3 z"
           inkscape:connector-curvature="0" /><g
           id="g128"><path
             id="path130"
             style="fill:none;stroke:#000000;stroke-width:2.23569989;stroke-linecap:butt;stroke-linejoin:round;stroke-miterlimit:10;stroke-dasharray:none;stroke-opacity:1"
             d="m 449.5,206.5 h -16.8 v 25.3 h 33.7 v -25.3 z"
             inkscape:connector-curvature="0" /></g><path
           id="path132"
           style="fill:#ffffff;fill-opacity:1;fill-rule:evenodd;stroke:none"
           d="m 484,206.5 h -16.9 v 25.3 h 33.8 v -25.3 z"
           inkscape:connector-curvature="0" /><g
           id="g134"><path
             id="path136"
             style="fill:none;stroke:#000000;stroke-width:2.23569989;stroke-linecap:butt;stroke-linejoin:round;stroke-miterlimit:10;stroke-dasharray:none;stroke-opacity:1"
             d="m 484,206.5 h -16.9 v 25.3 h 33.8 v -25.3 z"
             inkscape:connector-curvature="0" /></g><path
           id="path138"
           style="fill:#408000;fill-opacity:1;fill-rule:evenodd;stroke:none"
           d="m 518.3,206.5 h -16.9 v 25.3 h 33.8 v -25.3 z"
           inkscape:connector-curvature="0" /><g
           id="g140"><path
             id="path142"
             style="fill:none;stroke:#000000;stroke-width:2.23569989;stroke-linecap:butt;stroke-linejoin:round;stroke-miterlimit:10;stroke-dasharray:none;stroke-opacity:1"
             d="m 518.3,206.5 h -16.9 v 25.3 h 33.8 v -25.3 z"
             inkscape:connector-curvature="0" /></g><path
           id="path144"
           style="fill:#408000;fill-opacity:1;fill-rule:evenodd;stroke:none"
           d="m 552.8,206.5 h -16.9 v 25.3 h 33.8 v -25.3 z"
           inkscape:connector-curvature="0" /><g
           id="g146"><path
             id="path148"
             style="fill:none;stroke:#000000;stroke-width:2.23569989;stroke-linecap:butt;stroke-linejoin:round;stroke-miterlimit:10;stroke-dasharray:none;stroke-opacity:1"
             d="m 552.8,206.5 h -16.9 v 25.3 h 33.8 v -25.3 z"
             inkscape:connector-curvature="0" /></g><path
           id="path150"
           style="fill:#ffffff;fill-opacity:1;fill-rule:evenodd;stroke:none"
           d="m 587.3,206.5 h -16.9 v 25.3 h 33.7 v -25.3 z"
           inkscape:connector-curvature="0" /><g
           id="g152"><path
             id="path154"
             style="fill:none;stroke:#000000;stroke-width:2.23569989;stroke-linecap:butt;stroke-linejoin:round;stroke-miterlimit:10;stroke-dasharray:none;stroke-opacity:1"
             d="m 587.3,206.5 h -16.9 v 25.3 h 33.7 v -25.3 z"
             inkscape:connector-curvature="0" /></g><path
           id="path156"
           style="fill:#ffffff;fill-opacity:1;fill-rule:evenodd;stroke:none"
           d="m 621.8,206.5 h -16.9 v 25.3 h 33.7 v -25.3 z"
           inkscape:connector-curvature="0" /><g
           id="g158"><path
             id="path160"
             style="fill:none;stroke:#000000;stroke-width:2.23569989;stroke-linecap:butt;stroke-linejoin:round;stroke-miterlimit:10;stroke-dasharray:none;stroke-opacity:1"
             d="m 621.8,206.5 h -16.9 v 25.3 h 33.7 v -25.3 z"
             inkscape:connector-curvature="0" /></g></g></g></g></svg>