<?xml version="1.0" encoding="UTF-8" standalone="no"?>
<svg
   xmlns:dc="http://purl.org/dc/elements/1.1/"
   xmlns:cc="http://creativecommons.org/ns#"
   xmlns:rdf="http://www.w3.org/1999/02/22-rdf-syntax-ns#"
   xmlns:svg="http://www.w3.org/2000/svg"
   xmlns="http://www.w3.org/2000/svg"
   xmlns:sodipodi="http://sodipodi.sourceforge.net/DTD/sodipodi-0.dtd"
   xmlns:inkscape="http://www.inkscape.org/namespaces/inkscape"
   viewBox="0 0 393.33305 331.86639"
   height="331.86639"
   width="393.33307"
   xml:space="preserve"
   id="svg2"
   version="1.1"
   sodipodi:docname="type_array.svg"
   inkscape:version="0.92.2 (5c3e80d, 2017-08-06)"><sodipodi:namedview
     pagecolor="#ffffff"
     bordercolor="#666666"
     borderopacity="1"
     objecttolerance="10"
     gridtolerance="10"
     guidetolerance="10"
     inkscape:pageopacity="0"
     inkscape:pageshadow="2"
     inkscape:window-width="640"
     inkscape:window-height="480"
     id="namedview10629"
     showgrid="false"
     inkscape:zoom="0.297479"
     inkscape:cx="191.06658"
     inkscape:cy="181.33322"
     inkscape:window-x="0"
     inkscape:window-y="28"
     inkscape:window-maximized="0"
     inkscape:current-layer="g14" /><metadata
     id="metadata8"><rdf:RDF><cc:Work
         rdf:about=""><dc:format>image/svg+xml</dc:format><dc:type
           rdf:resource="http://purl.org/dc/dcmitype/StillImage" /></cc:Work></rdf:RDF></metadata><defs
     id="defs6"><clipPath
       id="clipPath18"
       clipPathUnits="userSpaceOnUse"><path
         style="clip-rule:evenodd"
         id="path16"
         d="M 0,-0.2 H 793.6 V 595 H 0 Z"
         inkscape:connector-curvature="0" /></clipPath></defs><g
     transform="matrix(1.3333333,0,0,-1.3333333,-338.26679,547.19985)"
     id="g10"><g
       id="g12"><g
         clip-path="url(#clipPath18)"
         id="g14"><g
           id="g22" /><g
           id="g24" /><g
           id="g26"><path
             id="path28"
             style="fill:none;stroke:#939fa8;stroke-width:2.99979997;stroke-linecap:butt;stroke-linejoin:miter;stroke-miterlimit:7.66129017;stroke-dasharray:none;stroke-opacity:1"
             d="m 261.9,408.9 v 0 c -3.7,0 -6.7,-2.8 -6.7,-6.3 V 169.4 c 0,-3.5 3,-6.4 6.7,-6.4 h 278.6 c 3.7,0 6.7,2.9 6.7,6.4 v 233.2 c 0,3.5 -3,6.3 -6.7,6.3 z"
             inkscape:connector-curvature="0" /></g><g
           id="g30"><path
             id="path32"
             style="fill:none;stroke:#939fa8;stroke-width:2.99979997;stroke-linecap:butt;stroke-linejoin:miter;stroke-miterlimit:7.66129017;stroke-dasharray:none;stroke-opacity:1"
             d="M 255.2,408.9 Z"
             inkscape:connector-curvature="0" /></g><g
           id="g34"><path
             id="path36"
             style="fill:none;stroke:#939fa8;stroke-width:2.99979997;stroke-linecap:butt;stroke-linejoin:miter;stroke-miterlimit:7.66129017;stroke-dasharray:none;stroke-opacity:1"
             d="M 547.2,163 Z"
             inkscape:connector-curvature="0" /></g><g
           id="g38"><text
             id="text42"
             style="font-variant:normal;font-weight:normal;font-size:16px;font-family:'DejaVu Sans Mono';-inkscape-font-specification:DejaVuSansMono;writing-mode:lr-tb;fill:#000000;fill-opacity:1;fill-rule:nonzero;stroke:none"
             transform="matrix(1,0,0,-1,260.3,394.5)"><tspan
               id="tspan40"
               y="0"
               x="0 9.6000004 19.200001 28.799999 38.400002 48 57.599998 67.199997 76.800003 86.400002 96 105.6 115.2 124.8 134.39999 144 153.60001 163.2 172.8 182.39999 192 201.60001">Rank 0: original array</tspan></text>
</g><g
           id="g44" /><g
           id="g46"><text
             id="text50"
             style="font-variant:normal;font-weight:normal;font-size:16px;font-family:'DejaVu Sans Mono';-inkscape-font-specification:DejaVuSansMono;writing-mode:lr-tb;fill:#000000;fill-opacity:1;fill-rule:nonzero;stroke:none"
             transform="matrix(1,0,0,-1,279.5,375.4)"><tspan
               id="tspan48"
               y="0"
               x="0 9.6000004 19.200001 28.799999 57.599998 67.199997 76.800003 86.400002 115.2 124.8 134.39999 144 172.8 182.39999 192 201.60001 230.39999 240 249.60001 259.20001">0.0 0.0 0.0 0.0 0.0 </tspan></text>
</g><g
           id="g52" /><g
           id="g54"><text
             id="text58"
             style="font-variant:normal;font-weight:normal;font-size:16px;font-family:'DejaVu Sans Mono';-inkscape-font-specification:DejaVuSansMono;writing-mode:lr-tb;fill:#000000;fill-opacity:1;fill-rule:nonzero;stroke:none"
             transform="matrix(1,0,0,-1,279.5,356.2)"><tspan
               id="tspan56"
               y="0"
               x="0 9.6000004 19.200001 28.799999 57.599998 67.199997 76.800003 86.400002 115.2 124.8 134.39999 144 172.8 182.39999 192 201.60001 230.39999 240 249.60001 259.20001">0.0 0.0 0.0 0.0 0.0 </tspan></text>
</g><g
           id="g60" /><g
           id="g62"><text
             id="text66"
             style="font-variant:normal;font-weight:normal;font-size:16px;font-family:'DejaVu Sans Mono';-inkscape-font-specification:DejaVuSansMono;writing-mode:lr-tb;fill:#000000;fill-opacity:1;fill-rule:nonzero;stroke:none"
             transform="matrix(1,0,0,-1,279.5,337)"><tspan
               id="tspan64"
               y="0"
               x="0 9.6000004 19.200001 28.799999 57.599998 67.199997 76.800003 86.400002 115.2 124.8 134.39999 144 172.8 182.39999 192 201.60001 230.39999 240 249.60001 259.20001">0.0 0.0 0.0 0.0 0.0 </tspan></text>
</g><g
           id="g68" /><g
           id="g70"><text
             id="text74"
             style="font-variant:normal;font-weight:normal;font-size:16px;font-family:'DejaVu Sans Mono';-inkscape-font-specification:DejaVuSansMono;writing-mode:lr-tb;fill:#000000;fill-opacity:1;fill-rule:nonzero;stroke:none"
             transform="matrix(1,0,0,-1,279.5,317.9)"><tspan
               id="tspan72"
               y="0"
               x="0 9.6000004 19.200001 28.799999 57.599998 67.199997 76.800003 86.400002 115.2 124.8 134.39999 144 172.8 182.39999 192 201.60001 230.39999 240 249.60001 259.20001">0.0 0.0 0.0 0.0 0.0 </tspan></text>
</g><g
           id="g76" /><g
           id="g78"><text
             id="text82"
             style="font-variant:normal;font-weight:normal;font-size:16px;font-family:'DejaVu Sans Mono';-inkscape-font-specification:DejaVuSansMono;writing-mode:lr-tb;fill:#000000;fill-opacity:1;fill-rule:nonzero;stroke:none"
             transform="matrix(1,0,0,-1,279.5,298.7)"><tspan
               id="tspan80"
               y="0"
               x="0 9.6000004 19.200001 28.799999 57.599998 67.199997 76.800003 86.400002 115.2 124.8 134.39999 144 172.8 182.39999 192 201.60001 230.39999 240 249.60001 259.20001">0.0 0.0 0.0 0.0 0.0 </tspan></text>
</g><g
           id="g84"><text
             id="text88"
             style="font-variant:normal;font-weight:normal;font-size:16px;font-family:'DejaVu Sans Mono';-inkscape-font-specification:DejaVuSansMono;writing-mode:lr-tb;fill:#000000;fill-opacity:1;fill-rule:nonzero;stroke:none"
             transform="matrix(1,0,0,-1,260.3,279.6)"><tspan
               id="tspan86"
               y="0"
               x="0 9.6000004 19.200001 28.799999 38.400002 48 57.599998 67.199997 76.800003 86.400002 96 105.6 115.2 124.8 134.39999 144 153.60001 163.2 172.8 182.39999 192 201.60001 211.2 220.8 230.39999 240 249.60001">Rank 0: array after receive</tspan></text>
</g><g
           id="g90" /><g
           id="g92"><text
             id="text96"
             style="font-variant:normal;font-weight:normal;font-size:16px;font-family:'DejaVu Sans Mono';-inkscape-font-specification:DejaVuSansMono;writing-mode:lr-tb;fill:#000000;fill-opacity:1;fill-rule:nonzero;stroke:none"
             transform="matrix(1,0,0,-1,279.5,260.4)"><tspan
               id="tspan94"
               y="0"
               x="0 9.6000004 19.200001 28.799999 57.599998 67.199997 76.800003 86.400002 115.2 124.8 134.39999 144 172.8 182.39999 192 201.60001 230.39999 240 249.60001 259.20001">0.0 0.0 0.0 0.0 0.0 </tspan></text>
</g><g
           id="g98" /><g
           id="g100"><text
             id="text104"
             style="font-variant:normal;font-weight:normal;font-size:16px;font-family:'DejaVu Sans Mono';-inkscape-font-specification:DejaVuSansMono;writing-mode:lr-tb;fill:#000000;fill-opacity:1;fill-rule:nonzero;stroke:none"
             transform="matrix(1,0,0,-1,279.5,241.2)"><tspan
               id="tspan102"
               y="0"
               x="0 9.6000004 19.200001 28.799999 57.599998 67.199997 76.800003 86.400002">0.0 0.0 </tspan></text>
</g><g
           id="g106"><text
             id="text110"
             style="font-variant:normal;font-weight:bold;font-size:16px;font-family:'DejaVu Sans Mono';-inkscape-font-specification:DejaVuSansMono-Bold;writing-mode:lr-tb;fill:#ff0000;fill-opacity:1;fill-rule:nonzero;stroke:none"
             transform="matrix(1,0,0,-1,394.7,241.2)"><tspan
               id="tspan108"
               y="0"
               x="0 9.6000004 19.200001 28.799999 57.599998 67.199997 76.800003 86.400002 115.2 124.8 134.39999">1.0 1.0 1.0</tspan></text>
</g><g
           id="g112" /><g
           id="g114" /><g
           id="g116"><text
             id="text120"
             style="font-variant:normal;font-weight:normal;font-size:16px;font-family:'DejaVu Sans Mono';-inkscape-font-specification:DejaVuSansMono;writing-mode:lr-tb;fill:#000000;fill-opacity:1;fill-rule:nonzero;stroke:none"
             transform="matrix(1,0,0,-1,279.5,222.1)"><tspan
               id="tspan118"
               y="0"
               x="0 9.6000004 19.200001 28.799999 57.599998 67.199997 76.800003 86.400002">0.0 0.0 </tspan></text>
</g><g
           id="g122"><text
             id="text126"
             style="font-variant:normal;font-weight:bold;font-size:16px;font-family:'DejaVu Sans Mono';-inkscape-font-specification:DejaVuSansMono-Bold;writing-mode:lr-tb;fill:#ff0000;fill-opacity:1;fill-rule:nonzero;stroke:none"
             transform="matrix(1,0,0,-1,394.7,222.1)"><tspan
               id="tspan124"
               y="0"
               x="0 9.6000004 19.200001 28.799999 57.599998 67.199997 76.800003 86.400002 115.2 124.8 134.39999 144">1.0 1.0 1.0 </tspan></text>
</g><g
           id="g128" /><g
           id="g130" /><g
           id="g132"><text
             id="text136"
             style="font-variant:normal;font-weight:normal;font-size:16px;font-family:'DejaVu Sans Mono';-inkscape-font-specification:DejaVuSansMono;writing-mode:lr-tb;fill:#000000;fill-opacity:1;fill-rule:nonzero;stroke:none"
             transform="matrix(1,0,0,-1,279.5,183.7)"><tspan
               id="tspan134"
               y="0"
               x="0 9.6000004 19.200001 28.799999 57.599998 67.199997 76.800003 86.400002 115.2 124.8 134.39999 144 172.8 182.39999 192 201.60001 230.39999 240 249.60001 259.20001">0.0 0.0 0.0 0.0 0.0 </tspan></text>
</g><g
           id="g138" /><g
           id="g140"><text
             id="text144"
             style="font-variant:normal;font-weight:normal;font-size:16px;font-family:'DejaVu Sans Mono';-inkscape-font-specification:DejaVuSansMono;writing-mode:lr-tb;fill:#000000;fill-opacity:1;fill-rule:nonzero;stroke:none"
             transform="matrix(1,0,0,-1,279.5,164.6)"><tspan
               id="tspan142"
               y="0"
               x="0 9.6000004 19.200001 28.799999 57.599998 67.199997 76.800003 86.400002 115.2 124.8 134.39999 144 172.8 182.39999 192 201.60001 230.39999 240 249.60001">0.0 0.0 0.0 0.0 0.0</tspan></text>
</g></g></g></g></svg>