<?xml version="1.0" encoding="UTF-8" standalone="no"?>
<svg
   xmlns:dc="http://purl.org/dc/elements/1.1/"
   xmlns:cc="http://creativecommons.org/ns#"
   xmlns:rdf="http://www.w3.org/1999/02/22-rdf-syntax-ns#"
   xmlns:svg="http://www.w3.org/2000/svg"
   xmlns="http://www.w3.org/2000/svg"
   xmlns:sodipodi="http://sodipodi.sourceforge.net/DTD/sodipodi-0.dtd"
   xmlns:inkscape="http://www.inkscape.org/namespaces/inkscape"
   viewBox="0 0 932.59212 434.40573"
   height="434.40573"
   width="932.59216"
   xml:space="preserve"
   id="svg2"
   version="1.1"
   sodipodi:docname="type_vector2.svg"
   inkscape:version="0.92.2 (5c3e80d, 2017-08-06)"><sodipodi:namedview
     pagecolor="#ffffff"
     bordercolor="#666666"
     borderopacity="1"
     objecttolerance="10"
     gridtolerance="10"
     guidetolerance="10"
     inkscape:pageopacity="0"
     inkscape:pageshadow="2"
     inkscape:window-width="842"
     inkscape:window-height="480"
     id="namedview11124"
     showgrid="false"
     inkscape:zoom="0.297479"
     inkscape:cx="452.19223"
     inkscape:cy="216.1758"
     inkscape:window-x="0"
     inkscape:window-y="28"
     inkscape:window-maximized="0"
     inkscape:current-layer="g14" /><metadata
     id="metadata8"><rdf:RDF><cc:Work
         rdf:about=""><dc:format>image/svg+xml</dc:format><dc:type
           rdf:resource="http://purl.org/dc/dcmitype/StillImage" /></cc:Work></rdf:RDF></metadata><defs
     id="defs6"><clipPath
       id="clipPath18"
       clipPathUnits="userSpaceOnUse"><path
         style="clip-rule:evenodd"
         id="path16"
         d="M 0,-0.2 H 793.6 V 595 H 0 Z"
         inkscape:connector-curvature="0" /></clipPath></defs><g
     transform="matrix(1.3333333,0,0,-1.3333333,-77.141144,614.8966)"
     id="g10"><g
       id="g12"><g
         clip-path="url(#clipPath18)"
         id="g14"><g
           id="g22" /><g
           id="g24" /><g
           id="g26"><text
             id="text30"
             style="font-variant:normal;font-weight:normal;font-size:18px;font-family:Carlito;-inkscape-font-specification:Carlito;writing-mode:lr-tb;fill:#000000;fill-opacity:1;fill-rule:nonzero;stroke:none"
             transform="matrix(1,0,0,-1,84.8,358.1)"><tspan
               id="tspan28"
               y="0"
               x="0 9.4860001 18.594 24.587999 32.778 42.174">n2type</tspan></text>
</g><g
           id="g32"><text
             id="text36"
             style="font-variant:normal;font-weight:normal;font-size:18px;font-family:'DejaVu Sans Mono';-inkscape-font-specification:DejaVuSansMono;writing-mode:lr-tb;fill:#000000;fill-opacity:1;fill-rule:nonzero;stroke:none"
             transform="matrix(1,0,0,-1,57.1,447.4)"><tspan
               id="tspan34"
               y="0"
               x="0 10.8 21.6 32.400002 43.200001 54 64.800003 75.599998 86.400002 97.199997 108 118.8 129.60001 140.39999 151.2 162 172.8 183.60001 194.39999 205.2 216 226.8 237.60001 248.39999 259.20001 270 280.79999 291.60001 302.39999 313.20001 324 334.79999 345.60001 356.39999 367.20001 378 388.79999 399.60001 410.39999 421.20001 432 442.79999 453.60001 464.39999 475.20001 486 496.79999 507.60001 518.40002 529.20001 540 550.79999 561.59998 572.40002 583.20001 594 604.79999 615.59998 626.40002 637.20001 648 658.79999">MPI_Type_vector(count = 3, blocklen = 2, stride = 3, oldtype, </tspan></text>
</g><g
           id="g38"><text
             id="text42"
             style="font-variant:normal;font-weight:normal;font-size:18px;font-family:'DejaVu Sans Mono';-inkscape-font-specification:DejaVuSansMono;writing-mode:lr-tb;fill:#000000;fill-opacity:1;fill-rule:nonzero;stroke:none"
             transform="matrix(1,0,0,-1,57.1,427.3)"><tspan
               id="tspan40"
               y="0"
               x="0 10.8 21.6 32.400002 43.200001 54 64.800003 75.599998">newtype)</tspan></text>
</g><g
           id="g44"><text
             id="text48"
             style="font-variant:normal;font-weight:normal;font-size:18px;font-family:'DejaVu Sans Mono';-inkscape-font-specification:DejaVuSansMono;writing-mode:lr-tb;fill:#000000;fill-opacity:1;fill-rule:nonzero;stroke:none"
             transform="matrix(1,0,0,-1,57.1,403)"><tspan
               id="tspan46"
               y="0"
               x="0 10.8 21.6 32.400002 43.200001 54 64.800003 75.599998 86.400002 97.199997 108 118.8 129.60001 140.39999 151.2 162 172.8 183.60001 194.39999 205.2 216 226.8 237.60001 248.39999 259.20001 270 280.79999 291.60001 302.39999 313.20001 324 334.79999 345.60001 356.39999 367.20001 378 388.79999 399.60001 410.39999 421.20001 432 442.79999 453.60001 464.39999 475.20001 486 496.79999 507.60001 518.40002 529.20001 540 550.79999 561.59998 572.40002 583.20001 594 604.79999 615.59998 626.40002 637.20001 648 658.79999 669.59998 680.40002">MPI_Create_resized(newtype, lb = 0, extent = 9*sizeof(oldtype), </tspan></text>
</g><g
           id="g50"><text
             id="text54"
             style="font-variant:normal;font-weight:normal;font-size:18px;font-family:'DejaVu Sans Mono';-inkscape-font-specification:DejaVuSansMono;writing-mode:lr-tb;fill:#000000;fill-opacity:1;fill-rule:nonzero;stroke:none"
             transform="matrix(1,0,0,-1,57.1,383)"><tspan
               id="tspan52"
               y="0"
               x="0 10.8 21.6 32.400002 43.200001 54 64.800003">n2type)</tspan></text>
</g><g
           id="g56"><path
             id="path58"
             style="fill:none;stroke:#000000;stroke-width:2.00929999;stroke-linecap:butt;stroke-linejoin:miter;stroke-miterlimit:10;stroke-dasharray:none;stroke-opacity:1"
             d="m 157.4,341.8 307.3,-0.2"
             inkscape:connector-curvature="0" /></g><path
           id="path60"
           style="fill:#000000;fill-opacity:1;fill-rule:evenodd;stroke:none"
           d="m 151.8,341.8 6,3 v -6.1 z"
           inkscape:connector-curvature="0" /><path
           id="path62"
           style="fill:#000000;fill-opacity:1;fill-rule:evenodd;stroke:none"
           d="m 470.3,341.6 -6,-3 v 6 z"
           inkscape:connector-curvature="0" /><g
           id="g64"><text
             id="text68"
             style="font-variant:normal;font-weight:normal;font-size:18px;font-family:Carlito;-inkscape-font-specification:Carlito;writing-mode:lr-tb;fill:#000000;fill-opacity:1;fill-rule:nonzero;stroke:none"
             transform="matrix(1,0,0,-1,276.4,323.3)"><tspan
               id="tspan66"
               y="0"
               x="0 8.6940002 16.488001 22.392 31.374001 40.68">Extent</tspan></text>
</g><path
           id="path70"
           style="fill:#408000;fill-opacity:1;fill-rule:evenodd;stroke:none"
           d="m 172.4,353.4 h -16.8 v 25.2 h 33.7 v -25.2 z"
           inkscape:connector-curvature="0" /><g
           id="g72"><path
             id="path74"
             style="fill:none;stroke:#000000;stroke-width:2.23569989;stroke-linecap:butt;stroke-linejoin:round;stroke-miterlimit:10;stroke-dasharray:none;stroke-opacity:1"
             d="m 172.4,353.4 h -16.8 v 25.2 h 33.7 v -25.2 z"
             inkscape:connector-curvature="0" /></g><path
           id="path76"
           style="fill:#408000;fill-opacity:1;fill-rule:evenodd;stroke:none"
           d="m 206.9,353.4 h -16.8 v 25.2 h 33.7 v -25.2 z"
           inkscape:connector-curvature="0" /><g
           id="g78"><path
             id="path80"
             style="fill:none;stroke:#000000;stroke-width:2.23569989;stroke-linecap:butt;stroke-linejoin:round;stroke-miterlimit:10;stroke-dasharray:none;stroke-opacity:1"
             d="m 206.9,353.4 h -16.8 v 25.2 h 33.7 v -25.2 z"
             inkscape:connector-curvature="0" /></g><path
           id="path82"
           style="fill:#ffffff;fill-opacity:1;fill-rule:evenodd;stroke:none"
           d="m 241.4,353.4 h -16.8 v 25.2 h 33.7 v -25.2 z"
           inkscape:connector-curvature="0" /><g
           id="g84"><path
             id="path86"
             style="fill:none;stroke:#000000;stroke-width:2.23569989;stroke-linecap:butt;stroke-linejoin:round;stroke-miterlimit:10;stroke-dasharray:none;stroke-opacity:1"
             d="m 241.4,353.4 h -16.8 v 25.2 h 33.7 v -25.2 z"
             inkscape:connector-curvature="0" /></g><path
           id="path88"
           style="fill:#408000;fill-opacity:1;fill-rule:evenodd;stroke:none"
           d="M 275.9,352.9 H 259 v 25.2 h 33.7 v -25.2 z"
           inkscape:connector-curvature="0" /><g
           id="g90"><path
             id="path92"
             style="fill:none;stroke:#000000;stroke-width:2.23569989;stroke-linecap:butt;stroke-linejoin:round;stroke-miterlimit:10;stroke-dasharray:none;stroke-opacity:1"
             d="M 275.9,352.9 H 259 v 25.2 h 33.7 v -25.2 z"
             inkscape:connector-curvature="0" /></g><path
           id="path94"
           style="fill:#408000;fill-opacity:1;fill-rule:evenodd;stroke:none"
           d="m 310.4,352.9 h -16.9 v 25.2 h 33.7 v -25.2 z"
           inkscape:connector-curvature="0" /><g
           id="g96"><path
             id="path98"
             style="fill:none;stroke:#000000;stroke-width:2.23569989;stroke-linecap:butt;stroke-linejoin:round;stroke-miterlimit:10;stroke-dasharray:none;stroke-opacity:1"
             d="m 310.4,352.9 h -16.9 v 25.2 h 33.7 v -25.2 z"
             inkscape:connector-curvature="0" /></g><path
           id="path100"
           style="fill:#ffffff;fill-opacity:1;fill-rule:evenodd;stroke:none"
           d="M 344.9,352.9 H 328 v 25.2 h 33.7 v -25.2 z"
           inkscape:connector-curvature="0" /><g
           id="g102"><path
             id="path104"
             style="fill:none;stroke:#000000;stroke-width:2.23569989;stroke-linecap:butt;stroke-linejoin:round;stroke-miterlimit:10;stroke-dasharray:none;stroke-opacity:1"
             d="M 344.9,352.9 H 328 v 25.2 h 33.7 v -25.2 z"
             inkscape:connector-curvature="0" /></g><path
           id="path106"
           style="fill:#408000;fill-opacity:1;fill-rule:evenodd;stroke:none"
           d="M 378.8,352.9 H 362 v 25.2 h 33.7 v -25.2 z"
           inkscape:connector-curvature="0" /><g
           id="g108"><path
             id="path110"
             style="fill:none;stroke:#000000;stroke-width:2.23569989;stroke-linecap:butt;stroke-linejoin:round;stroke-miterlimit:10;stroke-dasharray:none;stroke-opacity:1"
             d="M 378.8,352.9 H 362 v 25.2 h 33.7 v -25.2 z"
             inkscape:connector-curvature="0" /></g><path
           id="path112"
           style="fill:#408000;fill-opacity:1;fill-rule:evenodd;stroke:none"
           d="m 413.3,352.9 h -16.8 v 25.2 h 33.7 v -25.2 z"
           inkscape:connector-curvature="0" /><g
           id="g114"><path
             id="path116"
             style="fill:none;stroke:#000000;stroke-width:2.23569989;stroke-linecap:butt;stroke-linejoin:round;stroke-miterlimit:10;stroke-dasharray:none;stroke-opacity:1"
             d="m 413.3,352.9 h -16.8 v 25.2 h 33.7 v -25.2 z"
             inkscape:connector-curvature="0" /></g><path
           id="path118"
           style="fill:#ffffff;fill-opacity:1;fill-rule:evenodd;stroke:none"
           d="M 447.8,352.9 H 431 v 25.2 h 33.7 v -25.2 z"
           inkscape:connector-curvature="0" /><g
           id="g120"><path
             id="path122"
             style="fill:none;stroke:#000000;stroke-width:2.23569989;stroke-linecap:butt;stroke-linejoin:round;stroke-miterlimit:10;stroke-dasharray:none;stroke-opacity:1"
             d="M 447.8,352.9 H 431 v 25.2 h 33.7 v -25.2 z"
             inkscape:connector-curvature="0" /></g><g
           id="g124"><text
             id="text128"
             style="font-variant:normal;font-weight:normal;font-size:18px;font-family:Carlito;-inkscape-font-specification:Carlito;writing-mode:lr-tb;fill:#000000;fill-opacity:1;fill-rule:nonzero;stroke:none"
             transform="matrix(1,0,0,-1,62.7,269.7)"><tspan
               id="tspan126"
               y="0"
               x="0 8.2799997 17.261999 26.658001 36.144001 40.23 49.716 58.122002 63.827999">Send data</tspan></text>
</g><g
           id="g130"><path
             id="path132"
             style="fill:none;stroke:#000000;stroke-width:2.00929999;stroke-linecap:butt;stroke-linejoin:miter;stroke-miterlimit:10;stroke-dasharray:none;stroke-opacity:1"
             d="m 157.4,253.4 301.7,-0.1"
             inkscape:connector-curvature="0" /></g><path
           id="path134"
           style="fill:#000000;fill-opacity:1;fill-rule:evenodd;stroke:none"
           d="m 151.8,253.4 6,3 v -6.1 z"
           inkscape:connector-curvature="0" /><path
           id="path136"
           style="fill:#000000;fill-opacity:1;fill-rule:evenodd;stroke:none"
           d="m 464.7,253.3 -6,-3 v 6.1 z"
           inkscape:connector-curvature="0" /><path
           id="path138"
           style="fill:#408000;fill-opacity:1;fill-rule:evenodd;stroke:none"
           d="m 172.4,265 h -16.8 v 25.2 h 33.7 V 265 Z"
           inkscape:connector-curvature="0" /><g
           id="g140"><path
             id="path142"
             style="fill:none;stroke:#000000;stroke-width:2.23569989;stroke-linecap:butt;stroke-linejoin:round;stroke-miterlimit:10;stroke-dasharray:none;stroke-opacity:1"
             d="m 172.4,265 h -16.8 v 25.2 h 33.7 V 265 Z"
             inkscape:connector-curvature="0" /></g><path
           id="path144"
           style="fill:#408000;fill-opacity:1;fill-rule:evenodd;stroke:none"
           d="m 206.9,265 h -16.8 v 25.2 h 33.7 V 265 Z"
           inkscape:connector-curvature="0" /><g
           id="g146"><path
             id="path148"
             style="fill:none;stroke:#000000;stroke-width:2.23569989;stroke-linecap:butt;stroke-linejoin:round;stroke-miterlimit:10;stroke-dasharray:none;stroke-opacity:1"
             d="m 206.9,265 h -16.8 v 25.2 h 33.7 V 265 Z"
             inkscape:connector-curvature="0" /></g><path
           id="path150"
           style="fill:#ffffff;fill-opacity:1;fill-rule:evenodd;stroke:none"
           d="m 241.4,265 h -16.8 v 25.2 h 33.7 V 265 Z"
           inkscape:connector-curvature="0" /><g
           id="g152"><path
             id="path154"
             style="fill:none;stroke:#000000;stroke-width:2.23569989;stroke-linecap:butt;stroke-linejoin:round;stroke-miterlimit:10;stroke-dasharray:none;stroke-opacity:1"
             d="m 241.4,265 h -16.8 v 25.2 h 33.7 V 265 Z"
             inkscape:connector-curvature="0" /></g><path
           id="path156"
           style="fill:#408000;fill-opacity:1;fill-rule:evenodd;stroke:none"
           d="M 275.9,264.5 H 259 v 25.2 h 33.7 v -25.2 z"
           inkscape:connector-curvature="0" /><g
           id="g158"><path
             id="path160"
             style="fill:none;stroke:#000000;stroke-width:2.23569989;stroke-linecap:butt;stroke-linejoin:round;stroke-miterlimit:10;stroke-dasharray:none;stroke-opacity:1"
             d="M 275.9,264.5 H 259 v 25.2 h 33.7 v -25.2 z"
             inkscape:connector-curvature="0" /></g><path
           id="path162"
           style="fill:#408000;fill-opacity:1;fill-rule:evenodd;stroke:none"
           d="m 310.4,264.5 h -16.9 v 25.2 h 33.7 v -25.2 z"
           inkscape:connector-curvature="0" /><g
           id="g164"><path
             id="path166"
             style="fill:none;stroke:#000000;stroke-width:2.23569989;stroke-linecap:butt;stroke-linejoin:round;stroke-miterlimit:10;stroke-dasharray:none;stroke-opacity:1"
             d="m 310.4,264.5 h -16.9 v 25.2 h 33.7 v -25.2 z"
             inkscape:connector-curvature="0" /></g><path
           id="path168"
           style="fill:#ffffff;fill-opacity:1;fill-rule:evenodd;stroke:none"
           d="M 344.9,264.5 H 328 v 25.2 h 33.7 v -25.2 z"
           inkscape:connector-curvature="0" /><g
           id="g170"><path
             id="path172"
             style="fill:none;stroke:#000000;stroke-width:2.23569989;stroke-linecap:butt;stroke-linejoin:round;stroke-miterlimit:10;stroke-dasharray:none;stroke-opacity:1"
             d="M 344.9,264.5 H 328 v 25.2 h 33.7 v -25.2 z"
             inkscape:connector-curvature="0" /></g><path
           id="path174"
           style="fill:#408000;fill-opacity:1;fill-rule:evenodd;stroke:none"
           d="M 378.8,264.5 H 362 v 25.2 h 33.7 v -25.2 z"
           inkscape:connector-curvature="0" /><g
           id="g176"><path
             id="path178"
             style="fill:none;stroke:#000000;stroke-width:2.23569989;stroke-linecap:butt;stroke-linejoin:round;stroke-miterlimit:10;stroke-dasharray:none;stroke-opacity:1"
             d="M 378.8,264.5 H 362 v 25.2 h 33.7 v -25.2 z"
             inkscape:connector-curvature="0" /></g><path
           id="path180"
           style="fill:#408000;fill-opacity:1;fill-rule:evenodd;stroke:none"
           d="m 413.3,264.5 h -16.8 v 25.2 h 33.7 v -25.2 z"
           inkscape:connector-curvature="0" /><g
           id="g182"><path
             id="path184"
             style="fill:none;stroke:#000000;stroke-width:2.23569989;stroke-linecap:butt;stroke-linejoin:round;stroke-miterlimit:10;stroke-dasharray:none;stroke-opacity:1"
             d="m 413.3,264.5 h -16.8 v 25.2 h 33.7 v -25.2 z"
             inkscape:connector-curvature="0" /></g><g
           id="g186"><text
             id="text190"
             style="font-variant:normal;font-weight:normal;font-size:18px;font-family:'DejaVu Sans Mono';-inkscape-font-specification:DejaVuSansMono;writing-mode:lr-tb;fill:#000000;fill-opacity:1;fill-rule:nonzero;stroke:none"
             transform="matrix(1,0,0,-1,58.3,296.3)"><tspan
               id="tspan188"
               y="0"
               x="0 10.8 21.6 32.400002 43.200001 54 64.800003 75.599998 86.400002 97.199997 108 118.8 129.60001 140.39999 151.2 162 172.8">MPI_Send(buffer, </tspan></text>
</g><g
           id="g192"><text
             id="text196"
             style="font-variant:normal;font-weight:bold;font-size:18px;font-family:'DejaVu Sans Mono';-inkscape-font-specification:DejaVuSansMono-Bold;writing-mode:lr-tb;fill:#000000;fill-opacity:1;fill-rule:nonzero;stroke:none"
             transform="matrix(1,0,0,-1,241.9,296.3)"><tspan
               id="tspan194"
               y="0"
               x="0 10.8 21.6 32.400002 43.200001 54 64.800003 75.599998 86.400002">count = 1</tspan></text>
</g><g
           id="g198"><text
             id="text202"
             style="font-variant:normal;font-weight:normal;font-size:18px;font-family:'DejaVu Sans Mono';-inkscape-font-specification:DejaVuSansMono;writing-mode:lr-tb;fill:#000000;fill-opacity:1;fill-rule:nonzero;stroke:none"
             transform="matrix(1,0,0,-1,339.1,296.3)"><tspan
               id="tspan200"
               y="0"
               x="0 10.8 21.6 32.400002 43.200001 54 64.800003 75.599998 86.400002 97.199997 108 118.8 129.60001 140.39999 151.2 162 172.8 183.60001 194.39999 205.2 216 226.8 237.60001 248.39999 259.20001 270">, n2type, dest, tag, comm)</tspan></text>
</g><g
           id="g204"><text
             id="text208"
             style="font-variant:normal;font-weight:normal;font-size:18px;font-family:Carlito;-inkscape-font-specification:Carlito;writing-mode:lr-tb;fill:#000000;fill-opacity:1;fill-rule:nonzero;stroke:none"
             transform="matrix(1,0,0,-1,62.7,173.3)"><tspan
               id="tspan206"
               y="0"
               x="0 8.2799997 17.261999 26.658001 36.144001 40.23 49.716 58.122002 63.827999">Send data</tspan></text>
</g><g
           id="g210"><path
             id="path212"
             style="fill:none;stroke:#000000;stroke-width:2.00929999;stroke-linecap:butt;stroke-linejoin:miter;stroke-miterlimit:10;stroke-dasharray:none;stroke-opacity:1"
             d="m 142.1,157 301.5,-0.3"
             inkscape:connector-curvature="0" /></g><path
           id="path214"
           style="fill:#000000;fill-opacity:1;fill-rule:evenodd;stroke:none"
           d="m 136.5,157 6,3 v -6 z"
           inkscape:connector-curvature="0" /><path
           id="path216"
           style="fill:#000000;fill-opacity:1;fill-rule:evenodd;stroke:none"
           d="m 449.2,156.7 -6,-3.1 v 6.1 z"
           inkscape:connector-curvature="0" /><g
           id="g218"><text
             id="text222"
             style="font-variant:normal;font-weight:normal;font-size:18px;font-family:Carlito;-inkscape-font-specification:Carlito;writing-mode:lr-tb;fill:#000000;fill-opacity:1;fill-rule:nonzero;stroke:none"
             transform="matrix(1,0,0,-1,231.8,135.5)"><tspan
               id="tspan220"
               y="0"
               x="0 8.6940002 12.798 21.780001 36.161999 45.144001 54.450001 60.444 64.529999">Element 1</tspan></text>
</g><path
           id="path224"
           style="fill:#408000;fill-opacity:1;fill-rule:evenodd;stroke:none"
           d="M 157.2,167.8 H 140.3 V 193 H 174 v -25.2 z"
           inkscape:connector-curvature="0" /><g
           id="g226"><path
             id="path228"
             style="fill:none;stroke:#000000;stroke-width:2.23569989;stroke-linecap:butt;stroke-linejoin:round;stroke-miterlimit:10;stroke-dasharray:none;stroke-opacity:1"
             d="M 157.2,167.8 H 140.3 V 193 H 174 v -25.2 z"
             inkscape:connector-curvature="0" /></g><path
           id="path230"
           style="fill:#408000;fill-opacity:1;fill-rule:evenodd;stroke:none"
           d="M 191.7,167.8 H 174.8 V 193 h 33.7 v -25.2 z"
           inkscape:connector-curvature="0" /><g
           id="g232"><path
             id="path234"
             style="fill:none;stroke:#000000;stroke-width:2.23569989;stroke-linecap:butt;stroke-linejoin:round;stroke-miterlimit:10;stroke-dasharray:none;stroke-opacity:1"
             d="M 191.7,167.8 H 174.8 V 193 h 33.7 v -25.2 z"
             inkscape:connector-curvature="0" /></g><path
           id="path236"
           style="fill:#ffffff;fill-opacity:1;fill-rule:evenodd;stroke:none"
           d="M 226.1,167.8 H 209.3 V 193 H 243 v -25.2 z"
           inkscape:connector-curvature="0" /><g
           id="g238"><path
             id="path240"
             style="fill:none;stroke:#000000;stroke-width:2.23569989;stroke-linecap:butt;stroke-linejoin:round;stroke-miterlimit:10;stroke-dasharray:none;stroke-opacity:1"
             d="M 226.1,167.8 H 209.3 V 193 H 243 v -25.2 z"
             inkscape:connector-curvature="0" /></g><path
           id="path242"
           style="fill:#408000;fill-opacity:1;fill-rule:evenodd;stroke:none"
           d="m 260.6,168.1 h -16.9 v 25.2 h 33.7 v -25.2 z"
           inkscape:connector-curvature="0" /><g
           id="g244"><path
             id="path246"
             style="fill:none;stroke:#000000;stroke-width:2.23569989;stroke-linecap:butt;stroke-linejoin:round;stroke-miterlimit:10;stroke-dasharray:none;stroke-opacity:1"
             d="m 260.6,168.1 h -16.9 v 25.2 h 33.7 v -25.2 z"
             inkscape:connector-curvature="0" /></g><path
           id="path248"
           style="fill:#408000;fill-opacity:1;fill-rule:evenodd;stroke:none"
           d="m 295.1,168.1 h -16.9 v 25.2 h 33.7 v -25.2 z"
           inkscape:connector-curvature="0" /><g
           id="g250"><path
             id="path252"
             style="fill:none;stroke:#000000;stroke-width:2.23569989;stroke-linecap:butt;stroke-linejoin:round;stroke-miterlimit:10;stroke-dasharray:none;stroke-opacity:1"
             d="m 295.1,168.1 h -16.9 v 25.2 h 33.7 v -25.2 z"
             inkscape:connector-curvature="0" /></g><path
           id="path254"
           style="fill:#ffffff;fill-opacity:1;fill-rule:evenodd;stroke:none"
           d="m 329.6,168.1 h -16.9 v 25.2 h 33.7 v -25.2 z"
           inkscape:connector-curvature="0" /><g
           id="g256"><path
             id="path258"
             style="fill:none;stroke:#000000;stroke-width:2.23569989;stroke-linecap:butt;stroke-linejoin:round;stroke-miterlimit:10;stroke-dasharray:none;stroke-opacity:1"
             d="m 329.6,168.1 h -16.9 v 25.2 h 33.7 v -25.2 z"
             inkscape:connector-curvature="0" /></g><path
           id="path260"
           style="fill:#408000;fill-opacity:1;fill-rule:evenodd;stroke:none"
           d="m 363.5,168.1 h -16.8 v 25.2 h 33.7 v -25.2 z"
           inkscape:connector-curvature="0" /><g
           id="g262"><path
             id="path264"
             style="fill:none;stroke:#000000;stroke-width:2.23569989;stroke-linecap:butt;stroke-linejoin:round;stroke-miterlimit:10;stroke-dasharray:none;stroke-opacity:1"
             d="m 363.5,168.1 h -16.8 v 25.2 h 33.7 v -25.2 z"
             inkscape:connector-curvature="0" /></g><path
           id="path266"
           style="fill:#408000;fill-opacity:1;fill-rule:evenodd;stroke:none"
           d="m 398,168.1 h -16.8 v 25.2 h 33.7 v -25.2 z"
           inkscape:connector-curvature="0" /><g
           id="g268"><path
             id="path270"
             style="fill:none;stroke:#000000;stroke-width:2.23569989;stroke-linecap:butt;stroke-linejoin:round;stroke-miterlimit:10;stroke-dasharray:none;stroke-opacity:1"
             d="m 398,168.1 h -16.8 v 25.2 h 33.7 v -25.2 z"
             inkscape:connector-curvature="0" /></g><g
           id="g272"><text
             id="text276"
             style="font-variant:normal;font-weight:normal;font-size:18px;font-family:'DejaVu Sans Mono';-inkscape-font-specification:DejaVuSansMono;writing-mode:lr-tb;fill:#000000;fill-opacity:1;fill-rule:nonzero;stroke:none"
             transform="matrix(1,0,0,-1,58.3,200.1)"><tspan
               id="tspan274"
               y="0"
               x="0 10.8 21.6 32.400002 43.200001 54 64.800003 75.599998 86.400002 97.199997 108 118.8 129.60001 140.39999 151.2 162 172.8">MPI_Send(buffer, </tspan></text>
</g><g
           id="g278"><text
             id="text282"
             style="font-variant:normal;font-weight:bold;font-size:18px;font-family:'DejaVu Sans Mono';-inkscape-font-specification:DejaVuSansMono-Bold;writing-mode:lr-tb;fill:#000000;fill-opacity:1;fill-rule:nonzero;stroke:none"
             transform="matrix(1,0,0,-1,241.9,200.1)"><tspan
               id="tspan280"
               y="0"
               x="0 10.8 21.6 32.400002 43.200001 54 64.800003 75.599998 86.400002">count = 2</tspan></text>
</g><g
           id="g284"><text
             id="text288"
             style="font-variant:normal;font-weight:normal;font-size:18px;font-family:'DejaVu Sans Mono';-inkscape-font-specification:DejaVuSansMono;writing-mode:lr-tb;fill:#000000;fill-opacity:1;fill-rule:nonzero;stroke:none"
             transform="matrix(1,0,0,-1,339.1,200.1)"><tspan
               id="tspan286"
               y="0"
               x="0 10.8 21.6 32.400002 43.200001 54 64.800003 75.599998 86.400002 97.199997 108 118.8 129.60001 140.39999 151.2 162 172.8 183.60001 194.39999 205.2 216 226.8 237.60001 248.39999 259.20001 270 280.79999">, newtype, dest, tag, comm)</tspan></text>
</g><path
           id="path290"
           style="fill:#408000;fill-opacity:1;fill-rule:evenodd;stroke:none"
           d="M 466.3,167.8 H 449.4 V 193 h 33.7 v -25.2 z"
           inkscape:connector-curvature="0" /><g
           id="g292"><path
             id="path294"
             style="fill:none;stroke:#000000;stroke-width:2.23569989;stroke-linecap:butt;stroke-linejoin:round;stroke-miterlimit:10;stroke-dasharray:none;stroke-opacity:1"
             d="M 466.3,167.8 H 449.4 V 193 h 33.7 v -25.2 z"
             inkscape:connector-curvature="0" /></g><path
           id="path296"
           style="fill:#408000;fill-opacity:1;fill-rule:evenodd;stroke:none"
           d="M 500.8,167.8 H 483.9 V 193 h 33.7 v -25.2 z"
           inkscape:connector-curvature="0" /><g
           id="g298"><path
             id="path300"
             style="fill:none;stroke:#000000;stroke-width:2.23569989;stroke-linecap:butt;stroke-linejoin:round;stroke-miterlimit:10;stroke-dasharray:none;stroke-opacity:1"
             d="M 500.8,167.8 H 483.9 V 193 h 33.7 v -25.2 z"
             inkscape:connector-curvature="0" /></g><path
           id="path302"
           style="fill:#ffffff;fill-opacity:1;fill-rule:evenodd;stroke:none"
           d="M 535.3,167.8 H 518.4 V 193 h 33.7 v -25.2 z"
           inkscape:connector-curvature="0" /><g
           id="g304"><path
             id="path306"
             style="fill:none;stroke:#000000;stroke-width:2.23569989;stroke-linecap:butt;stroke-linejoin:round;stroke-miterlimit:10;stroke-dasharray:none;stroke-opacity:1"
             d="M 535.3,167.8 H 518.4 V 193 h 33.7 v -25.2 z"
             inkscape:connector-curvature="0" /></g><path
           id="path308"
           style="fill:#408000;fill-opacity:1;fill-rule:evenodd;stroke:none"
           d="m 569.7,168.2 h -16.8 v 25.2 h 33.7 v -25.2 z"
           inkscape:connector-curvature="0" /><g
           id="g310"><path
             id="path312"
             style="fill:none;stroke:#000000;stroke-width:2.23569989;stroke-linecap:butt;stroke-linejoin:round;stroke-miterlimit:10;stroke-dasharray:none;stroke-opacity:1"
             d="m 569.7,168.2 h -16.8 v 25.2 h 33.7 v -25.2 z"
             inkscape:connector-curvature="0" /></g><path
           id="path314"
           style="fill:#408000;fill-opacity:1;fill-rule:evenodd;stroke:none"
           d="m 604.2,168.2 h -16.8 v 25.2 h 33.7 v -25.2 z"
           inkscape:connector-curvature="0" /><g
           id="g316"><path
             id="path318"
             style="fill:none;stroke:#000000;stroke-width:2.23569989;stroke-linecap:butt;stroke-linejoin:round;stroke-miterlimit:10;stroke-dasharray:none;stroke-opacity:1"
             d="m 604.2,168.2 h -16.8 v 25.2 h 33.7 v -25.2 z"
             inkscape:connector-curvature="0" /></g><path
           id="path320"
           style="fill:#ffffff;fill-opacity:1;fill-rule:evenodd;stroke:none"
           d="m 638.7,168.2 h -16.8 v 25.2 h 33.7 v -25.2 z"
           inkscape:connector-curvature="0" /><g
           id="g322"><path
             id="path324"
             style="fill:none;stroke:#000000;stroke-width:2.23569989;stroke-linecap:butt;stroke-linejoin:round;stroke-miterlimit:10;stroke-dasharray:none;stroke-opacity:1"
             d="m 638.7,168.2 h -16.8 v 25.2 h 33.7 v -25.2 z"
             inkscape:connector-curvature="0" /></g><path
           id="path326"
           style="fill:#408000;fill-opacity:1;fill-rule:evenodd;stroke:none"
           d="m 672.7,168.2 h -16.9 v 25.2 h 33.7 v -25.2 z"
           inkscape:connector-curvature="0" /><g
           id="g328"><path
             id="path330"
             style="fill:none;stroke:#000000;stroke-width:2.23569989;stroke-linecap:butt;stroke-linejoin:round;stroke-miterlimit:10;stroke-dasharray:none;stroke-opacity:1"
             d="m 672.7,168.2 h -16.9 v 25.2 h 33.7 v -25.2 z"
             inkscape:connector-curvature="0" /></g><path
           id="path332"
           style="fill:#408000;fill-opacity:1;fill-rule:evenodd;stroke:none"
           d="m 707.2,168.2 h -16.9 v 25.2 H 724 v -25.2 z"
           inkscape:connector-curvature="0" /><g
           id="g334"><path
             id="path336"
             style="fill:none;stroke:#000000;stroke-width:2.23569989;stroke-linecap:butt;stroke-linejoin:round;stroke-miterlimit:10;stroke-dasharray:none;stroke-opacity:1"
             d="m 707.2,168.2 h -16.9 v 25.2 H 724 v -25.2 z"
             inkscape:connector-curvature="0" /></g><g
           id="g338"><path
             id="path340"
             style="fill:none;stroke:#000000;stroke-width:2.00929999;stroke-linecap:butt;stroke-linejoin:miter;stroke-miterlimit:10;stroke-dasharray:none;stroke-opacity:1"
             d="m 454.9,156.7 296.8,0.2"
             inkscape:connector-curvature="0" /></g><path
           id="path342"
           style="fill:#000000;fill-opacity:1;fill-rule:evenodd;stroke:none"
           d="m 449.3,156.7 6,3 v -6.1 z"
           inkscape:connector-curvature="0" /><path
           id="path344"
           style="fill:#000000;fill-opacity:1;fill-rule:evenodd;stroke:none"
           d="m 757.3,156.9 -6,-3 v 6 z"
           inkscape:connector-curvature="0" /><g
           id="g346"><text
             id="text350"
             style="font-variant:normal;font-weight:normal;font-size:18px;font-family:Carlito;-inkscape-font-specification:Carlito;writing-mode:lr-tb;fill:#000000;fill-opacity:1;fill-rule:nonzero;stroke:none"
             transform="matrix(1,0,0,-1,542.2,137.2)"><tspan
               id="tspan348"
               y="0"
               x="0 8.7840004 12.888 21.870001 36.251999 45.234001 54.431999 60.425999 64.512001">Element 2</tspan></text>
</g><g
           id="g352"><text
             id="text356"
             style="font-variant:normal;font-weight:normal;font-size:18px;font-family:Carlito;-inkscape-font-specification:Carlito;writing-mode:lr-tb;fill:#000000;fill-opacity:1;fill-rule:nonzero;stroke:none"
             transform="matrix(1,0,0,-1,247.2,234)"><tspan
               id="tspan354"
               y="0"
               x="0 8.6940002 12.798 21.780001 36.161999 45.144001 54.450001 60.444 64.529999">Element 1</tspan></text>
</g><path
           id="path358"
           style="fill:#ffffff;fill-opacity:1;fill-rule:evenodd;stroke:none"
           d="m 448.2,265.1 h -16.9 v 25.3 H 465 v -25.3 z"
           inkscape:connector-curvature="0" /><g
           id="g360"><path
             id="path362"
             style="fill:none;stroke:#000000;stroke-width:2.23569989;stroke-linecap:butt;stroke-linejoin:round;stroke-miterlimit:10;stroke-dasharray:none;stroke-opacity:1"
             d="m 448.2,265.1 h -16.9 v 25.3 H 465 v -25.3 z"
             inkscape:connector-curvature="0" /></g><path
           id="path364"
           style="fill:#ffffff;fill-opacity:1;fill-rule:evenodd;stroke:none"
           d="m 737.6,167.6 h -16.8 v 25.2 h 33.7 v -25.2 z"
           inkscape:connector-curvature="0" /><g
           id="g366"><path
             id="path368"
             style="fill:none;stroke:#000000;stroke-width:2.23569989;stroke-linecap:butt;stroke-linejoin:round;stroke-miterlimit:10;stroke-dasharray:none;stroke-opacity:1"
             d="m 737.6,167.6 h -16.8 v 25.2 h 33.7 v -25.2 z"
             inkscape:connector-curvature="0" /></g><path
           id="path370"
           style="fill:#ffffff;fill-opacity:1;fill-rule:evenodd;stroke:none"
           d="m 432.3,168.2 h -16.9 v 25.2 h 33.7 v -25.2 z"
           inkscape:connector-curvature="0" /><g
           id="g372"><path
             id="path374"
             style="fill:none;stroke:#000000;stroke-width:2.23569989;stroke-linecap:butt;stroke-linejoin:round;stroke-miterlimit:10;stroke-dasharray:none;stroke-opacity:1"
             d="m 432.3,168.2 h -16.9 v 25.2 h 33.7 v -25.2 z"
             inkscape:connector-curvature="0" /></g></g></g></g></svg>