<?xml version="1.0" encoding="UTF-8" standalone="no"?>
<svg
   xmlns:dc="http://purl.org/dc/elements/1.1/"
   xmlns:cc="http://creativecommons.org/ns#"
   xmlns:rdf="http://www.w3.org/1999/02/22-rdf-syntax-ns#"
   xmlns:svg="http://www.w3.org/2000/svg"
   xmlns="http://www.w3.org/2000/svg"
   xmlns:sodipodi="http://sodipodi.sourceforge.net/DTD/sodipodi-0.dtd"
   xmlns:inkscape="http://www.inkscape.org/namespaces/inkscape"
   viewBox="0 0 866.78725 112.38733"
   height="112.38733"
   width="866.78729"
   xml:space="preserve"
   id="svg2"
   version="1.1"
   sodipodi:docname="typemap.svg"
   inkscape:version="0.92.2 (5c3e80d, 2017-08-06)"><sodipodi:namedview
     pagecolor="#ffffff"
     bordercolor="#666666"
     borderopacity="1"
     objecttolerance="10"
     gridtolerance="10"
     guidetolerance="10"
     inkscape:pageopacity="0"
     inkscape:pageshadow="2"
     inkscape:window-width="640"
     inkscape:window-height="480"
     id="namedview10751"
     showgrid="false"
     inkscape:zoom="0.297479"
     inkscape:cx="483.46037"
     inkscape:cy="75.060353"
     inkscape:window-x="0"
     inkscape:window-y="28"
     inkscape:window-maximized="0"
     inkscape:current-layer="g14" /><metadata
     id="metadata8"><rdf:RDF><cc:Work
         rdf:about=""><dc:format>image/svg+xml</dc:format><dc:type
           rdf:resource="http://purl.org/dc/dcmitype/StillImage" /></cc:Work></rdf:RDF></metadata><defs
     id="defs6"><clipPath
       id="clipPath18"
       clipPathUnits="userSpaceOnUse"><path
         style="clip-rule:evenodd"
         id="path16"
         d="M 0,-0.2 H 793.6 V 595 H 0 Z"
         inkscape:connector-curvature="0" /></clipPath></defs><g
     transform="matrix(1.3333333,0,0,-1.3333333,-45.872999,433.99366)"
     id="g10"><g
       id="g12"><g
         clip-path="url(#clipPath18)"
         id="g14"><g
           id="g22" /><g
           id="g24" /><path
           id="path26"
           style="fill:#ccff66;fill-opacity:1;fill-rule:evenodd;stroke:none"
           d="m 34.9,316.2 v 0 0.4 l 0.1,0.5 v 0.4 l 0.1,0.5 0.1,0.5 0.1,0.4 0.2,0.4 0.2,0.5 0.2,0.4 0.2,0.4 0.2,0.4 0.3,0.3 0.3,0.4 0.3,0.4 0.3,0.3 0.3,0.3 0.4,0.3 0.3,0.3 0.4,0.3 0.4,0.2 0.4,0.2 0.4,0.2 0.4,0.2 0.5,0.1 0.4,0.2 0.5,0.1 0.4,0.1 h 0.5 l 0.4,0.1 h 0.5 631.5 v 0 h 0.4 l 0.5,-0.1 h 0.4 l 0.5,-0.1 0.4,-0.1 0.5,-0.2 0.4,-0.1 0.4,-0.2 0.5,-0.2 0.3,-0.2 0.4,-0.2 0.4,-0.3 0.4,-0.3 0.3,-0.3 0.4,-0.3 0.3,-0.3 0.3,-0.4 0.3,-0.4 0.2,-0.3 0.3,-0.4 0.2,-0.4 0.2,-0.4 0.1,-0.5 0.2,-0.4 0.1,-0.4 0.1,-0.5 0.1,-0.5 0.1,-0.4 v -0.5 -0.4 l 0.1,-65.6 v 0 -0.5 l -0.1,-0.4 v -0.5 l -0.1,-0.5 -0.1,-0.4 -0.2,-0.5 -0.1,-0.4 -0.2,-0.4 -0.2,-0.4 -0.2,-0.4 -0.2,-0.4 -0.3,-0.4 -0.3,-0.4 -0.3,-0.3 -0.3,-0.3 -0.3,-0.4 -0.4,-0.3 -0.4,-0.3 -0.3,-0.2 -0.4,-0.2 -0.4,-0.3 -0.4,-0.2 -0.5,-0.1 -0.4,-0.2 -0.4,-0.1 -0.5,-0.1 -0.5,-0.1 -0.4,-0.1 h -0.5 -0.4 L 43.7,241.7 v 0 h -0.5 l -0.4,0.1 -0.5,0.1 h -0.4 l -0.5,0.2 -0.4,0.1 -0.5,0.1 -0.4,0.2 -0.4,0.2 -0.4,0.2 -0.4,0.3 -0.4,0.2 -0.3,0.3 -0.4,0.3 -0.3,0.3 -0.3,0.4 -0.3,0.3 -0.3,0.4 -0.3,0.3 -0.2,0.4 -0.2,0.4 -0.2,0.5 -0.2,0.4 -0.2,0.4 -0.1,0.5 -0.1,0.4 -0.1,0.5 v 0.4 l -0.1,0.5 v 0.4 z m 0,8.8 z M 684,241.7 Z"
           inkscape:connector-curvature="0" /><g
           id="g28"><path
             id="path30"
             style="fill:none;stroke:#000000;stroke-width:0.99049997;stroke-linecap:butt;stroke-linejoin:miter;stroke-miterlimit:7.66129017;stroke-dasharray:none;stroke-opacity:1"
             d="m 34.9,316.2 v 0 0.4 l 0.1,0.5 v 0.4 l 0.1,0.5 0.1,0.5 0.1,0.4 0.2,0.4 0.2,0.5 0.2,0.4 0.2,0.4 0.2,0.4 0.3,0.3 0.3,0.4 0.3,0.4 0.3,0.3 0.3,0.3 0.4,0.3 0.3,0.3 0.4,0.3 0.4,0.2 0.4,0.2 0.4,0.2 0.4,0.2 0.5,0.1 0.4,0.2 0.5,0.1 0.4,0.1 h 0.5 l 0.4,0.1 h 0.5 631.5 v 0 h 0.4 l 0.5,-0.1 h 0.4 l 0.5,-0.1 0.4,-0.1 0.5,-0.2 0.4,-0.1 0.4,-0.2 0.5,-0.2 0.3,-0.2 0.4,-0.2 0.4,-0.3 0.4,-0.3 0.3,-0.3 0.4,-0.3 0.3,-0.3 0.3,-0.4 0.3,-0.4 0.2,-0.3 0.3,-0.4 0.2,-0.4 0.2,-0.4 0.1,-0.5 0.2,-0.4 0.1,-0.4 0.1,-0.5 0.1,-0.5 0.1,-0.4 v -0.5 -0.4 l 0.1,-65.6 v 0 -0.5 l -0.1,-0.4 v -0.5 l -0.1,-0.5 -0.1,-0.4 -0.2,-0.5 -0.1,-0.4 -0.2,-0.4 -0.2,-0.4 -0.2,-0.4 -0.2,-0.4 -0.3,-0.4 -0.3,-0.4 -0.3,-0.3 -0.3,-0.3 -0.3,-0.4 -0.4,-0.3 -0.4,-0.3 -0.3,-0.2 -0.4,-0.2 -0.4,-0.3 -0.4,-0.2 -0.5,-0.1 -0.4,-0.2 -0.4,-0.1 -0.5,-0.1 -0.5,-0.1 -0.4,-0.1 h -0.5 -0.4 L 43.7,241.7 v 0 h -0.5 l -0.4,0.1 -0.5,0.1 h -0.4 l -0.5,0.2 -0.4,0.1 -0.5,0.1 -0.4,0.2 -0.4,0.2 -0.4,0.2 -0.4,0.3 -0.4,0.2 -0.3,0.3 -0.4,0.3 -0.3,0.3 -0.3,0.4 -0.3,0.3 -0.3,0.4 -0.3,0.3 -0.2,0.4 -0.2,0.4 -0.2,0.5 -0.2,0.4 -0.2,0.4 -0.1,0.5 -0.1,0.4 -0.1,0.5 v 0.4 l -0.1,0.5 v 0.4 z"
             inkscape:connector-curvature="0" /></g><g
           id="g32"><path
             id="path34"
             style="fill:none;stroke:#000000;stroke-width:0.99049997;stroke-linecap:butt;stroke-linejoin:miter;stroke-miterlimit:7.66129017;stroke-dasharray:none;stroke-opacity:1"
             d="M 34.9,325 Z"
             inkscape:connector-curvature="0" /></g><g
           id="g36"><path
             id="path38"
             style="fill:none;stroke:#000000;stroke-width:0.99049997;stroke-linecap:butt;stroke-linejoin:miter;stroke-miterlimit:7.66129017;stroke-dasharray:none;stroke-opacity:1"
             d="M 684,241.7 Z"
             inkscape:connector-curvature="0" /></g><path
           id="path40"
           style="fill:#408000;fill-opacity:1;fill-rule:evenodd;stroke:none"
           d="m 195.8,249.5 h -9.2 v 28.1 h 18.3 v -28.1 z"
           inkscape:connector-curvature="0" /><g
           id="g42"><path
             id="path44"
             style="fill:none;stroke:#000000;stroke-width:0.99049997;stroke-linecap:butt;stroke-linejoin:miter;stroke-miterlimit:7.66129017;stroke-dasharray:none;stroke-opacity:1"
             d="m 195.8,249.5 h -9.2 v 28.1 h 18.3 v -28.1 z"
             inkscape:connector-curvature="0" /></g><path
           id="path46"
           style="fill:#408000;fill-opacity:1;fill-rule:evenodd;stroke:none"
           d="m 214,249.5 h -9.1 v 28.1 h 18.3 v -28.1 z"
           inkscape:connector-curvature="0" /><g
           id="g48"><path
             id="path50"
             style="fill:none;stroke:#000000;stroke-width:0.99049997;stroke-linecap:butt;stroke-linejoin:miter;stroke-miterlimit:7.66129017;stroke-dasharray:none;stroke-opacity:1"
             d="m 214,249.5 h -9.1 v 28.1 h 18.3 v -28.1 z"
             inkscape:connector-curvature="0" /></g><path
           id="path52"
           style="fill:#408000;fill-opacity:1;fill-rule:evenodd;stroke:none"
           d="m 232.3,249.5 h -9.1 v 28.1 h 18.3 v -28.1 z"
           inkscape:connector-curvature="0" /><g
           id="g54"><path
             id="path56"
             style="fill:none;stroke:#000000;stroke-width:0.99049997;stroke-linecap:butt;stroke-linejoin:miter;stroke-miterlimit:7.66129017;stroke-dasharray:none;stroke-opacity:1"
             d="m 232.3,249.5 h -9.1 v 28.1 h 18.3 v -28.1 z"
             inkscape:connector-curvature="0" /></g><path
           id="path58"
           style="fill:#408000;fill-opacity:1;fill-rule:evenodd;stroke:none"
           d="m 250.6,249.5 h -9.1 v 28.1 h 18.2 v -28.1 z"
           inkscape:connector-curvature="0" /><g
           id="g60"><path
             id="path62"
             style="fill:none;stroke:#000000;stroke-width:0.99049997;stroke-linecap:butt;stroke-linejoin:miter;stroke-miterlimit:7.66129017;stroke-dasharray:none;stroke-opacity:1"
             d="m 250.6,249.5 h -9.1 v 28.1 h 18.2 v -28.1 z"
             inkscape:connector-curvature="0" /></g><path
           id="path64"
           style="fill:#408000;fill-opacity:1;fill-rule:evenodd;stroke:none"
           d="m 122.6,249.5 h -9.1 v 28.1 h 18.3 v -28.1 z"
           inkscape:connector-curvature="0" /><g
           id="g66"><path
             id="path68"
             style="fill:none;stroke:#000000;stroke-width:0.99049997;stroke-linecap:butt;stroke-linejoin:miter;stroke-miterlimit:7.66129017;stroke-dasharray:none;stroke-opacity:1"
             d="m 122.6,249.5 h -9.1 v 28.1 h 18.3 v -28.1 z"
             inkscape:connector-curvature="0" /></g><path
           id="path70"
           style="fill:#408000;fill-opacity:1;fill-rule:evenodd;stroke:none"
           d="m 140.9,249.5 h -9.1 v 28.1 H 150 v -28.1 z"
           inkscape:connector-curvature="0" /><g
           id="g72"><path
             id="path74"
             style="fill:none;stroke:#000000;stroke-width:0.99049997;stroke-linecap:butt;stroke-linejoin:miter;stroke-miterlimit:7.66129017;stroke-dasharray:none;stroke-opacity:1"
             d="m 140.9,249.5 h -9.1 v 28.1 H 150 v -28.1 z"
             inkscape:connector-curvature="0" /></g><path
           id="path76"
           style="fill:#408000;fill-opacity:1;fill-rule:evenodd;stroke:none"
           d="m 159.2,249.5 h -9.1 v 28.1 h 18.2 v -28.1 z"
           inkscape:connector-curvature="0" /><g
           id="g78"><path
             id="path80"
             style="fill:none;stroke:#000000;stroke-width:0.99049997;stroke-linecap:butt;stroke-linejoin:miter;stroke-miterlimit:7.66129017;stroke-dasharray:none;stroke-opacity:1"
             d="m 159.2,249.5 h -9.1 v 28.1 h 18.2 v -28.1 z"
             inkscape:connector-curvature="0" /></g><path
           id="path82"
           style="fill:#408000;fill-opacity:1;fill-rule:evenodd;stroke:none"
           d="m 177.5,249.5 h -9.2 v 28.1 h 18.3 v -28.1 z"
           inkscape:connector-curvature="0" /><g
           id="g84"><path
             id="path86"
             style="fill:none;stroke:#000000;stroke-width:0.99049997;stroke-linecap:butt;stroke-linejoin:miter;stroke-miterlimit:7.66129017;stroke-dasharray:none;stroke-opacity:1"
             d="m 177.5,249.5 h -9.2 v 28.1 h 18.3 v -28.1 z"
             inkscape:connector-curvature="0" /></g><path
           id="path88"
           style="fill:#0000ff;fill-opacity:1;fill-rule:evenodd;stroke:none"
           d="m 122.6,290.5 h -9.1 v 28.1 h 18.3 v -28.1 z"
           inkscape:connector-curvature="0" /><g
           id="g90"><path
             id="path92"
             style="fill:none;stroke:#000000;stroke-width:0.99049997;stroke-linecap:butt;stroke-linejoin:miter;stroke-miterlimit:7.66129017;stroke-dasharray:none;stroke-opacity:1"
             d="m 122.6,290.5 h -9.1 v 28.1 h 18.3 v -28.1 z"
             inkscape:connector-curvature="0" /></g><path
           id="path94"
           style="fill:#0000ff;fill-opacity:1;fill-rule:evenodd;stroke:none"
           d="m 140.9,290.5 h -9.1 v 28.1 H 150 v -28.1 z"
           inkscape:connector-curvature="0" /><g
           id="g96"><path
             id="path98"
             style="fill:none;stroke:#000000;stroke-width:0.99049997;stroke-linecap:butt;stroke-linejoin:miter;stroke-miterlimit:7.66129017;stroke-dasharray:none;stroke-opacity:1"
             d="m 140.9,290.5 h -9.1 v 28.1 H 150 v -28.1 z"
             inkscape:connector-curvature="0" /></g><path
           id="path100"
           style="fill:#0000ff;fill-opacity:1;fill-rule:evenodd;stroke:none"
           d="m 159.2,290.5 h -9.1 v 28.1 h 18.2 v -28.1 z"
           inkscape:connector-curvature="0" /><g
           id="g102"><path
             id="path104"
             style="fill:none;stroke:#000000;stroke-width:0.99049997;stroke-linecap:butt;stroke-linejoin:miter;stroke-miterlimit:7.66129017;stroke-dasharray:none;stroke-opacity:1"
             d="m 159.2,290.5 h -9.1 v 28.1 h 18.2 v -28.1 z"
             inkscape:connector-curvature="0" /></g><path
           id="path106"
           style="fill:#0000ff;fill-opacity:1;fill-rule:evenodd;stroke:none"
           d="m 177.5,290.5 h -9.2 v 28.1 h 18.3 v -28.1 z"
           inkscape:connector-curvature="0" /><g
           id="g108"><path
             id="path110"
             style="fill:none;stroke:#000000;stroke-width:0.99049997;stroke-linecap:butt;stroke-linejoin:miter;stroke-miterlimit:7.66129017;stroke-dasharray:none;stroke-opacity:1"
             d="m 177.5,290.5 h -9.2 v 28.1 h 18.3 v -28.1 z"
             inkscape:connector-curvature="0" /></g><g
           id="g112"><text
             id="text116"
             style="font-variant:normal;font-weight:bold;font-size:18px;font-family:Carlito;-inkscape-font-specification:Carlito-Bold;writing-mode:lr-tb;fill:#000000;fill-opacity:1;fill-rule:nonzero;stroke:none"
             transform="matrix(1,0,0,-1,62.3,296.5)"><tspan
               id="tspan114"
               y="0"
               x="0 4.7880001 14.292">Int</tspan></text>
</g><g
           id="g118"><text
             id="text122"
             style="font-variant:normal;font-weight:bold;font-size:18px;font-family:Carlito;-inkscape-font-specification:Carlito-Bold;writing-mode:lr-tb;fill:#000000;fill-opacity:1;fill-rule:nonzero;stroke:none"
             transform="matrix(1,0,0,-1,44.8,255.5)"><tspan
               id="tspan120"
               y="0"
               x="0 11.376 21.059999 30.653999 40.248001 44.73">Double</tspan></text>
</g><path
           id="path124"
           style="fill:#408000;fill-opacity:1;fill-rule:evenodd;stroke:none"
           d="m 595.9,289.3 h -9.1 v 28.1 H 605 v -28.1 z"
           inkscape:connector-curvature="0" /><g
           id="g126"><path
             id="path128"
             style="fill:none;stroke:#000000;stroke-width:0.99049997;stroke-linecap:butt;stroke-linejoin:miter;stroke-miterlimit:7.66129017;stroke-dasharray:none;stroke-opacity:1"
             d="m 595.9,289.3 h -9.1 v 28.1 H 605 v -28.1 z"
             inkscape:connector-curvature="0" /></g><path
           id="path130"
           style="fill:#408000;fill-opacity:1;fill-rule:evenodd;stroke:none"
           d="m 614.2,289.3 h -9.1 v 28.1 h 18.2 v -28.1 z"
           inkscape:connector-curvature="0" /><g
           id="g132"><path
             id="path134"
             style="fill:none;stroke:#000000;stroke-width:0.99049997;stroke-linecap:butt;stroke-linejoin:miter;stroke-miterlimit:7.66129017;stroke-dasharray:none;stroke-opacity:1"
             d="m 614.2,289.3 h -9.1 v 28.1 h 18.2 v -28.1 z"
             inkscape:connector-curvature="0" /></g><path
           id="path136"
           style="fill:#408000;fill-opacity:1;fill-rule:evenodd;stroke:none"
           d="m 632.5,289.3 h -9.2 v 28.1 h 18.3 v -28.1 z"
           inkscape:connector-curvature="0" /><g
           id="g138"><path
             id="path140"
             style="fill:none;stroke:#000000;stroke-width:0.99049997;stroke-linecap:butt;stroke-linejoin:miter;stroke-miterlimit:7.66129017;stroke-dasharray:none;stroke-opacity:1"
             d="m 632.5,289.3 h -9.2 v 28.1 h 18.3 v -28.1 z"
             inkscape:connector-curvature="0" /></g><path
           id="path142"
           style="fill:#408000;fill-opacity:1;fill-rule:evenodd;stroke:none"
           d="m 650.7,289.3 h -9.1 v 28.1 h 18.3 v -28.1 z"
           inkscape:connector-curvature="0" /><g
           id="g144"><path
             id="path146"
             style="fill:none;stroke:#000000;stroke-width:0.99049997;stroke-linecap:butt;stroke-linejoin:miter;stroke-miterlimit:7.66129017;stroke-dasharray:none;stroke-opacity:1"
             d="m 650.7,289.3 h -9.1 v 28.1 h 18.3 v -28.1 z"
             inkscape:connector-curvature="0" /></g><path
           id="path148"
           style="fill:#408000;fill-opacity:1;fill-rule:evenodd;stroke:none"
           d="m 522.8,289.3 h -9.2 v 28.1 h 18.3 v -28.1 z"
           inkscape:connector-curvature="0" /><g
           id="g150"><path
             id="path152"
             style="fill:none;stroke:#000000;stroke-width:0.99049997;stroke-linecap:butt;stroke-linejoin:miter;stroke-miterlimit:7.66129017;stroke-dasharray:none;stroke-opacity:1"
             d="m 522.8,289.3 h -9.2 v 28.1 h 18.3 v -28.1 z"
             inkscape:connector-curvature="0" /></g><path
           id="path154"
           style="fill:#408000;fill-opacity:1;fill-rule:evenodd;stroke:none"
           d="m 541,289.3 h -9.1 v 28.1 h 18.3 v -28.1 z"
           inkscape:connector-curvature="0" /><g
           id="g156"><path
             id="path158"
             style="fill:none;stroke:#000000;stroke-width:0.99049997;stroke-linecap:butt;stroke-linejoin:miter;stroke-miterlimit:7.66129017;stroke-dasharray:none;stroke-opacity:1"
             d="m 541,289.3 h -9.1 v 28.1 h 18.3 v -28.1 z"
             inkscape:connector-curvature="0" /></g><path
           id="path160"
           style="fill:#408000;fill-opacity:1;fill-rule:evenodd;stroke:none"
           d="m 559.3,289.3 h -9.1 v 28.1 h 18.3 v -28.1 z"
           inkscape:connector-curvature="0" /><g
           id="g162"><path
             id="path164"
             style="fill:none;stroke:#000000;stroke-width:0.99049997;stroke-linecap:butt;stroke-linejoin:miter;stroke-miterlimit:7.66129017;stroke-dasharray:none;stroke-opacity:1"
             d="m 559.3,289.3 h -9.1 v 28.1 h 18.3 v -28.1 z"
             inkscape:connector-curvature="0" /></g><path
           id="path166"
           style="fill:#408000;fill-opacity:1;fill-rule:evenodd;stroke:none"
           d="m 577.6,289.3 h -9.1 v 28.1 h 18.2 v -28.1 z"
           inkscape:connector-curvature="0" /><g
           id="g168"><path
             id="path170"
             style="fill:none;stroke:#000000;stroke-width:0.99049997;stroke-linecap:butt;stroke-linejoin:miter;stroke-miterlimit:7.66129017;stroke-dasharray:none;stroke-opacity:1"
             d="m 577.6,289.3 h -9.1 v 28.1 h 18.2 v -28.1 z"
             inkscape:connector-curvature="0" /></g><path
           id="path172"
           style="fill:#0000ff;fill-opacity:1;fill-rule:evenodd;stroke:none"
           d="m 377.2,289.3 h -9.1 v 28.1 h 18.2 v -28.1 z"
           inkscape:connector-curvature="0" /><g
           id="g174"><path
             id="path176"
             style="fill:none;stroke:#000000;stroke-width:0.99049997;stroke-linecap:butt;stroke-linejoin:miter;stroke-miterlimit:7.66129017;stroke-dasharray:none;stroke-opacity:1"
             d="m 377.2,289.3 h -9.1 v 28.1 h 18.2 v -28.1 z"
             inkscape:connector-curvature="0" /></g><path
           id="path178"
           style="fill:#0000ff;fill-opacity:1;fill-rule:evenodd;stroke:none"
           d="m 395.5,289.3 h -9.2 v 28.1 h 18.3 v -28.1 z"
           inkscape:connector-curvature="0" /><g
           id="g180"><path
             id="path182"
             style="fill:none;stroke:#000000;stroke-width:0.99049997;stroke-linecap:butt;stroke-linejoin:miter;stroke-miterlimit:7.66129017;stroke-dasharray:none;stroke-opacity:1"
             d="m 395.5,289.3 h -9.2 v 28.1 h 18.3 v -28.1 z"
             inkscape:connector-curvature="0" /></g><path
           id="path184"
           style="fill:#0000ff;fill-opacity:1;fill-rule:evenodd;stroke:none"
           d="m 413.7,289.3 h -9.1 v 28.1 h 18.3 v -28.1 z"
           inkscape:connector-curvature="0" /><g
           id="g186"><path
             id="path188"
             style="fill:none;stroke:#000000;stroke-width:0.99049997;stroke-linecap:butt;stroke-linejoin:miter;stroke-miterlimit:7.66129017;stroke-dasharray:none;stroke-opacity:1"
             d="m 413.7,289.3 h -9.1 v 28.1 h 18.3 v -28.1 z"
             inkscape:connector-curvature="0" /></g><path
           id="path190"
           style="fill:#0000ff;fill-opacity:1;fill-rule:evenodd;stroke:none"
           d="m 432,289.3 h -9.1 v 28.1 h 18.3 v -28.1 z"
           inkscape:connector-curvature="0" /><g
           id="g192"><path
             id="path194"
             style="fill:none;stroke:#000000;stroke-width:0.99049997;stroke-linecap:butt;stroke-linejoin:miter;stroke-miterlimit:7.66129017;stroke-dasharray:none;stroke-opacity:1"
             d="m 432,289.3 h -9.1 v 28.1 h 18.3 v -28.1 z"
             inkscape:connector-curvature="0" /></g><path
           id="path196"
           style="fill:#e6e6e6;fill-opacity:1;fill-rule:evenodd;stroke:none"
           d="m 448.2,289.3 h -9.1 v 28.1 h 18.2 v -28.1 z"
           inkscape:connector-curvature="0" /><g
           id="g198"><path
             id="path200"
             style="fill:none;stroke:#000000;stroke-width:0.99049997;stroke-linecap:butt;stroke-linejoin:miter;stroke-miterlimit:7.66129017;stroke-dasharray:none;stroke-opacity:1"
             d="m 448.2,289.3 h -9.1 v 28.1 h 18.2 v -28.1 z"
             inkscape:connector-curvature="0" /></g><path
           id="path202"
           style="fill:#e6e6e6;fill-opacity:1;fill-rule:evenodd;stroke:none"
           d="m 466.5,289.3 h -9.1 v 28.1 h 18.2 v -28.1 z"
           inkscape:connector-curvature="0" /><g
           id="g204"><path
             id="path206"
             style="fill:none;stroke:#000000;stroke-width:0.99049997;stroke-linecap:butt;stroke-linejoin:miter;stroke-miterlimit:7.66129017;stroke-dasharray:none;stroke-opacity:1"
             d="m 466.5,289.3 h -9.1 v 28.1 h 18.2 v -28.1 z"
             inkscape:connector-curvature="0" /></g><path
           id="path208"
           style="fill:#e6e6e6;fill-opacity:1;fill-rule:evenodd;stroke:none"
           d="m 485.5,289.3 h -9.1 v 28.1 h 18.2 v -28.1 z"
           inkscape:connector-curvature="0" /><g
           id="g210"><path
             id="path212"
             style="fill:none;stroke:#000000;stroke-width:0.99049997;stroke-linecap:butt;stroke-linejoin:miter;stroke-miterlimit:7.66129017;stroke-dasharray:none;stroke-opacity:1"
             d="m 485.5,289.3 h -9.1 v 28.1 h 18.2 v -28.1 z"
             inkscape:connector-curvature="0" /></g><path
           id="path214"
           style="fill:#e6e6e6;fill-opacity:1;fill-rule:evenodd;stroke:none"
           d="m 503.8,289.3 h -9.2 v 28.1 h 18.3 v -28.1 z"
           inkscape:connector-curvature="0" /><g
           id="g216"><path
             id="path218"
             style="fill:none;stroke:#000000;stroke-width:0.99049997;stroke-linecap:butt;stroke-linejoin:miter;stroke-miterlimit:7.66129017;stroke-dasharray:none;stroke-opacity:1"
             d="m 503.8,289.3 h -9.2 v 28.1 h 18.3 v -28.1 z"
             inkscape:connector-curvature="0" /></g><g
           id="g220"><text
             id="text224"
             style="font-variant:normal;font-weight:bold;font-size:18px;font-family:Carlito;-inkscape-font-specification:Carlito-Bold;writing-mode:lr-tb;fill:#000000;fill-opacity:1;fill-rule:nonzero;stroke:none"
             transform="matrix(1,0,0,-1,296.6,269.2)"><tspan
               id="tspan222"
               y="0"
               x="0 8.4060001 16.902 26.496 35.585999 50.273998 59.076 68.760002 77.652 83.933998 89.531998 94.32 103.824 110.016 114.696 118.782 127.89 133.578 138.186 142.272 147.96001 157.554 167.23801 176.832 186.42599 190.81799 199.908 204.588 208.674 217.782 223.47 228.078 232.164 237.85201 245.358 254.952 263.82599 268.82999 273.51001 277.59601 286.70401 295.884 301.48199">Typemap={(Int, 0), (double, 8), (char, 16)}</tspan></text>
</g><path
           id="path226"
           style="fill:#ffff00;fill-opacity:1;fill-rule:evenodd;stroke:none"
           d="m 249.9,290.5 h -9.1 v 28.1 H 259 v -28.1 z"
           inkscape:connector-curvature="0" /><g
           id="g228"><path
             id="path230"
             style="fill:none;stroke:#000000;stroke-width:0.99049997;stroke-linecap:butt;stroke-linejoin:miter;stroke-miterlimit:7.66129017;stroke-dasharray:none;stroke-opacity:1"
             d="m 249.9,290.5 h -9.1 v 28.1 H 259 v -28.1 z"
             inkscape:connector-curvature="0" /></g><g
           id="g232"><text
             id="text236"
             style="font-variant:normal;font-weight:bold;font-size:18px;font-family:Carlito;-inkscape-font-specification:Carlito-Bold;writing-mode:lr-tb;fill:#000000;fill-opacity:1;fill-rule:nonzero;stroke:none"
             transform="matrix(1,0,0,-1,193.9,296.5)"><tspan
               id="tspan234"
               y="0"
               x="0 9.3959999 18.99 27.864">Char</tspan></text>
</g><path
           id="path238"
           style="fill:#ffff00;fill-opacity:1;fill-rule:evenodd;stroke:none"
           d="m 669.7,289.3 h -9.1 v 28.1 h 18.2 v -28.1 z"
           inkscape:connector-curvature="0" /><g
           id="g240"><path
             id="path242"
             style="fill:none;stroke:#000000;stroke-width:0.99049997;stroke-linecap:butt;stroke-linejoin:miter;stroke-miterlimit:7.66129017;stroke-dasharray:none;stroke-opacity:1"
             d="m 669.7,289.3 h -9.1 v 28.1 h 18.2 v -28.1 z"
             inkscape:connector-curvature="0" /></g></g></g></g></svg>