<?xml version="1.0" encoding="UTF-8" standalone="no"?>
<svg
   xmlns:dc="http://purl.org/dc/elements/1.1/"
   xmlns:cc="http://creativecommons.org/ns#"
   xmlns:rdf="http://www.w3.org/1999/02/22-rdf-syntax-ns#"
   xmlns:svg="http://www.w3.org/2000/svg"
   xmlns="http://www.w3.org/2000/svg"
   xmlns:sodipodi="http://sodipodi.sourceforge.net/DTD/sodipodi-0.dtd"
   xmlns:inkscape="http://www.inkscape.org/namespaces/inkscape"
   viewBox="0 0 510.83278 249.23711"
   height="249.23712"
   width="510.83279"
   xml:space="preserve"
   id="svg2"
   version="1.1"
   sodipodi:docname="compp.svg"
   inkscape:version="0.92.2 (5c3e80d, 2017-08-06)"><sodipodi:namedview
     pagecolor="#ffffff"
     bordercolor="#666666"
     borderopacity="1"
     objecttolerance="10"
     gridtolerance="10"
     guidetolerance="10"
     inkscape:pageopacity="0"
     inkscape:pageshadow="2"
     inkscape:window-width="1920"
     inkscape:window-height="1170"
     id="namedview897"
     showgrid="false"
     fit-margin-top="0"
     fit-margin-left="0"
     fit-margin-right="0"
     fit-margin-bottom="0"
     inkscape:zoom="0.70665043"
     inkscape:cx="252.21191"
     inkscape:cy="64.890602"
     inkscape:window-x="1920"
     inkscape:window-y="0"
     inkscape:window-maximized="1"
     inkscape:current-layer="g14" /><metadata
     id="metadata8"><rdf:RDF><cc:Work
         rdf:about=""><dc:format>image/svg+xml</dc:format><dc:type
           rdf:resource="http://purl.org/dc/dcmitype/StillImage" /></cc:Work></rdf:RDF></metadata><defs
     id="defs6"><clipPath
       id="clipPath18"
       clipPathUnits="userSpaceOnUse"><path
         style="clip-rule:evenodd"
         id="path16"
         d="M 0,-0.2 H 793.6 V 595 H 0 Z"
         inkscape:connector-curvature="0" /></clipPath></defs><g
     transform="matrix(1.3333333,0,0,-1.3333333,-227.85474,612.83092)"
     id="g10"><g
       id="g12"><g
         clip-path="url(#clipPath18)"
         id="g14"><g
           id="g22" /><g
           id="g24" /><path
           id="path64"
           style="fill:#b3b6b8;fill-opacity:1;fill-rule:evenodd;stroke:none"
           d="m 281.8,339.4 10.9,-8.5 3.9,4.9 1.2,-20.8 -20.5,-3.8 3.8,4.9 -10.8,8.6 z m 3.9,4.9 z m 2.4,-41.7 z"
           inkscape:connector-curvature="0" /><path
           id="path66"
           style="fill:#b3b6b8;fill-opacity:1;fill-rule:evenodd;stroke:none"
           d="m 411.9,328.1 11.9,8.1 -3.5,5.1 20.7,-4.8 -3.1,-21 -3.5,5.1 -11.9,-8.1 z m -3.5,5.1 z m 41.4,-9.6 z"
           inkscape:connector-curvature="0" /><g
           id="g1144"
           transform="translate(2.6533585)"><g
             transform="translate(-2.65337)"
             id="g1008"><path
               id="path26"
               style="fill:#525e66;fill-opacity:1;fill-rule:evenodd;stroke:none"
               d="m 317.3,341.8 v 0 0.4 0.4 0.4 l 0.1,0.4 0.1,0.4 0.1,0.3 0.2,0.4 0.1,0.4 0.2,0.3 0.2,0.4 0.2,0.3 0.2,0.3 0.2,0.3 0.3,0.4 0.3,0.2 0.2,0.3 0.4,0.3 0.3,0.2 0.3,0.2 0.3,0.2 0.4,0.2 0.3,0.2 0.4,0.1 0.4,0.2 0.3,0.1 0.4,0.1 0.4,0.1 h 0.4 0.4 0.4 69.9 v 0 h 0.4 0.4 0.4 l 0.4,-0.1 0.4,-0.1 0.3,-0.1 0.4,-0.2 0.4,-0.1 0.4,-0.2 0.3,-0.2 0.3,-0.2 0.3,-0.2 0.4,-0.2 0.3,-0.3 0.3,-0.3 0.2,-0.2 0.3,-0.4 0.2,-0.3 0.2,-0.3 0.2,-0.3 0.2,-0.4 0.2,-0.3 0.2,-0.4 0.1,-0.4 0.1,-0.3 0.1,-0.4 0.1,-0.4 v -0.4 l 0.1,-0.4 v -0.4 -60.5 0 -0.4 l -0.1,-0.4 v -0.4 l -0.1,-0.4 -0.1,-0.4 -0.1,-0.4 -0.1,-0.3 -0.2,-0.4 -0.2,-0.3 -0.1,-0.4 -0.3,-0.3 -0.2,-0.4 -0.2,-0.3 -0.3,-0.3 -0.2,-0.3 -0.3,-0.2 -0.3,-0.3 -0.3,-0.2 -0.4,-0.3 -0.3,-0.2 -0.3,-0.2 -0.4,-0.1 -0.4,-0.2 -0.3,-0.1 -0.4,-0.1 -0.4,-0.1 -0.4,-0.1 h -0.4 l -0.4,-0.1 h -0.3 -70 v 0 h -0.4 -0.4 l -0.4,0.1 -0.4,0.1 -0.4,0.1 -0.3,0.1 -0.4,0.1 -0.4,0.2 -0.3,0.1 -0.4,0.2 -0.3,0.2 -0.3,0.3 -0.3,0.2 -0.4,0.2 -0.2,0.3 -0.3,0.3 -0.2,0.3 -0.3,0.3 -0.2,0.4 -0.2,0.3 -0.2,0.3 -0.2,0.4 -0.1,0.3 -0.2,0.4 -0.1,0.4 -0.1,0.4 -0.1,0.3 v 0.4 0.4 0.4 z m 0,7.5 z m 85,-75.6 z"
               inkscape:connector-curvature="0" /><g
               id="g28"><path
                 id="path30"
                 style="fill:none;stroke:#ffffff;stroke-width:2.00929999;stroke-linecap:butt;stroke-linejoin:round;stroke-miterlimit:10;stroke-dasharray:none;stroke-opacity:1"
                 d="m 317.3,341.8 v 0 0.4 0.4 0.4 l 0.1,0.4 0.1,0.4 0.1,0.3 0.2,0.4 0.1,0.4 0.2,0.3 0.2,0.4 0.2,0.3 0.2,0.3 0.2,0.3 0.3,0.4 0.3,0.2 0.2,0.3 0.4,0.3 0.3,0.2 0.3,0.2 0.3,0.2 0.4,0.2 0.3,0.2 0.4,0.1 0.4,0.2 0.3,0.1 0.4,0.1 0.4,0.1 h 0.4 0.4 0.4 69.9 v 0 h 0.4 0.4 0.4 l 0.4,-0.1 0.4,-0.1 0.3,-0.1 0.4,-0.2 0.4,-0.1 0.4,-0.2 0.3,-0.2 0.3,-0.2 0.3,-0.2 0.4,-0.2 0.3,-0.3 0.3,-0.3 0.2,-0.2 0.3,-0.4 0.2,-0.3 0.2,-0.3 0.2,-0.3 0.2,-0.4 0.2,-0.3 0.2,-0.4 0.1,-0.4 0.1,-0.3 0.1,-0.4 0.1,-0.4 v -0.4 l 0.1,-0.4 v -0.4 -60.5 0 -0.4 l -0.1,-0.4 v -0.4 l -0.1,-0.4 -0.1,-0.4 -0.1,-0.4 -0.1,-0.3 -0.2,-0.4 -0.2,-0.3 -0.1,-0.4 -0.3,-0.3 -0.2,-0.4 -0.2,-0.3 -0.3,-0.3 -0.2,-0.3 -0.3,-0.2 -0.3,-0.3 -0.3,-0.2 -0.4,-0.3 -0.3,-0.2 -0.3,-0.2 -0.4,-0.1 -0.4,-0.2 -0.3,-0.1 -0.4,-0.1 -0.4,-0.1 -0.4,-0.1 h -0.4 l -0.4,-0.1 h -0.3 -70 v 0 h -0.4 -0.4 l -0.4,0.1 -0.4,0.1 -0.4,0.1 -0.3,0.1 -0.4,0.1 -0.4,0.2 -0.3,0.1 -0.4,0.2 -0.3,0.2 -0.3,0.3 -0.3,0.2 -0.4,0.2 -0.2,0.3 -0.3,0.3 -0.2,0.3 -0.3,0.3 -0.2,0.4 -0.2,0.3 -0.2,0.3 -0.2,0.4 -0.1,0.3 -0.2,0.4 -0.1,0.4 -0.1,0.4 -0.1,0.3 v 0.4 0.4 0.4 z"
                 inkscape:connector-curvature="0" /></g><g
               id="g32"><path
                 id="path34"
                 style="fill:none;stroke:#ffffff;stroke-width:2.00929999;stroke-linecap:butt;stroke-linejoin:round;stroke-miterlimit:10;stroke-dasharray:none;stroke-opacity:1"
                 d="M 317.3,349.3 Z"
                 inkscape:connector-curvature="0" /></g><g
               id="g36"><path
                 id="path38"
                 style="fill:none;stroke:#ffffff;stroke-width:2.00929999;stroke-linecap:butt;stroke-linejoin:round;stroke-miterlimit:10;stroke-dasharray:none;stroke-opacity:1"
                 d="M 402.3,273.7 Z"
                 inkscape:connector-curvature="0" /></g><g
               id="g40"><text
                 id="text44"
                 style="font-variant:normal;font-weight:normal;font-size:18px;font-family:Carlito;-inkscape-font-specification:Carlito;writing-mode:lr-tb;fill:#ffffff;fill-opacity:1;fill-rule:nonzero;stroke:none"
                 transform="matrix(1,0,0,-1,332.1,323.7)"><tspan
                   id="tspan42"
                   y="0"
                   x="0 9.198 15.192 24.677999 32.273998 41.256001 48.257999 55.332001">Process </tspan></text>
</g><g
               id="g46"><text
                 id="text50"
                 style="font-variant:normal;font-weight:normal;font-size:18px;font-family:Carlito;-inkscape-font-specification:Carlito;writing-mode:lr-tb;fill:#ffffff;fill-opacity:1;fill-rule:nonzero;stroke:none"
                 transform="matrix(1,0,0,-1,332,304.3)"><tspan
                   id="tspan48"
                   y="0"
                   x="0 7.0739999 16.559999 25.865999 31.662001 40.265999 47.34 55.529999">subtask </tspan></text>
</g><g
               id="g52"><text
                 id="text56"
                 style="font-variant:normal;font-weight:normal;font-size:18px;font-family:Carlito;-inkscape-font-specification:Carlito;writing-mode:lr-tb;fill:#ffffff;fill-opacity:1;fill-rule:nonzero;stroke:none"
                 transform="matrix(1,0,0,-1,349.5,284.9)"><tspan
                   id="tspan54"
                   y="0"
                   x="0 8.9820004">#N</tspan></text>
</g></g><g
             transform="translate(2.8368212)"
             id="g58"><text
               transform="matrix(1,0,0,-1,347.1,367.5)"
               style="font-variant:normal;font-weight:bold;font-size:18px;font-family:Carlito;-inkscape-font-specification:Carlito-Bold;writing-mode:lr-tb;fill:#000000;fill-opacity:1;fill-rule:nonzero;stroke:none"
               id="text62"><tspan
                 x="0 4.8060002 9.6120005"
                 y="0"
                 id="tspan60">...</tspan></text>
</g><g
             transform="translate(-2.65337)"
             id="g990"><path
               inkscape:connector-curvature="0"
               d="m 317.3,451.11855 v 0 0.4 0.4 0.4 l 0.1,0.4 0.1,0.4 0.1,0.3 0.2,0.4 0.1,0.4 0.2,0.3 0.2,0.4 0.2,0.3 0.2,0.3 0.2,0.3 0.3,0.4 0.3,0.2 0.2,0.3 0.4,0.3 0.3,0.2 0.3,0.2 0.3,0.2 0.4,0.2 0.3,0.2 0.4,0.1 0.4,0.2 0.3,0.1 0.4,0.1 0.4,0.1 h 0.4 0.4 0.4 69.9 v 0 h 0.4 0.4 0.4 l 0.4,-0.1 0.4,-0.1 0.3,-0.1 0.4,-0.2 0.4,-0.1 0.4,-0.2 0.3,-0.2 0.3,-0.2 0.3,-0.2 0.4,-0.2 0.3,-0.3 0.3,-0.3 0.2,-0.2 0.3,-0.4 0.2,-0.3 0.2,-0.3 0.2,-0.3 0.2,-0.4 0.2,-0.3 0.2,-0.4 0.1,-0.4 0.1,-0.3 0.1,-0.4 0.1,-0.4 v -0.4 l 0.1,-0.4 v -0.4 -60.5 0 -0.4 l -0.1,-0.4 v -0.4 l -0.1,-0.4 -0.1,-0.4 -0.1,-0.4 -0.1,-0.3 -0.2,-0.4 -0.2,-0.3 -0.1,-0.4 -0.3,-0.3 -0.2,-0.4 -0.2,-0.3 -0.3,-0.3 -0.2,-0.3 -0.3,-0.2 -0.3,-0.3 -0.3,-0.2 -0.4,-0.3 -0.3,-0.2 -0.3,-0.2 -0.4,-0.1 -0.4,-0.2 -0.3,-0.1 -0.4,-0.1 -0.4,-0.1 -0.4,-0.1 h -0.4 l -0.4,-0.1 h -0.3 -70 v 0 h -0.4 -0.4 l -0.4,0.1 -0.4,0.1 -0.4,0.1 -0.3,0.1 -0.4,0.1 -0.4,0.2 -0.3,0.1 -0.4,0.2 -0.3,0.2 -0.3,0.3 -0.3,0.2 -0.4,0.2 -0.2,0.3 -0.3,0.3 -0.2,0.3 -0.3,0.3 -0.2,0.4 -0.2,0.3 -0.2,0.3 -0.2,0.4 -0.1,0.3 -0.2,0.4 -0.1,0.4 -0.1,0.4 -0.1,0.3 v 0.4 0.4 0.4 z m 0,7.5 z m 85,-75.6 z"
               style="fill:#525e66;fill-opacity:1;fill-rule:evenodd;stroke:none"
               id="path841" /><g
               id="g845"
               transform="translate(0,109.31855)"><path
                 inkscape:connector-curvature="0"
                 d="m 317.3,341.8 v 0 0.4 0.4 0.4 l 0.1,0.4 0.1,0.4 0.1,0.3 0.2,0.4 0.1,0.4 0.2,0.3 0.2,0.4 0.2,0.3 0.2,0.3 0.2,0.3 0.3,0.4 0.3,0.2 0.2,0.3 0.4,0.3 0.3,0.2 0.3,0.2 0.3,0.2 0.4,0.2 0.3,0.2 0.4,0.1 0.4,0.2 0.3,0.1 0.4,0.1 0.4,0.1 h 0.4 0.4 0.4 69.9 v 0 h 0.4 0.4 0.4 l 0.4,-0.1 0.4,-0.1 0.3,-0.1 0.4,-0.2 0.4,-0.1 0.4,-0.2 0.3,-0.2 0.3,-0.2 0.3,-0.2 0.4,-0.2 0.3,-0.3 0.3,-0.3 0.2,-0.2 0.3,-0.4 0.2,-0.3 0.2,-0.3 0.2,-0.3 0.2,-0.4 0.2,-0.3 0.2,-0.4 0.1,-0.4 0.1,-0.3 0.1,-0.4 0.1,-0.4 v -0.4 l 0.1,-0.4 v -0.4 -60.5 0 -0.4 l -0.1,-0.4 v -0.4 l -0.1,-0.4 -0.1,-0.4 -0.1,-0.4 -0.1,-0.3 -0.2,-0.4 -0.2,-0.3 -0.1,-0.4 -0.3,-0.3 -0.2,-0.4 -0.2,-0.3 -0.3,-0.3 -0.2,-0.3 -0.3,-0.2 -0.3,-0.3 -0.3,-0.2 -0.4,-0.3 -0.3,-0.2 -0.3,-0.2 -0.4,-0.1 -0.4,-0.2 -0.3,-0.1 -0.4,-0.1 -0.4,-0.1 -0.4,-0.1 h -0.4 l -0.4,-0.1 h -0.3 -70 v 0 h -0.4 -0.4 l -0.4,0.1 -0.4,0.1 -0.4,0.1 -0.3,0.1 -0.4,0.1 -0.4,0.2 -0.3,0.1 -0.4,0.2 -0.3,0.2 -0.3,0.3 -0.3,0.2 -0.4,0.2 -0.2,0.3 -0.3,0.3 -0.2,0.3 -0.3,0.3 -0.2,0.4 -0.2,0.3 -0.2,0.3 -0.2,0.4 -0.1,0.3 -0.2,0.4 -0.1,0.4 -0.1,0.4 -0.1,0.3 v 0.4 0.4 0.4 z"
                 style="fill:none;stroke:#ffffff;stroke-width:2.00929999;stroke-linecap:butt;stroke-linejoin:round;stroke-miterlimit:10;stroke-dasharray:none;stroke-opacity:1"
                 id="path843" /></g><g
               id="g849"
               transform="translate(0,109.31855)"><path
                 inkscape:connector-curvature="0"
                 d="M 317.3,349.3 Z"
                 style="fill:none;stroke:#ffffff;stroke-width:2.00929999;stroke-linecap:butt;stroke-linejoin:round;stroke-miterlimit:10;stroke-dasharray:none;stroke-opacity:1"
                 id="path847" /></g><g
               id="g853"
               transform="translate(0,109.31855)"><path
                 inkscape:connector-curvature="0"
                 d="M 402.3,273.7 Z"
                 style="fill:none;stroke:#ffffff;stroke-width:2.00929999;stroke-linecap:butt;stroke-linejoin:round;stroke-miterlimit:10;stroke-dasharray:none;stroke-opacity:1"
                 id="path851" /></g><g
               id="g859"
               transform="translate(0,109.31855)"><text
                 transform="matrix(1,0,0,-1,332.1,323.7)"
                 style="font-variant:normal;font-weight:normal;font-size:18px;font-family:Carlito;-inkscape-font-specification:Carlito;writing-mode:lr-tb;fill:#ffffff;fill-opacity:1;fill-rule:nonzero;stroke:none"
                 id="text857"><tspan
                   x="0 9.198 15.192 24.677999 32.273998 41.256001 48.257999 55.332001"
                   y="0"
                   id="tspan855">Process </tspan></text>
</g><g
               id="g865"
               transform="translate(0,109.31855)"><text
                 transform="matrix(1,0,0,-1,332,304.3)"
                 style="font-variant:normal;font-weight:normal;font-size:18px;font-family:Carlito;-inkscape-font-specification:Carlito;writing-mode:lr-tb;fill:#ffffff;fill-opacity:1;fill-rule:nonzero;stroke:none"
                 id="text863"><tspan
                   x="0 7.0739999 16.559999 25.865999 31.662001 40.265999 47.34 55.529999"
                   y="0"
                   id="tspan861">subtask </tspan></text>
</g><text
               id="text869"
               style="font-style:normal;font-variant:normal;font-weight:normal;font-stretch:normal;font-size:18px;font-family:Carlito;-inkscape-font-specification:'Carlito, Normal';font-variant-ligatures:normal;font-variant-caps:normal;font-variant-numeric:normal;font-feature-settings:normal;text-align:start;writing-mode:lr-tb;text-anchor:start;fill:#ffffff;fill-opacity:1;fill-rule:nonzero;stroke:none"
               transform="scale(1,-1)"
               x="349.5"
               y="-394.21854"><tspan
                 sodipodi:role="line"
                 id="tspan881"
                 x="349.5"
                 y="-394.21854">#1</tspan></text>
</g></g><g
           id="g1020"
           transform="translate(9.5521065)"><path
             id="path883"
             style="fill:#525e66;fill-opacity:1;fill-rule:evenodd;stroke:none;stroke-width:0.83975106"
             d="m 171.89571,387.52628 v 0 0.28207 0.28207 0.28207 l 0.1,0.28208 0.1,0.28207 0.1,0.21155 0.2,0.28208 0.1,0.28207 0.2,0.21155 0.2,0.28208 0.2,0.21155 0.2,0.21156 0.2,0.21155 0.3,0.28207 0.3,0.14104 0.2,0.21155 0.4,0.21156 0.3,0.14104 0.3,0.14103 0.3,0.14104 0.4,0.14103 0.3,0.14104 0.4,0.0705 0.4,0.14104 0.3,0.0705 0.4,0.0705 0.4,0.0705 h 0.4 0.4 0.4 69.9 v 0 h 0.4 0.4 0.4 l 0.4,-0.0705 0.4,-0.0705 0.3,-0.0705 0.4,-0.14104 0.4,-0.0705 0.4,-0.14104 0.3,-0.14103 0.3,-0.14104 0.3,-0.14103 0.4,-0.14104 0.3,-0.21156 0.3,-0.21155 0.2,-0.14104 0.3,-0.28207 0.2,-0.21155 0.2,-0.21156 0.2,-0.21155 0.2,-0.28208 0.2,-0.21155 0.2,-0.28207 0.1,-0.28208 0.1,-0.21155 0.1,-0.28207 0.1,-0.28208 v -0.28207 l 0.1,-0.28207 v -0.28207 -42.66351 0 -0.28207 l -0.1,-0.28207 v -0.28208 l -0.1,-0.28207 -0.1,-0.28207 -0.1,-0.28208 -0.1,-0.21155 -0.2,-0.28207 -0.2,-0.21156 -0.1,-0.28207 -0.3,-0.21155 -0.2,-0.28208 -0.2,-0.21155 -0.3,-0.21156 -0.2,-0.21155 -0.3,-0.14104 -0.3,-0.21155 -0.3,-0.14104 -0.4,-0.21155 -0.3,-0.14104 -0.3,-0.14104 -0.4,-0.0705 -0.4,-0.14104 -0.3,-0.0705 -0.4,-0.0705 -0.4,-0.0705 -0.4,-0.0705 h -0.4 l -0.4,-0.0705 h -0.3 -70 v 0 h -0.4 -0.4 l -0.4,0.0705 -0.4,0.0705 -0.4,0.0705 -0.3,0.0705 -0.4,0.0705 -0.4,0.14104 -0.3,0.0705 -0.4,0.14104 -0.3,0.14104 -0.3,0.21155 -0.3,0.14104 -0.4,0.14103 -0.2,0.21156 -0.3,0.21155 -0.2,0.21156 -0.3,0.21155 -0.2,0.28208 -0.2,0.21155 -0.2,0.21155 -0.2,0.28208 -0.1,0.21155 -0.2,0.28207 -0.1,0.28208 -0.1,0.28207 -0.1,0.21155 v 0.28208 0.28207 0.28207 z m 0,5.28886 z m 85,-53.31175 z"
             inkscape:connector-curvature="0" /><g
             transform="translate(-145.40429,60.496674)"
             id="g887"><path
               id="path885"
               style="fill:none;stroke:#ffffff;stroke-width:2.00929999;stroke-linecap:butt;stroke-linejoin:round;stroke-miterlimit:10;stroke-dasharray:none;stroke-opacity:1"
               d="m 317.3,341.8 v 0 0.4 0.4 0.4 l 0.1,0.4 0.1,0.4 0.1,0.3 0.2,0.4 0.1,0.4 0.2,0.3 0.2,0.4 0.2,0.3 0.2,0.3 0.2,0.3 0.3,0.4 0.3,0.2 0.2,0.3 0.4,0.3 0.3,0.2 0.3,0.2 0.3,0.2 0.4,0.2 0.3,0.2 0.4,0.1 0.4,0.2 0.3,0.1 0.4,0.1 0.4,0.1 h 0.4 0.4 0.4 69.9 v 0 h 0.4 0.4 0.4 l 0.4,-0.1 0.4,-0.1 0.3,-0.1 0.4,-0.2 0.4,-0.1 0.4,-0.2 0.3,-0.2 0.3,-0.2 0.3,-0.2 0.4,-0.2 0.3,-0.3 0.3,-0.3 0.2,-0.2 0.3,-0.4 0.2,-0.3 0.2,-0.3 0.2,-0.3 0.2,-0.4 0.2,-0.3 0.2,-0.4 0.1,-0.4 0.1,-0.3 0.1,-0.4 0.1,-0.4 v -0.4 l 0.1,-0.4 v -0.4 -60.5 0 -0.4 l -0.1,-0.4 v -0.4 l -0.1,-0.4 -0.1,-0.4 -0.1,-0.4 -0.1,-0.3 -0.2,-0.4 -0.2,-0.3 -0.1,-0.4 -0.3,-0.3 -0.2,-0.4 -0.2,-0.3 -0.3,-0.3 -0.2,-0.3 -0.3,-0.2 -0.3,-0.3 -0.3,-0.2 -0.4,-0.3 -0.3,-0.2 -0.3,-0.2 -0.4,-0.1 -0.4,-0.2 -0.3,-0.1 -0.4,-0.1 -0.4,-0.1 -0.4,-0.1 h -0.4 l -0.4,-0.1 h -0.3 -70 v 0 h -0.4 -0.4 l -0.4,0.1 -0.4,0.1 -0.4,0.1 -0.3,0.1 -0.4,0.1 -0.4,0.2 -0.3,0.1 -0.4,0.2 -0.3,0.2 -0.3,0.3 -0.3,0.2 -0.4,0.2 -0.2,0.3 -0.3,0.3 -0.2,0.3 -0.3,0.3 -0.2,0.4 -0.2,0.3 -0.2,0.3 -0.2,0.4 -0.1,0.3 -0.2,0.4 -0.1,0.4 -0.1,0.4 -0.1,0.3 v 0.4 0.4 0.4 z"
               inkscape:connector-curvature="0" /></g><g
             transform="translate(-145.40429,60.496674)"
             id="g891"><path
               id="path889"
               style="fill:none;stroke:#ffffff;stroke-width:2.00929999;stroke-linecap:butt;stroke-linejoin:round;stroke-miterlimit:10;stroke-dasharray:none;stroke-opacity:1"
               d="M 317.3,349.3 Z"
               inkscape:connector-curvature="0" /></g><g
             transform="translate(-145.40429,60.496674)"
             id="g895"><path
               id="path893"
               style="fill:none;stroke:#ffffff;stroke-width:2.00929999;stroke-linecap:butt;stroke-linejoin:round;stroke-miterlimit:10;stroke-dasharray:none;stroke-opacity:1"
               d="M 402.3,273.7 Z"
               inkscape:connector-curvature="0" /></g><g
             transform="translate(-137.74775,38.135046)"
             id="g901"><text
               id="text899"
               style="font-style:normal;font-variant:normal;font-weight:normal;font-stretch:normal;font-size:18px;font-family:Carlito;-inkscape-font-specification:'Carlito, Normal';font-variant-ligatures:normal;font-variant-caps:normal;font-variant-numeric:normal;font-feature-settings:normal;text-align:start;writing-mode:lr-tb;text-anchor:start;fill:#ffffff;fill-opacity:1;fill-rule:nonzero;stroke:none"
               transform="matrix(1,0,0,-1,332.1,323.7)"><tspan
                 y="0"
                 x="0"
                 id="tspan959"
                 sodipodi:role="line">Input</tspan></text>
</g></g><path
           id="path961"
           style="fill:#525e66;fill-opacity:1;fill-rule:evenodd;stroke:none;stroke-width:0.83975106"
           d="m 453.15218,387.52628 v 0 0.28207 0.28207 0.28207 l 0.1,0.28208 0.1,0.28207 0.1,0.21155 0.2,0.28208 0.1,0.28207 0.2,0.21155 0.2,0.28208 0.2,0.21155 0.2,0.21156 0.2,0.21155 0.3,0.28207 0.3,0.14104 0.2,0.21155 0.4,0.21156 0.3,0.14104 0.3,0.14103 0.3,0.14104 0.4,0.14103 0.3,0.14104 0.4,0.0705 0.4,0.14104 0.3,0.0705 0.4,0.0705 0.4,0.0705 h 0.4 0.4 0.4 69.9 v 0 h 0.4 0.4 0.4 l 0.4,-0.0705 0.4,-0.0705 0.3,-0.0705 0.4,-0.14104 0.4,-0.0705 0.4,-0.14104 0.3,-0.14103 0.3,-0.14104 0.3,-0.14103 0.4,-0.14104 0.3,-0.21156 0.3,-0.21155 0.2,-0.14104 0.3,-0.28207 0.2,-0.21155 0.2,-0.21156 0.2,-0.21155 0.2,-0.28208 0.2,-0.21155 0.2,-0.28207 0.1,-0.28208 0.1,-0.21155 0.1,-0.28207 0.1,-0.28208 v -0.28207 l 0.1,-0.28207 v -0.28207 -42.66351 0 -0.28207 l -0.1,-0.28207 v -0.28208 l -0.1,-0.28207 -0.1,-0.28207 -0.1,-0.28208 -0.1,-0.21155 -0.2,-0.28207 -0.2,-0.21156 -0.1,-0.28207 -0.3,-0.21155 -0.2,-0.28208 -0.2,-0.21155 -0.3,-0.21156 -0.2,-0.21155 -0.3,-0.14104 -0.3,-0.21155 -0.3,-0.14104 -0.4,-0.21155 -0.3,-0.14104 -0.3,-0.14104 -0.4,-0.0705 -0.4,-0.14104 -0.3,-0.0705 -0.4,-0.0705 -0.4,-0.0705 -0.4,-0.0705 h -0.4 l -0.4,-0.0705 h -0.3 -70 v 0 h -0.4 -0.4 l -0.4,0.0705 -0.4,0.0705 -0.4,0.0705 -0.3,0.0705 -0.4,0.0705 -0.4,0.14104 -0.3,0.0705 -0.4,0.14104 -0.3,0.14104 -0.3,0.21155 -0.3,0.14104 -0.4,0.14103 -0.2,0.21156 -0.3,0.21155 -0.2,0.21156 -0.3,0.21155 -0.2,0.28208 -0.2,0.21155 -0.2,0.21155 -0.2,0.28208 -0.1,0.21155 -0.2,0.28207 -0.1,0.28208 -0.1,0.28207 -0.1,0.21155 v 0.28208 0.28207 0.28207 z m 0,5.28886 z m 85,-53.31175 z"
           inkscape:connector-curvature="0" /><g
           transform="translate(135.85218,60.496674)"
           id="g965"><path
             id="path963"
             style="fill:none;stroke:#ffffff;stroke-width:2.00929999;stroke-linecap:butt;stroke-linejoin:round;stroke-miterlimit:10;stroke-dasharray:none;stroke-opacity:1"
             d="M 402.3,273.7 Z"
             inkscape:connector-curvature="0" /></g><g
           transform="translate(140.52044,36.27616)"
           id="g971"><text
             id="text969"
             style="font-style:normal;font-variant:normal;font-weight:normal;font-stretch:normal;font-size:18px;font-family:Carlito;-inkscape-font-specification:'Carlito, Normal';font-variant-ligatures:normal;font-variant-caps:normal;font-variant-numeric:normal;font-feature-settings:normal;text-align:start;writing-mode:lr-tb;text-anchor:start;fill:#ffffff;fill-opacity:1;fill-rule:nonzero;stroke:none"
             transform="matrix(1,0,0,-1,332.1,323.7)"><tspan
               y="0"
               x="0"
               sodipodi:role="line"
               id="tspan973">Result</tspan></text>
</g><path
           inkscape:connector-curvature="0"
           d="m 269.75956,401.82959 10.41326,9.08978 -4.07126,4.75865 20.64999,-2.76727 -0.15757,-20.84862 -4.09023,4.66047 -10.49248,-8.97262 z m -4.07126,4.75866 z m 41.39816,-5.55351 z"
           style="fill:#b3b6b8;fill-opacity:1;fill-rule:evenodd;stroke:none"
           id="path1104" /><path
           inkscape:connector-curvature="0"
           d="m 425.70338,423.40482 10.96155,-9.33083 3.99136,4.72536 0.85173,-21.23216 -21.07137,-2.57049 3.99137,4.72536 -10.96155,9.33083 z m 3.99136,4.72536 z m 1.70346,-42.46431 z"
           style="fill:#b3b6b8;fill-opacity:1;fill-rule:evenodd;stroke:none"
           id="path1106" /></g></g></g></svg>