<?xml version="1.0" encoding="UTF-8" standalone="no"?>
<svg
   viewBox="0 0 375.75557 208.30937"
   height="208.30936"
   width="375.75555"
   xml:space="preserve"
   id="svg2"
   version="1.1"
   sodipodi:docname="gpu-offload.svg"
   inkscape:version="1.1.2 (0a00cf5339, 2022-02-04)"
   inkscape:export-filename="/home/jenkovaa/kurssit/Adv-par-prog-2018/git/docs/img/processes-threads.png"
   inkscape:export-xdpi="96"
   inkscape:export-ydpi="96"
   xmlns:inkscape="http://www.inkscape.org/namespaces/inkscape"
   xmlns:sodipodi="http://sodipodi.sourceforge.net/DTD/sodipodi-0.dtd"
   xmlns="http://www.w3.org/2000/svg"
   xmlns:svg="http://www.w3.org/2000/svg"
   xmlns:rdf="http://www.w3.org/1999/02/22-rdf-syntax-ns#"
   xmlns:cc="http://creativecommons.org/ns#"
   xmlns:dc="http://purl.org/dc/elements/1.1/"><sodipodi:namedview
     pagecolor="#ffffff"
     bordercolor="#666666"
     borderopacity="1"
     objecttolerance="10"
     gridtolerance="10"
     guidetolerance="10"
     inkscape:pageopacity="0"
     inkscape:pageshadow="2"
     inkscape:window-width="2560"
     inkscape:window-height="1344"
     id="namedview21"
     showgrid="false"
     units="px"
     inkscape:zoom="1.2014286"
     inkscape:cx="-212.24732"
     inkscape:cy="96.551722"
     inkscape:window-x="0"
     inkscape:window-y="28"
     inkscape:window-maximized="1"
     inkscape:current-layer="g10"
     fit-margin-top="0"
     fit-margin-left="0"
     fit-margin-right="0"
     fit-margin-bottom="0"
     inkscape:pagecheckerboard="0" /><metadata
     id="metadata8"><rdf:RDF><cc:Work
         rdf:about=""><dc:format>image/svg+xml</dc:format><dc:type
           rdf:resource="http://purl.org/dc/dcmitype/StillImage" /><dc:title /></cc:Work></rdf:RDF></metadata><defs
     id="defs6"><marker
       style="overflow:visible"
       id="Arrow1Lend"
       refX="0"
       refY="0"
       orient="auto"
       inkscape:stockid="Arrow1Lend"
       inkscape:isstock="true"><path
         transform="matrix(-0.8,0,0,-0.8,-10,0)"
         style="fill:context-stroke;fill-rule:evenodd;stroke:context-stroke;stroke-width:1pt"
         d="M 0,0 5,-5 -12.5,0 5,5 Z"
         id="path13583" /></marker><clipPath
       id="clipPath18"
       clipPathUnits="userSpaceOnUse"><path
         style="clip-rule:evenodd"
         id="path16"
         d="M 0,1.2207e-4 H 720 V 450.00012 H 0 Z"
         inkscape:connector-curvature="0" /></clipPath><clipPath
       id="clipPath28"
       clipPathUnits="userSpaceOnUse"><path
         style="clip-rule:evenodd"
         id="path26"
         d="M 1.0729e-5,0 H 720.00001 V 450 H 1.0729e-5 Z"
         inkscape:connector-curvature="0" /></clipPath><clipPath
       clipPathUnits="userSpaceOnUse"
       id="clipPath18-5"><path
         inkscape:connector-curvature="0"
         d="M 0,1.2207e-4 H 720 V 450.00012 H 0 Z"
         id="path16-0"
         style="clip-rule:evenodd" /></clipPath><clipPath
       clipPathUnits="userSpaceOnUse"
       id="clipPath28-8"><path
         inkscape:connector-curvature="0"
         d="M 1.0729e-5,0 H 720.00001 V 450 H 1.0729e-5 Z"
         id="path26-5"
         style="clip-rule:evenodd" /></clipPath><clipPath
       clipPathUnits="userSpaceOnUse"
       id="clipPath40"><path
         inkscape:connector-curvature="0"
         d="M 1.0729e-5,0 H 720.00001 V 450 H 1.0729e-5 Z"
         id="path38-3"
         style="clip-rule:evenodd" /></clipPath><clipPath
       clipPathUnits="userSpaceOnUse"
       id="clipPath80"><path
         inkscape:connector-curvature="0"
         d="M 1.0729e-5,0 H 720.00001 V 450 H 1.0729e-5 Z"
         id="path78"
         style="clip-rule:evenodd" /></clipPath><clipPath
       clipPathUnits="userSpaceOnUse"
       id="clipPath92"><path
         inkscape:connector-curvature="0"
         d="M 1.0729e-5,0 H 720.00001 V 450 H 1.0729e-5 Z"
         id="path90"
         style="clip-rule:evenodd" /></clipPath><clipPath
       clipPathUnits="userSpaceOnUse"
       id="clipPath104"><path
         inkscape:connector-curvature="0"
         d="M 1.0729e-5,0 H 720.00001 V 450 H 1.0729e-5 Z"
         id="path102"
         style="clip-rule:evenodd" /></clipPath><clipPath
       clipPathUnits="userSpaceOnUse"
       id="clipPath116"><path
         inkscape:connector-curvature="0"
         d="M 1.0729e-5,0 H 720.00001 V 450 H 1.0729e-5 Z"
         id="path114"
         style="clip-rule:evenodd" /></clipPath><clipPath
       clipPathUnits="userSpaceOnUse"
       id="clipPath154"><path
         inkscape:connector-curvature="0"
         d="M 1.0729e-5,0 H 720.00001 V 450 H 1.0729e-5 Z"
         id="path152"
         style="clip-rule:evenodd" /></clipPath><clipPath
       clipPathUnits="userSpaceOnUse"
       id="clipPath166"><path
         inkscape:connector-curvature="0"
         d="M 1.0729e-5,0 H 720.00001 V 450 H 1.0729e-5 Z"
         id="path164"
         style="clip-rule:evenodd" /></clipPath><clipPath
       clipPathUnits="userSpaceOnUse"
       id="clipPath28-8-7"><path
         inkscape:connector-curvature="0"
         d="M 1.0729e-5,0 H 720.00001 V 450 H 1.0729e-5 Z"
         id="path26-5-4"
         style="clip-rule:evenodd" /></clipPath></defs><g
     transform="matrix(1.3333333,0,0,-1.3333333,-944.05288,559.80511)"
     id="g10"><text
   transform="scale(1,-1)"
   style="font-style:normal;font-variant:normal;font-weight:normal;font-stretch:normal;font-size:20.725px;font-family:'Noto Sans';-inkscape-font-specification:'Noto Sans, Normal';font-variant-ligatures:normal;font-variant-caps:normal;font-variant-numeric:normal;font-feature-settings:normal;text-align:start;writing-mode:lr-tb;text-anchor:start;fill:#000000;fill-opacity:1;fill-rule:nonzero;stroke:none;stroke-width:1.31382"
   id="text32-9"
   x="790.91553"
   y="-404.10284"><tspan
     sodipodi:role="line"
     id="tspan3939"
     x="790.91553"
     y="-404.10284">GPU kernel</tspan></text>
<path
   inkscape:connector-curvature="0"
   d="m 792.00131,349.15699 22.7159,34.08044 -2.45683,1.64227 -22.71591,-34.08043 z m 24.35818,31.21631 1.23499,9.8405 -8.61865,-4.92681 z"
   style="fill:#000000;fill-opacity:1;fill-rule:nonzero;stroke:none;stroke-width:1.31382"
   id="path48" /><path
   inkscape:connector-curvature="0"
   d="m 791.43636,348.86796 20.20652,10.10325 -1.32696,2.65392 -20.2065,-10.10326 z m 20.20652,6.80558 5.9516,7.92232 h -9.91933 z"
   style="fill:#5173c9;fill-opacity:1;fill-rule:nonzero;stroke:none;stroke-width:1.31382"
   id="path50" /><path
   inkscape:connector-curvature="0"
   d="m 791.43636,351.12772 20.20652,-10.10325 -1.32696,-2.64077 -20.2065,10.10325 z m 20.20652,-6.79243 5.9516,-7.93546 h -9.91933 z"
   style="fill:#5173c9;fill-opacity:1;fill-rule:nonzero;stroke:none;stroke-width:1.31382"
   id="path52" /><path
   inkscape:connector-curvature="0"
   d="m 792.00131,350.62848 22.7159,-34.08044 -2.45683,-1.64227 -22.71591,34.08044 z m 24.35818,-31.20318 1.23499,-9.84049 -8.61865,4.91367 z"
   style="fill:#5173c9;fill-opacity:1;fill-rule:nonzero;stroke:none;stroke-width:1.31382"
   id="path54" /><path
   inkscape:connector-curvature="0"
   d="m 817.37112,310.88548 h 49.59663 v -2.95608 h -49.59663 z m 48.12515,2.95609 8.86827,-4.44069 -8.86827,-4.42758 z"
   style="fill:#5173c9;fill-opacity:1;fill-rule:nonzero;stroke:none;stroke-width:1.31382"
   id="path56" /><path
   inkscape:connector-curvature="0"
   d="m 817.37112,337.49029 h 49.59663 v -2.95608 h -49.59663 z m 48.12515,2.9561 8.86827,-4.44071 -8.86827,-4.42756 z"
   style="fill:#5173c9;fill-opacity:1;fill-rule:nonzero;stroke:none;stroke-width:1.31382"
   id="path58" /><path
   inkscape:connector-curvature="0"
   d="m 817.37112,365.08047 h 49.59663 v -2.95609 h -49.59663 z m 48.12515,2.95609 8.86827,-4.4407 -8.86827,-4.42757 z"
   style="fill:#5173c9;fill-opacity:1;fill-rule:nonzero;stroke:none;stroke-width:1.31382"
   id="path60" /><path
   inkscape:connector-curvature="0"
   d="m 817.37112,391.68528 h 49.59663 v -2.95609 h -49.59663 z m 48.12515,2.95608 8.86827,-4.4407 -8.86827,-4.42756 z"
   style="fill:#000000;fill-opacity:1;fill-rule:nonzero;stroke:none;stroke-width:1.31382"
   id="path62" /><path
   inkscape:connector-curvature="0"
   d="m 875.75719,391.02836 22.71591,-34.08042 -2.45684,-1.64227 -22.71591,34.08043 z m 24.35818,-31.20316 1.23499,-9.8405 -8.61865,4.91368 z"
   style="fill:#000000;fill-opacity:1;fill-rule:nonzero;stroke:none;stroke-width:1.31382"
   id="path64" /><path
   inkscape:connector-curvature="0"
   d="m 875.19224,364.92281 20.20652,-10.10326 -1.32695,-2.64077 -20.20652,10.10326 z m 20.20652,-6.79243 5.9516,-7.93546 h -9.91933 z"
   style="fill:#5173c9;fill-opacity:1;fill-rule:nonzero;stroke:none;stroke-width:1.31382"
   id="path66" /><path
   inkscape:connector-curvature="0"
   d="m 875.19224,335.07287 20.20652,10.10326 -1.32695,2.65391 -20.20652,-10.10326 z m 20.20652,6.80558 5.9516,7.92232 h -9.91933 z"
   style="fill:#5173c9;fill-opacity:1;fill-rule:nonzero;stroke:none;stroke-width:1.31382"
   id="path68" /><path
   inkscape:connector-curvature="0"
   d="m 875.75719,308.7571 22.71591,34.08044 -2.45684,1.64227 -22.71591,-34.08043 z m 24.35818,31.21631 1.23499,9.82736 -8.61865,-4.91368 z"
   style="fill:#5173c9;fill-opacity:1;fill-rule:nonzero;stroke:none;stroke-width:1.31382"
   id="path70" />




<text
   transform="scale(1,-1)"
   style="font-style:normal;font-variant:normal;font-weight:normal;font-stretch:normal;font-size:20.725px;font-family:'Noto Sans';-inkscape-font-specification:'Noto Sans, Normal';font-variant-ligatures:normal;font-variant-caps:normal;font-variant-numeric:normal;font-feature-settings:normal;text-align:start;writing-mode:lr-tb;text-anchor:start;fill:#000000;fill-opacity:1;fill-rule:nonzero;stroke:none;stroke-width:1.31382"
   id="text84"
   x="794.55591"
   y="-263.82907"><tspan
     sodipodi:role="line"
     id="tspan3809"
     x="794.55591"
     y="-263.82907">CPU code</tspan></text><path
   inkscape:connector-curvature="0"
   d="m 708.03968,286.9755 h 245.24163 v -2.95609 H 708.03968 Z m 237.96557,2.95608 43.8511,-4.4407 -43.8511,-4.42756 z"
   style="fill:#000000;fill-opacity:1;fill-rule:nonzero;stroke:none;stroke-width:2.92151"
   id="path14980" /><path
   inkscape:connector-curvature="0"
   d="m 767.61968,288.74122 16.84441,46.64859 2.78038,-1.00396 -16.84441,-46.6486 z m 13.56428,46.26856 7.18865,6.83295 1.15248,-9.84486 z"
   style="fill:#000000;fill-opacity:1;fill-rule:nonzero;stroke:none;stroke-width:1.31382"
   id="path15142" /><path
   inkscape:connector-curvature="0"
   d="m 906.46805,341.9154 16.84441,-46.64859 2.78038,1.00396 -16.84441,46.6486 z m 13.56428,-46.26856 7.18865,-6.83295 1.15248,9.84486 z"
   style="fill:#000000;fill-opacity:1;fill-rule:nonzero;stroke:none;stroke-width:1.31382"
   id="path15144" /></g></svg>
