<?xml version="1.0" encoding="UTF-8" standalone="no"?>
<svg
   xmlns:dc="http://purl.org/dc/elements/1.1/"
   xmlns:cc="http://creativecommons.org/ns#"
   xmlns:rdf="http://www.w3.org/1999/02/22-rdf-syntax-ns#"
   xmlns:svg="http://www.w3.org/2000/svg"
   xmlns="http://www.w3.org/2000/svg"
   xmlns:sodipodi="http://sodipodi.sourceforge.net/DTD/sodipodi-0.dtd"
   xmlns:inkscape="http://www.inkscape.org/namespaces/inkscape"
   viewBox="0 0 526.67283 420.00619"
   height="420.0062"
   width="526.67285"
   xml:space="preserve"
   id="svg2"
   version="1.1"
   sodipodi:docname="heat-01.svg"
   inkscape:version="0.92.2 (5c3e80d, 2017-08-06)"><sodipodi:namedview
     pagecolor="#ffffff"
     bordercolor="#666666"
     borderopacity="1"
     objecttolerance="10"
     gridtolerance="10"
     guidetolerance="10"
     inkscape:pageopacity="0"
     inkscape:pageshadow="2"
     inkscape:window-width="818"
     inkscape:window-height="480"
     id="namedview435"
     showgrid="false"
     inkscape:zoom="0.297479"
     inkscape:cx="252.40624"
     inkscape:cy="173.46668"
     inkscape:window-x="0"
     inkscape:window-y="0"
     inkscape:window-maximized="0"
     inkscape:current-layer="g14" /><metadata
     id="metadata8"><rdf:RDF><cc:Work
         rdf:about=""><dc:format>image/svg+xml</dc:format><dc:type
           rdf:resource="http://purl.org/dc/dcmitype/StillImage" /><dc:title /></cc:Work></rdf:RDF></metadata><defs
     id="defs6"><clipPath
       id="clipPath18"
       clipPathUnits="userSpaceOnUse"><path
         style="clip-rule:evenodd"
         id="path16"
         d="M 0,-0.2 H 793.6 V 595 H 0 Z"
         inkscape:connector-curvature="0" /></clipPath><clipPath
       id="clipPath32"
       clipPathUnits="userSpaceOnUse"><path
         id="path30"
         d="m 385.8,292.3 h 69.1 v 65.4 h -69.1 z"
         inkscape:connector-curvature="0" /></clipPath><clipPath
       id="clipPath72"
       clipPathUnits="userSpaceOnUse"><path
         id="path70"
         d="m 319.7,347.3 h 69.1 v 65.4 h -69.1 z"
         inkscape:connector-curvature="0" /></clipPath><clipPath
       id="clipPath112"
       clipPathUnits="userSpaceOnUse"><path
         id="path110"
         d="m 327.7,227.3 h 69.1 v 65.4 h -69.1 z"
         inkscape:connector-curvature="0" /></clipPath><clipPath
       id="clipPath152"
       clipPathUnits="userSpaceOnUse"><path
         id="path150"
         d="m 442.7,333.3 h 69.1 v 65.4 h -69.1 z"
         inkscape:connector-curvature="0" /></clipPath><clipPath
       id="clipPath192"
       clipPathUnits="userSpaceOnUse"><path
         id="path190"
         d="m 274.8,415.4 h 69.1 v 65.4 h -69.1 z"
         inkscape:connector-curvature="0" /></clipPath><clipPath
       id="clipPath232"
       clipPathUnits="userSpaceOnUse"><path
         id="path230"
         d="m 207.8,182.3 h 69.1 v 65.4 h -69.1 z"
         inkscape:connector-curvature="0" /></clipPath><clipPath
       id="clipPath272"
       clipPathUnits="userSpaceOnUse"><path
         id="path270"
         d="m 533.7,167.4 h 69 v 65.4 h -69 z"
         inkscape:connector-curvature="0" /></clipPath><clipPath
       id="clipPath276"
       clipPathUnits="userSpaceOnUse"><path
         id="path274"
         d="m 534.8,168.4 h 67.1 v 63.3 h -67.1 z"
         inkscape:connector-curvature="0" /></clipPath><clipPath
       id="clipPath280"
       clipPathUnits="userSpaceOnUse"><path
         id="path278"
         d="m 533.7,167.4 h 69 v 65.4 h -69 z"
         inkscape:connector-curvature="0" /></clipPath><clipPath
       id="clipPath284"
       clipPathUnits="userSpaceOnUse"><path
         id="path282"
         d="M -60873552,595 H 0.1 V 60874147 H -60873552 Z"
         inkscape:connector-curvature="0" /></clipPath><clipPath
       id="clipPath288"
       clipPathUnits="userSpaceOnUse"><path
         id="path286"
         d="M -60873552,595 H 0.1 V 60874147 H -60873552 Z"
         inkscape:connector-curvature="0" /></clipPath><clipPath
       id="clipPath434"
       clipPathUnits="userSpaceOnUse"><path
         id="path432"
         d="m 534.8,170.2 h 67.1 v 63.3 h -67.1 z"
         inkscape:connector-curvature="0" /></clipPath><clipPath
       id="clipPath448"
       clipPathUnits="userSpaceOnUse"><path
         id="path446"
         d="m 533.7,169.2 h 69 v 65.4 h -69 z"
         inkscape:connector-curvature="0" /></clipPath><clipPath
       id="clipPath560"
       clipPathUnits="userSpaceOnUse"><path
         id="path558"
         d="M -60873552,595 H 0.1 V 60874147 H -60873552 Z"
         inkscape:connector-curvature="0" /></clipPath><clipPath
       id="clipPath572"
       clipPathUnits="userSpaceOnUse"><path
         id="path570"
         d="M -60873552,595 H 0.1 V 60874147 H -60873552 Z"
         inkscape:connector-curvature="0" /></clipPath><clipPath
       id="clipPath596"
       clipPathUnits="userSpaceOnUse"><path
         id="path594"
         d="M 290.7,199.1 H 550 V 450.8 H 290.7 Z"
         inkscape:connector-curvature="0" /></clipPath><clipPath
       id="clipPath600"
       clipPathUnits="userSpaceOnUse"><path
         id="path598"
         d="M 291.7,200.1 H 549 V 449.8 H 291.7 Z"
         inkscape:connector-curvature="0" /></clipPath><clipPath
       id="clipPath604"
       clipPathUnits="userSpaceOnUse"><path
         id="path602"
         d="M 290.7,199.1 H 550 V 450.8 H 290.7 Z"
         inkscape:connector-curvature="0" /></clipPath><clipPath
       id="clipPath608"
       clipPathUnits="userSpaceOnUse"><path
         id="path606"
         d="m 290.7,448.7 h 2 v 2.1 h -2 z"
         inkscape:connector-curvature="0" /></clipPath><clipPath
       id="clipPath612"
       clipPathUnits="userSpaceOnUse"><path
         id="path610"
         d="m 547.9,199.1 h 2 v 2.1 h -2 z"
         inkscape:connector-curvature="0" /></clipPath><clipPath
       id="clipPath670"
       clipPathUnits="userSpaceOnUse"><path
         id="path668"
         d="M 291.7,201.9 H 549 V 451.6 H 291.7 Z"
         inkscape:connector-curvature="0" /></clipPath><clipPath
       id="clipPath684"
       clipPathUnits="userSpaceOnUse"><path
         id="path682"
         d="M 290.7,201 H 550 V 452.7 H 290.7 Z"
         inkscape:connector-curvature="0" /></clipPath><clipPath
       id="clipPath700"
       clipPathUnits="userSpaceOnUse"><path
         id="path698"
         d="m 290.7,450.5 h 2 v 2.1 h -2 z"
         inkscape:connector-curvature="0" /></clipPath><clipPath
       id="clipPath716"
       clipPathUnits="userSpaceOnUse"><path
         id="path714"
         d="m 547.9,200.9 h 2 v 2.1 h -2 z"
         inkscape:connector-curvature="0" /></clipPath><clipPath
       id="clipPath732"
       clipPathUnits="userSpaceOnUse"><path
         id="path730"
         d="M 419.2,192 H 533.9 V 316.1 H 419.2 Z"
         inkscape:connector-curvature="0" /></clipPath><clipPath
       id="clipPath736"
       clipPathUnits="userSpaceOnUse"><path
         id="path734"
         d="M 419.2,192 H 533.9 V 316.1 H 419.2 Z"
         inkscape:connector-curvature="0" /></clipPath><clipPath
       id="clipPath740"
       clipPathUnits="userSpaceOnUse"><path
         id="path738"
         d="M -60873552,595 H 0.1 V 60874147 H -60873552 Z"
         inkscape:connector-curvature="0" /></clipPath><clipPath
       id="clipPath744"
       clipPathUnits="userSpaceOnUse"><path
         id="path742"
         d="M -60873552,595 H 0.1 V 60874147 H -60873552 Z"
         inkscape:connector-curvature="0" /></clipPath><clipPath
       id="clipPath810"
       clipPathUnits="userSpaceOnUse"><path
         id="path808"
         d="M 419.2,193.8 H 533.9 V 317.9 H 419.2 Z"
         inkscape:connector-curvature="0" /></clipPath><clipPath
       id="clipPath852"
       clipPathUnits="userSpaceOnUse"><path
         id="path850"
         d="M -60873552,595 H 0.1 V 60874147 H -60873552 Z"
         inkscape:connector-curvature="0" /></clipPath><clipPath
       id="clipPath864"
       clipPathUnits="userSpaceOnUse"><path
         id="path862"
         d="M -60873552,595 H 0.1 V 60874147 H -60873552 Z"
         inkscape:connector-curvature="0" /></clipPath></defs><g
     transform="matrix(1.3333333,0,0,-1.3333333,-276.92714,643.20618)"
     id="g10"><g
       id="g12"><g
         clip-path="url(#clipPath18)"
         id="g14"><g
           id="g22" /><g
           id="g24" /><g
           id="g26"><g
             id="g28" /><g
             id="g50"><g
               style="opacity:0.35"
               id="g48"
               clip-path="url(#clipPath32)"><path
                 id="path34"
                 style="fill:#000000;fill-opacity:1;fill-rule:evenodd;stroke:none"
                 d="m 386.8,325 v 0 1.6 l 0.2,1.6 0.2,1.6 0.3,1.5 0.3,1.6 0.5,1.5 0.6,1.5 0.6,1.5 0.7,1.5 0.8,1.4 0.8,1.4 1,1.3 1,1.3 1,1.3 1.2,1.1 1.2,1.2 1.2,1.1 1.4,0.9 1.3,1 1.4,0.9 1.5,0.8 1.5,0.7 1.6,0.7 1.5,0.6 1.6,0.5 1.7,0.5 1.6,0.3 1.7,0.3 1.7,0.2 1.7,0.1 1.7,0.1 v 0 l 1.7,-0.1 1.8,-0.1 1.7,-0.2 1.7,-0.3 1.7,-0.4 1.7,-0.5 1.7,-0.5 1.6,-0.6 1.6,-0.8 1.5,-0.7 1.5,-0.9 1.4,-1 1.4,-1 1.4,-1 1.2,-1.2 1.2,-1.2 1.2,-1.2 1,-1.3 1,-1.4 0.9,-1.4 0.9,-1.5 0.8,-1.5 0.6,-1.5 0.6,-1.5 0.5,-1.6 0.4,-1.6 0.3,-1.7 0.2,-1.6 0.2,-1.7 v -1.6 0 -1.6 l -0.1,-1.7 -0.3,-1.6 -0.3,-1.7 -0.4,-1.6 -0.5,-1.6 -0.6,-1.5 -0.6,-1.5 -0.8,-1.5 -0.8,-1.5 -0.9,-1.4 -1.1,-1.4 -1,-1.3 -1.1,-1.2 -1.3,-1.2 -1.2,-1.2 -1.4,-1 -1.4,-1.1 -1.4,-0.9 -1.5,-0.9 -1.5,-0.7 -1.6,-0.8 -1.6,-0.6 -1.7,-0.5 -1.7,-0.5 -1.7,-0.4 -1.7,-0.3 -1.7,-0.2 -1.8,-0.1 -1.7,-0.1 v 0 l -1.8,0.1 -1.7,0.1 -1.8,0.2 -1.7,0.3 -1.7,0.4 -1.7,0.5 -1.6,0.5 -1.7,0.6 -1.5,0.7 -1.6,0.8 -1.5,0.9 -1.4,0.9 -1.4,1 -1.4,1.1 -1.2,1.1 -1.2,1.3 -1.2,1.2 -1,1.3 -1,1.4 -0.9,1.4 -0.9,1.4 -0.7,1.5 -0.7,1.6 -0.6,1.5 -0.5,1.6 -0.4,1.6 -0.3,1.6 -0.2,1.7 -0.2,1.6 z m 0,31.6 z m 67,-63.2 z"
                 inkscape:connector-curvature="0" /><g
                 id="g38"><path
                   id="path36"
                   style="fill:none;stroke:#000000;stroke-width:2.00929999;stroke-linecap:butt;stroke-linejoin:round;stroke-miterlimit:10;stroke-dasharray:none;stroke-opacity:1"
                   d="m 386.8,325 v 0 1.6 l 0.2,1.6 0.2,1.6 0.3,1.5 0.3,1.6 0.5,1.5 0.6,1.5 0.6,1.5 0.7,1.5 0.8,1.4 0.8,1.4 1,1.3 1,1.3 1,1.3 1.2,1.1 1.2,1.2 1.2,1.1 1.4,0.9 1.3,1 1.4,0.9 1.5,0.8 1.5,0.7 1.6,0.7 1.5,0.6 1.6,0.5 1.7,0.5 1.6,0.3 1.7,0.3 1.7,0.2 1.7,0.1 1.7,0.1 v 0 l 1.7,-0.1 1.8,-0.1 1.7,-0.2 1.7,-0.3 1.7,-0.4 1.7,-0.5 1.7,-0.5 1.6,-0.6 1.6,-0.8 1.5,-0.7 1.5,-0.9 1.4,-1 1.4,-1 1.4,-1 1.2,-1.2 1.2,-1.2 1.2,-1.2 1,-1.3 1,-1.4 0.9,-1.4 0.9,-1.5 0.8,-1.5 0.6,-1.5 0.6,-1.5 0.5,-1.6 0.4,-1.6 0.3,-1.7 0.2,-1.6 0.2,-1.7 v -1.6 0 -1.6 l -0.1,-1.7 -0.3,-1.6 -0.3,-1.7 -0.4,-1.6 -0.5,-1.6 -0.6,-1.5 -0.6,-1.5 -0.8,-1.5 -0.8,-1.5 -0.9,-1.4 -1.1,-1.4 -1,-1.3 -1.1,-1.2 -1.3,-1.2 -1.2,-1.2 -1.4,-1 -1.4,-1.1 -1.4,-0.9 -1.5,-0.9 -1.5,-0.7 -1.6,-0.8 -1.6,-0.6 -1.7,-0.5 -1.7,-0.5 -1.7,-0.4 -1.7,-0.3 -1.7,-0.2 -1.8,-0.1 -1.7,-0.1 v 0 l -1.8,0.1 -1.7,0.1 -1.8,0.2 -1.7,0.3 -1.7,0.4 -1.7,0.5 -1.6,0.5 -1.7,0.6 -1.5,0.7 -1.6,0.8 -1.5,0.9 -1.4,0.9 -1.4,1 -1.4,1.1 -1.2,1.1 -1.2,1.3 -1.2,1.2 -1,1.3 -1,1.4 -0.9,1.4 -0.9,1.4 -0.7,1.5 -0.7,1.6 -0.6,1.5 -0.5,1.6 -0.4,1.6 -0.3,1.6 -0.2,1.7 -0.2,1.6 z"
                   inkscape:connector-curvature="0" /></g><g
                 id="g42"><path
                   id="path40"
                   style="fill:none;stroke:#000000;stroke-width:2.00929999;stroke-linecap:butt;stroke-linejoin:round;stroke-miterlimit:10;stroke-dasharray:none;stroke-opacity:1"
                   d="M 386.8,356.6 Z"
                   inkscape:connector-curvature="0" /></g><g
                 id="g46"><path
                   id="path44"
                   style="fill:none;stroke:#000000;stroke-width:2.00929999;stroke-linecap:butt;stroke-linejoin:round;stroke-miterlimit:10;stroke-dasharray:none;stroke-opacity:1"
                   d="M 453.8,293.4 Z"
                   inkscape:connector-curvature="0" /></g></g></g></g><path
           id="path52"
           style="fill:#a591bd;fill-opacity:1;fill-rule:evenodd;stroke:none"
           d="m 386.8,326.8 v 0 1.6 l 0.2,1.6 0.2,1.6 0.3,1.5 0.3,1.6 0.5,1.6 0.6,1.5 0.6,1.4 0.7,1.5 0.8,1.4 0.8,1.4 1,1.3 1,1.3 1,1.3 1.2,1.2 1.2,1.1 1.2,1.1 1.4,1 1.3,0.9 1.4,0.9 1.5,0.8 1.5,0.8 1.6,0.6 1.5,0.6 1.6,0.5 1.7,0.5 1.6,0.3 1.7,0.3 1.7,0.2 1.7,0.2 h 1.7 v 0 l 1.7,-0.1 1.8,-0.1 1.7,-0.2 1.7,-0.3 1.7,-0.4 1.7,-0.5 1.7,-0.5 1.6,-0.6 1.6,-0.7 1.5,-0.8 1.5,-0.9 1.4,-0.9 1.4,-1 1.4,-1.1 1.2,-1.1 1.2,-1.3 1.2,-1.2 1,-1.3 1,-1.4 0.9,-1.4 0.9,-1.4 0.8,-1.5 0.6,-1.6 0.6,-1.5 0.5,-1.6 0.4,-1.6 0.3,-1.7 0.2,-1.6 0.2,-1.6 v -1.7 0 -1.6 l -0.1,-1.7 -0.3,-1.6 -0.3,-1.7 -0.4,-1.5 -0.5,-1.6 -0.6,-1.6 -0.6,-1.5 -0.8,-1.5 -0.8,-1.5 -0.9,-1.4 -1.1,-1.4 -1,-1.3 -1.1,-1.2 -1.3,-1.2 -1.2,-1.2 -1.4,-1 -1.4,-1.1 -1.4,-0.9 -1.5,-0.8 -1.5,-0.8 -1.6,-0.7 -1.6,-0.7 -1.7,-0.5 -1.7,-0.5 -1.7,-0.4 -1.7,-0.3 -1.7,-0.2 -1.8,-0.1 -1.7,-0.1 v 0 l -1.8,0.1 -1.7,0.1 -1.8,0.2 -1.7,0.3 -1.7,0.4 -1.7,0.5 -1.6,0.5 -1.7,0.6 -1.5,0.7 -1.6,0.8 -1.5,0.9 -1.4,0.9 -1.4,1 -1.4,1.1 -1.2,1.1 -1.2,1.3 -1.2,1.2 -1,1.3 -1,1.4 -0.9,1.4 -0.9,1.4 -0.7,1.5 -0.7,1.6 -0.6,1.5 -0.5,1.6 -0.4,1.6 -0.3,1.7 -0.2,1.6 -0.2,1.6 z m 0,31.6 z m 67,-63.2 z"
           inkscape:connector-curvature="0" /><g
           id="g54"><path
             id="path56"
             style="fill:none;stroke:#525e66;stroke-width:2.00929999;stroke-linecap:butt;stroke-linejoin:round;stroke-miterlimit:10;stroke-dasharray:none;stroke-opacity:1"
             d="m 386.8,326.8 v 0 1.6 l 0.2,1.6 0.2,1.6 0.3,1.5 0.3,1.6 0.5,1.6 0.6,1.5 0.6,1.4 0.7,1.5 0.8,1.4 0.8,1.4 1,1.3 1,1.3 1,1.3 1.2,1.2 1.2,1.1 1.2,1.1 1.4,1 1.3,0.9 1.4,0.9 1.5,0.8 1.5,0.8 1.6,0.6 1.5,0.6 1.6,0.5 1.7,0.5 1.6,0.3 1.7,0.3 1.7,0.2 1.7,0.2 h 1.7 v 0 l 1.7,-0.1 1.8,-0.1 1.7,-0.2 1.7,-0.3 1.7,-0.4 1.7,-0.5 1.7,-0.5 1.6,-0.6 1.6,-0.7 1.5,-0.8 1.5,-0.9 1.4,-0.9 1.4,-1 1.4,-1.1 1.2,-1.1 1.2,-1.3 1.2,-1.2 1,-1.3 1,-1.4 0.9,-1.4 0.9,-1.4 0.8,-1.5 0.6,-1.6 0.6,-1.5 0.5,-1.6 0.4,-1.6 0.3,-1.7 0.2,-1.6 0.2,-1.6 v -1.7 0 -1.6 l -0.1,-1.7 -0.3,-1.6 -0.3,-1.7 -0.4,-1.5 -0.5,-1.6 -0.6,-1.6 -0.6,-1.5 -0.8,-1.5 -0.8,-1.5 -0.9,-1.4 -1.1,-1.4 -1,-1.3 -1.1,-1.2 -1.3,-1.2 -1.2,-1.2 -1.4,-1 -1.4,-1.1 -1.4,-0.9 -1.5,-0.8 -1.5,-0.8 -1.6,-0.7 -1.6,-0.7 -1.7,-0.5 -1.7,-0.5 -1.7,-0.4 -1.7,-0.3 -1.7,-0.2 -1.8,-0.1 -1.7,-0.1 v 0 l -1.8,0.1 -1.7,0.1 -1.8,0.2 -1.7,0.3 -1.7,0.4 -1.7,0.5 -1.6,0.5 -1.7,0.6 -1.5,0.7 -1.6,0.8 -1.5,0.9 -1.4,0.9 -1.4,1 -1.4,1.1 -1.2,1.1 -1.2,1.3 -1.2,1.2 -1,1.3 -1,1.4 -0.9,1.4 -0.9,1.4 -0.7,1.5 -0.7,1.6 -0.6,1.5 -0.5,1.6 -0.4,1.6 -0.3,1.7 -0.2,1.6 -0.2,1.6 z"
             inkscape:connector-curvature="0" /></g><g
           id="g58"><path
             id="path60"
             style="fill:none;stroke:#525e66;stroke-width:2.00929999;stroke-linecap:butt;stroke-linejoin:round;stroke-miterlimit:10;stroke-dasharray:none;stroke-opacity:1"
             d="M 386.8,358.4 Z"
             inkscape:connector-curvature="0" /></g><g
           id="g62"><path
             id="path64"
             style="fill:none;stroke:#525e66;stroke-width:2.00929999;stroke-linecap:butt;stroke-linejoin:round;stroke-miterlimit:10;stroke-dasharray:none;stroke-opacity:1"
             d="M 453.8,295.2 Z"
             inkscape:connector-curvature="0" /></g><g
           id="g66"><g
             id="g68" /><g
             id="g90"><g
               style="opacity:0.35"
               id="g88"
               clip-path="url(#clipPath72)"><path
                 id="path74"
                 style="fill:#000000;fill-opacity:1;fill-rule:evenodd;stroke:none"
                 d="m 320.8,380 v 0 1.6 l 0.1,1.6 0.2,1.6 0.3,1.5 0.4,1.6 0.5,1.6 0.5,1.5 0.7,1.4 0.7,1.5 0.8,1.4 0.8,1.4 0.9,1.3 1.1,1.3 1,1.3 1.2,1.2 1.2,1.1 1.2,1.1 1.4,1 1.3,0.9 1.4,0.9 1.5,0.8 1.5,0.8 1.5,0.6 1.6,0.6 1.6,0.6 1.7,0.4 1.6,0.3 1.7,0.3 1.6,0.2 1.7,0.2 h 1.7 v 0 l 1.8,-0.1 1.7,-0.1 1.8,-0.2 1.7,-0.3 1.7,-0.4 1.7,-0.5 1.6,-0.5 1.7,-0.6 1.5,-0.7 1.6,-0.8 1.5,-0.9 1.4,-0.9 1.4,-1 1.3,-1.1 1.3,-1.1 1.2,-1.3 1.1,-1.2 1.1,-1.3 1,-1.4 0.9,-1.4 0.9,-1.4 0.7,-1.5 0.7,-1.6 0.6,-1.5 0.5,-1.6 0.4,-1.6 0.3,-1.6 0.2,-1.7 0.2,-1.6 v -1.7 0 -1.6 l -0.1,-1.7 -0.3,-1.6 -0.3,-1.7 -0.4,-1.5 -0.5,-1.6 -0.6,-1.6 -0.7,-1.5 -0.7,-1.5 -0.9,-1.5 -0.9,-1.4 -1,-1.3 -1,-1.4 -1.2,-1.2 -1.2,-1.2 -1.3,-1.2 -1.3,-1 -1.4,-1 -1.4,-1 -1.5,-0.8 -1.6,-0.8 -1.5,-0.7 -1.7,-0.7 -1.6,-0.5 -1.7,-0.5 -1.7,-0.4 -1.7,-0.3 -1.8,-0.2 -1.7,-0.1 -1.8,-0.1 v 0 l -1.7,0.1 -1.7,0.1 -1.8,0.2 -1.7,0.3 -1.7,0.4 -1.7,0.5 -1.6,0.5 -1.7,0.6 -1.5,0.7 -1.6,0.8 -1.5,0.9 -1.4,1 -1.4,0.9 -1.4,1.1 -1.2,1.2 -1.2,1.2 -1.2,1.2 -1.1,1.3 -0.9,1.4 -1,1.4 -0.8,1.4 -0.7,1.6 -0.7,1.5 -0.6,1.5 -0.5,1.6 -0.4,1.6 -0.3,1.7 -0.3,1.6 -0.1,1.6 -0.1,1.7 z m 0,31.6 z m 67,-63.2 z"
                 inkscape:connector-curvature="0" /><g
                 id="g78"><path
                   id="path76"
                   style="fill:none;stroke:#000000;stroke-width:2.00929999;stroke-linecap:butt;stroke-linejoin:round;stroke-miterlimit:10;stroke-dasharray:none;stroke-opacity:1"
                   d="m 320.8,380 v 0 1.6 l 0.1,1.6 0.2,1.6 0.3,1.5 0.4,1.6 0.5,1.6 0.5,1.5 0.7,1.4 0.7,1.5 0.8,1.4 0.8,1.4 0.9,1.3 1.1,1.3 1,1.3 1.2,1.2 1.2,1.1 1.2,1.1 1.4,1 1.3,0.9 1.4,0.9 1.5,0.8 1.5,0.8 1.5,0.6 1.6,0.6 1.6,0.6 1.7,0.4 1.6,0.3 1.7,0.3 1.6,0.2 1.7,0.2 h 1.7 v 0 l 1.8,-0.1 1.7,-0.1 1.8,-0.2 1.7,-0.3 1.7,-0.4 1.7,-0.5 1.6,-0.5 1.7,-0.6 1.5,-0.7 1.6,-0.8 1.5,-0.9 1.4,-0.9 1.4,-1 1.3,-1.1 1.3,-1.1 1.2,-1.3 1.1,-1.2 1.1,-1.3 1,-1.4 0.9,-1.4 0.9,-1.4 0.7,-1.5 0.7,-1.6 0.6,-1.5 0.5,-1.6 0.4,-1.6 0.3,-1.6 0.2,-1.7 0.2,-1.6 v -1.7 0 -1.6 l -0.1,-1.7 -0.3,-1.6 -0.3,-1.7 -0.4,-1.5 -0.5,-1.6 -0.6,-1.6 -0.7,-1.5 -0.7,-1.5 -0.9,-1.5 -0.9,-1.4 -1,-1.3 -1,-1.4 -1.2,-1.2 -1.2,-1.2 -1.3,-1.2 -1.3,-1 -1.4,-1 -1.4,-1 -1.5,-0.8 -1.6,-0.8 -1.5,-0.7 -1.7,-0.7 -1.6,-0.5 -1.7,-0.5 -1.7,-0.4 -1.7,-0.3 -1.8,-0.2 -1.7,-0.1 -1.8,-0.1 v 0 l -1.7,0.1 -1.7,0.1 -1.8,0.2 -1.7,0.3 -1.7,0.4 -1.7,0.5 -1.6,0.5 -1.7,0.6 -1.5,0.7 -1.6,0.8 -1.5,0.9 -1.4,1 -1.4,0.9 -1.4,1.1 -1.2,1.2 -1.2,1.2 -1.2,1.2 -1.1,1.3 -0.9,1.4 -1,1.4 -0.8,1.4 -0.7,1.6 -0.7,1.5 -0.6,1.5 -0.5,1.6 -0.4,1.6 -0.3,1.7 -0.3,1.6 -0.1,1.6 -0.1,1.7 z"
                   inkscape:connector-curvature="0" /></g><g
                 id="g82"><path
                   id="path80"
                   style="fill:none;stroke:#000000;stroke-width:2.00929999;stroke-linecap:butt;stroke-linejoin:round;stroke-miterlimit:10;stroke-dasharray:none;stroke-opacity:1"
                   d="M 320.8,411.6 Z"
                   inkscape:connector-curvature="0" /></g><g
                 id="g86"><path
                   id="path84"
                   style="fill:none;stroke:#000000;stroke-width:2.00929999;stroke-linecap:butt;stroke-linejoin:round;stroke-miterlimit:10;stroke-dasharray:none;stroke-opacity:1"
                   d="M 387.8,348.4 Z"
                   inkscape:connector-curvature="0" /></g></g></g></g><path
           id="path92"
           style="fill:#a591bd;fill-opacity:1;fill-rule:evenodd;stroke:none"
           d="m 320.8,381.8 v 0 1.6 l 0.1,1.6 0.2,1.6 0.3,1.6 0.4,1.5 0.5,1.6 0.5,1.5 0.7,1.5 0.7,1.4 0.8,1.4 0.8,1.4 0.9,1.4 1.1,1.2 1,1.3 1.2,1.2 1.2,1.1 1.2,1.1 1.4,1 1.3,0.9 1.4,0.9 1.5,0.8 1.5,0.8 1.5,0.6 1.6,0.6 1.6,0.6 1.7,0.4 1.6,0.4 1.7,0.2 1.6,0.2 1.7,0.2 h 1.7 v 0 h 1.8 l 1.7,-0.2 1.8,-0.2 1.7,-0.3 1.7,-0.4 1.7,-0.4 1.6,-0.6 1.7,-0.6 1.5,-0.7 1.6,-0.8 1.5,-0.9 1.4,-0.9 1.4,-1 1.3,-1.1 1.3,-1.1 1.2,-1.2 1.1,-1.3 1.1,-1.3 1,-1.4 0.9,-1.4 0.9,-1.4 0.7,-1.5 0.7,-1.6 0.6,-1.5 0.5,-1.6 0.4,-1.6 0.3,-1.6 0.2,-1.7 0.2,-1.6 v -1.7 0 -1.6 l -0.1,-1.7 -0.3,-1.6 -0.3,-1.6 -0.4,-1.6 -0.5,-1.6 -0.6,-1.6 -0.7,-1.5 -0.7,-1.5 -0.9,-1.5 -0.9,-1.4 -1,-1.3 -1,-1.3 -1.2,-1.3 -1.2,-1.2 -1.3,-1.1 -1.3,-1.1 -1.4,-1 -1.4,-1 -1.5,-0.8 -1.6,-0.8 -1.5,-0.7 -1.7,-0.7 -1.6,-0.5 -1.7,-0.5 -1.7,-0.4 -1.7,-0.3 -1.8,-0.2 -1.7,-0.1 -1.8,-0.1 v 0 l -1.7,0.1 -1.7,0.1 -1.8,0.2 -1.7,0.3 -1.7,0.4 -1.7,0.5 -1.6,0.5 -1.7,0.6 -1.5,0.8 -1.6,0.8 -1.5,0.8 -1.4,1 -1.4,1 -1.4,1 -1.2,1.2 -1.2,1.2 -1.2,1.2 -1.1,1.3 -0.9,1.4 -1,1.4 -0.8,1.5 -0.7,1.5 -0.7,1.5 -0.6,1.6 -0.5,1.5 -0.4,1.6 -0.3,1.7 -0.3,1.6 -0.1,1.7 -0.1,1.6 z m 0,31.6 z m 67,-63.2 z"
           inkscape:connector-curvature="0" /><g
           id="g94"><path
             id="path96"
             style="fill:none;stroke:#525e66;stroke-width:2.00929999;stroke-linecap:butt;stroke-linejoin:round;stroke-miterlimit:10;stroke-dasharray:none;stroke-opacity:1"
             d="m 320.8,381.8 v 0 1.6 l 0.1,1.6 0.2,1.6 0.3,1.6 0.4,1.5 0.5,1.6 0.5,1.5 0.7,1.5 0.7,1.4 0.8,1.4 0.8,1.4 0.9,1.4 1.1,1.2 1,1.3 1.2,1.2 1.2,1.1 1.2,1.1 1.4,1 1.3,0.9 1.4,0.9 1.5,0.8 1.5,0.8 1.5,0.6 1.6,0.6 1.6,0.6 1.7,0.4 1.6,0.4 1.7,0.2 1.6,0.2 1.7,0.2 h 1.7 v 0 h 1.8 l 1.7,-0.2 1.8,-0.2 1.7,-0.3 1.7,-0.4 1.7,-0.4 1.6,-0.6 1.7,-0.6 1.5,-0.7 1.6,-0.8 1.5,-0.9 1.4,-0.9 1.4,-1 1.3,-1.1 1.3,-1.1 1.2,-1.2 1.1,-1.3 1.1,-1.3 1,-1.4 0.9,-1.4 0.9,-1.4 0.7,-1.5 0.7,-1.6 0.6,-1.5 0.5,-1.6 0.4,-1.6 0.3,-1.6 0.2,-1.7 0.2,-1.6 v -1.7 0 -1.6 l -0.1,-1.7 -0.3,-1.6 -0.3,-1.6 -0.4,-1.6 -0.5,-1.6 -0.6,-1.6 -0.7,-1.5 -0.7,-1.5 -0.9,-1.5 -0.9,-1.4 -1,-1.3 -1,-1.3 -1.2,-1.3 -1.2,-1.2 -1.3,-1.1 -1.3,-1.1 -1.4,-1 -1.4,-1 -1.5,-0.8 -1.6,-0.8 -1.5,-0.7 -1.7,-0.7 -1.6,-0.5 -1.7,-0.5 -1.7,-0.4 -1.7,-0.3 -1.8,-0.2 -1.7,-0.1 -1.8,-0.1 v 0 l -1.7,0.1 -1.7,0.1 -1.8,0.2 -1.7,0.3 -1.7,0.4 -1.7,0.5 -1.6,0.5 -1.7,0.6 -1.5,0.8 -1.6,0.8 -1.5,0.8 -1.4,1 -1.4,1 -1.4,1 -1.2,1.2 -1.2,1.2 -1.2,1.2 -1.1,1.3 -0.9,1.4 -1,1.4 -0.8,1.5 -0.7,1.5 -0.7,1.5 -0.6,1.6 -0.5,1.5 -0.4,1.6 -0.3,1.7 -0.3,1.6 -0.1,1.7 -0.1,1.6 z"
             inkscape:connector-curvature="0" /></g><g
           id="g98"><path
             id="path100"
             style="fill:none;stroke:#525e66;stroke-width:2.00929999;stroke-linecap:butt;stroke-linejoin:round;stroke-miterlimit:10;stroke-dasharray:none;stroke-opacity:1"
             d="M 320.8,413.4 Z"
             inkscape:connector-curvature="0" /></g><g
           id="g102"><path
             id="path104"
             style="fill:none;stroke:#525e66;stroke-width:2.00929999;stroke-linecap:butt;stroke-linejoin:round;stroke-miterlimit:10;stroke-dasharray:none;stroke-opacity:1"
             d="M 387.8,350.2 Z"
             inkscape:connector-curvature="0" /></g><g
           id="g106"><g
             id="g108" /><g
             id="g130"><g
               style="opacity:0.35"
               id="g128"
               clip-path="url(#clipPath112)"><path
                 id="path114"
                 style="fill:#000000;fill-opacity:1;fill-rule:evenodd;stroke:none"
                 d="m 328.8,260 v 0 1.6 l 0.1,1.6 0.2,1.6 0.3,1.5 0.4,1.6 0.5,1.5 0.5,1.5 0.7,1.5 0.7,1.5 0.8,1.4 0.8,1.4 0.9,1.3 1.1,1.3 1,1.3 1.2,1.1 1.2,1.2 1.2,1.1 1.3,0.9 1.4,1 1.4,0.9 1.5,0.8 1.5,0.7 1.5,0.7 1.6,0.6 1.6,0.5 1.6,0.5 1.7,0.3 1.7,0.3 1.6,0.2 1.7,0.2 h 1.7 v 0 l 1.8,-0.1 1.7,-0.1 1.8,-0.2 1.7,-0.3 1.7,-0.4 1.7,-0.5 1.6,-0.5 1.6,-0.6 1.6,-0.8 1.6,-0.7 1.5,-0.9 1.4,-1 1.4,-1 1.3,-1 1.3,-1.2 1.2,-1.2 1.1,-1.2 1.1,-1.3 1,-1.4 0.9,-1.4 0.9,-1.5 0.7,-1.5 0.7,-1.5 0.6,-1.5 0.5,-1.6 0.4,-1.6 0.3,-1.7 0.2,-1.6 0.2,-1.7 v -1.6 0 -1.6 l -0.2,-1.7 -0.2,-1.6 -0.3,-1.7 -0.4,-1.6 -0.5,-1.5 -0.6,-1.6 -0.7,-1.5 -0.7,-1.5 -0.9,-1.5 -0.9,-1.4 -1,-1.4 -1,-1.3 -1.2,-1.2 -1.2,-1.2 -1.3,-1.2 -1.3,-1 -1.4,-1.1 -1.4,-0.9 -1.5,-0.9 -1.6,-0.7 -1.6,-0.8 -1.6,-0.6 -1.6,-0.5 -1.7,-0.5 -1.7,-0.4 -1.7,-0.3 -1.8,-0.2 -1.7,-0.1 -1.8,-0.1 v 0 l -1.7,0.1 -1.7,0.1 -1.8,0.2 -1.7,0.3 -1.7,0.4 -1.7,0.5 -1.7,0.5 -1.6,0.6 -1.6,0.7 -1.5,0.8 -1.5,0.9 -1.4,0.9 -1.4,1 -1.4,1.1 -1.2,1.1 -1.2,1.3 -1.2,1.2 -1.1,1.3 -1,1.4 -0.9,1.4 -0.8,1.4 -0.7,1.5 -0.7,1.6 -0.6,1.5 -0.5,1.6 -0.4,1.6 -0.3,1.6 -0.3,1.7 -0.1,1.6 -0.1,1.7 z m 0,31.6 z m 67,-63.2 z"
                 inkscape:connector-curvature="0" /><g
                 id="g118"><path
                   id="path116"
                   style="fill:none;stroke:#000000;stroke-width:2.00929999;stroke-linecap:butt;stroke-linejoin:round;stroke-miterlimit:10;stroke-dasharray:none;stroke-opacity:1"
                   d="m 328.8,260 v 0 1.6 l 0.1,1.6 0.2,1.6 0.3,1.5 0.4,1.6 0.5,1.5 0.5,1.5 0.7,1.5 0.7,1.5 0.8,1.4 0.8,1.4 0.9,1.3 1.1,1.3 1,1.3 1.2,1.1 1.2,1.2 1.2,1.1 1.3,0.9 1.4,1 1.4,0.9 1.5,0.8 1.5,0.7 1.5,0.7 1.6,0.6 1.6,0.5 1.6,0.5 1.7,0.3 1.7,0.3 1.6,0.2 1.7,0.2 h 1.7 v 0 l 1.8,-0.1 1.7,-0.1 1.8,-0.2 1.7,-0.3 1.7,-0.4 1.7,-0.5 1.6,-0.5 1.6,-0.6 1.6,-0.8 1.6,-0.7 1.5,-0.9 1.4,-1 1.4,-1 1.3,-1 1.3,-1.2 1.2,-1.2 1.1,-1.2 1.1,-1.3 1,-1.4 0.9,-1.4 0.9,-1.5 0.7,-1.5 0.7,-1.5 0.6,-1.5 0.5,-1.6 0.4,-1.6 0.3,-1.7 0.2,-1.6 0.2,-1.7 v -1.6 0 -1.6 l -0.2,-1.7 -0.2,-1.6 -0.3,-1.7 -0.4,-1.6 -0.5,-1.5 -0.6,-1.6 -0.7,-1.5 -0.7,-1.5 -0.9,-1.5 -0.9,-1.4 -1,-1.4 -1,-1.3 -1.2,-1.2 -1.2,-1.2 -1.3,-1.2 -1.3,-1 -1.4,-1.1 -1.4,-0.9 -1.5,-0.9 -1.6,-0.7 -1.6,-0.8 -1.6,-0.6 -1.6,-0.5 -1.7,-0.5 -1.7,-0.4 -1.7,-0.3 -1.8,-0.2 -1.7,-0.1 -1.8,-0.1 v 0 l -1.7,0.1 -1.7,0.1 -1.8,0.2 -1.7,0.3 -1.7,0.4 -1.7,0.5 -1.7,0.5 -1.6,0.6 -1.6,0.7 -1.5,0.8 -1.5,0.9 -1.4,0.9 -1.4,1 -1.4,1.1 -1.2,1.1 -1.2,1.3 -1.2,1.2 -1.1,1.3 -1,1.4 -0.9,1.4 -0.8,1.4 -0.7,1.5 -0.7,1.6 -0.6,1.5 -0.5,1.6 -0.4,1.6 -0.3,1.6 -0.3,1.7 -0.1,1.6 -0.1,1.7 z"
                   inkscape:connector-curvature="0" /></g><g
                 id="g122"><path
                   id="path120"
                   style="fill:none;stroke:#000000;stroke-width:2.00929999;stroke-linecap:butt;stroke-linejoin:round;stroke-miterlimit:10;stroke-dasharray:none;stroke-opacity:1"
                   d="M 328.8,291.6 Z"
                   inkscape:connector-curvature="0" /></g><g
                 id="g126"><path
                   id="path124"
                   style="fill:none;stroke:#000000;stroke-width:2.00929999;stroke-linecap:butt;stroke-linejoin:round;stroke-miterlimit:10;stroke-dasharray:none;stroke-opacity:1"
                   d="M 395.8,228.4 Z"
                   inkscape:connector-curvature="0" /></g></g></g></g><path
           id="path132"
           style="fill:#a591bd;fill-opacity:1;fill-rule:evenodd;stroke:none"
           d="m 328.8,261.8 v 0 1.6 l 0.1,1.6 0.2,1.6 0.3,1.5 0.4,1.6 0.5,1.6 0.5,1.5 0.7,1.4 0.7,1.5 0.8,1.4 0.8,1.4 0.9,1.3 1.1,1.3 1,1.3 1.2,1.2 1.2,1.1 1.2,1.1 1.3,1 1.4,0.9 1.4,0.9 1.5,0.8 1.5,0.8 1.5,0.6 1.6,0.6 1.6,0.5 1.6,0.5 1.7,0.3 1.7,0.3 1.6,0.2 1.7,0.2 h 1.7 v 0 l 1.8,-0.1 1.7,-0.1 1.8,-0.2 1.7,-0.3 1.7,-0.4 1.7,-0.5 1.6,-0.5 1.6,-0.6 1.6,-0.7 1.6,-0.8 1.5,-0.9 1.4,-0.9 1.4,-1 1.3,-1.1 1.3,-1.1 1.2,-1.3 1.1,-1.2 1.1,-1.3 1,-1.4 0.9,-1.4 0.9,-1.4 0.7,-1.5 0.7,-1.6 0.6,-1.5 0.5,-1.6 0.4,-1.6 0.3,-1.7 0.2,-1.6 0.2,-1.6 v -1.7 0 -1.6 l -0.2,-1.7 -0.2,-1.6 -0.3,-1.7 -0.4,-1.5 -0.5,-1.6 -0.6,-1.6 -0.7,-1.5 -0.7,-1.5 -0.9,-1.5 -0.9,-1.4 -1,-1.4 -1,-1.3 -1.2,-1.2 -1.2,-1.2 -1.3,-1.2 -1.3,-1 -1.4,-1.1 -1.4,-0.9 -1.5,-0.8 -1.6,-0.8 -1.6,-0.7 -1.6,-0.7 -1.6,-0.5 -1.7,-0.5 -1.7,-0.4 -1.7,-0.3 -1.8,-0.2 -1.7,-0.1 -1.8,-0.1 v 0 l -1.7,0.1 -1.7,0.1 -1.8,0.2 -1.7,0.3 -1.7,0.4 -1.7,0.5 -1.7,0.5 -1.6,0.6 -1.6,0.7 -1.5,0.8 -1.5,0.9 -1.4,0.9 -1.4,1 -1.4,1.1 -1.2,1.2 -1.2,1.2 -1.2,1.2 -1.1,1.3 -1,1.4 -0.9,1.4 -0.8,1.4 -0.7,1.5 -0.7,1.6 -0.6,1.5 -0.5,1.6 -0.4,1.6 -0.3,1.7 -0.3,1.6 -0.1,1.6 -0.1,1.7 z m 0,31.6 z m 67,-63.2 z"
           inkscape:connector-curvature="0" /><g
           id="g134"><path
             id="path136"
             style="fill:none;stroke:#525e66;stroke-width:2.00929999;stroke-linecap:butt;stroke-linejoin:round;stroke-miterlimit:10;stroke-dasharray:none;stroke-opacity:1"
             d="m 328.8,261.8 v 0 1.6 l 0.1,1.6 0.2,1.6 0.3,1.5 0.4,1.6 0.5,1.6 0.5,1.5 0.7,1.4 0.7,1.5 0.8,1.4 0.8,1.4 0.9,1.3 1.1,1.3 1,1.3 1.2,1.2 1.2,1.1 1.2,1.1 1.3,1 1.4,0.9 1.4,0.9 1.5,0.8 1.5,0.8 1.5,0.6 1.6,0.6 1.6,0.5 1.6,0.5 1.7,0.3 1.7,0.3 1.6,0.2 1.7,0.2 h 1.7 v 0 l 1.8,-0.1 1.7,-0.1 1.8,-0.2 1.7,-0.3 1.7,-0.4 1.7,-0.5 1.6,-0.5 1.6,-0.6 1.6,-0.7 1.6,-0.8 1.5,-0.9 1.4,-0.9 1.4,-1 1.3,-1.1 1.3,-1.1 1.2,-1.3 1.1,-1.2 1.1,-1.3 1,-1.4 0.9,-1.4 0.9,-1.4 0.7,-1.5 0.7,-1.6 0.6,-1.5 0.5,-1.6 0.4,-1.6 0.3,-1.7 0.2,-1.6 0.2,-1.6 v -1.7 0 -1.6 l -0.2,-1.7 -0.2,-1.6 -0.3,-1.7 -0.4,-1.5 -0.5,-1.6 -0.6,-1.6 -0.7,-1.5 -0.7,-1.5 -0.9,-1.5 -0.9,-1.4 -1,-1.4 -1,-1.3 -1.2,-1.2 -1.2,-1.2 -1.3,-1.2 -1.3,-1 -1.4,-1.1 -1.4,-0.9 -1.5,-0.8 -1.6,-0.8 -1.6,-0.7 -1.6,-0.7 -1.6,-0.5 -1.7,-0.5 -1.7,-0.4 -1.7,-0.3 -1.8,-0.2 -1.7,-0.1 -1.8,-0.1 v 0 l -1.7,0.1 -1.7,0.1 -1.8,0.2 -1.7,0.3 -1.7,0.4 -1.7,0.5 -1.7,0.5 -1.6,0.6 -1.6,0.7 -1.5,0.8 -1.5,0.9 -1.4,0.9 -1.4,1 -1.4,1.1 -1.2,1.2 -1.2,1.2 -1.2,1.2 -1.1,1.3 -1,1.4 -0.9,1.4 -0.8,1.4 -0.7,1.5 -0.7,1.6 -0.6,1.5 -0.5,1.6 -0.4,1.6 -0.3,1.7 -0.3,1.6 -0.1,1.6 -0.1,1.7 z"
             inkscape:connector-curvature="0" /></g><g
           id="g138"><path
             id="path140"
             style="fill:none;stroke:#525e66;stroke-width:2.00929999;stroke-linecap:butt;stroke-linejoin:round;stroke-miterlimit:10;stroke-dasharray:none;stroke-opacity:1"
             d="M 328.8,293.4 Z"
             inkscape:connector-curvature="0" /></g><g
           id="g142"><path
             id="path144"
             style="fill:none;stroke:#525e66;stroke-width:2.00929999;stroke-linecap:butt;stroke-linejoin:round;stroke-miterlimit:10;stroke-dasharray:none;stroke-opacity:1"
             d="M 395.8,230.2 Z"
             inkscape:connector-curvature="0" /></g><g
           id="g146"><g
             id="g148" /><g
             id="g170"><g
               style="opacity:0.35"
               id="g168"
               clip-path="url(#clipPath152)"><path
                 id="path154"
                 style="fill:#000000;fill-opacity:1;fill-rule:evenodd;stroke:none"
                 d="m 443.8,366 v 0 1.6 l 0.1,1.6 0.2,1.6 0.3,1.5 0.4,1.6 0.5,1.6 0.5,1.5 0.7,1.4 0.7,1.5 0.8,1.4 0.8,1.4 0.9,1.3 1.1,1.3 1,1.3 1.2,1.2 1.2,1.1 1.2,1.1 1.3,1 1.4,0.9 1.4,0.9 1.5,0.8 1.5,0.8 1.5,0.6 1.6,0.6 1.6,0.5 1.7,0.5 1.6,0.3 1.7,0.3 1.6,0.2 1.7,0.2 h 1.7 v 0 l 1.8,-0.1 1.7,-0.1 1.8,-0.2 1.7,-0.3 1.7,-0.4 1.7,-0.5 1.6,-0.5 1.6,-0.6 1.6,-0.7 1.6,-0.8 1.5,-0.9 1.4,-0.9 1.4,-1 1.3,-1.1 1.3,-1.1 1.2,-1.3 1.1,-1.2 1.1,-1.3 1,-1.4 0.9,-1.4 0.9,-1.4 0.7,-1.5 0.7,-1.6 0.6,-1.5 0.5,-1.6 0.4,-1.6 0.3,-1.7 0.2,-1.6 0.2,-1.6 v -1.7 0 -1.6 l -0.2,-1.7 -0.2,-1.6 -0.3,-1.7 -0.4,-1.5 -0.5,-1.6 -0.6,-1.6 -0.7,-1.5 -0.7,-1.5 -0.9,-1.5 -0.9,-1.4 -1,-1.3 -1,-1.4 -1.2,-1.2 -1.2,-1.2 -1.3,-1.2 -1.3,-1 -1.4,-1.1 -1.4,-0.9 -1.5,-0.8 -1.6,-0.8 -1.6,-0.7 -1.6,-0.7 -1.6,-0.5 -1.7,-0.5 -1.7,-0.4 -1.7,-0.3 -1.8,-0.2 -1.7,-0.1 -1.8,-0.1 v 0 l -1.7,0.1 -1.7,0.1 -1.8,0.2 -1.7,0.3 -1.7,0.4 -1.7,0.5 -1.6,0.5 -1.7,0.6 -1.6,0.7 -1.5,0.8 -1.5,0.9 -1.4,0.9 -1.4,1 -1.4,1.1 -1.2,1.2 -1.2,1.2 -1.2,1.2 -1.1,1.3 -1,1.4 -0.9,1.4 -0.8,1.4 -0.7,1.5 -0.7,1.6 -0.6,1.5 -0.5,1.6 -0.4,1.6 -0.3,1.7 -0.3,1.6 -0.1,1.6 -0.1,1.7 z m 0,31.6 z m 67,-63.2 z"
                 inkscape:connector-curvature="0" /><g
                 id="g158"><path
                   id="path156"
                   style="fill:none;stroke:#000000;stroke-width:2.00929999;stroke-linecap:butt;stroke-linejoin:round;stroke-miterlimit:10;stroke-dasharray:none;stroke-opacity:1"
                   d="m 443.8,366 v 0 1.6 l 0.1,1.6 0.2,1.6 0.3,1.5 0.4,1.6 0.5,1.6 0.5,1.5 0.7,1.4 0.7,1.5 0.8,1.4 0.8,1.4 0.9,1.3 1.1,1.3 1,1.3 1.2,1.2 1.2,1.1 1.2,1.1 1.3,1 1.4,0.9 1.4,0.9 1.5,0.8 1.5,0.8 1.5,0.6 1.6,0.6 1.6,0.5 1.7,0.5 1.6,0.3 1.7,0.3 1.6,0.2 1.7,0.2 h 1.7 v 0 l 1.8,-0.1 1.7,-0.1 1.8,-0.2 1.7,-0.3 1.7,-0.4 1.7,-0.5 1.6,-0.5 1.6,-0.6 1.6,-0.7 1.6,-0.8 1.5,-0.9 1.4,-0.9 1.4,-1 1.3,-1.1 1.3,-1.1 1.2,-1.3 1.1,-1.2 1.1,-1.3 1,-1.4 0.9,-1.4 0.9,-1.4 0.7,-1.5 0.7,-1.6 0.6,-1.5 0.5,-1.6 0.4,-1.6 0.3,-1.7 0.2,-1.6 0.2,-1.6 v -1.7 0 -1.6 l -0.2,-1.7 -0.2,-1.6 -0.3,-1.7 -0.4,-1.5 -0.5,-1.6 -0.6,-1.6 -0.7,-1.5 -0.7,-1.5 -0.9,-1.5 -0.9,-1.4 -1,-1.3 -1,-1.4 -1.2,-1.2 -1.2,-1.2 -1.3,-1.2 -1.3,-1 -1.4,-1.1 -1.4,-0.9 -1.5,-0.8 -1.6,-0.8 -1.6,-0.7 -1.6,-0.7 -1.6,-0.5 -1.7,-0.5 -1.7,-0.4 -1.7,-0.3 -1.8,-0.2 -1.7,-0.1 -1.8,-0.1 v 0 l -1.7,0.1 -1.7,0.1 -1.8,0.2 -1.7,0.3 -1.7,0.4 -1.7,0.5 -1.6,0.5 -1.7,0.6 -1.6,0.7 -1.5,0.8 -1.5,0.9 -1.4,0.9 -1.4,1 -1.4,1.1 -1.2,1.2 -1.2,1.2 -1.2,1.2 -1.1,1.3 -1,1.4 -0.9,1.4 -0.8,1.4 -0.7,1.5 -0.7,1.6 -0.6,1.5 -0.5,1.6 -0.4,1.6 -0.3,1.7 -0.3,1.6 -0.1,1.6 -0.1,1.7 z"
                   inkscape:connector-curvature="0" /></g><g
                 id="g162"><path
                   id="path160"
                   style="fill:none;stroke:#000000;stroke-width:2.00929999;stroke-linecap:butt;stroke-linejoin:round;stroke-miterlimit:10;stroke-dasharray:none;stroke-opacity:1"
                   d="M 443.8,397.6 Z"
                   inkscape:connector-curvature="0" /></g><g
                 id="g166"><path
                   id="path164"
                   style="fill:none;stroke:#000000;stroke-width:2.00929999;stroke-linecap:butt;stroke-linejoin:round;stroke-miterlimit:10;stroke-dasharray:none;stroke-opacity:1"
                   d="M 510.8,334.4 Z"
                   inkscape:connector-curvature="0" /></g></g></g></g><path
           id="path172"
           style="fill:#a591bd;fill-opacity:1;fill-rule:evenodd;stroke:none"
           d="m 443.8,367.8 v 0 1.6 l 0.1,1.6 0.2,1.6 0.3,1.6 0.4,1.5 0.5,1.6 0.5,1.5 0.7,1.4 0.7,1.5 0.8,1.4 0.8,1.4 0.9,1.4 1.1,1.2 1,1.3 1.2,1.2 1.2,1.1 1.2,1.1 1.3,1 1.4,0.9 1.4,0.9 1.5,0.8 1.5,0.8 1.5,0.6 1.6,0.6 1.6,0.6 1.7,0.4 1.6,0.4 1.7,0.2 1.6,0.2 1.7,0.2 h 1.7 v 0 h 1.8 l 1.7,-0.2 1.8,-0.2 1.7,-0.3 1.7,-0.4 1.7,-0.4 1.6,-0.6 1.6,-0.6 1.6,-0.7 1.6,-0.8 1.5,-0.9 1.4,-0.9 1.4,-1 1.3,-1.1 1.3,-1.1 1.2,-1.3 1.1,-1.2 1.1,-1.3 1,-1.4 0.9,-1.4 0.9,-1.4 0.7,-1.5 0.7,-1.6 0.6,-1.5 0.5,-1.6 0.4,-1.6 0.3,-1.6 0.2,-1.7 0.2,-1.6 v -1.7 0 -1.6 l -0.2,-1.7 -0.2,-1.6 -0.3,-1.6 -0.4,-1.6 -0.5,-1.6 -0.6,-1.6 -0.7,-1.5 -0.7,-1.5 -0.9,-1.5 -0.9,-1.4 -1,-1.3 -1,-1.3 -1.2,-1.3 -1.2,-1.2 -1.3,-1.1 -1.3,-1.1 -1.4,-1 -1.4,-1 -1.5,-0.8 -1.6,-0.8 -1.6,-0.7 -1.6,-0.7 -1.6,-0.5 -1.7,-0.5 -1.7,-0.4 -1.7,-0.3 -1.8,-0.2 -1.7,-0.1 -1.8,-0.1 v 0 l -1.7,0.1 -1.7,0.1 -1.8,0.2 -1.7,0.3 -1.7,0.4 -1.7,0.5 -1.6,0.5 -1.7,0.6 -1.6,0.8 -1.5,0.7 -1.5,0.9 -1.4,1 -1.4,1 -1.4,1 -1.2,1.2 -1.2,1.2 -1.2,1.2 -1.1,1.3 -1,1.4 -0.9,1.4 -0.8,1.5 -0.7,1.5 -0.7,1.5 -0.6,1.6 -0.5,1.5 -0.4,1.6 -0.3,1.7 -0.3,1.6 -0.1,1.7 -0.1,1.6 z m 0,31.6 z m 67,-63.2 z"
           inkscape:connector-curvature="0" /><g
           id="g174"><path
             id="path176"
             style="fill:none;stroke:#525e66;stroke-width:2.00929999;stroke-linecap:butt;stroke-linejoin:round;stroke-miterlimit:10;stroke-dasharray:none;stroke-opacity:1"
             d="m 443.8,367.8 v 0 1.6 l 0.1,1.6 0.2,1.6 0.3,1.6 0.4,1.5 0.5,1.6 0.5,1.5 0.7,1.4 0.7,1.5 0.8,1.4 0.8,1.4 0.9,1.4 1.1,1.2 1,1.3 1.2,1.2 1.2,1.1 1.2,1.1 1.3,1 1.4,0.9 1.4,0.9 1.5,0.8 1.5,0.8 1.5,0.6 1.6,0.6 1.6,0.6 1.7,0.4 1.6,0.4 1.7,0.2 1.6,0.2 1.7,0.2 h 1.7 v 0 h 1.8 l 1.7,-0.2 1.8,-0.2 1.7,-0.3 1.7,-0.4 1.7,-0.4 1.6,-0.6 1.6,-0.6 1.6,-0.7 1.6,-0.8 1.5,-0.9 1.4,-0.9 1.4,-1 1.3,-1.1 1.3,-1.1 1.2,-1.3 1.1,-1.2 1.1,-1.3 1,-1.4 0.9,-1.4 0.9,-1.4 0.7,-1.5 0.7,-1.6 0.6,-1.5 0.5,-1.6 0.4,-1.6 0.3,-1.6 0.2,-1.7 0.2,-1.6 v -1.7 0 -1.6 l -0.2,-1.7 -0.2,-1.6 -0.3,-1.6 -0.4,-1.6 -0.5,-1.6 -0.6,-1.6 -0.7,-1.5 -0.7,-1.5 -0.9,-1.5 -0.9,-1.4 -1,-1.3 -1,-1.3 -1.2,-1.3 -1.2,-1.2 -1.3,-1.1 -1.3,-1.1 -1.4,-1 -1.4,-1 -1.5,-0.8 -1.6,-0.8 -1.6,-0.7 -1.6,-0.7 -1.6,-0.5 -1.7,-0.5 -1.7,-0.4 -1.7,-0.3 -1.8,-0.2 -1.7,-0.1 -1.8,-0.1 v 0 l -1.7,0.1 -1.7,0.1 -1.8,0.2 -1.7,0.3 -1.7,0.4 -1.7,0.5 -1.6,0.5 -1.7,0.6 -1.6,0.8 -1.5,0.7 -1.5,0.9 -1.4,1 -1.4,1 -1.4,1 -1.2,1.2 -1.2,1.2 -1.2,1.2 -1.1,1.3 -1,1.4 -0.9,1.4 -0.8,1.5 -0.7,1.5 -0.7,1.5 -0.6,1.6 -0.5,1.5 -0.4,1.6 -0.3,1.7 -0.3,1.6 -0.1,1.7 -0.1,1.6 z"
             inkscape:connector-curvature="0" /></g><g
           id="g178"><path
             id="path180"
             style="fill:none;stroke:#525e66;stroke-width:2.00929999;stroke-linecap:butt;stroke-linejoin:round;stroke-miterlimit:10;stroke-dasharray:none;stroke-opacity:1"
             d="M 443.8,399.4 Z"
             inkscape:connector-curvature="0" /></g><g
           id="g182"><path
             id="path184"
             style="fill:none;stroke:#525e66;stroke-width:2.00929999;stroke-linecap:butt;stroke-linejoin:round;stroke-miterlimit:10;stroke-dasharray:none;stroke-opacity:1"
             d="M 510.8,336.2 Z"
             inkscape:connector-curvature="0" /></g><g
           id="g186"><g
             id="g188" /><g
             id="g210"><g
               style="opacity:0.35"
               id="g208"
               clip-path="url(#clipPath192)"><path
                 id="path194"
                 style="fill:#000000;fill-opacity:1;fill-rule:evenodd;stroke:none"
                 d="m 275.8,448 v 0 1.6 l 0.2,1.6 0.2,1.6 0.3,1.6 0.3,1.5 0.5,1.6 0.6,1.5 0.6,1.5 0.7,1.4 0.8,1.5 0.8,1.3 1,1.4 1,1.3 1,1.2 1.2,1.2 1.2,1.1 1.2,1.1 1.4,1 1.3,1 1.4,0.8 1.5,0.9 1.5,0.7 1.6,0.7 1.5,0.5 1.6,0.6 1.7,0.4 1.6,0.4 1.7,0.3 1.7,0.2 1.7,0.1 h 1.7 v 0 h 1.7 l 1.7,-0.1 1.8,-0.3 1.7,-0.3 1.7,-0.3 1.7,-0.5 1.7,-0.6 1.6,-0.6 1.6,-0.7 1.5,-0.8 1.5,-0.9 1.4,-0.9 1.4,-1 1.4,-1.1 1.2,-1.1 1.2,-1.2 1.2,-1.3 1,-1.3 1,-1.3 0.9,-1.5 0.9,-1.4 0.7,-1.5 0.7,-1.5 0.6,-1.6 0.5,-1.6 0.4,-1.6 0.3,-1.6 0.2,-1.7 0.2,-1.6 v -1.6 0 -1.7 l -0.1,-1.6 -0.3,-1.7 -0.3,-1.6 -0.4,-1.6 -0.5,-1.6 -0.6,-1.6 -0.7,-1.5 -0.7,-1.5 -0.8,-1.4 -0.9,-1.5 -1.1,-1.3 -1,-1.3 -1.2,-1.3 -1.2,-1.2 -1.2,-1.1 -1.4,-1.1 -1.4,-1 -1.4,-1 -1.5,-0.8 -1.5,-0.8 -1.6,-0.7 -1.6,-0.7 -1.7,-0.5 -1.7,-0.5 -1.7,-0.3 -1.7,-0.4 -1.8,-0.2 -1.7,-0.1 -1.7,-0.1 v 0 l -1.8,0.1 -1.7,0.1 -1.8,0.2 -1.7,0.3 -1.7,0.4 -1.7,0.5 -1.6,0.5 -1.7,0.7 -1.5,0.7 -1.6,0.8 -1.5,0.8 -1.4,1 -1.4,1 -1.4,1.1 -1.2,1.1 -1.2,1.2 -1.2,1.3 -1,1.3 -1,1.3 -0.9,1.4 -0.9,1.5 -0.7,1.5 -0.7,1.5 -0.6,1.6 -0.5,1.6 -0.4,1.5 -0.3,1.7 -0.2,1.6 -0.2,1.7 z m 0,31.6 z m 67,-63.2 z"
                 inkscape:connector-curvature="0" /><g
                 id="g198"><path
                   id="path196"
                   style="fill:none;stroke:#000000;stroke-width:2.00929999;stroke-linecap:butt;stroke-linejoin:round;stroke-miterlimit:10;stroke-dasharray:none;stroke-opacity:1"
                   d="m 275.8,448 v 0 1.6 l 0.2,1.6 0.2,1.6 0.3,1.6 0.3,1.5 0.5,1.6 0.6,1.5 0.6,1.5 0.7,1.4 0.8,1.5 0.8,1.3 1,1.4 1,1.3 1,1.2 1.2,1.2 1.2,1.1 1.2,1.1 1.4,1 1.3,1 1.4,0.8 1.5,0.9 1.5,0.7 1.6,0.7 1.5,0.5 1.6,0.6 1.7,0.4 1.6,0.4 1.7,0.3 1.7,0.2 1.7,0.1 h 1.7 v 0 h 1.7 l 1.7,-0.1 1.8,-0.3 1.7,-0.3 1.7,-0.3 1.7,-0.5 1.7,-0.6 1.6,-0.6 1.6,-0.7 1.5,-0.8 1.5,-0.9 1.4,-0.9 1.4,-1 1.4,-1.1 1.2,-1.1 1.2,-1.2 1.2,-1.3 1,-1.3 1,-1.3 0.9,-1.5 0.9,-1.4 0.7,-1.5 0.7,-1.5 0.6,-1.6 0.5,-1.6 0.4,-1.6 0.3,-1.6 0.2,-1.7 0.2,-1.6 v -1.6 0 -1.7 l -0.1,-1.6 -0.3,-1.7 -0.3,-1.6 -0.4,-1.6 -0.5,-1.6 -0.6,-1.6 -0.7,-1.5 -0.7,-1.5 -0.8,-1.4 -0.9,-1.5 -1.1,-1.3 -1,-1.3 -1.2,-1.3 -1.2,-1.2 -1.2,-1.1 -1.4,-1.1 -1.4,-1 -1.4,-1 -1.5,-0.8 -1.5,-0.8 -1.6,-0.7 -1.6,-0.7 -1.7,-0.5 -1.7,-0.5 -1.7,-0.3 -1.7,-0.4 -1.8,-0.2 -1.7,-0.1 -1.7,-0.1 v 0 l -1.8,0.1 -1.7,0.1 -1.8,0.2 -1.7,0.3 -1.7,0.4 -1.7,0.5 -1.6,0.5 -1.7,0.7 -1.5,0.7 -1.6,0.8 -1.5,0.8 -1.4,1 -1.4,1 -1.4,1.1 -1.2,1.1 -1.2,1.2 -1.2,1.3 -1,1.3 -1,1.3 -0.9,1.4 -0.9,1.5 -0.7,1.5 -0.7,1.5 -0.6,1.6 -0.5,1.6 -0.4,1.5 -0.3,1.7 -0.2,1.6 -0.2,1.7 z"
                   inkscape:connector-curvature="0" /></g><g
                 id="g202"><path
                   id="path200"
                   style="fill:none;stroke:#000000;stroke-width:2.00929999;stroke-linecap:butt;stroke-linejoin:round;stroke-miterlimit:10;stroke-dasharray:none;stroke-opacity:1"
                   d="M 275.8,479.6 Z"
                   inkscape:connector-curvature="0" /></g><g
                 id="g206"><path
                   id="path204"
                   style="fill:none;stroke:#000000;stroke-width:2.00929999;stroke-linecap:butt;stroke-linejoin:round;stroke-miterlimit:10;stroke-dasharray:none;stroke-opacity:1"
                   d="M 342.8,416.4 Z"
                   inkscape:connector-curvature="0" /></g></g></g></g><path
           id="path212"
           style="fill:#a591bd;fill-opacity:1;fill-rule:evenodd;stroke:none"
           d="m 275.8,449.8 v 0 1.6 l 0.2,1.6 0.2,1.6 0.3,1.6 0.3,1.5 0.5,1.6 0.6,1.5 0.6,1.5 0.7,1.5 0.8,1.4 0.8,1.3 1,1.4 1,1.3 1,1.2 1.2,1.2 1.2,1.1 1.2,1.1 1.4,1 1.3,1 1.4,0.9 1.5,0.8 1.5,0.7 1.6,0.7 1.5,0.6 1.6,0.5 1.7,0.4 1.6,0.4 1.7,0.3 1.7,0.2 1.7,0.1 h 1.7 v 0 h 1.7 l 1.7,-0.1 1.8,-0.3 1.7,-0.2 1.7,-0.4 1.7,-0.5 1.7,-0.6 1.6,-0.6 1.6,-0.7 1.5,-0.8 1.5,-0.9 1.4,-0.9 1.4,-1 1.4,-1.1 1.2,-1.1 1.2,-1.2 1.2,-1.3 1,-1.3 1,-1.3 0.9,-1.4 0.9,-1.5 0.7,-1.5 0.7,-1.5 0.6,-1.6 0.5,-1.6 0.4,-1.6 0.3,-1.6 0.2,-1.6 0.2,-1.7 v -1.6 0 -1.7 l -0.1,-1.6 -0.3,-1.7 -0.3,-1.6 -0.4,-1.6 -0.5,-1.6 -0.6,-1.5 -0.7,-1.6 -0.7,-1.5 -0.8,-1.4 -0.9,-1.4 -1.1,-1.4 -1,-1.3 -1.2,-1.3 -1.2,-1.2 -1.2,-1.1 -1.4,-1.1 -1.4,-1 -1.4,-0.9 -1.5,-0.9 -1.5,-0.8 -1.6,-0.7 -1.6,-0.6 -1.7,-0.6 -1.7,-0.5 -1.7,-0.3 -1.7,-0.3 -1.8,-0.3 -1.7,-0.1 h -1.7 v 0 h -1.8 l -1.7,0.1 -1.8,0.3 -1.7,0.2 -1.7,0.4 -1.7,0.5 -1.6,0.6 -1.7,0.6 -1.5,0.7 -1.6,0.8 -1.5,0.9 -1.4,0.9 -1.4,1 -1.4,1.1 -1.2,1.1 -1.2,1.2 -1.2,1.3 -1,1.3 -1,1.3 -0.9,1.4 -0.9,1.5 -0.7,1.5 -0.7,1.5 -0.6,1.6 -0.5,1.6 -0.4,1.6 -0.3,1.6 -0.2,1.6 -0.2,1.7 z m 0,31.6 z m 67,-63.2 z"
           inkscape:connector-curvature="0" /><g
           id="g214"><path
             id="path216"
             style="fill:none;stroke:#525e66;stroke-width:2.00929999;stroke-linecap:butt;stroke-linejoin:round;stroke-miterlimit:10;stroke-dasharray:none;stroke-opacity:1"
             d="m 275.8,449.8 v 0 1.6 l 0.2,1.6 0.2,1.6 0.3,1.6 0.3,1.5 0.5,1.6 0.6,1.5 0.6,1.5 0.7,1.5 0.8,1.4 0.8,1.3 1,1.4 1,1.3 1,1.2 1.2,1.2 1.2,1.1 1.2,1.1 1.4,1 1.3,1 1.4,0.9 1.5,0.8 1.5,0.7 1.6,0.7 1.5,0.6 1.6,0.5 1.7,0.4 1.6,0.4 1.7,0.3 1.7,0.2 1.7,0.1 h 1.7 v 0 h 1.7 l 1.7,-0.1 1.8,-0.3 1.7,-0.2 1.7,-0.4 1.7,-0.5 1.7,-0.6 1.6,-0.6 1.6,-0.7 1.5,-0.8 1.5,-0.9 1.4,-0.9 1.4,-1 1.4,-1.1 1.2,-1.1 1.2,-1.2 1.2,-1.3 1,-1.3 1,-1.3 0.9,-1.4 0.9,-1.5 0.7,-1.5 0.7,-1.5 0.6,-1.6 0.5,-1.6 0.4,-1.6 0.3,-1.6 0.2,-1.6 0.2,-1.7 v -1.6 0 -1.7 l -0.1,-1.6 -0.3,-1.7 -0.3,-1.6 -0.4,-1.6 -0.5,-1.6 -0.6,-1.5 -0.7,-1.6 -0.7,-1.5 -0.8,-1.4 -0.9,-1.4 -1.1,-1.4 -1,-1.3 -1.2,-1.3 -1.2,-1.2 -1.2,-1.1 -1.4,-1.1 -1.4,-1 -1.4,-0.9 -1.5,-0.9 -1.5,-0.8 -1.6,-0.7 -1.6,-0.6 -1.7,-0.6 -1.7,-0.5 -1.7,-0.3 -1.7,-0.3 -1.8,-0.3 -1.7,-0.1 h -1.7 v 0 h -1.8 l -1.7,0.1 -1.8,0.3 -1.7,0.2 -1.7,0.4 -1.7,0.5 -1.6,0.6 -1.7,0.6 -1.5,0.7 -1.6,0.8 -1.5,0.9 -1.4,0.9 -1.4,1 -1.4,1.1 -1.2,1.1 -1.2,1.2 -1.2,1.3 -1,1.3 -1,1.3 -0.9,1.4 -0.9,1.5 -0.7,1.5 -0.7,1.5 -0.6,1.6 -0.5,1.6 -0.4,1.6 -0.3,1.6 -0.2,1.6 -0.2,1.7 z"
             inkscape:connector-curvature="0" /></g><g
           id="g218"><path
             id="path220"
             style="fill:none;stroke:#525e66;stroke-width:2.00929999;stroke-linecap:butt;stroke-linejoin:round;stroke-miterlimit:10;stroke-dasharray:none;stroke-opacity:1"
             d="M 275.8,481.4 Z"
             inkscape:connector-curvature="0" /></g><g
           id="g222"><path
             id="path224"
             style="fill:none;stroke:#525e66;stroke-width:2.00929999;stroke-linecap:butt;stroke-linejoin:round;stroke-miterlimit:10;stroke-dasharray:none;stroke-opacity:1"
             d="M 342.8,418.2 Z"
             inkscape:connector-curvature="0" /></g><g
           id="g226"><g
             id="g228" /><g
             id="g250"><g
               style="opacity:0.35"
               id="g248"
               clip-path="url(#clipPath232)"><path
                 id="path234"
                 style="fill:#000000;fill-opacity:1;fill-rule:evenodd;stroke:none"
                 d="m 208.8,215 v 0 1.6 l 0.1,1.6 0.2,1.6 0.4,1.5 0.3,1.6 0.5,1.6 0.5,1.5 0.7,1.4 0.7,1.5 0.8,1.4 0.8,1.4 1,1.3 1,1.3 1,1.3 1.2,1.2 1.2,1.1 1.2,1.1 1.4,1 1.3,0.9 1.4,0.9 1.5,0.8 1.5,0.8 1.5,0.6 1.6,0.6 1.6,0.5 1.7,0.5 1.6,0.3 1.7,0.3 1.6,0.2 1.7,0.2 h 1.7 v 0 l 1.8,-0.1 1.7,-0.1 1.8,-0.2 1.7,-0.3 1.7,-0.4 1.7,-0.5 1.6,-0.5 1.7,-0.6 1.5,-0.7 1.6,-0.8 1.5,-0.9 1.4,-0.9 1.4,-1 1.3,-1.1 1.3,-1.1 1.2,-1.3 1.1,-1.2 1.1,-1.3 1,-1.4 0.9,-1.4 0.9,-1.4 0.7,-1.5 0.7,-1.6 0.6,-1.5 0.5,-1.6 0.4,-1.6 0.3,-1.7 0.2,-1.6 0.2,-1.6 v -1.7 0 -1.6 l -0.1,-1.7 -0.3,-1.6 -0.3,-1.7 -0.4,-1.5 -0.5,-1.6 -0.6,-1.6 -0.7,-1.5 -0.7,-1.5 -0.9,-1.5 -0.9,-1.4 -1,-1.4 -1,-1.3 -1.2,-1.2 -1.2,-1.2 -1.3,-1.2 -1.3,-1 -1.4,-1.1 -1.4,-0.9 -1.5,-0.8 -1.6,-0.8 -1.5,-0.7 -1.7,-0.7 -1.6,-0.5 -1.7,-0.5 -1.7,-0.4 -1.7,-0.3 -1.8,-0.2 -1.7,-0.1 -1.8,-0.1 v 0 l -1.7,0.1 -1.7,0.1 -1.8,0.2 -1.7,0.3 -1.7,0.4 -1.7,0.5 -1.6,0.5 -1.7,0.6 -1.5,0.7 -1.6,0.8 -1.5,0.9 -1.4,0.9 -1.4,1 -1.4,1.1 -1.2,1.2 -1.2,1.2 -1.2,1.2 -1.1,1.3 -0.9,1.4 -0.9,1.4 -0.9,1.4 -0.7,1.5 -0.7,1.6 -0.6,1.5 -0.5,1.6 -0.4,1.6 -0.3,1.7 -0.3,1.6 -0.1,1.6 -0.1,1.7 z m 0,31.6 z m 67,-63.2 z"
                 inkscape:connector-curvature="0" /><g
                 id="g238"><path
                   id="path236"
                   style="fill:none;stroke:#000000;stroke-width:2.00929999;stroke-linecap:butt;stroke-linejoin:round;stroke-miterlimit:10;stroke-dasharray:none;stroke-opacity:1"
                   d="m 208.8,215 v 0 1.6 l 0.1,1.6 0.2,1.6 0.4,1.5 0.3,1.6 0.5,1.6 0.5,1.5 0.7,1.4 0.7,1.5 0.8,1.4 0.8,1.4 1,1.3 1,1.3 1,1.3 1.2,1.2 1.2,1.1 1.2,1.1 1.4,1 1.3,0.9 1.4,0.9 1.5,0.8 1.5,0.8 1.5,0.6 1.6,0.6 1.6,0.5 1.7,0.5 1.6,0.3 1.7,0.3 1.6,0.2 1.7,0.2 h 1.7 v 0 l 1.8,-0.1 1.7,-0.1 1.8,-0.2 1.7,-0.3 1.7,-0.4 1.7,-0.5 1.6,-0.5 1.7,-0.6 1.5,-0.7 1.6,-0.8 1.5,-0.9 1.4,-0.9 1.4,-1 1.3,-1.1 1.3,-1.1 1.2,-1.3 1.1,-1.2 1.1,-1.3 1,-1.4 0.9,-1.4 0.9,-1.4 0.7,-1.5 0.7,-1.6 0.6,-1.5 0.5,-1.6 0.4,-1.6 0.3,-1.7 0.2,-1.6 0.2,-1.6 v -1.7 0 -1.6 l -0.1,-1.7 -0.3,-1.6 -0.3,-1.7 -0.4,-1.5 -0.5,-1.6 -0.6,-1.6 -0.7,-1.5 -0.7,-1.5 -0.9,-1.5 -0.9,-1.4 -1,-1.4 -1,-1.3 -1.2,-1.2 -1.2,-1.2 -1.3,-1.2 -1.3,-1 -1.4,-1.1 -1.4,-0.9 -1.5,-0.8 -1.6,-0.8 -1.5,-0.7 -1.7,-0.7 -1.6,-0.5 -1.7,-0.5 -1.7,-0.4 -1.7,-0.3 -1.8,-0.2 -1.7,-0.1 -1.8,-0.1 v 0 l -1.7,0.1 -1.7,0.1 -1.8,0.2 -1.7,0.3 -1.7,0.4 -1.7,0.5 -1.6,0.5 -1.7,0.6 -1.5,0.7 -1.6,0.8 -1.5,0.9 -1.4,0.9 -1.4,1 -1.4,1.1 -1.2,1.2 -1.2,1.2 -1.2,1.2 -1.1,1.3 -0.9,1.4 -0.9,1.4 -0.9,1.4 -0.7,1.5 -0.7,1.6 -0.6,1.5 -0.5,1.6 -0.4,1.6 -0.3,1.7 -0.3,1.6 -0.1,1.6 -0.1,1.7 z"
                   inkscape:connector-curvature="0" /></g><g
                 id="g242"><path
                   id="path240"
                   style="fill:none;stroke:#000000;stroke-width:2.00929999;stroke-linecap:butt;stroke-linejoin:round;stroke-miterlimit:10;stroke-dasharray:none;stroke-opacity:1"
                   d="M 208.8,246.6 Z"
                   inkscape:connector-curvature="0" /></g><g
                 id="g246"><path
                   id="path244"
                   style="fill:none;stroke:#000000;stroke-width:2.00929999;stroke-linecap:butt;stroke-linejoin:round;stroke-miterlimit:10;stroke-dasharray:none;stroke-opacity:1"
                   d="M 275.8,183.4 Z"
                   inkscape:connector-curvature="0" /></g></g></g></g><path
           id="path252"
           style="fill:#a591bd;fill-opacity:1;fill-rule:evenodd;stroke:none"
           d="m 208.8,216.8 v 0 1.6 l 0.1,1.6 0.2,1.6 0.4,1.6 0.3,1.5 0.5,1.6 0.5,1.5 0.7,1.4 0.7,1.5 0.8,1.4 0.8,1.4 1,1.4 1,1.2 1,1.3 1.2,1.2 1.2,1.1 1.2,1.1 1.4,1 1.3,0.9 1.4,0.9 1.5,0.8 1.5,0.8 1.5,0.6 1.6,0.6 1.6,0.6 1.7,0.4 1.6,0.4 1.7,0.2 1.6,0.2 1.7,0.2 h 1.7 v 0 h 1.8 l 1.7,-0.2 1.8,-0.2 1.7,-0.3 1.7,-0.4 1.7,-0.5 1.6,-0.5 1.7,-0.6 1.5,-0.7 1.6,-0.8 1.5,-0.9 1.4,-0.9 1.4,-1 1.3,-1.1 1.3,-1.1 1.2,-1.3 1.1,-1.2 1.1,-1.3 1,-1.4 0.9,-1.4 0.9,-1.4 0.7,-1.5 0.7,-1.6 0.6,-1.5 0.5,-1.6 0.4,-1.6 0.3,-1.6 0.2,-1.7 0.2,-1.6 v -1.7 0 -1.6 l -0.1,-1.7 -0.3,-1.6 -0.3,-1.6 -0.4,-1.6 -0.5,-1.6 -0.6,-1.6 -0.7,-1.5 -0.7,-1.5 -0.9,-1.5 -0.9,-1.4 -1,-1.3 -1,-1.3 -1.2,-1.3 -1.2,-1.2 -1.3,-1.1 -1.3,-1.1 -1.4,-1 -1.4,-1 -1.5,-0.8 -1.6,-0.8 -1.5,-0.7 -1.7,-0.7 -1.6,-0.5 -1.7,-0.5 -1.7,-0.4 -1.7,-0.3 -1.8,-0.2 -1.7,-0.1 -1.8,-0.1 v 0 l -1.7,0.1 -1.7,0.1 -1.8,0.2 -1.7,0.3 -1.7,0.4 -1.7,0.5 -1.6,0.5 -1.7,0.6 -1.5,0.8 -1.6,0.7 -1.5,0.9 -1.4,1 -1.4,1 -1.4,1 -1.2,1.2 -1.2,1.2 -1.2,1.2 -1.1,1.3 -0.9,1.4 -0.9,1.4 -0.9,1.5 -0.7,1.5 -0.7,1.5 -0.6,1.6 -0.5,1.5 -0.4,1.6 -0.3,1.7 -0.3,1.6 -0.1,1.7 -0.1,1.6 z m 0,31.6 z m 67,-63.2 z"
           inkscape:connector-curvature="0" /><g
           id="g254"><path
             id="path256"
             style="fill:none;stroke:#525e66;stroke-width:2.00929999;stroke-linecap:butt;stroke-linejoin:round;stroke-miterlimit:10;stroke-dasharray:none;stroke-opacity:1"
             d="m 208.8,216.8 v 0 1.6 l 0.1,1.6 0.2,1.6 0.4,1.6 0.3,1.5 0.5,1.6 0.5,1.5 0.7,1.4 0.7,1.5 0.8,1.4 0.8,1.4 1,1.4 1,1.2 1,1.3 1.2,1.2 1.2,1.1 1.2,1.1 1.4,1 1.3,0.9 1.4,0.9 1.5,0.8 1.5,0.8 1.5,0.6 1.6,0.6 1.6,0.6 1.7,0.4 1.6,0.4 1.7,0.2 1.6,0.2 1.7,0.2 h 1.7 v 0 h 1.8 l 1.7,-0.2 1.8,-0.2 1.7,-0.3 1.7,-0.4 1.7,-0.5 1.6,-0.5 1.7,-0.6 1.5,-0.7 1.6,-0.8 1.5,-0.9 1.4,-0.9 1.4,-1 1.3,-1.1 1.3,-1.1 1.2,-1.3 1.1,-1.2 1.1,-1.3 1,-1.4 0.9,-1.4 0.9,-1.4 0.7,-1.5 0.7,-1.6 0.6,-1.5 0.5,-1.6 0.4,-1.6 0.3,-1.6 0.2,-1.7 0.2,-1.6 v -1.7 0 -1.6 l -0.1,-1.7 -0.3,-1.6 -0.3,-1.6 -0.4,-1.6 -0.5,-1.6 -0.6,-1.6 -0.7,-1.5 -0.7,-1.5 -0.9,-1.5 -0.9,-1.4 -1,-1.3 -1,-1.3 -1.2,-1.3 -1.2,-1.2 -1.3,-1.1 -1.3,-1.1 -1.4,-1 -1.4,-1 -1.5,-0.8 -1.6,-0.8 -1.5,-0.7 -1.7,-0.7 -1.6,-0.5 -1.7,-0.5 -1.7,-0.4 -1.7,-0.3 -1.8,-0.2 -1.7,-0.1 -1.8,-0.1 v 0 l -1.7,0.1 -1.7,0.1 -1.8,0.2 -1.7,0.3 -1.7,0.4 -1.7,0.5 -1.6,0.5 -1.7,0.6 -1.5,0.8 -1.6,0.7 -1.5,0.9 -1.4,1 -1.4,1 -1.4,1 -1.2,1.2 -1.2,1.2 -1.2,1.2 -1.1,1.3 -0.9,1.4 -0.9,1.4 -0.9,1.5 -0.7,1.5 -0.7,1.5 -0.6,1.6 -0.5,1.5 -0.4,1.6 -0.3,1.7 -0.3,1.6 -0.1,1.7 -0.1,1.6 z"
             inkscape:connector-curvature="0" /></g><g
           id="g258"><path
             id="path260"
             style="fill:none;stroke:#525e66;stroke-width:2.00929999;stroke-linecap:butt;stroke-linejoin:round;stroke-miterlimit:10;stroke-dasharray:none;stroke-opacity:1"
             d="M 208.8,248.4 Z"
             inkscape:connector-curvature="0" /></g><g
           id="g262"><path
             id="path264"
             style="fill:none;stroke:#525e66;stroke-width:2.00929999;stroke-linecap:butt;stroke-linejoin:round;stroke-miterlimit:10;stroke-dasharray:none;stroke-opacity:1"
             d="M 275.8,185.2 Z"
             inkscape:connector-curvature="0" /></g><g
           id="g266"><g
             id="g268" /><g
             id="g426"><g
               style="opacity:0.35"
               id="g424"
               clip-path="url(#clipPath272)"><g
                 id="g298"><g
                   id="g290" /><g
                   id="g296"><g
                     style="opacity:0.57999004"
                     id="g294"
                     clip-path="url(#clipPath276)"><path
                       id="path292"
                       style="fill:#000000;fill-opacity:1;fill-rule:evenodd;stroke:none"
                       d="m 534.8,200 v 0 1.6 l 0.2,1.6 0.2,1.6 0.3,1.5 0.3,1.6 0.5,1.6 0.6,1.5 0.6,1.4 0.7,1.5 0.8,1.4 0.8,1.4 1,1.3 1,1.3 1,1.3 1.2,1.2 1.2,1.1 1.2,1.1 1.4,1 1.3,0.9 1.4,0.9 1.5,0.8 1.5,0.8 1.6,0.6 1.5,0.6 1.6,0.6 1.7,0.4 1.6,0.3 1.7,0.3 1.7,0.2 1.7,0.2 h 1.7 v 0 l 1.7,-0.1 1.7,-0.1 1.8,-0.2 1.7,-0.3 1.7,-0.4 1.7,-0.5 1.7,-0.5 1.6,-0.6 1.6,-0.7 1.5,-0.8 1.5,-0.9 1.4,-0.9 1.4,-1 1.4,-1.1 1.2,-1.1 1.2,-1.3 1.2,-1.2 1,-1.3 1,-1.4 0.9,-1.4 0.9,-1.4 0.7,-1.5 0.7,-1.6 0.6,-1.5 0.5,-1.6 0.4,-1.6 0.3,-1.6 0.2,-1.7 0.2,-1.6 v -1.7 0 -1.6 l -0.1,-1.7 -0.3,-1.6 -0.3,-1.7 -0.4,-1.5 -0.5,-1.6 -0.6,-1.6 -0.7,-1.5 -0.7,-1.5 -0.8,-1.5 -0.9,-1.4 -1.1,-1.3 -1,-1.4 -1.2,-1.2 -1.2,-1.2 -1.2,-1.2 -1.4,-1 -1.4,-1 -1.4,-1 -1.5,-0.8 -1.5,-0.8 -1.6,-0.7 -1.6,-0.7 -1.7,-0.5 -1.7,-0.5 -1.7,-0.4 -1.7,-0.3 -1.8,-0.2 -1.7,-0.1 -1.7,-0.1 v 0 l -1.8,0.1 -1.7,0.1 -1.8,0.2 -1.7,0.3 -1.7,0.4 -1.7,0.5 -1.6,0.5 -1.7,0.6 -1.5,0.7 -1.6,0.8 -1.5,0.9 -1.4,1 -1.4,0.9 -1.4,1.1 -1.2,1.2 -1.2,1.2 -1.2,1.2 -1,1.3 -1,1.4 -0.9,1.4 -0.9,1.4 -0.7,1.6 -0.7,1.5 -0.6,1.5 -0.5,1.6 -0.4,1.6 -0.3,1.7 -0.2,1.6 -0.2,1.6 z m 0,31.6 z m 67,-63.2 z"
                       inkscape:connector-curvature="0" /></g></g></g><g
                 id="g406"><g
                   id="g300" /><g
                   id="g404"><g
                     style="opacity:0.58999999"
                     id="g402"
                     clip-path="url(#clipPath280)"><g
                       id="g304"><path
                         id="path302"
                         style="fill:none;stroke:#000000;stroke-width:2.00929999;stroke-linecap:butt;stroke-linejoin:miter;stroke-miterlimit:10;stroke-dasharray:none;stroke-opacity:1"
                         d="m 535,196.8 -0.2,1.5 v 1.7 0 1.6 l 0.2,1.6 0.1,0.8"
                         inkscape:connector-curvature="0" /></g><g
                       id="g308"><path
                         id="path306"
                         style="fill:none;stroke:#000000;stroke-width:2.00929999;stroke-linecap:butt;stroke-linejoin:miter;stroke-miterlimit:10;stroke-dasharray:none;stroke-opacity:1"
                         d="m 535.9,208 0.4,1.5 0.6,1.5 0.3,0.8"
                         inkscape:connector-curvature="0" /></g><g
                       id="g312"><path
                         id="path310"
                         style="fill:none;stroke:#000000;stroke-width:2.00929999;stroke-linecap:butt;stroke-linejoin:miter;stroke-miterlimit:10;stroke-dasharray:none;stroke-opacity:1"
                         d="m 539,215.3 0.8,1.4 1,1.3 0.4,0.7"
                         inkscape:connector-curvature="0" /></g><g
                       id="g316"><path
                         id="path314"
                         style="fill:none;stroke:#000000;stroke-width:2.00929999;stroke-linecap:butt;stroke-linejoin:miter;stroke-miterlimit:10;stroke-dasharray:none;stroke-opacity:1"
                         d="m 543.9,221.7 0.1,0.1 1.2,1.1 1.2,1.1 0.5,0.3"
                         inkscape:connector-curvature="0" /></g><g
                       id="g320"><path
                         id="path318"
                         style="fill:none;stroke:#000000;stroke-width:2.00929999;stroke-linecap:butt;stroke-linejoin:miter;stroke-miterlimit:10;stroke-dasharray:none;stroke-opacity:1"
                         d="m 550.2,226.6 0.3,0.2 1.5,0.8 1.5,0.8 0.3,0.1"
                         inkscape:connector-curvature="0" /></g><g
                       id="g324"><path
                         id="path322"
                         style="fill:none;stroke:#000000;stroke-width:2.00929999;stroke-linecap:butt;stroke-linejoin:miter;stroke-miterlimit:10;stroke-dasharray:none;stroke-opacity:1"
                         d="m 557.5,229.9 0.7,0.3 1.7,0.4 1.6,0.3"
                         inkscape:connector-curvature="0" /></g><g
                       id="g328"><path
                         id="path326"
                         style="fill:none;stroke:#000000;stroke-width:2.00929999;stroke-linecap:butt;stroke-linejoin:miter;stroke-miterlimit:10;stroke-dasharray:none;stroke-opacity:1"
                         d="m 565.4,231.5 1.2,0.1 h 1.7 1.2"
                         inkscape:connector-curvature="0" /></g><g
                       id="g332"><path
                         id="path330"
                         style="fill:none;stroke:#000000;stroke-width:2.00929999;stroke-linecap:butt;stroke-linejoin:miter;stroke-miterlimit:10;stroke-dasharray:none;stroke-opacity:1"
                         d="m 573.5,231.2 v 0 l 1.7,-0.3 1.7,-0.4 0.5,-0.1"
                         inkscape:connector-curvature="0" /></g><g
                       id="g336"><path
                         id="path334"
                         style="fill:none;stroke:#000000;stroke-width:2.00929999;stroke-linecap:butt;stroke-linejoin:miter;stroke-miterlimit:10;stroke-dasharray:none;stroke-opacity:1"
                         d="m 581.2,229.1 0.7,-0.2 1.6,-0.7 1.4,-0.8"
                         inkscape:connector-curvature="0" /></g><g
                       id="g340"><path
                         id="path338"
                         style="fill:none;stroke:#000000;stroke-width:2.00929999;stroke-linecap:butt;stroke-linejoin:miter;stroke-miterlimit:10;stroke-dasharray:none;stroke-opacity:1"
                         d="m 588.3,225.3 1,-0.7 1.4,-1.1 0.7,-0.7"
                         inkscape:connector-curvature="0" /></g><g
                       id="g344"><path
                         id="path342"
                         style="fill:none;stroke:#000000;stroke-width:2.00929999;stroke-linecap:butt;stroke-linejoin:miter;stroke-miterlimit:10;stroke-dasharray:none;stroke-opacity:1"
                         d="m 594.2,219.9 h 0.1 l 1,-1.3 1,-1.4 0.4,-0.5"
                         inkscape:connector-curvature="0" /></g><g
                       id="g348"><path
                         id="path346"
                         style="fill:none;stroke:#000000;stroke-width:2.00929999;stroke-linecap:butt;stroke-linejoin:miter;stroke-miterlimit:10;stroke-dasharray:none;stroke-opacity:1"
                         d="m 598.7,213.2 0.1,-0.3 0.7,-1.6 0.6,-1.5 0.1,-0.3"
                         inkscape:connector-curvature="0" /></g><g
                       id="g352"><path
                         id="path350"
                         style="fill:none;stroke:#000000;stroke-width:2.00929999;stroke-linecap:butt;stroke-linejoin:miter;stroke-miterlimit:10;stroke-dasharray:none;stroke-opacity:1"
                         d="m 601.2,205.6 0.1,-0.6 0.2,-1.7 0.2,-1.6 v -0.1"
                         inkscape:connector-curvature="0" /></g><g
                       id="g356"><path
                         id="path354"
                         style="fill:none;stroke:#000000;stroke-width:2.00929999;stroke-linecap:butt;stroke-linejoin:miter;stroke-miterlimit:10;stroke-dasharray:none;stroke-opacity:1"
                         d="m 601.6,197.6 v -0.9 l -0.3,-1.6 -0.3,-1.5"
                         inkscape:connector-curvature="0" /></g><g
                       id="g360"><path
                         id="path358"
                         style="fill:none;stroke:#000000;stroke-width:2.00929999;stroke-linecap:butt;stroke-linejoin:miter;stroke-miterlimit:10;stroke-dasharray:none;stroke-opacity:1"
                         d="m 599.9,189.8 -0.4,-1.1 -0.7,-1.5 -0.5,-1.1"
                         inkscape:connector-curvature="0" /></g><g
                       id="g364"><path
                         id="path362"
                         style="fill:none;stroke:#000000;stroke-width:2.00929999;stroke-linecap:butt;stroke-linejoin:miter;stroke-miterlimit:10;stroke-dasharray:none;stroke-opacity:1"
                         d="m 596.2,182.6 -0.9,-1.1 -1,-1.4 -0.6,-0.6"
                         inkscape:connector-curvature="0" /></g><g
                       id="g368"><path
                         id="path366"
                         style="fill:none;stroke:#000000;stroke-width:2.00929999;stroke-linecap:butt;stroke-linejoin:miter;stroke-miterlimit:10;stroke-dasharray:none;stroke-opacity:1"
                         d="m 590.8,176.7 -0.1,-0.2 -1.4,-1 -1.4,-1 -0.3,-0.2"
                         inkscape:connector-curvature="0" /></g><g
                       id="g372"><path
                         id="path370"
                         style="fill:none;stroke:#000000;stroke-width:2.00929999;stroke-linecap:butt;stroke-linejoin:miter;stroke-miterlimit:10;stroke-dasharray:none;stroke-opacity:1"
                         d="m 584.1,172.2 -0.6,-0.3 -1.6,-0.7 -1.4,-0.6"
                         inkscape:connector-curvature="0" /></g><g
                       id="g376"><path
                         id="path374"
                         style="fill:none;stroke:#000000;stroke-width:2.00929999;stroke-linecap:butt;stroke-linejoin:miter;stroke-miterlimit:10;stroke-dasharray:none;stroke-opacity:1"
                         d="m 576.6,169.4 -1.4,-0.3 -1.7,-0.3 -0.8,-0.1"
                         inkscape:connector-curvature="0" /></g><g
                       id="g380"><path
                         id="path378"
                         style="fill:none;stroke:#000000;stroke-width:2.00929999;stroke-linecap:butt;stroke-linejoin:miter;stroke-miterlimit:10;stroke-dasharray:none;stroke-opacity:1"
                         d="m 568.6,168.4 h -0.3 l -1.8,0.1 -1.7,0.1 h -0.2"
                         inkscape:connector-curvature="0" /></g><g
                       id="g384"><path
                         id="path382"
                         style="fill:none;stroke:#000000;stroke-width:2.00929999;stroke-linecap:butt;stroke-linejoin:miter;stroke-miterlimit:10;stroke-dasharray:none;stroke-opacity:1"
                         d="m 560.6,169.2 -1,0.3 -1.7,0.5 -1.1,0.3"
                         inkscape:connector-curvature="0" /></g><g
                       id="g388"><path
                         id="path386"
                         style="fill:none;stroke:#000000;stroke-width:2.00929999;stroke-linecap:butt;stroke-linejoin:miter;stroke-miterlimit:10;stroke-dasharray:none;stroke-opacity:1"
                         d="m 553,171.8 -1.5,0.8 -1.5,0.9 -0.4,0.3"
                         inkscape:connector-curvature="0" /></g><g
                       id="g392"><path
                         id="path390"
                         style="fill:none;stroke:#000000;stroke-width:2.00929999;stroke-linecap:butt;stroke-linejoin:miter;stroke-miterlimit:10;stroke-dasharray:none;stroke-opacity:1"
                         d="m 546.3,176.2 -0.5,0.3 -1.2,1.2 -1.2,1.2 h -0.1"
                         inkscape:connector-curvature="0" /></g><g
                       id="g396"><path
                         id="path394"
                         style="fill:none;stroke:#000000;stroke-width:2.00929999;stroke-linecap:butt;stroke-linejoin:miter;stroke-miterlimit:10;stroke-dasharray:none;stroke-opacity:1"
                         d="m 540.7,182 -0.5,0.8 -0.9,1.4 -0.7,1.2"
                         inkscape:connector-curvature="0" /></g><g
                       id="g400"><path
                         id="path398"
                         style="fill:none;stroke:#000000;stroke-width:2.00929999;stroke-linecap:butt;stroke-linejoin:miter;stroke-miterlimit:10;stroke-dasharray:none;stroke-opacity:1"
                         d="m 536.9,189 -0.5,1.2 -0.5,1.6 -0.3,1"
                         inkscape:connector-curvature="0" /></g></g></g></g><g
                 id="g414"><g
                   id="g408" /><g
                   id="g412"><g
                     style="opacity:0.58999999"
                     id="g410"
                     clip-path="url(#clipPath284)" /></g></g><g
                 id="g422"><g
                   id="g416" /><g
                   id="g420"><g
                     style="opacity:0.58999999"
                     id="g418"
                     clip-path="url(#clipPath288)" /></g></g></g></g></g><g
           id="g428"><g
             id="g430" /><g
             id="g440"><g
               style="opacity:0.57999004"
               id="g438"
               clip-path="url(#clipPath434)"><path
                 id="path436"
                 style="fill:#a591bd;fill-opacity:1;fill-rule:evenodd;stroke:none"
                 d="m 534.8,201.8 v 0 1.6 l 0.2,1.6 0.2,1.6 0.3,1.6 0.3,1.5 0.5,1.6 0.6,1.5 0.6,1.5 0.7,1.4 0.8,1.4 0.8,1.4 1,1.4 1,1.2 1,1.3 1.2,1.2 1.2,1.1 1.2,1.1 1.4,1 1.3,0.9 1.4,0.9 1.5,0.8 1.5,0.8 1.6,0.6 1.5,0.6 1.6,0.6 1.7,0.4 1.6,0.4 1.7,0.2 1.7,0.2 1.7,0.2 h 1.7 v 0 h 1.7 l 1.7,-0.2 1.8,-0.2 1.7,-0.3 1.7,-0.4 1.7,-0.4 1.7,-0.6 1.6,-0.6 1.6,-0.7 1.5,-0.8 1.5,-0.9 1.4,-0.9 1.4,-1 1.4,-1.1 1.2,-1.1 1.2,-1.2 1.2,-1.3 1,-1.3 1,-1.4 0.9,-1.4 0.9,-1.4 0.7,-1.5 0.7,-1.6 0.6,-1.5 0.5,-1.6 0.4,-1.6 0.3,-1.6 0.2,-1.7 0.2,-1.6 v -1.7 0 -1.6 l -0.1,-1.7 -0.3,-1.6 -0.3,-1.6 -0.4,-1.6 -0.5,-1.6 -0.6,-1.6 -0.7,-1.5 -0.7,-1.5 -0.8,-1.5 -0.9,-1.4 -1.1,-1.3 -1,-1.3 -1.2,-1.3 -1.2,-1.2 -1.2,-1.1 -1.4,-1.1 -1.4,-1 -1.4,-1 -1.5,-0.8 -1.5,-0.8 -1.6,-0.7 -1.6,-0.7 -1.7,-0.5 -1.7,-0.5 -1.7,-0.4 -1.7,-0.3 -1.8,-0.2 -1.7,-0.1 -1.7,-0.1 v 0 l -1.8,0.1 -1.7,0.1 -1.8,0.2 -1.7,0.3 -1.7,0.4 -1.7,0.5 -1.6,0.5 -1.7,0.6 -1.5,0.8 -1.6,0.8 -1.5,0.8 -1.4,1 -1.4,1 -1.4,1 -1.2,1.2 -1.2,1.2 -1.2,1.2 -1,1.3 -1,1.4 -0.9,1.4 -0.9,1.5 -0.7,1.5 -0.7,1.5 -0.6,1.6 -0.5,1.5 -0.4,1.6 -0.3,1.7 -0.2,1.6 -0.2,1.7 z m 0,31.6 z m 67,-63.2 z"
                 inkscape:connector-curvature="0" /></g></g></g><g
           id="g442"><g
             id="g444" /><g
             id="g552"><g
               style="opacity:0.58999999"
               id="g550"
               clip-path="url(#clipPath448)"><g
                 id="g452"><path
                   id="path450"
                   style="fill:none;stroke:#525e66;stroke-width:2.00929999;stroke-linecap:butt;stroke-linejoin:miter;stroke-miterlimit:10;stroke-dasharray:none;stroke-opacity:1"
                   d="m 535,198.6 -0.2,1.6 v 1.6 0 1.6 l 0.2,1.6 0.1,0.8"
                   inkscape:connector-curvature="0" /></g><g
                 id="g456"><path
                   id="path454"
                   style="fill:none;stroke:#525e66;stroke-width:2.00929999;stroke-linecap:butt;stroke-linejoin:miter;stroke-miterlimit:10;stroke-dasharray:none;stroke-opacity:1"
                   d="m 535.9,209.8 0.4,1.5 0.6,1.5 0.3,0.8"
                   inkscape:connector-curvature="0" /></g><g
                 id="g460"><path
                   id="path458"
                   style="fill:none;stroke:#525e66;stroke-width:2.00929999;stroke-linecap:butt;stroke-linejoin:miter;stroke-miterlimit:10;stroke-dasharray:none;stroke-opacity:1"
                   d="m 539,217.1 0.8,1.4 1,1.4 0.4,0.6"
                   inkscape:connector-curvature="0" /></g><g
                 id="g464"><path
                   id="path462"
                   style="fill:none;stroke:#525e66;stroke-width:2.00929999;stroke-linecap:butt;stroke-linejoin:miter;stroke-miterlimit:10;stroke-dasharray:none;stroke-opacity:1"
                   d="m 543.9,223.5 0.1,0.1 1.2,1.1 1.2,1.1 0.5,0.4"
                   inkscape:connector-curvature="0" /></g><g
                 id="g468"><path
                   id="path466"
                   style="fill:none;stroke:#525e66;stroke-width:2.00929999;stroke-linecap:butt;stroke-linejoin:miter;stroke-miterlimit:10;stroke-dasharray:none;stroke-opacity:1"
                   d="m 550.2,228.4 0.3,0.2 1.5,0.8 1.5,0.8 0.3,0.1"
                   inkscape:connector-curvature="0" /></g><g
                 id="g472"><path
                   id="path470"
                   style="fill:none;stroke:#525e66;stroke-width:2.00929999;stroke-linecap:butt;stroke-linejoin:miter;stroke-miterlimit:10;stroke-dasharray:none;stroke-opacity:1"
                   d="m 557.5,231.7 0.7,0.3 1.7,0.4 1.6,0.4"
                   inkscape:connector-curvature="0" /></g><g
                 id="g476"><path
                   id="path474"
                   style="fill:none;stroke:#525e66;stroke-width:2.00929999;stroke-linecap:butt;stroke-linejoin:miter;stroke-miterlimit:10;stroke-dasharray:none;stroke-opacity:1"
                   d="m 565.4,233.3 1.2,0.1 h 1.7 1.2"
                   inkscape:connector-curvature="0" /></g><g
                 id="g480"><path
                   id="path478"
                   style="fill:none;stroke:#525e66;stroke-width:2.00929999;stroke-linecap:butt;stroke-linejoin:miter;stroke-miterlimit:10;stroke-dasharray:none;stroke-opacity:1"
                   d="m 573.5,233 v 0 l 1.7,-0.3 1.7,-0.4 0.5,-0.1"
                   inkscape:connector-curvature="0" /></g><g
                 id="g484"><path
                   id="path482"
                   style="fill:none;stroke:#525e66;stroke-width:2.00929999;stroke-linecap:butt;stroke-linejoin:miter;stroke-miterlimit:10;stroke-dasharray:none;stroke-opacity:1"
                   d="m 581.2,230.9 0.7,-0.2 1.6,-0.7 1.4,-0.8"
                   inkscape:connector-curvature="0" /></g><g
                 id="g488"><path
                   id="path486"
                   style="fill:none;stroke:#525e66;stroke-width:2.00929999;stroke-linecap:butt;stroke-linejoin:miter;stroke-miterlimit:10;stroke-dasharray:none;stroke-opacity:1"
                   d="m 588.3,227.1 1,-0.7 1.4,-1.1 0.7,-0.7"
                   inkscape:connector-curvature="0" /></g><g
                 id="g492"><path
                   id="path490"
                   style="fill:none;stroke:#525e66;stroke-width:2.00929999;stroke-linecap:butt;stroke-linejoin:miter;stroke-miterlimit:10;stroke-dasharray:none;stroke-opacity:1"
                   d="m 594.2,221.7 h 0.1 l 1,-1.3 1,-1.4 0.4,-0.5"
                   inkscape:connector-curvature="0" /></g><g
                 id="g496"><path
                   id="path494"
                   style="fill:none;stroke:#525e66;stroke-width:2.00929999;stroke-linecap:butt;stroke-linejoin:miter;stroke-miterlimit:10;stroke-dasharray:none;stroke-opacity:1"
                   d="m 598.7,215 0.1,-0.3 0.7,-1.6 0.6,-1.5 0.1,-0.3"
                   inkscape:connector-curvature="0" /></g><g
                 id="g500"><path
                   id="path498"
                   style="fill:none;stroke:#525e66;stroke-width:2.00929999;stroke-linecap:butt;stroke-linejoin:miter;stroke-miterlimit:10;stroke-dasharray:none;stroke-opacity:1"
                   d="m 601.2,207.4 0.1,-0.6 0.2,-1.7 0.2,-1.6 v -0.1"
                   inkscape:connector-curvature="0" /></g><g
                 id="g504"><path
                   id="path502"
                   style="fill:none;stroke:#525e66;stroke-width:2.00929999;stroke-linecap:butt;stroke-linejoin:miter;stroke-miterlimit:10;stroke-dasharray:none;stroke-opacity:1"
                   d="m 601.6,199.4 v -0.9 l -0.3,-1.6 -0.3,-1.5"
                   inkscape:connector-curvature="0" /></g><g
                 id="g508"><path
                   id="path506"
                   style="fill:none;stroke:#525e66;stroke-width:2.00929999;stroke-linecap:butt;stroke-linejoin:miter;stroke-miterlimit:10;stroke-dasharray:none;stroke-opacity:1"
                   d="m 599.9,191.6 -0.4,-1.1 -0.7,-1.5 -0.5,-1.1"
                   inkscape:connector-curvature="0" /></g><g
                 id="g512"><path
                   id="path510"
                   style="fill:none;stroke:#525e66;stroke-width:2.00929999;stroke-linecap:butt;stroke-linejoin:miter;stroke-miterlimit:10;stroke-dasharray:none;stroke-opacity:1"
                   d="m 596.2,184.4 -0.9,-1.1 -1,-1.3 -0.6,-0.7"
                   inkscape:connector-curvature="0" /></g><g
                 id="g516"><path
                   id="path514"
                   style="fill:none;stroke:#525e66;stroke-width:2.00929999;stroke-linecap:butt;stroke-linejoin:miter;stroke-miterlimit:10;stroke-dasharray:none;stroke-opacity:1"
                   d="m 590.8,178.5 -0.1,-0.1 -1.4,-1.1 -1.4,-1 -0.3,-0.2"
                   inkscape:connector-curvature="0" /></g><g
                 id="g520"><path
                   id="path518"
                   style="fill:none;stroke:#525e66;stroke-width:2.00929999;stroke-linecap:butt;stroke-linejoin:miter;stroke-miterlimit:10;stroke-dasharray:none;stroke-opacity:1"
                   d="m 584.1,174 -0.6,-0.3 -1.6,-0.7 -1.4,-0.6"
                   inkscape:connector-curvature="0" /></g><g
                 id="g524"><path
                   id="path522"
                   style="fill:none;stroke:#525e66;stroke-width:2.00929999;stroke-linecap:butt;stroke-linejoin:miter;stroke-miterlimit:10;stroke-dasharray:none;stroke-opacity:1"
                   d="m 576.6,171.2 -1.4,-0.3 -1.7,-0.3 -0.8,-0.1"
                   inkscape:connector-curvature="0" /></g><g
                 id="g528"><path
                   id="path526"
                   style="fill:none;stroke:#525e66;stroke-width:2.00929999;stroke-linecap:butt;stroke-linejoin:miter;stroke-miterlimit:10;stroke-dasharray:none;stroke-opacity:1"
                   d="m 568.6,170.2 h -0.3 l -1.8,0.1 -1.7,0.1 h -0.2"
                   inkscape:connector-curvature="0" /></g><g
                 id="g532"><path
                   id="path530"
                   style="fill:none;stroke:#525e66;stroke-width:2.00929999;stroke-linecap:butt;stroke-linejoin:miter;stroke-miterlimit:10;stroke-dasharray:none;stroke-opacity:1"
                   d="m 560.6,171.1 -1,0.2 -1.7,0.5 -1.1,0.4"
                   inkscape:connector-curvature="0" /></g><g
                 id="g536"><path
                   id="path534"
                   style="fill:none;stroke:#525e66;stroke-width:2.00929999;stroke-linecap:butt;stroke-linejoin:miter;stroke-miterlimit:10;stroke-dasharray:none;stroke-opacity:1"
                   d="m 553,173.7 -1.5,0.8 -1.5,0.8 -0.4,0.3"
                   inkscape:connector-curvature="0" /></g><g
                 id="g540"><path
                   id="path538"
                   style="fill:none;stroke:#525e66;stroke-width:2.00929999;stroke-linecap:butt;stroke-linejoin:miter;stroke-miterlimit:10;stroke-dasharray:none;stroke-opacity:1"
                   d="m 546.3,178 -0.5,0.3 -1.2,1.2 -1.2,1.2 h -0.1"
                   inkscape:connector-curvature="0" /></g><g
                 id="g544"><path
                   id="path542"
                   style="fill:none;stroke:#525e66;stroke-width:2.00929999;stroke-linecap:butt;stroke-linejoin:miter;stroke-miterlimit:10;stroke-dasharray:none;stroke-opacity:1"
                   d="m 540.7,183.8 -0.5,0.8 -0.9,1.4 -0.7,1.2"
                   inkscape:connector-curvature="0" /></g><g
                 id="g548"><path
                   id="path546"
                   style="fill:none;stroke:#525e66;stroke-width:2.00929999;stroke-linecap:butt;stroke-linejoin:miter;stroke-miterlimit:10;stroke-dasharray:none;stroke-opacity:1"
                   d="m 536.9,190.8 -0.5,1.3 -0.5,1.5 -0.3,1.1"
                   inkscape:connector-curvature="0" /></g></g></g></g><g
           id="g554"><g
             id="g556" /><g
             id="g564"><g
               style="opacity:0.58999999"
               id="g562"
               clip-path="url(#clipPath560)" /></g></g><g
           id="g566"><g
             id="g568" /><g
             id="g576"><g
               style="opacity:0.58999999"
               id="g574"
               clip-path="url(#clipPath572)" /></g></g><g
           id="g578"><path
             id="path580"
             style="fill:none;stroke:#525e66;stroke-width:6.99009991;stroke-linecap:butt;stroke-linejoin:round;stroke-miterlimit:10;stroke-dasharray:none;stroke-opacity:1"
             d="m 356.1,259.1 63.4,69.7"
             inkscape:connector-curvature="0" /></g><g
           id="g582"><path
             id="path584"
             style="fill:none;stroke:#525e66;stroke-width:6.99009991;stroke-linecap:butt;stroke-linejoin:round;stroke-miterlimit:10;stroke-dasharray:none;stroke-opacity:1"
             d="m 413,323.8 57.3,37.6"
             inkscape:connector-curvature="0" /></g><g
           id="g586"><path
             id="path588"
             style="fill:none;stroke:#525e66;stroke-width:6.99009991;stroke-linecap:butt;stroke-linejoin:round;stroke-miterlimit:10;stroke-dasharray:none;stroke-opacity:1"
             d="m 419,324.1 -62.5,62.5"
             inkscape:connector-curvature="0" /></g><g
           id="g590"><g
             id="g592" /><g
             id="g662"><g
               style="opacity:0.35"
               id="g660"
               clip-path="url(#clipPath596)"><g
                 id="g622"><g
                   id="g614" /><g
                   id="g620"><g
                     style="opacity:0.31000001"
                     id="g618"
                     clip-path="url(#clipPath600)"><path
                       id="path616"
                       style="fill:#000000;fill-opacity:1;fill-rule:evenodd;stroke:none"
                       d="m 291.7,325 v 0 3.1 l 0.2,3.2 0.2,3.1 0.2,3.2 0.4,3.1 0.5,3.2 0.5,3.1 0.6,3.1 0.7,3.1 0.8,3 0.8,3.1 1,3 1,3 1.1,3 1.2,3 1.2,2.9 1.3,2.9 1.4,2.8 1.5,2.8 1.5,2.8 1.7,2.8 1.7,2.7 1.7,2.6 1.8,2.7 1.9,2.5 2,2.5 2,2.5 2.1,2.4 2.2,2.4 2.2,2.3 2.3,2.3 2.3,2.2 2.4,2.2 2.4,2 2.5,2.1 2.6,1.9 2.6,1.9 2.6,1.9 2.7,1.8 2.8,1.7 2.7,1.6 2.9,1.6 2.8,1.5 3,1.4 2.9,1.4 3,1.2 3,1.3 3,1.1 3.1,1 3.1,1 3.1,0.9 3.2,0.9 3.1,0.7 3.2,0.7 3.2,0.6 3.2,0.5 3.3,0.5 3.2,0.3 3.2,0.3 3.3,0.2 3.2,0.1 3.3,0.1 v 0 l 3.3,-0.1 3.2,-0.1 3.3,-0.2 3.2,-0.3 3.2,-0.3 3.3,-0.5 3.2,-0.5 3.2,-0.6 3.2,-0.7 3.1,-0.7 3.2,-0.9 3.1,-0.9 3.1,-1 3.1,-1 3,-1.1 3,-1.3 3,-1.2 2.9,-1.4 2.9,-1.4 2.9,-1.5 2.8,-1.6 2.8,-1.6 2.8,-1.7 2.7,-1.8 2.6,-1.9 2.6,-1.9 2.6,-1.9 2.5,-2.1 2.4,-2 2.4,-2.2 2.3,-2.2 2.3,-2.3 2.2,-2.3 2.2,-2.4 2.1,-2.4 2,-2.5 2,-2.5 1.9,-2.5 1.8,-2.7 1.7,-2.6 1.7,-2.7 1.6,-2.8 1.6,-2.8 1.4,-2.8 1.5,-2.8 1.3,-2.9 1.2,-2.9 1.2,-3 1.1,-3 1,-3 0.9,-3 0.9,-3.1 0.8,-3 0.7,-3.1 0.6,-3.1 0.5,-3.1 0.5,-3.2 0.3,-3.1 0.3,-3.2 0.2,-3.1 0.2,-3.2 v -3.1 0 l -0.1,-3.2 -0.1,-3.1 -0.2,-3.2 -0.3,-3.1 -0.3,-3.2 -0.5,-3.1 -0.5,-3.1 -0.7,-3.1 -0.6,-3.1 -0.8,-3.1 -0.9,-3.1 -0.9,-3 -1,-3 -1.1,-3 -1.2,-2.9 -1.3,-2.9 -1.3,-2.9 -1.4,-2.9 -1.4,-2.8 -1.6,-2.8 -1.6,-2.7 -1.7,-2.7 -1.8,-2.7 -1.8,-2.6 -1.9,-2.6 -1.9,-2.5 -2,-2.5 -2.1,-2.4 -2.2,-2.4 -2.2,-2.3 -2.3,-2.2 -2.3,-2.3 -2.4,-2.1 -2.4,-2.1 -2.5,-2 -2.6,-2 -2.6,-1.9 -2.7,-1.8 -2.7,-1.8 -2.7,-1.7 -2.8,-1.6 -2.8,-1.6 -2.9,-1.5 -2.9,-1.5 -2.9,-1.3 -3,-1.3 -3,-1.2 -3.1,-1.1 -3,-1.1 -3.1,-1 -3.1,-0.9 -3.2,-0.8 -3.2,-0.8 -3.1,-0.7 -3.2,-0.6 -3.2,-0.5 -3.3,-0.4 -3.2,-0.4 -3.3,-0.2 -3.2,-0.2 -3.2,-0.2 h -3.3 v 0 H 417 l -3.2,0.2 -3.3,0.2 -3.2,0.3 -3.2,0.3 -3.3,0.5 -3.2,0.5 -3.2,0.6 -3.2,0.7 -3.1,0.7 -3.2,0.8 -3.1,0.9 -3.1,1 -3.1,1.1 -3,1.1 -3,1.2 -3,1.3 -2.9,1.4 -2.9,1.4 -2.9,1.5 -2.8,1.6 -2.8,1.6 -2.8,1.7 -2.7,1.8 -2.6,1.8 -2.6,1.9 -2.6,2 -2.5,2 -2.4,2.1 -2.4,2.1 -2.3,2.3 -2.3,2.2 -2.2,2.3 -2.2,2.4 -2.1,2.4 -2,2.5 -2,2.5 -1.8,2.6 -1.9,2.6 -1.7,2.7 -1.7,2.7 -1.7,2.7 -1.5,2.8 -1.5,2.8 -1.4,2.9 -1.3,2.9 -1.2,2.9 -1.2,2.9 -1.1,3 -1,3 -1,3 -0.8,3.1 -0.8,3.1 -0.7,3.1 -0.6,3.1 -0.5,3.1 -0.5,3.1 -0.4,3.2 -0.2,3.1 -0.2,3.2 -0.2,3.1 z m 0,124.8 z M 548.9,200.2 Z"
                       inkscape:connector-curvature="0" /></g></g></g><g
                 id="g634"><g
                   id="g624" /><g
                   id="g632"><g
                     style="opacity:0.31000001"
                     id="g630"
                     clip-path="url(#clipPath604)"><g
                       id="g628"><path
                         id="path626"
                         style="fill:none;stroke:#000000;stroke-width:2.00929999;stroke-linecap:butt;stroke-linejoin:round;stroke-miterlimit:10;stroke-dasharray:none;stroke-opacity:1"
                         d="m 291.7,325 v 0 3.1 l 0.2,3.2 0.2,3.1 0.2,3.2 0.4,3.1 0.5,3.2 0.5,3.1 0.6,3.1 0.7,3.1 0.8,3 0.8,3.1 1,3 1,3 1.1,3 1.2,3 1.2,2.9 1.3,2.9 1.4,2.8 1.5,2.8 1.5,2.8 1.7,2.8 1.7,2.7 1.7,2.6 1.8,2.7 1.9,2.5 2,2.5 2,2.5 2.1,2.4 2.2,2.4 2.2,2.3 2.3,2.3 2.3,2.2 2.4,2.2 2.4,2 2.5,2.1 2.6,1.9 2.6,1.9 2.6,1.9 2.7,1.8 2.8,1.7 2.7,1.6 2.9,1.6 2.8,1.5 3,1.4 2.9,1.4 3,1.2 3,1.3 3,1.1 3.1,1 3.1,1 3.1,0.9 3.2,0.9 3.1,0.7 3.2,0.7 3.2,0.6 3.2,0.5 3.3,0.5 3.2,0.3 3.2,0.3 3.3,0.2 3.2,0.1 3.3,0.1 v 0 l 3.3,-0.1 3.2,-0.1 3.3,-0.2 3.2,-0.3 3.2,-0.3 3.3,-0.5 3.2,-0.5 3.2,-0.6 3.2,-0.7 3.1,-0.7 3.2,-0.9 3.1,-0.9 3.1,-1 3.1,-1 3,-1.1 3,-1.3 3,-1.2 2.9,-1.4 2.9,-1.4 2.9,-1.5 2.8,-1.6 2.8,-1.6 2.8,-1.7 2.7,-1.8 2.6,-1.9 2.6,-1.9 2.6,-1.9 2.5,-2.1 2.4,-2 2.4,-2.2 2.3,-2.2 2.3,-2.3 2.2,-2.3 2.2,-2.4 2.1,-2.4 2,-2.5 2,-2.5 1.9,-2.5 1.8,-2.7 1.7,-2.6 1.7,-2.7 1.6,-2.8 1.6,-2.8 1.4,-2.8 1.5,-2.8 1.3,-2.9 1.2,-2.9 1.2,-3 1.1,-3 1,-3 0.9,-3 0.9,-3.1 0.8,-3 0.7,-3.1 0.6,-3.1 0.5,-3.1 0.5,-3.2 0.3,-3.1 0.3,-3.2 0.2,-3.1 0.2,-3.2 v -3.1 0 l -0.1,-3.2 -0.1,-3.1 -0.2,-3.2 -0.3,-3.1 -0.3,-3.2 -0.5,-3.1 -0.5,-3.1 -0.7,-3.1 -0.6,-3.1 -0.8,-3.1 -0.9,-3.1 -0.9,-3 -1,-3 -1.1,-3 -1.2,-2.9 -1.3,-2.9 -1.3,-2.9 -1.4,-2.9 -1.4,-2.8 -1.6,-2.8 -1.6,-2.7 -1.7,-2.7 -1.8,-2.7 -1.8,-2.6 -1.9,-2.6 -1.9,-2.5 -2,-2.5 -2.1,-2.4 -2.2,-2.4 -2.2,-2.3 -2.3,-2.2 -2.3,-2.3 -2.4,-2.1 -2.4,-2.1 -2.5,-2 -2.6,-2 -2.6,-1.9 -2.7,-1.8 -2.7,-1.8 -2.7,-1.7 -2.8,-1.6 -2.8,-1.6 -2.9,-1.5 -2.9,-1.5 -2.9,-1.3 -3,-1.3 -3,-1.2 -3.1,-1.1 -3,-1.1 -3.1,-1 -3.1,-0.9 -3.2,-0.8 -3.2,-0.8 -3.1,-0.7 -3.2,-0.6 -3.2,-0.5 -3.3,-0.4 -3.2,-0.4 -3.3,-0.2 -3.2,-0.2 -3.2,-0.2 h -3.3 v 0 H 417 l -3.2,0.2 -3.3,0.2 -3.2,0.3 -3.2,0.3 -3.3,0.5 -3.2,0.5 -3.2,0.6 -3.2,0.7 -3.1,0.7 -3.2,0.8 -3.1,0.9 -3.1,1 -3.1,1.1 -3,1.1 -3,1.2 -3,1.3 -2.9,1.4 -2.9,1.4 -2.9,1.5 -2.8,1.6 -2.8,1.6 -2.8,1.7 -2.7,1.8 -2.6,1.8 -2.6,1.9 -2.6,2 -2.5,2 -2.4,2.1 -2.4,2.1 -2.3,2.3 -2.3,2.2 -2.2,2.3 -2.2,2.4 -2.1,2.4 -2,2.5 -2,2.5 -1.8,2.6 -1.9,2.6 -1.7,2.7 -1.7,2.7 -1.7,2.7 -1.5,2.8 -1.5,2.8 -1.4,2.9 -1.3,2.9 -1.2,2.9 -1.2,2.9 -1.1,3 -1,3 -1,3 -0.8,3.1 -0.8,3.1 -0.7,3.1 -0.6,3.1 -0.5,3.1 -0.5,3.1 -0.4,3.2 -0.2,3.1 -0.2,3.2 -0.2,3.1 z"
                         inkscape:connector-curvature="0" /></g></g></g></g><g
                 id="g646"><g
                   id="g636" /><g
                   id="g644"><g
                     style="opacity:0.31000001"
                     id="g642"
                     clip-path="url(#clipPath608)"><g
                       id="g640"><path
                         id="path638"
                         style="fill:none;stroke:#000000;stroke-width:2.00929999;stroke-linecap:butt;stroke-linejoin:round;stroke-miterlimit:10;stroke-dasharray:none;stroke-opacity:1"
                         d="M 291.7,449.8 Z"
                         inkscape:connector-curvature="0" /></g></g></g></g><g
                 id="g658"><g
                   id="g648" /><g
                   id="g656"><g
                     style="opacity:0.31000001"
                     id="g654"
                     clip-path="url(#clipPath612)"><g
                       id="g652"><path
                         id="path650"
                         style="fill:none;stroke:#000000;stroke-width:2.00929999;stroke-linecap:butt;stroke-linejoin:round;stroke-miterlimit:10;stroke-dasharray:none;stroke-opacity:1"
                         d="M 548.9,200.2 Z"
                         inkscape:connector-curvature="0" /></g></g></g></g></g></g></g><g
           id="g664"><g
             id="g666" /><g
             id="g676"><g
               style="opacity:0.31000001"
               id="g674"
               clip-path="url(#clipPath670)"><path
                 id="path672"
                 style="fill:#b7e2da;fill-opacity:1;fill-rule:evenodd;stroke:none"
                 d="m 291.7,326.8 v 0 3.2 l 0.2,3.1 0.2,3.2 0.2,3.1 0.4,3.1 0.5,3.2 0.5,3.1 0.6,3.1 0.7,3.1 0.8,3.1 0.8,3 1,3 1,3.1 1.1,2.9 1.2,3 1.2,2.9 1.3,2.9 1.4,2.8 1.5,2.9 1.5,2.7 1.7,2.8 1.7,2.7 1.7,2.6 1.8,2.7 1.9,2.5 2,2.6 2,2.4 2.1,2.5 2.2,2.3 2.2,2.4 2.3,2.2 2.3,2.2 2.4,2.2 2.4,2.1 2.5,2 2.6,2 2.6,1.9 2.6,1.8 2.7,1.8 2.8,1.7 2.7,1.6 2.9,1.6 2.8,1.5 3,1.4 2.9,1.4 3,1.2 3,1.3 3,1.1 3.1,1 3.1,1 3.1,0.9 3.2,0.9 3.1,0.7 3.2,0.7 3.2,0.6 3.2,0.5 3.3,0.5 3.2,0.3 3.2,0.3 3.3,0.2 3.2,0.1 3.3,0.1 v 0 l 3.3,-0.1 3.2,-0.1 3.3,-0.2 3.2,-0.3 3.2,-0.3 3.3,-0.5 3.2,-0.5 3.2,-0.6 3.2,-0.7 3.1,-0.7 3.2,-0.9 3.1,-0.9 3.1,-1 3.1,-1 3,-1.1 3,-1.3 3,-1.2 2.9,-1.4 2.9,-1.4 2.9,-1.5 2.8,-1.6 2.8,-1.6 2.8,-1.7 2.7,-1.8 2.6,-1.8 2.6,-1.9 2.6,-2 2.5,-2 2.4,-2.1 2.4,-2.2 2.3,-2.2 2.3,-2.2 2.2,-2.4 2.2,-2.3 2.1,-2.5 2,-2.4 2,-2.6 1.9,-2.5 1.8,-2.7 1.7,-2.6 1.7,-2.7 1.6,-2.8 1.6,-2.7 1.4,-2.9 1.5,-2.8 1.3,-2.9 1.2,-2.9 1.2,-3 1.1,-2.9 1,-3.1 0.9,-3 0.9,-3 0.8,-3.1 0.7,-3.1 0.6,-3.1 0.5,-3.1 0.5,-3.2 0.3,-3.1 0.3,-3.1 0.2,-3.2 0.2,-3.1 v -3.2 0 l -0.1,-3.2 -0.1,-3.1 -0.2,-3.2 -0.3,-3.1 -0.3,-3.2 -0.5,-3.1 -0.5,-3.1 -0.7,-3.1 -0.6,-3.1 -0.8,-3.1 -0.9,-3 -0.9,-3.1 -1,-3 -1.1,-3 -1.2,-2.9 -1.3,-2.9 -1.3,-2.9 -1.4,-2.8 -1.4,-2.9 -1.6,-2.8 -1.6,-2.7 -1.7,-2.7 -1.8,-2.7 -1.8,-2.6 -1.9,-2.6 -1.9,-2.5 -2,-2.4 -2.1,-2.5 -2.2,-2.4 -2.2,-2.3 -2.3,-2.2 -2.3,-2.2 -2.4,-2.2 -2.4,-2.1 -2.5,-2 -2.6,-2 -2.6,-1.9 -2.7,-1.8 -2.7,-1.8 -2.7,-1.7 -2.8,-1.6 -2.8,-1.6 -2.9,-1.5 -2.9,-1.4 -2.9,-1.4 -3,-1.3 -3,-1.2 -3.1,-1.1 -3,-1.1 -3.1,-1 -3.1,-0.9 -3.2,-0.8 -3.2,-0.8 -3.1,-0.6 -3.2,-0.6 -3.2,-0.5 -3.3,-0.5 -3.2,-0.3 -3.3,-0.3 -3.2,-0.2 -3.2,-0.2 h -3.3 v 0 l -3.3,0.1 -3.2,0.1 -3.3,0.2 -3.2,0.3 -3.2,0.3 -3.3,0.5 -3.2,0.5 -3.2,0.6 -3.2,0.7 -3.1,0.7 -3.2,0.9 -3.1,0.9 -3.1,1 -3.1,1 -3,1.1 -3,1.3 -3,1.2 -2.9,1.4 -2.9,1.4 -2.9,1.5 -2.8,1.6 -2.8,1.6 -2.8,1.7 -2.7,1.8 -2.6,1.8 -2.6,1.9 -2.6,2 -2.5,2 -2.4,2.1 -2.4,2.2 -2.3,2.2 -2.3,2.2 -2.2,2.4 -2.2,2.3 -2.1,2.5 -2,2.4 -2,2.5 -1.8,2.6 -1.9,2.6 -1.7,2.7 -1.7,2.7 -1.7,2.7 -1.5,2.8 -1.5,2.9 -1.4,2.8 -1.3,2.9 -1.2,2.9 -1.2,2.9 -1.1,3 -1,3 -1,3.1 -0.8,3 -0.8,3.1 -0.7,3.1 -0.6,3.1 -0.5,3.1 -0.5,3.1 -0.4,3.2 -0.2,3.1 -0.2,3.2 -0.2,3.1 z m 0,124.8 z M 548.9,202 Z"
                 inkscape:connector-curvature="0" /></g></g></g><g
           id="g678"><g
             id="g680" /><g
             id="g692"><g
               style="opacity:0.31000001"
               id="g690"
               clip-path="url(#clipPath684)"><g
                 id="g688"><path
                   id="path686"
                   style="fill:none;stroke:#525e66;stroke-width:2.00929999;stroke-linecap:butt;stroke-linejoin:round;stroke-miterlimit:10;stroke-dasharray:none;stroke-opacity:1"
                   d="m 291.7,326.8 v 0 3.2 l 0.2,3.1 0.2,3.2 0.2,3.1 0.4,3.1 0.5,3.2 0.5,3.1 0.6,3.1 0.7,3.1 0.8,3.1 0.8,3 1,3 1,3.1 1.1,2.9 1.2,3 1.2,2.9 1.3,2.9 1.4,2.8 1.5,2.9 1.5,2.7 1.7,2.8 1.7,2.7 1.7,2.6 1.8,2.7 1.9,2.5 2,2.6 2,2.4 2.1,2.5 2.2,2.3 2.2,2.4 2.3,2.2 2.3,2.2 2.4,2.2 2.4,2.1 2.5,2 2.6,2 2.6,1.9 2.6,1.8 2.7,1.8 2.8,1.7 2.7,1.6 2.9,1.6 2.8,1.5 3,1.4 2.9,1.4 3,1.2 3,1.3 3,1.1 3.1,1 3.1,1 3.1,0.9 3.2,0.9 3.1,0.7 3.2,0.7 3.2,0.6 3.2,0.5 3.3,0.5 3.2,0.3 3.2,0.3 3.3,0.2 3.2,0.1 3.3,0.1 v 0 l 3.3,-0.1 3.2,-0.1 3.3,-0.2 3.2,-0.3 3.2,-0.3 3.3,-0.5 3.2,-0.5 3.2,-0.6 3.2,-0.7 3.1,-0.7 3.2,-0.9 3.1,-0.9 3.1,-1 3.1,-1 3,-1.1 3,-1.3 3,-1.2 2.9,-1.4 2.9,-1.4 2.9,-1.5 2.8,-1.6 2.8,-1.6 2.8,-1.7 2.7,-1.8 2.6,-1.8 2.6,-1.9 2.6,-2 2.5,-2 2.4,-2.1 2.4,-2.2 2.3,-2.2 2.3,-2.2 2.2,-2.4 2.2,-2.3 2.1,-2.5 2,-2.4 2,-2.6 1.9,-2.5 1.8,-2.7 1.7,-2.6 1.7,-2.7 1.6,-2.8 1.6,-2.7 1.4,-2.9 1.5,-2.8 1.3,-2.9 1.2,-2.9 1.2,-3 1.1,-2.9 1,-3.1 0.9,-3 0.9,-3 0.8,-3.1 0.7,-3.1 0.6,-3.1 0.5,-3.1 0.5,-3.2 0.3,-3.1 0.3,-3.1 0.2,-3.2 0.2,-3.1 v -3.2 0 l -0.1,-3.2 -0.1,-3.1 -0.2,-3.2 -0.3,-3.1 -0.3,-3.2 -0.5,-3.1 -0.5,-3.1 -0.7,-3.1 -0.6,-3.1 -0.8,-3.1 -0.9,-3 -0.9,-3.1 -1,-3 -1.1,-3 -1.2,-2.9 -1.3,-2.9 -1.3,-2.9 -1.4,-2.8 -1.4,-2.9 -1.6,-2.8 -1.6,-2.7 -1.7,-2.7 -1.8,-2.7 -1.8,-2.6 -1.9,-2.6 -1.9,-2.5 -2,-2.4 -2.1,-2.5 -2.2,-2.4 -2.2,-2.3 -2.3,-2.2 -2.3,-2.2 -2.4,-2.2 -2.4,-2.1 -2.5,-2 -2.6,-2 -2.6,-1.9 -2.7,-1.8 -2.7,-1.8 -2.7,-1.7 -2.8,-1.6 -2.8,-1.6 -2.9,-1.5 -2.9,-1.4 -2.9,-1.4 -3,-1.3 -3,-1.2 -3.1,-1.1 -3,-1.1 -3.1,-1 -3.1,-0.9 -3.2,-0.8 -3.2,-0.8 -3.1,-0.6 -3.2,-0.6 -3.2,-0.5 -3.3,-0.5 -3.2,-0.3 -3.3,-0.3 -3.2,-0.2 -3.2,-0.2 h -3.3 v 0 l -3.3,0.1 -3.2,0.1 -3.3,0.2 -3.2,0.3 -3.2,0.3 -3.3,0.5 -3.2,0.5 -3.2,0.6 -3.2,0.7 -3.1,0.7 -3.2,0.9 -3.1,0.9 -3.1,1 -3.1,1 -3,1.1 -3,1.3 -3,1.2 -2.9,1.4 -2.9,1.4 -2.9,1.5 -2.8,1.6 -2.8,1.6 -2.8,1.7 -2.7,1.8 -2.6,1.8 -2.6,1.9 -2.6,2 -2.5,2 -2.4,2.1 -2.4,2.2 -2.3,2.2 -2.3,2.2 -2.2,2.4 -2.2,2.3 -2.1,2.5 -2,2.4 -2,2.5 -1.8,2.6 -1.9,2.6 -1.7,2.7 -1.7,2.7 -1.7,2.7 -1.5,2.8 -1.5,2.9 -1.4,2.8 -1.3,2.9 -1.2,2.9 -1.2,2.9 -1.1,3 -1,3 -1,3.1 -0.8,3 -0.8,3.1 -0.7,3.1 -0.6,3.1 -0.5,3.1 -0.5,3.1 -0.4,3.2 -0.2,3.1 -0.2,3.2 -0.2,3.1 z"
                   inkscape:connector-curvature="0" /></g></g></g></g><g
           id="g694"><g
             id="g696" /><g
             id="g708"><g
               style="opacity:0.31000001"
               id="g706"
               clip-path="url(#clipPath700)"><g
                 id="g704"><path
                   id="path702"
                   style="fill:none;stroke:#525e66;stroke-width:2.00929999;stroke-linecap:butt;stroke-linejoin:round;stroke-miterlimit:10;stroke-dasharray:none;stroke-opacity:1"
                   d="M 291.7,451.6 Z"
                   inkscape:connector-curvature="0" /></g></g></g></g><g
           id="g710"><g
             id="g712" /><g
             id="g724"><g
               style="opacity:0.31000001"
               id="g722"
               clip-path="url(#clipPath716)"><g
                 id="g720"><path
                   id="path718"
                   style="fill:none;stroke:#525e66;stroke-width:2.00929999;stroke-linecap:butt;stroke-linejoin:round;stroke-miterlimit:10;stroke-dasharray:none;stroke-opacity:1"
                   d="M 548.9,202 Z"
                   inkscape:connector-curvature="0" /></g></g></g></g><g
           id="g726"><g
             id="g728" /><g
             id="g802"><g
               style="opacity:0.35"
               id="g800"
               clip-path="url(#clipPath732)"><g
                 id="g782"><g
                   id="g746" /><g
                   id="g780"><g
                     style="opacity:0.8"
                     id="g778"
                     clip-path="url(#clipPath736)"><g
                       id="g750"><path
                         id="path748"
                         style="fill:none;stroke:#000000;stroke-width:5.99959993;stroke-linecap:butt;stroke-linejoin:miter;stroke-miterlimit:10;stroke-dasharray:none;stroke-opacity:1"
                         d="m 517.3,200.6 c -3.9,1 -7.8,2.2 -11.5,3.6"
                         inkscape:connector-curvature="0" /></g><g
                       id="g754"><path
                         id="path752"
                         style="fill:none;stroke:#000000;stroke-width:5.99959993;stroke-linecap:butt;stroke-linejoin:miter;stroke-miterlimit:10;stroke-dasharray:none;stroke-opacity:1"
                         d="m 494.8,209 c -3.5,1.8 -7,3.9 -10.3,6.1"
                         inkscape:connector-curvature="0" /></g><g
                       id="g758"><path
                         id="path756"
                         style="fill:none;stroke:#000000;stroke-width:5.99959993;stroke-linecap:butt;stroke-linejoin:miter;stroke-miterlimit:10;stroke-dasharray:none;stroke-opacity:1"
                         d="m 475,222.4 c -2.9,2.5 -5.8,5.3 -8.6,8.3"
                         inkscape:connector-curvature="0" /></g><g
                       id="g762"><path
                         id="path760"
                         style="fill:none;stroke:#000000;stroke-width:5.99959993;stroke-linecap:butt;stroke-linejoin:miter;stroke-miterlimit:10;stroke-dasharray:none;stroke-opacity:1"
                         d="m 458.6,239.9 c -2.4,3.1 -4.7,6.4 -7,9.9"
                         inkscape:connector-curvature="0" /></g><g
                       id="g766"><path
                         id="path764"
                         style="fill:none;stroke:#000000;stroke-width:5.99959993;stroke-linecap:butt;stroke-linejoin:miter;stroke-miterlimit:10;stroke-dasharray:none;stroke-opacity:1"
                         d="m 445.4,259.9 c -1.9,3.4 -3.7,6.9 -5.5,10.6"
                         inkscape:connector-curvature="0" /></g><g
                       id="g770"><path
                         id="path768"
                         style="fill:none;stroke:#000000;stroke-width:5.99959993;stroke-linecap:butt;stroke-linejoin:miter;stroke-miterlimit:10;stroke-dasharray:none;stroke-opacity:1"
                         d="m 434.7,281.6 c -1.5,3.5 -3,7.1 -4.5,10.9"
                         inkscape:connector-curvature="0" /></g><g
                       id="g774"><path
                         id="path772"
                         style="fill:none;stroke:#000000;stroke-width:5.99959993;stroke-linecap:butt;stroke-linejoin:miter;stroke-miterlimit:10;stroke-dasharray:none;stroke-opacity:1"
                         d="m 425.9,303.9 c -1.3,3.6 -2.6,7.3 -3.8,11.2"
                         inkscape:connector-curvature="0" /></g><path
                       id="path776"
                       style="fill:#000000;fill-opacity:1;fill-rule:evenodd;stroke:none"
                       d="m 533.9,197.8 -19.3,-5.8 3.1,17.8 z"
                       inkscape:connector-curvature="0" /></g></g></g><g
                 id="g790"><g
                   id="g784" /><g
                   id="g788"><g
                     style="opacity:0.8"
                     id="g786"
                     clip-path="url(#clipPath740)" /></g></g><g
                 id="g798"><g
                   id="g792" /><g
                   id="g796"><g
                     style="opacity:0.8"
                     id="g794"
                     clip-path="url(#clipPath744)" /></g></g></g></g></g><g
           id="g804"><g
             id="g806" /><g
             id="g844"><g
               style="opacity:0.8"
               id="g842"
               clip-path="url(#clipPath810)"><g
                 id="g814"><path
                   id="path812"
                   style="fill:none;stroke:#525e66;stroke-width:5.99959993;stroke-linecap:butt;stroke-linejoin:miter;stroke-miterlimit:10;stroke-dasharray:none;stroke-opacity:1"
                   d="m 517.3,202.4 c -3.9,1 -7.8,2.2 -11.5,3.6"
                   inkscape:connector-curvature="0" /></g><g
                 id="g818"><path
                   id="path816"
                   style="fill:none;stroke:#525e66;stroke-width:5.99959993;stroke-linecap:butt;stroke-linejoin:miter;stroke-miterlimit:10;stroke-dasharray:none;stroke-opacity:1"
                   d="m 494.8,210.8 c -3.5,1.9 -7,3.9 -10.3,6.1"
                   inkscape:connector-curvature="0" /></g><g
                 id="g822"><path
                   id="path820"
                   style="fill:none;stroke:#525e66;stroke-width:5.99959993;stroke-linecap:butt;stroke-linejoin:miter;stroke-miterlimit:10;stroke-dasharray:none;stroke-opacity:1"
                   d="m 475,224.2 c -2.9,2.6 -5.8,5.3 -8.6,8.3"
                   inkscape:connector-curvature="0" /></g><g
                 id="g826"><path
                   id="path824"
                   style="fill:none;stroke:#525e66;stroke-width:5.99959993;stroke-linecap:butt;stroke-linejoin:miter;stroke-miterlimit:10;stroke-dasharray:none;stroke-opacity:1"
                   d="m 458.6,241.7 c -2.4,3.1 -4.7,6.4 -7,9.9"
                   inkscape:connector-curvature="0" /></g><g
                 id="g830"><path
                   id="path828"
                   style="fill:none;stroke:#525e66;stroke-width:5.99959993;stroke-linecap:butt;stroke-linejoin:miter;stroke-miterlimit:10;stroke-dasharray:none;stroke-opacity:1"
                   d="m 445.4,261.8 c -1.9,3.3 -3.7,6.8 -5.5,10.5"
                   inkscape:connector-curvature="0" /></g><g
                 id="g834"><path
                   id="path832"
                   style="fill:none;stroke:#525e66;stroke-width:5.99959993;stroke-linecap:butt;stroke-linejoin:miter;stroke-miterlimit:10;stroke-dasharray:none;stroke-opacity:1"
                   d="m 434.7,283.4 c -1.5,3.5 -3,7.1 -4.5,10.9"
                   inkscape:connector-curvature="0" /></g><g
                 id="g838"><path
                   id="path836"
                   style="fill:none;stroke:#525e66;stroke-width:5.99959993;stroke-linecap:butt;stroke-linejoin:miter;stroke-miterlimit:10;stroke-dasharray:none;stroke-opacity:1"
                   d="m 425.9,305.7 c -1.3,3.6 -2.6,7.3 -3.8,11.2"
                   inkscape:connector-curvature="0" /></g><path
                 id="path840"
                 style="fill:#525e66;fill-opacity:1;fill-rule:evenodd;stroke:none"
                 d="m 533.9,199.6 -19.3,-5.8 3.1,17.8 z"
                 inkscape:connector-curvature="0" /></g></g></g><g
           id="g846"><g
             id="g848" /><g
             id="g856"><g
               style="opacity:0.8"
               id="g854"
               clip-path="url(#clipPath852)" /></g></g><g
           id="g858"><g
             id="g860" /><g
             id="g868"><g
               style="opacity:0.8"
               id="g866"
               clip-path="url(#clipPath864)" /></g></g></g></g></g></svg>