<?xml version="1.0" encoding="UTF-8" standalone="no"?>
<svg
   xmlns:dc="http://purl.org/dc/elements/1.1/"
   xmlns:cc="http://creativecommons.org/ns#"
   xmlns:rdf="http://www.w3.org/1999/02/22-rdf-syntax-ns#"
   xmlns:svg="http://www.w3.org/2000/svg"
   xmlns="http://www.w3.org/2000/svg"
   xmlns:sodipodi="http://sodipodi.sourceforge.net/DTD/sodipodi-0.dtd"
   xmlns:inkscape="http://www.inkscape.org/namespaces/inkscape"
   viewBox="0 0 935.98714 371.58719"
   height="371.58719"
   width="935.98718"
   xml:space="preserve"
   id="svg2"
   version="1.1"
   sodipodi:docname="thread_support.svg"
   inkscape:version="0.92.2 (5c3e80d, 2017-08-06)"><sodipodi:namedview
     pagecolor="#ffffff"
     bordercolor="#666666"
     borderopacity="1"
     objecttolerance="10"
     gridtolerance="10"
     guidetolerance="10"
     inkscape:pageopacity="0"
     inkscape:pageshadow="2"
     inkscape:window-width="1920"
     inkscape:window-height="1043"
     id="namedview108"
     showgrid="false"
     fit-margin-top="0"
     fit-margin-left="0"
     fit-margin-right="0"
     fit-margin-bottom="0"
     inkscape:zoom="0.83356662"
     inkscape:cx="350.51776"
     inkscape:cy="313.97422"
     inkscape:window-x="0"
     inkscape:window-y="0"
     inkscape:window-maximized="1"
     inkscape:current-layer="g14" /><metadata
     id="metadata8"><rdf:RDF><cc:Work
         rdf:about=""><dc:format>image/svg+xml</dc:format><dc:type
           rdf:resource="http://purl.org/dc/dcmitype/StillImage" /><dc:title></dc:title></cc:Work></rdf:RDF></metadata><defs
     id="defs6"><clipPath
       id="clipPath18"
       clipPathUnits="userSpaceOnUse"><path
         style="clip-rule:evenodd"
         id="path16"
         d="M 0,-0.2 H 793.6 V 595 H 0 Z"
         inkscape:connector-curvature="0" /></clipPath></defs><g
     transform="matrix(1.3333333,0,0,-1.3333333,-35.273072,529.66025)"
     id="g10"><g
       id="g12"><g
         clip-path="url(#clipPath18)"
         id="g14"><g
           id="g22" /><g
           id="g24" /><path
           id="path26"
           style="fill:#ffffff;fill-opacity:1;fill-rule:evenodd;stroke:none"
           d="M 137.5,359.2 H 80.8 v 31.1 h 113.4 v -31.1 z"
           inkscape:connector-curvature="0" /><g
           id="g28"><path
             id="path30"
             style="fill:none;stroke:#000000;stroke-width:2.49039006;stroke-linecap:butt;stroke-linejoin:round;stroke-miterlimit:10;stroke-dasharray:none;stroke-opacity:1"
             d="M 137.5,359.2 H 80.8 v 31.1 h 113.4 v -31.1 z"
             inkscape:connector-curvature="0" /></g><g
           id="g32"><text
             id="text36"
             style="font-variant:normal;font-weight:normal;font-size:20px;font-family:Carlito;-inkscape-font-specification:Carlito;writing-mode:lr-tb;fill:#000000;fill-opacity:1;fill-rule:nonzero;stroke:none"
             transform="matrix(1,0,0,-1,87.9,366.8)"><tspan
               id="tspan34"
               y="0"
               x="0 17.18 27.48 32.48 37.060001 47.639999 58.139999 62.720001">MPI only</tspan></text>
</g><path
           id="path38"
           style="fill:#ffffff;fill-opacity:1;fill-rule:evenodd;stroke:none"
           d="m 534.4,359.2 h -68 v 31.1 h 136.1 v -31.1 z"
           inkscape:connector-curvature="0" /><g
           id="g40"><path
             id="path42"
             style="fill:none;stroke:#000000;stroke-width:2.49039006;stroke-linecap:butt;stroke-linejoin:round;stroke-miterlimit:10;stroke-dasharray:none;stroke-opacity:1"
             d="m 534.4,359.2 h -68 v 31.1 h 136.1 v -31.1 z"
             inkscape:connector-curvature="0" /></g><g
           id="g44"><text
             id="text48"
             style="font-variant:normal;font-weight:normal;font-size:20px;font-family:Carlito;-inkscape-font-specification:Carlito;writing-mode:lr-tb;fill:#000000;fill-opacity:1;fill-rule:nonzero;stroke:none"
             transform="matrix(1,0,0,-1,473.5,366.8)"><tspan
               id="tspan46"
               y="0"
               x="0 13.28 23.860001 33.759998 44.34 61.52 71.82 76.32 86.900002 97.480003 101.98">OpenMP only</tspan></text>
</g><path
           id="path50"
           style="fill:#ffffff;fill-opacity:1;fill-rule:evenodd;stroke:none"
           d="M 316.1,340.9 H 245.3 V 396 H 387 v -55.1 z"
           inkscape:connector-curvature="0" /><g
           id="g52"><path
             id="path54"
             style="fill:none;stroke:#000000;stroke-width:2.49039006;stroke-linecap:butt;stroke-linejoin:round;stroke-miterlimit:10;stroke-dasharray:none;stroke-opacity:1"
             d="M 316.1,340.9 H 245.3 V 396 H 387 v -55.1 z"
             inkscape:connector-curvature="0" /></g><g
           id="g56"><text
             id="text60"
             style="font-variant:normal;font-weight:normal;font-size:20px;font-family:Carlito;-inkscape-font-specification:Carlito;writing-mode:lr-tb;fill:#000000;fill-opacity:1;fill-rule:nonzero;stroke:none"
             transform="matrix(1,0,0,-1,252.4,372.5)"><tspan
               id="tspan58"
               y="0"
               x="0 12.4 21.58 32.080002 39.060001 43.639999 54.139999">Hybrid </tspan></text>
</g><g
           id="g62"><text
             id="text66"
             style="font-variant:normal;font-weight:normal;font-size:20px;font-family:Carlito;-inkscape-font-specification:Carlito;writing-mode:lr-tb;fill:#000000;fill-opacity:1;fill-rule:nonzero;stroke:none"
             transform="matrix(1,0,0,-1,252.4,348.5)"><tspan
               id="tspan64"
               y="0"
               x="0 17.08 27.379999 32.459999 42.439999 55.720001 66.220001 76.199997 86.779999 103.86">MPI+OpenMP</tspan></text>
</g><path
           id="path68"
           style="fill:#ffffff;fill-opacity:1;fill-rule:evenodd;stroke:none"
           d="M 124.1,216.1 H 27.7 v 76.8 h 192.8 v -76.8 z"
           inkscape:connector-curvature="0" /><g
           id="g70"><path
             id="path72"
             style="fill:none;stroke:#000000;stroke-width:2.49039006;stroke-linecap:butt;stroke-linejoin:round;stroke-miterlimit:10;stroke-dasharray:none;stroke-opacity:1"
             d="M 124.1,216.1 H 27.7 v 76.8 h 192.8 v -76.8 z"
             inkscape:connector-curvature="0" /></g><g
           id="g74"><text
             id="text78"
             style="font-variant:normal;font-weight:normal;font-size:20px;font-family:Carlito;-inkscape-font-specification:Carlito;writing-mode:lr-tb;fill:#000000;fill-opacity:1;fill-rule:nonzero;stroke:none"
             transform="matrix(1,0,0,-1,34.8,269.3)"><tspan
               id="tspan76"
               y="0"
               x="0 13.28 23.860001 28.360001 37.540001 42.040001 52.619999 63.200001 73.099998 77.68 84.360001 94.940002 101.64 111.54 121.12 131.7 136.2 150.48 155.06 159.64 164.14">Only one thread will </tspan></text>
</g><g
           id="g80"><text
             id="text84"
             style="font-variant:normal;font-weight:normal;font-size:20px;font-family:Carlito;-inkscape-font-specification:Carlito;writing-mode:lr-tb;fill:#000000;fill-opacity:1;fill-rule:nonzero;stroke:none"
             transform="matrix(1,0,0,-1,34.8,245.3)"><tspan
               id="tspan82"
               y="0"
               x="0 9.6999998 17.9 27.799999 36.380001 46.880001 53.380001">execute</tspan></text>
</g><g
           id="g86"><text
             id="text90"
             style="font-variant:normal;font-weight:normal;font-size:18px;font-family:Carlito;-inkscape-font-specification:Carlito;writing-mode:lr-tb;fill:#ff0000;fill-opacity:1;fill-rule:nonzero;stroke:none"
             transform="matrix(1,0,0,-1,34.8,223.3)"><tspan
               id="tspan88"
               y="0"
               x="0 5.4000001 20.790001 29.988001 34.577999 43.560001 52.254002 63.450001 73.152 81.755997 92.232002 103.23 112.212 120.492 125.082 136.674 148.05 155.62801 164.32201">(MPI_THREAD_SINGLE)</tspan></text>
</g><path
           id="path92"
           style="fill:#ffffff;fill-opacity:1;fill-rule:evenodd;stroke:none"
           d="M 337,227.8 H 228.2 v 52.8 h 217.6 v -52.8 z"
           inkscape:connector-curvature="0" /><g
           id="g94"><path
             id="path96"
             style="fill:none;stroke:#000000;stroke-width:2.49039006;stroke-linecap:butt;stroke-linejoin:round;stroke-miterlimit:10;stroke-dasharray:none;stroke-opacity:1"
             d="M 337,227.8 H 228.2 v 52.8 h 217.6 v -52.8 z"
             inkscape:connector-curvature="0" /></g><g
           id="g98"><text
             id="text102"
             style="font-variant:normal;font-weight:normal;font-size:20px;font-family:Carlito;-inkscape-font-specification:Carlito;writing-mode:lr-tb;fill:#000000;fill-opacity:1;fill-rule:nonzero;stroke:none"
             transform="matrix(1,0,0,-1,235.3,257)"><tspan
               id="tspan100"
               y="0"
               x="0 17.18 27.48 32.48 37.060001 47.639999 58.139999 62.720001 71.800003 76.379997 86.879997 97.459999 102.04 117.94 127.52 132.10001 142.60001 147.17999 153.86 164.44 171.14 181.12 190.62">MPI only on main thread</tspan></text>
</g><g
           id="g104"><text
             id="text108"
             style="font-variant:normal;font-weight:normal;font-size:18px;font-family:Carlito;-inkscape-font-specification:Carlito;writing-mode:lr-tb;fill:#ff0000;fill-opacity:1;fill-rule:nonzero;stroke:none"
             transform="matrix(1,0,0,-1,235.3,235)"><tspan
               id="tspan106"
               y="0"
               x="0 5.4000001 20.790001 29.988001 34.577999 43.560001 52.344002 63.450001 73.152 81.846001 92.25 103.338 112.23 120.51 132.084 143.67599 155.26801 164.052 171.63 180.32401 191.32201">(MPI_THREAD_FUNNELED)</tspan></text>
</g><path
           id="path110"
           style="fill:#ffffff;fill-opacity:1;fill-rule:evenodd;stroke:none"
           d="m 137.5,358.9 -13.4,-66 z m 0,0 z m -13.4,-66 z"
           inkscape:connector-curvature="0" /><g
           id="g112"><path
             id="path114"
             style="fill:none;stroke:#000000;stroke-width:2.49039006;stroke-linecap:butt;stroke-linejoin:round;stroke-miterlimit:10;stroke-dasharray:none;stroke-opacity:1"
             d="M 137.5,358.9 126.2,303.1"
             inkscape:connector-curvature="0" /></g><path
           id="path116"
           style="fill:#000000;fill-opacity:1;fill-rule:evenodd;stroke:none"
           d="m 124.1,292.9 -3.5,11.1 1.9,0.7 2.4,-7.8 5.3,6.2 1.4,-1.3 z"
           inkscape:connector-curvature="0" /><path
           id="path118"
           style="fill:#ffffff;fill-opacity:1;fill-rule:evenodd;stroke:none"
           d="M 536.3,227.2 H 485.2 V 330.4 H 587.3 V 227.2 Z"
           inkscape:connector-curvature="0" /><g
           id="g120"><path
             id="path122"
             style="fill:none;stroke:#000000;stroke-width:2.49039006;stroke-linecap:butt;stroke-linejoin:round;stroke-miterlimit:10;stroke-dasharray:none;stroke-opacity:1"
             d="M 536.3,227.2 H 485.2 V 330.4 H 587.3 V 227.2 Z"
             inkscape:connector-curvature="0" /></g><g
           id="g124"><text
             id="text128"
             style="font-variant:normal;font-weight:normal;font-size:20px;font-family:Carlito;-inkscape-font-specification:Carlito;writing-mode:lr-tb;fill:#000000;fill-opacity:1;fill-rule:nonzero;stroke:none"
             transform="matrix(1,0,0,-1,492.3,306.8)"><tspan
               id="tspan126"
               y="0"
               x="0 17.18 27.48 32.48 37.060001 47.639999 58.139999">MPI on </tspan></text>
</g><g
           id="g130"><text
             id="text134"
             style="font-variant:normal;font-weight:normal;font-size:20px;font-family:Carlito;-inkscape-font-specification:Carlito;writing-mode:lr-tb;fill:#000000;fill-opacity:1;fill-rule:nonzero;stroke:none"
             transform="matrix(1,0,0,-1,492.3,282.8)"><tspan
               id="tspan132"
               y="0"
               x="0 15.98 26.559999 33.259998 43.16 47.740002 54.419998 64.919998 74.599998 85.099998">more than </tspan></text>
</g><g
           id="g136"><text
             id="text140"
             style="font-variant:normal;font-weight:normal;font-size:20px;font-family:Carlito;-inkscape-font-specification:Carlito;writing-mode:lr-tb;fill:#000000;fill-opacity:1;fill-rule:nonzero;stroke:none"
             transform="matrix(1,0,0,-1,492.3,258.8)"><tspan
               id="tspan138"
               y="0"
               x="0 10.58 21.08 31.059999">one </tspan></text>
</g><g
           id="g142"><text
             id="text146"
             style="font-variant:normal;font-weight:normal;font-size:20px;font-family:Carlito;-inkscape-font-specification:Carlito;writing-mode:lr-tb;fill:#000000;fill-opacity:1;fill-rule:nonzero;stroke:none"
             transform="matrix(1,0,0,-1,492.3,234.8)"><tspan
               id="tspan144"
               y="0"
               x="0 6.6799998 17.26 23.959999 33.939999 43.52">thread</tspan></text>
</g><path
           id="path148"
           style="fill:#ffffff;fill-opacity:1;fill-rule:evenodd;stroke:none"
           d="m 316.1,340.3 21,-59.7 z m 0,0 z m 21,-59.7 z"
           inkscape:connector-curvature="0" /><g
           id="g150"><path
             id="path152"
             style="fill:none;stroke:#000000;stroke-width:2.49039006;stroke-linecap:butt;stroke-linejoin:round;stroke-miterlimit:10;stroke-dasharray:none;stroke-opacity:1"
             d="m 316.1,340.3 17.5,-49.9"
             inkscape:connector-curvature="0" /></g><path
           id="path154"
           style="fill:#000000;fill-opacity:1;fill-rule:evenodd;stroke:none"
           d="m 337.1,280.6 -8.7,7.7 1.3,1.6 6,-5.5 1.4,8.1 1.9,-0.5 z"
           inkscape:connector-curvature="0" /><path
           id="path156"
           style="fill:#ffffff;fill-opacity:1;fill-rule:evenodd;stroke:none"
           d="M 616.6,119.8 H 506.1 v 52.7 h 221.1 v -52.7 z"
           inkscape:connector-curvature="0" /><g
           id="g158"><path
             id="path160"
             style="fill:none;stroke:#000000;stroke-width:2.49039006;stroke-linecap:butt;stroke-linejoin:round;stroke-miterlimit:10;stroke-dasharray:none;stroke-opacity:1"
             d="M 616.6,119.8 H 506.1 v 52.7 h 221.1 v -52.7 z"
             inkscape:connector-curvature="0" /></g><g
           id="g162"
           transform="translate(-117.86701,-0.89974818)"><text
             id="text166"
             style="font-variant:normal;font-weight:normal;font-size:20px;font-family:Carlito;-inkscape-font-specification:Carlito;writing-mode:lr-tb;fill:#000000;fill-opacity:1;fill-rule:nonzero;stroke:none"
             transform="matrix(1,0,0,-1,513.2,149)"><tspan
               id="tspan164"
               x="119.06">No restrictions </tspan></text>
</g><g
           id="g168"><text
             id="text172"
             style="font-variant:normal;font-weight:normal;font-size:18px;font-family:Carlito;-inkscape-font-specification:Carlito;writing-mode:lr-tb;fill:#ff0000;fill-opacity:1;fill-rule:nonzero;stroke:none"
             transform="matrix(1,0,0,-1,513.2,127)"><tspan
               id="tspan170"
               y="0"
               x="0 5.4000001 20.700001 29.988001 34.487999 43.577999 52.271999 63.467999 73.169998 81.774002 92.25 103.248 112.23 127.62 139.12199 145.314 154.09801 158.688 167.886 175.392 184.17599">(MPI_THREAD_MULTIPLE)</tspan></text>
</g><path
           id="path174"
           style="fill:#ffffff;fill-opacity:1;fill-rule:evenodd;stroke:none"
           d="m 364.6,119.8 h -108 v 52.7 h 216 v -52.7 z"
           inkscape:connector-curvature="0" /><g
           id="g176"><path
             id="path178"
             style="fill:none;stroke:#000000;stroke-width:2.49039006;stroke-linecap:butt;stroke-linejoin:round;stroke-miterlimit:10;stroke-dasharray:none;stroke-opacity:1"
             d="m 364.6,119.8 h -108 v 52.7 h 216 v -52.7 z"
             inkscape:connector-curvature="0" /></g><g
           id="g180"><text
             id="text184"
             style="font-variant:normal;font-weight:normal;font-size:20px;font-family:Carlito;-inkscape-font-specification:Carlito;writing-mode:lr-tb;fill:#000000;fill-opacity:1;fill-rule:nonzero;stroke:none"
             transform="matrix(1,0,0,-1,263.7,149)"><tspan
               id="tspan182"
               y="0"
               x="0 12.98 23.48 28.059999 36.360001 46.860001 57.439999 65.919998 76.5 83.400002 90.099998 100.08 110.38 117.06 121.64 138.82001 149.12 154.12 158.7 167 176.58 181.08 185.66 193.46001">No concurrent MPI calls </tspan></text>
</g><g
           id="g186"><text
             id="text190"
             style="font-variant:normal;font-weight:normal;font-size:18px;font-family:Carlito;-inkscape-font-specification:Carlito;writing-mode:lr-tb;fill:#ff0000;fill-opacity:1;fill-rule:nonzero;stroke:none"
             transform="matrix(1,0,0,-1,263.7,127)"><tspan
               id="tspan188"
               y="0"
               x="0 5.4000001 20.790001 29.988001 34.577999 43.560001 52.254002 63.450001 73.152 81.755997 92.232002 103.23 112.212 120.492 129.276 138.978 143.478 153.95399 161.46001 166.05 174.45599 183.24001 194.23801">(MPI_THREAD_SERIALIZED)</tspan></text>
</g><path
           id="path192"
           style="fill:#ffffff;fill-opacity:1;fill-rule:evenodd;stroke:none"
           d="M 536.2,226.2 364.6,172.6 Z m 0,0 z M 364.6,172.6 Z"
           inkscape:connector-curvature="0" /><g
           id="g194"><path
             id="path196"
             style="fill:none;stroke:#000000;stroke-width:2.49039006;stroke-linecap:butt;stroke-linejoin:round;stroke-miterlimit:10;stroke-dasharray:none;stroke-opacity:1"
             d="M 536.2,226.2 374.6,175.7"
             inkscape:connector-curvature="0" /></g><path
           id="path198"
           style="fill:#000000;fill-opacity:1;fill-rule:evenodd;stroke:none"
           d="m 364.6,172.6 8,8.3 1.5,-1.3 -5.7,-5.8 8,-1.7 -0.4,-1.9 z"
           inkscape:connector-curvature="0" /><path
           id="path200"
           style="fill:#ffffff;fill-opacity:1;fill-rule:evenodd;stroke:none"
           d="m 387,368.1 98.3,-89.8 z m 0,0 z m 98.3,-89.8 z"
           inkscape:connector-curvature="0" /><g
           id="g202"><path
             id="path204"
             style="fill:none;stroke:#000000;stroke-width:2.49039006;stroke-linecap:butt;stroke-linejoin:round;stroke-miterlimit:10;stroke-dasharray:none;stroke-opacity:1"
             d="m 387,368.1 90.5,-82.8"
             inkscape:connector-curvature="0" /></g><path
           id="path206"
           style="fill:#000000;fill-opacity:1;fill-rule:evenodd;stroke:none"
           d="m 485.3,278.3 -11.3,2.7 0.3,1.9 8,-1.9 -2.6,7.7 1.8,0.6 z"
           inkscape:connector-curvature="0" /><path
           id="path208"
           style="fill:#ffffff;fill-opacity:1;fill-rule:evenodd;stroke:none"
           d="m 536.3,226.2 80.3,-53.6 z m 0,0 z m 80.3,-53.6 z"
           inkscape:connector-curvature="0" /><g
           id="g210"><path
             id="path212"
             style="fill:none;stroke:#000000;stroke-width:2.49039006;stroke-linecap:butt;stroke-linejoin:round;stroke-miterlimit:10;stroke-dasharray:none;stroke-opacity:1"
             d="m 536.3,226.2 71.6,-47.8"
             inkscape:connector-curvature="0" /></g><path
           id="path214"
           style="fill:#000000;fill-opacity:1;fill-rule:evenodd;stroke:none"
           d="m 616.6,172.6 -11.5,0.9 v 2 l 8.2,-0.7 -3.8,7.2 1.8,0.9 z"
           inkscape:connector-curvature="0" /></g></g></g></svg>